<?xml version="1.0" encoding="UTF-8"?>
<svg width="40px" height="38px" viewBox="0 0 40 38" version="1.1" xmlns="http://www.w3.org/2000/svg" xmlns:xlink="http://www.w3.org/1999/xlink">
    <!-- Generator: Sketch 52.4 (67378) - http://www.bohemiancoding.com/sketch -->
    <title>icon/clock copy</title>
    <desc>Created with Sketch.</desc>
    <defs>
        <path d="M43.89375,15.8653135 L43.89375,15.9562462 C43.8826522,16.3021227 43.7448744,16.6445006 43.4804167,16.9089583 C43.2033333,17.1839583 42.8408333,17.319375 42.47625,17.319375 C42.1179167,17.319375 41.7595833,17.1839583 41.4783333,16.9089583 L33.2345833,8.66520833 C32.6825,8.113125 32.6825,7.22145833 33.2345833,6.669375 C33.7866667,6.11104167 34.6783333,6.11104167 35.2366667,6.669375 L43.4804167,14.9110417 C43.7448744,15.1764974 43.8826522,15.5193952 43.89375,15.8653138 Z M15.2355208,7.66708036 L15.2355208,7.66708631 C15.2355203,8.02802233 15.0974994,8.38895891 14.8214583,8.665 L6.57770833,16.90875 C6.30270833,17.18375 5.94229167,17.3191667 5.57770833,17.3191667 C5.21520833,17.3191667 4.856875,17.18375 4.57979167,16.90875 C4.31688492,16.6458432 4.17917658,16.3059277 4.16666667,15.9621228 L4.16666667,15.8590194 C4.17917658,15.5151674 4.31688492,15.1747322 4.57979167,14.9108333 L12.825625,6.66916667 C13.3777083,6.11083333 14.269375,6.11083333 14.8214583,6.66916667 C15.0974994,6.94520776 15.2355203,7.30614433 15.2355208,7.66708108 Z M29.6885417,26.314375 C30.4635417,26.314375 31.096875,26.9497917 31.096875,27.7310417 C31.096875,28.5122917 30.4635417,29.1435417 29.6885417,29.1435417 L24.0677083,29.1435417 C24.0385417,29.1435417 24.0114583,29.1289583 23.9802083,29.126875 C23.890625,29.1435417 23.809375,29.1789583 23.715625,29.1789583 C22.9364583,29.1789583 22.3010417,28.545625 22.3010417,27.764375 L22.3010417,20.1497917 C22.3010417,19.3685417 22.9364583,18.7352083 23.715625,18.7352083 C24.496875,18.7352083 25.1302083,19.3685417 25.1302083,20.1497917 L25.1302083,26.314375 L29.6885417,26.314375 Z M12.0147917,26.74875 C12.0147917,19.9904167 17.510625,14.4966667 24.2627083,14.4966667 C31.0210417,14.4966667 36.510625,19.9904167 36.510625,26.74875 C36.510625,33.4966667 31.0210417,38.9904167 24.2627083,38.9904167 C17.510625,38.9904167 12.0147917,33.4966667 12.0147917,26.74875 M36.3920255,43.865 L36.3242873,43.865 C35.9712081,43.8564116 35.6207618,43.7151368 35.354375,43.44875 L31.7314583,39.8258333 C29.5272917,41.0883333 26.9814583,41.8216667 24.2627083,41.8216667 C21.3022917,41.8216667 18.5460417,40.9508333 16.2147917,39.4695833 L12.5064583,43.1716667 C12.2314583,43.44875 11.873125,43.5883333 11.5085417,43.5883333 C11.1460417,43.5883333 10.7814583,43.44875 10.510625,43.1716667 C9.960625,42.6195833 9.960625,41.7279167 10.510625,41.1758333 L13.9627083,37.7195833 C11.0335417,34.9695833 9.18979167,31.07375 9.18979167,26.74875 C9.18979167,18.43 15.954375,11.6716667 24.2627083,11.6716667 C32.5772917,11.6716667 39.341875,18.43 39.341875,26.74875 C39.341875,31.3133333 37.291875,35.4029167 34.073125,38.1695833 L37.3564583,41.4529167 C37.9085417,42.005 37.9085417,42.8945833 37.3564583,43.44875 C37.0840173,43.7151368 36.7372911,43.8564116 36.3920255,43.865 Z" id="path-1"></path>
    </defs>
    <g id="Page-1" stroke="none" stroke-width="1" fill="none" fill-rule="evenodd">
        <g id="오시는길" transform="translate(-414.000000, -1318.000000)">
            <g id="icon/clock" transform="translate(410.000000, 1312.000000)">
                <mask id="mask-2" fill="white">
                    <use xlink:href="#path-1"></use>
                </mask>
                <use id="Mask" fill="#231916" fill-rule="evenodd" xlink:href="#path-1"></use>
                <g id="swatch/brown" mask="url(#mask-2)" fill="#8D7047" fill-rule="evenodd">
                    <rect id="Rectangle" x="0" y="0" width="52" height="50"></rect>
                </g>
            </g>
        </g>
    </g>
</svg>