<?xml version="1.0" encoding="UTF-8"?>
<svg width="46px" height="35px" viewBox="0 0 46 35" version="1.1" xmlns="http://www.w3.org/2000/svg" xmlns:xlink="http://www.w3.org/1999/xlink">
    <!-- Generator: Sketch 52.4 (67378) - http://www.bohemiancoding.com/sketch -->
    <title> round/ver1/hospital</title>
    <desc>Created with Sketch.</desc>
    <defs>
        <path d="M36.5348218,39.7216627 L40.4868764,39.7216627 L40.4868764,20.3506208 L36.5348218,20.3506208 L36.5348218,39.7216627 Z M30.5678168,39.723473 L30.5678168,32.8530895 C30.5678168,32.1524733 29.9993581,31.5858251 29.3005523,31.5858251 L20.701258,31.5858251 C20.0006419,31.5858251 19.4321832,32.1524733 19.4321832,32.8530895 L19.4321832,39.723473 L16.0196212,39.723473 L16.0196212,19.0833564 C16.0196212,19.0652526 16.0087589,19.0489592 16.0087589,19.0308554 L16.0087589,10.8678622 L33.9912411,10.8678622 L33.9912411,39.723473 L30.5678168,39.723473 Z M21.9685225,39.7216627 L28.0332879,39.7216627 L28.0332879,34.1203539 L21.9685225,34.1203539 L21.9685225,39.7216627 Z M9.53122737,39.7216627 L13.4724197,39.7216627 L13.4724197,20.3506208 L9.53122737,20.3506208 L9.53122737,39.7216627 Z M46.6494022,39.723473 L43.0214052,39.723473 L43.0214052,19.0833564 C43.0214052,18.3827402 42.454757,17.816092 41.7541408,17.816092 L36.5257699,17.816092 L36.5257699,9.60059775 C36.5257699,8.89998157 35.9573113,8.33333333 35.2585055,8.33333333 L14.7414945,8.33333333 C14.0408783,8.33333333 13.4742301,8.89998157 13.4742301,9.60059775 L13.4742301,17.816092 L8.26396295,17.816092 C7.56334676,17.816092 6.99669853,18.3827402 6.99669853,19.0833564 L6.99669853,39.723473 L3.35059775,39.723473 C2.64998157,39.723473 2.08333333,40.2901213 2.08333333,40.9907374 C2.08333333,41.6913536 2.64998157,42.2580019 3.35059775,42.2580019 L8.26396295,42.2580019 L14.7414945,42.2580019 L14.7523568,42.2580019 L20.701258,42.2580019 L29.3005523,42.2580019 L35.2585055,42.2580019 L35.2675574,42.2580019 L41.7541408,42.2580019 L46.6494022,42.2580019 C47.3482081,42.2580019 47.9166667,41.6913536 47.9166667,40.9907374 C47.9166667,40.2901213 47.3482081,39.723473 46.6494022,39.723473 Z M29.0507202,21.0488835 L26.9977518,21.0488835 C26.2971357,21.0488835 25.7304874,21.6155317 25.7304874,22.3161479 L25.7304874,24.3673059 L24.2677022,24.3673059 L24.2677022,22.3161479 C24.2677022,21.6155317 23.701054,21.0488835 23.0004378,21.0488835 L20.9492798,21.0488835 L20.9492798,19.5860983 L23.0004378,19.5860983 C23.701054,19.5860983 24.2677022,19.0176397 24.2677022,18.3188339 L24.2677022,16.2676759 L25.7304874,16.2676759 L25.7304874,18.3188339 C25.7304874,19.0176397 26.2971357,19.5860983 26.9977518,19.5860983 L29.0507202,19.5860983 L29.0507202,21.0488835 Z M30.3179846,17.0515694 L28.2650163,17.0515694 L28.2650163,15.0004114 C28.2650163,14.2997953 27.698368,13.733147 26.9977518,13.733147 L23.0004378,13.733147 C22.2998216,13.733147 21.7331734,14.2997953 21.7331734,15.0004114 L21.7331734,17.0515694 L19.6820154,17.0515694 C18.9813992,17.0515694 18.414751,17.6182177 18.414751,18.3188339 L18.414751,22.3161479 C18.414751,23.0167641 18.9813992,23.5834123 19.6820154,23.5834123 L21.7331734,23.5834123 L21.7331734,25.6363807 C21.7331734,26.3351865 22.2998216,26.9036451 23.0004378,26.9036451 L26.9977518,26.9036451 C27.698368,26.9036451 28.2650163,26.3351865 28.2650163,25.6363807 L28.2650163,23.5834123 L30.3179846,23.5834123 C31.0186008,23.5834123 31.585249,23.0167641 31.585249,22.3161479 L31.585249,18.3188339 C31.585249,17.6182177 31.0186008,17.0515694 30.3179846,17.0515694 Z" id="path-1"></path>
    </defs>
    <g id="Page-1" stroke="none" stroke-width="1" fill="none" fill-rule="evenodd">
        <g id="오시는길" transform="translate(-412.000000, -1123.000000)">
            <g id="-round/ver1/hospital" transform="translate(410.000000, 1115.000000)">
                <mask id="mask-2" fill="white">
                    <use xlink:href="#path-1"></use>
                </mask>
                <use id="Mask" fill="#613627" fill-rule="evenodd" xlink:href="#path-1"></use>
                <g id="swatch/brown" mask="url(#mask-2)" fill="#8D7047" fill-rule="evenodd">
                    <rect id="Rectangle" x="0" y="0" width="52" height="50"></rect>
                </g>
            </g>
        </g>
    </g>
</svg>