<?xml version="1.0" encoding="UTF-8"?>
<svg width="38px" height="29px" viewBox="0 0 38 29" version="1.1" xmlns="http://www.w3.org/2000/svg" xmlns:xlink="http://www.w3.org/1999/xlink">
    <!-- Generator: Sketch 52.4 (67378) - http://www.bohemiancoding.com/sketch -->
    <title> round/ver1/talk/2</title>
    <desc>Created with Sketch.</desc>
    <defs>
        <path d="M34.2925,23.6145833 C33.42375,23.6145833 32.72375,24.3125 32.72375,25.1770833 C32.72375,26.0395833 33.42375,26.7395833 34.2925,26.7395833 C35.14875,26.7395833 35.855,26.0395833 35.855,25.1770833 C35.855,24.3125 35.14875,23.6145833 34.2925,23.6145833 M25.5320833,23.6145833 C26.3904167,23.6145833 27.0945833,24.3125 27.0945833,25.1770833 C27.0945833,26.0395833 26.3904167,26.7395833 25.5320833,26.7395833 C24.6633333,26.7395833 23.9633333,26.0395833 23.9633333,25.1770833 C23.9633333,24.3125 24.6633333,23.6145833 25.5320833,23.6145833 Z M16.7714583,23.6145833 C17.6360417,23.6145833 18.3339583,24.3125 18.3339583,25.1770833 C18.3339583,26.0395833 17.6360417,26.7395833 16.7714583,26.7395833 C15.9089583,26.7395833 15.2089583,26.0395833 15.2089583,25.1770833 C15.2089583,24.3125 15.9089583,23.6145833 16.7714583,23.6145833 Z M40.5985417,30.6477083 C40.5985417,32.739375 38.8964583,34.4477083 36.7985417,34.4477083 L12.8922917,34.4477083 C11.5402083,34.4477083 10.500625,35.6935417 9.50270833,36.895625 C9.42770833,36.989375 9.338125,37.095625 9.250625,37.201875 C9.150625,36.2102083 9.056875,34.4289583 9.07979167,31.276875 L9.08604167,19.1227083 C9.08604167,17.033125 10.794375,15.3247917 12.8922917,15.3247917 L36.7985417,15.3247917 C38.8964583,15.3247917 40.5985417,17.033125 40.5985417,19.1227083 L40.5985417,30.6477083 Z M36.7985417,12.4997917 L12.8922917,12.4997917 C9.23395833,12.4997917 6.26104167,15.470625 6.26104167,19.1227083 L6.256875,31.2539583 C6.20270833,37.070625 6.49645833,39.3497917 7.43604167,40.295625 C7.794375,40.6477083 8.25895833,40.8414583 8.744375,40.8414583 C9.89645833,40.8414583 10.7235417,39.8477083 11.675625,38.7039583 C12.063125,38.2352083 12.6964583,37.470625 13.025625,37.2727083 L36.7985417,37.2727083 C40.4527083,37.2727083 43.4277083,34.301875 43.4277083,30.6477083 L43.4277083,19.1227083 C43.4277083,15.470625 40.4527083,12.4997917 36.7985417,12.4997917 Z" id="path-1"></path>
    </defs>
    <g id="Page-1" stroke="none" stroke-width="1" fill="none" fill-rule="evenodd">
        <g id="오시는길" transform="translate(-1016.000000, -1404.000000)">
            <g id="-round/ver1/talk/2" transform="translate(1010.000000, 1392.000000)">
                <mask id="mask-2" fill="white">
                    <use xlink:href="#path-1"></use>
                </mask>
                <use id="Mask" fill="#231916" fill-rule="evenodd" xlink:href="#path-1"></use>
                <g id="swatch/brown" mask="url(#mask-2)" fill="#8D7047" fill-rule="evenodd">
                    <rect id="Rectangle" x="0" y="0" width="52" height="50"></rect>
                </g>
            </g>
        </g>
    </g>
</svg>