<?xml version="1.0" encoding="UTF-8"?>
<svg width="32px" height="46px" viewBox="0 0 32 46" version="1.1" xmlns="http://www.w3.org/2000/svg" xmlns:xlink="http://www.w3.org/1999/xlink">
    <!-- Generator: Sketch 52.4 (67378) - http://www.bohemiancoding.com/sketch -->
    <title> round/ver1/subway</title>
    <desc>Created with Sketch.</desc>
    <defs>
        <path d="M23.3363241,34.8551047 L28.7461936,34.8551047 C29.4741707,34.8551047 30.0675639,34.2637507 30.0675639,33.5357735 C30.0675639,32.8077964 29.4741707,32.2164424 28.7461936,32.2164424 L23.3363241,32.2164424 C22.6083469,32.2164424 22.0169929,32.8077964 22.0169929,33.5357735 C22.0169929,34.2637507 22.6083469,34.8551047 23.3363241,34.8551047 M17.5714383,32.8139138 C17.9690729,32.8139138 18.293298,33.1381389 18.293298,33.5357735 C18.293298,33.9334081 17.9690729,34.2576332 17.5714383,34.2576332 C17.1738037,34.2576332 16.8495786,33.9334081 16.8495786,33.5357735 C16.8495786,33.1381389 17.1738037,32.8139138 17.5714383,32.8139138 M17.5714383,36.8962955 C19.4250272,36.8962955 20.9319603,35.3893624 20.9319603,33.5357735 C20.9319603,31.6821846 19.4250272,30.1752515 17.5714383,30.1752515 C15.7198885,30.1752515 14.2129554,31.6821846 14.2129554,33.5357735 C14.2129554,35.3893624 15.7198885,36.8962955 17.5714383,36.8962955 M34.4562262,32.8139138 C34.8538608,32.8139138 35.1780859,33.1381389 35.1780859,33.5357735 C35.1780859,33.9334081 34.8538608,34.2576332 34.4562262,34.2576332 C34.0585916,34.2576332 33.7343665,33.9334081 33.7343665,33.5357735 C33.7343665,33.1381389 34.0585916,32.8139138 34.4562262,32.8139138 M34.4562262,36.8962955 C36.307776,36.8962955 37.8147091,35.3893624 37.8147091,33.5357735 C37.8147091,31.6821846 36.307776,30.1752515 34.4562262,30.1752515 C32.6026373,30.1752515 31.0957042,31.6821846 31.0957042,33.5357735 C31.0957042,35.3893624 32.6026373,36.8962955 34.4562262,36.8962955 M13.3815933,13.0537181 C13.8791463,12.0728861 14.8864872,11.4346316 15.9937466,11.4346316 L36.0875476,11.4346316 C37.194807,11.4346316 38.2021479,12.0728861 38.7017401,13.0537181 L13.3815933,13.0537181 Z M13.055329,26.9811243 L39.0280044,26.9811243 L39.0280044,15.6923804 L13.055329,15.6923804 L13.055329,26.9811243 Z M16.012099,43.0170133 L35.569603,43.0108959 L36.0671561,43.7511079 L15.5186243,43.7511079 L16.012099,43.0170133 Z M17.3640566,40.86163 L17.8167482,40.311059 L33.7690321,40.311059 L34.2625068,40.9064913 L17.3640566,40.86163 Z M39.0280044,29.6197866 L39.0280044,34.7339791 C39.0280044,36.3551047 37.7086732,37.6723967 36.0875476,37.6723967 L15.9937466,37.6723967 C14.372621,37.6723967 13.055329,36.3551047 13.055329,34.7339791 L13.055329,29.6197866 L39.0280044,29.6197866 Z M21.2160141,8.79596928 L22.194807,6.55494154 L29.8864872,6.55494154 L30.86528,8.79596928 L21.2160141,8.79596928 Z M41.6666667,34.7339791 L41.6666667,14.3730492 C41.6666667,11.2980084 39.1646275,8.79596928 36.0875476,8.79596928 L33.7445623,8.79596928 L31.9603045,4.70747009 C31.7482327,4.22623029 31.2731104,3.91627923 30.7510875,3.91627923 L21.3322458,3.91627923 C20.8081838,3.91627923 20.3330614,4.22623029 20.1209897,4.70747009 L18.3387711,8.79596928 L15.9937466,8.79596928 C12.9187058,8.79596928 10.4166667,11.2980084 10.4166667,14.3730492 L10.4166667,34.7339791 C10.4166667,37.3604065 12.2192768,39.5810427 14.7559815,40.1520052 L10.689913,46.1960508 C10.286161,46.7996397 10.4472539,47.623457 11.0508428,48.0292482 C11.6381185,48.4207654 12.4884448,48.2515158 12.8799619,47.6703575 L13.7425231,46.3897703 L37.8412181,46.3897703 L38.7037792,47.6703575 C38.9484774,48.0333265 39.3583469,48.2515158 39.8008428,48.2515158 C40.0598151,48.2515158 40.3147091,48.1760672 40.5349375,48.0272091 C41.1385264,47.6214179 41.2975802,46.7996397 40.891789,46.1940117 L36.8787384,40.2315321 C39.5948885,39.8420541 41.6666667,37.5051862 41.6666667,34.7339791 Z" id="path-1"></path>
    </defs>
    <g id="Page-1" stroke="none" stroke-width="1" fill="none" fill-rule="evenodd">
        <g id="오시는길" transform="translate(-420.000000, -1204.000000)">
            <g id="-round/ver1/subway" transform="translate(410.000000, 1201.000000)">
                <mask id="mask-2" fill="white">
                    <use xlink:href="#path-1"></use>
                </mask>
                <use id="Fill-4" fill="#E50113" fill-rule="evenodd" xlink:href="#path-1"></use>
                <g id="swatch/brown" mask="url(#mask-2)" fill="#8D7047" fill-rule="evenodd">
                    <rect id="Rectangle" x="0" y="0" width="52" height="50"></rect>
                </g>
            </g>
        </g>
    </g>
</svg>