<?xml version="1.0" encoding="UTF-8"?>
<svg width="39px" height="40px" viewBox="0 0 39 40" version="1.1" xmlns="http://www.w3.org/2000/svg" xmlns:xlink="http://www.w3.org/1999/xlink">
    <!-- Generator: Sketch 52.4 (67378) - http://www.bohemiancoding.com/sketch -->
    <title>icon/call copy</title>
    <desc>Created with Sketch.</desc>
    <defs>
        <path d="M41.0004167,38.043125 L35.3816667,42.5702083 C35.1795833,42.6472917 34.6879167,42.793125 33.99,42.793125 C32.6545833,42.793125 31.2025,42.2577083 29.7920833,41.243125 L10.62125,22.3139583 C10.5191667,22.1910417 8.10458333,19.3535417 9.53166667,15.6035417 L13.39,9.47854167 C13.5191667,9.35354167 13.8816667,9.07229167 14.4045833,9.07229167 C14.9358333,9.07229167 15.5670833,9.36604167 16.1358333,9.843125 L19.0816667,12.7827083 L19.32125,12.9785417 C19.32125,12.9785417 19.54,13.1597917 19.5691667,13.3827083 C19.6066667,13.6910417 19.34,14.1827083 18.7775,14.793125 C18.3025,15.3847917 15.98375,18.4847917 17.0420833,20.874375 L17.1504167,21.1160417 L29.2983333,33.2577083 C29.4066667,33.380625 30.4129167,34.443125 32.1233333,34.443125 C33.2025,34.443125 34.2879167,34.0202083 35.34625,33.186875 L35.5191667,33.0222917 C35.75875,32.7597917 36.5670833,32.0722917 37.3754167,32.0722917 C37.7295833,32.0722917 38.0733333,32.2077083 38.29625,32.3702083 L42.0275,36.093125 C42.0275,36.099375 42.2004167,36.311875 42.19,36.5577083 C42.1691667,36.9514583 41.7504167,37.4785417 41.0004167,38.043125 M45.0145833,36.503928 L45.0145833,36.5608247 C45.0142145,36.6051353 45.0129808,36.6499327 45.0108333,36.6952083 C44.9504167,37.9847917 44.1858333,39.1889583 42.7358333,40.274375 L36.7691667,45.0535417 C36.6568991,45.1066136 35.6626419,45.6036803 34.0881669,45.62375 L33.8932293,45.62375 C32.5211725,45.6060721 30.416685,45.205811 28.0379167,43.4639583 L27.8795833,43.3347917 L8.56916667,24.2514583 C8.40206239,24.0716223 6.27155136,21.6280938 6.25,18.0501767 L6.25,17.9408514 C6.25648375,16.864525 6.45509152,15.6878684 6.95458333,14.4410417 L7.06916667,14.211875 L11.0733333,7.85145833 C11.3000893,7.5572884 12.3982143,6.29960473 14.2911037,6.25083333 L14.5186951,6.25083333 C15.7055029,6.2811686 16.8895045,6.78472375 18.0441667,7.75770833 L21.0025,10.705625 C21.37125,10.9889583 22.2108333,11.755625 22.3733333,13.030625 C22.5233333,14.2285417 22.0358333,15.443125 20.9170833,16.636875 C20.2379167,17.499375 19.5358333,18.905625 19.5879167,19.5535417 L31.3441667,31.3160417 C31.38375,31.3514583 31.6629167,31.6202083 32.1233333,31.6202083 C32.5254167,31.6202083 33.0066667,31.4139583 33.5129167,31.0327083 C33.9275,30.605625 35.39625,29.2472917 37.3754167,29.2472917 C38.37125,29.2472917 39.315,29.586875 40.1691667,30.2639583 L43.9775,34.049375 C44.043435,34.113312 45.0023293,35.0338 45.0145833,36.5039329 Z" id="path-1"></path>
    </defs>
    <g id="Page-1" stroke="none" stroke-width="1" fill="none" fill-rule="evenodd">
        <g id="오시는길" transform="translate(-416.000000, -1398.000000)">
            <g id="icon/call" transform="translate(410.000000, 1392.000000)">
                <mask id="mask-2" fill="white">
                    <use xlink:href="#path-1"></use>
                </mask>
                <use id="Mask" fill="#231916" fill-rule="evenodd" xlink:href="#path-1"></use>
                <g id="swatch/brown" mask="url(#mask-2)" fill="#8D7047" fill-rule="evenodd">
                    <rect id="Rectangle" x="0" y="0" width="52" height="50"></rect>
                </g>
            </g>
        </g>
    </g>
</svg>