<?xml version="1.0" encoding="UTF-8"?>
<svg width="140px" height="144px" viewBox="0 0 140 144" version="1.1" xmlns="http://www.w3.org/2000/svg" xmlns:xlink="http://www.w3.org/1999/xlink">
    <!-- Generator: Sketch 52.4 (67378) - http://www.bohemiancoding.com/sketch -->
    <title>Group 12</title>
    <desc>Created with Sketch.</desc>
    <defs>
        <path d="M27.0542187,9.55437531 L30.6649687,5.85104197 L31.7797187,6.99604197 L28.1705937,10.6993753 C28.1640937,10.706042 28.1624687,10.716042 28.1543437,10.7227086 L27.0314687,9.57104197 C27.0379687,9.56270864 27.0477187,9.56104197 27.0542187,9.55437531 Z M25.8760937,17.226042 L24.5403437,15.856042 C24.1292187,15.4327086 23.4597187,15.4327086 23.0469687,15.856042 C22.6358437,16.2777086 22.6342187,16.9643753 23.0469687,17.3877086 L24.3827187,18.7577086 L22.9803437,20.196042 L21.6445937,18.826042 C21.2318437,18.4027086 20.5639687,18.4027086 20.1512187,18.826042 C19.7384687,19.2493753 19.7384687,19.936042 20.1512187,20.3577086 L21.4869687,21.7277086 L20.0829687,23.1677086 L15.1137187,18.0693753 L23.7229687,9.24104197 L28.6922187,14.3377086 L25.8760937,17.226042 Z M12.9963437,29.611042 L8.83146875,25.3393753 C8.60884375,25.111042 8.60884375,24.741042 8.83146875,24.5143753 L13.6203437,19.6027086 L18.5895937,24.6993753 L17.1872187,26.1377086 L15.8514687,24.7677086 C15.4387187,24.346042 14.7692187,24.346042 14.3580937,24.7677086 C13.9453437,25.191042 13.9453437,25.876042 14.3580937,26.2993753 L15.6938437,27.6693753 L13.8007187,29.611042 C13.5797187,29.8377086 13.2173437,29.8377086 12.9963437,29.611042 Z M8.97121875,29.9493753 C8.71284375,30.2143753 8.24321875,29.731042 8.50159375,29.4677086 L9.18571875,28.766042 L9.65534375,29.2477086 L8.97121875,29.9493753 Z M21.3602187,6.81770864 L22.2279687,7.70937531 L7.33809375,22.9827086 C6.29321875,24.0543753 6.29321875,25.7993753 7.33809375,26.871042 L7.69234375,27.2327086 L7.00821875,27.9343753 C6.32409375,28.6377086 6.13884375,29.6543753 6.43784375,30.5327086 L1.93334375,35.1527086 C1.52221875,35.576042 1.52221875,36.2627086 1.93334375,36.686042 C2.34609375,37.1077086 3.01559375,37.1077086 3.42671875,36.6843753 L7.93121875,32.0643753 C8.78921875,32.371042 9.78046875,32.1827086 10.4662187,31.481042 L11.1487187,30.7793753 L11.5029687,31.1427086 C12.5478437,32.2143753 14.2492187,32.2143753 15.2957187,31.1427086 L30.1855937,15.8693753 L31.0549687,16.761042 C31.4677187,17.1843753 32.1355937,17.1843753 32.5483437,16.761042 C32.9610937,16.3377086 32.9610937,15.6527086 32.5483437,15.2293753 L29.6412187,12.2477086 C29.6477187,12.2393753 29.6574687,12.2377086 29.6639687,12.231042 L33.2747187,8.52770864 L34.2740937,9.55437531 C34.6868437,9.97770864 35.3563437,9.97770864 35.7674687,9.55437531 C36.1802187,9.13270864 36.1802187,8.44604197 35.7674687,8.02270864 L29.8800937,1.98270864 C29.4673437,1.56104197 28.7978437,1.56104197 28.3850937,1.98437531 C27.9739687,2.40604197 27.9739687,3.09270864 28.3850937,3.51437531 L29.1715937,4.31937531 L25.5608437,8.02270864 C25.5543437,8.02937531 25.5527187,8.03937531 25.5445937,8.04770864 L22.8535937,5.28604197 C22.4408437,4.86270864 21.7729687,4.86270864 21.3602187,5.28437531 C20.9474687,5.70770864 20.9474687,6.39437531 21.3602187,6.81770864 Z" id="path-1"></path>
        <path d="M10.8458995,5.07593758 L21.4457672,5.07593758 L21.4457672,4.39613642 L10.8458995,4.39613642 L10.8458995,5.07593758 Z M11.4611429,7.2567397 L20.8287196,7.2567397 L20.8287196,6.88874067 L11.4611429,6.88874067 L11.4611429,7.2567397 Z M21.1715238,14.5369569 L11.1201429,14.5369569 C11.183291,13.8789094 11.3709312,13.4112062 11.8129683,12.7459075 C12.5202275,11.6799792 13.097582,10.4400219 13.121037,10.3874506 C13.1769683,10.2678056 13.205836,10.1372838 13.205836,10.0049492 L13.205836,9.076794 L16.1521481,9.09673483 L19.0858307,9.076794 L19.0858307,10.0049492 C19.0858307,10.1372838 19.1146984,10.2678056 19.1706296,10.3874506 C19.1940847,10.4400219 19.7714392,11.6799792 20.4786984,12.7459075 C20.9207354,13.4112062 21.1083757,13.8789094 21.1715238,14.5369569 Z M19.9771217,26.0083749 L12.3253704,26.0083749 C11.470164,25.988434 11.0858624,25.7437056 11.0930794,25.4427803 L11.0929797,25.1237269 L21.2040064,25.1237269 L21.204,25.5243564 C21.2058042,25.7418928 20.8233069,25.9848084 19.9771217,26.0083749 Z M21.1985873,16.34976 L21.2003915,19.2883138 L21.2003915,23.3109239 L11.0930794,23.3109239 L11.0930794,16.34976 L21.1985873,16.34976 Z M21.7326402,9.06954279 C22.2306085,9.06954279 22.6347566,8.6652877 22.6347566,8.16314124 L22.6347566,6.83073097 C22.9901905,6.70927317 23.25,6.38115581 23.25,5.98233913 L23.25,3.48973488 C23.25,2.98940123 22.8458519,2.58333333 22.3478836,2.58333333 L9.94378307,2.58333333 C9.44581481,2.58333333 9.04166667,2.98940123 9.04166667,3.48973488 L9.04166667,5.98233913 C9.04166667,6.38115581 9.30147619,6.70927317 9.65691005,6.83073097 L9.65691005,8.16314124 C9.65691005,8.6652877 10.0610582,9.06954279 10.5590265,9.06954279 L11.4016032,9.06954279 L11.4016032,9.79828963 C11.2247884,10.1590374 10.795381,11.0128677 10.3118466,11.7398017 C9.54685185,12.8927445 9.28884656,13.7483876 9.28884656,15.1315563 L9.28884656,15.4342944 C9.28884656,15.4361072 9.28704233,15.4397328 9.28704233,15.4433585 L9.28704233,24.2173254 C9.28704233,24.2336406 9.29606349,24.2481431 9.29606349,24.2662711 L9.29786772,25.3158841 C9.27802116,25.4536571 9.20946032,26.182404 9.77598942,26.8549539 C10.292,27.4676813 11.136381,27.7921731 12.3037196,27.8211779 L19.9879471,27.8211779 L20.0114021,27.8211779 C21.1552857,27.7921731 21.9996667,27.4676813 22.5156772,26.8549539 C23.0822063,26.182404 23.0136455,25.4536571 23.0028201,25.4427803 L23.0028201,24.2263894 C23.0028201,24.2227638 23.0046243,24.2191382 23.0046243,24.2173254 L23.0046243,15.4433585 C23.0046243,15.4397328 23.0028201,15.4361072 23.0028201,15.4342944 L23.0028201,15.1315563 C23.0028201,13.7483876 22.7448148,12.8927445 21.9798201,11.7398017 C21.4962857,11.0128677 21.0668783,10.1590374 20.8900635,9.79828963 L20.8900635,9.06954279 L21.7326402,9.06954279 Z" id="path-3"></path>
    </defs>
    <g id="Page-1" stroke="none" stroke-width="1" fill="none" fill-rule="evenodd">
        <g id="iPhone-8-Copy-9-" transform="translate(-15.000000, -8658.000000)">
            <g id="Group-12" transform="translate(15.000000, 8658.000000)">
                <rect id="Rectangle-5" fill="#FFFFFF" x="0" y="0" width="140" height="144"></rect>
                <text id="주름-예방" font-family="AppleSDGothicNeo-Regular, Apple SD Gothic Neo" font-size="16" font-weight="normal" line-spacing="27" fill="#555555">
                    <tspan x="40.216" y="96">주름 예방</tspan>
                </text>
                <text id="보톡스" font-family="NotoSansCJKkr-Bold, Noto Sans CJK KR" font-size="18" font-weight="bold" fill="#8D7047">
                    <tspan x="45.16" y="124">보톡스</tspan>
                </text>
                <g id="Group-7" transform="translate(44.000000, 17.000000)">
                    <g id="-round/ver1/syringe" transform="translate(34.250000, 28.000000) rotate(136.000000) translate(-34.250000, -28.000000) translate(15.000000, 8.145455)">
                        <mask id="mask-2" fill="white">
                            <use xlink:href="#path-1"></use>
                        </mask>
                        <use id="Mask" fill="#00A0E8" fill-rule="evenodd" xlink:href="#path-1"></use>
                        <g id="swatch/dark-brown1" mask="url(#mask-2)" fill="#6C573A" fill-rule="evenodd">
                            <rect id="Rectangle" x="0" y="0" width="41" height="40"></rect>
                        </g>
                    </g>
                    <g id="-round/ver1/Botox" opacity="0.5" transform="translate(0.000000, 20.872727)">
                        <mask id="mask-4" fill="white">
                            <use xlink:href="#path-3"></use>
                        </mask>
                        <use id="Fill-1" fill="#613627" fill-rule="evenodd" xlink:href="#path-3"></use>
                        <g id="swatch/dark-brown1" mask="url(#mask-4)" fill="#6C573A" fill-rule="evenodd">
                            <rect id="Rectangle" x="0" y="0" width="32" height="31"></rect>
                        </g>
                    </g>
                </g>
            </g>
        </g>
    </g>
</svg>