<?xml version="1.0" encoding="UTF-8"?>
<svg width="1088px" height="290px" viewBox="0 0 1088 290" version="1.1" xmlns="http://www.w3.org/2000/svg" xmlns:xlink="http://www.w3.org/1999/xlink">
    <!-- Generator: Sketch 52.4 (67378) - http://www.bohemiancoding.com/sketch -->
    <title>Group 25</title>
    <desc>Created with Sketch.</desc>
    <defs>
        <linearGradient x1="50%" y1="57.451617%" x2="17.8605136%" y2="18.8239517%" id="linearGradient-1">
            <stop stop-color="#8D7047" offset="0%"></stop>
            <stop stop-color="#BB9A6D" offset="100%"></stop>
        </linearGradient>
        <polygon id="path-2" points="108.5 42 217 104.5 217 229.5 108.5 292 5.05928632e-13 229.5 4.36664593e-13 104.5"></polygon>
        <polygon id="path-3" points="108.5 42 217 104.5 217 229.5 108.5 292 4.48710513e-13 229.5 3.79446474e-13 104.5"></polygon>
        <polygon id="path-4" points="108.5 42 217 104.5 217 229.5 108.5 292 4.48710513e-13 229.5 3.79446474e-13 104.5"></polygon>
        <polygon id="path-5" points="108.5 42 217 104.5 217 229.5 108.5 292 5.63146751e-13 229.5 4.93882713e-13 104.5"></polygon>
    </defs>
    <g id="Page-1" stroke="none" stroke-width="1" fill="none" fill-rule="evenodd">
        <g id="코" transform="translate(-412.000000, -1127.000000)">
            <g id="Group-25" transform="translate(412.000000, 1124.000000)">
                <polygon id="Polygon-Copy-6" stroke="#97794F" fill="#FFFFFF" opacity="0.200000003" points="249.5 42 358 104.5 358 229.5 249.5 292 141 229.5 141 104.5"></polygon>
                <polygon id="Polygon-Copy-7" stroke="#97794F" fill="#FFFFFF" opacity="0.200000003" points="536.5 42 645 104.5 645 229.5 536.5 292 428 229.5 428 104.5"></polygon>
                <polygon id="Polygon-Copy-8" stroke="#97794F" fill="#FFFFFF" opacity="0.200000003" points="839.5 42 948 104.5 948 229.5 839.5 292 731 229.5 731 104.5"></polygon>
                <g id="Group-17">
                    <g id="Polygon-Copy-2">
                        <use fill="#8D7047" xlink:href="#path-2"></use>
                        <use fill="url(#linearGradient-1)" xlink:href="#path-2"></use>
                    </g>
                    <text id="복코" font-family="NotoSansCJKkr-Bold, Noto Sans CJK KR" font-size="18" font-weight="bold" fill="#FFFFFF">
                        <tspan x="91.44" y="220">복코</tspan>
                    </text>
                    <text id="TYPE-1." font-family="Montserrat-Bold, Montserrat" font-size="18" font-weight="bold" fill="#39322D">
                        <tspan x="76.784" y="17">TYPE 1.</tspan>
                    </text>
                    <path d="M108.477151,183.292977 C108.45461,183.294723 108.431937,183.295997 108.40914,183.29679 C108.245828,183.301207 108.086815,183.301207 107.936396,183.301207 C105.521108,183.301207 104.554134,182.656273 102.396706,181.220633 C101.489898,180.611038 100.299445,179.815914 98.5975692,178.791088 C94.102211,176.08325 92.5507538,176.794444 92.5378608,176.798861 C91.8588296,177.395204 90.9219385,177.253849 90.3460513,176.560324 C89.7658665,175.862382 89.9248801,174.758044 90.5996136,174.166118 C91.2399658,173.605114 93.8185651,172.072292 100.230682,175.937477 C101.98413,176.993225 103.213262,177.814853 104.154451,178.442117 C106.320474,179.886592 106.539655,180.045617 108.314591,179.983774 C108.365011,179.983077 108.414634,179.984372 108.463408,179.987586 C108.520798,179.983785 108.5797,179.982347 108.640089,179.983375 C110.406381,180.045225 110.634707,179.886181 112.810261,178.437115 C113.753719,177.809775 114.985816,176.992466 116.747799,175.932174 C123.166762,172.070942 125.755887,173.608366 126.397783,174.16502 C127.074144,174.757016 127.151688,175.804055 126.574412,176.497663 C126.031601,177.15151 125.101067,177.266375 124.433322,176.789244 C124.230845,176.718558 122.615334,176.250262 118.380542,178.790546 C116.674563,179.815495 115.481239,180.610715 114.572245,181.215965 C112.409614,182.656196 111.440308,183.301207 109.019196,183.301207 C108.864107,183.301207 108.709018,183.301207 108.545313,183.296789 C108.522465,183.295997 108.499741,183.294723 108.477151,183.292977 Z M87.7421422,184 C83.895119,184 78.9357564,182.461131 75.8141718,176.824525 C75.5723589,176.2347 72.6486213,167.906182 79.6040393,161.923663 C81.7319927,160.096534 83.4554592,158.908013 84.8403875,157.9501 C87.4959327,156.12297 88.5906856,155.364623 89.439229,152.486451 C90.916486,147.452975 93.6247903,131.536548 93.6555665,131.376896 C93.8050509,130.472201 94.6623875,129.882375 95.5592935,130.019853 C96.4561995,130.17507 97.0585334,131.035418 96.9046525,131.940113 C96.7947375,132.600895 94.1303991,148.211322 92.600383,153.426624 C91.4220947,157.444535 89.5447474,158.739491 86.7045451,160.699664 C85.3811691,161.608794 83.7368414,162.744098 81.7451825,164.460358 C76.5659901,168.912877 78.7071333,175.183657 78.7994619,175.445309 C82.7651933,182.558696 90.2174269,180.381219 90.5383785,180.288089 C91.4001117,180.017567 92.3277939,180.514263 92.5959864,181.392349 C92.8597823,182.266001 92.3761565,183.19287 91.5100267,183.463392 C90.5295853,183.773826 89.2150025,184 87.7421422,184 Z M129.324301,183.995565 C127.879208,183.995565 126.603869,183.769391 125.641924,183.463392 C124.784443,183.19287 124.305647,182.266001 124.566809,181.392349 C124.836675,180.514263 125.750741,180.017567 126.603869,180.288089 C126.917262,180.385654 134.299429,182.563131 138.334375,175.201396 C138.316964,175.183657 140.436726,168.912877 135.309254,164.460358 C133.333131,162.744098 131.705224,161.613229 130.399417,160.699664 C127.587577,158.739491 125.724625,157.444535 124.562456,153.426624 C123.047719,148.211322 120.409987,132.600895 120.30117,131.940113 C120.148826,131.035418 120.745144,130.17507 121.633094,130.019853 C122.534101,129.882375 123.365465,130.472201 123.51781,131.376896 C123.543926,131.536548 126.229537,147.452975 127.692042,152.486451 C128.527759,155.364623 129.615932,156.12297 132.240606,157.954535 C133.611704,158.908013 135.317959,160.096534 137.424662,161.923663 C144.310622,167.906182 141.416081,176.2347 141.289853,176.585047 C138.108035,182.421218 133.145966,183.995565 129.324301,183.995565 Z" id="Fill-3" fill="#FFFFFF"></path>
                </g>
                <g id="Group-20" transform="translate(292.000000, 0.000000)">
                    <g id="Polygon-Copy-3">
                        <use fill="#8D7047" xlink:href="#path-3"></use>
                        <use fill="url(#linearGradient-1)" xlink:href="#path-3"></use>
                    </g>
                    <text id="짧은코" font-family="NotoSansCJKkr-Bold, Noto Sans CJK KR" font-size="18" font-weight="bold" fill="#FFFFFF">
                        <tspan x="83.16" y="220">짧은코</tspan>
                    </text>
                    <text id="TYPE-2." font-family="Montserrat-Bold, Montserrat" font-size="18" font-weight="bold" fill="#39322D">
                        <tspan x="74.975" y="17">TYPE 2.</tspan>
                    </text>
                    <path d="M102.704198,168.618992 C102.739255,168.56673 102.934571,168.40044 103.395316,168.219897 C103.610665,168.134376 103.846046,168.101118 104.101459,168.101118 C105.012935,168.101118 106.179823,168.585734 107.451882,169.303156 C104.437002,169.621482 102.889498,168.69501 102.704198,168.618992 M128.956687,159.582327 C129.517595,160.161966 134.350416,165.39772 132.632636,170.120352 C131.585942,172.985288 129.50257,175.242079 126.908372,176.301583 C125.991888,176.676923 124.764903,177 123.272487,177 C121.860201,177 120.212535,176.714932 118.349519,175.91674 C116.02075,174.923753 113.8272,173.474655 111.703763,172.039812 C111.588577,172.092074 111.468382,172.134834 111.338172,172.163341 L109.380003,172.609948 C103.73086,173.707461 99.8996588,171.759495 99.1434349,169.374423 C98.7027216,167.996593 99.1784916,166.001115 101.973014,164.922607 C105.598883,163.521021 109.405043,166.10564 113.436568,168.837544 C115.549988,170.267637 117.733522,171.745241 119.887008,172.666962 C121.97038,173.555425 123.833395,173.678954 125.420964,173.028048 C127.043591,172.362889 128.375747,170.880534 129.081889,168.956323 C129.928259,166.637767 127.198842,163.050658 126.177188,161.976901 C125.481062,161.245226 125.541159,160.119206 126.307399,159.458798 C127.078647,158.80314 128.265568,158.855403 128.956687,159.582327 Z M98.2494566,173.77915 C101.336421,174.221186 107.044855,176.54433 106.834158,182.226945 C106.799858,183.21907 105.986467,184 105.001579,184 C104.981979,184 104.957479,184 104.93298,184 C103.918691,183.960708 103.1298,183.106105 103.1641,182.089423 C103.306198,178.30265 97.9946596,177.462782 97.7643622,177.433313 C86.7247895,176.107205 84.8530111,171.200608 84.6717132,170.645607 C79.9236679,162.639848 85.7840004,154.28046 96.0150824,141.505625 C106.476462,128.450835 109.426228,121.226005 109.455627,121.157244 C109.832923,120.209323 110.901111,119.757464 111.8419,120.130739 C112.782689,120.504013 113.243284,121.574722 112.870888,122.517732 C112.748389,122.827157 109.749624,130.248447 98.8815493,143.814034 C87.9154758,157.50241 84.6227138,163.386397 88.0085747,169.152509 C88.160473,169.48158 89.6157562,172.747733 98.2494566,173.77915 Z" id="Fill-1" fill="#FFFFFF"></path>
                </g>
                <g id="Group-21" transform="translate(570.000000, 0.000000)">
                    <g id="Polygon-Copy-4">
                        <use fill="#8D7047" xlink:href="#path-4"></use>
                        <use fill="url(#linearGradient-1)" xlink:href="#path-4"></use>
                    </g>
                    <path d="M104.196393,164.534433 C104.226251,164.488977 104.392606,164.344346 104.785034,164.187317 C104.968451,164.112936 105.16893,164.084009 105.386471,164.084009 C106.162795,164.084009 107.15666,164.505506 108.2401,165.129488 C105.676526,165.402221 104.354217,164.60055 104.196393,164.534433 M124.299763,156.56731 C124.956652,155.99705 125.967579,156.042505 126.55622,156.674751 C127.033958,157.178895 131.15018,161.732717 129.687108,165.840247 C128.795616,168.332039 127.021161,170.294894 124.811625,171.216402 C124.031036,171.542856 122.985985,171.823854 121.714861,171.823854 C120.511986,171.823854 119.108632,171.575914 117.52186,170.881684 C115.538396,170.018028 113.670101,168.757669 111.861522,167.509707 C111.763416,167.555162 111.661043,167.592353 111.55014,167.617147 L109.882324,168.005586 C105.062292,168.95602 101.807704,167.265899 101.163612,165.191472 C100.788246,163.993098 101.19347,162.257522 103.573627,161.319484 C106.657594,160.100448 109.903651,162.348433 113.33739,164.72452 C115.137438,165.968349 116.997202,167.253502 118.831373,168.055173 C120.610093,168.827918 122.192599,168.939491 123.544767,168.36923 C124.926794,167.790705 126.061421,166.501419 126.662858,164.827828 C127.38373,162.811253 125.059025,159.691348 124.18886,158.757443 C123.595953,158.121065 123.647139,157.141704 124.299763,156.56731 Z M98.5994991,171.51902 C105.07393,170.793235 108.98672,170.348535 109.864753,176.981284 C110.312294,178.688766 110.891967,182.078558 109.408687,183.538518 C109.097539,183.844774 108.688359,184 108.279178,184 C107.869998,184 107.460817,183.844774 107.149669,183.538518 C106.523111,182.926006 106.523111,181.927528 107.149669,181.315016 C107.277538,180.962612 107.124095,179.120881 106.727702,177.564429 C106.2418,173.960677 105.956226,173.85999 98.9617944,174.644509 C97.7427771,174.782954 96.3788417,174.938179 94.8401521,175.080819 C91.5624448,175.378684 89.3545744,174.757782 88.0801472,173.180354 C86.004408,170.612838 87.3512942,166.614729 88.5404754,163.082297 C88.877197,162.088014 89.2011316,161.131489 89.4099843,160.288236 C90.5139195,155.883184 110.700164,119.014999 112.997542,114.823906 C113.41951,114.060364 114.387051,113.77928 115.167052,114.186223 C115.94279,114.601556 116.232627,115.558082 115.814921,116.321624 C106.864095,132.628706 93.2758887,158.001804 92.5171996,161.039192 C92.2870355,161.95796 91.9417894,162.994196 91.5752317,164.072385 C90.735559,166.568581 89.5804762,169.98774 90.5821162,171.22535 C91.1106412,171.871424 92.5129373,172.139923 94.5460535,171.946939 C96.0549071,171.808495 97.4017933,171.653269 98.5994991,171.51902 Z" id="Fill-4" fill="#FFFFFF"></path>
                    <text id="매부리코" font-family="NotoSansCJKkr-Bold, Noto Sans CJK KR" font-size="18" font-weight="bold" fill="#FFFFFF">
                        <tspan x="75.38" y="220">매부리코</tspan>
                    </text>
                    <text id="TYPE-3." font-family="Montserrat-Bold, Montserrat" font-size="18" font-weight="bold" fill="#39322D">
                        <tspan x="74.993" y="17">TYPE 3.</tspan>
                    </text>
                </g>
                <g id="Group-22" transform="translate(871.000000, 0.000000)">
                    <g id="Polygon-Copy-5">
                        <use fill="#8D7047" xlink:href="#path-5"></use>
                        <use fill="url(#linearGradient-1)" xlink:href="#path-5"></use>
                    </g>
                    <text id="휜코" font-family="NotoSansCJKkr-Bold, Noto Sans CJK KR" font-size="18" font-weight="bold" fill="#FFFFFF">
                        <tspan x="92.44" y="220">휜코</tspan>
                    </text>
                    <text id="TYPE-4." font-family="Montserrat-Bold, Montserrat" font-size="18" font-weight="bold" fill="#39322D">
                        <tspan x="74.957" y="17">TYPE 4.</tspan>
                    </text>
                    <path d="M103.304418,168.789996 C103.337623,168.738976 103.522622,168.576641 103.959032,168.400391 C104.163005,168.316904 104.385954,168.284437 104.627876,168.284437 C105.491207,168.284437 106.596461,168.757529 107.80133,169.45789 C104.950439,169.764008 103.47993,168.864206 103.304418,168.789996 M128.170254,159.968231 C128.701535,160.534086 133.279088,165.645329 131.65204,170.255652 C130.660633,173.052457 128.687304,175.255579 126.230131,176.289887 C125.362056,176.656301 124.199879,176.971695 122.786293,176.971695 C121.448604,176.971695 119.887967,176.693406 118.123356,175.914197 C115.917592,174.944823 113.839905,173.530187 111.828628,172.129465 C111.719525,172.180485 111.605679,172.222228 111.482346,172.250057 L109.627607,172.686043 C104.276851,173.757456 100.648014,171.855814 99.9317338,169.527462 C99.5142989,168.182398 99.9649388,166.234374 102.611855,165.181514 C106.041462,163.813259 109.651325,166.336414 113.469906,169.003351 C115.471696,170.399434 117.539896,171.8419 119.579634,172.741701 C121.552963,173.609035 123.317574,173.729627 124.821288,173.0942 C126.358207,172.444859 127.619999,170.997756 128.288843,169.119305 C129.090508,166.855887 126.505258,163.354082 125.537568,162.30586 C124.878211,161.591585 124.935134,160.492343 125.660901,159.84764 C126.391412,159.207575 127.51564,159.258594 128.170254,159.968231 Z M99.7047834,174.172562 C102.681489,174.597583 108.186032,176.831306 107.98286,182.295192 C107.949785,183.249129 107.165447,184 106.215736,184 C106.196837,184 106.173212,184 106.149587,184 C105.171527,183.96222 104.410813,183.140512 104.443888,182.162963 C104.580911,178.521947 99.4590871,177.714406 99.2370154,177.686072 C88.5917492,176.411007 86.7868261,171.69327 86.6120037,171.159632 C82.033547,163.462023 87.6845627,155.424397 97.5502155,143.14128 C107.552891,130.692876 110.378399,112.681416 110.406749,112.501962 C110.548497,111.53858 111.450958,110.877436 112.419569,111.01911 C113.388179,111.165506 114.054394,112.067496 113.907922,113.030878 C113.789798,113.805361 110.926491,132.152116 100.314299,145.360836 C89.739907,158.522331 86.5647544,164.179837 89.8296807,169.724005 C89.9761535,170.04041 91.3794576,173.180845 99.7047834,174.172562 Z" id="Fill-1" fill="#FFFFFF"></path>
                </g>
            </g>
        </g>
    </g>
</svg>