<?xml version="1.0" encoding="UTF-8"?>
<svg width="68px" height="71px" viewBox="0 0 68 71" version="1.1" xmlns="http://www.w3.org/2000/svg" xmlns:xlink="http://www.w3.org/1999/xlink">
    <!-- Generator: Sketch 52.4 (67378) - http://www.bohemiancoding.com/sketch -->
    <title> round/ver1/syringe</title>
    <desc>Created with Sketch.</desc>
    <defs>
        <path d="M39.995,21.25 C38.7883333,21.25 37.8083333,20.27 37.8083333,19.0633333 C37.8083333,17.8533333 38.7883333,16.8766667 39.995,16.8766667 C41.2016667,16.8766667 42.1816667,17.8533333 42.1816667,19.0633333 C42.1816667,20.27 41.2016667,21.25 39.995,21.25 Z M63.2176667,61.9793333 C64.1376667,61.9793333 64.8843333,62.726 64.8843333,63.646 C64.8843333,64.566 64.1376667,65.3126667 63.2176667,65.3126667 L61.081,65.3126667 L61.081,67.4493333 C61.081,68.3693333 60.3376667,69.116 59.4143333,69.116 C58.4943333,69.116 57.7476667,68.3693333 57.7476667,67.4493333 L57.7476667,65.3126667 L55.6143333,65.3126667 C54.691,65.3126667 53.9476667,64.566 53.9476667,63.646 C53.9476667,62.726 54.691,61.9793333 55.6143333,61.9793333 L57.7476667,61.9793333 L57.7476667,59.8426667 C57.7476667,58.9226667 58.4943333,58.176 59.4143333,58.176 C60.3376667,58.176 61.081,58.9226667 61.081,59.8426667 L61.081,61.9793333 L63.2176667,61.9793333 Z M70.0926667,73.3333333 L48.2193333,73.3333333 L48.2193333,57.9166667 C48.2193333,57.7933333 48.206,57.6733333 48.1793333,57.5566667 L47.4493333,54.2666667 L49.8693333,56.0333333 C50.1626667,56.25 50.5093333,56.3533333 50.8493333,56.3533333 C51.3426667,56.3533333 51.8293333,56.1366667 52.156,55.7233333 L55.7326667,51.2233333 C58.196,52.1366667 61.1426667,53.2633333 64.0426667,54.4566667 C69.9293333,56.88 70.0893333,61.3433333 70.0926667,61.5166667 L70.0926667,73.3333333 Z M9.99933333,61.5166667 C9.99933333,61.47 10.0693333,56.92 16.0526667,54.4566667 C18.9226667,53.2733333 21.8426667,52.1566667 24.2926667,51.25 L27.8526667,55.7233333 C28.1793333,56.1366667 28.666,56.3533333 29.156,56.3533333 C29.496,56.3533333 29.8426667,56.25 30.1393333,56.0333333 L32.6626667,54.1933333 L31.9126667,57.5566667 C31.8893333,57.6733333 31.876,57.7933333 31.876,57.9166667 L31.876,73.3333333 L9.99933333,73.3333333 L9.99933333,61.5166667 Z M37.6193333,45.1333333 C37.896,45.3166667 38.2193333,45.4166667 38.5526667,45.4166667 L41.3626667,45.4166667 C41.696,45.4166667 42.0226667,45.3166667 42.2993333,45.13 L47.0726667,41.8933333 L47.0726667,47.03 C47.0726667,47.1333333 47.1093333,47.22 47.1293333,47.3133333 L44.096,48.95 C43.456,49.2933333 43.136,50.01 43.2626667,50.7166667 L43.2126667,50.7133333 C43.0493333,50.9766667 41.8926667,51.6166667 39.996,51.6166667 C38.0993333,51.6166667 36.9393333,50.98 36.816,50.8866667 L36.8126667,50.8866667 L36.836,50.7766667 C36.996,50.05 36.656,49.3033333 35.996,48.95 L32.1793333,46.8933333 L32.1793333,41.4633333 L37.6193333,45.1333333 Z M40.0393333,10 C44.6426667,10 48.596,12.43 50.586,15.9366667 L46.9093333,15.9366667 C45.7126667,13.3033333 43.0726667,11.46 39.996,11.46 C36.9193333,11.46 34.276,13.3033333 33.0793333,15.9366667 L29.496,15.9366667 C31.4826667,12.43 35.4393333,10 40.0393333,10 Z M48.1926667,20.4166667 L51.3426667,20.4166667 L51.3426667,19.27 L48.1926667,19.27 L48.1926667,20.4166667 Z M39.996,14.7933333 C42.3493333,14.7933333 44.266,16.7066667 44.266,19.0633333 C44.266,21.4166667 42.3493333,23.3333333 39.996,23.3333333 C37.6393333,23.3333333 35.7226667,21.4166667 35.7226667,19.0633333 C35.7226667,16.7066667 37.6393333,14.7933333 39.996,14.7933333 Z M30.876,36.57 L28.476,23.75 L34.0526667,23.75 C35.446,25.5133333 37.5793333,26.6666667 39.996,26.6666667 C42.4593333,26.6666667 44.6293333,25.47 46.0193333,23.65 C46.1826667,23.7 46.346,23.75 46.526,23.75 L51.586,23.75 L48.5926667,36.8366667 L40.8526667,42.0833333 L39.0593333,42.0833333 L30.876,36.57 Z M28.6326667,20.4166667 L32.3893333,20.4166667 L32.3893333,19.27 L28.6326667,19.27 L28.6326667,20.4166667 Z M35.2093333,58.1 L36.0793333,54.1866667 C37.1493333,54.6666667 38.4826667,54.95 39.996,54.95 C41.5526667,54.95 42.9193333,54.6466667 44.0026667,54.14 L44.886,58.1 L44.886,73.3333333 L35.2093333,73.3333333 L35.2093333,58.1 Z M29.646,49.3133333 L31.9726667,50.5666667 L29.466,52.4 L27.5893333,50.0433333 C28.4626667,49.73 29.1726667,49.48 29.646,49.3133333 Z M52.436,50.02 L50.5426667,52.4 L48.0693333,50.5933333 L50.446,49.3133333 C50.906,49.4766667 51.5993333,49.72 52.436,50.02 Z M65.3093333,51.3766667 C58.2626667,48.4733333 50.916,45.95 50.8426667,45.9233333 C50.6993333,45.8733333 50.5526667,45.8766667 50.406,45.87 L50.406,39.74 C50.406,39.7066667 50.3893333,39.68 50.386,39.65 L51.006,39.23 C51.3526667,38.99 51.6026667,38.63 51.6926667,38.22 L52.326,35.4566667 C53.9293333,35.0833333 55.456,33.6666667 56.2093333,31.53 C57.156,28.82 56.4693333,26.1733333 54.676,25.1633333 L54.9626667,23.91 C55.186,22.9133333 55.3026667,21.9166667 55.3026667,20.94 C55.3026667,13.07 48.456,6.66666667 40.0393333,6.66666667 C33.1493333,6.66666667 27.376,10.99 25.4893333,16.87 C25.4393333,16.9666667 25.416,17.07 25.386,17.1766667 C25.0293333,18.3833333 24.7793333,19.63 24.7793333,20.94 C24.7793333,21.4166667 24.8326667,21.8766667 24.9193333,22.4633333 C24.8993333,22.63 24.9026667,22.8 24.936,22.97 L25.2993333,24.9033333 C25.2793333,24.91 25.2593333,24.9066667 25.2393333,24.9133333 C23.0726667,25.6733333 22.1793333,28.58 23.216,31.5333333 C23.9926667,33.75 25.6093333,35.2033333 27.2826667,35.4933333 L27.7293333,37.87 C27.8093333,38.3066667 28.066,38.6933333 28.436,38.9433333 L28.856,39.2266667 C28.8526667,39.24 28.846,39.2533333 28.846,39.27 L28.846,46.0633333 C27.2326667,46.6266667 20.9026667,48.8566667 14.7826667,51.3766667 C6.75933333,54.68 6.666,61.24 6.666,61.5166667 L6.666,75 C6.666,75.92 7.41266667,76.6666667 8.33266667,76.6666667 L33.5426667,76.6666667 L46.5526667,76.6666667 C46.606,76.6666667 46.6493333,76.64 46.6993333,76.6366667 C46.756,76.64 46.8093333,76.6666667 46.8626667,76.6666667 L71.7593333,76.6666667 C72.6793333,76.6666667 73.426,75.92 73.426,75 L73.426,61.5166667 C73.426,61.24 73.3326667,54.68 65.3093333,51.3766667 Z" id="path-1"></path>
    </defs>
    <g id="Page-1" stroke="none" stroke-width="1" fill="none" fill-rule="evenodd" opacity="0.2">
        <g id="코" transform="translate(-401.000000, -11224.000000)">
            <g id="-round/ver1/doctor2" transform="translate(395.000000, 11218.000000)">
                <mask id="mask-2" fill="white">
                    <use xlink:href="#path-1"></use>
                </mask>
                <use id="Mask" fill="#613627" fill-rule="evenodd" xlink:href="#path-1"></use>
                <g id="swatch/dark-brown1" mask="url(#mask-2)" fill="#6C573A" fill-rule="evenodd">
                    <rect id="Rectangle" x="0" y="0" width="83" height="80"></rect>
                </g>
            </g>
        </g>
    </g>
</svg>