<?xml version="1.0" encoding="UTF-8"?>
<svg width="22px" height="17px" viewBox="0 0 22 17" version="1.1" xmlns="http://www.w3.org/2000/svg" xmlns:xlink="http://www.w3.org/1999/xlink">
    <!-- Generator: Sketch 52.3 (67297) - http://www.bohemiancoding.com/sketch -->
    <title>icon/home/1</title>
    <desc>Created with Sketch.</desc>
    <defs>
        <path d="M18.0405,7.99371875 C17.6665,7.99371875 17.3625,8.32309375 17.3625,8.71834375 L17.3625,15.4970937 L13.0665,15.4970937 L13.0665,10.6945937 C13.0665,10.2940312 12.7635,9.96996875 12.3885,9.96996875 L8.2045,9.96996875 C7.8315,9.96996875 7.5265,10.2940312 7.5265,10.6945937 L7.5265,15.4970937 L3.6845,15.4970937 L3.6845,8.71834375 C3.6845,8.32309375 3.3775,7.99371875 3.0045,7.99371875 L2.6915,7.99371875 L10.5795,1.62721875 L18.4665,7.99371875 L18.0405,7.99371875 Z M8.8835,15.3780937 L11.7105,15.3780937 L11.7105,11.4139062 L8.8835,11.4139062 L8.8835,15.3780937 Z M21.158,8.70014107 L21.158,8.73009327 C21.1565892,8.80216827 21.1449771,8.87484344 21.1225,8.94571875 C21.0295,9.24003125 20.7715,9.43659375 20.4795,9.43659375 L18.7205,9.43659375 L18.7205,16.2164062 C18.7205,16.6180312 18.4165,16.9357187 18.0405,16.9357187 L3.0045,16.9357187 C2.6295,16.9357187 2.3275,16.6180312 2.3275,16.2164062 L2.3275,9.43659375 L0.6795,9.43659375 C0.3885,9.43659375 0.1285,9.24003125 0.0355,8.94571875 C-0.0575,8.65246875 0.0375,8.32840625 0.2675,8.14353125 L10.1685,0.14821875 C10.282726,0.0553219996 10.4172805,0.00609283297 10.553052,0.00053125 L10.604948,0.00053125 C10.7407195,0.00609283297 10.875274,0.0553219996 10.9895,0.14821875 L20.8905,8.14353125 C21.0586505,8.27752617 21.1537821,8.48463845 21.158,8.70014201 Z" id="path-1"></path>
    </defs>
    <g id="Page-1" stroke="none" stroke-width="1" fill="none" fill-rule="evenodd">
        <g id="Artboard" transform="translate(-9.000000, -26.000000)">
            <g id="icon/home/1" transform="translate(9.000000, 26.000000)">
                <mask id="mask-2" fill="white">
                    <use xlink:href="#path-1"></use>
                </mask>
                <use id="Mask" fill="#231916" xlink:href="#path-1"></use>
                <g id="swatch/white" mask="url(#mask-2)" fill="#FFFFFF">
                    <g transform="translate(-1.000000, -4.000000)" id="Rectangle">
                        <rect x="0" y="0" width="25" height="24"></rect>
                    </g>
                </g>
                <g id="black" mask="url(#mask-2)" fill="#6f6f6f" fill-rule="nonzero">
                    <g transform="translate(-1.000000, -4.000000)" id="Rectangle">
                        <rect x="0" y="0" width="24" height="24"></rect>
                    </g>
                </g>
            </g>
        </g>
    </g>
</svg>