<?xml version="1.0" encoding="UTF-8"?>
<svg width="16px" height="22px" viewBox="0 0 16 22" version="1.1" xmlns="http://www.w3.org/2000/svg" xmlns:xlink="http://www.w3.org/1999/xlink">
    <!-- Generator: Sketch 52.3 (67297) - http://www.bohemiancoding.com/sketch -->
    <title>icon/home/1</title>
    <desc>Created with Sketch.</desc>
    <defs>
        <path d="M10.8418,19.9375 C9.6358,19.9375 8.5728,19.3535 7.8918,18.4615 C7.5868,18.0645 7.3618,17.6085 7.2368,17.1085 C7.1628,16.8175 7.1128,16.5185 7.1128,16.2055 C7.1128,14.1485 8.7838,12.4745 10.8418,12.4745 C11.1848,12.4745 11.5108,12.5365 11.8268,12.6235 C12.3308,12.7625 12.7868,13.0025 13.1828,13.3235 C14.0238,14.0085 14.5728,15.0385 14.5728,16.2055 C14.5728,18.2635 12.8998,19.9375 10.8418,19.9375 M5.7548,16.2055 C5.7548,16.5145 5.7928,16.8145 5.8458,17.1085 C5.8548,17.1585 5.8728,17.2045 5.8838,17.2535 L1.3558,17.2535 L1.3558,11.9725 C1.3558,10.1465 2.8358,8.6695 4.6588,8.6695 L8.6338,8.6695 C10.2008,8.6695 11.5058,9.7675 11.8418,11.2355 C11.8158,11.2295 11.7918,11.2195 11.7648,11.2145 C11.4648,11.1595 11.1568,11.1215 10.8418,11.1215 C8.0378,11.1215 5.7548,13.4045 5.7548,16.2055 M3.9318,4.0705 C3.9318,2.5705 5.1498,1.3535 6.6458,1.3535 C8.1428,1.3535 9.3628,2.5705 9.3628,4.0705 C9.3628,5.5635 8.1428,6.7865 6.6458,6.7865 C5.1498,6.7865 3.9318,5.5635 3.9318,4.0705 M5.68434189e-14,17.9471108 L5.68434189e-14,11.9290747 C0.0222363955,9.51595302 1.89596956,7.55627304 4.2608,7.3515 C3.2448,6.6105 2.5758,5.4205 2.5758,4.0705 C2.5758,1.8215 4.4028,0.0005 6.6458,0.0005 C8.8898,0.0005 10.7178,1.8215 10.7178,4.0705 C10.7178,5.4205 10.0488,6.6105 9.0318,7.3515 C11.3468,7.5515 13.1728,9.4345 13.2738,11.7745 C14.8458,12.6405 15.9288,14.2905 15.9288,16.2055 C15.9288,19.0125 13.6468,21.2955 10.8418,21.2955 C8.9108,21.2955 7.2508,20.1985 6.3908,18.6065 L0.7058,18.6065 C0.6958,18.6075 0.6868,18.6125 0.6768,18.6125 C0.6668,18.6125 0.6578,18.6075 0.6478,18.6065 L0.4858,18.6065 L0.4858,18.5745 C0.211816766,18.4910284 0.00726751349,18.2484373 -1.82102182e-12,17.9471108 Z M12.7183,15.6802 L11.3703,15.6802 L11.3703,14.3312 C11.3703,14.0392 11.1343,13.8032 10.8423,13.8032 C10.5503,13.8032 10.3133,14.0392 10.3133,14.3312 L10.3133,15.6802 L8.9653,15.6802 C8.6733,15.6802 8.4363,15.9162 8.4363,16.2082 C8.4363,16.5002 8.6733,16.7372 8.9653,16.7372 L10.3133,16.7372 L10.3133,18.0852 C10.3133,18.3772 10.5503,18.6142 10.8423,18.6142 C11.1343,18.6142 11.3703,18.3772 11.3703,18.0852 L11.3703,16.7372 L12.7183,16.7372 C13.0103,16.7372 13.2473,16.5002 13.2473,16.2082 C13.2473,15.9162 13.0103,15.6802 12.7183,15.6802" id="path-1"></path>
    </defs>
    <g id="Page-1" stroke="none" stroke-width="1" fill="none" fill-rule="evenodd">
        <g id="Artboard" transform="translate(-89.000000, -24.000000)">
            <g id="icon/home/1" transform="translate(89.000000, 24.000000)">
                <mask id="mask-2" fill="white">
                    <use xlink:href="#path-1"></use>
                </mask>
                <use id="Mask" fill="#231916" xlink:href="#path-1"></use>
                <g id="swatch/white" mask="url(#mask-2)" fill="#FFFFFF">
                    <g transform="translate(-5.000000, -2.000000)" id="Rectangle">
                        <rect x="0" y="0" width="25" height="24"></rect>
                    </g>
                </g>
                <g id="black" mask="url(#mask-2)" fill="#6f6f6f" fill-rule="nonzero">
                    <g transform="translate(7.500000, 11.000000) scale(-1, 1) translate(-7.500000, -11.000000) translate(-5.000000, -3.000000)" id="Rectangle">
                        <rect x="0" y="0" width="25" height="28"></rect>
                    </g>
                </g>
            </g>
        </g>
    </g>
</svg>