<?xml version="1.0" encoding="utf-8"?>
<!-- Generator: Adobe Illustrator 20.0.0, SVG Export Plug-In . SVG Version: 6.00 Build 0)  -->
<svg width="15" version="1.1" id="레이어_1" xmlns="http://www.w3.org/2000/svg" xmlns:xlink="http://www.w3.org/1999/xlink" x="0px"
	 y="0px" viewBox="0 0 9.7 18.7" style="enable-background:new 0 0 9.7 18.7;" xml:space="preserve">
<style type="text/css">
	.st1{fill:#fff;}
	g{opacity: 0.7;}
</style>
<g>
	<path id="path-1" class="st0" d="M7.8,3.1c0.6,0,1.2,0,1.7,0h0.2v-3c-0.3,0-0.6-0.1-1-0.1C8.2,0,7.6,0,7,0C6.1,0,5.2,0.2,4.5,0.8
		C3.6,1.4,3.2,2.3,3,3.3C2.9,3.7,2.9,4.1,2.9,4.6c0,0.7,0,1.3,0,2v0.3H0v3.4h2.9v8.4h3.5v-8.4h2.9C9.4,9.1,9.5,8,9.6,6.9
		c-0.2,0-0.4,0-0.6,0c-0.8,0-2.7,0-2.7,0s0-1.7,0-2.4C6.4,3.5,7,3.2,7.8,3.1"/>
</g>
<g id="Symbols">
	<g id="social_x2F_facebook" transform="translate(-7.000000, -3.000000)">
		<g id="Mask">
			<path id="path-1_1_" class="st1" d="M14.8,6.1c0.6,0,1.2,0,1.7,0h0.2v-3c-0.3,0-0.6-0.1-1-0.1C15.2,3,14.6,3,14,3
				c-0.9,0-1.8,0.2-2.5,0.8c-0.9,0.6-1.3,1.5-1.5,2.5C9.9,6.7,9.9,7.1,9.9,7.6c0,0.7,0,1.3,0,2v0.3H7v3.4h2.9v8.4h3.5v-8.4h2.9
				c0.1-1.1,0.3-2.2,0.4-3.4c-0.2,0-0.4,0-0.6,0c-0.8,0-2.7,0-2.7,0s0-1.7,0-2.4C13.4,6.5,14,6.2,14.8,6.1"/>
		</g>
	</g>
</g>
</svg>
