<?xml version="1.0" encoding="utf-8"?>
<!-- Generator: Adobe Illustrator 20.0.0, SVG Export Plug-In . SVG Version: 6.00 Build 0)  -->
<svg width="35" version="1.1" id="레이어_1" xmlns="http://www.w3.org/2000/svg" xmlns:xlink="http://www.w3.org/1999/xlink" x="0px"
	 y="0px" viewBox="0 0 19.7 18.1" style="enable-background:new 0 0 19.7 18.1;" xml:space="preserve">
<style type="text/css">
	.st0{fill:#FFFFFF;}
	g{opacity: 0.6;}
</style>
<g id="Symbols">
	<g id="social_x2F_kakaotalk" transform="translate(-2.000000, -3.000000)">
		<g id="Mask">
			<path id="path-1_1_" class="st0" d="M9.4,12.1h1.2L10,10.3L9.4,12.1z M18.2,13.9L16.9,12l-0.3,0.2v1.4c0,0.4-1.1,0.4-1.1,0
				c0-0.3,0-3.8,0-4.2c0-0.2,0.3-0.3,0.5-0.3c0.3,0,0.5,0.1,0.5,0.3c0,0.5,0,1.5,0,1.5s1.5-1.5,1.8-1.8c0.2-0.2,0.9,0.5,0.7,0.7
				c-0.4,0.4-1.4,1.4-1.4,1.4l1.4,1.9C19.4,13.6,18.5,14.2,18.2,13.9 M14.9,13.9c-0.5,0-1.6,0-2.1,0s-0.4-0.6-0.4-0.6s0-2.9,0-3.8
				C12.4,9.2,12.7,9,13,9s0.6,0.2,0.6,0.5c0,0.6,0,3.3,0,3.3s0.9,0,1.4,0C15.4,12.9,15.4,13.9,14.9,13.9 M11.1,13.7
				C10.8,13,10.9,13,10.9,13H9l-0.2,0.7c-0.2,0.5-1.2,0.1-0.9-0.4c0.3-0.7,1.2-3.3,1.5-3.9C9.5,9.2,9.7,9.1,10,9.1s0.6,0.1,0.7,0.3
				c0.2,0.4,1.2,3.1,1.5,3.9C12.3,13.9,11.3,14.2,11.1,13.7 M7.1,10.1v3.5c0,0.5-1.1,0.5-1.1,0c0-0.7,0-3.5,0-3.5H5
				c-0.6,0-0.6-1,0-1c0,0,2.4,0,3.1,0c0.6,0,0.6,1,0,1S7.1,10.1,7.1,10.1 M11.9,3C6.4,3,2,6.5,2,10.8c0,2.8,1.9,5.3,4.7,6.6
				c-0.2,0.8-0.7,2.8-0.9,3.2C5.7,21.1,6,21.1,6.2,21c0.2,0,2.8-1.8,3.8-2.5c0.6,0.1,1.2,0.1,1.8,0.1c5.5,0,9.9-3.5,9.9-7.8
				S17.3,3,11.9,3"/>
		</g>
	</g>
</g>
</svg>
