<?xml version="1.0" encoding="utf-8"?>
<!-- Generator: Adobe Illustrator 20.0.0, SVG Export Plug-In . SVG Version: 6.00 Build 0)  -->
<svg version="1.1" id="레이어_1" xmlns="http://www.w3.org/2000/svg" xmlns:xlink="http://www.w3.org/1999/xlink" x="0px"
	 y="0px" viewBox="0 0 212.4 64.7" style="enable-background:new 0 0 212.4 64.7;" xml:space="preserve">
<style type="text/css">
	.st0{fill:#575757;}
</style>
<g id="logo_color" transform="translate(40.000000, 32.000000)">
	<path id="Fill-4" class="st0" d="M5.7-1.7v17.3H2.9V8.7h-4.5c-1.1,1.2-2.7,2-4.7,2c-3.4,0-5.9-2.3-5.9-5.4c0-3.1,2.5-5.5,5.9-5.5
		c2.2,0,4,1,5,2.5h4.2V0.6H1.2v-2.3H5.7z M-3.1,5.2c0-1.6-1.3-3-3.2-3s-3.1,1.4-3.1,3c0,1.6,1.3,3,3.2,3C-4.5,8.2-3.1,6.8-3.1,5.2z
		 M6.5,17.9v2.5H-7.7v-5.6h-1.5v-2.3h4.3v5.3H6.5z M2.9,6.3V4.6h-3.3c0,0.2,0,0.4,0,0.6c0,0.4,0,0.7-0.1,1H2.9z M15.7,3.3
		c0,3.8,1.4,7.6,4.5,9.1l-1.7,2.4c-1.8-1.4-3.6-3.6-4.2-5.2c-0.7,1.8-2.5,4.3-4.3,5.7l-1.9-2.1c3.1-1.6,4.7-5.8,4.7-9.8v-1h-1.4V0.2
		h4.4v2V3.3z M23.3-1.6v22.6h-2.8V7.8h-2.7V5.3h2.7V0.6H19v-2.3H23.3z M27.3-1.7v22.6h-2.8V0.6h-0.7v-2.3H27.3z M10-14.7
		c-4.4,1.5-8.7,3-13.1,4.4c-5,1.4-9.7,3.7-13.9,6.6c-1.6,1.1-3.7,1.5-5.6,1c-0.9-0.2-1.8-0.1-2.6,0.2c-2,1.1-3.4,2.9-4,5
		c-2,6.5-3.6,13-4.8,19.7l-1.7,0.4c1.6-7.3,3.5-14.5,5.9-21.6c1.4-3.1,4.1-5.5,7.3-6.6C-24.4-5-26.2-4.9-28-5.1
		c-0.8-0.1-1.5-0.4-2-0.9c1.8,0.2,3.6,0,5.3-0.6c-2.3,0.1-4.5-0.3-6.6-1.3c-1.1-0.5-2.1-1.1-3-1.8c0.6,0.1,1.1,0.2,1.7,0.1
		c3.9-0.3,7.8,0.5,11.2,2.3c0.1-0.1,0.2-0.1,0.3-0.2c-4.2-3.2-8-6.9-11.5-10.9c2.4,1.1,4.7,2.5,6.7,4.2c-3.9-6.6-8.7-12.6-14.2-18
		c8,5.9,14.7,13.4,19.9,21.9c-0.3-0.6-0.4-1.2-0.4-1.9c-0.1-3.2,0.3-6.3,1.1-9.4c-0.2,2.5-0.1,5,0.4,7.5c0.5-3.7,1.7-7.3,3.5-10.6
		c-1.6,4.8-2.4,9.9-2.5,15c1-3.9,2.7-7.5,5-10.8c-0.9,1.9-1.7,3.8-2.3,5.8c3.7-5.1,8.6-9.3,14.3-12.1c-5.2,3.5-9.8,7.8-13.5,12.9
		c-1,1.4-1.8,2.9-2.4,4.5c3.3-1.4,6.8-2.3,10.3-2.5c3.5-0.4,7-1,10.4-1.8c2-0.5,4-1.1,5.9-1.7c0.1,0,0.2,0,0.3,0.1
		C10.1-14.8,10.1-14.7,10-14.7z"/>
	<path id="Fill-14" class="st0" d="M74.9,0.1c0,0.7-0.6,1.3-1.3,1.3c-0.7,0-1.3-0.6-1.3-1.3c0-0.7,0.6-1.3,1.3-1.3
		C74.3-1.2,74.9-0.6,74.9,0.1z M81.3,0.1c0,0.7-0.6,1.3-1.3,1.3c-0.7,0-1.3-0.6-1.3-1.3c0-0.7,0.6-1.3,1.3-1.3
		C80.7-1.2,81.3-0.6,81.3,0.1z M71.1,6l-0.5-1.6c1.9,0.2,3.7,0.3,5.6,0.3V3.2c-2.4,0-4.8,0.1-7.2,0.4c0-0.6,0.1-1.3,0.2-1.9
		c5.1,0.2,10.2,0.2,15.3,0c0.1,0.6,0.2,1.3,0.2,1.9c-2.4-0.2-4.8-0.4-7.2-0.4v1.4c1.9,0,3.7-0.1,5.6-0.3L82.5,6
		c-1.7-0.1-3.4-0.2-5-0.2v1.9c2,0,4-0.2,5.9-0.4L84,8.9c-2.2-0.1-4.4-0.1-6.6-0.1v1.6c2.9,0,5.8-0.2,8.7-0.5c-0.3,0.6-0.6,1.1-1,1.6
		c-2.5,0.1-4.9,0.2-7.4,0.2c1.6,3.4,5.2,5.3,8.9,4.8l-1.9,2.2c-3.5-0.8-6.5-3.3-7.8-6.6c-1.4,3.4-4.3,5.9-7.8,6.6L67,16.5
		c3.7,0.6,7.3-1.4,8.9-4.8c-2.5,0-4.9-0.1-7.4-0.2c-0.4-0.5-0.7-1.1-1-1.6c2.9,0.3,5.8,0.4,8.7,0.5V8.8c-2.2,0-4.4,0-6.6,0.1
		l0.6-1.6c2,0.3,4,0.4,5.9,0.4V5.8C74.5,5.8,72.8,5.9,71.1,6z M41.7,11.9l-1.3,2c-2.1-1.4-3.8-3.5-4.6-5.2c-0.8,1.8-2.2,3.9-4.4,5.4
		L30,12.3c2.5-1.4,3.6-2.9,4.3-5.4c0.3-0.9,0.3-1.9,0.3-2.9h-3.7V1.9h10v2.1H37c0,0.8,0.1,1.6,0.2,2.3C37.8,8.8,39.3,10.9,41.7,11.9
		z M47.8,6.8V9h-2.7v10h-2.3V2.1h-1.4V0.2h3.7v6.6H47.8z M63.7,0.2v14.4h-2.3V8.8h-3.8c-0.9,1-2.3,1.7-3.9,1.7
		c-2.8,0-4.9-1.9-4.9-4.5c0-2.6,2-4.5,4.9-4.5c1.8,0,3.3,0.8,4.2,2h3.5V2.1h-1.4V0.2H63.7z M56.4,5.9c0-1.3-1.1-2.5-2.6-2.5
		c-1.5,0-2.6,1.2-2.6,2.5c0,1.3,1.1,2.5,2.6,2.5C55.3,8.4,56.4,7.2,56.4,5.9z M64.3,16.5v2.1H52.6V14h-1.3v-1.9h3.6v4.4H64.3z
		 M61.4,6.8V5.4h-2.7c0,0.2,0,0.3,0,0.5c0,0.3,0,0.6-0.1,0.9H61.4z"/>
	<path id="Fill-18" class="st0" d="M95.9,1.3c0,3.7,2.7,6.4,5.3,7.4l-1.3,1.8c-2-1.1-4.3-3.3-5.3-5.1c-0.9,1.9-3.3,4.5-5.7,5.7
		l-1.2-1.7c3-1.2,5.8-4.6,5.8-7.5h-1.5V0.2h3.9V1.3z M106.3,16.1c0,2.7-2.4,4.7-5.9,4.7c-3.5,0-5.8-2-5.8-4.7c0-2.8,2.3-4.8,5.8-4.8
		C103.9,11.3,106.3,13.3,106.3,16.1z M104,16.1c0-1.8-1.7-2.8-3.5-2.8c-1.9,0-3.5,1-3.5,2.8c0,1.8,1.7,2.8,3.5,2.8
		C102.3,18.8,104,17.9,104,16.1z M106.4-1.4v12.8h-2.2V5.7H100V3.8h4.1V0.3h-1.7v-1.7H106.4z M100.4,20.9c-3.5,0-5.9-2-5.9-4.8
		c0-2.9,2.4-4.9,5.9-4.9c3.5,0,6,2,6,4.9C106.4,18.9,104,20.9,100.4,20.9z M100.4,11.4c-3.4,0-5.7,1.9-5.7,4.7
		c0,2.7,2.4,4.6,5.7,4.6c3.4,0,5.8-1.9,5.8-4.6C106.2,13.3,103.8,11.4,100.4,11.4z M100.4,18.9c-1.8,0-3.7-0.9-3.7-2.9
		c0-2,1.9-3,3.7-3c1.8,0,3.6,0.9,3.6,3C104.1,18,102.2,18.9,100.4,18.9z M100.4,13.3c-1.7,0-3.4,0.9-3.4,2.7c0,1.8,1.7,2.7,3.4,2.7
		c1.7,0,3.4-0.8,3.4-2.7C103.9,14.2,102.1,13.3,100.4,13.3z M106.5,11.5H104V5.8h-4.1V3.7h4.1V0.4h-1.7v-1.9h4.2V11.5z M104.2,11.3
		h2V-1.3h-3.8v1.5h1.7v3.8h-4.1v1.7h4.1V11.3z M88.9,11.3l-1.4-1.9l0.1-0.1c3.1-1.2,5.6-4.6,5.7-7.3h-1.5V0.1H96v1.2
		c0,3.7,2.6,6.3,5.3,7.3l0.1,0l-1.4,2l-0.1,0c-2-1.1-4.2-3.2-5.2-4.9C93.8,7.5,91.4,10,88.9,11.3L88.9,11.3z M87.9,9.5l1.1,1.6
		c2.5-1.3,4.8-3.9,5.6-5.6l0.1-0.2l0.1,0.2c0.9,1.7,3.1,3.8,5.1,5l1.1-1.6c-2.7-1.1-5.3-3.8-5.3-7.5v-1H92v1.5h1.5v0.1
		C93.6,4.8,91,8.2,87.9,9.5z M121.6,0.9v2h-11.7v-2h4.7v-2h2.3v2H121.6z M120.8,7.5c0,2.4-2.2,4-5.1,4c-2.3,0-5-1.3-5-3.9
		c0-2.6,2.5-4,5-4C118.3,3.6,120.8,4.8,120.8,7.5z M118.6,7.5c0-1.5-1.3-2.2-2.9-2.2c-1.4,0-2.7,0.9-2.7,2.3c0,1.5,1.4,2.2,2.7,2.2
		C117.2,9.8,118.6,9,118.6,7.5z M127.5,16.5c0,2.7-2.6,4.3-5.8,4.3c-3.2,0-5.7-1.6-5.7-4.3c0-2.7,2.5-4.3,5.7-4.3
		C124.9,12.2,127.5,13.8,127.5,16.5z M125.2,16.5c0-1.8-1.8-2.5-3.4-2.5c-1.7,0-3.4,0.7-3.4,2.5c0,1.8,1.8,2.4,3.4,2.4
		C123.4,19,125.2,18.3,125.2,16.5z M127.6-1.4v13.5h-2.2V10h-3.5V8.2h3.5V6h-3.5V4.2h3.5V0.3h-1.7v-1.7H127.6z M121.8,20.9
		c-3.4,0-5.8-1.8-5.8-4.4c0-2.6,2.4-4.4,5.8-4.4c3.5,0,5.9,1.8,5.9,4.4C127.6,19.1,125.2,20.9,121.8,20.9z M121.8,12.3
		c-3.4,0-5.6,1.7-5.6,4.2c0,2.5,2.3,4.2,5.6,4.2c3.3,0,5.7-1.7,5.7-4.2C127.4,14,125.1,12.3,121.8,12.3z M121.8,19.1
		c-1.7,0-3.5-0.7-3.5-2.6c0-1.9,1.9-2.6,3.5-2.6c1.6,0,3.6,0.7,3.6,2.6C125.3,18.4,123.5,19.1,121.8,19.1z M121.8,14.1
		c-1.5,0-3.3,0.6-3.3,2.4c0,1.7,1.7,2.3,3.3,2.3c1.6,0,3.3-0.6,3.3-2.3C125.1,14.7,123.3,14.1,121.8,14.1z M127.7,12.2h-2.5v-2.1
		h-3.5v-2h3.5v-2h-3.5v-2h3.5V0.4h-1.7v-1.9h4.2V12.2z M125.4,12h2V-1.3h-3.8v1.5h1.7v4.1h-3.5v1.6h3.5v2.4h-3.5v1.6h3.5V12z
		 M115.7,11.6c-2.5,0-5.1-1.4-5.1-4c0-2.7,2.6-4.1,5.1-4.1c2.6,0,5.2,1.3,5.2,4.1C120.9,9.9,118.7,11.6,115.7,11.6z M115.7,3.7
		c-2.4,0-4.9,1.3-4.9,3.9c0,2.5,2.5,3.8,4.9,3.8c3,0,5-1.6,5-3.9C120.7,4.9,118.1,3.7,115.7,3.7z M115.6,9.9c-1.4,0-2.9-0.7-2.9-2.3
		c0-1.5,1.5-2.4,2.9-2.4c1.9,0,3,0.9,3,2.4C118.7,8.9,117.4,9.9,115.6,9.9z M115.6,5.4c-1.3,0-2.6,0.8-2.6,2.2
		c0,1.4,1.4,2.1,2.6,2.1c1.4,0,2.8-0.7,2.8-2.1C118.4,6,117,5.4,115.6,5.4z M121.7,3h-11.9V0.8h4.7v-2h2.5v2h4.7V3z M110,2.8h11.5V1
		h-4.7v-2h-2.1v2H110V2.8z M148.9-1.4v22.2h-2.2v-4.3h-16v-1.9h6.5v-3.4c-2.3-0.4-4.5-2-4.5-5c0-3.3,2.8-5.4,5.6-5.4
		c3.2,0,5.8,1.7,5.8,5.4c0,2.9-2,4.6-4.6,5v3.4h7.3V0.3h-1.7v-1.7H148.9z M141.8,6.2c0-2.1-1.4-3.6-3.5-3.6c-1.8,0-3.5,1.4-3.5,3.5
		c0,2.1,1.8,3.3,3.5,3.3C140.2,9.4,141.8,8.2,141.8,6.2z M149,20.9h-2.5v-4.3h-16v-2.2h6.5v-3.2c-2.2-0.4-4.5-2-4.5-5.1
		c0-3.4,2.9-5.5,5.7-5.5c3.6,0,5.9,2.1,5.9,5.5c0,2.7-1.8,4.6-4.6,5.1v3.2h7.1V0.4h-1.7v-1.9h4.2V20.9z M146.7,20.7h2v-22H145v1.5
		h1.7v14.5h-7.5v-3.6l0.1,0c2.8-0.4,4.6-2.3,4.6-4.9c0-3.3-2.2-5.3-5.7-5.3c-2.7,0-5.5,2-5.5,5.3c0,3,2.3,4.5,4.4,4.9l0.1,0v3.6
		h-6.5v1.7h16V20.7z M138.3,9.5c-1.7,0-3.6-1.2-3.6-3.4c0-2,1.6-3.6,3.6-3.6c2.2,0,3.6,1.5,3.6,3.7C141.9,8.2,140.5,9.5,138.3,9.5z
		 M138.3,2.7c-1.7,0-3.4,1.3-3.4,3.4c0,2.1,1.7,3.2,3.4,3.2c2,0,3.4-1.3,3.4-3.1C141.7,4.1,140.4,2.7,138.3,2.7z M158.4,14.5h8.6
		V0.3h-1.7v-1.7h4v9.2h3v1.9l-3,0v11.2H167v-4.3h-15.2v-1.9h4.3V8.3h2.2V14.5z M153.3,1.1h10.5c0,3.9,0.1,8.5-0.9,11.6l-2.1-0.5
		c0.8-2.3,0.7-5.6,0.7-9.1h-8.3V1.1z M169.4,20.9h-2.5v-4.3h-15.2v-2.2h4.3V8.2h2.5v6.2h8.4v-14h-1.7v-1.9h4.2v9.2h3v2.1l-3,0V20.9z
		 M167.1,20.7h2V9.5l3,0V7.8h-3v-9.2h-3.8v1.5h1.7v14.5h-8.8V8.4h-2v6.2h-4.3v1.7h15.2V20.7z M163,12.7l-2.3-0.6l0-0.1
		c0.7-2.2,0.7-5.2,0.7-8.5V3.1h-8.3V0.9h10.7v0.7C163.9,5.4,163.9,9.7,163,12.7L163,12.7z M160.9,12l1.9,0.5
		c0.8-2.9,0.8-7.1,0.8-10.9V1.2h-10.3v1.8h8.3v0.7C161.7,6.8,161.7,9.8,160.9,12z"/>
	<path id="Fill-46" class="st0" d="M55.4,32.6v-4.8h1l1.2,2c0.3,0.5,0.6,1.1,0.8,1.6h0c-0.1-0.6-0.1-1.3-0.1-2v-1.7h0.8v4.8h-0.9
		l-1.2-2.1c-0.3-0.5-0.6-1.1-0.9-1.7l0,0c0,0.6,0,1.2,0,2v1.7H55.4z M65.7,30.6l-0.4-1.2c-0.1-0.3-0.2-0.6-0.2-0.9h0
		c-0.1,0.3-0.1,0.6-0.2,0.9l-0.4,1.2H65.7z M64.4,31.3L64,32.6h-0.9l1.5-4.8h1.1l1.6,4.8h-0.9l-0.4-1.4H64.4z M71.5,28.6h-1.4v-0.7
		h3.6v0.7h-1.4v4h-0.9V28.6z M78.3,27.8v2.8c0,0.9,0.4,1.4,1,1.4c0.6,0,1-0.4,1-1.4v-2.8h0.9v2.7c0,1.5-0.8,2.1-1.9,2.1
		c-1.1,0-1.8-0.6-1.8-2.1v-2.7H78.3z M86.2,30h0.5c0.6,0,1-0.3,1-0.8c0-0.5-0.4-0.8-0.9-0.8c-0.3,0-0.5,0-0.5,0V30z M85.4,27.9
		c0.3-0.1,0.8-0.1,1.3-0.1c0.7,0,1.2,0.1,1.5,0.4c0.3,0.2,0.4,0.6,0.4,1c0,0.6-0.4,1-0.9,1.2v0c0.3,0.1,0.5,0.5,0.7,0.9
		c0.1,0.6,0.3,1.1,0.4,1.3h-0.9c-0.1-0.1-0.2-0.5-0.3-1.1c-0.1-0.6-0.4-0.8-0.9-0.8h-0.4v2h-0.9V27.9z M95,30.6l-0.4-1.2
		c-0.1-0.3-0.2-0.6-0.2-0.9h0c-0.1,0.3-0.1,0.6-0.2,0.9l-0.4,1.2H95z M93.6,31.3l-0.4,1.4h-0.9l1.5-4.8h1.1l1.6,4.8h-0.9l-0.4-1.4
		H93.6z M100.3,27.8h0.9v4h2v0.7h-2.8V27.8z M128.1,30.6l-0.4-1.2c-0.1-0.3-0.2-0.6-0.2-0.9h0c-0.1,0.3-0.1,0.6-0.2,0.9l-0.4,1.2
		H128.1z M126.7,31.3l-0.4,1.4h-0.9l1.5-4.8h1.1l1.6,4.8h-0.9l-0.4-1.4H126.7z M121.6,30.5h-1.8v1.4h2v0.7h-2.9v-4.8h2.8v0.7h-1.9
		v1.2h1.8V30.5z M134.1,27.8v2.8c0,0.9,0.4,1.4,1,1.4c0.6,0,1-0.4,1-1.4v-2.8h0.9v2.7c0,1.5-0.8,2.1-1.9,2.1c-1.1,0-1.8-0.6-1.8-2.1
		v-2.7H134.1z M142.1,28.6h-1.4v-0.7h3.6v0.7H143v4h-0.9V28.6z M149.3,32.6v-2l-1.5-2.8h1l0.6,1.2c0.2,0.4,0.3,0.6,0.4,1h0
		c0.1-0.3,0.3-0.6,0.4-1l0.6-1.2h1l-1.6,2.8v2H149.3z M112.5,32c0.1,0,0.3,0,0.5,0c0.6,0,1.1-0.2,1.1-0.8c0-0.6-0.5-0.8-1.1-0.8
		h-0.4V32z M112.5,29.8h0.4c0.6,0,0.9-0.3,0.9-0.7c0-0.4-0.3-0.7-0.9-0.7c-0.3,0-0.4,0-0.5,0V29.8z M111.7,27.9
		c0.3-0.1,0.8-0.1,1.3-0.1c0.6,0,1,0.1,1.4,0.3c0.3,0.2,0.5,0.5,0.5,0.9c0,0.4-0.3,0.8-0.8,1v0c0.5,0.1,1,0.5,1,1.2
		c0,0.4-0.2,0.8-0.5,1c-0.3,0.3-0.9,0.4-1.8,0.4c-0.5,0-0.9,0-1.1-0.1V27.9z M45.7,32.6v-4.8h0.9v4.8H45.7z M10,32.6v-2l-1.5-2.8h1
		l0.6,1.2c0.2,0.4,0.3,0.6,0.4,1h0c0.1-0.3,0.3-0.6,0.4-1l0.6-1.2h1l-1.6,2.8v2H10z M16.5,30.2c0,1,0.5,1.7,1.3,1.7
		c0.8,0,1.3-0.8,1.3-1.8c0-0.9-0.4-1.8-1.3-1.8C17,28.5,16.5,29.3,16.5,30.2 M20.1,30.2c0,1.6-1,2.5-2.3,2.5c-1.3,0-2.2-1-2.2-2.4
		c0-1.5,0.9-2.5,2.3-2.5C19.3,27.8,20.1,28.8,20.1,30.2 M24,32.6v-4.8h1l1.2,2c0.3,0.5,0.6,1.1,0.8,1.6h0c-0.1-0.6-0.1-1.3-0.1-2
		v-1.7h0.8v4.8h-0.9l-1.2-2.1c-0.3-0.5-0.6-1.1-0.9-1.7l0,0c0,0.6,0,1.2,0,2v1.7H24z M32,31.7c0.3,0.2,0.7,0.3,1.2,0.3
		c0.6,0,0.9-0.3,0.9-0.7c0-0.4-0.2-0.6-0.9-0.8c-0.8-0.3-1.3-0.7-1.3-1.4c0-0.8,0.7-1.4,1.7-1.4c0.5,0,0.9,0.1,1.1,0.2l-0.2,0.7
		c-0.2-0.1-0.5-0.2-0.9-0.2c-0.6,0-0.8,0.3-0.8,0.6c0,0.4,0.3,0.5,0.9,0.8c0.8,0.3,1.2,0.7,1.2,1.4c0,0.8-0.6,1.4-1.8,1.4
		c-0.5,0-1-0.1-1.3-0.3L32,31.7z M41.6,30.5h-1.8v1.4h2v0.7h-2.9v-4.8h2.8v0.7h-1.9v1.2h1.8V30.5z"/>
</g>
</svg>
