<?xml version="1.0" encoding="utf-8"?>
<!-- Generator: Adobe Illustrator 20.0.0, SVG Export Plug-In . SVG Version: 6.00 Build 0)  -->
<svg width="35" version="1.1" id="레이어_1" xmlns="http://www.w3.org/2000/svg" xmlns:xlink="http://www.w3.org/1999/xlink" x="0px"
	 y="0px" viewBox="0 0 18.3 18.3" style="enable-background:new 0 0 18.3 18.3;" xml:space="preserve">
<style type="text/css">
	.st0{fill:#FFFFFF;}
	g{opacity: 0.6;}
</style>
<g id="Symbols_1_">
	<g id="social_x2F_naverblog" transform="translate(-3.000000, -3.000000)">
		<g id="Mask_1_">
			<path id="path-1_2_" class="st0" d="M4.3,7.2c0,1.6,0,3.3,0,4.9c0,1.5,1.3,2.9,2.9,2.9c1.3,0,2.5,0,3.8,0
				c0.3,0.6,0.6,1.2,0.9,1.8c0.1,0.2,0.1,0.4,0.3,0.4s0.3-0.2,0.3-0.4c0.3-0.6,0.6-1.2,0.9-1.9c1.3,0,2.5,0,3.8,0
				c1.5-0.1,2.8-1.4,2.9-2.9c0-1.3,0-2.6,0-3.9c0-0.6,0.1-1.2-0.1-1.7c-0.4-1.2-1.6-2.2-2.9-2.2c-3.2,0-6.5,0-9.7,0
				C5.7,4.3,4.3,5.6,4.3,7.2 M5.5,3.1C6.1,3,6.7,3,7.3,3c3.6,0,7.2,0,10.9,0c1.6,0,3.1,1.5,3.1,3.2c0,4,0,7.9,0,11.9
				c0,1.7-1.5,3.2-3.2,3.2c-4,0-8,0-12,0c-1.7,0-3.1-1.5-3.1-3.2C3,14.4,3,10.7,3,7c0-0.4,0-0.9,0-1.3C3.3,4.5,4.3,3.4,5.5,3.1
				 M13,9.6c-0.5,0.1-0.6,0.9-0.1,1.1c0.4,0.2,0.9-0.1,0.9-0.5C13.8,9.8,13.4,9.5,13,9.6 M12.6,8.8c0.6-0.2,1.3-0.1,1.7,0.4
				c0.6,0.6,0.6,1.7-0.1,2.2c-0.8,0.6-2.2,0.4-2.6-0.6C11.3,10,11.8,9,12.6,8.8 M16.6,9.6c-0.5,0.2-0.5,0.9-0.1,1.1
				c0.4,0.2,0.9-0.1,0.9-0.5C17.5,9.8,17,9.4,16.6,9.6 M15.9,8.9c0.5-0.3,1.2-0.3,1.5,0.1c0-0.1,0-0.2,0-0.3c0.3,0,0.6,0,0.9,0
				c0,0.9,0,1.8,0,2.7c0,0.5-0.2,1-0.6,1.3C17.4,13,17,13.1,16.6,13c0-0.3,0-0.6,0-0.9c0.2,0,0.5,0,0.7-0.2s0.2-0.5,0.2-0.7
				c-0.5,0.4-1.3,0.5-1.7,0C15,10.7,15.1,9.5,15.9,8.9 M9.6,7.4c0.3,0,0.6,0.1,0.8,0.2C10.8,8,11,8.5,10.9,9c0,0.9,0,1.7,0,2.6
				c-0.3,0-0.6,0-0.9,0c0-0.9,0-1.7,0-2.6c0-0.3-0.1-0.6-0.4-0.6C9.5,8.1,9.6,7.8,9.6,7.4 M7.4,9.6c-0.5,0.2-0.5,0.9,0,1.1
				c0.4,0.2,0.9-0.1,0.9-0.6C8.3,9.8,7.8,9.4,7.4,9.6 M6.1,11.6c0-1.3,0-2.7,0-4c0.3,0,0.6,0,0.9,0c0,0.5,0,1,0,1.5
				c0.5-0.5,1.3-0.4,1.7,0c0.6,0.6,0.6,1.7-0.1,2.3c-0.5,0.4-1.2,0.4-1.6-0.1c0,0.1,0,0.2,0,0.3C6.8,11.6,6.5,11.6,6.1,11.6"/>
		</g>
	</g>
</g>
</svg>
