<?xml version="1.0" encoding="UTF-8"?>
<svg width="1051px" height="573px" viewBox="0 0 1051 573" version="1.1" xmlns="http://www.w3.org/2000/svg" xmlns:xlink="http://www.w3.org/1999/xlink">
    <!-- Generator: Sketch 52.3 (67297) - http://www.bohemiancoding.com/sketch -->
    <title>Group 3</title>
    <desc>Created with Sketch.</desc>
    <g id="Page-1" stroke="none" stroke-width="1" fill="none" fill-rule="evenodd">
        <g id="12_Trauma-Treatment" transform="translate(-435.000000, -231.000000)">
            <g id="main" transform="translate(-460.000000, -233.000000)">
                <g id="Group-3" transform="translate(895.000000, 464.000000)">
                    <rect id="Rectangle-13" fill="#FFFFFF" opacity="0.5" x="35" y="27" width="1010" height="6"></rect>
                    <rect id="Rectangle-13-Copy" fill="#FFFFFF" opacity="0.5" transform="translate(1048.000000, 300.000000) rotate(90.000000) translate(-1048.000000, -300.000000) " x="775" y="297" width="546" height="6"></rect>
                    <polygon id="Rectangle-13" fill="#FFFFFF" opacity="0.5" points="35 567 1045 567 1045 573 35 573"></polygon>
                    <rect id="Rectangle-13-Copy" fill="#FFFFFF" opacity="0.5" transform="translate(38.000000, 299.500000) rotate(90.000000) translate(-38.000000, -299.500000) " x="-233.5" y="296.5" width="543" height="6"></rect>
                    <g id="Group-2">
                        <rect id="Rectangle-21-Copy" fill="#917E64" transform="translate(143.000000, 27.500000) scale(1, -1) translate(-143.000000, -27.500000) " x="0" y="0" width="286" height="55"></rect>
                        <polygon id="Polygon-Copy" fill="#5F4B2F" transform="translate(17.500000, 70.000000) scale(1, -1) translate(-17.500000, -70.000000) " points="35 55 35 85 7.95807864e-13 85"></polygon>
                        <path d="M38.553,34.442 C38.156998,35.2926709 37.7390022,35.9049981 37.299,36.279 C36.8589978,36.6530019 36.272337,36.84 35.539,36.84 C34.805663,36.84 34.2336687,36.6823349 33.823,36.367 C33.4123313,36.0516651 33.207,35.6336693 33.207,35.113 C33.207,34.5923307 33.3573318,34.1780015 33.658,33.87 C33.9586682,33.5619985 34.3216645,33.408 34.747,33.408 C35.1723355,33.408 35.5316652,33.4886659 35.825,33.65 C36.1183348,33.8113341 36.3236661,33.9873324 36.441,34.178 C36.7636683,34.6913359 37.0679986,34.948 37.354,34.948 C37.6400014,34.948 37.8929989,34.6986692 38.113,34.2 L39.037,32.022 L33.889,22.32 L33.009,22.32 L33.009,21.88 L38.927,21.88 L38.927,22.32 L37.827,22.32 L40.775,28.128 L43.305,22.32 L41.545,22.32 L41.545,21.88 L45.153,21.88 L45.153,22.32 L43.833,22.32 L38.553,34.442 Z M49.883,30.68 C50.2056683,31.413337 50.762996,31.78 51.555,31.78 C52.347004,31.78 52.911665,31.4060037 53.249,30.658 C53.586335,29.9099963 53.755,28.6743419 53.755,26.951 C53.755,25.2276581 53.586335,23.9883371 53.249,23.233 C52.911665,22.4776629 52.347004,22.1 51.555,22.1 C50.762996,22.1 50.2056683,22.4776629 49.883,23.233 C49.5603317,23.9883371 49.399,25.2313247 49.399,26.962 C49.399,28.6926753 49.5603317,29.9319963 49.883,30.68 Z M51.511,32.22 C50.1176597,32.22 48.856339,31.7653379 47.727,30.856 C46.597661,29.9466621 46.033,28.6560084 46.033,26.984 C46.033,26.0893289 46.1979983,25.2900035 46.528,24.586 C46.8580016,23.8819965 47.2979972,23.3246687 47.848,22.914 C48.3980027,22.5033313 48.9883302,22.1916677 49.619,21.979 C50.2496698,21.7663323 50.8949967,21.66 51.555,21.66 C52.2150033,21.66 52.8639968,21.7663323 53.502,21.979 C54.1400032,22.1916677 54.7339972,22.5033313 55.284,22.914 C55.8340027,23.3246687 56.277665,23.8819965 56.615,24.586 C56.952335,25.2900035 57.121,26.0819956 57.121,26.962 C57.121,27.8420044 56.952335,28.6266632 56.615,29.316 C56.277665,30.0053368 55.8303361,30.5553313 55.273,30.966 C54.1583278,31.8020042 52.9043403,32.22 51.511,32.22 Z M70.211,31.56 L71.311,31.56 L71.311,32 L65.811,32 L65.811,31.56 L66.911,31.56 L66.911,25.4 C66.911,24.3586615 66.7570015,23.6180022 66.449,23.178 C66.1409985,22.7379978 65.6790031,22.518 65.063,22.518 C64.2269958,22.518 63.5596692,22.9579956 63.061,23.838 L63.061,31.56 L64.161,31.56 L64.161,32 L58.661,32 L58.661,31.56 L59.761,31.56 L59.761,22.32 L58.661,22.32 L58.661,21.88 L63.061,21.88 L63.061,23.024 C63.3396681,22.6426648 63.775997,22.3163347 64.37,22.045 C64.964003,21.7736653 65.6056632,21.638 66.295,21.638 C68.9056797,21.638 70.211,23.0533192 70.211,25.884 L70.211,31.56 Z M77.801,31.824 C79.326341,31.824 80.089,31.4060042 80.089,30.57 C80.089,30.1006643 79.8250026,29.7156682 79.297,29.415 C78.7689974,29.1143318 78.1310037,28.8686676 77.383,28.678 C76.6349963,28.4873324 75.8980036,28.2673346 75.172,28.018 C74.4459964,27.7686654 73.844669,27.3726694 73.368,26.83 C72.8913309,26.2873306 72.6969996,25.5760044 72.785,24.696 C72.8730004,23.8159956 73.3239959,23.0900029 74.138,22.518 C74.9520041,21.9459971 75.9566607,21.66 77.152,21.66 C78.3473393,21.66 79.311663,21.8506648 80.045,22.232 C80.778337,22.6133352 81.1889996,23.1266634 81.277,23.772 C81.335667,24.168002 81.2733342,24.534665 81.09,24.872 C80.9066657,25.209335 80.6060021,25.3853333 80.188,25.4 C79.7699979,25.4146667 79.4253347,25.3046678 79.154,25.07 C78.8826653,24.8353322 78.7543333,24.5640015 78.769,24.256 C78.7836667,23.9479985 78.9009989,23.6730012 79.121,23.431 C79.3410011,23.1889988 79.451,22.9946674 79.451,22.848 C79.451,22.5986654 79.212669,22.4116673 78.736,22.287 C78.2593309,22.1623327 77.7093364,22.1 77.086,22.1 C76.4626635,22.1 75.953002,22.2393319 75.557,22.518 C75.160998,22.7966681 74.963,23.1413313 74.963,23.552 C74.963,23.9626687 75.2086642,24.3146652 75.7,24.608 C76.1913358,24.9013348 76.7889965,25.1396658 77.493,25.323 C78.1970035,25.5063343 78.8973298,25.7116655 79.594,25.939 C80.2906701,26.1663345 80.8846642,26.5293308 81.376,27.028 C81.8673358,27.5266692 82.113,28.1573295 82.113,28.92 C82.113,29.9320051 81.7536703,30.7423303 81.035,31.351 C80.3163297,31.9596697 79.2310073,32.264 77.779,32.264 C76.3269927,32.264 75.1500045,32.0440022 74.248,31.604 C73.3459955,31.1639978 72.8510004,30.5993368 72.763,29.91 C72.704333,29.513998 72.7703324,29.147335 72.961,28.81 C73.1516676,28.472665 73.4523313,28.2966667 73.863,28.282 C74.2736687,28.2673333 74.6146653,28.3773322 74.886,28.612 C75.1573347,28.8466678 75.2856667,29.1179985 75.271,29.426 C75.2563333,29.7340015 75.1390011,30.0089988 74.919,30.251 C74.6989989,30.4930012 74.589,30.6873326 74.589,30.834 C74.589,31.1273348 74.9299966,31.3656658 75.612,31.549 C76.2940034,31.7323343 77.0236628,31.824 77.801,31.824 Z M93.025,27.6 L86.381,27.6 C86.5276674,30.1813462 87.532324,31.472 89.395,31.472 C89.8936692,31.472 90.4619968,31.3546678 91.1,31.12 C91.7380032,30.8853322 92.2036652,30.5553355 92.497,30.13 L92.805,30.35 C92.4823317,30.8926694 91.9323372,31.3399982 91.155,31.692 C90.3776628,32.0440018 89.6040038,32.22 88.834,32.22 C88.0639961,32.22 87.3710031,32.1430008 86.755,31.989 C86.1389969,31.8349992 85.5376696,31.5746685 84.951,31.208 C84.3643304,30.8413315 83.9060016,30.291337 83.576,29.558 C83.2459983,28.824663 83.081,27.9373385 83.081,26.896 C83.081,25.1213245 83.5723284,23.8050043 84.555,22.947 C85.5376716,22.0889957 86.7293263,21.66 88.13,21.66 C89.5306737,21.66 90.696662,22.1293286 91.628,23.068 C92.559338,24.0066714 93.025,25.5173229 93.025,27.6 Z M86.359,27.16 L89.945,27.16 C89.945,25.8106599 89.8020014,24.6300051 89.516,23.618 C89.2299986,22.6059949 88.7716698,22.1 88.141,22.1 C87.5103302,22.1 87.0556681,22.5876618 86.777,23.563 C86.4983319,24.5383382 86.359,25.6566604 86.359,26.918 L86.359,27.16 Z M99.031,31.56 L100.131,31.56 L100.131,32 L94.631,32 L94.631,31.56 L95.731,31.56 L95.731,22.32 L94.851,22.32 L94.851,21.88 L99.031,21.88 L99.031,31.56 Z M99.229,18.976 C99.229,19.5040026 99.0420019,19.9549981 98.668,20.329 C98.2939981,20.7030019 97.839336,20.89 97.304,20.89 C96.768664,20.89 96.3103352,20.7030019 95.929,20.329 C95.5476648,19.9549981 95.357,19.500336 95.357,18.965 C95.357,18.429664 95.5476648,17.9713352 95.929,17.59 C96.3103352,17.2086648 96.768664,17.018 97.304,17.018 C97.839336,17.018 98.2939981,17.2086648 98.668,17.59 C99.0420019,17.9713352 99.229,18.4333306 99.229,18.976 Z M117.951,31.56 L119.051,31.56 L119.051,32 L113.551,32 L113.551,31.56 L114.651,31.56 L114.651,25.4 C114.651,24.3586615 114.497002,23.6180022 114.189,23.178 C113.880998,22.7379978 113.419003,22.518 112.803,22.518 C111.966996,22.518 111.299669,22.9579956 110.801,23.838 L110.801,31.56 L111.901,31.56 L111.901,32 L106.401,32 L106.401,31.56 L107.501,31.56 L107.501,22.32 L106.401,22.32 L106.401,21.88 L110.801,21.88 L110.801,23.024 C111.079668,22.6426648 111.515997,22.3163347 112.11,22.045 C112.704003,21.7736653 113.345663,21.638 114.035,21.638 C116.64568,21.638 117.951,23.0533192 117.951,25.884 L117.951,31.56 Z M131.261,31.56 C131.114333,31.7066674 130.835669,31.8349994 130.425,31.945 C130.014331,32.0550005 129.537669,32.11 128.995,32.11 C127.792327,32.11 127.037002,31.7506703 126.729,31.032 C125.995663,31.7946705 124.873674,32.176 123.363,32.176 C122.556329,32.176 121.892669,31.9890019 121.372,31.615 C120.851331,31.2409981 120.591,30.687337 120.591,29.954 C120.591,28.9713284 120.97233,28.212336 121.735,27.677 C122.49767,27.141664 123.832324,26.7640011 125.739,26.544 L126.619,26.434 L126.619,25.356 C126.619,24.0799936 126.523668,23.2220022 126.333,22.782 C126.142332,22.3419978 125.764669,22.122 125.2,22.122 C124.635331,22.122 124.272334,22.1989992 124.111,22.353 C123.949666,22.5070008 123.891,22.682999 123.935,22.881 C123.979,23.079001 124.052333,23.3393317 124.155,23.662 C124.257667,23.9846683 124.309,24.2413324 124.309,24.432 C124.309,24.8866689 124.151335,25.2716651 123.836,25.587 C123.520665,25.9023349 123.139336,26.06 122.692,26.06 C122.244664,26.06 121.859668,25.9023349 121.537,25.587 C121.214332,25.2716651 121.053,24.8866689 121.053,24.432 C121.053,23.6839963 121.437996,23.042336 122.208,22.507 C122.978004,21.971664 124.129326,21.704 125.662,21.704 C127.194674,21.704 128.28733,22.0046637 128.94,22.606 C129.59267,23.2073363 129.919,24.270659 129.919,25.796 L129.919,29.756 C129.919,30.5333372 130.014332,31.020999 130.205,31.219 C130.395668,31.417001 130.747664,31.4573339 131.261,31.34 L131.261,31.56 Z M123.649,29.514 C123.722334,30.0713361 123.927665,30.5003318 124.265,30.801 C124.602335,31.1016682 124.994664,31.252 125.442,31.252 C125.889336,31.252 126.281665,31.0320022 126.619,30.592 L126.619,26.852 L125.827,26.962 C125.15233,27.0500004 124.606002,27.3066645 124.188,27.732 C123.769998,28.1573355 123.590333,28.7513295 123.649,29.514 Z M136.629,22.32 L136.629,27.688 C136.629,28.9493396 136.680333,29.7156653 136.783,29.987 C136.885667,30.2583347 136.995666,30.4893324 137.113,30.68 C137.333001,31.0613352 137.717997,31.252 138.268,31.252 C138.818003,31.252 139.202999,31.1786674 139.423,31.032 L139.423,31.472 C138.718996,31.9706692 137.949004,32.22 137.113,32.22 C135.880994,32.22 134.942337,31.9266696 134.297,31.34 C133.651663,30.7533304 133.329,29.7046742 133.329,28.194 L133.329,22.32 L131.701,22.32 L131.701,21.88 L133.329,21.88 C134.033004,21.7626661 134.656331,21.4216695 135.199,20.857 C135.741669,20.2923305 136.115666,19.5113383 136.321,18.514 L136.629,18.514 L136.629,21.88 L139.181,21.88 L139.181,22.32 L136.629,22.32 Z M148.113,32 L148.113,30.834 C147.834332,31.230002 147.398003,31.5636653 146.804,31.835 C146.209997,32.1063347 145.568337,32.242 144.879,32.242 C142.26832,32.242 140.963,30.8266808 140.963,27.996 L140.963,22.32 L139.863,22.32 L139.863,21.88 L144.263,21.88 L144.263,28.48 C144.263,29.5213385 144.416998,30.2619978 144.725,30.702 C145.033002,31.1420022 145.494997,31.362 146.111,31.362 C146.932337,31.362 147.599664,30.9220044 148.113,30.042 L148.113,22.32 L147.013,22.32 L147.013,21.88 L151.413,21.88 L151.413,31.56 L152.513,31.56 L152.513,32 L148.113,32 Z M159.553,32 L154.053,32 L154.053,31.56 L155.153,31.56 L155.153,22.32 L154.053,22.32 L154.053,21.88 L158.453,21.88 L158.453,24.498 C158.585001,23.7793297 158.823332,23.1926689 159.168,22.738 C159.512668,22.2833311 159.893998,21.9826674 160.312,21.836 C160.730002,21.6893326 161.133331,21.616 161.522,21.616 C161.910669,21.616 162.284665,21.685666 162.644,21.825 C163.003335,21.964334 163.270999,22.2429979 163.447,22.661 C163.623001,23.0790021 163.630334,23.4969979 163.469,23.915 C163.307666,24.3330021 163.025335,24.6299991 162.622,24.806 C162.218665,24.9820009 161.848335,25.0040007 161.511,24.872 C161.173665,24.7399993 160.931667,24.5603345 160.785,24.333 C160.638333,24.1056655 160.535667,23.8893344 160.477,23.684 C160.330333,23.1413306 160.132335,22.87 159.883,22.87 C159.604332,22.87 159.296335,23.3503285 158.959,24.311 C158.621665,25.2716715 158.453,26.287328 158.453,27.358 L158.453,31.56 L159.553,31.56 L159.553,32 Z M175.349,31.56 C175.202333,31.7066674 174.923669,31.8349994 174.513,31.945 C174.102331,32.0550005 173.625669,32.11 173.083,32.11 C171.880327,32.11 171.125002,31.7506703 170.817,31.032 C170.083663,31.7946705 168.961674,32.176 167.451,32.176 C166.644329,32.176 165.980669,31.9890019 165.46,31.615 C164.939331,31.2409981 164.679,30.687337 164.679,29.954 C164.679,28.9713284 165.06033,28.212336 165.823,27.677 C166.58567,27.141664 167.920324,26.7640011 169.827,26.544 L170.707,26.434 L170.707,25.356 C170.707,24.0799936 170.611668,23.2220022 170.421,22.782 C170.230332,22.3419978 169.852669,22.122 169.288,22.122 C168.723331,22.122 168.360334,22.1989992 168.199,22.353 C168.037666,22.5070008 167.979,22.682999 168.023,22.881 C168.067,23.079001 168.140333,23.3393317 168.243,23.662 C168.345667,23.9846683 168.397,24.2413324 168.397,24.432 C168.397,24.8866689 168.239335,25.2716651 167.924,25.587 C167.608665,25.9023349 167.227336,26.06 166.78,26.06 C166.332664,26.06 165.947668,25.9023349 165.625,25.587 C165.302332,25.2716651 165.141,24.8866689 165.141,24.432 C165.141,23.6839963 165.525996,23.042336 166.296,22.507 C167.066004,21.971664 168.217326,21.704 169.75,21.704 C171.282674,21.704 172.37533,22.0046637 173.028,22.606 C173.68067,23.2073363 174.007,24.270659 174.007,25.796 L174.007,29.756 C174.007,30.5333372 174.102332,31.020999 174.293,31.219 C174.483668,31.417001 174.835664,31.4573339 175.349,31.34 L175.349,31.56 Z M167.737,29.514 C167.810334,30.0713361 168.015665,30.5003318 168.353,30.801 C168.690335,31.1016682 169.082664,31.252 169.53,31.252 C169.977336,31.252 170.369665,31.0320022 170.707,30.592 L170.707,26.852 L169.915,26.962 C169.24033,27.0500004 168.694002,27.3066645 168.276,27.732 C167.857998,28.1573355 167.678333,28.7513295 167.737,29.514 Z M181.069,31.56 L182.169,31.56 L182.169,32 L176.669,32 L176.669,31.56 L177.769,31.56 L177.769,17.7 L176.669,17.7 L176.669,17.26 L181.069,17.26 L181.069,31.56 Z M192.179,28.568 C192.179,29.6826722 192.303665,30.4856642 192.553,30.977 C192.802335,31.4683358 193.201997,31.714 193.752,31.714 C194.302003,31.714 194.789665,31.2996708 195.215,30.471 C195.640335,29.6423292 195.853,28.4763408 195.853,26.973 C195.853,25.4696591 195.629336,24.3146707 195.182,23.508 C194.734664,22.7013293 194.210336,22.298 193.609,22.298 C193.007664,22.298 192.531002,22.6426632 192.179,23.332 L192.179,28.568 Z M197.349,31.23 C196.806331,31.5820018 196.278336,31.8313326 195.765,31.978 C195.251664,32.1246674 194.749336,32.198 194.258,32.198 C193.766664,32.198 193.315669,32.1063343 192.905,31.923 C192.494331,31.7396657 192.168001,31.5416677 191.926,31.329 C191.683999,31.1163323 191.416335,30.9183342 191.123,30.735 C190.829665,30.5516657 190.551001,30.46 190.287,30.46 C190.022999,30.46 189.792001,30.6066652 189.594,30.9 C189.395999,31.1933348 189.297,31.5599978 189.297,32 L188.879,32 L188.879,17.7 L187.779,17.7 L187.779,17.26 L192.179,17.26 L192.179,22.672 C192.413668,22.275998 192.798664,21.9643345 193.334,21.737 C193.869336,21.5096655 194.43033,21.396 195.017,21.396 C196.131672,21.396 197.103329,21.8836618 197.932,22.859 C198.760671,23.8343382 199.175,25.1946579 199.175,26.94 C199.175,27.9666718 199.006335,28.846663 198.669,29.58 C198.331665,30.313337 197.891669,30.8633315 197.349,31.23 Z M210.439,27.6 L203.795,27.6 C203.941667,30.1813462 204.946324,31.472 206.809,31.472 C207.307669,31.472 207.875997,31.3546678 208.514,31.12 C209.152003,30.8853322 209.617665,30.5553355 209.911,30.13 L210.219,30.35 C209.896332,30.8926694 209.346337,31.3399982 208.569,31.692 C207.791663,32.0440018 207.018004,32.22 206.248,32.22 C205.477996,32.22 204.785003,32.1430008 204.169,31.989 C203.552997,31.8349992 202.95167,31.5746685 202.365,31.208 C201.77833,30.8413315 201.320002,30.291337 200.99,29.558 C200.659998,28.824663 200.495,27.9373385 200.495,26.896 C200.495,25.1213245 200.986328,23.8050043 201.969,22.947 C202.951672,22.0889957 204.143326,21.66 205.544,21.66 C206.944674,21.66 208.110662,22.1293286 209.042,23.068 C209.973338,24.0066714 210.439,25.5173229 210.439,27.6 Z M203.773,27.16 L207.359,27.16 C207.359,25.8106599 207.216001,24.6300051 206.93,23.618 C206.643999,22.6059949 206.18567,22.1 205.555,22.1 C204.92433,22.1 204.469668,22.5876618 204.191,23.563 C203.912332,24.5383382 203.773,25.6566604 203.773,26.918 L203.773,27.16 Z M222.715,31.56 C222.568333,31.7066674 222.289669,31.8349994 221.879,31.945 C221.468331,32.0550005 220.991669,32.11 220.449,32.11 C219.246327,32.11 218.491002,31.7506703 218.183,31.032 C217.449663,31.7946705 216.327674,32.176 214.817,32.176 C214.010329,32.176 213.346669,31.9890019 212.826,31.615 C212.305331,31.2409981 212.045,30.687337 212.045,29.954 C212.045,28.9713284 212.42633,28.212336 213.189,27.677 C213.95167,27.141664 215.286324,26.7640011 217.193,26.544 L218.073,26.434 L218.073,25.356 C218.073,24.0799936 217.977668,23.2220022 217.787,22.782 C217.596332,22.3419978 217.218669,22.122 216.654,22.122 C216.089331,22.122 215.726334,22.1989992 215.565,22.353 C215.403666,22.5070008 215.345,22.682999 215.389,22.881 C215.433,23.079001 215.506333,23.3393317 215.609,23.662 C215.711667,23.9846683 215.763,24.2413324 215.763,24.432 C215.763,24.8866689 215.605335,25.2716651 215.29,25.587 C214.974665,25.9023349 214.593336,26.06 214.146,26.06 C213.698664,26.06 213.313668,25.9023349 212.991,25.587 C212.668332,25.2716651 212.507,24.8866689 212.507,24.432 C212.507,23.6839963 212.891996,23.042336 213.662,22.507 C214.432004,21.971664 215.583326,21.704 217.116,21.704 C218.648674,21.704 219.74133,22.0046637 220.394,22.606 C221.04667,23.2073363 221.373,24.270659 221.373,25.796 L221.373,29.756 C221.373,30.5333372 221.468332,31.020999 221.659,31.219 C221.849668,31.417001 222.201664,31.4573339 222.715,31.34 L222.715,31.56 Z M215.103,29.514 C215.176334,30.0713361 215.381665,30.5003318 215.719,30.801 C216.056335,31.1016682 216.448664,31.252 216.896,31.252 C217.343336,31.252 217.735665,31.0320022 218.073,30.592 L218.073,26.852 L217.281,26.962 C216.60633,27.0500004 216.060002,27.3066645 215.642,27.732 C215.223998,28.1573355 215.044333,28.7513295 215.103,29.514 Z M231.625,32 L231.625,30.834 C231.346332,31.230002 230.910003,31.5636653 230.316,31.835 C229.721997,32.1063347 229.080337,32.242 228.391,32.242 C225.78032,32.242 224.475,30.8266808 224.475,27.996 L224.475,22.32 L223.375,22.32 L223.375,21.88 L227.775,21.88 L227.775,28.48 C227.775,29.5213385 227.928998,30.2619978 228.237,30.702 C228.545002,31.1420022 229.006997,31.362 229.623,31.362 C230.444337,31.362 231.111664,30.9220044 231.625,30.042 L231.625,22.32 L230.525,22.32 L230.525,21.88 L234.925,21.88 L234.925,31.56 L236.025,31.56 L236.025,32 L231.625,32 Z M241.613,22.32 L241.613,27.688 C241.613,28.9493396 241.664333,29.7156653 241.767,29.987 C241.869667,30.2583347 241.979666,30.4893324 242.097,30.68 C242.317001,31.0613352 242.701997,31.252 243.252,31.252 C243.802003,31.252 244.186999,31.1786674 244.407,31.032 L244.407,31.472 C243.702996,31.9706692 242.933004,32.22 242.097,32.22 C240.864994,32.22 239.926337,31.9266696 239.281,31.34 C238.635663,30.7533304 238.313,29.7046742 238.313,28.194 L238.313,22.32 L236.685,22.32 L236.685,21.88 L238.313,21.88 C239.017004,21.7626661 239.640331,21.4216695 240.183,20.857 C240.725669,20.2923305 241.099666,19.5113383 241.305,18.514 L241.613,18.514 L241.613,21.88 L244.165,21.88 L244.165,22.32 L241.613,22.32 Z M250.171,34.442 C249.774998,35.2926709 249.357002,35.9049981 248.917,36.279 C248.476998,36.6530019 247.890337,36.84 247.157,36.84 C246.423663,36.84 245.851669,36.6823349 245.441,36.367 C245.030331,36.0516651 244.825,35.6336693 244.825,35.113 C244.825,34.5923307 244.975332,34.1780015 245.276,33.87 C245.576668,33.5619985 245.939665,33.408 246.365,33.408 C246.790335,33.408 247.149665,33.4886659 247.443,33.65 C247.736335,33.8113341 247.941666,33.9873324 248.059,34.178 C248.381668,34.6913359 248.685999,34.948 248.972,34.948 C249.258001,34.948 249.510999,34.6986692 249.731,34.2 L250.655,32.022 L245.507,22.32 L244.627,22.32 L244.627,21.88 L250.545,21.88 L250.545,22.32 L249.445,22.32 L252.393,28.128 L254.923,22.32 L253.163,22.32 L253.163,21.88 L256.771,21.88 L256.771,22.32 L255.451,22.32 L250.171,34.442 Z" id="yonsei-natural-beaut-copy" fill="#FFFFFF"></path>
                    </g>
                </g>
            </g>
        </g>
    </g>
</svg>