<?xml version="1.0" encoding="UTF-8"?>
<svg width="300px" height="300px" viewBox="0 0 300 300" version="1.1" xmlns="http://www.w3.org/2000/svg" xmlns:xlink="http://www.w3.org/1999/xlink">
    <!-- Generator: Sketch 52.3 (67297) - http://www.bohemiancoding.com/sketch -->
    <title>Group 24</title>
    <desc>Created with Sketch.</desc>
    <defs>
        <rect id="path-1" x="0" y="0" width="280" height="280"></rect>
        <filter x="-5.4%" y="-5.4%" width="110.7%" height="110.7%" filterUnits="objectBoundingBox" id="filter-2">
            <feOffset dx="0" dy="0" in="SourceAlpha" result="shadowOffsetOuter1"></feOffset>
            <feGaussianBlur stdDeviation="5" in="shadowOffsetOuter1" result="shadowBlurOuter1"></feGaussianBlur>
            <feColorMatrix values="0 0 0 0 0   0 0 0 0 0   0 0 0 0 0  0 0 0 0.1 0" type="matrix" in="shadowBlurOuter1"></feColorMatrix>
        </filter>
        <path d="M61.938784,53.3500499 C61.5891836,53.237102 61.3901803,52.8552308 61.5031281,52.5002519 C61.77743,51.6665894 62.0786242,50.800656 62.4120892,49.9293442 C62.5411724,49.5851222 62.9284221,49.4022543 63.2780226,49.5420945 C63.6222445,49.6711777 63.799734,50.0638059 63.6652723,50.4080278 C63.3425642,51.2578258 63.0521269,52.1022453 62.788582,52.9143939 C62.6917695,53.1994527 62.4282246,53.3823207 62.1485443,53.3823207 C62.0786242,53.3823207 62.0087041,53.3715637 61.938784,53.3500499 Z M64.0659681,48.3523774 C63.9745342,48.3523774 63.8831002,48.336242 63.7916662,48.2932142 C63.4528228,48.1426171 63.3022257,47.7446105 63.4528228,47.405767 C63.8185586,46.5828614 64.2111868,45.7599558 64.6360857,44.9424286 C64.8135752,44.6197206 65.2223387,44.4906373 65.5450468,44.6573698 C65.8731334,44.8348593 66.0022166,45.2382444 65.8301056,45.5663309 C65.4159636,46.3569657 65.0340924,47.1583575 64.6791135,47.9543707 C64.5661656,48.2017803 64.3241346,48.3523774 64.0659681,48.3523774 Z M80.4165109,33.8321272 C80.5079449,33.9773459 80.6208927,34.0795368 80.7015697,34.2570262 C81.6428016,36.2094101 81.5943954,39.2267307 80.577865,42.1311034 C79.4806575,45.2559933 77.6304645,47.2782973 75.9147332,48.1657445 C77.9316587,43.3842864 79.3892235,38.4576097 80.4165109,33.8321272 M21.5814492,42.1311034 C20.7908144,39.8775253 20.5756757,37.5002424 21.0005746,35.6177786 C21.1135225,35.1068242 21.3286612,34.7410883 21.522286,34.3430817 C22.5173026,38.7319116 23.8995689,43.3627726 25.7820327,47.8806857 C24.2007631,46.8695337 22.5764658,44.965556 21.5814492,42.1311034 M82.3688948,84.416619 C77.9209018,83.8142306 74.6077654,82.0124438 72.246618,78.8929324 C67.0510179,72.0407641 68.4816904,61.2515572 68.4978258,61.1439879 C68.5193396,61.0095262 68.4763119,60.8911999 68.4763119,60.7567382 C70.5201298,58.3095352 72.2627534,55.5772735 73.7741029,52.6997931 C73.9354569,52.71055 74.0860541,52.7804701 74.2527866,52.7804701 C78.2328529,52.7804701 82.4065441,49.090841 84.3858203,43.4703419 C85.7680866,39.5333033 85.7465727,35.4349107 84.3374141,32.5036456 C83.6382133,31.0460808 82.5571412,30.0564427 81.3147151,29.3733772 C82.7669014,21.257269 82.9874186,14.9752183 83.003554,14.2598821 C83.0358248,12.7700464 81.8633188,11.5383773 80.3788616,11.5061065 C78.6523734,11.5114849 77.6627353,12.6463417 77.625086,14.1254204 C77.6197075,14.3298022 77.3454057,22.9891357 75.0111506,33.1920895 C74.4087621,33.5632038 73.8063737,33.9343181 73.2362561,34.3645956 C72.9350619,34.5904912 72.8758987,35.0100117 73.1017944,35.3058275 C73.2362561,35.4833169 73.4352594,35.5747509 73.6396412,35.5747509 C73.7794814,35.5747509 73.9193215,35.5317231 74.0430263,35.4402892 C74.2043803,35.3219629 74.3711129,35.2305289 74.5324669,35.1175811 C72.1928333,44.4546016 68.0460345,54.6145277 60.8388873,60.7459812 C60.8442658,60.7190889 60.8496442,60.697575 60.8550227,60.6653042 C60.9195643,60.2941899 60.6775333,59.9445895 60.3117974,59.8854263 C59.9084123,59.8208847 59.5964612,60.0629158 59.5319196,60.4286516 C59.4135933,61.1009601 59.3329163,61.62805 59.2683746,62.0690844 C56.8211717,63.8278434 54.0458822,65.1079188 50.9102353,65.7909842 C47.2206063,64.9895925 44.0742025,63.2953751 41.3311838,61.041797 C41.3042914,60.8374152 41.2720206,60.6545473 41.2343713,60.4286516 C41.1698297,60.0629158 40.8471217,59.8155063 40.4544935,59.8854263 C40.3361672,59.9069402 40.2554902,59.9929957 40.1748131,60.0629158 C33.5431621,53.9475976 29.6545297,44.3470322 27.3848162,35.4456676 C27.4816286,35.4026399 27.5945764,35.4026399 27.6644965,35.3058275 C27.8850137,35.0100117 27.8258506,34.5904912 27.5300348,34.3645956 C27.3633023,34.2408908 27.1804344,34.1440784 27.0083234,34.0203736 C24.4912004,23.4570624 24.2007631,14.3351806 24.1953846,14.1254204 C24.1631138,12.6463417 23.0981772,11.4684572 21.441609,11.5061065 C19.9571518,11.5383773 18.7846458,12.7700464 18.8169166,14.2598821 C18.8384305,14.9752183 19.0589477,21.3002967 20.521891,29.4701897 C18.833052,30.5028555 17.6013828,32.2992638 17.0581576,34.7357099 C16.4719046,37.3765377 16.7246926,40.4745352 17.7734938,43.4703419 C19.7527701,49.090841 23.9318397,52.7804701 27.911906,52.7804701 C27.9710692,52.7804701 28.0194754,52.7535777 28.0786386,52.7535777 C29.6276373,55.7063567 31.4348026,58.4924031 33.553919,60.9880123 C33.5592975,61.041797 33.5377836,61.0955817 33.5431621,61.1493663 C33.5592975,61.2569357 35.0222408,71.9816009 29.8105053,78.8767969 C27.4493578,82.0016869 24.1362215,83.8142306 19.6774715,84.416619 C18.2037713,84.6156223 17.1711054,85.9709963 17.3701087,87.4446965 C17.5529766,88.794692 18.7093473,89.7735732 20.0324504,89.7735732 C20.1507767,89.7735732 20.2744815,89.7628162 20.3981862,89.7466808 C26.2660948,88.956046 30.8754419,86.3851383 34.1025227,82.1200132 C37.9373704,77.0427394 38.9162516,70.6907686 39.0722272,66.1459631 C42.2078741,68.4640829 45.7899338,70.2282204 49.9690034,71.1049107 C49.9958958,71.1156676 50.0281666,71.1210461 50.0550589,71.131803 C50.1733852,71.1533169 50.2755761,71.2071015 50.3992809,71.2339939 C50.5660134,71.2608862 50.7327459,71.2770216 50.8994784,71.2770216 L50.9048569,71.2770216 L50.9102353,71.2770216 L50.9156138,71.2770216 C51.0823463,71.2770216 51.2490788,71.2608862 51.4158113,71.2339939 C51.5395161,71.2071015 51.641707,71.1533169 51.7600333,71.131803 C51.7923041,71.1210461 51.8191964,71.1156676 51.8460888,71.1049107 C56.1273493,70.2067065 59.7739506,68.3780274 62.9580037,65.9792306 C63.0978439,70.5294146 64.0605897,76.9781977 67.9438436,82.1200132 C71.1655459,86.3851383 75.7802715,88.956046 81.6481801,89.7466808 C81.7665064,89.7628162 81.8902112,89.7735732 82.0085375,89.7735732 C83.3370191,89.7735732 84.4880112,88.794692 84.6762576,87.4446965 C84.8752609,85.9709963 83.8425951,84.6156223 82.3688948,84.416619 M66.5578124,43.585979 C66.4394861,43.585979 66.3157813,43.5537082 66.2082119,43.4891666 C65.8908823,43.2955417 65.7886914,42.8813997 65.9823163,42.5640701 C66.4717569,41.7680568 66.9827113,40.9989359 67.5044227,40.2782212 C67.7249399,39.977027 68.1498389,39.9178638 68.4456546,40.1330025 C68.7468488,40.3481412 68.8113905,40.7730402 68.5908733,41.0742344 C68.0745403,41.7841922 67.5850997,42.5156639 67.1333084,43.2632709 C67.0042252,43.4730312 66.783708,43.585979 66.5578124,43.585979 Z M69.7198137,39.2423282 C69.5638381,39.2423282 69.4024841,39.1885435 69.2787793,39.0755957 C68.999099,38.8335646 68.9668282,38.4086657 69.2142377,38.1289853 C69.8327615,37.4190276 70.4727992,36.7520975 71.1235939,36.1443306 C71.3871388,35.8915426 71.8120378,35.9022996 72.0702042,36.1766014 C72.3283707,36.4455248 72.3122353,36.8704238 72.0433119,37.1232118 C71.4247881,37.6987079 70.8170212,38.3387456 70.2253897,39.0110541 C70.090928,39.1616512 69.9080601,39.2423282 69.7198137,39.2423282 Z M60.5753424,58.5607097 C60.214985,58.4746542 59.9890894,58.1142968 60.0697664,57.7539395 C60.2526343,56.9364123 60.4731515,56.0489651 60.7313179,55.1131117 C60.8281304,54.7581328 61.1831093,54.5483725 61.559602,54.6398065 C61.9145809,54.7419974 62.1243412,55.1077332 62.0275287,55.4680906 C61.7747407,56.3878086 61.5649805,57.2537419 61.3821126,58.0551337 C61.3121925,58.3670848 61.0325122,58.5768451 60.7259395,58.5768451 C60.6775333,58.5768451 60.6237486,58.5714666 60.5753424,58.5607097 Z M30.5371363,39.0110541 C29.9508833,38.3387456 29.3377379,37.6987079 28.7245926,37.1232118 C28.4502907,36.8704238 28.4341553,36.4455248 28.6923218,36.1766014 C28.9451098,35.9022996 29.3753872,35.8915426 29.6389321,36.1443306 C30.2897268,36.7520975 30.9351429,37.4190276 31.5482883,38.1289853 C31.7956978,38.4086657 31.7688055,38.8335646 31.4837467,39.0755957 C31.3600419,39.1885435 31.2040663,39.2423282 31.0427123,39.2423282 C30.8598444,39.2423282 30.671598,39.1616512 30.5371363,39.0110541 Z M36.0834125,47.953295 C35.7284336,47.1572818 35.3465624,46.3612685 34.9324204,45.5706337 C34.7603094,45.2371687 34.8893926,44.8337836 35.2174792,44.6616726 C35.5455657,44.4895616 35.9543293,44.6132664 36.1264403,44.9413529 C36.5513392,45.7588801 36.9493459,46.5871642 37.3150817,47.4046913 C37.4603003,47.7435348 37.3097032,48.1415414 36.9708597,48.2921385 C36.8794258,48.3351663 36.7879918,48.3513017 36.6965579,48.3513017 C36.4383914,48.3513017 36.1963603,48.2007046 36.0834125,47.953295 Z M37.0972537,50.4091035 C36.962792,50.0648816 37.1402815,49.6722534 37.4845034,49.5431702 C37.8287254,49.40333 38.2159751,49.5808195 38.3504368,49.9304199 C38.6839018,50.8017317 38.985096,51.6622866 39.2593979,52.5013276 C39.3723457,52.8563065 39.1787209,53.2327992 38.823742,53.3511255 C38.7592004,53.3726394 38.6839018,53.3833964 38.6193602,53.3833964 C38.3343014,53.3833964 38.0707565,53.2005284 37.9793225,52.9154696 C37.7157776,52.0979425 37.4199618,51.2589015 37.0972537,50.4091035 Z M38.736073,55.4697041 C38.6392605,55.1093467 38.8490208,54.7436109 39.2039997,54.64142 C39.575114,54.5446076 39.9354713,54.7597463 40.0322837,55.1147252 C40.2904502,56.0505786 40.5109674,56.9380259 40.6938353,57.755553 C40.7745123,58.1159104 40.5486167,58.4762677 40.1882593,58.5623232 C40.1398531,58.5730802 40.0860684,58.5784586 40.0376622,58.5784586 C39.7310895,58.5784586 39.4514092,58.3686984 39.3814891,58.0513688 C39.1986212,57.2553555 38.9888609,56.3840437 38.736073,55.4697041 Z M33.6308311,43.2627331 C33.1790398,42.515126 32.6895992,41.7836544 32.1732663,41.0736966 C31.9527491,40.7725024 32.0172907,40.3476034 32.3184849,40.1324647 C32.6196791,39.9119475 33.0391996,39.9764891 33.2597168,40.2776833 C33.7814282,40.998398 34.2923827,41.767519 34.7818233,42.5635322 C34.9754481,42.8808618 34.8732572,43.2950039 34.5559276,43.4886287 C34.4483582,43.5531703 34.3246535,43.5854412 34.2063272,43.5854412 C33.9804315,43.5854412 33.7599143,43.4724933 33.6308311,43.2627331 Z" id="path-3"></path>
    </defs>
    <g id="Page-1" stroke="none" stroke-width="1" fill="none" fill-rule="evenodd">
        <g id="5_Non-Eye-Correction" transform="translate(-1260.000000, -5165.000000)">
            <g id="Group-24" transform="translate(1270.000000, 5175.000000)">
                <g id="Group-20">
                    <g id="Rectangle-5-Copy-3">
                        <use fill="black" fill-opacity="1" filter="url(#filter-2)" xlink:href="#path-1"></use>
                        <use fill="#FFFFFF" fill-rule="evenodd" xlink:href="#path-1"></use>
                    </g>
                    <text id="탱탱하게-채워주는" font-family="AppleSDGothicNeo-Regular, Apple SD Gothic Neo" font-size="18" font-weight="normal" line-spacing="27" fill="#555555">
                        <tspan x="75.353" y="192">탱탱하게 채워주는</tspan>
                    </text>
                    <g id="-round/ver1/face2" transform="translate(91.000000, 38.000000)">
                        <mask id="mask-4" fill="white">
                            <use xlink:href="#path-3"></use>
                        </mask>
                        <use id="Fill-4" fill="#613627" fill-rule="evenodd" xlink:href="#path-3"></use>
                        <g id="swatch/dark-brown1" mask="url(#mask-4)" fill="#6C573A" fill-rule="evenodd">
                            <rect id="Rectangle" x="0" y="0" width="103" height="99"></rect>
                        </g>
                    </g>
                </g>
                <path d="M108.298,214.964 L108.298,216.086 C108.298,219.386 109.926,222.884 113.314,224.292 L111.73,226.58 C109.376,225.568 107.77,223.588 106.868,221.146 C105.966,223.786 104.338,226.008 101.962,227.086 L100.312,224.776 C103.7,223.258 105.35,219.54 105.35,216.086 L105.35,214.964 L101.126,214.964 L101.126,212.566 L112.478,212.566 L112.478,214.964 L108.298,214.964 Z M114.348,210.63 L117.252,210.63 L117.252,230.892 L114.348,230.892 L114.348,210.63 Z M128.142,219.166 L128.142,216.658 L124.16,216.658 L124.16,219.166 L128.142,219.166 Z M131.002,211.928 L131.002,221.432 L121.3,221.432 L121.3,211.928 L124.16,211.928 L124.16,214.436 L128.142,214.436 L128.142,211.928 L131.002,211.928 Z M130.012,228.67 C132.608,228.67 133.994,228.12 133.994,226.976 C133.994,225.832 132.608,225.282 130.012,225.282 C127.438,225.282 126.052,225.832 126.052,226.976 C126.052,228.12 127.438,228.67 130.012,228.67 Z M130.012,223.016 C134.236,223.016 136.876,224.49 136.876,226.976 C136.876,229.44 134.236,230.936 130.012,230.936 C125.81,230.936 123.17,229.44 123.17,226.976 C123.17,224.49 125.81,223.016 130.012,223.016 Z M136.656,215.36 L139.34,215.36 L139.34,217.736 L136.656,217.736 L136.656,222.576 L133.752,222.576 L133.752,210.652 L136.656,210.652 L136.656,215.36 Z M154.828,210.608 L157.732,210.608 L157.732,230.936 L154.828,230.936 L154.828,210.608 Z M146.842,212.038 C149.9,212.038 152.166,214.81 152.166,219.254 C152.166,223.72 149.9,226.514 146.842,226.514 C143.784,226.514 141.518,223.72 141.518,219.254 C141.518,214.81 143.784,212.038 146.842,212.038 Z M146.842,214.656 C145.346,214.656 144.312,216.262 144.312,219.254 C144.312,222.268 145.346,223.874 146.842,223.874 C148.338,223.874 149.372,222.268 149.372,219.254 C149.372,216.262 148.338,214.656 146.842,214.656 Z M173.594,219.452 L172.186,221.74 C169.92,221.014 168.358,219.584 167.456,217.758 C166.532,219.716 164.904,221.3 162.528,222.07 L161.098,219.782 C164.486,218.704 165.938,216.064 165.938,213.49 L165.938,211.554 L168.886,211.554 L168.886,213.49 C168.886,216.02 170.316,218.44 173.594,219.452 Z M164.2,225.92 L164.2,223.588 L178.016,223.588 L178.016,230.914 L175.09,230.914 L175.09,225.92 L164.2,225.92 Z M175.09,210.63 L178.016,210.63 L178.016,222.708 L175.09,222.708 L175.09,210.63 Z" id="지방이식" fill="#8D7047"></path>
            </g>
        </g>
    </g>
</svg>