<?xml version="1.0" encoding="UTF-8"?>
<svg width="300px" height="300px" viewBox="0 0 300 300" version="1.1" xmlns="http://www.w3.org/2000/svg" xmlns:xlink="http://www.w3.org/1999/xlink">
    <!-- Generator: Sketch 52.3 (67297) - http://www.bohemiancoding.com/sketch -->
    <title>Group 21</title>
    <desc>Created with Sketch.</desc>
    <defs>
        <rect id="path-1" x="0" y="0" width="280" height="280"></rect>
        <filter x="-5.4%" y="-5.4%" width="110.7%" height="110.7%" filterUnits="objectBoundingBox" id="filter-2">
            <feOffset dx="0" dy="0" in="SourceAlpha" result="shadowOffsetOuter1"></feOffset>
            <feGaussianBlur stdDeviation="5" in="shadowOffsetOuter1" result="shadowBlurOuter1"></feGaussianBlur>
            <feColorMatrix values="0 0 0 0 0   0 0 0 0 0   0 0 0 0 0  0 0 0 0.1 0" type="matrix" in="shadowBlurOuter1"></feColorMatrix>
        </filter>
        <path d="M53.4147396,18.6310319 L60.5436562,11.4095319 L62.7445729,13.6422819 L55.6188646,20.8637819 C55.6060312,20.8767819 55.6028229,20.8962819 55.5867812,20.9092819 L53.3698229,18.6635319 C53.3826562,18.6472819 53.4019062,18.6440319 53.4147396,18.6310319 Z M51.0886979,33.5907819 L48.4514479,30.9192819 C47.6397396,30.0937819 46.3179062,30.0937819 45.5029896,30.9192819 C44.6912812,31.7415319 44.6880729,33.0805319 45.5029896,33.9060319 L48.1402396,36.5775319 L45.3714479,39.3822819 L42.7341979,36.7107819 C41.9192812,35.8852819 40.6006562,35.8852819 39.7857396,36.7107819 C38.9708229,37.5362819 38.9708229,38.8752819 39.7857396,39.6975319 L42.4229896,42.3690319 L39.6509896,45.1770319 L29.8399062,35.2352819 L46.8376562,18.0200319 L56.6487396,27.9585319 L51.0886979,33.5907819 Z M25.6594479,57.7415319 L17.4364896,49.4117819 C16.9969479,48.9665319 16.9969479,48.2450319 17.4364896,47.8030319 L26.8914479,38.2252819 L36.7025312,48.1637819 L33.9337396,50.9685319 L31.2964896,48.2970319 C30.4815729,47.4747819 29.1597396,47.4747819 28.3480312,48.2970319 C27.5331146,49.1225319 27.5331146,50.4582819 28.3480312,51.2837819 L30.9852812,53.9552819 L27.2475729,57.7415319 C26.8112396,58.1835319 26.0957812,58.1835319 25.6594479,57.7415319 Z M17.7124062,58.4012819 C17.2022812,58.9180319 16.2750729,57.9755319 16.7851979,57.4620319 L18.1359062,56.0937819 L19.0631146,57.0330319 L17.7124062,58.4012819 Z M42.1727396,13.2945319 L43.8859896,15.0332819 L14.4880312,44.8162819 C12.4250729,46.9060319 12.4250729,50.3087819 14.4880312,52.3985319 L15.1874479,53.1037819 L13.8367396,54.4720319 C12.4860312,55.8435319 12.1202812,57.8260319 12.7106146,59.5387819 L3.81711458,68.5477819 C3.00540625,69.3732819 3.00540625,70.7122819 3.81711458,71.5377819 C4.63203125,72.3600319 5.95386458,72.3600319 6.76557292,71.5345319 L15.6590729,62.5255319 C17.3530729,63.1235319 19.3101562,62.7562819 20.6640729,61.3880319 L22.0115729,60.0197819 L22.7109896,60.7282819 C24.7739479,62.8180319 28.1330729,62.8180319 30.1992396,60.7282819 L59.5971979,30.9452819 L61.3136562,32.6840319 C62.1285729,33.5095319 63.4471979,33.5095319 64.2621146,32.6840319 C65.0770312,31.8585319 65.0770312,30.5227819 64.2621146,29.6972819 L58.5224062,23.8830319 C58.5352396,23.8667819 58.5544896,23.8635319 58.5673229,23.8505319 L65.6962396,16.6290319 L67.6693646,18.6310319 C68.4842812,19.4565319 69.8061146,19.4565319 70.6178229,18.6310319 C71.4327396,17.8087819 71.4327396,16.4697819 70.6178229,15.6442819 L58.9940312,3.86628185 C58.1791146,3.04403185 56.8572812,3.04403185 56.0423646,3.86953185 C55.2306562,4.69178185 55.2306562,6.03078185 56.0423646,6.85303185 L57.5951979,8.42278185 L50.4662812,15.6442819 C50.4534479,15.6572819 50.4502396,15.6767819 50.4341979,15.6930319 L45.1211979,10.3077819 C44.3062812,9.48228185 42.9876562,9.48228185 42.1727396,10.3045319 C41.3578229,11.1300319 41.3578229,12.4690319 42.1727396,13.2945319 Z" id="path-3"></path>
        <path d="M21.3419312,9.98813524 L42.1997354,9.98813524 L42.1997354,8.65046199 L21.3419312,8.65046199 L21.3419312,9.98813524 Z M22.5525714,14.279391 L40.985545,14.279391 L40.985545,13.5552639 L22.5525714,13.5552639 L22.5525714,14.279391 Z M41.6600952,28.6049797 L21.8815714,28.6049797 C22.0058307,27.310112 22.3750582,26.3897928 23.244873,25.0806566 C24.6365767,22.9831849 25.7726614,20.5432689 25.8188148,20.4398222 C25.928873,20.2043917 25.9856772,19.9475585 25.9856772,19.6871581 L25.9856772,17.8607882 L31.7832593,17.9000266 L37.5559894,17.8607882 L37.5559894,19.6871581 C37.5559894,19.9475585 37.6127937,20.2043917 37.7228519,20.4398222 C37.7690053,20.5432689 38.9050899,22.9831849 40.2967937,25.0806566 C41.1666085,26.3897928 41.535836,27.310112 41.6600952,28.6049797 Z M39.3098201,51.1777699 L24.2531481,51.1777699 C22.5703228,51.1385315 21.8141164,50.6569691 21.8283175,50.0648257 L21.8281213,49.4370111 L41.7240125,49.4370111 L41.724,50.2253465 C41.7275503,50.653402 40.9748942,51.1313972 39.3098201,51.1777699 Z M41.7133492,32.1721084 L41.7168995,37.9544239 L41.7168995,45.8698824 L21.8283175,45.8698824 L21.8283175,32.1721084 L41.7133492,32.1721084 Z M42.7642275,17.8465197 C43.7441005,17.8465197 44.5393598,17.05105 44.5393598,16.0629553 L44.5393598,13.4411158 C45.2387619,13.2021182 45.75,12.5564679 45.75,11.7716996 L45.75,6.86689766 C45.75,5.88237015 44.9547407,5.08333333 43.9748677,5.08333333 L19.5667989,5.08333333 C18.5869259,5.08333333 17.7916667,5.88237015 17.7916667,6.86689766 L17.7916667,11.7716996 C17.7916667,12.5564679 18.3029048,13.2021182 19.0023069,13.4411158 L19.0023069,16.0629553 C19.0023069,17.05105 19.7975661,17.8465197 20.7774392,17.8465197 L22.4354127,17.8465197 L22.4354127,19.2805054 C22.0874868,19.990364 21.2425238,21.6704816 20.2910529,23.1009002 C18.7857407,25.369594 18.2780529,27.0532788 18.2780529,29.7749979 L18.2780529,30.3707084 C18.2780529,30.3742755 18.2745026,30.3814098 18.2745026,30.388544 L18.2745026,47.6534468 C18.2745026,47.6855509 18.292254,47.714088 18.292254,47.7497592 L18.2958042,49.8151267 C18.2567513,50.0862285 18.1218413,51.5202142 19.2366243,52.843619 C20.252,54.0493085 21.9135238,54.6878245 24.210545,54.7448985 L39.3311217,54.7448985 L39.3772751,54.7448985 C41.6281429,54.6878245 43.2896667,54.0493085 44.3050423,52.843619 C45.4198254,51.5202142 45.2849153,50.0862285 45.2636138,50.0648257 L45.2636138,47.6712824 C45.2636138,47.6641481 45.267164,47.6570139 45.267164,47.6534468 L45.267164,30.388544 C45.267164,30.3814098 45.2636138,30.3742755 45.2636138,30.3707084 L45.2636138,29.7749979 C45.2636138,27.0532788 44.7559259,25.369594 43.2506138,23.1009002 C42.2991429,21.6704816 41.4541799,19.990364 41.106254,19.2805054 L41.106254,17.8465197 L42.7642275,17.8465197 Z" id="path-5"></path>
    </defs>
    <g id="Page-1" stroke="none" stroke-width="1" fill="none" fill-rule="evenodd">
        <g id="5_Non-Eye-Correction" transform="translate(-360.000000, -5165.000000)">
            <g id="Group-21" transform="translate(370.000000, 5175.000000)">
                <g id="Group-18">
                    <g id="Rectangle-5">
                        <use fill="black" fill-opacity="1" filter="url(#filter-2)" xlink:href="#path-1"></use>
                        <use fill="#FFFFFF" fill-rule="evenodd" xlink:href="#path-1"></use>
                    </g>
                    <text id="주름-예방" font-family="AppleSDGothicNeo-Regular, Apple SD Gothic Neo" font-size="18" font-weight="normal" line-spacing="27" fill="#555555">
                        <tspan x="106.493" y="192">주름 예방</tspan>
                    </text>
                    <g id="Group-7" transform="translate(89.000000, 43.000000)">
                        <g id="-round/ver1/syringe" transform="translate(68.500000, 55.000000) rotate(136.000000) translate(-68.500000, -55.000000) translate(30.000000, 16.000000)">
                            <mask id="mask-4" fill="white">
                                <use xlink:href="#path-3"></use>
                            </mask>
                            <use id="Mask" fill="#00A0E8" fill-rule="evenodd" xlink:href="#path-3"></use>
                            <g id="swatch/dark-brown1" mask="url(#mask-4)" fill="#6C573A" fill-rule="evenodd">
                                <rect id="Rectangle" x="0" y="0" width="80" height="78"></rect>
                            </g>
                        </g>
                        <g id="-round/ver1/Botox" opacity="0.5" transform="translate(0.000000, 41.000000)">
                            <mask id="mask-6" fill="white">
                                <use xlink:href="#path-5"></use>
                            </mask>
                            <use id="Fill-1" fill="#613627" fill-rule="evenodd" xlink:href="#path-5"></use>
                            <g id="swatch/dark-brown1" mask="url(#mask-6)" fill="#6C573A" fill-rule="evenodd">
                                <rect id="Rectangle" x="0" y="0" width="64" height="61"></rect>
                            </g>
                        </g>
                    </g>
                </g>
                <path d="M115.818,217.204 L115.818,220.042 L124.486,220.042 L124.486,217.204 L115.818,217.204 Z M121.604,226.07 L129.348,226.07 L129.348,228.424 L111,228.424 L111,226.07 L118.7,226.07 L118.7,222.352 L112.936,222.352 L112.936,211.77 L115.818,211.77 L115.818,214.916 L124.486,214.916 L124.486,211.77 L127.346,211.77 L127.346,222.352 L121.604,222.352 L121.604,226.07 Z M133.264,227.038 L133.264,224.75 L147.3,224.75 L147.3,230.8 L144.396,230.8 L144.396,227.038 L133.264,227.038 Z M141.822,221.252 L149.544,221.252 L149.544,223.562 L131.218,223.562 L131.218,221.252 L138.918,221.252 L138.918,219.8 L133.506,219.8 L133.506,211 L147.454,211 L147.454,213.2 L136.388,213.2 L136.388,214.3 L146.97,214.3 L146.97,216.412 L136.388,216.412 L136.388,217.6 L147.608,217.6 L147.608,219.8 L141.822,219.8 L141.822,221.252 Z M169.19,220.064 L167.958,222.484 C164.438,221.78 161.842,219.822 160.544,217.248 C159.246,219.822 156.672,221.802 153.152,222.484 L151.92,220.064 C156.474,219.272 159.004,216.06 159.004,213.156 L159.004,211.704 L162.106,211.704 L162.106,213.156 C162.106,216.126 164.614,219.272 169.19,220.064 Z M151.48,225.96 L169.828,225.96 L169.828,228.314 L151.48,228.314 L151.48,225.96 Z" id="보톡스" fill="#8D7047"></path>
            </g>
        </g>
    </g>
</svg>