<?xml version="1.0" encoding="UTF-8"?>
<svg width="300px" height="300px" viewBox="0 0 300 300" version="1.1" xmlns="http://www.w3.org/2000/svg" xmlns:xlink="http://www.w3.org/1999/xlink">
    <!-- Generator: Sketch 52.3 (67297) - http://www.bohemiancoding.com/sketch -->
    <title>Group 23</title>
    <desc>Created with Sketch.</desc>
    <defs>
        <rect id="path-1" x="0" y="0" width="280" height="280"></rect>
        <filter x="-5.4%" y="-5.4%" width="110.7%" height="110.7%" filterUnits="objectBoundingBox" id="filter-2">
            <feOffset dx="0" dy="0" in="SourceAlpha" result="shadowOffsetOuter1"></feOffset>
            <feGaussianBlur stdDeviation="5" in="shadowOffsetOuter1" result="shadowBlurOuter1"></feGaussianBlur>
            <feColorMatrix values="0 0 0 0 0   0 0 0 0 0   0 0 0 0 0  0 0 0 0.1 0" type="matrix" in="shadowBlurOuter1"></feColorMatrix>
        </filter>
        <path d="M55.3604677,36.7744966 C56.0611718,36.9641609 56.4773794,37.6859387 56.2877152,38.3919112 C55.9399974,39.6616079 55.5606689,40.8628148 55.1497297,42.0060688 C54.9600654,42.5434508 54.4542941,42.8753632 53.9116436,42.8753632 C53.764127,42.8753632 53.6113419,42.8542894 53.4690937,42.8016049 C52.784195,42.5539877 52.4259404,41.8005992 52.6735576,41.1157005 C53.0581545,40.035668 53.4216777,38.902951 53.7430532,37.7017441 C53.9379859,37.00104 54.6544953,36.5901008 55.3604677,36.7744966 Z M42.7915235,55.5433544 C43.3552478,55.0849991 44.1876631,55.1745628 44.6460183,55.7382871 C45.0991051,56.3072798 45.0148099,57.1344267 44.4458172,57.5875135 C43.4342745,58.4093919 42.3753158,59.157512 41.2952833,59.8160684 C41.0792768,59.9477797 40.8421965,60.0057326 40.6051162,60.0057326 C40.1625663,60.0057326 39.7305533,59.7844577 39.4829361,59.3787869 C39.1036076,58.7571097 39.2985403,57.9457682 39.9202175,57.5664397 C40.9054179,56.9711047 41.8695445,56.286206 42.7915235,55.5433544 Z M51.3116629,44.4074289 C51.6225015,43.7488725 52.4075008,43.4643761 53.0660572,43.7699463 C53.7246136,44.0807849 54.00911,44.8605157 53.6982713,45.5243405 C53.1345471,46.7255474 52.5392121,47.8477276 51.9175348,48.8961494 C51.6699176,49.312357 51.2326361,49.5389004 50.7848178,49.5389004 C50.5530059,49.5389004 50.3211941,49.4809475 50.110456,49.3545046 C49.4835103,48.9804446 49.2780407,48.1743716 49.6521008,47.5526943 C50.2316304,46.5727624 50.7900862,45.529609 51.3116629,44.4074289 Z M62.9338665,38.6216157 C63.3237319,39.2380245 63.1393361,40.049366 62.5229273,40.4392314 C62.3069208,40.5762111 62.0593036,40.644701 61.8222232,40.644701 C61.3849418,40.644701 60.9581972,40.4286945 60.7053116,40.0282922 L57.1807177,34.4595391 C57.1649123,34.5385659 57.1543754,34.633398 57.13857,34.7071563 C57.0173957,35.3341021 56.4642083,35.7713835 55.8477995,35.7713835 C55.7635043,35.7713835 55.679209,35.7661151 55.5949138,35.7503097 C54.8784044,35.6080615 54.4147807,34.9178944 54.5517605,34.2066535 C54.5675658,34.1328952 54.5781027,34.0485999 54.5886396,33.9748416 L49.3254568,38.1632604 C49.083108,38.3529246 48.7933432,38.4424883 48.5088468,38.4424883 C48.1189814,38.4424883 47.7343845,38.2738979 47.4762304,37.9525223 C47.0231436,37.3782612 47.1179757,36.5511143 47.6869684,36.0980275 L55.6159876,29.7916913 C55.6159876,29.7916913 55.6212561,29.7916913 55.6265245,29.7864228 C55.6475983,29.7706175 55.6739406,29.7811544 55.6897459,29.765349 C55.7108197,29.7495437 55.7108197,29.7232014 55.7318935,29.7073961 C55.8636048,29.6231008 56.0216584,29.65998 56.169175,29.6283693 C56.3166916,29.602027 56.4484029,29.496658 56.5959196,29.5177318 C56.601188,29.5177318 56.601188,29.5124634 56.6064565,29.5124634 C56.6275303,29.5177318 56.6380672,29.5440741 56.6644094,29.5440741 C56.822463,29.5756848 56.927832,29.6968592 57.0700802,29.7811544 C57.2017915,29.8601812 57.3651135,29.8707181 57.465214,30.0024293 C57.4704825,30.0076978 57.465214,30.0129662 57.4704825,30.0129662 C57.4862878,30.03404 57.4810194,30.0603823 57.4968247,30.0761877 C57.5126301,30.0972615 57.5389723,30.0972615 57.5495092,30.1183353 L62.9338665,38.6216157 Z M36.8128849,59.1838542 C37.4819783,58.8940894 38.2564406,59.1996596 38.540937,59.8740213 C38.8307018,60.5431147 38.5198632,61.3123085 37.8507698,61.6020734 C36.0858387,62.3607304 34.6106723,62.7453273 34.2787599,62.7453273 C33.5517136,62.7453273 32.961647,62.1499923 32.961647,61.4282145 C32.961647,60.7064366 33.5306398,60.126907 34.2471492,60.1111017 C34.2155385,60.0900278 35.2692287,59.8476791 36.8128849,59.1838542 Z M47.6764315,50.4808995 C48.1189814,49.8961014 48.9461283,49.7907324 49.5203895,50.2280139 C50.0999191,50.6705638 50.215825,51.4924422 49.7732751,52.0719718 C48.9935443,53.1045883 48.1558606,54.0845202 47.2812977,54.9906938 C47.0178751,55.2646533 46.6754258,55.3963646 46.3329764,55.3963646 C46.001064,55.3963646 45.67442,55.2751902 45.4162659,55.027573 C44.8946892,54.5270701 44.8788839,53.6893864 45.3793868,53.1678097 C46.1591175,52.3617366 46.9283114,51.4713684 47.6764315,50.4808995 Z" id="path-3"></path>
        <path d="M55.3604677,36.7744966 C56.0611718,36.9641609 56.4773794,37.6859387 56.2877152,38.3919112 C55.9399974,39.6616079 55.5606689,40.8628148 55.1497297,42.0060688 C54.9600654,42.5434508 54.4542941,42.8753632 53.9116436,42.8753632 C53.764127,42.8753632 53.6113419,42.8542894 53.4690937,42.8016049 C52.784195,42.5539877 52.4259404,41.8005992 52.6735576,41.1157005 C53.0581545,40.035668 53.4216777,38.902951 53.7430532,37.7017441 C53.9379859,37.00104 54.6544953,36.5901008 55.3604677,36.7744966 Z M42.7915235,55.5433544 C43.3552478,55.0849991 44.1876631,55.1745628 44.6460183,55.7382871 C45.0991051,56.3072798 45.0148099,57.1344267 44.4458172,57.5875135 C43.4342745,58.4093919 42.3753158,59.157512 41.2952833,59.8160684 C41.0792768,59.9477797 40.8421965,60.0057326 40.6051162,60.0057326 C40.1625663,60.0057326 39.7305533,59.7844577 39.4829361,59.3787869 C39.1036076,58.7571097 39.2985403,57.9457682 39.9202175,57.5664397 C40.9054179,56.9711047 41.8695445,56.286206 42.7915235,55.5433544 Z M51.3116629,44.4074289 C51.6225015,43.7488725 52.4075008,43.4643761 53.0660572,43.7699463 C53.7246136,44.0807849 54.00911,44.8605157 53.6982713,45.5243405 C53.1345471,46.7255474 52.5392121,47.8477276 51.9175348,48.8961494 C51.6699176,49.312357 51.2326361,49.5389004 50.7848178,49.5389004 C50.5530059,49.5389004 50.3211941,49.4809475 50.110456,49.3545046 C49.4835103,48.9804446 49.2780407,48.1743716 49.6521008,47.5526943 C50.2316304,46.5727624 50.7900862,45.529609 51.3116629,44.4074289 Z M62.9338665,38.6216157 C63.3237319,39.2380245 63.1393361,40.049366 62.5229273,40.4392314 C62.3069208,40.5762111 62.0593036,40.644701 61.8222232,40.644701 C61.3849418,40.644701 60.9581972,40.4286945 60.7053116,40.0282922 L57.1807177,34.4595391 C57.1649123,34.5385659 57.1543754,34.633398 57.13857,34.7071563 C57.0173957,35.3341021 56.4642083,35.7713835 55.8477995,35.7713835 C55.7635043,35.7713835 55.679209,35.7661151 55.5949138,35.7503097 C54.8784044,35.6080615 54.4147807,34.9178944 54.5517605,34.2066535 C54.5675658,34.1328952 54.5781027,34.0485999 54.5886396,33.9748416 L49.3254568,38.1632604 C49.083108,38.3529246 48.7933432,38.4424883 48.5088468,38.4424883 C48.1189814,38.4424883 47.7343845,38.2738979 47.4762304,37.9525223 C47.0231436,37.3782612 47.1179757,36.5511143 47.6869684,36.0980275 L55.6159876,29.7916913 C55.6159876,29.7916913 55.6212561,29.7916913 55.6265245,29.7864228 C55.6475983,29.7706175 55.6739406,29.7811544 55.6897459,29.765349 C55.7108197,29.7495437 55.7108197,29.7232014 55.7318935,29.7073961 C55.8636048,29.6231008 56.0216584,29.65998 56.169175,29.6283693 C56.3166916,29.602027 56.4484029,29.496658 56.5959196,29.5177318 C56.601188,29.5177318 56.601188,29.5124634 56.6064565,29.5124634 C56.6275303,29.5177318 56.6380672,29.5440741 56.6644094,29.5440741 C56.822463,29.5756848 56.927832,29.6968592 57.0700802,29.7811544 C57.2017915,29.8601812 57.3651135,29.8707181 57.465214,30.0024293 C57.4704825,30.0076978 57.465214,30.0129662 57.4704825,30.0129662 C57.4862878,30.03404 57.4810194,30.0603823 57.4968247,30.0761877 C57.5126301,30.0972615 57.5389723,30.0972615 57.5495092,30.1183353 L62.9338665,38.6216157 Z M36.8128849,59.1838542 C37.4819783,58.8940894 38.2564406,59.1996596 38.540937,59.8740213 C38.8307018,60.5431147 38.5198632,61.3123085 37.8507698,61.6020734 C36.0858387,62.3607304 34.6106723,62.7453273 34.2787599,62.7453273 C33.5517136,62.7453273 32.961647,62.1499923 32.961647,61.4282145 C32.961647,60.7064366 33.5306398,60.126907 34.2471492,60.1111017 C34.2155385,60.0900278 35.2692287,59.8476791 36.8128849,59.1838542 Z M47.6764315,50.4808995 C48.1189814,49.8961014 48.9461283,49.7907324 49.5203895,50.2280139 C50.0999191,50.6705638 50.215825,51.4924422 49.7732751,52.0719718 C48.9935443,53.1045883 48.1558606,54.0845202 47.2812977,54.9906938 C47.0178751,55.2646533 46.6754258,55.3963646 46.3329764,55.3963646 C46.001064,55.3963646 45.67442,55.2751902 45.4162659,55.027573 C44.8946892,54.5270701 44.8788839,53.6893864 45.3793868,53.1678097 C46.1591175,52.3617366 46.9283114,51.4713684 47.6764315,50.4808995 Z" id="path-5"></path>
        <path d="M73.6455093,30.827313 C73.7289227,30.958206 73.8319627,31.0551638 73.9055627,31.2102962 C74.7642293,32.9700799 74.7200693,35.6897455 73.7927093,38.3076055 C72.7917493,41.124229 71.103856,42.9470352 69.5386293,43.7469369 C71.3786293,39.4371636 72.708336,34.9916495 73.6455093,30.827313 M19.9714827,38.3076055 C19.2502027,36.2763401 19.053936,34.1335732 19.4415627,32.4368121 C19.5446027,31.9762626 19.7408693,31.6466062 19.9175093,31.2878624 C20.8252427,35.2388919 22.086256,39.4177721 23.8035893,43.4899988 C22.3610293,42.5785956 20.879216,40.862443 19.9714827,38.3076055 M75.4266293,76.421708 C71.368816,75.8787444 68.3463093,74.2547016 66.1922827,71.4429261 C61.4524427,65.2667156 62.757616,55.5418505 62.772336,55.4448928 C62.7919627,55.3285434 62.7527093,55.217042 62.7527093,55.0958448 C64.6172427,52.8900553 66.2070027,50.4273278 67.585776,47.8337072 C67.732976,47.843403 67.8703627,47.9064255 68.0224693,47.9064255 C71.6534027,47.9064255 75.460976,44.5807738 77.2666293,39.5147299 C78.5276427,35.9660752 78.508016,32.2719839 77.2224693,29.6298844 C76.5846027,28.3112586 75.5983627,27.424095 74.4649227,26.813261 C75.7897227,19.4929488 75.990896,13.8306145 76.005616,13.1858453 C76.035056,11.8429801 74.9654027,10.7328135 73.6111627,10.7037262 C72.0361227,10.5922248 71.133296,11.7314786 71.0989493,13.0646481 C71.089136,13.4864144 69.793776,54.6740784 46.727536,59.6334688 C23.690736,54.6789263 22.365936,13.4864144 22.3561227,13.0646481 C22.3266827,11.7314786 21.379696,10.7279656 19.8439093,10.7037262 C18.4896693,10.7328135 17.420016,11.8429801 17.449456,13.1858453 C17.4690827,13.8306145 17.670256,19.5365798 19.0048693,26.8956751 C17.464176,27.8313176 16.3405493,29.4505125 15.844976,31.6417583 C15.3101493,34.0220718 15.5407627,36.8144558 16.4975627,39.5147299 C18.303216,44.5807738 22.115696,47.9064255 25.7466293,47.9064255 C25.8006027,47.9064255 25.8447627,47.8821861 25.898736,47.8821861 C27.311856,50.5436771 28.960496,53.0548835 30.8937227,55.304304 C30.8986293,55.3527829 30.8790027,55.3964139 30.8839093,55.4497406 C30.8986293,55.5466984 32.2332427,65.2133889 27.4786827,71.4283824 C25.324656,74.2450059 22.3021493,75.8787444 18.2345227,76.421708 C16.890096,76.6010799 15.948016,77.8227479 16.1295627,79.1510694 C16.2963893,80.3678895 17.3513227,81.2502053 18.5583627,81.2502053 C18.6663093,81.2502053 18.7791627,81.2405095 18.892016,81.2259659 C24.2451893,80.5133262 28.4502027,78.1960353 31.3942027,74.3516594 C34.892656,69.7752523 35.7856693,64.0498955 35.9279627,59.9534294 C38.7885493,62.0428695 42.0563893,63.637825 45.8688693,64.423183 C45.8934027,64.4328788 45.9228427,64.4377266 45.947376,64.4474224 C46.0553227,64.466814 46.1485493,64.5152929 46.2614027,64.5395323 C46.4135093,64.5637718 46.565616,64.5783154 46.7177227,64.5783154 C46.7226293,64.5783154 46.7226293,64.5783154 46.7226293,64.5783154 L46.727536,64.5783154 C46.7324427,64.5783154 46.7324427,64.5783154 46.7324427,64.5783154 C46.8845493,64.5783154 47.036656,64.5637718 47.1887627,64.5395323 C47.301616,64.5152929 47.3948427,64.466814 47.5027893,64.4474224 C47.5322293,64.4377266 47.5567627,64.4328788 47.581296,64.423183 C51.4870027,63.6184334 54.8137227,61.9653033 57.7184693,59.8031449 C57.8460427,63.899611 58.724336,69.7170776 62.2669493,74.3516594 C65.2060427,78.1960353 69.4159627,80.5133262 74.769136,81.2259659 C74.8770827,81.2405095 74.989936,81.2502053 75.0978827,81.2502053 C76.3098293,81.2502053 77.359856,80.3678895 77.5315893,79.1510694 C77.713136,77.8227479 76.771056,76.6010799 75.4266293,76.421708" id="path-7"></path>
    </defs>
    <g id="Page-1" stroke="none" stroke-width="1" fill="none" fill-rule="evenodd">
        <g id="5_Non-Eye-Correction" transform="translate(-960.000000, -5165.000000)">
            <g id="Group-23" transform="translate(970.000000, 5175.000000)">
                <g id="Group-19">
                    <g id="Rectangle-5-Copy-2">
                        <use fill="black" fill-opacity="1" filter="url(#filter-2)" xlink:href="#path-1"></use>
                        <use fill="#FFFFFF" fill-rule="evenodd" xlink:href="#path-1"></use>
                    </g>
                    <text id="주름을-팽팽하게" font-family="AppleSDGothicNeo-Regular, Apple SD Gothic Neo" font-size="18" font-weight="normal" line-spacing="27" fill="#555555">
                        <tspan x="83.138" y="192">주름을 팽팽하게</tspan>
                    </text>
                    <g id="Group-9" transform="translate(52.000000, 42.000000)">
                        <g id="-round/ver1/face3-arrow" opacity="0.5" transform="translate(123.000000, 53.000000) rotate(-9.000000) translate(-123.000000, -53.000000) translate(77.000000, 7.000000)">
                            <mask id="mask-4" fill="white">
                                <use xlink:href="#path-3"></use>
                            </mask>
                            <use id="Fill-4" fill="#613627" fill-rule="evenodd" xlink:href="#path-3"></use>
                            <g id="swatch/dark-brown1" mask="url(#mask-4)" fill="#6C573A" fill-rule="evenodd">
                                <rect id="Rectangle" x="0" y="0" width="96" height="92"></rect>
                            </g>
                        </g>
                        <g id="-round/ver1/face3-arrow" opacity="0.5" transform="translate(53.000000, 53.000000) scale(-1, 1) rotate(-9.000000) translate(-53.000000, -53.000000) translate(7.000000, 7.000000)">
                            <mask id="mask-6" fill="white">
                                <use xlink:href="#path-5"></use>
                            </mask>
                            <use id="Fill-4" fill="#613627" fill-rule="evenodd" xlink:href="#path-5"></use>
                            <g id="swatch/dark-brown1" mask="url(#mask-6)" fill="#6C573A" fill-rule="evenodd">
                                <rect id="Rectangle" x="0" y="0" width="96" height="92"></rect>
                            </g>
                        </g>
                        <g id="-round/ver1/face3" transform="translate(41.000000, 7.000000)">
                            <mask id="mask-8" fill="white">
                                <use xlink:href="#path-7"></use>
                            </mask>
                            <use id="Fill-1" fill="#613627" fill-rule="evenodd" xlink:href="#path-7"></use>
                            <g id="swatch/dark-brown1" mask="url(#mask-8)" fill="#6C573A" fill-rule="evenodd">
                                <rect id="Rectangle" x="0" y="0" width="96" height="92"></rect>
                            </g>
                        </g>
                    </g>
                </g>
                <path d="M90.841,217.076 C90.841,218.726 91.985,219.716 93.503,219.716 C94.999,219.716 96.165,218.726 96.165,217.076 C96.165,215.426 94.999,214.436 93.503,214.436 C91.985,214.436 90.841,215.426 90.841,217.076 Z M98.981,217.076 C98.981,220.046 96.583,222.224 93.503,222.224 C90.401,222.224 88.003,220.046 88.003,217.076 C88.003,214.084 90.401,211.928 93.503,211.928 C96.583,211.928 98.981,214.084 98.981,217.076 Z M93.635,223.852 L93.635,228.23 L104.525,228.23 L104.525,230.54 L90.731,230.54 L90.731,223.852 L93.635,223.852 Z M103.799,216.438 L106.483,216.438 L106.483,218.814 L103.799,218.814 L103.799,225.37 L100.895,225.37 L100.895,210.63 L103.799,210.63 L103.799,216.438 Z M115.635,219.87 L115.635,214.524 L111.785,214.524 L111.785,219.87 L115.635,219.87 Z M122.125,216.13 L118.473,216.13 L118.473,218.176 L122.125,218.176 L122.125,216.13 Z M118.473,220.486 L118.473,222.158 L108.925,222.158 L108.925,212.258 L118.473,212.258 L118.473,213.82 L122.125,213.82 L122.125,210.63 L125.029,210.63 L125.029,225.392 L122.125,225.392 L122.125,220.486 L118.473,220.486 Z M114.557,228.23 L125.469,228.23 L125.469,230.54 L111.653,230.54 L111.653,224.006 L114.557,224.006 L114.557,228.23 Z M137.371,220.178 L137.371,223.83 C140.451,223.808 143.003,223.654 145.863,223.17 L146.171,225.524 C142.871,226.096 139.901,226.228 136.227,226.228 L134.401,226.228 L134.401,217.89 L140.979,217.89 L140.979,214.656 L134.379,214.656 L134.379,212.346 L143.949,212.346 L143.949,220.178 L137.371,220.178 Z M147.271,210.608 L150.175,210.608 L150.175,230.936 L147.271,230.936 L147.271,210.608 Z M164.761,220.772 L164.761,214.7 L160.625,214.7 L160.625,220.772 L164.761,220.772 Z M157.743,220.772 L157.743,214.7 L154.993,214.7 L154.993,212.39 L170.393,212.39 L170.393,214.7 L167.643,214.7 L167.643,220.772 L170.327,220.772 L170.327,223.082 L155.103,223.082 L155.103,220.772 L157.743,220.772 Z M153.563,226.184 L171.911,226.184 L171.911,228.538 L153.563,228.538 L153.563,226.184 Z M190.633,210.63 L190.633,222.906 L187.707,222.906 L187.707,210.63 L190.633,210.63 Z M186.035,219.232 L186.299,221.476 C183.439,221.938 180.909,222.004 176.641,222.004 L174.903,222.004 L174.903,212.038 L184.649,212.038 L184.649,214.326 L177.785,214.326 L177.785,215.888 L184.055,215.888 L184.055,218.132 L177.785,218.132 L177.785,219.716 C181.283,219.694 183.505,219.606 186.035,219.232 Z M183.791,228.67 C186.431,228.67 187.817,228.164 187.817,227.042 C187.817,225.942 186.431,225.414 183.791,225.414 C181.173,225.414 179.765,225.942 179.765,227.042 C179.765,228.164 181.173,228.67 183.791,228.67 Z M183.791,223.192 C188.081,223.192 190.721,224.622 190.721,227.042 C190.721,229.506 188.081,230.914 183.791,230.914 C179.501,230.914 176.883,229.506 176.883,227.042 C176.883,224.622 179.501,223.192 183.791,223.192 Z" id="안면-리프팅" fill="#8D7047"></path>
            </g>
        </g>
    </g>
</svg>