<?xml version="1.0" encoding="UTF-8"?>
<svg width="300px" height="300px" viewBox="0 0 300 300" version="1.1" xmlns="http://www.w3.org/2000/svg" xmlns:xlink="http://www.w3.org/1999/xlink">
    <!-- Generator: Sketch 52.3 (67297) - http://www.bohemiancoding.com/sketch -->
    <title>Group 22</title>
    <desc>Created with Sketch.</desc>
    <defs>
        <rect id="path-1" x="0" y="0" width="280" height="280"></rect>
        <filter x="-5.4%" y="-5.4%" width="110.7%" height="110.7%" filterUnits="objectBoundingBox" id="filter-2">
            <feOffset dx="0" dy="0" in="SourceAlpha" result="shadowOffsetOuter1"></feOffset>
            <feGaussianBlur stdDeviation="5" in="shadowOffsetOuter1" result="shadowBlurOuter1"></feGaussianBlur>
            <feColorMatrix values="0 0 0 0 0   0 0 0 0 0   0 0 0 0 0  0 0 0 0.1 0" type="matrix" in="shadowBlurOuter1"></feColorMatrix>
        </filter>
        <path d="M40.2344792,13.8538442 L45.6043125,8.48401086 L47.2621458,10.1442609 L41.8947292,15.5140942 C41.8850625,15.5237609 41.8826458,15.5382609 41.8705625,15.5479275 L40.2006458,13.8780109 C40.2103125,13.8659275 40.2248125,13.8635109 40.2344792,13.8538442 Z M38.4823958,24.9777609 L36.4958958,22.9912609 C35.8844792,22.3774275 34.8888125,22.3774275 34.2749792,22.9912609 C33.6635625,23.6026775 33.6611458,24.5983442 34.2749792,25.2121775 L36.2614792,27.1986775 L34.1758958,29.2842609 L32.1893958,27.2977609 C31.5755625,26.6839275 30.5823125,26.6839275 29.9684792,27.2977609 C29.3546458,27.9115942 29.3546458,28.9072609 29.9684792,29.5186775 L31.9549792,31.5051775 L29.8669792,33.5931775 L22.4768125,26.2005942 L35.2803125,13.3995109 L42.6704792,20.7896775 L38.4823958,24.9777609 Z M19.3278958,42.9360109 L13.1339792,36.7420942 C12.8028958,36.4110109 12.8028958,35.8745109 13.1339792,35.5458442 L20.2558958,28.4239275 L27.6460625,35.8140942 L25.5604792,37.8996775 L23.5739792,35.9131775 C22.9601458,35.3017609 21.9644792,35.3017609 21.3530625,35.9131775 C20.7392292,36.5270109 20.7392292,37.5202609 21.3530625,38.1340942 L23.3395625,40.1205942 L20.5241458,42.9360109 C20.1954792,43.2646775 19.6565625,43.2646775 19.3278958,42.9360109 Z M13.3418125,43.4265942 C12.9575625,43.8108442 12.2591458,43.1100109 12.6433958,42.7281775 L13.6608125,41.7107609 L14.3592292,42.4091775 L13.3418125,43.4265942 Z M31.7664792,9.88567753 L33.0569792,11.1785942 L10.9130625,33.3249275 C9.35914583,34.8788442 9.35914583,37.4090942 10.9130625,38.9630109 L11.4398958,39.4874275 L10.4224792,40.5048442 C9.4050625,41.5246775 9.1295625,42.9988442 9.57422917,44.2724275 L2.87522917,50.9714275 C2.2638125,51.5852609 2.2638125,52.5809275 2.87522917,53.1947609 C3.4890625,53.8061775 4.48472917,53.8061775 5.09614583,53.1923442 L11.7951458,46.4933442 C13.0711458,46.9380109 14.5453125,46.6649275 15.5651458,45.6475109 L16.5801458,44.6300942 L17.1069792,45.1569275 C18.6608958,46.7108442 21.1911458,46.7108442 22.7474792,45.1569275 L44.8913958,23.0105942 L46.1843125,24.3035109 C46.7981458,24.9173442 47.7913958,24.9173442 48.4052292,24.3035109 C49.0190625,23.6896775 49.0190625,22.6964275 48.4052292,22.0825942 L44.0818125,17.7591775 C44.0914792,17.7470942 44.1059792,17.7446775 44.1156458,17.7350109 L49.4854792,12.3651775 L50.9717292,13.8538442 C51.5855625,14.4676775 52.5812292,14.4676775 53.1926458,13.8538442 C53.8064792,13.2424275 53.8064792,12.2467609 53.1926458,11.6329275 L44.4370625,2.87492753 C43.8232292,2.26351086 42.8275625,2.26351086 42.2137292,2.8773442 C41.6023125,3.48876086 41.6023125,4.48442753 42.2137292,5.0958442 L43.3833958,6.2630942 L38.0135625,11.6329275 C38.0038958,11.6425942 38.0014792,11.6570942 37.9893958,11.6691775 L33.9873958,7.66476086 C33.3735625,7.05092753 32.3803125,7.05092753 31.7664792,7.6623442 C31.1526458,8.27617753 31.1526458,9.2718442 31.7664792,9.88567753 Z" id="path-3"></path>
        <path d="M57.1790028,28.5590759 C57.3542361,28.7806945 57.5346233,28.9971591 57.6789331,29.3012404 C58.580869,31.1721132 58.5344837,34.0634622 57.5603929,36.8465789 C56.4265306,40.0832405 54.4319636,42.170578 52.6796309,42.8715111 C54.7205831,38.1041353 56.1688346,33.1666802 57.1790028,28.5590759 M49.27289,72.0736204 C44.2942035,65.5075266 45.6703001,55.1687636 45.6857618,55.0656852 C45.7012236,54.9368372 45.6651461,54.823451 45.6599922,54.694603 C47.6287896,52.3341077 49.3089674,49.7056087 50.7623728,46.9276459 C51.0097609,46.9585694 51.2519951,47.05134 51.4993833,47.05134 C55.3132839,47.05134 59.3127256,43.515751 61.2093681,38.124751 C62.5287715,34.3572356 62.5133098,30.4247949 61.1629828,27.6210625 C60.4362801,26.1109641 59.3178795,25.0904879 57.9933222,24.4565558 C59.353957,16.7565997 59.5652677,10.8192842 59.5807295,10.1389668 C59.6168069,8.71133099 58.4880985,7.53623729 57.0707705,7.50015985 C55.4060545,7.48469809 54.4628871,8.59279083 54.4268097,10.0101188 C54.4165019,10.4636637 53.0661749,54.9059137 28.3376679,59.6681355 C26.9409557,59.9361393 26.0287119,61.2916202 26.2967157,62.6883325 C26.533796,63.9201193 27.6161192,64.77567 28.8272903,64.77567 C28.9870618,64.77567 29.1519873,64.7602082 29.3169127,64.7344386 C33.59982,63.9046576 37.2178717,62.08017 40.3772245,59.699059 C40.5112264,64.0592751 41.4286241,70.2439788 45.1497542,75.1659722 C48.242106,79.2581845 52.6590152,81.7166042 58.2819417,82.4742304 C58.4004818,82.4896922 58.519022,82.5 58.6324082,82.5 C59.9002725,82.5 61.0083652,81.5619866 61.1835985,80.2683527 C61.3742935,78.8613327 60.3847409,77.557391 58.9725669,77.3666959 C54.7102753,76.7894569 51.5406146,75.0577399 49.27289,72.0736204 Z" id="path-5"></path>
    </defs>
    <g id="Page-1" stroke="none" stroke-width="1" fill="none" fill-rule="evenodd">
        <g id="5_Non-Eye-Correction" transform="translate(-660.000000, -5165.000000)">
            <g id="Group-22" transform="translate(670.000000, 5175.000000)">
                <g id="Group-8">
                    <g id="Rectangle-5-Copy">
                        <use fill="black" fill-opacity="1" filter="url(#filter-2)" xlink:href="#path-1"></use>
                        <use fill="#FFFFFF" fill-rule="evenodd" xlink:href="#path-1"></use>
                    </g>
                    <text id="볼륨-업" font-family="AppleSDGothicNeo-Regular, Apple SD Gothic Neo" font-size="18" font-weight="normal" line-spacing="27" fill="#555555">
                        <tspan x="114.278" y="192">볼륨 업</tspan>
                    </text>
                    <g id="Group-4" transform="translate(93.000000, 46.000000)">
                        <g id="-round/ver1/syringe" transform="translate(65.000000, 73.000000) rotate(90.000000) translate(-65.000000, -73.000000) translate(36.000000, 44.000000)">
                            <mask id="mask-4" fill="white">
                                <use xlink:href="#path-3"></use>
                            </mask>
                            <use id="Mask" fill="#00A0E8" fill-rule="evenodd" xlink:href="#path-3"></use>
                            <g id="swatch/dark-brown1" mask="url(#mask-4)" fill="#6C573A" fill-rule="evenodd">
                                <rect id="Rectangle" x="0" y="0" width="60" height="58"></rect>
                            </g>
                        </g>
                        <g id="-round/ver1/neck" opacity="0.5">
                            <mask id="mask-6" fill="white">
                                <use xlink:href="#path-5"></use>
                            </mask>
                            <use id="Fill-4" fill="#613627" fill-rule="evenodd" xlink:href="#path-5"></use>
                            <g id="swatch/dark-brown1" mask="url(#mask-6)" fill="#6C573A" fill-rule="evenodd">
                                <rect id="Rectangle" x="0" y="0" width="94" height="90"></rect>
                            </g>
                        </g>
                    </g>
                </g>
                <path d="M137.58,210.652 L137.58,221.014 L134.676,221.014 L134.676,210.652 L137.58,210.652 Z M125.964,214.106 L125.964,218.286 C126.668,218.264 127.394,218.242 128.098,218.198 L128.098,214.106 L125.964,214.106 Z M133.246,217.824 L133.378,219.87 C129.396,220.53 124.842,220.64 121.344,220.662 L121.058,218.352 L123.17,218.33 L123.17,214.106 L121.564,214.106 L121.564,211.862 L132.476,211.862 L132.476,214.106 L130.892,214.106 L130.892,218.044 C131.706,218 132.476,217.912 133.246,217.824 Z M126.778,228.494 L138.152,228.494 L138.152,230.738 L123.896,230.738 L123.896,225.216 L134.698,225.216 L134.698,224.05 L123.874,224.05 L123.874,221.828 L137.58,221.828 L137.58,227.284 L126.778,227.284 L126.778,228.494 Z M144.51,219.936 L144.51,223.874 C147.26,223.852 149.57,223.72 152.122,223.302 L152.386,225.656 C149.372,226.14 146.688,226.25 143.322,226.25 L141.65,226.25 L141.65,217.67 L147.854,217.67 L147.854,214.656 L141.606,214.656 L141.606,212.346 L150.736,212.346 L150.736,219.936 L144.51,219.936 Z M154.982,210.608 L157.908,210.608 L157.908,230.936 L154.982,230.936 L154.982,220.266 L151.814,220.266 L151.814,217.912 L154.982,217.912 L154.982,210.608 Z" id="필러" fill="#8D7047"></path>
            </g>
        </g>
    </g>
</svg>