<?xml version="1.0" encoding="UTF-8"?>
<svg width="1201px" height="683px" viewBox="0 0 1201 683" version="1.1" xmlns="http://www.w3.org/2000/svg" xmlns:xlink="http://www.w3.org/1999/xlink">
    <!-- Generator: Sketch 52.3 (67297) - http://www.bohemiancoding.com/sketch -->
    <title>Group 5</title>
    <desc>Created with Sketch.</desc>
    <defs>
        <path d="M1180,166.004237 L1181,166 L1181,663 L1,663 L1,215 L0,215 L0,0 L20.9861861,0 C22.4050942,6.96795455 28.5439437,12.2159091 35.9212902,12.2159091 C43.2986368,12.2159091 49.4374863,6.96795455 50.8515184,0 L71.3598592,0 C72.7738912,6.96795455 78.9176167,12.2159091 86.2900873,12.2159091 C93.6674339,12.2159091 99.8111594,6.96795455 101.225191,0 L121.738408,0 C123.147564,6.96795455 129.29129,12.2159091 136.66376,12.2159091 C144.041107,12.2159091 150.184832,6.96795455 151.593989,0 L172.107205,0 C173.516361,6.96795455 179.660087,12.2159091 187.032557,12.2159091 C194.409904,12.2159091 200.55363,6.96795455 201.962786,0 L222.476002,0 C223.885158,6.96795455 230.028884,12.2159091 237.401355,12.2159091 C244.773825,12.2159091 250.922427,6.96795455 252.331583,0 L272.844799,0 C274.258832,6.96795455 280.402557,12.2159091 287.775028,12.2159091 C295.152374,12.2159091 301.2961,6.96795455 302.710132,0 L323.213597,0 C324.627629,6.96795455 330.77623,12.2159091 338.143825,12.2159091 C345.521171,12.2159091 351.664897,6.96795455 353.078929,0 L373.592146,0 C375.001302,6.96795455 381.149903,12.2159091 388.517498,12.2159091 C395.894844,12.2159091 402.03857,6.96795455 403.447726,0 L423.960943,0 C425.370099,6.96795455 431.5187,12.2159091 438.891171,12.2159091 C446.263641,12.2159091 452.407367,6.96795455 453.816523,0 L474.324864,0 C475.738896,6.96795455 481.877745,12.2159091 489.259968,12.2159091 C496.622686,12.2159091 502.776164,6.96795455 504.18532,0 L524.698537,0 C526.112569,6.96795455 532.256294,12.2159091 539.633641,12.2159091 C547.006111,12.2159091 553.149837,6.96795455 554.563869,0 L575.067334,0 C576.481366,6.96795455 582.629967,12.2159091 590.002438,12.2159091 C597.374909,12.2159091 603.518634,6.96795455 604.932666,0 L625.436131,0 C626.850163,6.96795455 632.998764,12.2159091 640.371235,12.2159091 C647.748582,12.2159091 653.887431,6.96795455 655.301463,0 L675.81468,0 C677.223836,6.96795455 683.372438,12.2159091 690.744908,12.2159091 C698.122255,12.2159091 704.261104,6.96795455 705.67026,0 L726.183477,0 C727.592633,6.96795455 733.736359,12.2159091 741.113705,12.2159091 C748.486176,12.2159091 754.629901,6.96795455 756.039057,0 L776.552274,0 C777.966306,6.96795455 784.110032,12.2159091 791.482502,12.2159091 C798.859849,12.2159091 804.998698,6.96795455 806.41273,0 L826.925947,0 C828.339979,6.96795455 834.483705,12.2159091 841.856175,12.2159091 C849.233522,12.2159091 855.377247,6.96795455 856.791279,0 L877.294744,0 C878.708776,6.96795455 884.852502,12.2159091 892.224972,12.2159091 C899.602319,12.2159091 905.746044,6.96795455 907.160077,0 L927.668417,0 C929.077573,6.96795455 935.226175,12.2159091 942.593769,12.2159091 C949.971116,12.2159091 956.114842,6.96795455 957.528874,0 L978.04209,0 C979.451246,6.96795455 985.599848,12.2159091 992.967443,12.2159091 C1000.34479,12.2159091 1006.48851,6.96795455 1007.89767,0 L1028.41089,0 C1029.82004,6.96795455 1035.96865,12.2159091 1043.33624,12.2159091 C1050.71359,12.2159091 1056.85731,6.96795455 1058.26647,0 L1078.77968,0 C1080.19372,6.96795455 1086.34232,12.2159091 1093.70991,12.2159091 C1101.08726,12.2159091 1107.23098,6.96795455 1108.64502,0 L1129.14848,0 C1130.56251,6.96795455 1136.71112,12.2159091 1144.07871,12.2159091 C1151.45606,12.2159091 1157.59978,6.96795455 1159.01381,0 L1180,0 L1180,166.004237 Z" id="path-1"></path>
        <filter x="-1.3%" y="-2.3%" width="102.5%" height="104.5%" filterUnits="objectBoundingBox" id="filter-2">
            <feOffset dx="0" dy="0" in="SourceAlpha" result="shadowOffsetOuter1"></feOffset>
            <feGaussianBlur stdDeviation="5" in="shadowOffsetOuter1" result="shadowBlurOuter1"></feGaussianBlur>
            <feColorMatrix values="0 0 0 0 0   0 0 0 0 0   0 0 0 0 0  0 0 0 0.2 0" type="matrix" in="shadowBlurOuter1"></feColorMatrix>
        </filter>
    </defs>
    <g id="Page-1" stroke="none" stroke-width="1" fill="none" fill-rule="evenodd">
        <g id="상안검성형" transform="translate(-360.000000, -1523.000000)">
            <g id="Group-5" transform="translate(370.000000, 1533.000000)">
                <g id="Rectangle-9">
                    <use fill="black" fill-opacity="1" filter="url(#filter-2)" xlink:href="#path-1"></use>
                    <use fill="#FFFFFF" fill-rule="evenodd" xlink:href="#path-1"></use>
                </g>
                <rect id="Rectangle-16" fill="#8D7047" opacity="0.200000003" x="0" y="182" width="1180" height="1"></rect>
                <rect id="Rectangle-16-Copy-10" fill="#8D7047" opacity="0.200000003" x="0" y="167" width="1180" height="5"></rect>
                <rect id="Rectangle-16-Copy-8" fill="#8D7047" opacity="0.200000003" x="0" y="50" width="1180" height="1"></rect>
                <rect id="Rectangle-16-Copy-9" fill="#8D7047" opacity="0.200000003" x="0" y="61" width="1180" height="5"></rect>
                <text id="상안검이-필요한-경우" font-family="NotoSansCJKkr-Bold, Noto Sans CJK KR" font-size="35" font-weight="bold" fill="#8D7047">
                    <tspan x="457.9" y="127">상안검</tspan>
                    <tspan x="554.5" y="127" font-family="NotoSansCJKkr-Thin, Noto Sans CJK KR" font-style="condensed" font-weight="300">이 필요한 경우</tspan>
                </text>
                <rect id="Rectangle-4" stroke="#E9E9E9" fill="#FFFFFF" x="100.5" y="233.5" width="979" height="59"></rect>
                <rect id="Rectangle-4-Copy-4" stroke="#E9E9E9" fill="#FFFFFF" x="100.5" y="393.5" width="979" height="59"></rect>
                <rect id="Rectangle-4-Copy-10" stroke="#E9E9E9" fill="#FFFFFF" x="100.5" y="553.5" width="979" height="59"></rect>
                <rect id="Rectangle-4-Copy" stroke="#E9E9E9" fill="#F8F8F8" x="100.5" y="313.5" width="979" height="59"></rect>
                <rect id="Rectangle-4-Copy-5" stroke="#E9E9E9" fill="#F8F8F8" x="100.5" y="473.5" width="979" height="59"></rect>
                <text id="눈꺼풀이-처쳐-쌍커풀이-가려진-경우" font-family="NotoSansCJKkr-Bold, Noto Sans CJK KR" font-size="22" font-weight="bold" fill="#555555">
                    <tspan x="225" y="273">눈꺼풀이 처쳐 쌍커풀이 가려진 경우</tspan>
                </text>
                <text id="속눈썹이-안구를-찌르는-경우" font-family="NotoSansCJKkr-Bold, Noto Sans CJK KR" font-size="22" font-weight="bold" fill="#555555">
                    <tspan x="225" y="433">속눈썹이 안구를 찌르는 경우</tspan>
                </text>
                <text id="눈꼬리-부위가-덮여-짓무르거나-염증이" font-family="NotoSansCJKkr-Bold, Noto Sans CJK KR" font-size="22" font-weight="bold" fill="#555555">
                    <tspan x="225" y="593">눈꼬리 부위가 덮여 짓무르거나 염증이 생기는 경우</tspan>
                </text>
                <text id="눈꺼풀이-늘어져-시야가-가려지는-경우" font-family="NotoSansCJKkr-Bold, Noto Sans CJK KR" font-size="22" font-weight="bold" fill="#555555">
                    <tspan x="225" y="353">눈꺼풀이 늘어져 시야가 가려지는 경우</tspan>
                </text>
                <text id="이마를-이용해-눈을-떠-이마-주름이" font-family="NotoSansCJKkr-Bold, Noto Sans CJK KR" font-size="22" font-weight="bold" fill="#555555">
                    <tspan x="225" y="513">이마를 이용해 눈을 떠 이마 주름이 깊어진 경우</tspan>
                </text>
                <rect id="Rectangle-4" fill="#AE8B59" x="100" y="233" width="95" height="60"></rect>
                <rect id="Rectangle-4-Copy-6" fill="#AE8B59" x="100" y="393" width="95" height="60"></rect>
                <rect id="Rectangle-4-Copy-11" fill="#AE8B59" x="100" y="553" width="95" height="60"></rect>
                <rect id="Rectangle-4-Copy-2" fill="#8D7047" x="100" y="313" width="95" height="60"></rect>
                <rect id="Rectangle-4-Copy-7" fill="#8D7047" x="100" y="473" width="95" height="60"></rect>
                <rect id="Rectangle-4" stroke="#FFFFFF" opacity="0.5" x="105.5" y="238.5" width="84" height="49"></rect>
                <rect id="Rectangle-4-Copy-8" stroke="#FFFFFF" opacity="0.5" x="105.5" y="398.5" width="84" height="49"></rect>
                <rect id="Rectangle-4-Copy-12" stroke="#FFFFFF" opacity="0.5" x="105.5" y="558.5" width="84" height="49"></rect>
                <rect id="Rectangle-4-Copy-3" stroke="#FFFFFF" opacity="0.5" x="105.5" y="318.5" width="84" height="49"></rect>
                <rect id="Rectangle-4-Copy-9" stroke="#FFFFFF" opacity="0.5" x="105.5" y="478.5" width="84" height="49"></rect>
                <text id="01." font-family="Montserrat-Bold, Montserrat" font-size="22" font-weight="bold" fill="#FFFFFF">
                    <tspan x="133.128" y="268">01.</tspan>
                </text>
                <text id="03." font-family="Montserrat-Bold, Montserrat" font-size="22" font-weight="bold" fill="#FFFFFF">
                    <tspan x="130.939" y="428">03.</tspan>
                </text>
                <text id="05." font-family="Montserrat-Bold, Montserrat" font-size="22" font-weight="bold" fill="#FFFFFF">
                    <tspan x="130.697" y="588">05.</tspan>
                </text>
                <text id="02." font-family="Montserrat-Bold, Montserrat" font-size="22" font-weight="bold" fill="#FFFFFF">
                    <tspan x="130.917" y="348">02.</tspan>
                </text>
                <text id="04." font-family="Montserrat-Bold, Montserrat" font-size="22" font-weight="bold" fill="#FFFFFF">
                    <tspan x="130.895" y="508">04.</tspan>
                </text>
            </g>
        </g>
    </g>
</svg>