<?xml version="1.0" encoding="UTF-8"?>
<svg width="320px" height="1942px" viewBox="0 0 320 1942" version="1.1" xmlns="http://www.w3.org/2000/svg" xmlns:xlink="http://www.w3.org/1999/xlink">
    <!-- Generator: Sketch 52.5 (67469) - http://www.bohemiancoding.com/sketch -->
    <title>수술전후 유의사항 2</title>
    <desc>Created with Sketch.</desc>
    <defs>
        <rect id="path-1" x="0" y="6" width="331" height="1928"></rect>
        <path d="M254,6.43762602 L257.214565,6.43762602 C257.214565,6.43762602 257.648966,2.7819297 260.863531,2.7819297 C264.078097,2.7819297 265.207539,4.95793941 266.2501,6.43762602 C267.292662,7.91731263 296.22375,54.3968801 296.22375,54.3968801 C296.22375,54.3968801 298.830155,59.5322631 294.486147,62.2305151 C294.486147,62.2305151 289.186459,66.3214134 285.363732,61.1860305 L263.035535,25.23835 C263.035535,25.23835 260.950412,25.4124307 260.516011,27.1532385 L282.409807,62.8397978 C282.409807,62.8397978 286.840695,70.6734328 295.96311,64.8417268 C295.96311,64.8417268 302.30536,61.3601112 299.090795,53.4394359 L268.422104,4.00049514 C268.422104,4.00049514 264.251857,-2.35345323 257.648966,0.954081538 C257.648966,0.954081538 254.868801,2.43376814 254,6.43762602" id="path-2"></path>
        <filter x="-26.1%" y="-17.9%" width="152.2%" height="135.8%" filterUnits="objectBoundingBox" id="filter-3">
            <feOffset dx="0" dy="0" in="SourceAlpha" result="shadowOffsetOuter1"></feOffset>
            <feGaussianBlur stdDeviation="4" in="shadowOffsetOuter1" result="shadowBlurOuter1"></feGaussianBlur>
            <feColorMatrix values="0 0 0 0 0   0 0 0 0 0   0 0 0 0 0  0 0 0 0.1 0" type="matrix" in="shadowBlurOuter1"></feColorMatrix>
        </filter>
        <path d="M14.2911667,12.2485 C13.6711667,12.2485 13.1645,11.7501667 13.1645,11.1218333 L13.1645,4.46016667 C13.1645,3.84016667 13.6711667,3.3335 14.2911667,3.3335 C14.9211667,3.3335 15.4278333,3.84016667 15.4278333,4.46016667 L15.4278333,11.1218333 C15.4278333,11.7501667 14.9211667,12.2485 14.2911667,12.2485 Z M30.6283333,33.6116667 C31.2483333,33.6116667 31.755,34.1183333 31.755,34.74 C31.755,35.3683333 31.2483333,35.8666667 30.6283333,35.8666667 L6.12833333,35.8666667 C5.50833333,35.8666667 5,35.3683333 5,34.74 C5,34.1183333 5.50833333,33.6116667 6.12833333,33.6116667 L30.6283333,33.6116667 Z M18.4391667,12.2485 C19.0641667,12.2485 19.5708333,11.7501667 19.5708333,11.1218333 L19.5708333,4.46016667 C19.5708333,3.84016667 19.0641667,3.3335 18.4391667,3.3335 C17.8141667,3.3335 17.3075,3.84016667 17.3075,4.46016667 L17.3075,11.1218333 C17.3075,11.7501667 17.8141667,12.2485 18.4391667,12.2485 M22.5821667,12.2485 C23.2071667,12.2485 23.7138333,11.7501667 23.7138333,11.1218333 L23.7138333,4.46016667 C23.7138333,3.84016667 23.2071667,3.3335 22.5821667,3.3335 C21.9571667,3.3335 21.4505,3.84016667 21.4505,4.46016667 L21.4505,11.1218333 C21.4505,11.7501667 21.9571667,12.2485 22.5821667,12.2485 M29.7965,23.4968333 C29.8665,23.1668333 29.9215,22.8318333 29.9515,22.4885 C29.9798333,22.3851667 29.9948333,22.2818333 29.9948333,22.1785 L29.9948333,17.1451667 C31.2448333,17.6451667 32.1315,18.8635 32.1315,20.2901667 C32.1315,21.7901667 31.1481667,23.0501667 29.7965,23.4968333 M18.1248333,29.2151667 C12.9665,29.2151667 8.75816667,26.0968333 8.53816667,22.1118333 C8.53316667,22.0568333 8.52316667,22.0001667 8.51316667,21.9535 L8.51316667,16.7768333 L27.7348333,16.7768333 L27.7348333,21.9435 C27.7265,22.0001667 27.7165,22.0568333 27.7115,22.1118333 C27.4898333,26.0968333 23.2815,29.2151667 18.1248333,29.2151667 M29.4798333,14.7185 C29.2998333,14.5985 29.0965,14.5118333 28.8615,14.5118333 L7.3865,14.5118333 C6.7615,14.5118333 6.25483333,15.0201667 6.25483333,15.6401667 L6.25483333,22.1785 C6.25483333,22.2818333 6.26816667,22.3751667 6.2965,22.4801667 C6.72483333,27.5435 11.8681667,31.4701667 18.1248333,31.4701667 C22.8581667,31.4701667 26.9481667,29.2201667 28.8481667,25.9351667 C31.9148333,25.8768333 34.3965,23.3718333 34.3965,20.2901667 C34.3965,17.4235 32.2465,15.0835 29.4798333,14.7185" id="path-4"></path>
        <path d="M34.5023909,9.56766057 L32.7370116,9.56766057 C32.1343795,9.56766057 31.6463584,10.050885 31.6463584,10.6475939 L31.6463584,12.3956217 L30.3874858,12.3956217 L30.3874858,10.6475939 C30.3874858,10.050885 29.8994647,9.56766057 29.2968326,9.56766057 L27.5314533,9.56766057 L27.5314533,8.3211612 L29.2968326,8.3211612 C29.8994647,8.3211612 30.3874858,7.83793678 30.3874858,7.24122783 L30.3874858,5.49320008 L31.6463584,5.49320008 L31.6463584,7.24122783 C31.6463584,7.83793678 32.1343795,8.3211612 32.7370116,8.3211612 L34.5023909,8.3211612 L34.5023909,9.56766057 Z M35.5930441,6.16129446 L33.8276648,6.16129446 L33.8276648,4.4150971 C33.8276648,3.81838815 33.3396437,3.33333333 32.7370116,3.33333333 L29.2968326,3.33333333 C28.6942005,3.33333333 28.2061794,3.81838815 28.2061794,4.4150971 L28.2061794,6.16129446 L26.4426486,6.16129446 C25.838168,6.16129446 25.3501469,6.64451888 25.3501469,7.24122783 L25.3501469,10.6475939 C25.3501469,11.2443029 25.838168,11.7275273 26.4426486,11.7275273 L28.2061794,11.7275273 L28.2061794,13.4755551 C28.2061794,14.072264 28.6942005,14.5554884 29.2968326,14.5554884 L29.893919,14.5554884 L29.893919,32.5995278 C29.6258771,33.9997804 28.2967591,34.1663463 28.0934169,34.1828199 C25.8455622,34.1828199 25.5516404,32.6873867 25.5239119,32.498856 L25.5239119,25.8801457 C25.5239119,25.7867955 25.510972,25.6952757 25.4869406,25.6055864 C24.7530604,22.8178939 22.0689444,22.1168525 20.7010065,22.1662731 C17.8911881,22.3017224 16.6785296,24.6848974 16.430822,25.927736 C16.4160334,25.9954606 16.4086392,26.066846 16.4086392,26.1364011 L16.4197306,32.9271686 C16.2071456,34.4354145 14.8835733,34.5251039 14.434372,34.5049695 C12.3639795,34.5049695 12.0903919,33.1596288 12.0589663,32.8210056 L12.0589663,21.3901854 C15.9243152,20.976516 17.5843264,17.5262204 17.9392508,15.5493932 L18.5917941,6.98497245 C18.5917941,4.55237677 17.8523682,3.75066352 17.4124098,3.48891695 C17.2423419,3.3882452 17.0500911,3.33333333 16.8504461,3.33333333 L14.1256617,3.33333333 C13.521181,3.33333333 13.0350085,3.81838815 13.0350085,4.4150971 C13.0350085,5.00997566 13.521181,5.49320008 14.1256617,5.49320008 L16.2441169,5.49320008 C16.3236052,5.74762506 16.4104877,6.18691999 16.4123363,6.90260465 L15.7782786,15.2766643 C15.746853,15.4395695 15.0092757,19.2724178 11.278872,19.2724178 L10.6577542,19.2724178 C6.96247332,19.2724178 6.19162182,15.4359087 6.17313617,15.386488 L5.52798707,6.98497245 C5.52798707,6.21620632 5.61671818,5.75494664 5.69620647,5.49320008 L7.8128131,5.49320008 C8.41544521,5.49320008 8.9034663,5.00997566 8.9034663,4.4150971 C8.9034663,3.81838815 8.41544521,3.33333333 7.8128131,3.33333333 L5.0861801,3.33333333 C4.88838367,3.33333333 4.69428437,3.3882452 4.52606498,3.48891695 C4.08610657,3.75066352 3.34668067,4.55237677 3.3503778,7.06550986 L4.01401255,15.659217 C4.35414846,17.5353724 6.01231104,20.9783464 9.87950849,21.3901854 L9.88135705,32.8795783 C9.95345108,34.1883111 10.9978902,36.6630059 14.3770665,36.6630059 L14.3807636,36.6630059 C14.434372,36.6648363 14.489829,36.6666667 14.5471345,36.6666667 C15.861464,36.6666667 18.1906556,35.9583036 18.5917941,33.077261 L18.5917941,26.2590376 C18.6897681,25.8764849 19.1777892,24.4011861 20.7786462,24.3243095 C20.8655288,24.3243095 22.7991275,24.3041751 23.3426055,26.0302381 L23.3463027,32.595867 C23.4627623,33.891787 24.6051753,36.3408563 28.1470253,36.3408563 L28.1488739,36.3408563 C29.3208639,36.2804532 31.6445098,35.4769096 32.0622855,32.8612743 C32.0715283,32.8045321 32.0752254,32.7496202 32.0752254,32.6910475 L32.0752254,14.5554884 L32.7370116,14.5554884 C33.3396437,14.5554884 33.8276648,14.072264 33.8276648,13.4755551 L33.8276648,11.7275273 L35.5930441,11.7275273 C36.1956762,11.7275273 36.6836973,11.2443029 36.6836973,10.6475939 L36.6836973,7.24122783 C36.6836973,6.64451888 36.1956762,6.16129446 35.5930441,6.16129446 Z" id="path-6"></path>
        <path d="M31.2887637,19.7849358 L29.2910689,17.787241 C28.9508118,17.4417223 28.4421801,17.3417498 27.9966889,17.5311713 C27.5529516,17.7083154 27.2600499,18.1432832 27.2600499,18.6273603 L27.2600499,31.9149246 L12.9148824,31.9149246 L12.9148824,19.3482141 C12.9148824,18.8746605 12.6237347,18.4396927 12.1782434,18.2520252 C11.7345061,18.0731271 11.2258745,18.1730995 10.8838635,18.5186183 L9.4807416,19.9234941 L6.19217466,16.6314194 L13.5533029,9.038776 L15.3528067,9.038776 C16.0052584,10.5716867 17.6311259,12.4781786 20.7899041,12.4781786 L20.8004275,12.4781786 C20.9775716,12.4588856 24.7747703,12.1712456 26.1726305,9.17733429 L27.1758626,9.17733429 L34.0283592,17.0453403 L31.2887637,19.7849358 Z M36.5487169,16.3244864 L28.6210782,7.19893242 C28.3930709,6.94110877 28.066845,6.79378097 27.7195723,6.79378097 L25.3412807,6.79378097 C24.8028327,6.79378097 24.3292791,7.16034657 24.1907208,7.68476337 C23.6259642,9.83855548 20.6811621,10.0963791 20.7162402,10.0963791 C17.9924298,10.0963791 17.4399506,7.87067703 17.3890874,7.62337679 C17.2803454,7.07089755 16.7910067,6.6675 16.2227423,6.6675 L13.0499329,6.6675 C12.7219532,6.6675 12.4167742,6.79378097 12.1940286,7.02178828 L3.66655525,15.8193626 C3.21755624,16.2736233 3.22281795,17.0260474 3.68234037,17.482062 L8.64062237,22.4438518 C9.1054065,22.9086359 9.85607671,22.9086359 10.3208608,22.4438518 L10.5383447,22.2263679 L10.5383447,33.1005626 C10.5383447,33.7635377 11.0715311,34.296724 11.7239827,34.296724 L28.4509496,34.296724 C29.1034013,34.296724 29.6383415,33.7635377 29.6383415,33.1005626 L29.6383415,21.5037601 L30.4486444,22.3052935 C30.9134286,22.7788472 31.6640988,22.7788472 32.1288829,22.3052935 L36.4943459,17.9450922 C36.9345754,17.5101245 36.9626378,16.799794 36.5487169,16.3244864 Z" id="path-8"></path>
        <path d="M19.9975,10.625 C19.3941667,10.625 18.9041667,10.135 18.9041667,9.53166667 C18.9041667,8.92666667 19.3941667,8.43833333 19.9975,8.43833333 C20.6008333,8.43833333 21.0908333,8.92666667 21.0908333,9.53166667 C21.0908333,10.135 20.6008333,10.625 19.9975,10.625 Z M31.6088333,30.9896667 C32.0688333,30.9896667 32.4421667,31.363 32.4421667,31.823 C32.4421667,32.283 32.0688333,32.6563333 31.6088333,32.6563333 L30.5405,32.6563333 L30.5405,33.7246667 C30.5405,34.1846667 30.1688333,34.558 29.7071667,34.558 C29.2471667,34.558 28.8738333,34.1846667 28.8738333,33.7246667 L28.8738333,32.6563333 L27.8071667,32.6563333 C27.3455,32.6563333 26.9738333,32.283 26.9738333,31.823 C26.9738333,31.363 27.3455,30.9896667 27.8071667,30.9896667 L28.8738333,30.9896667 L28.8738333,29.9213333 C28.8738333,29.4613333 29.2471667,29.088 29.7071667,29.088 C30.1688333,29.088 30.5405,29.4613333 30.5405,29.9213333 L30.5405,30.9896667 L31.6088333,30.9896667 Z M35.0463333,36.6666667 L24.1096667,36.6666667 L24.1096667,28.9583333 C24.1096667,28.8966667 24.103,28.8366667 24.0896667,28.7783333 L23.7246667,27.1333333 L24.9346667,28.0166667 C25.0813333,28.125 25.2546667,28.1766667 25.4246667,28.1766667 C25.6713333,28.1766667 25.9146667,28.0683333 26.078,27.8616667 L27.8663333,25.6116667 C29.098,26.0683333 30.5713333,26.6316667 32.0213333,27.2283333 C34.9646667,28.44 35.0446667,30.6716667 35.0463333,30.7583333 L35.0463333,36.6666667 Z M4.99966667,30.7583333 C4.99966667,30.735 5.03466667,28.46 8.02633333,27.2283333 C9.46133333,26.6366667 10.9213333,26.0783333 12.1463333,25.625 L13.9263333,27.8616667 C14.0896667,28.0683333 14.333,28.1766667 14.578,28.1766667 C14.748,28.1766667 14.9213333,28.125 15.0696667,28.0166667 L16.3313333,27.0966667 L15.9563333,28.7783333 C15.9446667,28.8366667 15.938,28.8966667 15.938,28.9583333 L15.938,36.6666667 L4.99966667,36.6666667 L4.99966667,30.7583333 Z M18.8096667,22.5666667 C18.948,22.6583333 19.1096667,22.7083333 19.2763333,22.7083333 L20.6813333,22.7083333 C20.848,22.7083333 21.0113333,22.6583333 21.1496667,22.565 L23.5363333,20.9466667 L23.5363333,23.515 C23.5363333,23.5666667 23.5546667,23.61 23.5646667,23.6566667 L22.048,24.475 C21.728,24.6466667 21.568,25.005 21.6313333,25.3583333 L21.6063333,25.3566667 C21.5246667,25.4883333 20.9463333,25.8083333 19.998,25.8083333 C19.0496667,25.8083333 18.4696667,25.49 18.408,25.4433333 L18.4063333,25.4433333 L18.418,25.3883333 C18.498,25.025 18.328,24.6516667 17.998,24.475 L16.0896667,23.4466667 L16.0896667,20.7316667 L18.8096667,22.5666667 Z M20.0196667,5 C22.3213333,5 24.298,6.215 25.293,7.96833333 L23.4546667,7.96833333 C22.8563333,6.65166667 21.5363333,5.73 19.998,5.73 C18.4596667,5.73 17.138,6.65166667 16.5396667,7.96833333 L14.748,7.96833333 C15.7413333,6.215 17.7196667,5 20.0196667,5 Z M24.0963333,10.2083333 L25.6713333,10.2083333 L25.6713333,9.635 L24.0963333,9.635 L24.0963333,10.2083333 Z M19.998,7.39666667 C21.1746667,7.39666667 22.133,8.35333333 22.133,9.53166667 C22.133,10.7083333 21.1746667,11.6666667 19.998,11.6666667 C18.8196667,11.6666667 17.8613333,10.7083333 17.8613333,9.53166667 C17.8613333,8.35333333 18.8196667,7.39666667 19.998,7.39666667 Z M15.438,18.285 L14.238,11.875 L17.0263333,11.875 C17.723,12.7566667 18.7896667,13.3333333 19.998,13.3333333 C21.2296667,13.3333333 22.3146667,12.735 23.0096667,11.825 C23.0913333,11.85 23.173,11.875 23.263,11.875 L25.793,11.875 L24.2963333,18.4183333 L20.4263333,21.0416667 L19.5296667,21.0416667 L15.438,18.285 Z M14.3163333,10.2083333 L16.1946667,10.2083333 L16.1946667,9.635 L14.3163333,9.635 L14.3163333,10.2083333 Z M17.6046667,29.05 L18.0396667,27.0933333 C18.5746667,27.3333333 19.2413333,27.475 19.998,27.475 C20.7763333,27.475 21.4596667,27.3233333 22.0013333,27.07 L22.443,29.05 L22.443,36.6666667 L17.6046667,36.6666667 L17.6046667,29.05 Z M14.823,24.6566667 L15.9863333,25.2833333 L14.733,26.2 L13.7946667,25.0216667 C14.2313333,24.865 14.5863333,24.74 14.823,24.6566667 Z M26.218,25.01 L25.2713333,26.2 L24.0346667,25.2966667 L25.223,24.6566667 C25.453,24.7383333 25.7996667,24.86 26.218,25.01 Z M32.6546667,25.6883333 C29.1313333,24.2366667 25.458,22.975 25.4213333,22.9616667 C25.3496667,22.9366667 25.2763333,22.9383333 25.203,22.935 L25.203,19.87 C25.203,19.8533333 25.1946667,19.84 25.193,19.825 L25.503,19.615 C25.6763333,19.495 25.8013333,19.315 25.8463333,19.11 L26.163,17.7283333 C26.9646667,17.5416667 27.728,16.8333333 28.1046667,15.765 C28.578,14.41 28.2346667,13.0866667 27.338,12.5816667 L27.4813333,11.955 C27.593,11.4566667 27.6513333,10.9583333 27.6513333,10.47 C27.6513333,6.535 24.228,3.33333333 20.0196667,3.33333333 C16.5746667,3.33333333 13.688,5.495 12.7446667,8.435 C12.7196667,8.48333333 12.708,8.535 12.693,8.58833333 C12.5146667,9.19166667 12.3896667,9.815 12.3896667,10.47 C12.3896667,10.7083333 12.4163333,10.9383333 12.4596667,11.2316667 C12.4496667,11.315 12.4513333,11.4 12.468,11.485 L12.6496667,12.4516667 C12.6396667,12.455 12.6296667,12.4533333 12.6196667,12.4566667 C11.5363333,12.8366667 11.0896667,14.29 11.608,15.7666667 C11.9963333,16.875 12.8046667,17.6016667 13.6413333,17.7466667 L13.8646667,18.935 C13.9046667,19.1533333 14.033,19.3466667 14.218,19.4716667 L14.428,19.6133333 C14.4263333,19.62 14.423,19.6266667 14.423,19.635 L14.423,23.0316667 C13.6163333,23.3133333 10.4513333,24.4283333 7.39133333,25.6883333 C3.37966667,27.34 3.333,30.62 3.333,30.7583333 L3.333,37.5 C3.333,37.96 3.70633333,38.3333333 4.16633333,38.3333333 L16.7713333,38.3333333 L23.2763333,38.3333333 C23.303,38.3333333 23.3246667,38.32 23.3496667,38.3183333 C23.378,38.32 23.4046667,38.3333333 23.4313333,38.3333333 L35.8796667,38.3333333 C36.3396667,38.3333333 36.713,37.96 36.713,37.5 L36.713,30.7583333 C36.713,30.62 36.6663333,27.34 32.6546667,25.6883333 Z" id="path-10"></path>
        <path d="M16.748,26.7496667 C15.4046667,26.7496667 14.1446667,26.228 13.198,25.2796667 L8.66966667,20.7563333 C8.223,20.3146667 8.223,19.5996667 8.663,19.1596667 C9.10133333,18.718 9.81966667,18.718 10.2663333,19.1546667 L14.7946667,23.678 C15.3213333,24.1996667 16.0113333,24.4913333 16.748,24.4913333 C17.4863333,24.4913333 18.1763333,24.1996667 18.698,23.683 L30.5313333,11.9913333 C30.9713333,11.5546667 31.6863333,11.558 32.128,11.9996667 C32.568,12.4463333 32.5596667,13.1646667 32.118,13.603 L20.2896667,25.2846667 C19.3513333,26.228 18.093,26.7496667 16.748,26.7496667" id="path-12"></path>
        <path d="M32.2810184,25.2649028 C32.2810184,26.5619133 31.1115827,27.6268085 29.8128004,27.4372182 L29.8128004,19.382287 C29.8128004,19.0225969 29.7773629,18.6682224 29.6976287,18.3085324 C29.7472411,18.2872699 29.7879942,18.2482887 29.8376066,18.2252544 C30.0998437,18.0976796 30.3355027,17.9346673 30.5800211,17.7751988 C30.7979613,17.6334491 31.0212172,17.5005586 31.2214388,17.3340027 C31.426976,17.1656748 31.6023913,16.9725407 31.7866661,16.7811785 C31.9301877,16.6323412 32.0985156,16.5083102 32.2296341,16.3470698 C32.2597559,16.4852758 32.2810184,16.6305694 32.2810184,16.774091 L32.2810184,25.2649028 Z M27.3410386,31.1528342 C27.3410386,32.7528349 26.2336185,34.0870547 24.7452458,34.4591478 L24.7452458,22.9331189 C24.7452458,22.2544919 24.1906498,21.7034396 23.5067071,21.7034396 C22.8316238,21.7034396 22.2770278,22.2544919 22.2770278,22.9331189 L22.2770278,34.5725477 L20.7036052,34.5725477 L20.7036052,22.9331189 C20.7036052,22.2544919 20.1507811,21.7034396 19.472154,21.7034396 C18.7864394,21.7034396 18.237159,22.2544919 18.237159,22.9331189 L18.237159,34.5725477 L16.6601928,34.5725477 L16.6601928,22.9331189 C16.6601928,22.2544919 16.1109124,21.7034396 15.4305134,21.7034396 C14.7518864,21.7034396 14.1972903,22.2544919 14.1972903,22.9331189 L14.1972903,34.3333449 C12.9197705,33.8372207 12.0108,32.6039976 12.0108,31.1528342 L12.0108,19.382287 C12.0108,19.1767498 12.0196594,18.9783001 12.0604124,18.7780785 C12.1135686,18.7904816 12.1684966,18.7887098 12.2234247,18.799341 C12.5919741,18.8773034 12.9640673,18.9322314 13.3379323,18.9481783 C13.4407009,18.951722 13.5434695,18.9446345 13.6462381,18.9428626 C13.9634032,18.9428626 14.2787965,18.9198283 14.5941897,18.8773034 C14.6898708,18.8631284 14.7837801,18.8560409 14.881233,18.8383222 C15.2639574,18.7674473 15.6395943,18.6629068 16.0081438,18.5282445 C16.0825624,18.5016665 16.156981,18.4697728 16.2313997,18.4396509 C16.6141241,18.285498 16.989761,18.1083108 17.3441354,17.883283 C19.3109136,19.118278 21.7933066,19.3078683 23.9160096,18.328023 C24.367837,18.535332 24.8285238,18.6841693 25.296298,18.7922535 C25.3122449,18.7957972 25.3299636,18.8011129 25.3459105,18.8046566 C25.7906504,18.9038815 26.2477934,18.951722 26.7173396,18.9534939 C26.7439177,18.9534939 26.7704957,18.9623532 26.7970738,18.9623532 C26.8679487,18.9623532 26.9441392,18.951722 27.016786,18.9481783 C27.1106952,18.9446345 27.1992888,18.951722 27.2931981,18.9428626 C27.3144605,19.089928 27.3410386,19.2352216 27.3410386,19.382287 L27.3410386,28.3302418 L27.3410386,31.1528342 Z M13.64801,7.46644616 C14.9857735,7.46644616 15.9656188,8.05647961 16.5503367,8.55614758 C17.0145672,8.94064386 17.6843349,8.94064386 18.1432498,8.55614758 C18.7279677,8.05647961 19.7113568,7.46644616 21.0384891,7.46644616 C21.8234285,7.46644616 22.5817898,7.67021146 23.3011699,8.09723267 C23.6856662,8.31517296 24.1552123,8.31517296 24.5397086,8.09723267 C25.2590887,7.67021146 26.0121344,7.46644616 26.7970738,7.46644616 C29.2900981,7.46644616 31.3171199,9.49523987 31.3171199,11.9811766 C31.3171199,12.5180539 31.2072638,13.0620187 30.9946392,13.6042116 C30.9928673,13.6059835 30.9928673,13.6077553 30.9910954,13.6095272 C30.4683931,14.9774126 29.2989574,15.9962391 27.876144,16.3559292 C27.4668415,16.455154 27.1213265,16.5065383 26.7970738,16.5065383 C26.0121344,16.5065383 25.2590887,16.2921418 24.5397086,15.8668924 L23.9160096,15.512518 L23.3011699,15.8668924 C22.5817898,16.2921418 21.8234285,16.5065383 21.0384891,16.5065383 C19.7113568,16.5065383 18.7279677,15.9111892 18.1432498,15.4168369 L17.3441354,14.7399817 L16.5503367,15.4168369 C15.9656188,15.9111892 14.9857735,16.5065383 13.64801,16.5065383 C13.0296265,16.5065383 12.4218744,16.3665604 11.830069,16.1096389 C11.8282972,16.1096389 11.8282972,16.1078671 11.8265253,16.1060952 C10.1822279,15.3831713 9.12973574,13.7601363 9.12973574,11.9811766 C9.12973574,9.49523987 11.1620732,7.46644616 13.64801,7.46644616 Z M33.5284165,13.6874896 C33.67371,13.1204905 33.7729348,12.5499476 33.7729348,11.9811766 C33.7729348,8.12558263 30.6473522,5 26.7970738,5 C25.7977379,5 24.839155,5.21616841 23.9160096,5.63964588 C21.7933066,4.65625679 19.3109136,4.84230337 17.3441354,6.08970143 C16.2349434,5.37918066 14.9521079,5 13.64801,5 C9.79950345,5 6.66683333,8.12558263 6.66683333,11.9811766 C6.66683333,14.3359948 7.86639084,16.5012227 9.79418783,17.7840582 C9.64003495,18.3085324 9.53903823,18.8400941 9.53903823,19.382287 L9.53903823,31.1528342 C9.53903823,34.4024479 12.1808997,37.0407657 15.4305134,37.0407657 L23.9160096,37.0407657 C27.1673951,37.0407657 29.8128004,34.4024479 29.8128004,31.1528342 L29.8128004,29.8859456 C29.9031659,29.8930331 29.9917595,29.9178393 30.0838968,29.9178393 C32.6495678,29.9178393 34.7368333,27.8305738 34.7368333,25.2649028 L34.7368333,16.774091 C34.7368333,15.6135147 34.297409,14.5326726 33.5284165,13.6874896 Z" id="path-14"></path>
    </defs>
    <g id="Page-1" stroke="none" stroke-width="1" fill="none" fill-rule="evenodd">
        <g id="iPhone-8-Copy-7" transform="translate(0.000000, -5855.000000)">
            <g id="수술전후-유의사항-2" transform="translate(0.000000, 5863.000000)">
                <g id="수술전후-유의사항">
                    <g id="Rectangle-Copy-5">
                        <use fill="#F6F5F6" xlink:href="#path-1"></use>
                        <use fill="#F6F5F4" xlink:href="#path-1"></use>
                    </g>
                    <text id="수술-전,후-유의사항" font-family="NotoSansCJKkr-Thin, Noto Sans CJK KR" font-size="25" font-style="condensed" font-weight="300">
                        <tspan x="103.3625" y="122" fill="#8D7047">수술 전,후</tspan>
                        <tspan x="109" y="159" font-family="NotoSansCJKkr-Bold, Noto Sans CJK KR" font-weight="bold" fill="#6C573A">유의사항</tspan>
                        <tspan x="201" y="159" font-family="NotoSansCJKkr-DemiLight, Noto Sans CJK KR" fill="#6C573A"></tspan>
                    </text>
                    <polygon id="Rectangle-3" fill="#8D7047" opacity="0.200000003" points="15 86 305 86 305 87 15 87"></polygon>
                    <polygon id="Rectangle-3" fill="#8D7047" opacity="0.200000003" points="15 176 305 176 305 177 15 177"></polygon>
                    <g id="Fill-1">
                        <use fill="black" fill-opacity="1" filter="url(#filter-3)" xlink:href="#path-2"></use>
                        <use fill="#D1973A" fill-rule="evenodd" xlink:href="#path-2"></use>
                    </g>
                    <g id="Group-16" transform="translate(80.000000, 207.000000)"></g>
                    <g id="before" transform="translate(15.000000, 207.000000)">
                        <rect id="Rectangle-19" fill="#FFFFFF" x="0" y="25" width="290" height="702"></rect>
                        <text id="수술-당일에는-최대한-탈의가-편한-복" font-family="NotoSansCJKkr-Medium, Noto Sans CJK KR" font-size="16" font-weight="400" fill="#39322D">
                            <tspan x="37" y="605">수술 당일에는 최대한 탈의가 편한</tspan>
                            <tspan x="37" y="629">복장 착용 후 신발을 신고 내원하시기</tspan>
                            <tspan x="37" y="653">바랍니다.</tspan>
                        </text>
                        <text id="고혈압,-당뇨,-결핵-간염-등-현재" font-family="NotoSansCJKkr-Medium, Noto Sans CJK KR" font-size="16" font-weight="400" fill="#39322D">
                            <tspan x="37" y="453">고혈압, 당뇨, 결핵 간염 등 현재</tspan>
                            <tspan x="37" y="477">치료중이거나 과거에 앓았던 모든</tspan>
                            <tspan x="37" y="501">질병을 미리 말씀해주시기 바랍니다.</tspan>
                        </text>
                        <text id="수술-4시간-전부터-금식하셔야-합니다" font-family="NotoSansCJKkr-Medium, Noto Sans CJK KR" font-size="16" font-weight="400" fill="#39322D">
                            <tspan x="37" y="152">수술 4시간 전부터 금식하셔야</tspan>
                            <tspan x="37" y="176">합니다. (식사, 물, 껌, 사탕 불가)</tspan>
                        </text>
                        <text id="*수술에-따라-다를-수-있습니다." font-family="NotoSansCJKkr-Medium, Noto Sans CJK KR" font-size="16" font-weight="400" fill="#CB6161">
                            <tspan x="37" y="205">*수술에 따라 다를 수 있습니다. </tspan>
                        </text>
                        <text id="수술-전-음식-섭취" font-family="NotoSansCJKkr-DemiLight, Noto Sans CJK KR" font-size="18" font-weight="300" fill="#604B2E">
                            <tspan x="60" y="111">수술 전</tspan>
                            <tspan x="113.694" y="111" font-family="NotoSansCJKkr-Bold, Noto Sans CJK KR" font-weight="bold"> 음식 섭취</tspan>
                        </text>
                        <g id="-round/ver1/eat" transform="translate(15.000000, 83.000000)">
                            <mask id="mask-5" fill="white">
                                <use xlink:href="#path-4"></use>
                            </mask>
                            <use id="Fill-3" fill="#231916" fill-rule="evenodd" xlink:href="#path-4"></use>
                            <g id="swatch/brown" mask="url(#mask-5)" fill="#8D7047" fill-rule="evenodd">
                                <rect id="Rectangle" x="0" y="0" width="42" height="40"></rect>
                            </g>
                        </g>
                        <rect id="Rectangle-16" fill="#D8D8D8" x="0" y="24" width="290" height="1"></rect>
                        <rect id="Rectangle" stroke="#8D7047" fill="#F7F7F7" fill-rule="nonzero" x="65.5" y="0.5" width="159" height="47"></rect>
                        <text id="BEFORE" font-family="Montserrat-Bold, Montserrat" font-size="20" font-weight="bold" fill="#8D7047">
                            <tspan x="102" y="31">BEFORE</tspan>
                        </text>
                        <text id="수술-최소-3일전부터-술과-담배를-금" font-family="NotoSansCJKkr-Medium, Noto Sans CJK KR" font-size="16" font-weight="400" fill="#39322D">
                            <tspan x="37" y="242">수술 최소 3일전부터 술과 담배를</tspan>
                            <tspan x="37" y="266">금합니다.</tspan>
                        </text>
                        <text id="수술-1주전부터-아스피린,-비타민E," font-family="NotoSansCJKkr-Medium, Noto Sans CJK KR" font-size="16" font-weight="400" fill="#39322D">
                            <tspan x="37" y="301">수술 1주전부터 아스피린, 비타민E,</tspan>
                            <tspan x="37" y="325">호로몬제, 피임약, 오메가3등의 약물</tspan>
                            <tspan x="37" y="349">복용을 중지하시기 바랍니다.</tspan>
                        </text>
                        <circle id="Oval" fill="#8D7047" cx="27" cy="147" r="2"></circle>
                        <circle id="Oval" fill="#8D7047" cx="27" cy="237" r="2"></circle>
                        <circle id="Oval" fill="#8D7047" cx="27" cy="296" r="2"></circle>
                        <circle id="Oval-Copy-2" fill="#8D7047" cx="27" cy="448" r="2"></circle>
                        <circle id="Oval-Copy-3" fill="#8D7047" cx="27" cy="600" r="2"></circle>
                        <text id="수술-전-건강-상태" font-family="NotoSansCJKkr-DemiLight, Noto Sans CJK KR" font-size="18" font-weight="300" fill="#604B2E">
                            <tspan x="61" y="412">수술 전</tspan>
                            <tspan x="114.694" y="412" font-family="NotoSansCJKkr-Bold, Noto Sans CJK KR" font-weight="bold"> 건강 상태</tspan>
                        </text>
                        <g id="-round/ver1/doctor" transform="translate(16.000000, 384.000000)">
                            <mask id="mask-7" fill="white">
                                <use xlink:href="#path-6"></use>
                            </mask>
                            <use id="Mask" fill="#613627" fill-rule="evenodd" xlink:href="#path-6"></use>
                            <g id="swatch/brown" mask="url(#mask-7)" fill="#8D7047" fill-rule="evenodd">
                                <rect id="Rectangle" x="0" y="0" width="42" height="40"></rect>
                            </g>
                        </g>
                        <text id="수술-당일" font-family="NotoSansCJKkr-Bold, Noto Sans CJK KR" font-size="18" font-weight="bold" fill="#604B2E">
                            <tspan x="66" y="564">수술 당일</tspan>
                        </text>
                        <g id="-round/ver1/clothes" transform="translate(21.000000, 536.000000)">
                            <mask id="mask-9" fill="white">
                                <use xlink:href="#path-8"></use>
                            </mask>
                            <use id="Fill-1" fill="#231916" fill-rule="evenodd" xlink:href="#path-8"></use>
                            <g id="swatch/brown" mask="url(#mask-9)" fill="#8D7047" fill-rule="evenodd">
                                <rect id="Rectangle" x="0" y="0" width="42" height="40"></rect>
                            </g>
                        </g>
                    </g>
                    <g id="after" transform="translate(15.000000, 910.000000)">
                        <rect id="Rectangle-19-Copy" fill="#FFFFFF" x="0" y="24" width="290" height="969"></rect>
                        <text id="음주와-흡연은-상처를-더디게-아물게" font-family="NotoSansCJKkr-Medium, Noto Sans CJK KR" font-size="18" font-weight="400" fill="#555555">
                            <tspan x="37" y="872">음주와 흡연은 상처를 더디게</tspan>
                            <tspan x="37" y="899">아물게 하므로 삼가고 불가피한</tspan>
                            <tspan x="37" y="926">경우에는 4주 후 부터</tspan>
                            <tspan x="37" y="953">가능합니다.</tspan>
                        </text>
                        <text id="수술-후-약-3~5일은-냉-찜질,-그" font-family="NotoSansCJKkr-Medium, Noto Sans CJK KR" font-size="16" font-weight="400" fill="#555555">
                            <tspan x="37" y="368">수술 후 약 3~5일은 냉 찜질,</tspan>
                            <tspan x="37" y="392">그 이후에는 온 찜질이 붓기</tspan>
                            <tspan x="37" y="416">완화에 도움이 됩니다.</tspan>
                        </text>
                        <text id="렌즈-착용은-3주-정도-끼지-않는-것" font-family="NotoSansCJKkr-Medium, Noto Sans CJK KR" font-size="16" font-weight="400" fill="#555555">
                            <tspan x="37" y="532">렌즈 착용은 3주 정도 끼지 않는</tspan>
                            <tspan x="37" y="556">것이 좋으며, 이 기간동안은</tspan>
                            <tspan x="37" y="580">안경이나 선글라스를 착용하는</tspan>
                            <tspan x="37" y="604">것이 좋습니다.</tspan>
                        </text>
                        <text id="수술-후-결막이-충혈되거나-눈꼽이-끼" font-family="NotoSansCJKkr-Medium, Noto Sans CJK KR" font-size="16" font-weight="400" fill="#555555">
                            <tspan x="37" y="696">수술 후 결막이 충혈되거나 눈꼽이</tspan>
                            <tspan x="37" y="720">끼거나 시력이 일시적으로</tspan>
                            <tspan x="37" y="744">저하되는 것처럼 느껴질 수 있으나 </tspan>
                            <tspan x="37" y="768">이는 곧 정상 회복 됩니다.</tspan>
                            <tspan x="37" y="792"></tspan>
                        </text>
                        <text id="세안-및-화장은-실밥-제거하고-난-이" font-family="NotoSansCJKkr-Medium, Noto Sans CJK KR" font-size="16" font-weight="400" fill="#555555">
                            <tspan x="37" y="638">세안 및 화장은 실밥 제거하고 난</tspan>
                            <tspan x="37" y="662">이후에 하시는 것이 좋습니다.</tspan>
                        </text>
                        <text id="눈물을-많이-흘리며-울거나,-눈꺼풀을" font-family="NotoSansCJKkr-Medium, Noto Sans CJK KR" font-size="16" font-weight="400" fill="#555555">
                            <tspan x="37" y="450">눈물을 많이 흘리며 울거나,</tspan>
                            <tspan x="37" y="474">눈꺼풀을 세게 비비거나, 눈을</tspan>
                            <tspan x="37" y="498">꽉 감는 행위는 금합니다.</tspan>
                        </text>
                        <text id="수술-직후-얼음찜질과-붓기-주사-바이" font-family="NotoSansCJKkr-Medium, Noto Sans CJK KR" font-size="16" font-weight="400" line-spacing="27" fill="#555555">
                            <tspan x="37" y="152">수술 직후 얼음찜질과 붓기 주사</tspan>
                            <tspan x="37" y="179">바이오트론이라는 편광파장의 빛을</tspan>
                            <tspan x="37" y="206">조사하여 혈액순환을 증가시켜</tspan>
                            <tspan x="37" y="233">붓기케어와 통증관리를 함께</tspan>
                            <tspan x="37" y="260">시행합니다.</tspan>
                        </text>
                        <rect id="Rectangle-16-Copy-7" fill="#D8D8D8" x="0" y="24" width="290" height="1"></rect>
                        <rect id="Rectangle-16-Copy" fill="#D8D8D8" x="0" y="993" width="290" height="1"></rect>
                        <rect id="Rectangle" fill="#8D7047" fill-rule="nonzero" x="65" y="0" width="160" height="48"></rect>
                        <text id="AFTER" font-family="Montserrat-Bold, Montserrat" font-size="20" font-weight="bold" fill="#FFFFFF">
                            <tspan x="111.57" y="31">AFTER</tspan>
                        </text>
                        <text id="부기완화와-통증-케어" font-family="NotoSansCJKkr-Bold, Noto Sans CJK KR" font-size="18" font-weight="bold" fill="#604B2E">
                            <tspan x="66" y="111">부기완화와 통증 케어</tspan>
                        </text>
                        <g id="-round/ver1/doctor2" transform="translate(21.000000, 83.000000)">
                            <mask id="mask-11" fill="white">
                                <use xlink:href="#path-10"></use>
                            </mask>
                            <use id="Mask" fill="#613627" fill-rule="evenodd" xlink:href="#path-10"></use>
                            <g id="swatch/brown" mask="url(#mask-11)" fill="#8D7047" fill-rule="evenodd">
                                <rect id="Rectangle" x="0" y="0" width="42" height="40"></rect>
                            </g>
                        </g>
                        <circle id="Oval-Copy-4" fill="#8D7047" cx="27" cy="147" r="2"></circle>
                        <circle id="Oval-Copy-5" fill="#8D7047" cx="27" cy="362" r="2"></circle>
                        <circle id="Oval-Copy-10" fill="#8D7047" cx="27" cy="864" r="2"></circle>
                        <circle id="Oval-Copy-6" fill="#8D7047" cx="27" cy="444" r="2"></circle>
                        <circle id="Oval-Copy-7" fill="#8D7047" cx="27" cy="526" r="2"></circle>
                        <circle id="Oval-Copy-8" fill="#8D7047" cx="27" cy="632" r="2"></circle>
                        <circle id="Oval-Copy-9" fill="#8D7047" cx="27" cy="690" r="2"></circle>
                        <g id="-round/ver1/control/check" transform="translate(21.000000, 299.000000)">
                            <mask id="mask-13" fill="white">
                                <use xlink:href="#path-12"></use>
                            </mask>
                            <use id="Mask" fill="#231916" fill-rule="evenodd" xlink:href="#path-12"></use>
                            <g id="swatch/brown" mask="url(#mask-13)" fill="#8D7047" fill-rule="evenodd">
                                <rect id="Rectangle" x="0" y="0" width="42" height="40"></rect>
                            </g>
                        </g>
                        <text id="수술-후-주의할-점" font-family="NotoSansCJKkr-DemiLight, Noto Sans CJK KR" font-size="18" font-weight="300" fill="#604B2E">
                            <tspan x="66" y="327">수술 후</tspan>
                            <tspan x="119.694" y="327" font-family="NotoSansCJKkr-Bold, Noto Sans CJK KR" font-weight="bold"> 주의할 점</tspan>
                        </text>
                        <text id="수술-후-음주,흡연" font-family="NotoSansCJKkr-DemiLight, Noto Sans CJK KR" font-size="18" font-weight="300" fill="#604B2E">
                            <tspan x="66" y="829">수술 후</tspan>
                            <tspan x="119.694" y="829" font-family="NotoSansCJKkr-Bold, Noto Sans CJK KR" font-weight="bold"> 음주,흡연</tspan>
                        </text>
                        <g id="-round/ver1/beer" transform="translate(21.000000, 801.000000)">
                            <mask id="mask-15" fill="white">
                                <use xlink:href="#path-14"></use>
                            </mask>
                            <use id="Fill-1" fill="#231916" fill-rule="evenodd" xlink:href="#path-14"></use>
                            <g id="swatch/brown" mask="url(#mask-15)" fill="#8D7047" fill-rule="evenodd">
                                <rect id="Rectangle" x="0" y="0" width="42" height="40"></rect>
                            </g>
                        </g>
                    </g>
                </g>
            </g>
        </g>
    </g>
</svg>