<?xml version="1.0" encoding="utf-8"?>
<!-- Generator: Adobe Illustrator 20.0.0, SVG Export Plug-In . SVG Version: 6.00 Build 0)  -->
<svg version="1.1" id="레이어_1" xmlns="http://www.w3.org/2000/svg" xmlns:xlink="http://www.w3.org/1999/xlink" x="0px"
	 y="0px" viewBox="0 0 44 46" style="enable-background:new 0 0 44 46;" xml:space="preserve">
<style type="text/css">
	.st0{opacity:0.2;fill:none;stroke:#604B2E;enable-background:new    ;}
	.st1{fill:#231916;}
	.st2{filter:url(#Adobe_OpacityMaskFilter);}
	.st3{fill:#FFFFFF;}
	.st4{mask:url(#mask-2);}
	.st5{fill:#8D7047;}
</style>
<title>Group 5</title>
<desc>Created with Sketch.</desc>
<g id="Page-1">
	<g id="안면윤곽" transform="translate(-370.000000, -1306.000000)">
		<g id="Group-5" transform="translate(370.000000, 1306.000000)">
			<rect id="Rectangle-12" x="0.5" y="0.5" class="st0" width="43" height="45"/>
			<g id="_x2D_round_x2F_ver1_x2F_control_x2F_check" transform="translate(4.000000, 5.000000)">
				<g id="Mask">
					<path id="path-1_1_" class="st1" d="M15.1,24.1c-1.2,0-2.3-0.5-3.2-1.3l-4.1-4.1c-0.4-0.4-0.4-1,0-1.4c0.4-0.4,1-0.4,1.4,0
						l4.1,4.1c0.5,0.5,1.1,0.7,1.8,0.7c0.7,0,1.3-0.3,1.8-0.7l10.7-10.5c0.4-0.4,1-0.4,1.4,0c0.4,0.4,0.4,1,0,1.4L18.3,22.8
						C17.4,23.6,16.3,24.1,15.1,24.1"/>
				</g>
				<defs>
					<filter id="Adobe_OpacityMaskFilter" filterUnits="userSpaceOnUse" x="0" y="0" width="38" height="36">
						<feColorMatrix  type="matrix" values="1 0 0 0 0  0 1 0 0 0  0 0 1 0 0  0 0 0 1 0"/>
					</filter>
				</defs>
				<mask maskUnits="userSpaceOnUse" x="0" y="0" width="38" height="36" id="mask-2">
					<g class="st2">
						<path id="path-1" class="st3" d="M15.1,24.1c-1.2,0-2.3-0.5-3.2-1.3l-4.1-4.1c-0.4-0.4-0.4-1,0-1.4c0.4-0.4,1-0.4,1.4,0
							l4.1,4.1c0.5,0.5,1.1,0.7,1.8,0.7c0.7,0,1.3-0.3,1.8-0.7l10.7-10.5c0.4-0.4,1-0.4,1.4,0c0.4,0.4,0.4,1,0,1.4L18.3,22.8
							C17.4,23.6,16.3,24.1,15.1,24.1"/>
					</g>
				</mask>
				<g id="swatch_x2F_brown" class="st4">
					<rect id="Rectangle" class="st5" width="38" height="36"/>
				</g>
			</g>
		</g>
	</g>
</g>
</svg>
