<?xml version="1.0" encoding="utf-8"?>
<!-- Generator: Adobe Illustrator 20.0.0, SVG Export Plug-In . SVG Version: 6.00 Build 0)  -->
<svg version="1.1" id="레이어_1" xmlns="http://www.w3.org/2000/svg" xmlns:xlink="http://www.w3.org/1999/xlink" x="0px"
	 y="0px" viewBox="0 0 777 524" style="enable-background:new 0 0 777 524;" xml:space="preserve">
<style type="text/css">
	.st0{opacity:5.000000e-02;fill:#8D7047;enable-background:new    ;}
	.st1{fill:url(#Polygon-2-Copy-3_4_);}
	.st2{fill:#FFFFFF;}
	.st3{font-family:'NotoSansCJKkr-Bold-KSCpc-EUC-H';}
	.st4{font-size:18px;}
	.st5{font-family:'Montserrat-Bold';}
	.st6{opacity:0.5;}
	.st7{font-size:50px;}
	.st8{fill:url(#Polygon-2-Copy-3_5_);}
	.st9{fill:url(#Polygon-2-Copy-3_6_);}
	.st10{fill:url(#Polygon-2-Copy-3_7_);}
</style>
<title>Group 24</title>
<desc>Created with Sketch.</desc>
<g id="Page-1">
	<g id="안면윤곽" transform="translate(-903.000000, -1129.000000)">
		<g id="Group-24" transform="translate(883.000000, 1129.000000)">
			<polygon id="Polygon-2-Copy-10" class="st0" points="667,224 796.9,299 796.9,449 667,524 537.1,449 537.1,299 			"/>
			<g id="Group-12">
				<g id="_x31_-copy-2" transform="translate(129.000000, 0.000000)">
					
						<linearGradient id="Polygon-2-Copy-3_4_" gradientUnits="userSpaceOnUse" x1="269.0412" y1="272.34" x2="268.7595" y2="272.6341" gradientTransform="matrix(259.8076 0 0 -300 -69748.9609 81852)">
						<stop  offset="0" style="stop-color:#8D7047"/>
						<stop  offset="1" style="stop-color:#BB9A6D"/>
					</linearGradient>
					<polygon id="Polygon-2-Copy-3" class="st1" points="150,0 279.9,75 279.9,225 150,300 20.1,225 20.1,75 					"/>
					<text transform="matrix(1 0 0 1 98.777 151)" class="st2 st3 st4">이마 볼륨으로</text>
					<text transform="matrix(1 0 0 1 202.2226 151)" class="st2 st3 st4"> </text>
					<text transform="matrix(1 0 0 1 71.228 178)" class="st2 st3 st4">얼굴 전체 입체감 </text>
					<text transform="matrix(1 0 0 1 199.406 178)" class="st2 st5 st4">UP!</text>
					<g id="Group-6" transform="translate(42.000000, 48.000000)" class="st6">
						<text transform="matrix(1 0 0 1 0 68.0013)" class="st2 st5 st7">01</text>
					</g>
				</g>
				<g id="_x31_-copy-4" transform="translate(388.000000, 0.000000)">
					
						<linearGradient id="Polygon-2-Copy-3_5_" gradientUnits="userSpaceOnUse" x1="10.0412" y1="272.34" x2="9.7595" y2="272.6341" gradientTransform="matrix(259.8076 0 0 -300 -2458.7876 81852)">
						<stop  offset="0" style="stop-color:#8D7047"/>
						<stop  offset="1" style="stop-color:#BB9A6D"/>
					</linearGradient>
					<polygon id="Polygon-2-Copy-3_1_" class="st8" points="150,0 279.9,75 279.9,225 150,300 20.1,225 20.1,75 					"/>
					<text transform="matrix(1 0 0 1 80.174 151)" class="st2 st3 st4">세련된 동안 얼굴의</text>
					<text transform="matrix(1 0 0 1 220.8254 151)" class="st2 st3 st4"> </text>
					<text transform="matrix(1 0 0 1 78.887 178)" class="st2 st3 st4">베이비페이스 완성!</text>
					<g id="Group-6_1_" transform="translate(42.000000, 48.000000)" class="st6">
						<text transform="matrix(1 0 0 1 0 68.0013)" class="st2 st5 st7">02</text>
					</g>
				</g>
				<g id="_x31_-copy-5" transform="translate(258.000000, 224.000000)">
					
						<linearGradient id="Polygon-2-Copy-3_6_" gradientUnits="userSpaceOnUse" x1="140.0412" y1="48.34" x2="139.7595" y2="48.6341" gradientTransform="matrix(259.8076 0 0 -300 -36233.7773 14652)">
						<stop  offset="0" style="stop-color:#8D7047"/>
						<stop  offset="1" style="stop-color:#BB9A6D"/>
					</linearGradient>
					<polygon id="Polygon-2-Copy-3_2_" class="st9" points="150,0 279.9,75 279.9,225 150,300 20.1,225 20.1,75 					"/>
					<text transform="matrix(1 0 0 1 96.455 151)" class="st2 st3 st4">25년 노하우의</text>
					<text transform="matrix(1 0 0 1 204.5443 151)" class="st2 st3 st4"> </text>
					<text transform="matrix(1 0 0 1 56.27 178)" class="st2 st3 st4">성형외과 전문의 1인 체제</text>
					<g id="Group-6_2_" transform="translate(42.000000, 48.000000)" class="st6">
						<text transform="matrix(1 0 0 1 0 68.0013)" class="st2 st5 st7">04</text>
					</g>
				</g>
				<g id="_x31_-copy-6" transform="translate(0.000000, 224.000000)">
					
						<linearGradient id="Polygon-2-Copy-3_7_" gradientUnits="userSpaceOnUse" x1="398.0412" y1="48.34" x2="397.7595" y2="48.6341" gradientTransform="matrix(259.8076 0 0 -300 -103264.1406 14652)">
						<stop  offset="0" style="stop-color:#8D7047"/>
						<stop  offset="1" style="stop-color:#BB9A6D"/>
					</linearGradient>
					<polygon id="Polygon-2-Copy-3_3_" class="st10" points="150,0 279.9,75 279.9,225 150,300 20.1,225 20.1,75 					"/>
					<text transform="matrix(1 0 0 1 98.777 151)" class="st2 st3 st4">안전한 수술과 </text>
					<text transform="matrix(1 0 0 1 114.05 178)" class="st2 st3 st4">빠른회복!</text>
					<g id="Group-6_3_" transform="translate(42.000000, 48.000000)" class="st6">
						<text transform="matrix(1 0 0 1 0 68.0013)" class="st2 st5 st7">03</text>
					</g>
				</g>
			</g>
		</g>
	</g>
</g>
</svg>
