<?xml version="1.0" encoding="utf-8"?>
<!-- Generator: Adobe Illustrator 20.0.0, SVG Export Plug-In . SVG Version: 6.00 Build 0)  -->
<svg version="1.1" id="레이어_1" xmlns="http://www.w3.org/2000/svg" xmlns:xlink="http://www.w3.org/1999/xlink" x="0px"
	 y="0px" viewBox="0 0 345.2 247.8" style="enable-background:new 0 0 345.2 247.8;" xml:space="preserve">
<style type="text/css">
	.st0{fill:#8D7047;}
	.st1{font-family:'AppleSDGothicNeo-Regular-KSCpc-EUC-H';}
	.st2{font-size:35px;}
	.st3{fill:#5F4B2F;}
	.st4{font-family:'Helvetica';}
	.st5{font-size:80px;}
</style>
<title>Group 4</title>
<desc>Created with Sketch.</desc>
<g id="Page-1">
	<g id="_x2B__x2B_트임성형_x5F_밑트임" transform="translate(-520.000000, -486.000000)">
		<g id="Group-2" transform="translate(-460.000000, -233.000000)">
			<g id="Group-4" transform="translate(980.000000, 717.000000)">
				<text transform="matrix(1 0 0 1 0 30.1399)" class="st0 st1 st2">시원하고</text>
				<text transform="matrix(1 0 0 1 121.0986 30.1399)" class="st0 st1 st2"> </text>
				<text transform="matrix(1 0 0 1 130.8241 30.1399)" class="st0 st1 st2">자연스러운</text>
				<text transform="matrix(1 0 0 1 0 122.6895)" class="st3 st4 st5">#</text>
				<text transform="matrix(1 0 0 1 46.2225 120.5754)" class="st3 st1 st5">트임</text>
				<text transform="matrix(1 0 0 1 206.849 120.5754)" class="st3 st1 st5">성형</text>
				<text transform="matrix(1 0 0 1 0 211.3002)" class="st0 st4 st5">[</text>
				<text transform="matrix(1 0 0 1 23.9568 216.3522)" class="st0 st1 st5">밑트임</text>
				<text transform="matrix(1 0 0 1 229.8266 211.3002)" class="st0 st4 st5">]</text>
			</g>
		</g>
	</g>
</g>
</svg>
