<?xml version="1.0" encoding="UTF-8"?>
<svg width="24px" height="18px" viewBox="0 0 24 18" version="1.1" xmlns="http://www.w3.org/2000/svg" xmlns:xlink="http://www.w3.org/1999/xlink">
    <!-- Generator: Sketch 52.5 (67469) - http://www.bohemiancoding.com/sketch -->
    <title> round/ver1/talk/2</title>
    <desc>Created with Sketch.</desc>
    <defs>
        <path d="M20.5755,14.16875 C20.05425,14.16875 19.63425,14.5875 19.63425,15.10625 C19.63425,15.62375 20.05425,16.04375 20.5755,16.04375 C21.08925,16.04375 21.513,15.62375 21.513,15.10625 C21.513,14.5875 21.08925,14.16875 20.5755,14.16875 M15.31925,14.16875 C15.83425,14.16875 16.25675,14.5875 16.25675,15.10625 C16.25675,15.62375 15.83425,16.04375 15.31925,16.04375 C14.798,16.04375 14.378,15.62375 14.378,15.10625 C14.378,14.5875 14.798,14.16875 15.31925,14.16875 Z M10.062875,14.16875 C10.581625,14.16875 11.000375,14.5875 11.000375,15.10625 C11.000375,15.62375 10.581625,16.04375 10.062875,16.04375 C9.545375,16.04375 9.125375,15.62375 9.125375,15.10625 C9.125375,14.5875 9.545375,14.16875 10.062875,14.16875 Z M24.359125,18.388625 C24.359125,19.643625 23.337875,20.668625 22.079125,20.668625 L7.735375,20.668625 C6.924125,20.668625 6.300375,21.416125 5.701625,22.137375 C5.656625,22.193625 5.602875,22.257375 5.550375,22.321125 C5.490375,21.726125 5.434125,20.657375 5.447875,18.766125 L5.451625,11.473625 C5.451625,10.219875 6.476625,9.194875 7.735375,9.194875 L22.079125,9.194875 C23.337875,9.194875 24.359125,10.219875 24.359125,11.473625 L24.359125,18.388625 Z M22.079125,7.499875 L7.735375,7.499875 C5.540375,7.499875 3.756625,9.282375 3.756625,11.473625 L3.754125,18.752375 C3.721625,22.242375 3.897875,23.609875 4.461625,24.177375 C4.676625,24.388625 4.955375,24.504875 5.246625,24.504875 C5.937875,24.504875 6.434125,23.908625 7.005375,23.222375 C7.237875,22.941125 7.617875,22.482375 7.815375,22.363625 L22.079125,22.363625 C24.271625,22.363625 26.056625,20.581125 26.056625,18.388625 L26.056625,11.473625 C26.056625,9.282375 24.271625,7.499875 22.079125,7.499875 Z" id="path-1"></path>
    </defs>
    <g id="Page-1" stroke="none" stroke-width="1" fill="none" fill-rule="evenodd">
        <g id="iPhone-8-Copy-5" transform="translate(-18.000000, -1828.000000)">
            <g id="-round/ver1/talk/2" transform="translate(15.000000, 1821.000000)">
                <mask id="mask-2" fill="white">
                    <use xlink:href="#path-1"></use>
                </mask>
                <use id="Mask" fill="#231916" fill-rule="evenodd" xlink:href="#path-1"></use>
                <g id="swatch/brown" mask="url(#mask-2)" fill="#8D7047" fill-rule="evenodd">
                    <rect id="Rectangle" x="0" y="0" width="31" height="30"></rect>
                </g>
            </g>
        </g>
    </g>
</svg>