<?xml version="1.0" encoding="UTF-8"?>
<svg width="24px" height="25px" viewBox="0 0 24 25" version="1.1" xmlns="http://www.w3.org/2000/svg" xmlns:xlink="http://www.w3.org/1999/xlink">
    <!-- Generator: Sketch 52.5 (67469) - http://www.bohemiancoding.com/sketch -->
    <title>icon/call copy</title>
    <desc>Created with Sketch.</desc>
    <defs>
        <path d="M24.60025,22.825875 L21.229,25.542125 C21.10775,25.588375 20.81275,25.675875 20.394,25.675875 C19.59275,25.675875 18.7215,25.354625 17.87525,24.745875 L6.37275,13.388375 C6.3115,13.314625 4.86275,11.612125 5.719,9.362125 L8.034,5.687125 C8.1115,5.612125 8.329,5.443375 8.64275,5.443375 C8.9615,5.443375 9.34025,5.619625 9.6815,5.905875 L11.449,7.669625 L11.59275,7.787125 C11.59275,7.787125 11.724,7.895875 11.7415,8.029625 C11.764,8.214625 11.604,8.509625 11.2665,8.875875 C10.9815,9.230875 9.59025,11.090875 10.22525,12.524625 L10.29025,12.669625 L17.579,19.954625 C17.644,20.028375 18.24775,20.665875 19.274,20.665875 C19.9215,20.665875 20.57275,20.412125 21.20775,19.912125 L21.3115,19.813375 C21.45525,19.655875 21.94025,19.243375 22.42525,19.243375 C22.63775,19.243375 22.844,19.324625 22.97775,19.422125 L25.2165,21.655875 C25.2165,21.659625 25.32025,21.787125 25.314,21.934625 C25.3015,22.170875 25.05025,22.487125 24.60025,22.825875 M27.00875,21.9023535 L27.00875,21.9364948 C27.0085287,21.9630812 27.0077885,21.9899596 27.0065,22.017125 C26.97025,22.790875 26.5115,23.513375 25.6415,24.164625 L22.0615,27.032125 C21.9941394,27.0639682 21.3975851,27.3622082 20.4529002,27.37425 L20.3359376,27.37425 C19.5127035,27.3636433 18.250011,27.1234866 16.82275,26.078375 L16.72775,26.000875 L5.1415,14.550875 C5.04123744,14.4429734 3.76293082,12.9768563 3.75,10.830106 L3.75,10.7645109 C3.75389025,10.118715 3.87305491,9.41272102 4.17275,8.664625 L4.2415,8.527125 L6.644,4.710875 C6.7800536,4.53437304 7.43892857,3.77976284 8.5746622,3.7505 L8.71121705,3.7505 C9.42330175,3.76870116 10.1337027,4.07083425 10.8265,4.654625 L12.6015,6.423375 C12.82275,6.593375 13.3265,7.053375 13.424,7.818375 C13.514,8.537125 13.2215,9.265875 12.55025,9.982125 C12.14275,10.499625 11.7215,11.343375 11.75275,11.732125 L18.8065,18.789625 C18.83025,18.810875 18.99775,18.972125 19.274,18.972125 C19.51525,18.972125 19.804,18.848375 20.10775,18.619625 C20.3565,18.363375 21.23775,17.548375 22.42525,17.548375 C23.02275,17.548375 23.589,17.752125 24.1015,18.158375 L26.3865,20.429625 C26.426061,20.4679872 27.0013976,21.02028 27.00875,21.9023597 Z" id="path-1"></path>
    </defs>
    <g id="Page-1" stroke="none" stroke-width="1" fill="none" fill-rule="evenodd">
        <g id="iPhone-8-Copy-5" transform="translate(-18.000000, -1732.000000)">
            <g id="-round/ver1/call" transform="translate(15.000000, 1729.000000)">
                <mask id="mask-2" fill="white">
                    <use xlink:href="#path-1"></use>
                </mask>
                <use id="Mask" fill="#231916" fill-rule="evenodd" xlink:href="#path-1"></use>
                <g id="swatch/brown" mask="url(#mask-2)" fill="#8D7047" fill-rule="evenodd">
                    <rect id="Rectangle" x="0" y="0" width="31" height="30"></rect>
                </g>
            </g>
        </g>
    </g>
</svg>