<?xml version="1.0" encoding="UTF-8"?>
<svg width="25px" height="24px" viewBox="0 0 25 24" version="1.1" xmlns="http://www.w3.org/2000/svg" xmlns:xlink="http://www.w3.org/1999/xlink">
    <!-- Generator: Sketch 52.5 (67469) - http://www.bohemiancoding.com/sketch -->
    <title>icon/clock copy</title>
    <desc>Created with Sketch.</desc>
    <defs>
        <path d="M26.33625,9.51918811 L26.33625,9.57374774 C26.3295913,9.7812736 26.2469247,9.98670034 26.08825,10.145375 C25.922,10.310375 25.7045,10.391625 25.48575,10.391625 C25.27075,10.391625 25.05575,10.310375 24.887,10.145375 L19.94075,5.199125 C19.6095,4.867875 19.6095,4.332875 19.94075,4.001625 C20.272,3.666625 20.807,3.666625 21.142,4.001625 L26.08825,8.946625 C26.2469247,9.10589843 26.3295913,9.31163712 26.33625,9.5191883 Z M9.1413125,4.60024905 L9.1413125,4.60025095 C9.1413123,4.81681303 9.0584998,5.0333752 8.892875,5.199 L3.946625,10.14525 C3.781625,10.31025 3.565375,10.3915 3.346625,10.3915 C3.129125,10.3915 2.914125,10.31025 2.747875,10.14525 C2.59013095,9.98750595 2.50750595,9.7835566 2.5,9.57727366 L2.5,9.51541166 C2.50750595,9.30910046 2.59013095,9.10483931 2.747875,8.9465 L7.695375,4.0015 C8.026625,3.6665 8.561625,3.6665 8.892875,4.0015 C9.0584998,4.1671248 9.1413123,4.38368697 9.1413125,4.60024921 Z M17.813125,15.788625 C18.278125,15.788625 18.658125,16.169875 18.658125,16.638625 C18.658125,17.107375 18.278125,17.486125 17.813125,17.486125 L14.440625,17.486125 C14.423125,17.486125 14.406875,17.477375 14.388125,17.476125 C14.334375,17.486125 14.285625,17.507375 14.229375,17.507375 C13.761875,17.507375 13.380625,17.127375 13.380625,16.658625 L13.380625,12.089875 C13.380625,11.621125 13.761875,11.241125 14.229375,11.241125 C14.698125,11.241125 15.078125,11.621125 15.078125,12.089875 L15.078125,15.788625 L17.813125,15.788625 Z M7.208875,16.04925 C7.208875,11.99425 10.506375,8.698 14.557625,8.698 C18.612625,8.698 21.906375,11.99425 21.906375,16.04925 C21.906375,20.098 18.612625,23.39425 14.557625,23.39425 C10.506375,23.39425 7.208875,20.098 7.208875,16.04925 M21.8352153,26.319 L21.7945724,26.319 C21.5827249,26.313847 21.3724571,26.2290821 21.212625,26.06925 L19.038875,23.8955 C17.716375,24.653 16.188875,25.093 14.557625,25.093 C12.781375,25.093 11.127625,24.5705 9.728875,23.68175 L7.503875,25.903 C7.338875,26.06925 7.123875,26.153 6.905125,26.153 C6.687625,26.153 6.468875,26.06925 6.306375,25.903 C5.976375,25.57175 5.976375,25.03675 6.306375,24.7055 L8.377625,22.63175 C6.620125,20.98175 5.513875,18.64425 5.513875,16.04925 C5.513875,11.058 9.572625,7.003 14.557625,7.003 C19.546375,7.003 23.605125,11.058 23.605125,16.04925 C23.605125,18.788 22.375125,21.24175 20.443875,22.90175 L22.413875,24.87175 C22.745125,25.203 22.745125,25.73675 22.413875,26.06925 C22.2504104,26.2290821 22.0423747,26.313847 21.8352153,26.319 Z" id="path-1"></path>
    </defs>
    <g id="Page-1" stroke="none" stroke-width="1" fill="none" fill-rule="evenodd">
        <g id="iPhone-8-Copy-5" transform="translate(-17.000000, -1561.000000)">
            <g id="-round/ver1/clock" transform="translate(15.000000, 1558.000000)">
                <mask id="mask-2" fill="white">
                    <use xlink:href="#path-1"></use>
                </mask>
                <use id="Mask" fill="#231916" fill-rule="evenodd" xlink:href="#path-1"></use>
                <g id="swatch/brown" mask="url(#mask-2)" fill="#8D7047" fill-rule="evenodd">
                    <rect id="Rectangle" x="0" y="0" width="31" height="30"></rect>
                </g>
            </g>
        </g>
    </g>
</svg>