<?xml version="1.0" encoding="UTF-8"?>
<svg width="28px" height="21px" viewBox="0 0 28 21" version="1.1" xmlns="http://www.w3.org/2000/svg" xmlns:xlink="http://www.w3.org/1999/xlink">
    <!-- Generator: Sketch 52.5 (67469) - http://www.bohemiancoding.com/sketch -->
    <title> round/ver1/hospital</title>
    <desc>Created with Sketch.</desc>
    <defs>
        <path d="M21.9208931,23.8329976 L24.2921258,23.8329976 L24.2921258,12.2103725 L21.9208931,12.2103725 L21.9208931,23.8329976 Z M18.3406901,23.8340838 L18.3406901,19.7118537 C18.3406901,19.291484 17.9996149,18.951495 17.5803314,18.951495 L12.4207548,18.951495 C12.0003851,18.951495 11.6593099,19.291484 11.6593099,19.7118537 L11.6593099,23.8340838 L9.61177272,23.8340838 L9.61177272,11.4500138 C9.61177272,11.4391516 9.60525536,11.4293755 9.60525536,11.4185133 L9.60525536,6.5207173 L20.3947446,6.5207173 L20.3947446,23.8340838 L18.3406901,23.8340838 Z M13.1811135,23.8329976 L16.8199727,23.8329976 L16.8199727,20.4722123 L13.1811135,20.4722123 L13.1811135,23.8329976 Z M5.71873642,23.8329976 L8.08345183,23.8329976 L8.08345183,12.2103725 L5.71873642,12.2103725 L5.71873642,23.8329976 Z M27.9896413,23.8340838 L25.8128431,23.8340838 L25.8128431,11.4500138 C25.8128431,11.0296441 25.4728542,10.6896552 25.0524845,10.6896552 L21.9154619,10.6896552 L21.9154619,5.76035865 C21.9154619,5.33998894 21.5743868,5 21.1551033,5 L8.84489671,5 C8.424527,5 8.08453806,5.33998894 8.08453806,5.76035865 L8.08453806,10.6896552 L4.95837777,10.6896552 C4.53800806,10.6896552 4.19801912,11.0296441 4.19801912,11.4500138 L4.19801912,23.8340838 L2.01035865,23.8340838 C1.58998894,23.8340838 1.25,24.1740728 1.25,24.5944425 C1.25,25.0148122 1.58998894,25.3548011 2.01035865,25.3548011 L4.95837777,25.3548011 L8.84489671,25.3548011 L8.85141407,25.3548011 L12.4207548,25.3548011 L17.5803314,25.3548011 L21.1551033,25.3548011 L21.1605344,25.3548011 L25.0524845,25.3548011 L27.9896413,25.3548011 C28.4089248,25.3548011 28.75,25.0148122 28.75,24.5944425 C28.75,24.1740728 28.4089248,23.8340838 27.9896413,23.8340838 Z M17.4304321,12.6293301 L16.1986511,12.6293301 C15.7782814,12.6293301 15.4382925,12.969319 15.4382925,13.3896887 L15.4382925,14.6203835 L14.5606213,14.6203835 L14.5606213,13.3896887 C14.5606213,12.969319 14.2206324,12.6293301 13.8002627,12.6293301 L12.5695679,12.6293301 L12.5695679,11.751659 L13.8002627,11.751659 C14.2206324,11.751659 14.5606213,11.4105838 14.5606213,10.9913003 L14.5606213,9.76060552 L15.4382925,9.76060552 L15.4382925,10.9913003 C15.4382925,11.4105838 15.7782814,11.751659 16.1986511,11.751659 L17.4304321,11.751659 L17.4304321,12.6293301 Z M18.1907908,10.2309417 L16.9590098,10.2309417 L16.9590098,9.00024687 C16.9590098,8.57987716 16.6190208,8.23988822 16.1986511,8.23988822 L13.8002627,8.23988822 C13.379893,8.23988822 13.039904,8.57987716 13.039904,9.00024687 L13.039904,10.2309417 L11.8092092,10.2309417 C11.3888395,10.2309417 11.0488506,10.5709306 11.0488506,10.9913003 L11.0488506,13.3896887 C11.0488506,13.8100585 11.3888395,14.1500474 11.8092092,14.1500474 L13.039904,14.1500474 L13.039904,15.3818284 C13.039904,15.8011119 13.379893,16.1421871 13.8002627,16.1421871 L16.1986511,16.1421871 C16.6190208,16.1421871 16.9590098,15.8011119 16.9590098,15.3818284 L16.9590098,14.1500474 L18.1907908,14.1500474 C18.6111605,14.1500474 18.9511494,13.8100585 18.9511494,13.3896887 L18.9511494,10.9913003 C18.9511494,10.5709306 18.6111605,10.2309417 18.1907908,10.2309417 Z" id="path-1"></path>
    </defs>
    <g id="Page-1" stroke="none" stroke-width="1" fill="none" fill-rule="evenodd">
        <g id="iPhone-8-Copy-5" transform="translate(-16.000000, -1252.000000)">
            <g id="-round/ver1/hospital" transform="translate(15.000000, 1247.000000)">
                <mask id="mask-2" fill="white">
                    <use xlink:href="#path-1"></use>
                </mask>
                <use id="Mask" fill="#613627" fill-rule="evenodd" xlink:href="#path-1"></use>
                <g id="swatch/brown" mask="url(#mask-2)" fill="#8D7047" fill-rule="evenodd">
                    <rect id="Rectangle" x="0" y="0" width="31" height="30"></rect>
                </g>
            </g>
        </g>
    </g>
</svg>