<?xml version="1.0" encoding="UTF-8"?>
<svg width="19px" height="27px" viewBox="0 0 19 27" version="1.1" xmlns="http://www.w3.org/2000/svg" xmlns:xlink="http://www.w3.org/1999/xlink">
    <!-- Generator: Sketch 52.5 (67469) - http://www.bohemiancoding.com/sketch -->
    <title> round/ver1/subway</title>
    <desc>Created with Sketch.</desc>
    <defs>
        <path d="M14.0017945,20.9130628 L17.2477162,20.9130628 C17.6845024,20.9130628 18.0405383,20.5582504 18.0405383,20.1214641 C18.0405383,19.6846778 17.6845024,19.3298654 17.2477162,19.3298654 L14.0017945,19.3298654 C13.5650082,19.3298654 13.2101958,19.6846778 13.2101958,20.1214641 C13.2101958,20.5582504 13.5650082,20.9130628 14.0017945,20.9130628 M10.542863,19.6883483 C10.7814437,19.6883483 10.9759788,19.8828834 10.9759788,20.1214641 C10.9759788,20.3600449 10.7814437,20.5545799 10.542863,20.5545799 C10.3042822,20.5545799 10.1097471,20.3600449 10.1097471,20.1214641 C10.1097471,19.8828834 10.3042822,19.6883483 10.542863,19.6883483 M10.542863,22.1377773 C11.6550163,22.1377773 12.5591762,21.2336175 12.5591762,20.1214641 C12.5591762,19.0093108 11.6550163,18.1051509 10.542863,18.1051509 C9.43193312,18.1051509 8.52777325,19.0093108 8.52777325,20.1214641 C8.52777325,21.2336175 9.43193312,22.1377773 10.542863,22.1377773 M20.6737357,19.6883483 C20.9123165,19.6883483 21.1068515,19.8828834 21.1068515,20.1214641 C21.1068515,20.3600449 20.9123165,20.5545799 20.6737357,20.5545799 C20.435155,20.5545799 20.2406199,20.3600449 20.2406199,20.1214641 C20.2406199,19.8828834 20.435155,19.6883483 20.6737357,19.6883483 M20.6737357,22.1377773 C21.7846656,22.1377773 22.6888254,21.2336175 22.6888254,20.1214641 C22.6888254,19.0093108 21.7846656,18.1051509 20.6737357,18.1051509 C19.5615824,18.1051509 18.6574225,19.0093108 18.6574225,20.1214641 C18.6574225,21.2336175 19.5615824,22.1377773 20.6737357,22.1377773 M8.02895595,7.83223083 C8.32748777,7.24373165 8.93189233,6.86077896 9.59624796,6.86077896 L21.6525285,6.86077896 C22.3168842,6.86077896 22.9212887,7.24373165 23.221044,7.83223083 L8.02895595,7.83223083 Z M7.83319739,16.1886746 L23.4168026,16.1886746 L23.4168026,9.41542822 L7.83319739,9.41542822 L7.83319739,16.1886746 Z M9.60725938,25.810208 L21.3417618,25.8065375 L21.6402936,26.2506648 L9.31117455,26.2506648 L9.60725938,25.810208 Z M10.4184339,24.516978 L10.6900489,24.1866354 L20.2614192,24.1866354 L20.5575041,24.5438948 L10.4184339,24.516978 Z M23.4168026,17.7718719 L23.4168026,20.8403874 C23.4168026,21.8130628 22.6252039,22.603438 21.6525285,22.603438 L9.59624796,22.603438 C8.62357259,22.603438 7.83319739,21.8130628 7.83319739,20.8403874 L7.83319739,17.7718719 L23.4168026,17.7718719 Z M12.7296085,5.27758157 L13.3168842,3.93296493 L17.9318923,3.93296493 L18.519168,5.27758157 L12.7296085,5.27758157 Z M25,20.8403874 L25,8.62382953 C25,6.77880506 23.4987765,5.27758157 21.6525285,5.27758157 L20.2467374,5.27758157 L19.1761827,2.82448206 C19.0489396,2.53573817 18.7638662,2.34976754 18.4506525,2.34976754 L12.7993475,2.34976754 C12.4849103,2.34976754 12.1998369,2.53573817 12.0725938,2.82448206 L11.0032626,5.27758157 L9.59624796,5.27758157 C7.75122349,5.27758157 6.25,6.77880506 6.25,8.62382953 L6.25,20.8403874 C6.25,22.4162439 7.33156607,23.7486256 8.85358891,24.0912031 L6.4139478,27.7176305 C6.17169657,28.0797838 6.26835237,28.5740742 6.63050571,28.8175489 C6.98287113,29.0524592 7.49306688,28.9509095 7.72797716,28.6022145 L8.24551387,27.8338622 L22.7047308,27.8338622 L23.2222675,28.6022145 C23.3690865,28.8199959 23.6150082,28.9509095 23.8805057,28.9509095 C24.0358891,28.9509095 24.1888254,28.9056403 24.3209625,28.8163254 C24.6831158,28.5728507 24.7785481,28.0797838 24.5350734,27.716407 L22.1272431,24.1389192 C23.7569331,23.9052325 25,22.5031117 25,20.8403874 Z" id="path-1"></path>
    </defs>
    <g id="Page-1" stroke="none" stroke-width="1" fill="none" fill-rule="evenodd">
        <g id="iPhone-8-Copy-5" transform="translate(-21.000000, -1432.000000)">
            <g id="-round/ver1/subway" transform="translate(15.000000, 1430.000000)">
                <mask id="mask-2" fill="white">
                    <use xlink:href="#path-1"></use>
                </mask>
                <use id="Fill-4" fill="#E50113" fill-rule="evenodd" xlink:href="#path-1"></use>
                <g id="swatch/brown" mask="url(#mask-2)" fill="#604B2E" fill-rule="evenodd">
                    <rect id="Rectangle" x="0" y="0" width="31" height="30"></rect>
                </g>
            </g>
        </g>
    </g>
</svg>