<?xml version="1.0" encoding="utf-8"?>
<!-- Generator: Adobe Illustrator 20.0.0, SVG Export Plug-In . SVG Version: 6.00 Build 0)  -->
<svg version="1.1" id="레이어_1" xmlns="http://www.w3.org/2000/svg" xmlns:xlink="http://www.w3.org/1999/xlink" x="0px"
	 y="0px" viewBox="0 0 188 202.5" style="enable-background:new 0 0 188 202.5;" xml:space="preserve">
<style type="text/css">
	.st0{fill:#5F4B2F;}
	.st1{font-family:'Helvetica';}
	.st2{font-size:57.3444px;}
	.st3{font-family:'AppleSDGothicNeo-Regular-KSCpc-EUC-H';}
	.st4{fill:#8D7047;}
	.st5{font-size:25.0882px;}
</style>
<title>Group 8</title>
<desc>Created with Sketch.</desc>
<g id="Page-1">
	<g id="재수술" transform="translate(-520.000000, -466.000000)">
		<g id="Group-2">
			<g id="Group-8" transform="translate(520.000000, 464.000000)">
				<text transform="matrix(1 0 0 1 3.0002 129.3504)" class="st0 st1 st2">#</text>
				<text transform="matrix(1 0 0 1 34.8928 129.3504)" class="st0 st1 st2"> </text>
				<text transform="matrix(1 0 0 1 36.9121 135.0037)" class="st0 st3 st2">쌍커풀</text>
				<text transform="matrix(1 0 0 1 235.1193 135.0037)" class="st0 st1 st2"> </text>
				<text transform="matrix(1 0 0 1 6.9106 192.3033)" class="st0 st3 st2">재수술</text>
				<text transform="matrix(1 0 0 1 3.0002 27.1707)" class="st4 st3 st5">처음도</text>
				<text transform="matrix(1 0 0 1 68.1032 27.1707)" class="st4 st3 st5"> </text>
				<text transform="matrix(1 0 0 1 75.0744 27.1707)" class="st4 st3 st5">마지막도</text>
				<text transform="matrix(1 0 0 1 3.0002 63.0106)" class="st4 st3 st5">연세</text>
				<text transform="matrix(1 0 0 1 46.4025 63.0106)" class="st4 st3 st5"> </text>
				<text transform="matrix(1 0 0 1 53.3732 63.0106)" class="st4 st3 st5">자연미에서</text>
			</g>
		</g>
	</g>
</g>
</svg>
