<?xml version="1.0" encoding="utf-8"?>
<!-- Generator: Adobe Illustrator 20.0.0, SVG Export Plug-In . SVG Version: 6.00 Build 0)  -->
<svg version="1.1" id="레이어_1" xmlns="http://www.w3.org/2000/svg" xmlns:xlink="http://www.w3.org/1999/xlink" x="0px"
	 y="0px" viewBox="0 0 18.4 19.2" style="enable-background:new 0 0 18.4 19.2;" xml:space="preserve">
<style type="text/css">
	.st0{fill:#E9E9E9;}
	.st1{fill:#231916;}
	.st2{filter:url(#Adobe_OpacityMaskFilter);}
	.st3{fill:#FFFFFF;}
	.st4{mask:url(#mask-2_1_);}
	.st5{fill:#8D7047;}
</style>
<g id="Page-1">
	<g id="쌍커풀_비절개" transform="translate(-561.000000, -1878.000000)">
		<g id="Group-5" transform="translate(561.000000, 1878.000000)">
			<g id="Group-11">
				<g id="Rectangle-12">
					<path class="st0" d="M18.4,19.2H0V0h18.4V19.2z M0.4,18.8H18V0.4H0.4V18.8z"/>
				</g>
				<g id="_x2D_round_x2F_ver1_x2F_control_x2F_check" transform="translate(4.000000, 5.000000)">
					<g id="Mask">
						<g id="path-1_1_">
							<path class="st1" d="M4,7.1c-0.5,0-1-0.2-1.3-0.6L0.9,4.9c-0.2-0.2-0.2-0.4,0-0.6c0.2-0.2,0.4-0.2,0.6,0L3.2,6
								C3.4,6.2,3.7,6.3,4,6.3c0.3,0,0.5-0.1,0.7-0.3l4.4-4.4c0.2-0.2,0.4-0.2,0.6,0c0.2,0.2,0.2,0.4,0,0.6L5.3,6.6
								C4.9,6.9,4.5,7.1,4,7.1"/>
						</g>
					</g>
					<defs>
						<filter id="Adobe_OpacityMaskFilter" filterUnits="userSpaceOnUse" x="-2.3" y="-2.9" width="15.9" height="15">
							<feColorMatrix  type="matrix" values="1 0 0 0 0  0 1 0 0 0  0 0 1 0 0  0 0 0 1 0"/>
						</filter>
					</defs>
					<mask maskUnits="userSpaceOnUse" x="-2.3" y="-2.9" width="15.9" height="15" id="mask-2_1_">
						<g class="st2">
							<path id="path-1_2_" class="st3" d="M4,7.1c-0.5,0-1-0.2-1.3-0.6L0.9,4.9c-0.2-0.2-0.2-0.4,0-0.6c0.2-0.2,0.4-0.2,0.6,0
								L3.2,6C3.4,6.2,3.7,6.3,4,6.3c0.3,0,0.5-0.1,0.7-0.3l4.4-4.4c0.2-0.2,0.4-0.2,0.6,0c0.2,0.2,0.2,0.4,0,0.6L5.3,6.6
								C4.9,6.9,4.5,7.1,4,7.1"/>
						</g>
					</mask>
					<g id="swatch_x2F_brown" class="st4">
						<g id="Rectangle">
							<rect x="-2.3" y="-2.9" class="st5" width="15.9" height="15"/>
						</g>
					</g>
				</g>
			</g>
		</g>
	</g>
</g>
</svg>
