<?xml version="1.0" encoding="UTF-8"?>
<svg width="653px" height="940px" viewBox="0 0 653 940" version="1.1" xmlns="http://www.w3.org/2000/svg" xmlns:xlink="http://www.w3.org/1999/xlink">
    <!-- Generator: Sketch 52.5 (67469) - http://www.bohemiancoding.com/sketch -->
    <title>Group 7</title>
    <desc>Created with Sketch.</desc>
    <defs>
        <linearGradient x1="50%" y1="50%" x2="21.8294098%" y2="20.5891495%" id="linearGradient-1">
            <stop stop-color="#8D7047" offset="0%"></stop>
            <stop stop-color="#BB9A6D" offset="100%"></stop>
        </linearGradient>
    </defs>
    <g id="Page-1" stroke="none" stroke-width="1" fill="none" fill-rule="evenodd">
        <g id="쌍커풀_비절개" transform="translate(-900.000000, -3397.000000)">
            <g id="Group-7" transform="translate(875.000000, 3398.000000)">
                <polygon id="Polygon-2-Copy-9" stroke="#604B2E" opacity="0.100000001" points="351.5 0 514.745789 94.25 514.745789 282.75 351.5 377 188.254211 282.75 188.254211 94.25"></polygon>
                <g id="1" transform="translate(0.000000, 280.000000)">
                    <polygon id="Polygon-2-Copy-3" fill="url(#linearGradient-1)" points="188.5 0 351.745789 94.25 351.745789 282.75 188.5 377 25.2542114 282.75 25.2542114 94.25"></polygon>
                    <path d="M124.906,220 L124.906,218.47 C128.524,215.23 130.666,212.728 130.666,210.676 C130.666,209.326 129.928,208.516 128.668,208.516 C127.696,208.516 126.886,209.146 126.22,209.884 L124.78,208.444 C126.004,207.148 127.192,206.428 129.01,206.428 C131.53,206.428 133.204,208.048 133.204,210.532 C133.204,212.944 131.206,215.536 128.776,217.912 C129.442,217.84 130.324,217.768 130.936,217.768 L133.834,217.768 L133.834,220 L124.906,220 Z M139.702,220.252 C137.596,220.252 136.192,219.424 135.202,218.434 L136.426,216.742 C137.182,217.48 138.118,218.092 139.36,218.092 C140.746,218.092 141.718,217.21 141.718,215.644 C141.718,214.096 140.818,213.232 139.468,213.232 C138.676,213.232 138.244,213.43 137.47,213.934 L136.264,213.142 L136.624,206.68 L143.752,206.68 L143.752,208.894 L138.91,208.894 L138.658,211.72 C139.18,211.468 139.648,211.342 140.26,211.342 C142.492,211.342 144.364,212.674 144.364,215.572 C144.364,218.542 142.168,220.252 139.702,220.252 Z M157.594,217.156 L157.594,211.774 L153.58,211.774 L153.58,209.902 L157.594,209.902 L157.594,208.678 L153.58,208.678 L153.58,206.806 L157.594,206.806 L157.594,204.97 L159.97,204.97 L159.97,217.156 L157.594,217.156 Z M155.236,212.566 L155.47,214.492 C153.022,214.942 150.826,215.032 148.342,215.032 L147.01,215.032 L147.01,206.014 L149.368,206.014 L149.368,213.088 C151.366,213.052 153.202,212.926 155.236,212.566 Z M151.42,219.37 L160.348,219.37 L160.348,221.26 L149.044,221.26 L149.044,216.076 L151.42,216.076 L151.42,219.37 Z M178.114,204.952 L180.49,204.952 L180.49,221.584 L178.114,221.584 L178.114,204.952 Z M171.58,206.122 C174.082,206.122 175.936,208.39 175.936,212.026 C175.936,215.68 174.082,217.966 171.58,217.966 C169.078,217.966 167.224,215.68 167.224,212.026 C167.224,208.39 169.078,206.122 171.58,206.122 Z M171.58,208.264 C170.356,208.264 169.51,209.578 169.51,212.026 C169.51,214.492 170.356,215.806 171.58,215.806 C172.804,215.806 173.65,214.492 173.65,212.026 C173.65,209.578 172.804,208.264 171.58,208.264 Z M193.09,212.314 L191.848,214.15 C190.102,213.574 188.896,212.458 188.194,211.054 C187.474,212.692 186.196,213.97 184.306,214.618 L183.064,212.746 C185.836,211.828 186.952,209.614 186.952,207.364 L186.952,205.87 L189.364,205.87 L189.364,207.562 C189.364,209.56 190.48,211.504 193.09,212.314 Z M190.948,219.712 C193.054,219.712 194.188,219.28 194.188,218.344 C194.188,217.426 193.054,216.994 190.948,216.994 C188.824,216.994 187.69,217.426 187.69,218.344 C187.69,219.28 188.824,219.712 190.948,219.712 Z M190.948,215.158 C194.386,215.158 196.546,216.346 196.546,218.344 C196.546,220.36 194.386,221.548 190.948,221.548 C187.492,221.548 185.332,220.36 185.332,218.344 C185.332,216.346 187.492,215.158 190.948,215.158 Z M196.366,208.822 L198.562,208.822 L198.562,210.784 L196.366,210.784 L196.366,214.78 L193.99,214.78 L193.99,204.988 L196.366,204.988 L196.366,208.822 Z M212.656,217.768 L218.974,217.768 L218.974,219.694 L203.962,219.694 L203.962,217.768 L210.28,217.768 L210.28,213.988 L205.654,213.988 L205.654,206.23 L208.03,206.23 L208.03,212.098 L217.39,212.098 L217.39,213.988 L212.656,213.988 L212.656,217.768 Z M225.31,216.22 C226.426,216.22 227.236,215.464 227.236,214.186 C227.236,212.944 226.426,212.17 225.31,212.17 C224.194,212.17 223.366,212.944 223.366,214.204 C223.366,215.464 224.194,216.22 225.31,216.22 Z M225.31,210.244 C227.704,210.244 229.486,211.882 229.486,214.186 C229.486,216.526 227.704,218.164 225.31,218.164 C222.898,218.164 221.098,216.526 221.098,214.186 C221.098,211.882 222.898,210.244 225.31,210.244 Z M226.48,205.258 L226.48,207.418 L230.08,207.418 L230.08,209.308 L220.432,209.308 L220.432,207.418 L224.104,207.418 L224.104,205.258 L226.48,205.258 Z M235.912,211.45 L235.912,213.412 L233.536,213.412 L233.536,221.548 L231.16,221.548 L231.16,204.97 L233.536,204.97 L233.536,211.45 L235.912,211.45 Z M244.552,207.418 C242.374,207.418 240.988,208.066 240.988,209.254 C240.988,210.46 242.374,211.108 244.552,211.108 C246.712,211.108 248.098,210.46 248.098,209.254 C248.098,208.066 246.712,207.418 244.552,207.418 Z M244.552,212.998 C241.006,212.998 238.558,211.54 238.558,209.254 C238.558,207.004 241.006,205.528 244.552,205.528 C248.08,205.528 250.546,207.004 250.546,209.254 C250.546,211.54 248.08,212.998 244.552,212.998 Z M252.094,214.24 L252.094,216.148 L245.722,216.148 L245.722,221.566 L243.346,221.566 L243.346,216.148 L237.082,216.148 L237.082,214.24 L252.094,214.24 Z" id="25년-이상-노하우" fill="#FFFFFF"></path>
                    <path d="M141.403,246.744 L141.403,241.812 L137.785,241.812 L137.785,240.714 L141.403,240.714 L141.403,237.222 L142.717,237.222 L142.717,246.744 L141.403,246.744 Z M138.901,244.926 L138.199,245.952 C136.435,245.286 135.013,243.954 134.311,242.226 C133.645,244.17 132.133,245.682 130.207,246.42 L129.505,245.358 C131.935,244.494 133.627,242.352 133.627,239.832 L133.627,238.14 L134.923,238.14 L134.923,239.796 C134.923,242.082 136.597,244.098 138.901,244.926 Z M137.425,252.216 C139.927,252.216 141.475,251.496 141.475,250.254 C141.475,249.03 139.927,248.292 137.425,248.292 C134.959,248.292 133.411,249.03 133.411,250.254 C133.411,251.496 134.959,252.216 137.425,252.216 Z M137.425,247.23 C140.755,247.23 142.771,248.346 142.771,250.254 C142.771,252.162 140.755,253.278 137.425,253.278 C134.131,253.278 132.115,252.162 132.115,250.254 C132.115,248.346 134.131,247.23 137.425,247.23 Z M155.119,241.128 L157.963,241.128 L157.963,237.204 L159.277,237.204 L159.277,247.608 L157.963,247.608 L157.963,245.34 L155.101,245.34 L155.101,244.242 L157.963,244.242 L157.963,242.208 L155.119,242.208 L155.119,241.128 Z M155.137,239.04 L155.137,240.12 L146.101,240.12 L146.101,239.04 L150.025,239.04 L150.025,237.06 L151.339,237.06 L151.339,239.04 L155.137,239.04 Z M148.279,243.972 C148.279,245.124 149.233,245.916 150.655,245.916 C152.077,245.916 153.049,245.124 153.049,243.972 C153.049,242.802 152.077,242.028 150.655,242.028 C149.233,242.028 148.279,242.802 148.279,243.972 Z M154.273,243.972 C154.273,245.772 152.815,246.942 150.655,246.942 C148.513,246.942 147.037,245.754 147.037,243.972 C147.037,242.19 148.513,240.984 150.655,240.984 C152.815,240.984 154.273,242.19 154.273,243.972 Z M154.021,252.252 C156.487,252.252 157.999,251.622 157.999,250.542 C157.999,249.462 156.487,248.85 154.021,248.85 C151.573,248.85 150.061,249.462 150.061,250.542 C150.061,251.622 151.573,252.252 154.021,252.252 Z M154.021,247.788 C157.351,247.788 159.349,248.796 159.349,250.542 C159.349,252.27 157.351,253.278 154.021,253.278 C150.691,253.278 148.693,252.27 148.693,250.542 C148.693,248.796 150.691,247.788 154.021,247.788 Z M164.839,242.01 C164.839,243.54 166.117,244.638 167.845,244.638 C169.609,244.638 170.869,243.54 170.869,242.01 C170.869,240.48 169.609,239.4 167.845,239.4 C166.117,239.4 164.839,240.48 164.839,242.01 Z M168.511,245.736 L168.511,248.562 C170.131,248.49 171.751,248.364 173.281,248.112 L173.389,249.084 C169.753,249.768 165.829,249.786 162.931,249.786 L162.733,248.67 C164.047,248.67 165.577,248.67 167.197,248.616 L167.197,245.736 C165.037,245.484 163.579,244.026 163.579,242.01 C163.579,239.778 165.361,238.266 167.845,238.266 C170.365,238.266 172.147,239.778 172.147,242.01 C172.147,244.026 170.671,245.484 168.511,245.736 Z M174.379,237.186 L175.675,237.186 L175.675,253.332 L174.379,253.332 L174.379,237.186 Z M187.555,246.222 L186.241,246.096 C186.691,243.342 186.727,241.344 186.727,240.084 L179.923,240.084 L179.923,238.986 L188.023,238.986 L188.023,239.796 C188.023,241.038 188.023,243.18 187.555,246.222 Z M183.811,243.594 L183.811,248.544 C185.611,248.49 187.447,248.382 189.121,248.166 L189.211,249.138 C185.863,249.66 182.047,249.732 179.185,249.75 L179.023,248.634 C180.085,248.634 181.273,248.616 182.515,248.598 L182.515,243.594 L183.811,243.594 Z M194.125,243.99 L194.125,245.106 L191.479,245.106 L191.479,253.314 L190.165,253.314 L190.165,237.204 L191.479,237.204 L191.479,243.99 L194.125,243.99 Z M208.309,241.704 L211.657,241.704 L211.657,237.222 L212.971,237.222 L212.971,249.048 L211.657,249.048 L211.657,242.802 L208.309,242.802 L208.309,241.704 Z M209.209,245.502 L208.543,246.528 C206.743,245.88 205.321,244.512 204.619,242.838 C203.935,244.728 202.423,246.222 200.533,246.924 L199.831,245.88 C202.189,245.034 203.935,242.892 203.935,240.57 L203.935,239.652 L200.263,239.652 L200.263,238.554 L208.867,238.554 L208.867,239.652 L205.249,239.652 L205.249,240.552 C205.249,242.658 206.923,244.692 209.209,245.502 Z M204.061,251.856 L213.439,251.856 L213.439,252.954 L202.747,252.954 L202.747,247.986 L204.061,247.986 L204.061,251.856 Z M227.713,242.496 L227.713,239.058 L219.487,239.058 L219.487,242.496 L227.713,242.496 Z M228.991,237.978 L228.991,243.576 L218.191,243.576 L218.191,237.978 L228.991,237.978 Z M219.487,248.346 L219.487,251.856 L229.279,251.856 L229.279,252.954 L218.173,252.954 L218.173,248.346 L219.487,248.346 Z M216.283,245.484 L230.917,245.484 L230.917,246.564 L224.347,246.564 L224.347,249.93 L223.033,249.93 L223.033,246.564 L216.283,246.564 L216.283,245.484 Z M238.117,238.41 C240.619,238.41 242.401,239.922 242.401,242.154 C242.401,244.386 240.619,245.898 238.117,245.898 C235.615,245.898 233.833,244.386 233.833,242.154 C233.833,239.922 235.615,238.41 238.117,238.41 Z M238.117,239.544 C236.371,239.544 235.093,240.624 235.093,242.154 C235.093,243.684 236.371,244.782 238.117,244.782 C239.863,244.782 241.123,243.684 241.123,242.154 C241.123,240.624 239.863,239.544 238.117,239.544 Z M244.633,237.204 L245.929,237.204 L245.929,253.332 L244.633,253.332 L244.633,237.204 Z M233.185,249.75 L232.987,248.634 C235.939,248.634 240.025,248.634 243.535,248.076 L243.643,249.048 C240.025,249.732 236.083,249.75 233.185,249.75 Z M121.531,268.434 L124.843,268.434 L124.843,264.222 L126.157,264.222 L126.157,273.798 L124.843,273.798 L124.843,269.532 L121.531,269.532 L121.531,268.434 Z M122.395,272.124 L121.729,273.168 C119.929,272.502 118.507,271.134 117.805,269.46 C117.139,271.386 115.609,272.898 113.719,273.636 L113.035,272.574 C115.375,271.71 117.121,269.55 117.121,267.192 L117.121,266.526 L113.449,266.526 L113.449,265.428 L122.053,265.428 L122.053,266.526 L118.435,266.526 L118.435,267.192 C118.435,269.298 120.109,271.314 122.395,272.124 Z M120.865,279.252 C123.367,279.252 124.915,278.532 124.915,277.308 C124.915,276.084 123.367,275.364 120.865,275.364 C118.399,275.364 116.851,276.084 116.851,277.308 C116.851,278.532 118.399,279.252 120.865,279.252 Z M120.865,274.32 C124.195,274.32 126.211,275.418 126.211,277.308 C126.211,279.198 124.195,280.296 120.865,280.296 C117.571,280.296 115.555,279.198 115.555,277.308 C115.555,275.418 117.571,274.32 120.865,274.32 Z M140.971,267.678 L140.971,266.976 L131.035,266.976 L131.035,265.878 L142.267,265.878 L142.267,267.678 C142.267,269.766 142.267,271.836 141.709,274.77 L140.395,274.626 C140.971,271.8 140.971,269.712 140.971,267.678 Z M138.451,276.894 L144.049,276.894 L144.049,277.992 L129.505,277.992 L129.505,276.894 L133.177,276.894 L133.177,271.53 L134.473,271.53 L134.473,276.894 L137.155,276.894 L137.155,271.53 L138.451,271.53 L138.451,276.894 Z M155.641,266.238 L155.641,267.318 L146.137,267.318 L146.137,266.238 L150.223,266.238 L150.223,264.24 L151.537,264.24 L151.537,266.238 L155.641,266.238 Z M148.279,271.242 C148.279,272.394 149.323,273.168 150.871,273.168 C152.401,273.168 153.463,272.394 153.463,271.242 C153.463,270.072 152.401,269.28 150.871,269.28 C149.323,269.28 148.279,270.072 148.279,271.242 Z M154.705,271.242 C154.705,273.024 153.157,274.212 150.871,274.212 C148.585,274.212 147.037,273.024 147.037,271.242 C147.037,269.424 148.585,268.236 150.871,268.236 C153.157,268.236 154.705,269.424 154.705,271.242 Z M149.881,275.328 L149.881,278.856 L159.259,278.856 L159.259,279.954 L148.567,279.954 L148.567,275.328 L149.881,275.328 Z M158.521,269.604 L160.933,269.604 L160.933,270.702 L158.521,270.702 L158.521,276.3 L157.207,276.3 L157.207,264.24 L158.521,264.24 L158.521,269.604 Z M179.833,264.222 L179.833,272.574 L178.519,272.574 L178.519,264.222 L179.833,264.222 Z M170.293,266.382 L170.293,270.846 C171.211,270.81 172.147,270.774 173.083,270.72 L173.083,266.382 L170.293,266.382 Z M176.827,270.414 L176.881,271.386 C173.695,271.854 169.897,271.98 167.053,271.98 L166.927,270.882 C167.575,270.882 168.295,270.882 169.015,270.864 L169.015,266.382 L167.359,266.382 L167.359,265.32 L175.999,265.32 L175.999,266.382 L174.343,266.382 L174.343,270.666 C175.189,270.594 176.017,270.522 176.827,270.414 Z M170.743,279.036 L180.463,279.036 L180.463,280.116 L169.447,280.116 L169.447,276.174 L178.519,276.174 L178.519,274.428 L169.393,274.428 L169.393,273.366 L179.833,273.366 L179.833,277.164 L170.743,277.164 L170.743,279.036 Z M185.107,271.296 L185.107,275.328 C187.951,275.328 189.931,275.238 192.307,274.806 L192.433,275.886 C189.985,276.318 187.969,276.426 185.017,276.426 L183.811,276.426 L183.811,270.216 L189.661,270.216 L189.661,266.814 L183.775,266.814 L183.775,265.716 L190.957,265.716 L190.957,271.296 L185.107,271.296 Z M195.097,264.186 L196.411,264.186 L196.411,280.314 L195.097,280.314 L195.097,271.566 L191.929,271.566 L191.929,270.468 L195.097,270.468 L195.097,264.186 Z M205.375,265.644 L205.375,268.632 C205.375,271.566 207.409,274.518 209.713,275.598 L208.939,276.642 C207.121,275.742 205.501,273.78 204.727,271.44 C204.007,273.906 202.369,275.958 200.515,276.93 L199.705,275.85 C202.027,274.752 204.079,271.674 204.079,268.632 L204.079,265.644 L205.375,265.644 Z M211.585,264.204 L212.899,264.204 L212.899,280.332 L211.585,280.332 L211.585,264.204 Z M230.071,268.866 L229.621,269.874 C227.137,269.532 224.599,268.398 223.591,266.616 C222.601,268.398 220.081,269.532 217.579,269.874 L217.129,268.866 C219.919,268.542 222.925,266.994 222.925,264.942 L222.925,264.276 L224.275,264.276 L224.275,264.942 C224.275,266.994 227.281,268.542 230.071,268.866 Z M230.881,272.088 L224.239,272.088 L224.239,273.762 L228.991,273.762 L228.991,277.344 L219.433,277.344 L219.433,279.054 L229.477,279.054 L229.477,280.116 L218.155,280.116 L218.155,276.372 L227.695,276.372 L227.695,274.806 L218.101,274.806 L218.101,273.762 L222.943,273.762 L222.943,272.088 L216.337,272.088 L216.337,271.008 L230.881,271.008 L230.881,272.088 Z M245.785,268.776 L245.785,269.856 L234.877,269.856 L234.877,264.546 L236.191,264.546 L236.191,268.776 L245.785,268.776 Z M240.151,279.198 C242.743,279.198 244.327,278.514 244.327,277.326 C244.327,276.138 242.761,275.454 240.151,275.454 C237.559,275.454 235.975,276.138 235.975,277.326 C235.975,278.514 237.559,279.198 240.151,279.198 Z M240.151,274.41 C243.589,274.41 245.659,275.472 245.659,277.326 C245.659,279.18 243.589,280.242 240.151,280.242 C236.713,280.242 234.661,279.18 234.661,277.326 C234.661,275.472 236.713,274.41 240.151,274.41 Z M232.897,271.818 L247.441,271.818 L247.441,272.898 L232.897,272.898 L232.897,271.818 Z M257.971,271.854 L258.115,272.934 C256.117,273.294 254.515,273.348 251.257,273.348 L250.123,273.348 L250.123,268.614 L255.703,268.614 L255.703,266.274 L250.087,266.274 L250.087,265.176 L256.981,265.176 L256.981,269.64 L251.419,269.64 L251.419,272.25 C254.515,272.25 256.081,272.196 257.971,271.854 Z M251.923,276.084 L251.923,275.004 L262.651,275.004 L262.651,280.35 L261.337,280.35 L261.337,276.084 L251.923,276.084 Z M261.337,264.222 L262.651,264.222 L262.651,274.122 L261.337,274.122 L261.337,271.044 L258.097,271.044 L258.097,269.946 L261.337,269.946 L261.337,267.732 L258.097,267.732 L258.097,266.634 L261.337,266.634 L261.337,264.222 Z" id="성형외과-전문의-정교한-필러시술능력" fill="#FFFFFF" opacity="0.6"></path>
                    <path d="M154,135.26 L154,139.95 C154,145.935 156.555,151.815 162.015,154.16 L159.39,157.905 C155.68,156.225 153.195,153.04 151.76,149.085 C150.325,153.39 147.7,156.855 143.85,158.675 L141.085,154.86 C146.72,152.445 149.38,146.215 149.38,139.95 L149.38,135.26 L154,135.26 Z M163.59,132.74 L168.21,132.74 L168.21,165.08 L163.59,165.08 L163.59,132.74 Z M201.39,140.615 L199.85,144.08 C194.285,143.485 190.295,141.385 188.265,138.445 C186.235,141.385 182.21,143.485 176.645,144.08 L175.14,140.615 C182.385,139.915 185.885,136.66 185.885,133.545 L185.885,132.95 L190.645,132.95 L190.645,133.545 C190.645,136.66 194.145,139.915 201.39,140.615 Z M202.825,149.05 L190.54,149.05 L190.54,151.115 L199.29,151.115 L199.29,159.48 L181.65,159.48 L181.65,161.3 L200.13,161.3 L200.13,164.765 L177.065,164.765 L177.065,156.295 L194.74,156.295 L194.74,154.545 L177.03,154.545 L177.03,151.115 L185.92,151.115 L185.92,149.05 L173.705,149.05 L173.705,145.41 L202.825,145.41 L202.825,149.05 Z M225.33,137.465 C228.456682,137.465 230.883325,138.217492 232.61,139.7225 C234.336675,141.227508 235.2,143.344986 235.2,146.075 C235.2,148.968348 234.336675,151.214159 232.61,152.8125 C230.883325,154.410841 228.456682,155.21 225.33,155.21 L220.955,155.21 L220.955,162 L214.55,162 L214.55,137.465 L225.33,137.465 Z M225.015,150.1 C226.321673,150.1 227.33083,149.773337 228.0425,149.12 C228.75417,148.466663 229.11,147.521673 229.11,146.285 C229.11,145.094994 228.75417,144.17917 228.0425,143.5375 C227.33083,142.89583 226.321673,142.575 225.015,142.575 L220.955,142.575 L220.955,150.1 L225.015,150.1 Z M247.135,142.855 C249.188344,142.855 250.996659,143.257496 252.56,144.0625 C254.123341,144.867504 255.336662,145.999159 256.2,147.4575 C257.063338,148.915841 257.495,150.601657 257.495,152.515 C257.495,154.451676 257.063338,156.149159 256.2,157.6075 C255.336662,159.065841 254.123341,160.197496 252.56,161.0025 C250.996659,161.807504 249.188344,162.21 247.135,162.21 C245.081656,162.21 243.273341,161.807504 241.71,161.0025 C240.146659,160.197496 238.939171,159.065841 238.0875,157.6075 C237.235829,156.149159 236.81,154.451676 236.81,152.515 C236.81,150.601657 237.235829,148.915841 238.0875,147.4575 C238.939171,145.999159 240.146659,144.867504 241.71,144.0625 C243.273341,143.257496 245.081656,142.855 247.135,142.855 Z M247.135,147.895 C245.921661,147.895 244.94167,148.326662 244.195,149.19 C243.44833,150.053338 243.075,151.184993 243.075,152.585 C243.075,154.00834 243.44833,155.151662 244.195,156.015 C244.94167,156.878338 245.921661,157.31 247.135,157.31 C248.371673,157.31 249.36333,156.878338 250.11,156.015 C250.85667,155.151662 251.23,154.00834 251.23,152.585 C251.23,151.184993 250.850837,150.053338 250.0925,149.19 C249.334163,148.326662 248.348339,147.895 247.135,147.895 Z M260.68,143.065 L266.875,143.065 L266.875,162 L260.68,162 L260.68,143.065 Z M263.725,134.35 C264.681671,134.35 265.469164,134.659164 266.0875,135.2775 C266.705836,135.895836 267.015,136.694995 267.015,137.675 C267.015,138.631671 266.705836,139.424997 266.0875,140.055 C265.469164,140.685003 264.681671,141 263.725,141 C262.768329,141 261.980836,140.685003 261.3625,140.055 C260.744164,139.424997 260.435,138.631671 260.435,137.675 C260.435,136.694995 260.744164,135.895836 261.3625,135.2775 C261.980836,134.659164 262.768329,134.35 263.725,134.35 Z M284.13,142.82 C286.206677,142.82 287.86916,143.473327 289.1175,144.78 C290.36584,146.086673 290.99,147.848322 290.99,150.065 L290.99,162 L284.795,162 L284.795,151.85 C284.795,150.776661 284.503336,149.930836 283.92,149.3125 C283.336664,148.694164 282.555005,148.385 281.575,148.385 C280.548328,148.408333 279.702503,148.746663 279.0375,149.4 C278.372497,150.053337 277.981667,150.916661 277.865,151.99 L277.865,162 L271.635,162 L271.635,143.065 L277.865,143.065 L277.865,146.145 C278.54167,145.048328 279.410828,144.220003 280.4725,143.66 C281.534172,143.099997 282.753326,142.82 284.13,142.82 Z M307.545,161.02 C306.844996,161.416669 306.040005,161.725832 305.13,161.9475 C304.219995,162.169168 303.298338,162.28 302.365,162.28 C300.498324,162.28 298.987506,161.743339 297.8325,160.67 C296.677494,159.596661 296.1,158.115009 296.1,156.225 L296.1,148.105 L293.475,148.105 L293.475,143.975 L296.1,143.975 L296.1,138.725 L302.295,138.725 L302.295,143.975 L307.195,143.975 L307.195,148.105 L302.295,148.105 L302.295,155.245 C302.295,156.575007 302.843328,157.24 303.94,157.24 C304.61667,157.24 305.421662,157.030002 306.355,156.61 L307.545,161.02 Z M309.925,137.605 L315.84,137.605 L315.84,143.87 L314.755,153.495 L311.01,153.495 L309.925,143.87 L309.925,137.605 Z M312.76,156.225 C313.646671,156.225 314.369997,156.504997 314.93,157.065 C315.490003,157.625003 315.77,158.348329 315.77,159.235 C315.77,160.121671 315.490003,160.85083 314.93,161.4225 C314.369997,161.99417 313.646671,162.28 312.76,162.28 C311.896662,162.28 311.185003,161.99417 310.625,161.4225 C310.064997,160.85083 309.785,160.121671 309.785,159.235 C309.785,158.348329 310.059164,157.625003 310.6075,157.065 C311.155836,156.504997 311.873329,156.225 312.76,156.225 Z" id="시술-Point!" fill="#FFFFFF"></path>
                    <g id="Group-6" transform="translate(56.000000, 66.000000)">
                        <path d="M17.65,31.65 C22.6166915,31.65 26.4416533,33.183318 29.125,36.25 C31.8083467,39.316682 33.15,43.716638 33.15,49.45 C33.15,55.183362 31.8083467,59.5916512 29.125,62.675 C26.4416533,65.7583487 22.6166915,67.3 17.65,67.3 C12.6166415,67.3 8.75834675,65.7583487 6.075,62.675 C3.39165325,59.5916512 2.05,55.183362 2.05,49.45 C2.05,43.716638 3.39165325,39.316682 6.075,36.25 C8.75834675,33.183318 12.6166415,31.65 17.65,31.65 Z M17.65,38.45 C15.449989,38.45 13.8666715,39.3083248 12.9,41.025 C11.9333285,42.7416753 11.45,45.5499805 11.45,49.45 C11.45,53.383353 11.9333285,56.2083248 12.9,57.925 C13.8666715,59.6416752 15.449989,60.5 17.65,60.5 C19.783344,60.5 21.3416617,59.633342 22.325,57.9 C23.3083383,56.166658 23.8,53.3500195 23.8,49.45 C23.8,45.5499805 23.3083383,42.7416753 22.325,41.025 C21.3416617,39.3083248 19.783344,38.45 17.65,38.45 Z M34.4,31.95 L50.3,31.95 L50.3,67 L41.15,67 L41.15,39.45 L34.4,39.45 L34.4,31.95 Z" id="01" fill="#FFFFFF"></path>
                        <rect id="Rectangle-2" fill="#D8D8D8" opacity="0.5" transform="translate(72.708892, 66.708892) rotate(45.000000) translate(-72.708892, -66.708892) " x="72.2088924" y="16.7088924" width="1" height="100"></rect>
                    </g>
                </g>
                <g id="2" transform="translate(326.000000, 280.000000)">
                    <polygon id="Polygon-2-Copy-4" fill="url(#linearGradient-1)" points="188.5 0 351.745789 94.25 351.745789 282.75 188.5 377 25.2542114 282.75 25.2542114 94.25"></polygon>
                    <path d="M95.395,220 L91.453,220 L88.141,215.104 L86.557,216.868 L86.557,220 L83.263,220 L83.263,207.382 L86.557,207.382 L86.557,212.854 L91.291,207.382 L95.107,207.382 L90.427,212.584 L95.395,220 Z M96.745,207.382 L106.177,207.382 L106.159,210.01 L100.039,210.01 L100.039,212.818 L105.691,212.818 L105.691,215.446 L100.039,215.446 L100.039,220 L96.745,220 L96.745,207.382 Z M113.107,207.382 C114.427007,207.382 115.593995,207.645997 116.608,208.174 C117.622005,208.702003 118.410997,209.442995 118.975,210.397 C119.539003,211.351005 119.821,212.445994 119.821,213.682 C119.821,214.918006 119.536003,216.015995 118.966,216.976 C118.395997,217.936005 117.592005,218.679997 116.554,219.208 C115.515995,219.736003 114.325007,220 112.981,220 L107.671,220 L107.671,207.382 L113.107,207.382 Z M113.197,217.336 C113.833003,217.336 114.396998,217.186002 114.889,216.886 C115.381002,216.585998 115.764999,216.160003 116.041,215.608 C116.317001,215.055997 116.455,214.426004 116.455,213.718 C116.455,212.997996 116.308001,212.362003 116.014,211.81 C115.719999,211.257997 115.315003,210.829002 114.799,210.523 C114.282997,210.216998 113.695003,210.064 113.035,210.064 L110.965,210.064 L110.965,217.336 L113.197,217.336 Z M130.387,220 L129.523,217.768 L124.069,217.768 L123.187,220 L119.803,220 L125.221,207.382 L128.605,207.382 L133.897,220 L130.387,220 Z M125.059,215.248 L128.551,215.248 L126.823,210.748 L125.059,215.248 Z M136.021,217.048 C136.453002,217.048 136.815999,217.182999 137.11,217.453 C137.404001,217.723001 137.551,218.097998 137.551,218.578 C137.551,218.938002 137.413001,219.345998 137.137,219.802 L135.697,222.196 L134.167,222.196 L135.103,219.802 C134.694998,219.513999 134.491,219.106003 134.491,218.578 C134.491,218.133998 134.634999,217.768001 134.923,217.48 C135.211001,217.191999 135.576998,217.048 136.021,217.048 Z M152.527,211.666 C152.118998,211.149997 151.633003,210.739002 151.069,210.433 C150.504997,210.126998 149.947003,209.974 149.395,209.974 C148.758997,209.974 148.180003,210.132998 147.658,210.451 C147.135997,210.769002 146.725001,211.206997 146.425,211.765 C146.124999,212.323003 145.975,212.943997 145.975,213.628 C145.975,214.312003 146.124999,214.932997 146.425,215.491 C146.725001,216.049003 147.135997,216.486998 147.658,216.805 C148.180003,217.123002 148.758997,217.282 149.395,217.282 C149.911003,217.282 150.450997,217.150001 151.015,216.886 C151.579003,216.621999 152.082998,216.262002 152.527,215.806 L154.453,217.876 C153.768997,218.596004 152.956005,219.168998 152.014,219.595 C151.071995,220.021002 150.139005,220.234 149.215,220.234 C147.966994,220.234 146.839005,219.946003 145.831,219.37 C144.822995,218.793997 144.031003,218.008005 143.455,217.012 C142.878997,216.015995 142.591,214.900006 142.591,213.664 C142.591,212.439994 142.884997,211.336005 143.473,210.352 C144.061003,209.367995 144.867995,208.594003 145.894,208.03 C146.920005,207.465997 148.068994,207.184 149.341,207.184 C150.277005,207.184 151.200995,207.378998 152.113,207.769 C153.025005,208.159002 153.798997,208.689997 154.435,209.362 L152.527,211.666 Z M155.857,207.382 L165.811,207.382 L165.811,210.01 L159.151,210.01 L159.151,212.368 L165.163,212.368 L165.163,214.978 L159.151,214.996 L159.151,217.372 L165.991,217.372 L165.991,220 L155.857,220 L155.857,207.382 Z M181.309,207.418 L181.309,209.344 L171.643,209.344 L171.643,207.418 L175.315,207.418 L175.315,205.258 L177.691,205.258 L177.691,207.418 L181.309,207.418 Z M176.485,216.166 C177.511,216.166 178.303,215.428 178.303,214.204 C178.303,212.98 177.511,212.242 176.485,212.242 C175.477,212.242 174.703,212.98 174.703,214.204 C174.703,215.428 175.477,216.166 176.485,216.166 Z M176.485,210.244 C178.771,210.244 180.481,211.918 180.481,214.204 C180.481,216.49 178.771,218.164 176.485,218.164 C174.217,218.164 172.507,216.49 172.507,214.204 C172.507,211.918 174.217,210.244 176.485,210.244 Z M183.181,204.97 L185.557,204.97 L185.557,221.548 L183.181,221.548 L183.181,213.412 L181.003,213.412 L181.003,211.486 L183.181,211.486 L183.181,204.97 Z M188.959,206.662 L196.771,206.662 C196.771,211.63 194.881,215.896 189.373,218.686 L188.041,216.868 C191.893,214.888 193.945,212.26 194.377,208.588 L188.959,208.588 L188.959,206.662 Z M203.503,211.288 L203.503,213.25 L201.181,213.25 L201.181,221.512 L198.805,221.512 L198.805,204.952 L201.181,204.952 L201.181,211.288 L203.503,211.288 Z M213.295,215.806 C214.519,215.806 215.365,214.492 215.365,212.026 C215.365,209.578 214.519,208.264 213.295,208.264 C212.053,208.264 211.225,209.578 211.225,212.026 C211.225,214.492 212.053,215.806 213.295,215.806 Z M213.295,206.122 C215.797,206.122 217.651,208.39 217.651,212.026 C217.651,215.68 215.797,217.966 213.295,217.966 C210.775,217.966 208.939,215.68 208.939,212.026 C208.939,208.39 210.775,206.122 213.295,206.122 Z M224.239,211.216 L224.239,213.178 L221.827,213.178 L221.827,221.548 L219.451,221.548 L219.451,204.97 L221.827,204.97 L221.827,211.216 L224.239,211.216 Z M228.145,213.088 L228.145,215.986 C229.873,215.968 231.169,215.896 232.663,215.662 L232.861,217.552 C230.989,217.858 229.405,217.894 227.029,217.894 L225.895,217.894 L225.895,206.788 L232.033,206.788 L232.033,208.678 L228.145,208.678 L228.145,211.252 L231.403,211.252 L231.403,213.088 L228.145,213.088 Z M233.959,211 L233.959,205.276 L236.173,205.276 L236.173,220.81 L233.959,220.81 L233.959,212.926 L232.159,212.926 L232.159,211 L233.959,211 Z M237.397,204.952 L239.647,204.952 L239.647,221.53 L237.397,221.53 L237.397,204.952 Z M243.229,208.084 L252.895,207.868 C252.895,207.598 252.913,207.328 252.913,207.094 L243.661,207.094 L243.661,205.294 L255.253,205.294 L255.253,206.356 C255.253,207.508 255.253,209.056 254.893,211.108 L252.535,210.982 C252.643,210.46 252.715,209.956 252.769,209.488 L243.481,209.884 L243.229,208.084 Z M246.055,218.722 L246.055,219.514 L255.559,219.514 L255.559,221.296 L243.697,221.296 L243.697,217.102 L252.787,217.102 L252.787,216.202 L243.679,216.202 L243.679,214.456 L255.127,214.456 L255.127,218.722 L246.055,218.722 Z M249.925,211.774 L256.927,211.774 L256.927,213.61 L242.005,213.61 L242.005,211.774 L247.549,211.774 L247.549,210.28 L249.925,210.28 L249.925,211.774 Z M268.717,206.248 L268.717,208.66 C268.717,211.648 269.887,214.654 272.551,215.968 L271.111,217.84 C269.383,216.958 268.213,215.356 267.529,213.376 C266.809,215.482 265.567,217.228 263.695,218.146 L262.273,216.22 C265.063,214.906 266.323,211.738 266.323,208.66 L266.323,206.248 L268.717,206.248 Z M278.005,211.342 L278.005,213.322 L275.593,213.322 L275.593,221.548 L273.217,221.548 L273.217,204.97 L275.593,204.97 L275.593,211.342 L278.005,211.342 Z M286.627,219.766 C288.841,219.766 289.975,219.388 289.975,218.542 C289.975,217.696 288.841,217.336 286.627,217.336 C284.413,217.336 283.279,217.696 283.279,218.542 C283.279,219.388 284.413,219.766 286.627,219.766 Z M286.627,215.536 C290.209,215.536 292.387,216.616 292.387,218.542 C292.387,220.468 290.209,221.566 286.627,221.566 C283.045,221.566 280.885,220.468 280.885,218.542 C280.885,216.616 283.045,215.536 286.627,215.536 Z M284.917,211.45 L284.917,212.836 L288.373,212.836 L288.373,211.468 C287.851,211.522 287.275,211.558 286.663,211.558 C286.033,211.558 285.457,211.522 284.917,211.45 Z M286.663,207.022 C284.413,207.022 283.117,207.472 283.117,208.408 C283.117,209.308 284.413,209.776 286.663,209.776 C288.931,209.776 290.227,209.308 290.227,208.408 C290.227,207.472 288.931,207.022 286.663,207.022 Z M290.749,212.836 L294.151,212.836 L294.151,214.708 L279.175,214.708 L279.175,212.836 L282.541,212.836 L282.541,210.838 C281.353,210.298 280.669,209.47 280.669,208.408 C280.669,206.428 283.009,205.222 286.663,205.222 C290.335,205.222 292.675,206.428 292.675,208.408 C292.675,209.488 291.973,210.316 290.749,210.856 L290.749,212.836 Z" id="KFDA,-CE-허가-아테콜-사용" fill="#FFFFFF"></path>
                    <path d="M107.527,243.558 L107.527,239.13 L102.703,239.13 L102.703,243.558 L107.527,243.558 Z M112.531,240.444 L108.805,240.444 L108.805,242.298 L112.531,242.298 L112.531,240.444 Z M108.805,243.36 L108.805,244.62 L101.425,244.62 L101.425,238.068 L108.805,238.068 L108.805,239.382 L112.531,239.382 L112.531,237.204 L113.845,237.204 L113.845,245.484 L112.531,245.484 L112.531,243.36 L108.805,243.36 Z M104.863,252.018 L114.493,252.018 L114.493,253.08 L103.585,253.08 L103.585,249.12 L112.567,249.12 L112.567,247.392 L103.531,247.392 L103.531,246.33 L113.845,246.33 L113.845,250.146 L104.863,250.146 L104.863,252.018 Z M120.343,247.932 L120.343,251.856 L130.333,251.856 L130.333,252.954 L119.029,252.954 L119.029,247.932 L120.343,247.932 Z M129.505,244.152 L131.827,244.152 L131.827,245.232 L127.687,245.232 L127.687,249.192 L126.409,249.192 L126.409,245.232 L123.349,245.232 L123.349,249.192 L122.071,249.192 L122.071,245.232 L117.211,245.232 L117.211,244.152 L128.209,244.152 C128.623,242.082 128.623,240.588 128.623,239.292 L128.623,239.166 L119.065,239.166 L119.065,238.086 L129.901,238.086 L129.901,239.292 C129.901,240.588 129.901,242.118 129.505,244.152 Z M139.243,241.11 L139.243,242.442 C139.243,245.178 141.097,247.788 143.437,248.868 L142.681,249.876 C140.863,249.012 139.333,247.23 138.613,245.07 C137.929,247.356 136.417,249.264 134.581,250.182 L133.825,249.174 C136.147,248.04 137.947,245.286 137.947,242.442 L137.947,241.11 L134.239,241.11 L134.239,240.03 L137.947,240.03 L137.947,237.492 L139.243,237.492 L139.243,240.03 L142.879,240.03 L142.879,241.11 L139.243,241.11 Z M145.669,237.186 L146.983,237.186 L146.983,253.314 L145.669,253.314 L145.669,244.8 L142.087,244.8 L142.087,243.702 L145.669,243.702 L145.669,237.186 Z M152.617,244.386 L152.617,248.31 C155.281,248.31 157.693,248.184 160.609,247.716 L160.735,248.832 C157.765,249.282 155.335,249.408 152.617,249.408 L151.285,249.408 L151.285,243.306 L157.333,243.306 L157.333,239.814 L151.249,239.814 L151.249,238.716 L158.647,238.716 L158.647,244.386 L152.617,244.386 Z M162.193,237.186 L163.507,237.186 L163.507,253.314 L162.193,253.314 L162.193,237.186 Z M184.063,237.204 L184.063,246.474 L182.749,246.474 L182.749,237.204 L184.063,237.204 Z M177.925,243.738 L177.925,239.328 L173.047,239.328 L173.047,243.738 L177.925,243.738 Z M179.203,238.266 L179.203,244.8 L171.751,244.8 L171.751,238.266 L179.203,238.266 Z M179.707,248.652 L179.707,248.688 C179.707,250.308 182.371,251.91 185.035,252.252 L184.567,253.26 C182.209,252.918 179.977,251.766 179.041,250.236 C178.087,251.784 175.783,252.918 173.407,253.26 L172.957,252.252 C175.621,251.928 178.357,250.362 178.357,248.688 L178.357,248.652 L173.605,248.652 L173.605,247.608 L178.375,247.608 L178.375,245.988 L179.707,245.988 L179.707,247.608 L184.477,247.608 L184.477,248.652 L179.707,248.652 Z M192.109,239.31 L198.355,239.31 C198.355,243.36 196.897,247.23 192.307,249.84 L191.533,248.886 C195.313,246.78 196.843,243.738 197.059,240.408 L192.109,240.408 L192.109,239.31 Z M203.827,237.222 L205.087,237.222 L205.087,253.314 L203.827,253.314 L203.827,244.836 L201.505,244.836 L201.505,252.486 L200.263,252.486 L200.263,237.654 L201.505,237.654 L201.505,243.738 L203.827,243.738 L203.827,237.222 Z M219.919,240.588 L216.049,240.588 L216.049,242.46 L219.919,242.46 L219.919,240.588 Z M214.771,243.882 L214.771,241.398 L210.163,241.398 L210.163,243.882 L214.771,243.882 Z M216.049,243.522 L216.049,244.962 L208.867,244.962 L208.867,237.96 L210.163,237.96 L210.163,240.354 L214.771,240.354 L214.771,237.978 L216.049,237.978 L216.049,239.544 L219.919,239.544 L219.919,237.204 L221.233,237.204 L221.233,245.628 L219.919,245.628 L219.919,243.522 L216.049,243.522 Z M212.251,252.018 L221.881,252.018 L221.881,253.08 L210.973,253.08 L210.973,249.156 L219.955,249.156 L219.955,247.5 L210.919,247.5 L210.919,246.438 L221.233,246.438 L221.233,250.182 L212.251,250.182 L212.251,252.018 Z M229.783,239.886 L229.783,245.268 L233.923,245.268 L233.923,239.886 L229.783,239.886 Z M232.519,250.182 L239.197,250.182 L239.197,251.28 L224.599,251.28 L224.599,250.182 L231.205,250.182 L231.205,246.366 L225.949,246.366 L225.949,245.268 L228.469,245.268 L228.469,239.886 L225.913,239.886 L225.913,238.788 L237.793,238.788 L237.793,239.886 L235.237,239.886 L235.237,245.268 L237.775,245.268 L237.775,246.366 L232.519,246.366 L232.519,250.182 Z M250.447,245.07 L249.817,246.114 C247.981,245.484 246.577,244.188 245.875,242.55 C245.209,244.422 243.715,245.88 241.789,246.582 L241.141,245.538 C243.499,244.692 245.191,242.64 245.191,240.3 L245.191,239.526 L241.537,239.526 L241.537,238.428 L250.141,238.428 L250.141,239.526 L246.505,239.526 L246.505,240.282 C246.505,242.406 248.125,244.314 250.447,245.07 Z M248.521,252.216 C250.951,252.216 252.481,251.532 252.481,250.326 C252.481,249.156 250.951,248.454 248.521,248.454 C246.055,248.454 244.543,249.156 244.543,250.326 C244.543,251.532 246.055,252.216 248.521,252.216 Z M248.521,247.392 C251.797,247.392 253.777,248.49 253.777,250.326 C253.777,252.198 251.797,253.278 248.521,253.278 C245.245,253.278 243.247,252.198 243.247,250.326 C243.247,248.49 245.245,247.392 248.521,247.392 Z M253.615,241.362 L256.027,241.362 L256.027,242.46 L253.615,242.46 L253.615,246.942 L252.301,246.942 L252.301,237.222 L253.615,237.222 L253.615,241.362 Z M274.585,242.244 L274.585,243.324 L263.587,243.324 L263.587,237.888 L274.477,237.888 L274.477,238.986 L264.883,238.986 L264.883,242.244 L274.585,242.244 Z M269.005,252.234 C271.597,252.234 273.181,251.568 273.181,250.38 C273.181,249.21 271.615,248.544 269.005,248.544 C266.413,248.544 264.829,249.21 264.829,250.38 C264.829,251.568 266.413,252.234 269.005,252.234 Z M269.005,247.482 C272.443,247.482 274.513,248.544 274.513,250.38 C274.513,252.234 272.443,253.278 269.005,253.278 C265.567,253.278 263.515,252.234 263.515,250.38 C263.515,248.544 265.567,247.482 269.005,247.482 Z M261.733,244.926 L276.295,244.926 L276.295,246.024 L261.733,246.024 L261.733,244.926 Z M86.188,275.382 L86.188,279 L94.018,279 L94.018,275.382 L86.188,275.382 Z M84.892,280.08 L84.892,274.32 L95.296,274.32 L95.296,280.08 L84.892,280.08 Z M86.458,271.602 C88.132,271.602 89.338,270.504 89.338,268.92 C89.338,267.354 88.132,266.256 86.458,266.256 C84.802,266.256 83.596,267.354 83.596,268.92 C83.596,270.504 84.802,271.602 86.458,271.602 Z M93.982,264.222 L95.296,264.222 L95.296,273.474 L93.982,273.474 L93.982,269.424 L90.544,269.424 C90.328,271.386 88.69,272.7 86.458,272.7 C84.064,272.7 82.354,271.17 82.354,268.92 C82.354,266.688 84.064,265.158 86.458,265.158 C88.654,265.158 90.274,266.436 90.544,268.326 L93.982,268.326 L93.982,264.222 Z M101.164,275.634 L101.164,274.536 L111.856,274.536 L111.856,280.278 L110.542,280.278 L110.542,275.634 L101.164,275.634 Z M110.542,264.204 L111.856,264.204 L111.856,273.816 L110.542,273.816 L110.542,271.638 L106.258,271.638 L106.258,270.54 L110.542,270.54 L110.542,268.236 L106.474,268.236 C105.412,270.774 102.892,272.628 99.436,273.582 L98.914,272.538 C102.856,271.44 105.376,269.244 105.646,266.4 L99.724,266.4 L99.724,265.302 L107.05,265.302 C107.05,265.95 106.978,266.562 106.834,267.138 L110.542,267.138 L110.542,264.204 Z M124.78,266.238 L124.78,267.318 L115.276,267.318 L115.276,266.238 L119.362,266.238 L119.362,264.24 L120.676,264.24 L120.676,266.238 L124.78,266.238 Z M117.418,271.242 C117.418,272.394 118.462,273.168 120.01,273.168 C121.54,273.168 122.602,272.394 122.602,271.242 C122.602,270.072 121.54,269.28 120.01,269.28 C118.462,269.28 117.418,270.072 117.418,271.242 Z M123.844,271.242 C123.844,273.024 122.296,274.212 120.01,274.212 C117.724,274.212 116.176,273.024 116.176,271.242 C116.176,269.424 117.724,268.236 120.01,268.236 C122.296,268.236 123.844,269.424 123.844,271.242 Z M119.02,275.328 L119.02,278.856 L128.398,278.856 L128.398,279.954 L117.706,279.954 L117.706,275.328 L119.02,275.328 Z M127.66,269.604 L130.072,269.604 L130.072,270.702 L127.66,270.702 L127.66,276.3 L126.346,276.3 L126.346,264.24 L127.66,264.24 L127.66,269.604 Z M145.12,269.37 L145.12,265.806 L140.962,265.806 L140.962,269.37 L145.12,269.37 Z M139.648,269.37 L139.648,265.806 L137.164,265.806 L137.164,264.726 L148.918,264.726 L148.918,265.806 L146.416,265.806 L146.416,269.37 L148.864,269.37 L148.864,270.45 L137.218,270.45 L137.218,269.37 L139.648,269.37 Z M147.244,279 L147.244,276.156 L138.874,276.156 L138.874,279 L147.244,279 Z M150.322,273.114 L143.716,273.114 L143.716,275.076 L148.522,275.076 L148.522,280.08 L137.596,280.08 L137.596,275.076 L142.42,275.076 L142.42,273.114 L135.796,273.114 L135.796,272.016 L150.322,272.016 L150.322,273.114 Z M165.496,264.204 L165.496,272.574 L164.182,272.574 L164.182,264.204 L165.496,264.204 Z M162.166,271.206 L161.554,272.232 C159.646,271.62 158.116,270.306 157.396,268.614 C156.712,270.468 155.146,271.89 153.22,272.556 L152.59,271.512 C154.966,270.738 156.712,268.74 156.712,266.49 L156.712,266.238 L152.932,266.238 L152.932,265.14 L161.77,265.14 L161.77,266.238 L158.044,266.238 L158.044,266.49 C158.044,268.614 159.826,270.486 162.166,271.206 Z M156.478,279.054 L166.09,279.054 L166.09,280.116 L155.182,280.116 L155.182,276.174 L164.218,276.174 L164.218,274.428 L155.146,274.428 L155.146,273.366 L165.514,273.366 L165.514,277.164 L156.478,277.164 L156.478,279.054 Z M181.318,271.08 L180.022,270.936 C180.418,268.992 180.454,267.588 180.454,266.562 L173.812,266.562 L173.812,265.464 L181.732,265.464 L181.732,266.292 C181.732,267.318 181.732,268.938 181.318,271.08 Z M182.938,272.088 L183.028,273.06 C179.68,273.618 175.828,273.708 172.984,273.708 L172.84,272.61 C173.902,272.61 175.09,272.592 176.332,272.574 L176.332,269.046 L177.628,269.046 L177.628,272.52 C179.428,272.448 181.264,272.322 182.938,272.088 Z M176.62,275.22 L176.62,278.856 L185.89,278.856 L185.89,279.954 L175.306,279.954 L175.306,275.22 L176.62,275.22 Z M185.368,269.514 L187.762,269.514 L187.762,270.612 L185.368,270.612 L185.368,276.354 L184.072,276.354 L184.072,264.204 L185.368,264.204 L185.368,269.514 Z M191.758,271.386 L191.758,275.31 C194.422,275.31 196.834,275.184 199.75,274.716 L199.876,275.832 C196.906,276.282 194.476,276.408 191.758,276.408 L190.426,276.408 L190.426,270.306 L196.474,270.306 L196.474,266.814 L190.39,266.814 L190.39,265.716 L197.788,265.716 L197.788,271.386 L191.758,271.386 Z M201.334,264.186 L202.648,264.186 L202.648,280.314 L201.334,280.314 L201.334,264.186 Z M217.444,267.066 L217.444,265.662 L207.886,265.662 L207.886,264.708 L218.74,264.708 L218.74,267.984 L209.218,267.984 L209.218,269.46 L219.028,269.46 L219.028,270.432 L207.922,270.432 L207.922,267.066 L217.444,267.066 Z M209.128,277.506 L209.128,279.108 L219.316,279.108 L219.316,280.08 L207.832,280.08 L207.832,276.57 L217.498,276.57 L217.498,275.112 L207.796,275.112 L207.796,274.158 L218.794,274.158 L218.794,277.506 L209.128,277.506 Z M206.032,271.728 L220.63,271.728 L220.63,272.754 L206.032,272.754 L206.032,271.728 Z M227.326,265.95 L234.634,265.95 C234.634,270.486 232.672,274.572 227.38,277.2 L226.624,276.174 C231.016,274.014 233.068,270.846 233.32,267.03 L227.326,267.03 L227.326,265.95 Z M238.486,264.204 L239.8,264.204 L239.8,280.314 L238.486,280.314 L238.486,271.818 L234.598,271.818 L234.598,270.72 L238.486,270.72 L238.486,264.204 Z M256.342,264.222 L256.342,276.138 L255.028,276.138 L255.028,264.222 L256.342,264.222 Z M253.048,272.808 L252.418,273.834 C250.528,273.222 249.034,271.908 248.296,270.216 C247.612,272.052 246.082,273.474 244.174,274.14 L243.544,273.114 C245.884,272.322 247.63,270.27 247.63,267.966 L247.63,267.48 L243.886,267.48 L243.886,266.4 L247.63,266.4 L247.63,264.276 L248.944,264.276 L248.944,266.4 L252.634,266.4 L252.634,267.48 L248.926,267.48 L248.926,267.966 C248.926,270.144 250.708,272.07 253.048,272.808 Z M247.36,278.856 L256.846,278.856 L256.846,279.954 L246.064,279.954 L246.064,275.022 L247.36,275.022 L247.36,278.856 Z M269.356,265.644 L269.356,268.632 C269.356,271.566 271.39,274.518 273.694,275.598 L272.92,276.642 C271.102,275.742 269.482,273.78 268.708,271.44 C267.988,273.906 266.35,275.958 264.496,276.93 L263.686,275.85 C266.008,274.752 268.06,271.674 268.06,268.632 L268.06,265.644 L269.356,265.644 Z M275.566,264.204 L276.88,264.204 L276.88,280.332 L275.566,280.332 L275.566,264.204 Z M294.052,268.866 L293.602,269.874 C291.118,269.532 288.58,268.398 287.572,266.616 C286.582,268.398 284.062,269.532 281.56,269.874 L281.11,268.866 C283.9,268.542 286.906,266.994 286.906,264.942 L286.906,264.276 L288.256,264.276 L288.256,264.942 C288.256,266.994 291.262,268.542 294.052,268.866 Z M294.862,272.088 L288.22,272.088 L288.22,273.762 L292.972,273.762 L292.972,277.344 L283.414,277.344 L283.414,279.054 L293.458,279.054 L293.458,280.116 L282.136,280.116 L282.136,276.372 L291.676,276.372 L291.676,274.806 L282.082,274.806 L282.082,273.762 L286.924,273.762 L286.924,272.088 L280.318,272.088 L280.318,271.008 L294.862,271.008 L294.862,272.088 Z" id="멸균처리-및-개별포장-등-엄격한-품질" fill="#FFFFFF" opacity="0.6"></path>
                    <path d="M146.265,143.03 C146.265,145.655 148.085,147.23 150.5,147.23 C152.88,147.23 154.735,145.655 154.735,143.03 C154.735,140.405 152.88,138.83 150.5,138.83 C148.085,138.83 146.265,140.405 146.265,143.03 Z M159.215,143.03 C159.215,147.755 155.4,151.22 150.5,151.22 C145.565,151.22 141.75,147.755 141.75,143.03 C141.75,138.27 145.565,134.84 150.5,134.84 C155.4,134.84 159.215,138.27 159.215,143.03 Z M150.71,153.81 L150.71,160.775 L168.035,160.775 L168.035,164.45 L146.09,164.45 L146.09,153.81 L150.71,153.81 Z M166.88,142.015 L171.15,142.015 L171.15,145.795 L166.88,145.795 L166.88,156.225 L162.26,156.225 L162.26,132.775 L166.88,132.775 L166.88,142.015 Z M190.995,141.105 L196.035,141.105 L196.035,132.775 L200.655,132.775 L200.655,156.295 L196.035,156.295 L196.035,144.85 L190.995,144.85 L190.995,141.105 Z M193.13,148.525 L190.89,152.13 C187.355,150.975 184.94,148.665 183.575,145.76 C182.14,148.945 179.62,151.5 175.84,152.76 L173.53,149.085 C178.815,147.37 181.125,143.135 181.125,139.075 L181.125,138.62 L174.79,138.62 L174.79,134.945 L192.115,134.945 L192.115,138.62 L185.85,138.62 L185.85,139.04 C185.85,142.855 188.055,146.81 193.13,148.525 Z M184.03,160.775 L201.39,160.775 L201.39,164.45 L179.41,164.45 L179.41,154.335 L184.03,154.335 L184.03,160.775 Z M224.91,136.17 L224.875,139.775 L205.905,139.775 L205.905,136.17 L213.045,136.17 L213.045,132.74 L217.7,132.74 L217.7,136.17 L224.91,136.17 Z M211.89,147.125 C211.89,148.91 213.325,149.855 215.39,149.855 C217.42,149.855 218.89,148.91 218.89,147.125 C218.89,145.375 217.42,144.43 215.39,144.43 C213.325,144.43 211.89,145.375 211.89,147.125 Z M223.3,147.125 C223.3,150.835 220.01,153.355 215.39,153.355 C210.77,153.355 207.48,150.835 207.48,147.125 C207.48,143.485 210.77,140.93 215.39,140.93 C220.01,140.93 223.3,143.485 223.3,147.125 Z M215.11,155.105 L215.11,160.775 L232.435,160.775 L232.435,164.45 L210.49,164.45 L210.49,155.105 L215.11,155.105 Z M231.28,142.61 L235.55,142.61 L235.55,146.425 L231.28,146.425 L231.28,156.89 L226.66,156.89 L226.66,132.775 L231.28,132.775 L231.28,142.61 Z M272.895,132.81 L272.895,149.295 L268.275,149.295 L268.275,132.81 L272.895,132.81 Z M254.415,138.305 L254.415,144.955 C255.535,144.92 256.69,144.885 257.81,144.815 L257.81,138.305 L254.415,138.305 Z M266,144.22 L266.21,147.475 C259.875,148.525 252.63,148.7 247.065,148.735 L246.61,145.06 L249.97,145.025 L249.97,138.305 L247.415,138.305 L247.415,134.735 L264.775,134.735 L264.775,138.305 L262.255,138.305 L262.255,144.57 C263.55,144.5 264.775,144.36 266,144.22 Z M255.71,161.195 L273.805,161.195 L273.805,164.765 L251.125,164.765 L251.125,155.98 L268.31,155.98 L268.31,154.125 L251.09,154.125 L251.09,150.59 L272.895,150.59 L272.895,159.27 L255.71,159.27 L255.71,161.195 Z M283.92,147.58 L283.92,153.845 C288.295,153.81 291.97,153.6 296.03,152.935 L296.45,156.68 C291.655,157.45 287.385,157.625 282.03,157.625 L279.37,157.625 L279.37,143.975 L289.24,143.975 L289.24,139.18 L279.3,139.18 L279.3,135.505 L293.825,135.505 L293.825,147.58 L283.92,147.58 Z M300.58,132.74 L305.235,132.74 L305.235,165.08 L300.58,165.08 L300.58,148.105 L295.54,148.105 L295.54,144.36 L300.58,144.36 L300.58,132.74 Z" id="안전한-필러" fill="#FFFFFF"></path>
                    <g id="Group-6-Copy" transform="translate(56.000000, 66.000000)">
                        <path d="M17.65,31.65 C22.6166915,31.65 26.4416533,33.183318 29.125,36.25 C31.8083467,39.316682 33.15,43.716638 33.15,49.45 C33.15,55.183362 31.8083467,59.5916512 29.125,62.675 C26.4416533,65.7583487 22.6166915,67.3 17.65,67.3 C12.6166415,67.3 8.75834675,65.7583487 6.075,62.675 C3.39165325,59.5916512 2.05,55.183362 2.05,49.45 C2.05,43.716638 3.39165325,39.316682 6.075,36.25 C8.75834675,33.183318 12.6166415,31.65 17.65,31.65 Z M17.65,38.45 C15.449989,38.45 13.8666715,39.3083248 12.9,41.025 C11.9333285,42.7416753 11.45,45.5499805 11.45,49.45 C11.45,53.383353 11.9333285,56.2083248 12.9,57.925 C13.8666715,59.6416752 15.449989,60.5 17.65,60.5 C19.783344,60.5 21.3416617,59.633342 22.325,57.9 C23.3083383,56.166658 23.8,53.3500195 23.8,49.45 C23.8,45.5499805 23.3083383,42.7416753 22.325,41.025 C21.3416617,39.3083248 19.783344,38.45 17.65,38.45 Z M63.75,59.65 L63.75,67 L37.05,67 L37,60.95 L49.75,47.85 C50.750005,46.8166615 51.5666635,45.7833385 52.2,44.75 C52.8333365,43.7166615 53.15,42.833337 53.15,42.1 C53.15,41.1333285 52.8000035,40.3916692 52.1,39.875 C51.3999965,39.3583307 50.416673,39.1 49.15,39.1 C47.749993,39.1 46.1916753,39.4916627 44.475,40.275 C42.7583247,41.0583373 41.100008,42.149993 39.5,43.55 L36,36.8 C40.8333575,33.2999825 45.683309,31.55 50.55,31.55 C52.883345,31.55 54.9749908,31.9333295 56.825,32.7 C58.6750093,33.4666705 60.1249947,34.549993 61.175,35.95 C62.2250052,37.350007 62.75,38.949991 62.75,40.75 C62.75,42.550009 62.1583392,44.4083238 60.975,46.325 C59.7916608,48.2416763 58.1166775,50.2833225 55.95,52.45 L48.8,59.65 L63.75,59.65 Z" id="02" fill="#FFFFFF"></path>
                        <rect id="Rectangle-2" fill="#D8D8D8" opacity="0.5" transform="translate(72.708892, 66.708892) rotate(45.000000) translate(-72.708892, -66.708892) " x="72.2088924" y="16.7088924" width="1" height="100"></rect>
                    </g>
                </g>
                <g id="3" transform="translate(163.000000, 562.000000)">
                    <polygon id="Polygon-2-Copy-6" fill="url(#linearGradient-1)" points="188.5 0 351.745789 94.25 351.745789 282.75 188.5 377 25.2542114 282.75 25.2542114 94.25"></polygon>
                    <path d="M143.635,212.71 L143.635,210.352 L140.377,210.352 L140.377,212.71 L143.635,212.71 Z M145.975,206.158 L145.975,214.582 L138.037,214.582 L138.037,206.158 L140.377,206.158 L140.377,208.516 L143.635,208.516 L143.635,206.158 L145.975,206.158 Z M142.285,215.968 L142.285,219.37 L151.195,219.37 L151.195,221.26 L139.909,221.26 L139.909,215.968 L142.285,215.968 Z M150.601,209.65 L152.797,209.65 L152.797,211.594 L150.601,211.594 L150.601,217.174 L148.225,217.174 L148.225,204.97 L150.601,204.97 L150.601,209.65 Z M156.577,209.92 C156.577,211.198 157.459,211.972 158.683,211.972 C159.907,211.972 160.807,211.198 160.807,209.92 C160.807,208.624 159.907,207.868 158.683,207.868 C157.459,207.868 156.577,208.624 156.577,209.92 Z M165.595,209.02 L162.967,209.02 C163.021,209.308 163.057,209.596 163.057,209.92 C163.057,210.226 163.021,210.514 162.949,210.82 L165.595,210.82 L165.595,209.02 Z M165.595,212.71 L161.905,212.71 C161.113,213.502 159.979,213.97 158.683,213.97 C156.235,213.97 154.327,212.26 154.327,209.92 C154.327,207.562 156.235,205.852 158.683,205.852 C160.015,205.852 161.149,206.338 161.941,207.13 L165.595,207.13 L165.595,204.97 L167.971,204.97 L167.971,214.69 L165.595,214.69 L165.595,212.71 Z M162.355,219.73 C164.533,219.73 165.703,219.262 165.703,218.29 C165.703,217.318 164.533,216.85 162.355,216.85 C160.177,216.85 159.025,217.318 159.025,218.29 C159.025,219.262 160.177,219.73 162.355,219.73 Z M162.355,215.014 C165.865,215.014 168.043,216.22 168.043,218.29 C168.043,220.342 165.865,221.566 162.355,221.566 C158.863,221.566 156.685,220.342 156.685,218.29 C156.685,216.22 158.863,215.014 162.355,215.014 Z M185.665,212.98 L185.665,214.888 L179.293,214.888 L179.293,221.548 L176.881,221.548 L176.881,214.888 L170.689,214.888 L170.689,212.98 L181.129,212.98 C181.543,210.874 181.579,209.254 181.579,207.832 L172.399,207.832 L172.399,205.924 L183.901,205.924 L183.901,207.418 C183.901,208.966 183.901,210.658 183.487,212.98 L185.665,212.98 Z M197.221,212.53 L196.069,214.384 C194.251,213.79 193.009,212.602 192.307,211.126 C191.569,212.746 190.273,214.078 188.347,214.708 L187.141,212.836 C189.805,211.936 191.011,209.83 191.047,207.778 L187.789,207.778 L187.789,205.888 L196.699,205.888 L196.699,207.778 L193.477,207.778 C193.513,209.668 194.665,211.666 197.221,212.53 Z M189.787,217.462 L189.787,215.572 L201.091,215.572 L201.091,221.566 L198.715,221.566 L198.715,217.462 L189.787,217.462 Z M198.715,204.988 L201.091,204.988 L201.091,214.834 L198.715,214.834 L198.715,210.838 L196.267,210.838 L196.267,208.93 L198.715,208.93 L198.715,204.988 Z M222.187,207.058 L222.187,208.948 L208.525,208.948 L208.525,207.058 L214.159,207.058 L214.159,205.15 L216.535,205.15 L216.535,207.058 L222.187,207.058 Z M213.799,215.914 L213.799,218.002 L216.895,218.002 L216.895,215.914 C216.409,215.968 215.887,216.004 215.329,216.004 C214.789,216.004 214.267,215.968 213.799,215.914 Z M215.347,211.432 C213.259,211.432 212.161,211.882 212.161,212.818 C212.161,213.736 213.259,214.186 215.347,214.186 C217.435,214.186 218.533,213.736 218.533,212.818 C218.533,211.882 217.435,211.432 215.347,211.432 Z M219.235,218.002 L222.889,218.002 L222.889,219.928 L207.877,219.928 L207.877,218.002 L211.459,218.002 L211.459,215.284 C210.343,214.744 209.713,213.898 209.713,212.818 C209.713,210.802 211.873,209.614 215.347,209.614 C218.821,209.614 220.963,210.802 220.963,212.818 C220.963,213.88 220.351,214.726 219.235,215.266 L219.235,218.002 Z M233.221,214.312 L230.899,214.114 C231.277,211.756 231.331,209.974 231.331,208.498 L225.139,208.498 L225.139,206.608 L233.671,206.608 L233.671,207.958 C233.671,209.56 233.671,211.576 233.221,214.312 Z M229.603,211.36 L229.603,216.184 C231.205,216.13 232.825,216.022 234.337,215.842 L234.463,217.552 C231.097,218.128 227.389,218.2 224.509,218.218 L224.293,216.274 C225.211,216.274 226.219,216.274 227.263,216.256 L227.263,211.36 L229.603,211.36 Z M239.701,211.63 L239.701,213.61 L237.469,213.61 L237.469,221.53 L235.093,221.53 L235.093,204.952 L237.469,204.952 L237.469,211.63 L239.701,211.63 Z" id="반영구적-효과" fill="#FFFFFF"></path>
                    <path d="M105.124,237.204 L105.124,245.502 L103.81,245.502 L103.81,237.204 L105.124,237.204 Z M93.622,241.362 C93.622,242.802 94.828,243.828 96.466,243.828 C98.122,243.828 99.328,242.802 99.328,241.362 C99.328,239.922 98.122,238.896 96.466,238.896 C94.828,238.896 93.622,239.922 93.622,241.362 Z M100.606,241.362 C100.606,243.468 98.878,244.908 96.466,244.908 C94.09,244.908 92.344,243.468 92.344,241.362 C92.344,239.274 94.09,237.816 96.466,237.816 C98.878,237.816 100.606,239.274 100.606,241.362 Z M96.088,252.018 L105.7,252.018 L105.7,253.08 L94.792,253.08 L94.792,249.12 L103.828,249.12 L103.828,247.374 L94.756,247.374 L94.756,246.312 L105.124,246.312 L105.124,250.11 L96.088,250.11 L96.088,252.018 Z M117.778,244.872 L117.076,245.916 C115.312,245.232 113.89,243.882 113.188,242.154 C112.522,244.116 111.046,245.61 109.156,246.366 L108.472,245.304 C110.848,244.422 112.504,242.244 112.504,239.724 L112.504,238.032 L113.818,238.032 L113.818,239.814 C113.818,242.01 115.51,244.08 117.778,244.872 Z M115.87,252.234 C118.318,252.234 119.83,251.55 119.83,250.38 C119.83,249.228 118.318,248.544 115.87,248.544 C113.422,248.544 111.892,249.228 111.892,250.38 C111.892,251.55 113.422,252.234 115.87,252.234 Z M115.87,247.482 C119.146,247.482 121.126,248.544 121.126,250.38 C121.126,252.216 119.146,253.278 115.87,253.278 C112.594,253.278 110.596,252.216 110.596,250.38 C110.596,248.544 112.594,247.482 115.87,247.482 Z M120.964,241.452 L123.376,241.452 L123.376,242.55 L120.964,242.55 L120.964,247.014 L119.65,247.014 L119.65,237.222 L120.964,237.222 L120.964,241.452 Z M135.148,242.694 L135.148,246.654 L133.906,246.654 L133.906,237.51 L135.148,237.51 L135.148,241.596 L137.362,241.596 L137.362,237.222 L138.622,237.222 L138.622,247.176 L137.362,247.176 L137.362,242.694 L135.148,242.694 Z M133.132,244.854 L132.412,245.862 C130.882,245.232 129.748,244.044 129.172,242.622 C128.596,244.188 127.426,245.574 125.842,246.294 L125.122,245.268 C127.21,244.35 128.524,242.244 128.524,240.426 L128.524,238.212 L129.784,238.212 L129.784,240.426 C129.784,242.226 131.062,244.062 133.132,244.854 Z M133.348,252.252 C135.832,252.252 137.398,251.568 137.398,250.416 C137.398,249.264 135.832,248.598 133.348,248.598 C130.864,248.598 129.298,249.264 129.298,250.416 C129.298,251.568 130.864,252.252 133.348,252.252 Z M133.348,247.554 C136.678,247.554 138.694,248.634 138.694,250.416 C138.694,252.234 136.678,253.278 133.348,253.278 C130.036,253.278 128.002,252.234 128.002,250.416 C128.002,248.634 130.036,247.554 133.348,247.554 Z M151.24,238.482 L151.24,239.436 L141.97,239.436 L141.97,238.482 L145.966,238.482 L145.966,237.06 L147.262,237.06 L147.262,238.482 L151.24,238.482 Z M144.112,242.1 C144.112,242.856 145.084,243.36 146.614,243.36 C148.108,243.36 149.08,242.856 149.08,242.1 C149.08,241.344 148.108,240.876 146.614,240.876 C145.084,240.876 144.112,241.344 144.112,242.1 Z M151.726,244.818 L151.816,245.682 C148.396,246.294 144.544,246.312 141.736,246.312 L141.574,245.322 C142.87,245.322 144.364,245.322 145.966,245.268 L145.966,244.206 C144.058,244.062 142.87,243.306 142.87,242.1 C142.87,240.768 144.346,239.976 146.614,239.976 C148.864,239.976 150.322,240.768 150.322,242.1 C150.322,243.306 149.152,244.062 147.262,244.206 L147.262,245.214 C148.792,245.142 150.304,245.034 151.726,244.818 Z M145.03,250.65 L145.03,252.144 L154.678,252.144 L154.678,253.116 L143.752,253.116 L143.752,249.75 L152.752,249.75 L152.752,248.418 L143.698,248.418 L143.698,247.464 L154.048,247.464 L154.048,250.65 L145.03,250.65 Z M154.048,241.38 L156.46,241.38 L156.46,242.478 L154.048,242.478 L154.048,246.726 L152.734,246.726 L152.734,237.222 L154.048,237.222 L154.048,241.38 Z M166.126,250.182 L172.786,250.182 L172.786,251.28 L158.188,251.28 L158.188,250.182 L164.812,250.182 L164.812,247.05 L160.042,247.05 L160.042,242.154 L169.654,242.154 L169.654,239.526 L160.006,239.526 L160.006,238.428 L170.932,238.428 L170.932,243.216 L161.338,243.216 L161.338,245.97 L171.31,245.97 L171.31,247.05 L166.126,247.05 L166.126,250.182 Z M180.382,249.408 L180.382,248.328 L191.506,248.328 L191.506,253.314 L190.192,253.314 L190.192,249.408 L180.382,249.408 Z M182.002,240.516 L182.002,242.496 L190.102,242.496 L190.102,240.516 L182.002,240.516 Z M186.7,245.574 L193.324,245.574 L193.324,246.654 L178.762,246.654 L178.762,245.574 L185.404,245.574 L185.404,243.558 L180.706,243.558 L180.706,237.564 L182.002,237.564 L182.002,239.472 L190.102,239.472 L190.102,237.564 L191.398,237.564 L191.398,243.558 L186.7,243.558 L186.7,245.574 Z M206.068,244.494 L206.158,245.502 C204.502,245.718 202.792,245.862 201.118,245.934 L201.118,252.378 L199.804,252.378 L199.804,245.988 C198.274,246.042 196.762,246.06 195.412,246.06 L195.214,244.944 C197.392,244.944 199.894,244.926 202.36,244.782 C202.792,242.424 202.846,240.678 202.864,239.562 L196.636,239.562 L196.636,238.464 L204.16,238.464 L204.16,239.076 C204.16,240.12 204.16,242.01 203.692,244.71 C204.484,244.656 205.276,244.584 206.068,244.494 Z M207.256,237.204 L208.57,237.204 L208.57,253.296 L207.256,253.296 L207.256,237.204 Z M212.764,238.95 L220.09,238.95 C220.09,243.486 217.93,247.626 212.764,250.218 L212.026,249.174 C216.202,247.086 218.47,243.9 218.776,240.048 L212.764,240.048 L212.764,238.95 Z M226.858,243.81 L226.858,244.908 L224.212,244.908 L224.212,253.296 L222.898,253.296 L222.898,237.204 L224.212,237.204 L224.212,243.81 L226.858,243.81 Z M236.092,248.292 L236.092,243.99 L233.932,243.99 L233.932,248.292 L236.092,248.292 Z M236.092,242.91 L236.092,238.716 L237.208,238.716 L237.208,249.39 L232.798,249.39 L232.798,238.716 L233.932,238.716 L233.932,242.91 L236.092,242.91 Z M241.312,248.292 L241.312,243.99 L239.224,243.99 L239.224,248.292 L241.312,248.292 Z M241.312,242.91 L241.312,238.716 L242.428,238.716 L242.428,249.39 L238.108,249.39 L238.108,238.716 L239.224,238.716 L239.224,242.91 L241.312,242.91 Z M247.45,243.558 L247.45,244.656 L245.2,244.656 L245.2,253.314 L243.904,253.314 L243.904,237.222 L245.2,237.222 L245.2,243.558 L247.45,243.558 Z M260.482,242.19 L260.482,239.544 L250.834,239.544 L250.834,238.464 L261.76,238.464 L261.76,243.27 L252.166,243.27 L252.166,246.006 L262.138,246.006 L262.138,247.104 L250.87,247.104 L250.87,242.19 L260.482,242.19 Z M249.016,250.146 L263.614,250.146 L263.614,251.244 L249.016,251.244 L249.016,250.146 Z M273.496,245.556 L277.474,245.556 L277.474,242.19 L273.496,242.19 L273.496,245.556 Z M272.2,248.13 L272.2,239.886 L267.52,239.886 L267.52,248.13 L272.2,248.13 Z M277.474,237.204 L278.788,237.204 L278.788,253.332 L277.474,253.332 L277.474,246.636 L273.496,246.636 L273.496,249.21 L266.242,249.21 L266.242,238.824 L273.496,238.824 L273.496,241.092 L277.474,241.092 L277.474,237.204 Z M282.496,255.33 L282.118,254.466 C283.18,253.962 283.846,253.116 283.864,252.018 C283.792,252.036 283.72,252.036 283.648,252.036 C283.054,252.036 282.532,251.658 282.532,250.956 C282.532,250.29 283.072,249.894 283.666,249.894 C284.476,249.894 284.98,250.578 284.98,251.712 C284.98,253.368 283.99,254.664 282.496,255.33 Z M107.554,264.204 L107.554,272.502 L106.24,272.502 L106.24,264.204 L107.554,264.204 Z M96.052,268.362 C96.052,269.802 97.258,270.828 98.896,270.828 C100.552,270.828 101.758,269.802 101.758,268.362 C101.758,266.922 100.552,265.896 98.896,265.896 C97.258,265.896 96.052,266.922 96.052,268.362 Z M103.036,268.362 C103.036,270.468 101.308,271.908 98.896,271.908 C96.52,271.908 94.774,270.468 94.774,268.362 C94.774,266.274 96.52,264.816 98.896,264.816 C101.308,264.816 103.036,266.274 103.036,268.362 Z M98.518,279.018 L108.13,279.018 L108.13,280.08 L97.222,280.08 L97.222,276.12 L106.258,276.12 L106.258,274.374 L97.186,274.374 L97.186,273.312 L107.554,273.312 L107.554,277.11 L98.518,277.11 L98.518,279.018 Z M117.76,272.232 L117.76,269.19 L112.936,269.19 L112.936,272.232 L117.76,272.232 Z M119.038,265.356 L119.038,273.312 L111.64,273.312 L111.64,265.356 L112.936,265.356 L112.936,268.128 L117.76,268.128 L117.76,265.356 L119.038,265.356 Z M114.754,274.914 L114.754,278.856 L124.132,278.856 L124.132,279.954 L113.44,279.954 L113.44,274.914 L114.754,274.914 Z M123.394,269.154 L125.806,269.154 L125.806,270.252 L123.394,270.252 L123.394,276.03 L122.08,276.03 L122.08,264.24 L123.394,264.24 L123.394,269.154 Z M144.706,264.222 L144.706,272.574 L143.392,272.574 L143.392,264.222 L144.706,264.222 Z M135.166,266.382 L135.166,270.846 C136.084,270.81 137.02,270.774 137.956,270.72 L137.956,266.382 L135.166,266.382 Z M141.7,270.414 L141.754,271.386 C138.568,271.854 134.77,271.98 131.926,271.98 L131.8,270.882 C132.448,270.882 133.168,270.882 133.888,270.864 L133.888,266.382 L132.232,266.382 L132.232,265.32 L140.872,265.32 L140.872,266.382 L139.216,266.382 L139.216,270.666 C140.062,270.594 140.89,270.522 141.7,270.414 Z M135.616,279.036 L145.336,279.036 L145.336,280.116 L134.32,280.116 L134.32,276.174 L143.392,276.174 L143.392,274.428 L134.266,274.428 L134.266,273.366 L144.706,273.366 L144.706,277.164 L135.616,277.164 L135.616,279.036 Z M149.98,271.296 L149.98,275.328 C152.824,275.328 154.804,275.238 157.18,274.806 L157.306,275.886 C154.858,276.318 152.842,276.426 149.89,276.426 L148.684,276.426 L148.684,270.216 L154.534,270.216 L154.534,266.814 L148.648,266.814 L148.648,265.716 L155.83,265.716 L155.83,271.296 L149.98,271.296 Z M159.97,264.186 L161.284,264.186 L161.284,280.314 L159.97,280.314 L159.97,271.566 L156.802,271.566 L156.802,270.468 L159.97,270.468 L159.97,264.186 Z M167.692,269.406 L167.692,272.484 L176.152,272.484 L176.152,269.406 L167.692,269.406 Z M172.57,277.128 L179.23,277.128 L179.23,278.226 L164.632,278.226 L164.632,277.128 L171.256,277.128 L171.256,273.582 L166.396,273.582 L166.396,265.356 L167.692,265.356 L167.692,268.308 L176.152,268.308 L176.152,265.356 L177.43,265.356 L177.43,273.582 L172.57,273.582 L172.57,277.128 Z M183.208,266.868 L183.208,275.166 C186.196,275.166 188.248,275.058 190.642,274.608 L190.786,275.742 C188.302,276.192 186.214,276.3 183.136,276.3 L181.894,276.3 L181.894,265.77 L189.364,265.77 L189.364,266.868 L183.208,266.868 Z M196.222,270.63 L196.222,271.728 L193.522,271.728 L193.522,280.332 L192.208,280.332 L192.208,264.204 L193.522,264.204 L193.522,270.63 L196.222,270.63 Z M209.02,265.95 C206.5,265.95 204.772,266.904 204.772,268.362 C204.772,269.82 206.5,270.774 209.02,270.774 C211.54,270.774 213.286,269.82 213.286,268.362 C213.286,266.904 211.54,265.95 209.02,265.95 Z M209.02,271.854 C205.69,271.854 203.44,270.504 203.44,268.362 C203.44,266.22 205.69,264.87 209.02,264.87 C212.368,264.87 214.618,266.22 214.618,268.362 C214.618,270.504 212.368,271.854 209.02,271.854 Z M216.346,273.402 L216.346,274.5 L212.458,274.5 L212.458,280.314 L211.126,280.314 L211.126,274.5 L206.932,274.5 L206.932,280.314 L205.6,280.314 L205.6,274.5 L201.766,274.5 L201.766,273.402 L216.346,273.402 Z M223.978,266.976 L223.978,269.226 C223.978,271.98 226.048,274.752 228.352,275.76 L227.614,276.804 C225.76,275.922 224.104,274.068 223.33,271.818 C222.592,274.176 220.936,276.264 219.136,277.2 L218.362,276.156 C220.612,275.058 222.682,272.016 222.682,269.226 L222.682,266.976 L218.866,266.976 L218.866,265.878 L227.848,265.878 L227.848,266.976 L223.978,266.976 Z M230.152,264.222 L231.466,264.222 L231.466,280.296 L230.152,280.296 L230.152,264.222 Z M235.84,265.95 L243.328,265.95 C243.328,270.558 241.132,274.662 235.822,277.254 L235.12,276.192 C239.476,274.104 241.726,270.9 241.996,267.03 L235.84,267.03 L235.84,265.95 Z M246.748,264.204 L248.062,264.204 L248.062,280.314 L246.748,280.314 L246.748,264.204 Z M252.148,265.464 L259.6,265.464 C259.6,269.586 256.63,272.646 252.04,274.122 L251.5,273.06 C255.352,271.836 257.908,269.478 258.196,266.544 L252.148,266.544 L252.148,265.464 Z M255.244,274.824 L255.244,278.856 L264.64,278.856 L264.64,279.954 L253.948,279.954 L253.948,274.824 L255.244,274.824 Z M263.902,269.172 L266.314,269.172 L266.314,270.27 L263.902,270.27 L263.902,276.012 L262.588,276.012 L262.588,264.204 L263.902,264.204 L263.902,269.172 Z M279.832,264.204 L281.146,264.204 L281.146,280.332 L279.832,280.332 L279.832,264.204 Z M272.686,265.482 C275.062,265.482 276.754,267.66 276.754,271.062 C276.754,274.464 275.062,276.66 272.686,276.66 C270.31,276.66 268.618,274.464 268.618,271.062 C268.618,267.66 270.31,265.482 272.686,265.482 Z M272.686,266.652 C271.048,266.652 269.878,268.416 269.878,271.062 C269.878,273.726 271.048,275.49 272.686,275.49 C274.324,275.49 275.494,273.726 275.494,271.062 C275.494,268.416 274.324,266.652 272.686,266.652 Z M159.241,291.222 L159.241,299.466 L157.927,299.466 L157.927,291.222 L159.241,291.222 Z M147.145,292.032 L154.471,292.032 C154.471,296.1 151.519,298.674 146.839,299.772 L146.353,298.728 C150.367,297.81 152.779,295.83 153.013,293.13 L147.145,293.13 L147.145,292.032 Z M150.223,306.09 L159.817,306.09 L159.817,307.152 L148.909,307.152 L148.909,303.066 L157.927,303.066 L157.927,301.32 L148.873,301.32 L148.873,300.258 L159.241,300.258 L159.241,304.074 L150.223,304.074 L150.223,306.09 Z M166.909,302.49 C168.511,302.49 169.645,300.726 169.645,298.062 C169.645,295.416 168.511,293.652 166.909,293.652 C165.289,293.652 164.173,295.416 164.173,298.062 C164.173,300.726 165.289,302.49 166.909,302.49 Z M174.523,291.204 L175.837,291.204 L175.837,307.332 L174.523,307.332 L174.523,298.494 L170.869,298.494 C170.743,301.662 169.141,303.66 166.909,303.66 C164.569,303.66 162.931,301.464 162.931,298.062 C162.931,294.66 164.569,292.482 166.909,292.482 C169.087,292.482 170.671,294.372 170.869,297.396 L174.523,297.396 L174.523,291.204 Z M195.097,295.326 L190.957,295.326 C189.913,297.918 187.411,299.826 183.973,300.87 L183.451,299.808 C187.321,298.656 189.805,296.424 190.075,293.544 L184.261,293.544 L184.261,292.446 L191.497,292.446 C191.497,293.094 191.425,293.688 191.299,294.246 L195.097,294.246 L195.097,291.222 L196.411,291.222 L196.411,300.924 L195.097,300.924 L195.097,298.71 L190.759,298.71 L190.759,297.612 L195.097,297.612 L195.097,295.326 Z M191.191,306.18 C193.621,306.18 195.187,305.424 195.187,304.164 C195.187,302.922 193.621,302.166 191.191,302.166 C188.743,302.166 187.177,302.922 187.177,304.164 C187.177,305.424 188.743,306.18 191.191,306.18 Z M191.191,301.104 C194.449,301.104 196.483,302.256 196.483,304.164 C196.483,306.072 194.449,307.242 191.191,307.242 C187.933,307.242 185.899,306.072 185.899,304.164 C185.899,302.256 187.933,301.104 191.191,301.104 Z M204.421,294.228 L204.421,295.812 C204.421,298.638 205.699,301.428 207.895,302.706 L207.085,303.66 C205.501,302.706 204.349,300.942 203.791,298.836 C203.233,301.104 202.045,303.03 200.407,304.056 L199.579,303.084 C201.793,301.752 203.143,298.8 203.143,295.812 L203.143,294.228 L199.993,294.228 L199.993,293.13 L207.391,293.13 L207.391,294.228 L204.421,294.228 Z M208.921,297.036 L208.921,291.6 L210.163,291.6 L210.163,306.468 L208.921,306.468 L208.921,298.134 L206.149,298.134 L206.149,297.036 L208.921,297.036 Z M212.125,291.204 L213.385,291.204 L213.385,307.314 L212.125,307.314 L212.125,291.204 Z M225.769,299.16 L225.103,300.186 C223.303,299.538 221.881,298.17 221.179,296.496 C220.495,298.368 218.983,299.88 217.093,300.582 L216.391,299.538 C218.749,298.692 220.495,296.55 220.495,294.21 L220.495,293.454 L216.823,293.454 L216.823,292.356 L225.427,292.356 L225.427,293.454 L221.809,293.454 L221.809,294.21 C221.809,296.316 223.483,298.35 225.769,299.16 Z M218.821,302.832 L218.821,301.734 L229.531,301.734 L229.531,307.314 L228.217,307.314 L228.217,302.832 L218.821,302.832 Z M228.217,291.222 L229.531,291.222 L229.531,300.852 L228.217,300.852 L228.217,296.568 L224.923,296.568 L224.923,295.47 L228.217,295.47 L228.217,291.222 Z" id="일상생활로-복귀가-빠르며,-일반-필러" fill="#FFFFFF" opacity="0.6"></path>
                    <path d="M142.66,135.19 L158.165,135.19 C158.165,143.94 152.775,149.995 143.185,152.76 L141.26,149.085 C148.435,147.125 152.425,143.38 153.16,138.865 L142.66,138.865 L142.66,135.19 Z M150.675,153.53 L150.675,160.775 L167.965,160.775 L167.965,164.45 L146.055,164.45 L146.055,153.53 L150.675,153.53 Z M166.845,141.77 L171.15,141.77 L171.15,145.55 L166.845,145.55 L166.845,155.84 L162.225,155.84 L162.225,132.775 L166.845,132.775 L166.845,141.77 Z M196.035,156.54 L196.035,148.63 L192.115,148.63 L192.115,144.92 L196.035,144.92 L196.035,142.12 L192.115,142.12 L192.115,138.41 L196.035,138.41 L196.035,132.775 L200.655,132.775 L200.655,156.54 L196.035,156.54 Z M181.51,138.76 L181.51,148.805 C182.49,148.805 183.505,148.77 184.52,148.735 L184.52,138.76 L181.51,138.76 Z M191.905,148.175 L192.185,151.535 C186.2,152.55 179.27,152.655 174.195,152.655 L173.705,148.91 L177.065,148.91 L177.065,138.76 L174.51,138.76 L174.51,135.085 L191.52,135.085 L191.52,138.76 L188.965,138.76 L188.965,148.455 C189.98,148.385 190.96,148.28 191.905,148.175 Z M184.03,160.775 L201.39,160.775 L201.39,164.45 L179.41,164.45 L179.41,154.755 L184.03,154.755 L184.03,160.775 Z M224.91,136.17 L224.875,139.775 L205.905,139.775 L205.905,136.17 L213.045,136.17 L213.045,132.74 L217.7,132.74 L217.7,136.17 L224.91,136.17 Z M211.89,147.125 C211.89,148.91 213.325,149.855 215.39,149.855 C217.42,149.855 218.89,148.91 218.89,147.125 C218.89,145.375 217.42,144.43 215.39,144.43 C213.325,144.43 211.89,145.375 211.89,147.125 Z M223.3,147.125 C223.3,150.835 220.01,153.355 215.39,153.355 C210.77,153.355 207.48,150.835 207.48,147.125 C207.48,143.485 210.77,140.93 215.39,140.93 C220.01,140.93 223.3,143.485 223.3,147.125 Z M215.11,155.105 L215.11,160.775 L232.435,160.775 L232.435,164.45 L210.49,164.45 L210.49,155.105 L215.11,155.105 Z M231.28,142.61 L235.55,142.61 L235.55,146.425 L231.28,146.425 L231.28,156.89 L226.66,156.89 L226.66,132.775 L231.28,132.775 L231.28,142.61 Z M258.545,135.26 L258.545,139.95 C258.545,145.935 261.1,151.815 266.56,154.16 L263.935,157.905 C260.225,156.225 257.74,153.04 256.305,149.085 C254.87,153.39 252.245,156.855 248.395,158.675 L245.63,154.86 C251.265,152.445 253.925,146.215 253.925,139.95 L253.925,135.26 L258.545,135.26 Z M268.135,132.74 L272.755,132.74 L272.755,165.08 L268.135,165.08 L268.135,132.74 Z M305.935,140.615 L304.395,144.08 C298.83,143.485 294.84,141.385 292.81,138.445 C290.78,141.385 286.755,143.485 281.19,144.08 L279.685,140.615 C286.93,139.915 290.43,136.66 290.43,133.545 L290.43,132.95 L295.19,132.95 L295.19,133.545 C295.19,136.66 298.69,139.915 305.935,140.615 Z M307.37,149.05 L295.085,149.05 L295.085,151.115 L303.835,151.115 L303.835,159.48 L286.195,159.48 L286.195,161.3 L304.675,161.3 L304.675,164.765 L281.61,164.765 L281.61,156.295 L299.285,156.295 L299.285,154.545 L281.575,154.545 L281.575,151.115 L290.465,151.115 L290.465,149.05 L278.25,149.05 L278.25,145.41 L307.37,145.41 L307.37,149.05 Z" id="간편한-시술" fill="#FFFFFF"></path>
                    <g id="Group-6-Copy-2" transform="translate(56.000000, 66.000000)">
                        <path d="M17.65,31.65 C22.6166915,31.65 26.4416533,33.183318 29.125,36.25 C31.8083467,39.316682 33.15,43.716638 33.15,49.45 C33.15,55.183362 31.8083467,59.5916512 29.125,62.675 C26.4416533,65.7583487 22.6166915,67.3 17.65,67.3 C12.6166415,67.3 8.75834675,65.7583487 6.075,62.675 C3.39165325,59.5916512 2.05,55.183362 2.05,49.45 C2.05,43.716638 3.39165325,39.316682 6.075,36.25 C8.75834675,33.183318 12.6166415,31.65 17.65,31.65 Z M17.65,38.45 C15.449989,38.45 13.8666715,39.3083248 12.9,41.025 C11.9333285,42.7416753 11.45,45.5499805 11.45,49.45 C11.45,53.383353 11.9333285,56.2083248 12.9,57.925 C13.8666715,59.6416752 15.449989,60.5 17.65,60.5 C19.783344,60.5 21.3416617,59.633342 22.325,57.9 C23.3083383,56.166658 23.8,53.3500195 23.8,49.45 C23.8,45.5499805 23.3083383,42.7416753 22.325,41.025 C21.3416617,39.3083248 19.783344,38.45 17.65,38.45 Z M54.25,46.35 C57.0833475,46.750002 59.3583248,47.7916582 61.075,49.475 C62.7916753,51.1583417 63.65,53.3166535 63.65,55.95 C63.65,58.1833445 63.0666725,60.166658 61.9,61.9 C60.7333275,63.633342 59.083344,64.9833285 56.95,65.95 C54.816656,66.9166715 52.316681,67.4 49.45,67.4 C46.8833205,67.4 44.3583457,67.0083372 41.875,66.225 C39.3916543,65.4416628 37.3000085,64.4000065 35.6,63.1 L39,56.65 C40.466674,57.8833395 42.033325,58.8166635 43.7,59.45 C45.366675,60.0833365 47.033325,60.4 48.7,60.4 C50.633343,60.4 52.1166615,60.0250037 53.15,59.275 C54.1833385,58.5249963 54.7,57.450007 54.7,56.05 C54.7,54.649993 54.1833385,53.583337 53.15,52.85 C52.1166615,52.116663 50.6166765,51.75 48.65,51.75 L42.75,51.75 L42.75,46.75 L50.85,38.95 L37.45,38.95 L37.45,31.95 L61.95,31.95 L61.95,37.25 L52.4,46 L54.25,46.35 Z" id="03" fill="#FFFFFF"></path>
                        <rect id="Rectangle-2" fill="#D8D8D8" opacity="0.5" transform="translate(72.708892, 66.708892) rotate(45.000000) translate(-72.708892, -66.708892) " x="72.2088924" y="16.7088924" width="1" height="100"></rect>
                    </g>
                </g>
            </g>
        </g>
    </g>
</svg>