<?xml version="1.0" encoding="UTF-8"?>
<svg width="34px" height="26px" viewBox="0 0 34 26" version="1.1" xmlns="http://www.w3.org/2000/svg" xmlns:xlink="http://www.w3.org/1999/xlink">
    <!-- Generator: Sketch 52.4 (67378) - http://www.bohemiancoding.com/sketch -->
    <title>Group 10</title>
    <desc>Created with Sketch.</desc>
    <g id="Page-1" stroke="none" stroke-width="1" fill="none" fill-rule="evenodd">
        <g id="외상치료" transform="translate(-643.000000, -3028.000000)" fill="#8D7047">
            <g id="Group-10" transform="translate(643.000000, 3028.000000)">
                <g id="Group-13" opacity="0.400000006" transform="translate(10.000000, 0.000000)">
                    <rect id="Rectangle-14" transform="translate(7.000000, 18.800000) rotate(-45.000000) translate(-7.000000, -18.800000) " x="-2" y="18" width="18" height="1.6" rx="0.8"></rect>
                    <rect id="Rectangle-14" transform="translate(7.000000, 7.200000) rotate(45.000000) translate(-7.000000, -7.200000) " x="-2" y="6.4" width="18" height="1.6" rx="0.8"></rect>
                </g>
                <g id="Group-13" opacity="0.100000001">
                    <rect id="Rectangle-14" transform="translate(7.000000, 18.800000) rotate(-45.000000) translate(-7.000000, -18.800000) " x="-2" y="18" width="18" height="1.6" rx="0.8"></rect>
                    <rect id="Rectangle-14" transform="translate(7.000000, 7.200000) rotate(45.000000) translate(-7.000000, -7.200000) " x="-2" y="6.4" width="18" height="1.6" rx="0.8"></rect>
                </g>
                <g id="Group-13" transform="translate(20.000000, 0.000000)">
                    <rect id="Rectangle-14" transform="translate(7.000000, 18.800000) rotate(-45.000000) translate(-7.000000, -18.800000) " x="-2" y="18" width="18" height="1.6" rx="0.8"></rect>
                    <rect id="Rectangle-14" transform="translate(7.000000, 7.200000) rotate(45.000000) translate(-7.000000, -7.200000) " x="-2" y="6.4" width="18" height="1.6" rx="0.8"></rect>
                </g>
            </g>
        </g>
    </g>
</svg>