<?xml version="1.0" encoding="UTF-8"?>
<svg width="24px" height="24px" viewBox="0 0 24 24" version="1.1" xmlns="http://www.w3.org/2000/svg" xmlns:xlink="http://www.w3.org/1999/xlink">
    <!-- Generator: Sketch 52.4 (67378) - http://www.bohemiancoding.com/sketch -->
    <title> round/ver1/collagen</title>
    <desc>Created with Sketch.</desc>
    <defs>
        <path d="M7.91648664,9.04998089 L7.35225642,9.04998089 L7.35225642,8.48575067 C7.35225642,8.1292363 7.06326046,7.84024033 6.70674609,7.84024033 C6.35066177,7.84024033 6.06209586,8.1292363 6.06209586,8.48575067 L6.06209586,9.04998089 L5.49743558,9.04998089 C5.14135126,9.04998089 4.8523553,9.33897686 4.8523553,9.69506117 C4.8523553,10.0511455 5.14135126,10.3401415 5.49743558,10.3401415 L6.06209586,10.3401415 L6.06209586,10.9043717 C6.06209586,11.260886 6.35066177,11.549452 6.70674609,11.549452 C7.06326046,11.549452 7.35225642,11.260886 7.35225642,10.9043717 L7.35225642,10.3401415 L7.91648664,10.3401415 C8.27257096,10.3401415 8.56156693,10.0511455 8.56156693,9.69506117 C8.56156693,9.33897686 8.27257096,9.04998089 7.91648664,9.04998089 M4.15227117,5.92413686 C3.79618685,5.92413686 3.50719088,5.63514089 3.50719088,5.27905658 C3.50719088,4.92297226 3.79618685,4.63397629 4.15227117,4.63397629 L20.2276718,4.63397629 C20.5837562,4.63397629 20.8727521,4.92297226 20.8727521,5.27905658 C20.8727521,5.63514089 20.5837562,5.92413686 20.2276718,5.92413686 L4.15227117,5.92413686 Z M20.2276288,17.8824631 C20.5837131,17.8824631 20.8727091,18.1714591 20.8727091,18.5275434 C20.8727091,18.8836277 20.5837131,19.1726237 20.2276288,19.1726237 L4.15222816,19.1726237 C3.79614385,19.1726237 3.50714788,18.8836277 3.50714788,18.5275434 C3.50714788,18.1714591 3.79614385,17.8824631 4.15222816,17.8824631 L20.2276288,17.8824631 Z M18.8828515,9.04998089 C19.2389358,9.04998089 19.5279318,9.33897686 19.5279318,9.69506117 C19.5279318,10.0511455 19.2389358,10.3401415 18.8828515,10.3401415 L18.3186212,10.3401415 L18.3186212,10.9043717 C18.3186212,11.260886 18.0296253,11.549452 17.6731109,11.549452 C17.3170266,11.549452 17.0284607,11.260886 17.0284607,10.9043717 L17.0284607,10.3401415 L16.4638004,10.3401415 C16.1077161,10.3401415 15.8187201,10.0511455 15.8187201,9.69506117 C15.8187201,9.33897686 16.1077161,9.04998089 16.4638004,9.04998089 L17.0284607,9.04998089 L17.0284607,8.48575067 C17.0284607,8.1292363 17.3170266,7.84024033 17.6731109,7.84024033 C18.0296253,7.84024033 18.3186212,8.1292363 18.3186212,8.48575067 L18.3186212,9.04998089 L18.8828515,9.04998089 Z M13.3996691,9.04998089 C13.7557534,9.04998089 14.0447493,9.33897686 14.0447493,9.69506117 C14.0447493,10.0511455 13.7557534,10.3401415 13.3996691,10.3401415 L12.8354388,10.3401415 L12.8354388,10.9043717 C12.8354388,11.260886 12.5464429,11.549452 12.1899285,11.549452 C11.8338442,11.549452 11.5452783,11.260886 11.5452783,10.9043717 L11.5452783,10.3401415 L10.980618,10.3401415 C10.6245337,10.3401415 10.3355377,10.0511455 10.3355377,9.69506117 C10.3355377,9.33897686 10.6245337,9.04998089 10.980618,9.04998089 L11.5452783,9.04998089 L11.5452783,8.48575067 C11.5452783,8.1292363 11.8338442,7.84024033 12.1899285,7.84024033 C12.5464429,7.84024033 12.8354388,8.1292363 12.8354388,8.48575067 L12.8354388,9.04998089 L13.3996691,9.04998089 Z M12.1901435,15.9661016 C11.8340592,15.9661016 11.5450632,15.6771057 11.5450632,15.3210214 L11.5450632,14.7563611 L10.980403,14.7563611 C10.6243186,14.7563611 10.3357527,14.4677952 10.3357527,14.1117108 C10.3357527,13.7551965 10.6243186,13.4666306 10.980403,13.4666306 L11.5450632,13.4666306 L11.5450632,12.9019703 C11.5450632,12.545886 11.8340592,12.25689 12.1901435,12.25689 C12.5462278,12.25689 12.8352238,12.545886 12.8352238,12.9019703 L12.8352238,13.4666306 L13.3998841,13.4666306 C13.7559684,13.4666306 14.0445343,13.7551965 14.0445343,14.1117108 C14.0445343,14.4677952 13.7559684,14.7563611 13.3998841,14.7563611 L12.8352238,14.7563611 L12.8352238,15.3210214 C12.8352238,15.6771057 12.5462278,15.9661016 12.1901435,15.9661016 Z M6.70696111,15.9661016 C6.3508768,15.9661016 6.06188083,15.6771057 6.06188083,15.3210214 L6.06188083,14.7563611 L5.49722055,14.7563611 C5.14113624,14.7563611 4.85257032,14.4677952 4.85257032,14.1117108 C4.85257032,13.7551965 5.14113624,13.4666306 5.49722055,13.4666306 L6.06188083,13.4666306 L6.06188083,12.9019703 C6.06188083,12.545886 6.3508768,12.25689 6.70696111,12.25689 C7.06304543,12.25689 7.3520414,12.545886 7.3520414,12.9019703 L7.3520414,13.4666306 L7.91670167,13.4666306 C8.27278599,13.4666306 8.5613519,13.7551965 8.5613519,14.1117108 C8.5613519,14.4677952 8.27278599,14.7563611 7.91670167,14.7563611 L7.3520414,14.7563611 L7.3520414,15.3210214 C7.3520414,15.6771057 7.06304543,15.9661016 6.70696111,15.9661016 Z M17.6733259,15.9661016 C17.3172416,15.9661016 17.0282457,15.6771057 17.0282457,15.3210214 L17.0282457,14.7563611 L16.4635854,14.7563611 C16.1075011,14.7563611 15.8189351,14.4677952 15.8189351,14.1117108 C15.8189351,13.7551965 16.1075011,13.4666306 16.4635854,13.4666306 L17.0282457,13.4666306 L17.0282457,12.9019703 C17.0282457,12.545886 17.3172416,12.25689 17.6733259,12.25689 C18.0294103,12.25689 18.3184062,12.545886 18.3184062,12.9019703 L18.3184062,13.4666306 L18.8830665,13.4666306 C19.2391508,13.4666306 19.5277167,13.7551965 19.5277167,14.1117108 C19.5277167,14.4677952 19.2391508,14.7563611 18.8830665,14.7563611 L18.3184062,14.7563611 L18.3184062,15.3210214 C18.3184062,15.6771057 18.0294103,15.9661016 17.6733259,15.9661016 Z" id="path-1"></path>
    </defs>
    <g id="-round/ver1/collagen" stroke="none" stroke-width="1" fill="none" fill-rule="evenodd">
        <mask id="mask-2" fill="white">
            <use xlink:href="#path-1"></use>
        </mask>
        <use id="Mask" fill="#58585B" xlink:href="#path-1"></use>
        <g id="swatch/white" mask="url(#mask-2)" fill="#FFFFFF">
            <rect id="Rectangle" x="0" y="0" width="24" height="24"></rect>
        </g>
        <g id="swatch/brown" mask="url(#mask-2)" fill="#8D7047">
            <rect id="Rectangle" x="0" y="0" width="25" height="24"></rect>
        </g>
    </g>
</svg>