<?xml version="1.0" encoding="UTF-8"?>
<svg width="24px" height="24px" viewBox="0 0 24 24" version="1.1" xmlns="http://www.w3.org/2000/svg" xmlns:xlink="http://www.w3.org/1999/xlink">
    <!-- Generator: Sketch 52.4 (67378) - http://www.bohemiancoding.com/sketch -->
    <title> round/ver1/gift/2</title>
    <desc>Created with Sketch.</desc>
    <defs>
        <path d="M14.5127689,18.654333 L18.7098895,18.654333 L18.7098895,5.05986335 L14.5127689,5.05986335 L14.5127689,18.654333 Z M9.74453866,20.123127 C7.31108064,20.123127 6.07968747,19.6047291 5.98972086,19.3328477 L5.8589324,6.12598746 C6.82716333,6.59167365 8.23373378,6.81282504 9.58283656,6.81282504 C10.9406586,6.81282504 12.3551556,6.58889935 13.3237829,6.1168719 L13.3237829,19.1069403 C13.3237829,19.3681209 12.0931823,20.123127 9.74453866,20.123127 Z M9.58283656,3.59067297 C11.8894694,3.59067297 13.1700073,4.24897489 13.3301241,4.54899569 C13.3277461,4.5684158 13.3237829,4.58743957 13.3237829,4.60765234 L13.3237829,4.67423555 C13.1462276,4.97782331 11.869653,5.62383904 9.58283656,5.62383904 C7.30473938,5.62383904 6.0289574,4.98257926 5.84387191,4.67740618 L5.84307925,4.53948381 C6.02380512,4.23510339 7.29998343,3.59067297 9.58283656,3.59067297 Z M19.3043825,3.87087734 C19.6325426,3.87087734 19.8988755,4.13721021 19.8988755,4.46537034 L19.8988755,19.248826 C19.8988755,19.5769861 19.6325426,19.843319 19.3043825,19.843319 L14.2789349,19.843319 C13.620633,20.8103609 11.6726776,21.312113 9.74453866,21.312113 C8.58488098,21.312113 4.80113118,21.1706237 4.80113118,19.3475118 L4.79518625,19.1216045 L4.65686755,4.86724761 C4.63942909,4.78322594 4.62912454,4.69722261 4.62912454,4.60765234 C4.62912454,3.09169518 7.19693798,2.40168697 9.58283656,2.40168697 C11.5403039,2.40168697 13.6174624,2.86737316 14.3015257,3.87087734 L19.3043825,3.87087734 Z M10.5782953,4.6074938 C10.5782953,4.37167825 10.1328219,4.18104416 9.58271766,4.18104416 C9.03340613,4.18104416 8.58832904,4.37167825 8.58832904,4.6074938 C8.58832904,4.84330936 9.03340613,5.03394345 9.58271766,5.03394345 C10.1328219,5.03394345 10.5782953,4.84330936 10.5782953,4.6074938 Z" id="path-1"></path>
    </defs>
    <g id="-round/ver1/gift/2" stroke="none" stroke-width="1" fill="none" fill-rule="evenodd">
        <mask id="mask-2" fill="white">
            <use xlink:href="#path-1"></use>
        </mask>
        <use id="Mask" fill="#C4844B" xlink:href="#path-1"></use>
        <g id="swatch/white" mask="url(#mask-2)" fill="#FFFFFF">
            <rect id="Rectangle" x="0" y="0" width="24" height="24"></rect>
        </g>
        <g id="swatch/brown" mask="url(#mask-2)" fill="#8D7047">
            <rect id="Rectangle" x="0" y="0" width="25" height="24"></rect>
        </g>
    </g>
</svg>