<?xml version="1.0" encoding="utf-8"?>
<!-- Generator: Adobe Illustrator 20.0.0, SVG Export Plug-In . SVG Version: 6.00 Build 0)  -->
<svg version="1.1" id="레이어_1" xmlns="http://www.w3.org/2000/svg" xmlns:xlink="http://www.w3.org/1999/xlink" x="0px"
	 y="0px" viewBox="0 0 56.7 56.7" style="enable-background:new 0 0 56.7 56.7;" xml:space="preserve">
<style type="text/css">
	.st0{fill:#8B6F46;}
	.st1{fill:#231916;}
	.st2{filter:url(#Adobe_OpacityMaskFilter);}
	.st3{fill:#FFFFFF;}
	.st4{mask:url(#mask-2_1_);}
</style>
<g id="Page-1">
	<g id="_x2D_login" transform="translate(-755.000000, -858.000000)">
		<g id="Group-2" transform="translate(755.000000, 858.000000)">
			<path id="Rectangle-12" class="st0" d="M6.3,0h44.1c3.5,0,6.3,2.8,6.3,6.3v44.1c0,3.5-2.8,6.3-6.3,6.3H6.3
				c-3.5,0-6.3-2.8-6.3-6.3V6.3C0,2.8,2.8,0,6.3,0z"/>
			<g id="_x2D_round_x2F_ver1_x2F_control_x2F_check">
				<g id="Mask">
					<path id="path-1_1_" class="st1" d="M23.7,37.9c-1.9,0-3.7-0.7-5-2.1l-6.4-6.4c-0.6-0.6-0.6-1.6,0-2.3c0.6-0.6,1.6-0.6,2.3,0
						l6.4,6.4c0.7,0.7,1.7,1.2,2.8,1.2c1,0,2-0.4,2.8-1.1L43.2,17c0.6-0.6,1.6-0.6,2.3,0c0.6,0.6,0.6,1.7,0,2.3L28.7,35.8
						C27.4,37.2,25.6,37.9,23.7,37.9"/>
				</g>
				<defs>
					<filter id="Adobe_OpacityMaskFilter" filterUnits="userSpaceOnUse" x="0" y="0" width="59.8" height="56.7">
						<feColorMatrix  type="matrix" values="1 0 0 0 0  0 1 0 0 0  0 0 1 0 0  0 0 0 1 0"/>
					</filter>
				</defs>
				<mask maskUnits="userSpaceOnUse" x="0" y="0" width="59.8" height="56.7" id="mask-2_1_">
					<g class="st2">
						<path id="path-1_2_" class="st3" d="M23.7,37.9c-1.9,0-3.7-0.7-5-2.1l-6.4-6.4c-0.6-0.6-0.6-1.6,0-2.3c0.6-0.6,1.6-0.6,2.3,0
							l6.4,6.4c0.7,0.7,1.7,1.2,2.8,1.2c1,0,2-0.4,2.8-1.1L43.2,17c0.6-0.6,1.6-0.6,2.3,0c0.6,0.6,0.6,1.7,0,2.3L28.7,35.8
							C27.4,37.2,25.6,37.9,23.7,37.9"/>
					</g>
				</mask>
				<g id="swatch_x2F_white" class="st4">
					<rect id="Rectangle" class="st3" width="59.8" height="56.7"/>
				</g>
			</g>
		</g>
	</g>
</g>
</svg>
