<?xml version="1.0" encoding="UTF-8"?>
<svg width="1201px" height="683px" viewBox="0 0 1201 683" version="1.1" xmlns="http://www.w3.org/2000/svg" xmlns:xlink="http://www.w3.org/1999/xlink">
    <!-- Generator: Sketch 52.5 (67469) - http://www.bohemiancoding.com/sketch -->
    <title>Group 8</title>
    <desc>Created with Sketch.</desc>
    <defs>
        <path d="M1180,166.004237 L1181,166 L1181,663 L1,663 L1,215 L0,215 L0,0 L20.9861861,0 C22.4050942,6.96795455 28.5439437,12.2159091 35.9212902,12.2159091 C43.2986368,12.2159091 49.4374863,6.96795455 50.8515184,0 L71.3598592,0 C72.7738912,6.96795455 78.9176167,12.2159091 86.2900873,12.2159091 C93.6674339,12.2159091 99.8111594,6.96795455 101.225191,0 L121.738408,0 C123.147564,6.96795455 129.29129,12.2159091 136.66376,12.2159091 C144.041107,12.2159091 150.184832,6.96795455 151.593989,0 L172.107205,0 C173.516361,6.96795455 179.660087,12.2159091 187.032557,12.2159091 C194.409904,12.2159091 200.55363,6.96795455 201.962786,0 L222.476002,0 C223.885158,6.96795455 230.028884,12.2159091 237.401355,12.2159091 C244.773825,12.2159091 250.922427,6.96795455 252.331583,0 L272.844799,0 C274.258832,6.96795455 280.402557,12.2159091 287.775028,12.2159091 C295.152374,12.2159091 301.2961,6.96795455 302.710132,0 L323.213597,0 C324.627629,6.96795455 330.77623,12.2159091 338.143825,12.2159091 C345.521171,12.2159091 351.664897,6.96795455 353.078929,0 L373.592146,0 C375.001302,6.96795455 381.149903,12.2159091 388.517498,12.2159091 C395.894844,12.2159091 402.03857,6.96795455 403.447726,0 L423.960943,0 C425.370099,6.96795455 431.5187,12.2159091 438.891171,12.2159091 C446.263641,12.2159091 452.407367,6.96795455 453.816523,0 L474.324864,0 C475.738896,6.96795455 481.877745,12.2159091 489.259968,12.2159091 C496.622686,12.2159091 502.776164,6.96795455 504.18532,0 L524.698537,0 C526.112569,6.96795455 532.256294,12.2159091 539.633641,12.2159091 C547.006111,12.2159091 553.149837,6.96795455 554.563869,0 L575.067334,0 C576.481366,6.96795455 582.629967,12.2159091 590.002438,12.2159091 C597.374909,12.2159091 603.518634,6.96795455 604.932666,0 L625.436131,0 C626.850163,6.96795455 632.998764,12.2159091 640.371235,12.2159091 C647.748582,12.2159091 653.887431,6.96795455 655.301463,0 L675.81468,0 C677.223836,6.96795455 683.372438,12.2159091 690.744908,12.2159091 C698.122255,12.2159091 704.261104,6.96795455 705.67026,0 L726.183477,0 C727.592633,6.96795455 733.736359,12.2159091 741.113705,12.2159091 C748.486176,12.2159091 754.629901,6.96795455 756.039057,0 L776.552274,0 C777.966306,6.96795455 784.110032,12.2159091 791.482502,12.2159091 C798.859849,12.2159091 804.998698,6.96795455 806.41273,0 L826.925947,0 C828.339979,6.96795455 834.483705,12.2159091 841.856175,12.2159091 C849.233522,12.2159091 855.377247,6.96795455 856.791279,0 L877.294744,0 C878.708776,6.96795455 884.852502,12.2159091 892.224972,12.2159091 C899.602319,12.2159091 905.746044,6.96795455 907.160077,0 L927.668417,0 C929.077573,6.96795455 935.226175,12.2159091 942.593769,12.2159091 C949.971116,12.2159091 956.114842,6.96795455 957.528874,0 L978.04209,0 C979.451246,6.96795455 985.599848,12.2159091 992.967443,12.2159091 C1000.34479,12.2159091 1006.48851,6.96795455 1007.89767,0 L1028.41089,0 C1029.82004,6.96795455 1035.96865,12.2159091 1043.33624,12.2159091 C1050.71359,12.2159091 1056.85731,6.96795455 1058.26647,0 L1078.77968,0 C1080.19372,6.96795455 1086.34232,12.2159091 1093.70991,12.2159091 C1101.08726,12.2159091 1107.23098,6.96795455 1108.64502,0 L1129.14848,0 C1130.56251,6.96795455 1136.71112,12.2159091 1144.07871,12.2159091 C1151.45606,12.2159091 1157.59978,6.96795455 1159.01381,0 L1180,0 L1180,166.004237 Z" id="path-1"></path>
        <filter x="-1.3%" y="-2.3%" width="102.5%" height="104.5%" filterUnits="objectBoundingBox" id="filter-2">
            <feOffset dx="0" dy="0" in="SourceAlpha" result="shadowOffsetOuter1"></feOffset>
            <feGaussianBlur stdDeviation="5" in="shadowOffsetOuter1" result="shadowBlurOuter1"></feGaussianBlur>
            <feColorMatrix values="0 0 0 0 0   0 0 0 0 0   0 0 0 0 0  0 0 0 0.2 0" type="matrix" in="shadowBlurOuter1"></feColorMatrix>
        </filter>
    </defs>
    <g id="Page-1" stroke="none" stroke-width="1" fill="none" fill-rule="evenodd">
        <g id="확장형-하안검-성형" transform="translate(-360.000000, -1525.000000)">
            <g id="Group-8" transform="translate(370.000000, 1535.000000)">
                <g id="Group-3">
                    <g id="Rectangle-9">
                        <use fill="black" fill-opacity="1" filter="url(#filter-2)" xlink:href="#path-1"></use>
                        <use fill="#FFFFFF" fill-rule="evenodd" xlink:href="#path-1"></use>
                    </g>
                </g>
                <rect id="Rectangle-16" fill="#8D7047" opacity="0.200000003" x="0" y="182" width="1180" height="1"></rect>
                <rect id="Rectangle-16-Copy-10" fill="#8D7047" opacity="0.200000003" x="0" y="167" width="1180" height="5"></rect>
                <rect id="Rectangle-16-Copy-8" fill="#8D7047" opacity="0.200000003" x="0" y="50" width="1180" height="1"></rect>
                <rect id="Rectangle-16-Copy-9" fill="#8D7047" opacity="0.200000003" x="0" y="61" width="1180" height="5"></rect>
                <path d="M405.3225,100.155 L405.3225,103.445 L387.0525,103.445 L387.0525,100.155 L393.9125,100.155 L393.9125,97.495 L398.5325,97.495 L398.5325,100.155 L405.3225,100.155 Z M392.7225,109.01 C392.7225,110.2 394.0525,110.83 396.2225,110.83 C398.3925,110.83 399.6875,110.2 399.6875,109.01 C399.6875,107.82 398.3925,107.225 396.2225,107.225 C394.0525,107.225 392.7225,107.82 392.7225,109.01 Z M406.1625,114.715 L406.5125,117.83 C399.7575,119.02 392.4075,119.09 386.7375,119.09 L386.2475,115.555 C388.5575,115.555 391.1825,115.555 393.9125,115.485 L393.9125,113.665 C390.4825,113.14 388.3475,111.46 388.3475,109.01 C388.3475,106.07 391.4625,104.25 396.2225,104.25 C400.9825,104.25 404.0625,106.07 404.0625,109.01 C404.0625,111.46 401.9625,113.14 398.5325,113.665 L398.5325,115.31 C401.1575,115.205 403.7125,114.995 406.1625,114.715 Z M390.3425,124.585 L390.3425,121.015 L412.1825,121.015 L412.1825,130.045 L407.5625,130.045 L407.5625,124.585 L390.3425,124.585 Z M416.2425,107.015 L416.2425,110.795 L412.1825,110.795 L412.1825,119.755 L407.5625,119.755 L407.5625,97.775 L412.1825,97.775 L412.1825,107.015 L416.2425,107.015 Z M438.0475,112.405 L435.8425,115.975 C432.3075,114.925 429.8575,112.79 428.4575,110.13 C427.0225,113.315 424.4675,115.87 420.6875,117.095 L418.3775,113.49 C423.5925,111.74 425.9025,107.645 425.9725,103.62 L419.5675,103.62 L419.5675,99.91 L436.9975,99.91 L436.9975,103.62 L430.6975,103.62 C430.7675,107.295 432.9725,110.9 438.0475,112.405 Z M433.6725,126.475 C437.7675,126.475 439.9725,125.6 439.9725,123.78 C439.9725,121.925 437.7675,121.05 433.6725,121.05 C429.5425,121.05 427.3375,121.925 427.3375,123.78 C427.3375,125.6 429.5425,126.475 433.6725,126.475 Z M433.6725,117.48 C440.3575,117.48 444.5575,119.825 444.5575,123.78 C444.5575,127.7 440.3575,130.01 433.6725,130.01 C426.9525,130.01 422.7525,127.7 422.7525,123.78 C422.7525,119.825 426.9525,117.48 433.6725,117.48 Z M444.2075,105.195 L448.4775,105.195 L448.4775,108.975 L444.2075,108.975 L444.2075,116.92 L439.5875,116.92 L439.5875,97.775 L444.2075,97.775 L444.2075,105.195 Z M473.3625,118.285 L473.3625,114.96 L469.1625,114.96 L469.1625,111.285 L473.3625,111.285 L473.3625,108.52 L469.2325,108.52 L469.2325,104.845 L473.3625,104.845 L473.3625,97.775 L477.9825,97.775 L477.9825,118.285 L473.3625,118.285 Z M468.8125,100.68 L468.8125,104.32 L451.1375,104.32 L451.1375,100.68 L457.8925,100.68 L457.8925,97.53 L462.5125,97.53 L462.5125,100.68 L468.8125,100.68 Z M456.9475,111.46 C456.9475,113.14 458.2425,114.05 460.2025,114.05 C462.1275,114.05 463.4575,113.14 463.4575,111.46 C463.4575,109.78 462.1275,108.87 460.2025,108.87 C458.2425,108.87 456.9475,109.78 456.9475,111.46 Z M467.7275,111.46 C467.7275,115.03 464.6125,117.48 460.2025,117.48 C455.7575,117.48 452.6425,115.03 452.6425,111.46 C452.6425,107.89 455.7575,105.44 460.2025,105.44 C464.6125,105.44 467.7275,107.89 467.7275,111.46 Z M467.0975,126.51 C471.0525,126.51 473.2575,125.845 473.2575,124.375 C473.2575,122.87 471.0525,122.24 467.0975,122.24 C463.1075,122.24 460.9375,122.87 460.9375,124.375 C460.9375,125.845 463.1075,126.51 467.0975,126.51 Z M467.0975,118.705 C473.8875,118.705 478.1225,120.805 478.1225,124.375 C478.1225,127.91 473.8875,130.01 467.0975,130.01 C460.3075,130.01 456.0375,127.91 456.0375,124.375 C456.0375,120.805 460.3075,118.705 467.0975,118.705 Z M500.4875,119.65 C502.6575,119.65 504.2325,118.18 504.2325,115.695 C504.2325,113.28 502.6575,111.775 500.4875,111.775 C498.3175,111.775 496.7075,113.28 496.7075,115.73 C496.7075,118.18 498.3175,119.65 500.4875,119.65 Z M500.4875,108.03 C505.1425,108.03 508.6075,111.215 508.6075,115.695 C508.6075,120.245 505.1425,123.43 500.4875,123.43 C495.7975,123.43 492.2975,120.245 492.2975,115.695 C492.2975,111.215 495.7975,108.03 500.4875,108.03 Z M502.7625,98.335 L502.7625,102.535 L509.7625,102.535 L509.7625,106.21 L491.0025,106.21 L491.0025,102.535 L498.1425,102.535 L498.1425,98.335 L502.7625,98.335 Z M521.1025,110.375 L521.1025,114.19 L516.4825,114.19 L516.4825,130.01 L511.8625,130.01 L511.8625,97.775 L516.4825,97.775 L516.4825,110.375 L521.1025,110.375 Z M528.1375,108.03 C528.1375,110.655 529.9575,112.23 532.3725,112.23 C534.7525,112.23 536.6075,110.655 536.6075,108.03 C536.6075,105.405 534.7525,103.83 532.3725,103.83 C529.9575,103.83 528.1375,105.405 528.1375,108.03 Z M541.0875,108.03 C541.0875,112.755 537.2725,116.22 532.3725,116.22 C527.4375,116.22 523.6225,112.755 523.6225,108.03 C523.6225,103.27 527.4375,99.84 532.3725,99.84 C537.2725,99.84 541.0875,103.27 541.0875,108.03 Z M532.5825,118.81 L532.5825,125.775 L549.9075,125.775 L549.9075,129.45 L527.9625,129.45 L527.9625,118.81 L532.5825,118.81 Z M548.7525,107.015 L553.0225,107.015 L553.0225,110.795 L548.7525,110.795 L548.7525,121.225 L544.1325,121.225 L544.1325,97.775 L548.7525,97.775 L548.7525,107.015 Z M557.4675,99.63 L572.1675,99.63 C572.1675,108.135 566.9175,113.945 557.5375,116.535 L555.7175,112.965 C562.6475,111.075 566.5325,107.575 567.2675,103.305 L557.4675,103.305 L557.4675,99.63 Z M565.8675,120.735 L565.8675,126.02 L577.9775,126.02 L577.9775,120.735 L565.8675,120.735 Z M561.3175,129.625 L561.3175,117.095 L582.5275,117.095 L582.5275,129.625 L561.3175,129.625 Z M577.9075,97.81 L582.5275,97.81 L582.5275,115.765 L577.9075,115.765 L577.9075,109.15 L572.3425,109.15 L572.3425,105.405 L577.9075,105.405 L577.9075,97.81 Z M612.0675,98.44 L613.2225,98.44 L613.2225,129.345 L612.0675,129.345 L612.0675,98.44 Z M597.2975,101.065 C601.7425,101.065 604.8575,105.195 604.8575,111.565 C604.8575,117.97 601.7425,122.1 597.2975,122.1 C592.8875,122.1 589.7375,117.97 589.7375,111.565 C589.7375,105.195 592.8875,101.065 597.2975,101.065 Z M597.2975,102.045 C593.5525,102.045 590.8575,106.105 590.8575,111.565 C590.8575,117.06 593.5525,121.12 597.2975,121.12 C601.0425,121.12 603.7375,117.06 603.7375,111.565 C603.7375,106.105 601.0425,102.045 597.2975,102.045 Z M653.1925,98.475 L653.1925,114.645 L652.0375,114.645 L652.0375,98.475 L653.1925,98.475 Z M634.5025,101.835 L634.5025,111.845 C636.7075,111.775 639.0875,111.705 641.3625,111.565 L641.3625,101.835 L634.5025,101.835 Z M648.0125,110.97 L648.0825,111.915 C641.9225,112.755 634.4675,113.07 628.9375,113.07 L628.7275,111.95 C630.1975,111.95 631.7375,111.915 633.3475,111.88 L633.3475,101.835 L629.6375,101.835 L629.6375,100.785 L646.1925,100.785 L646.1925,101.835 L642.5175,101.835 L642.5175,111.495 C644.4425,111.355 646.2625,111.18 648.0125,110.97 Z M635.1325,127.805 L654.6275,127.805 L654.6275,128.855 L633.9775,128.855 L633.9775,121.925 L652.0375,121.925 L652.0375,117.48 L633.8725,117.48 L633.8725,116.43 L653.1925,116.43 L653.1925,122.94 L635.1325,122.94 L635.1325,127.805 Z M669.1525,115.24 L669.1525,123.955 L679.6525,123.955 L679.6525,115.205 C678.1475,115.73 676.3275,116.01 674.3675,116.01 C672.4075,116.01 670.6575,115.73 669.1525,115.24 Z M664.4975,108.45 C664.4975,112.265 668.6975,115.03 674.3675,115.03 C680.0375,115.03 684.2375,112.265 684.2375,108.45 C684.2375,104.6 680.0375,101.835 674.3675,101.835 C668.6975,101.835 664.4975,104.6 664.4975,108.45 Z M680.8075,123.955 L688.4375,123.955 L688.4375,125.005 L660.4375,125.005 L660.4375,123.955 L667.9975,123.955 L667.9975,114.785 C665.1975,113.525 663.4825,111.285 663.4825,108.45 C663.4825,103.83 667.9275,100.855 674.3675,100.855 C680.8075,100.855 685.2525,103.83 685.2525,108.45 C685.2525,111.25 683.5725,113.49 680.8075,114.75 L680.8075,123.955 Z M711.1175,102.78 L711.1175,103.83 L692.8125,103.83 L692.8125,102.78 L701.3875,102.78 L701.3875,98.51 L702.5425,98.51 L702.5425,102.78 L711.1175,102.78 Z M695.8225,111.67 C695.8225,114.295 698.2725,116.22 701.9475,116.22 C705.5875,116.22 708.0375,114.295 708.0375,111.67 C708.0375,109.01 705.5875,107.155 701.9475,107.155 C698.2725,107.155 695.8225,109.01 695.8225,111.67 Z M709.1225,111.67 C709.1225,115.065 706.2525,117.235 701.9475,117.235 C697.5725,117.235 694.7375,115.065 694.7375,111.67 C694.7375,108.275 697.5725,106.14 701.9475,106.14 C706.2525,106.14 709.1225,108.275 709.1225,111.67 Z M698.8675,119.755 L698.8675,127.455 L717.9425,127.455 L717.9425,128.505 L697.7125,128.505 L697.7125,119.755 L698.8675,119.755 Z M716.2625,109.36 L721.3025,109.36 L721.3025,110.41 L716.2625,110.41 L716.2625,121.715 L715.1075,121.715 L715.1075,98.475 L716.2625,98.475 L716.2625,109.36 Z M756.3375,106.035 L747.3075,106.035 C745.2425,111.04 740.0625,114.89 733.6925,116.99 L733.0975,116.01 C740.7625,113.56 746.6425,108.59 747.0625,102.045 L734.6025,102.045 L734.6025,100.995 L748.3225,100.995 C748.3225,102.395 748.1125,103.725 747.6925,104.985 L756.3375,104.985 L756.3375,98.475 L757.4925,98.475 L757.4925,117.69 L756.3375,117.69 L756.3375,112.475 L746.8875,112.475 L746.8875,111.425 L756.3375,111.425 L756.3375,106.035 Z M747.6575,128.19 C752.9425,128.19 756.5125,126.37 756.5125,123.605 C756.5125,120.84 752.9425,119.02 747.6575,119.02 C742.3375,119.02 738.7675,120.84 738.7675,123.605 C738.7675,126.37 742.3375,128.19 747.6575,128.19 Z M747.6575,118.005 C753.8525,118.005 757.6325,120.07 757.6325,123.605 C757.6325,127.14 753.8525,129.205 747.6575,129.205 C741.4275,129.205 737.6475,127.14 737.6475,123.605 C737.6475,120.07 741.4275,118.005 747.6575,118.005 Z M778.6675,100.89 C773.2775,100.89 769.3925,103.2 769.3925,106.455 C769.3925,109.745 773.2775,112.055 778.6675,112.055 C784.0925,112.055 787.9425,109.745 787.9425,106.455 C787.9425,103.2 784.0925,100.89 778.6675,100.89 Z M778.6675,113.07 C772.4025,113.07 768.2375,110.515 768.2375,106.455 C768.2375,102.395 772.4025,99.875 778.6675,99.875 C784.9675,99.875 789.0975,102.395 789.0975,106.455 C789.0975,110.515 784.9675,113.07 778.6675,113.07 Z M792.7375,116.57 L792.7375,117.62 L779.2625,117.62 L779.2625,129.31 L778.1075,129.31 L778.1075,117.62 L764.6675,117.62 L764.6675,116.57 L792.7375,116.57 Z" id="확장형-하안검이-필요한-경우" fill="#8D7047"></path>
                <rect id="Rectangle-4" stroke="#E9E9E9" fill="#FFFFFF" x="100.5" y="233.5" width="979" height="59"></rect>
                <rect id="Rectangle-4-Copy-4" stroke="#E9E9E9" fill="#FFFFFF" x="100.5" y="393.5" width="979" height="59"></rect>
                <rect id="Rectangle-4-Copy-10" stroke="#E9E9E9" fill="#FFFFFF" x="100.5" y="553.5" width="979" height="59"></rect>
                <rect id="Rectangle-4-Copy" stroke="#E9E9E9" fill="#F8F8F8" x="100.5" y="313.5" width="979" height="59"></rect>
                <rect id="Rectangle-4-Copy-5" stroke="#E9E9E9" fill="#F8F8F8" x="100.5" y="473.5" width="979" height="59"></rect>
                <text id="눈-밑-주름이-심해-그늘져-보이는-경" font-family="NotoSansCJKkr-Bold, Noto Sans CJK KR" font-size="22" font-weight="bold" fill="#555555">
                    <tspan x="225" y="273">눈 밑 주름이 심해 그늘져 보이는 경우</tspan>
                </text>
                <text id="피부-처짐이-심해-나이가-들어보이는" font-family="NotoSansCJKkr-Bold, Noto Sans CJK KR" font-size="22" font-weight="bold" fill="#555555">
                    <tspan x="225" y="433">피부 처짐이 심해 나이가 들어보이는 경우</tspan>
                </text>
                <text id="눈가-리프팅-효과로-생기-있는-눈매를" font-family="NotoSansCJKkr-Bold, Noto Sans CJK KR" font-size="22" font-weight="bold" fill="#555555">
                    <tspan x="225" y="593">눈가 리프팅 효과로 생기 있는 눈매를 원하는 분</tspan>
                </text>
                <text id="눈-밑-지방이-볼록해서-피곤해-보이는" font-family="NotoSansCJKkr-Bold, Noto Sans CJK KR" font-size="22" font-weight="bold" fill="#555555">
                    <tspan x="225" y="353">눈 밑 지방이 볼록해서 피곤해 보이는 경우</tspan>
                </text>
                <text id="눈-밑이-푹-꺼져-없어-보이는-경우" font-family="NotoSansCJKkr-Bold, Noto Sans CJK KR" font-size="22" font-weight="bold" fill="#555555">
                    <tspan x="225" y="513">눈 밑이 푹 꺼져 없어 보이는 경우</tspan>
                </text>
                <rect id="Rectangle-4" fill="#AE8B59" x="100" y="233" width="95" height="60"></rect>
                <rect id="Rectangle-4-Copy-6" fill="#AE8B59" x="100" y="393" width="95" height="60"></rect>
                <rect id="Rectangle-4-Copy-11" fill="#AE8B59" x="100" y="553" width="95" height="60"></rect>
                <rect id="Rectangle-4-Copy-2" fill="#8D7047" x="100" y="313" width="95" height="60"></rect>
                <rect id="Rectangle-4-Copy-7" fill="#8D7047" x="100" y="473" width="95" height="60"></rect>
                <rect id="Rectangle-4" stroke="#FFFFFF" opacity="0.5" x="105.5" y="238.5" width="84" height="49"></rect>
                <rect id="Rectangle-4-Copy-8" stroke="#FFFFFF" opacity="0.5" x="105.5" y="398.5" width="84" height="49"></rect>
                <rect id="Rectangle-4-Copy-12" stroke="#FFFFFF" opacity="0.5" x="105.5" y="558.5" width="84" height="49"></rect>
                <rect id="Rectangle-4-Copy-3" stroke="#FFFFFF" opacity="0.5" x="105.5" y="318.5" width="84" height="49"></rect>
                <rect id="Rectangle-4-Copy-9" stroke="#FFFFFF" opacity="0.5" x="105.5" y="478.5" width="84" height="49"></rect>
                <text id="01." font-family="Montserrat-Bold, Montserrat" font-size="22" font-weight="bold" fill="#FFFFFF">
                    <tspan x="133.128" y="268">01.</tspan>
                </text>
                <text id="03." font-family="Montserrat-Bold, Montserrat" font-size="22" font-weight="bold" fill="#FFFFFF">
                    <tspan x="130.939" y="428">03.</tspan>
                </text>
                <text id="05." font-family="Montserrat-Bold, Montserrat" font-size="22" font-weight="bold" fill="#FFFFFF">
                    <tspan x="130.697" y="588">05.</tspan>
                </text>
                <text id="02." font-family="Montserrat-Bold, Montserrat" font-size="22" font-weight="bold" fill="#FFFFFF">
                    <tspan x="130.917" y="348">02.</tspan>
                </text>
                <text id="04." font-family="Montserrat-Bold, Montserrat" font-size="22" font-weight="bold" fill="#FFFFFF">
                    <tspan x="130.895" y="508">04.</tspan>
                </text>
            </g>
        </g>
    </g>
</svg>