<?xml version="1.0" encoding="UTF-8"?>
<svg width="16px" height="22px" viewBox="0 0 16 22" version="1.1" xmlns="http://www.w3.org/2000/svg" xmlns:xlink="http://www.w3.org/1999/xlink">
    <!-- Generator: Sketch 52.5 (67469) - http://www.bohemiancoding.com/sketch -->
    <title>icon/home/1</title>
    <desc>Created with Sketch.</desc>
    <defs>
        <path d="M15.8418,21.9375 C14.6358,21.9375 13.5728,21.3535 12.8918,20.4615 C12.5868,20.0645 12.3618,19.6085 12.2368,19.1085 C12.1628,18.8175 12.1128,18.5185 12.1128,18.2055 C12.1128,16.1485 13.7838,14.4745 15.8418,14.4745 C16.1848,14.4745 16.5108,14.5365 16.8268,14.6235 C17.3308,14.7625 17.7868,15.0025 18.1828,15.3235 C19.0238,16.0085 19.5728,17.0385 19.5728,18.2055 C19.5728,20.2635 17.8998,21.9375 15.8418,21.9375 M10.7548,18.2055 C10.7548,18.5145 10.7928,18.8145 10.8458,19.1085 C10.8548,19.1585 10.8728,19.2045 10.8838,19.2535 L6.3558,19.2535 L6.3558,13.9725 C6.3558,12.1465 7.8358,10.6695 9.6588,10.6695 L13.6338,10.6695 C15.2008,10.6695 16.5058,11.7675 16.8418,13.2355 C16.8158,13.2295 16.7918,13.2195 16.7648,13.2145 C16.4648,13.1595 16.1568,13.1215 15.8418,13.1215 C13.0378,13.1215 10.7548,15.4045 10.7548,18.2055 M8.9318,6.0705 C8.9318,4.5705 10.1498,3.3535 11.6458,3.3535 C13.1428,3.3535 14.3628,4.5705 14.3628,6.0705 C14.3628,7.5635 13.1428,8.7865 11.6458,8.7865 C10.1498,8.7865 8.9318,7.5635 8.9318,6.0705 M5,19.9471108 L5,13.9290747 C5.0222364,11.515953 6.89596956,9.55627304 9.2608,9.3515 C8.2448,8.6105 7.5758,7.4205 7.5758,6.0705 C7.5758,3.8215 9.4028,2.0005 11.6458,2.0005 C13.8898,2.0005 15.7178,3.8215 15.7178,6.0705 C15.7178,7.4205 15.0488,8.6105 14.0318,9.3515 C16.3468,9.5515 18.1728,11.4345 18.2738,13.7745 C19.8458,14.6405 20.9288,16.2905 20.9288,18.2055 C20.9288,21.0125 18.6468,23.2955 15.8418,23.2955 C13.9108,23.2955 12.2508,22.1985 11.3908,20.6065 L5.7058,20.6065 C5.6958,20.6075 5.6868,20.6125 5.6768,20.6125 C5.6668,20.6125 5.6578,20.6075 5.6478,20.6065 L5.4858,20.6065 L5.4858,20.5745 C5.21181677,20.4910284 5.00726751,20.2484373 5,19.9471108 Z M17.7183,17.6802 L16.3703,17.6802 L16.3703,16.3312 C16.3703,16.0392 16.1343,15.8032 15.8423,15.8032 C15.5503,15.8032 15.3133,16.0392 15.3133,16.3312 L15.3133,17.6802 L13.9653,17.6802 C13.6733,17.6802 13.4363,17.9162 13.4363,18.2082 C13.4363,18.5002 13.6733,18.7372 13.9653,18.7372 L15.3133,18.7372 L15.3133,20.0852 C15.3133,20.3772 15.5503,20.6142 15.8423,20.6142 C16.1343,20.6142 16.3703,20.3772 16.3703,20.0852 L16.3703,18.7372 L17.7183,18.7372 C18.0103,18.7372 18.2473,18.5002 18.2473,18.2082 C18.2473,17.9162 18.0103,17.6802 17.7183,17.6802" id="path-1"></path>
    </defs>
    <g id="Page-1" stroke="none" stroke-width="1" fill="none" fill-rule="evenodd" opacity="0.5">
        <g id="menu-320" transform="translate(-142.000000, -30.000000)">
            <g id="header_top_menu" transform="translate(137.000000, 28.000000)">
                <g id="icon/join">
                    <mask id="mask-2" fill="white">
                        <use xlink:href="#path-1"></use>
                    </mask>
                    <use id="Mask" fill="#231916" fill-rule="evenodd" xlink:href="#path-1"></use>
                    <g id="swatch/white" mask="url(#mask-2)" fill="#FFFFFF" fill-rule="evenodd">
                        <rect id="Rectangle" x="0" y="0" width="25" height="24"></rect>
                    </g>
                    <g id="white" mask="url(#mask-2)" fill="#FFFFFF" fill-rule="nonzero">
                        <g transform="translate(12.500000, 13.000000) scale(-1, 1) translate(-12.500000, -13.000000) translate(0.000000, -1.000000)" id="Rectangle">
                            <rect x="0" y="0" width="25" height="28"></rect>
                        </g>
                    </g>
                </g>
            </g>
        </g>
    </g>
</svg>