<?xml version="1.0" encoding="UTF-8"?>
<svg width="291px" height="499px" viewBox="0 0 291 499" version="1.1" xmlns="http://www.w3.org/2000/svg" xmlns:xlink="http://www.w3.org/1999/xlink">
    <!-- Generator: Sketch 52.5 (67469) - http://www.bohemiancoding.com/sketch -->
    <title>Group 6</title>
    <desc>Created with Sketch.</desc>
    <defs>
        <path d="M24.4969375,13.015625 C23.7578542,13.015625 23.1576042,12.415375 23.1576042,11.6762917 C23.1576042,10.9351667 23.7578542,10.3369583 24.4969375,10.3369583 C25.2360208,10.3369583 25.8362708,10.9351667 25.8362708,11.6762917 C25.8362708,12.415375 25.2360208,13.015625 24.4969375,13.015625 Z M38.7208208,37.9623417 C39.2843208,37.9623417 39.7416542,38.419675 39.7416542,38.983175 C39.7416542,39.546675 39.2843208,40.0040083 38.7208208,40.0040083 L37.4121125,40.0040083 L37.4121125,41.3127167 C37.4121125,41.8762167 36.9568208,42.33355 36.3912792,42.33355 C35.8277792,42.33355 35.3704458,41.8762167 35.3704458,41.3127167 L35.3704458,40.0040083 L34.0637792,40.0040083 C33.4982375,40.0040083 33.0429458,39.546675 33.0429458,38.983175 C33.0429458,38.419675 33.4982375,37.9623417 34.0637792,37.9623417 L35.3704458,37.9623417 L35.3704458,36.6536333 C35.3704458,36.0901333 35.8277792,35.6328 36.3912792,35.6328 C36.9568208,35.6328 37.4121125,36.0901333 37.4121125,36.6536333 L37.4121125,37.9623417 L38.7208208,37.9623417 Z M42.9317583,44.9166667 L29.5343417,44.9166667 L29.5343417,35.4739583 C29.5343417,35.3984167 29.526175,35.3249167 29.5098417,35.2534583 L29.0627167,33.2383333 L30.5449667,34.3204167 C30.7246333,34.453125 30.9369667,34.5164167 31.1452167,34.5164167 C31.4473833,34.5164167 31.7454667,34.3837083 31.94555,34.1305417 L34.1362583,31.3742917 C35.64505,31.9337083 37.4498833,32.6237917 39.2261333,33.3547083 C42.8317167,34.839 42.9297167,37.5727917 42.9317583,37.6789583 L42.9317583,44.9166667 Z M6.12459167,37.6789583 C6.12459167,37.650375 6.16746667,34.8635 9.83225833,33.3547083 C11.5901333,32.6299167 13.3786333,31.9459583 14.8792583,31.390625 L17.0597583,34.1305417 C17.2598417,34.3837083 17.557925,34.5164167 17.85805,34.5164167 C18.0663,34.5164167 18.2786333,34.453125 18.4603417,34.3204167 L20.0058833,33.1934167 L19.5465083,35.2534583 C19.5322167,35.3249167 19.52405,35.3984167 19.52405,35.4739583 L19.52405,44.9166667 L6.12459167,44.9166667 L6.12459167,37.6789583 Z M23.0418417,27.6441667 C23.2113,27.7564583 23.4093417,27.8177083 23.6135083,27.8177083 L25.3346333,27.8177083 C25.5388,27.8177083 25.7388833,27.7564583 25.9083417,27.642125 L28.8320083,25.6596667 L28.8320083,28.805875 C28.8320083,28.8691667 28.8544667,28.92225 28.8667167,28.9794167 L27.0088,29.981875 C26.6168,30.1921667 26.4208,30.631125 26.4983833,31.0639583 L26.4677583,31.0619167 C26.3677167,31.2232083 25.6592583,31.6152083 24.49755,31.6152083 C23.3358417,31.6152083 22.6253417,31.22525 22.5498,31.1680833 L22.5477583,31.1680833 L22.56205,31.1007083 C22.66005,30.655625 22.4518,30.1982917 22.04755,29.981875 L19.7098417,28.7221667 L19.7098417,25.3962917 L23.0418417,27.6441667 Z M24.5240917,6.125 C27.3436333,6.125 29.76505,7.613375 30.983925,9.76120833 L28.7319667,9.76120833 C27.9990083,8.14829167 26.3820083,7.01925 24.49755,7.01925 C22.6130917,7.01925 20.99405,8.14829167 20.2610917,9.76120833 L18.0663,9.76120833 C19.2831333,7.613375 21.7065917,6.125 24.5240917,6.125 Z M29.5180083,12.5052083 L31.4473833,12.5052083 L31.4473833,11.802875 L29.5180083,11.802875 L29.5180083,12.5052083 Z M24.49755,9.06091667 C25.9389667,9.06091667 27.112925,10.2328333 27.112925,11.6762917 C27.112925,13.1177083 25.9389667,14.2916667 24.49755,14.2916667 C23.0540917,14.2916667 21.8801333,13.1177083 21.8801333,11.6762917 C21.8801333,10.2328333 23.0540917,9.06091667 24.49755,9.06091667 Z M18.91155,22.399125 L17.44155,14.546875 L20.8572583,14.546875 C21.710675,15.6269167 23.0173417,16.3333333 24.49755,16.3333333 C26.0063417,16.3333333 27.3354667,15.600375 28.1868417,14.485625 C28.2868833,14.51625 28.386925,14.546875 28.497175,14.546875 L31.596425,14.546875 L29.7630083,22.5624583 L25.0222583,25.7760417 L23.9238417,25.7760417 L18.91155,22.399125 Z M17.5375083,12.5052083 L19.8384667,12.5052083 L19.8384667,11.802875 L17.5375083,11.802875 L17.5375083,12.5052083 Z M21.5657167,35.58625 L22.0985917,33.1893333 C22.7539667,33.4833333 23.5706333,33.656875 24.49755,33.656875 C25.4510083,33.656875 26.2880917,33.4710833 26.9516333,33.16075 L27.492675,35.58625 L27.492675,44.9166667 L21.5657167,44.9166667 L21.5657167,35.58625 Z M18.158175,30.2044167 L19.5832583,30.9720833 L18.047925,32.095 L16.8984667,30.6515417 C17.4333833,30.459625 17.8682583,30.3065 18.158175,30.2044167 Z M32.11705,30.63725 L30.9573833,32.095 L29.4424667,30.9884167 L30.898175,30.2044167 C31.179925,30.3044583 31.6045917,30.4535 32.11705,30.63725 Z M40.0019667,31.4682083 C35.6858833,29.6899167 31.18605,28.144375 31.1411333,28.1280417 C31.0533417,28.0974167 30.9635083,28.0994583 30.873675,28.095375 L30.873675,24.34075 C30.873675,24.3203333 30.8634667,24.304 30.861425,24.285625 L31.241175,24.028375 C31.4535083,23.881375 31.6066333,23.660875 31.6617583,23.40975 L32.049675,21.7172083 C33.0317167,21.4885417 33.9668,20.6208333 34.4282167,19.312125 C35.00805,17.65225 34.5874667,16.0311667 33.48905,15.4125417 L33.6646333,14.644875 C33.801425,14.0344167 33.8728833,13.4239583 33.8728833,12.82575 C33.8728833,8.005375 29.6793,4.08333333 24.5240917,4.08333333 C20.3039667,4.08333333 16.7678,6.731375 15.6122167,10.332875 C15.5815917,10.3920833 15.5673,10.455375 15.548925,10.5207083 C15.3304667,11.2597917 15.1773417,12.023375 15.1773417,12.82575 C15.1773417,13.1177083 15.2100083,13.3994583 15.2630917,13.7587917 C15.2508417,13.860875 15.2528833,13.965 15.2733,14.069125 L15.4958417,15.2532917 C15.4835917,15.257375 15.4713417,15.2553333 15.4590917,15.2594167 C14.1320083,15.7249167 13.5848417,17.50525 14.2198,19.3141667 C14.6955083,20.671875 15.6857167,21.5620417 16.7106333,21.7396667 L16.9842167,23.195375 C17.0332167,23.4628333 17.190425,23.6996667 17.41705,23.8527917 L17.6743,24.0263333 C17.6722583,24.0345 17.668175,24.0426667 17.668175,24.052875 L17.668175,28.2137917 C16.6800083,28.5588333 12.8028833,29.9247083 9.05438333,31.4682083 C4.14009167,33.4915 4.082925,37.5095 4.082925,37.6789583 L4.082925,45.9375 C4.082925,46.501 4.54025833,46.9583333 5.10375833,46.9583333 L20.5448833,46.9583333 L28.5135083,46.9583333 C28.546175,46.9583333 28.5727167,46.942 28.6033417,46.9399583 C28.63805,46.942 28.6707167,46.9583333 28.7033833,46.9583333 L43.9525917,46.9583333 C44.5160917,46.9583333 44.973425,46.501 44.973425,45.9375 L44.973425,37.6789583 C44.973425,37.5095 44.9162583,33.4915 40.0019667,31.4682083 Z" id="path-1"></path>
        <path d="M24.4969375,13.015625 C23.7578542,13.015625 23.1576042,12.415375 23.1576042,11.6762917 C23.1576042,10.9351667 23.7578542,10.3369583 24.4969375,10.3369583 C25.2360208,10.3369583 25.8362708,10.9351667 25.8362708,11.6762917 C25.8362708,12.415375 25.2360208,13.015625 24.4969375,13.015625 Z M38.7208208,37.9623417 C39.2843208,37.9623417 39.7416542,38.419675 39.7416542,38.983175 C39.7416542,39.546675 39.2843208,40.0040083 38.7208208,40.0040083 L37.4121125,40.0040083 L37.4121125,41.3127167 C37.4121125,41.8762167 36.9568208,42.33355 36.3912792,42.33355 C35.8277792,42.33355 35.3704458,41.8762167 35.3704458,41.3127167 L35.3704458,40.0040083 L34.0637792,40.0040083 C33.4982375,40.0040083 33.0429458,39.546675 33.0429458,38.983175 C33.0429458,38.419675 33.4982375,37.9623417 34.0637792,37.9623417 L35.3704458,37.9623417 L35.3704458,36.6536333 C35.3704458,36.0901333 35.8277792,35.6328 36.3912792,35.6328 C36.9568208,35.6328 37.4121125,36.0901333 37.4121125,36.6536333 L37.4121125,37.9623417 L38.7208208,37.9623417 Z M42.9317583,44.9166667 L29.5343417,44.9166667 L29.5343417,35.4739583 C29.5343417,35.3984167 29.526175,35.3249167 29.5098417,35.2534583 L29.0627167,33.2383333 L30.5449667,34.3204167 C30.7246333,34.453125 30.9369667,34.5164167 31.1452167,34.5164167 C31.4473833,34.5164167 31.7454667,34.3837083 31.94555,34.1305417 L34.1362583,31.3742917 C35.64505,31.9337083 37.4498833,32.6237917 39.2261333,33.3547083 C42.8317167,34.839 42.9297167,37.5727917 42.9317583,37.6789583 L42.9317583,44.9166667 Z M6.12459167,37.6789583 C6.12459167,37.650375 6.16746667,34.8635 9.83225833,33.3547083 C11.5901333,32.6299167 13.3786333,31.9459583 14.8792583,31.390625 L17.0597583,34.1305417 C17.2598417,34.3837083 17.557925,34.5164167 17.85805,34.5164167 C18.0663,34.5164167 18.2786333,34.453125 18.4603417,34.3204167 L20.0058833,33.1934167 L19.5465083,35.2534583 C19.5322167,35.3249167 19.52405,35.3984167 19.52405,35.4739583 L19.52405,44.9166667 L6.12459167,44.9166667 L6.12459167,37.6789583 Z M23.0418417,27.6441667 C23.2113,27.7564583 23.4093417,27.8177083 23.6135083,27.8177083 L25.3346333,27.8177083 C25.5388,27.8177083 25.7388833,27.7564583 25.9083417,27.642125 L28.8320083,25.6596667 L28.8320083,28.805875 C28.8320083,28.8691667 28.8544667,28.92225 28.8667167,28.9794167 L27.0088,29.981875 C26.6168,30.1921667 26.4208,30.631125 26.4983833,31.0639583 L26.4677583,31.0619167 C26.3677167,31.2232083 25.6592583,31.6152083 24.49755,31.6152083 C23.3358417,31.6152083 22.6253417,31.22525 22.5498,31.1680833 L22.5477583,31.1680833 L22.56205,31.1007083 C22.66005,30.655625 22.4518,30.1982917 22.04755,29.981875 L19.7098417,28.7221667 L19.7098417,25.3962917 L23.0418417,27.6441667 Z M24.5240917,6.125 C27.3436333,6.125 29.76505,7.613375 30.983925,9.76120833 L28.7319667,9.76120833 C27.9990083,8.14829167 26.3820083,7.01925 24.49755,7.01925 C22.6130917,7.01925 20.99405,8.14829167 20.2610917,9.76120833 L18.0663,9.76120833 C19.2831333,7.613375 21.7065917,6.125 24.5240917,6.125 Z M29.5180083,12.5052083 L31.4473833,12.5052083 L31.4473833,11.802875 L29.5180083,11.802875 L29.5180083,12.5052083 Z M24.49755,9.06091667 C25.9389667,9.06091667 27.112925,10.2328333 27.112925,11.6762917 C27.112925,13.1177083 25.9389667,14.2916667 24.49755,14.2916667 C23.0540917,14.2916667 21.8801333,13.1177083 21.8801333,11.6762917 C21.8801333,10.2328333 23.0540917,9.06091667 24.49755,9.06091667 Z M18.91155,22.399125 L17.44155,14.546875 L20.8572583,14.546875 C21.710675,15.6269167 23.0173417,16.3333333 24.49755,16.3333333 C26.0063417,16.3333333 27.3354667,15.600375 28.1868417,14.485625 C28.2868833,14.51625 28.386925,14.546875 28.497175,14.546875 L31.596425,14.546875 L29.7630083,22.5624583 L25.0222583,25.7760417 L23.9238417,25.7760417 L18.91155,22.399125 Z M17.5375083,12.5052083 L19.8384667,12.5052083 L19.8384667,11.802875 L17.5375083,11.802875 L17.5375083,12.5052083 Z M21.5657167,35.58625 L22.0985917,33.1893333 C22.7539667,33.4833333 23.5706333,33.656875 24.49755,33.656875 C25.4510083,33.656875 26.2880917,33.4710833 26.9516333,33.16075 L27.492675,35.58625 L27.492675,44.9166667 L21.5657167,44.9166667 L21.5657167,35.58625 Z M18.158175,30.2044167 L19.5832583,30.9720833 L18.047925,32.095 L16.8984667,30.6515417 C17.4333833,30.459625 17.8682583,30.3065 18.158175,30.2044167 Z M32.11705,30.63725 L30.9573833,32.095 L29.4424667,30.9884167 L30.898175,30.2044167 C31.179925,30.3044583 31.6045917,30.4535 32.11705,30.63725 Z M40.0019667,31.4682083 C35.6858833,29.6899167 31.18605,28.144375 31.1411333,28.1280417 C31.0533417,28.0974167 30.9635083,28.0994583 30.873675,28.095375 L30.873675,24.34075 C30.873675,24.3203333 30.8634667,24.304 30.861425,24.285625 L31.241175,24.028375 C31.4535083,23.881375 31.6066333,23.660875 31.6617583,23.40975 L32.049675,21.7172083 C33.0317167,21.4885417 33.9668,20.6208333 34.4282167,19.312125 C35.00805,17.65225 34.5874667,16.0311667 33.48905,15.4125417 L33.6646333,14.644875 C33.801425,14.0344167 33.8728833,13.4239583 33.8728833,12.82575 C33.8728833,8.005375 29.6793,4.08333333 24.5240917,4.08333333 C20.3039667,4.08333333 16.7678,6.731375 15.6122167,10.332875 C15.5815917,10.3920833 15.5673,10.455375 15.548925,10.5207083 C15.3304667,11.2597917 15.1773417,12.023375 15.1773417,12.82575 C15.1773417,13.1177083 15.2100083,13.3994583 15.2630917,13.7587917 C15.2508417,13.860875 15.2528833,13.965 15.2733,14.069125 L15.4958417,15.2532917 C15.4835917,15.257375 15.4713417,15.2553333 15.4590917,15.2594167 C14.1320083,15.7249167 13.5848417,17.50525 14.2198,19.3141667 C14.6955083,20.671875 15.6857167,21.5620417 16.7106333,21.7396667 L16.9842167,23.195375 C17.0332167,23.4628333 17.190425,23.6996667 17.41705,23.8527917 L17.6743,24.0263333 C17.6722583,24.0345 17.668175,24.0426667 17.668175,24.052875 L17.668175,28.2137917 C16.6800083,28.5588333 12.8028833,29.9247083 9.05438333,31.4682083 C4.14009167,33.4915 4.082925,37.5095 4.082925,37.6789583 L4.082925,45.9375 C4.082925,46.501 4.54025833,46.9583333 5.10375833,46.9583333 L20.5448833,46.9583333 L28.5135083,46.9583333 C28.546175,46.9583333 28.5727167,46.942 28.6033417,46.9399583 C28.63805,46.942 28.6707167,46.9583333 28.7033833,46.9583333 L43.9525917,46.9583333 C44.5160917,46.9583333 44.973425,46.501 44.973425,45.9375 L44.973425,37.6789583 C44.973425,37.5095 44.9162583,33.4915 40.0019667,31.4682083 Z" id="path-3"></path>
        <path d="M38.8151898,10.7636181 L36.829138,10.7636181 C36.1511769,10.7636181 35.6021532,11.3072456 35.6021532,11.9785432 L35.6021532,13.9450744 L34.1859215,13.9450744 L34.1859215,11.9785432 C34.1859215,11.3072456 33.6368978,10.7636181 32.9589367,10.7636181 L30.9728849,10.7636181 L30.9728849,9.36130635 L32.9589367,9.36130635 C33.6368978,9.36130635 34.1859215,8.81767888 34.1859215,8.14638131 L34.1859215,6.17985009 L35.6021532,6.17985009 L35.6021532,8.14638131 C35.6021532,8.81767888 36.1511769,9.36130635 36.829138,9.36130635 L38.8151898,9.36130635 L38.8151898,10.7636181 Z M40.0421746,6.93145626 L38.0561229,6.93145626 L38.0561229,4.96698424 C38.0561229,4.29568667 37.5070992,3.75 36.829138,3.75 L32.9589367,3.75 C32.2809755,3.75 31.7319518,4.29568667 31.7319518,4.96698424 L31.7319518,6.93145626 L29.7479797,6.93145626 C29.0679389,6.93145626 28.5189152,7.47508374 28.5189152,8.14638131 L28.5189152,11.9785432 C28.5189152,12.6498408 29.0679389,13.1934682 29.7479797,13.1934682 L31.7319518,13.1934682 L31.7319518,15.1599995 C31.7319518,15.831297 32.2809755,16.3749245 32.9589367,16.3749245 L33.6306589,16.3749245 L33.6306589,36.6744687 C33.3291118,38.2497529 31.8338539,38.4371396 31.6050941,38.4556724 C29.0762575,38.4556724 28.7455955,36.7733101 28.7144009,36.561213 L28.7144009,29.1151639 C28.7144009,29.010145 28.6998435,28.9071852 28.6728082,28.8062847 C27.847193,25.6701307 24.8275625,24.881459 23.2886323,24.9370573 C20.1275866,25.0894377 18.7633458,27.7705096 18.4846747,29.168703 C18.4680376,29.2448932 18.4597191,29.3252018 18.4597191,29.4034512 L18.4721969,37.0430646 C18.2330388,38.7398413 16.7440199,38.8407419 16.2386685,38.8180907 C13.9094769,38.8180907 13.6016909,37.3045824 13.5663371,36.9236313 L13.5663371,24.0639586 C17.9148546,23.5985805 19.7823671,19.716998 20.1816571,17.4930674 L20.9157684,7.85809401 C20.9157684,5.12142386 20.0839143,4.21949646 19.5889611,3.92503157 C19.3976346,3.81177585 19.1813525,3.75 18.9567519,3.75 L15.8913694,3.75 C15.2113287,3.75 14.6643846,4.29568667 14.6643846,4.96698424 C14.6643846,5.63622261 15.2113287,6.17985009 15.8913694,6.17985009 L18.2746315,6.17985009 C18.3640558,6.46607819 18.4617987,6.96028499 18.4638783,7.76543023 L17.7505634,17.1862473 C17.7152096,17.3695157 16.8854351,21.68147 12.688731,21.68147 L11.9899735,21.68147 C7.83278248,21.68147 6.96557454,17.3653973 6.94477819,17.309799 L6.21898546,7.85809401 C6.21898546,6.99323211 6.31880795,6.47431497 6.40823227,6.17985009 L8.78941474,6.17985009 C9.46737586,6.17985009 10.0163996,5.63622261 10.0163996,4.96698424 C10.0163996,4.29568667 9.46737586,3.75 8.78941474,3.75 L5.72195261,3.75 C5.49943163,3.75 5.28106992,3.81177585 5.0918231,3.92503157 C4.59686989,4.21949646 3.76501576,5.12142386 3.76917503,7.94869859 L4.51576411,17.6166191 C4.89841702,19.7272939 6.76384992,23.6006397 11.114447,24.0639586 L11.1165267,36.9895256 C11.1976325,38.46185 12.3726264,41.2458816 16.1741998,41.2458816 L16.1783591,41.2458816 C16.2386685,41.2479408 16.3010576,41.25 16.3655263,41.25 C17.844147,41.25 20.4644875,40.4530915 20.9157684,37.2119186 L20.9157684,29.5414173 C21.0259891,29.1110455 21.5750128,27.4513344 23.375977,27.3648482 C23.4737199,27.3648482 25.6490184,27.342197 26.2604312,29.2840179 L26.2645905,36.6703503 C26.3956075,38.1282604 27.6808222,40.8834633 31.6654035,40.8834633 L31.6674831,40.8834633 C32.9859719,40.8155099 35.6000735,39.9115233 36.0700711,36.9689336 C36.0804693,36.9050986 36.0846286,36.8433227 36.0846286,36.7774285 L36.0846286,16.3749245 L36.829138,16.3749245 C37.5070992,16.3749245 38.0561229,15.831297 38.0561229,15.1599995 L38.0561229,13.1934682 L40.0421746,13.1934682 C40.7201358,13.1934682 41.2691595,12.6498408 41.2691595,11.9785432 L41.2691595,8.14638131 C41.2691595,7.47508374 40.7201358,6.93145626 40.0421746,6.93145626 Z" id="path-5"></path>
        <path d="M28.591875,23.0420625 L24.703125,23.0420625 L24.703125,17.4939375 C24.703125,16.7908125 24.136875,16.2189375 23.43375,16.2189375 C22.730625,16.2189375 22.16625,16.7908125 22.16625,17.4939375 L22.16625,24.3470625 C22.16625,25.0501875 22.730625,25.6164375 23.43375,25.6164375 C23.49,25.6164375 23.53875,25.5901875 23.593125,25.5826875 L28.591875,25.5826875 C29.295,25.5826875 29.865,25.0183125 29.865,24.3095625 C29.865,23.6120625 29.295,23.0420625 28.591875,23.0420625 M24.70275,38.629875 L24.70275,34.97925 C24.70275,34.278 24.1365,33.706125 23.433375,33.706125 C22.73025,33.706125 22.165875,34.278 22.165875,34.97925 L22.165875,38.629875 C14.752125,38.014875 8.83275,32.082375 8.234625,24.664875 L11.8515,24.664875 C12.549,24.664875 13.119,24.093 13.119,23.39175 C13.119,22.692375 12.549,22.11675 11.8515,22.11675 L8.24025,22.11675 C8.874,14.733 14.78025,8.84175 22.165875,8.2305 L22.165875,11.806125 C22.165875,12.50925 22.73025,13.081125 23.433375,13.081125 C24.1365,13.081125 24.70275,12.50925 24.70275,11.806125 L24.70275,8.2305 C32.088375,8.84175 37.994625,14.733 38.628375,22.11675 L35.02275,22.11675 C34.319625,22.11675 33.749625,22.692375 33.749625,23.39175 C33.749625,24.093 34.319625,24.664875 35.02275,24.664875 L38.634,24.664875 C38.035875,32.082375 32.1165,38.014875 24.70275,38.629875 M23.433375,5.62425 C13.615875,5.62425 5.624625,13.608 5.624625,23.433 C5.624625,33.2505 13.615875,41.236125 23.433375,41.236125 C33.25275,41.236125 41.242125,33.2505 41.242125,23.433 C41.242125,13.608 33.25275,5.62425 23.433375,5.62425" id="path-7"></path>
        <path d="M36.02226,15.078577 C36.06306,15.1426007 36.11346,15.1900257 36.14946,15.2659057 C36.56946,16.1266695 36.54786,17.4569407 36.09426,18.7374157 C35.60466,20.115112 34.77906,21.006702 34.01346,21.3979582 C34.91346,19.289917 35.56386,17.1154807 36.02226,15.078577 M9.76866,18.7374157 C9.41586,17.743862 9.31986,16.6957695 9.50946,15.865832 C9.55986,15.6405632 9.65586,15.4793182 9.74226,15.3038457 C10.18626,17.2364145 10.80306,19.280432 11.64306,21.272282 C10.93746,20.826487 10.21266,19.9870645 9.76866,18.7374157 M36.89346,37.3801832 C34.90866,37.1146032 33.43026,36.3202345 32.37666,34.9449095 C30.05826,31.923937 30.69666,27.1672095 30.70386,27.1197845 C30.71346,27.0628745 30.69426,27.0083357 30.69426,26.9490545 C31.60626,25.8701357 32.38386,24.6655407 33.05826,23.396922 C33.13026,23.4016645 33.19746,23.4324907 33.27186,23.4324907 C35.04786,23.4324907 36.91026,21.8058132 37.79346,19.327857 C38.41026,17.592102 38.40066,15.7852095 37.77186,14.4928782 C37.45986,13.8478982 36.97746,13.4139595 36.42306,13.115182 C37.07106,9.5345945 37.16946,6.7649745 37.17666,6.44959825 C37.19106,5.792762 36.66786,5.24974575 36.00546,5.23551825 C35.23506,5.1809795 34.79346,5.73822325 34.77666,6.390317 C34.77186,6.59661575 34.13826,26.7427557 22.85586,29.1685445 C11.58786,26.745127 10.93986,6.59661575 10.93506,6.390317 C10.92066,5.73822325 10.45746,5.2473745 9.70626,5.23551825 C9.04386,5.24974575 8.52066,5.792762 8.53506,6.44959825 C8.54466,6.7649745 8.64306,9.55593575 9.29586,13.1554932 C8.54226,13.6131445 7.99266,14.405142 7.75026,15.476947 C7.48866,16.6412307 7.60146,18.0070707 8.06946,19.327857 C8.95266,21.8058132 10.81746,23.4324907 12.59346,23.4324907 C12.61986,23.4324907 12.64146,23.4206345 12.66786,23.4206345 C13.35906,24.7224507 14.16546,25.9507582 15.11106,27.0510182 C15.11346,27.0747307 15.10386,27.096072 15.10626,27.1221557 C15.11346,27.1695807 15.76626,31.8978532 13.44066,34.9377957 C12.38706,36.315492 10.90866,37.1146032 8.91906,37.3801832 C8.26146,37.4679195 7.80066,38.0654745 7.88946,38.715197 C7.97106,39.3103807 8.48706,39.7419482 9.07746,39.7419482 C9.13026,39.7419482 9.18546,39.7372057 9.24066,39.730092 C11.85906,39.3815182 13.91586,38.2480607 15.35586,36.3676595 C17.06706,34.1291995 17.50386,31.3287532 17.57346,29.325047 C18.97266,30.3470557 20.57106,31.127197 22.43586,31.5113395 C22.44786,31.516082 22.46226,31.5184532 22.47426,31.5231957 C22.52706,31.5326807 22.57266,31.5563932 22.62786,31.5682495 C22.70226,31.5801057 22.77666,31.5872195 22.85106,31.5872195 C22.85346,31.5872195 22.85346,31.5872195 22.85346,31.5872195 L22.85586,31.5872195 C22.85826,31.5872195 22.85826,31.5872195 22.85826,31.5872195 C22.93266,31.5872195 23.00706,31.5801057 23.08146,31.5682495 C23.13666,31.5563932 23.18226,31.5326807 23.23506,31.5231957 C23.24946,31.5184532 23.26146,31.516082 23.27346,31.5113395 C25.18386,31.117712 26.81106,30.3091157 28.23186,29.2515382 C28.29426,31.2552445 28.72386,34.1007445 30.45666,36.3676595 C31.89426,38.2480607 33.95346,39.3815182 36.57186,39.730092 C36.62466,39.7372057 36.67986,39.7419482 36.73266,39.7419482 C37.32546,39.7419482 37.83906,39.3103807 37.92306,38.715197 C38.01186,38.0654745 37.55106,37.4679195 36.89346,37.3801832" id="path-9"></path>
    </defs>
    <g id="Page-1" stroke="none" stroke-width="1" fill="none" fill-rule="evenodd">
        <g id="iPhone-8-Copy-2" transform="translate(-15.000000, -2540.000000)">
            <g id="Group-6" transform="translate(-20.000000, 2541.000000)">
                <g id="Group-4">
                    <polygon id="Polygon-Copy-2" fill="#D8D8D8" opacity="0.200000003" points="108.5 0 180.813121 41.25 180.813121 123.75 108.5 165 36.1868788 123.75 36.1868788 41.25"></polygon>
                    <polygon id="Polygon-Copy-9" fill="#D8D8D8" opacity="0.200000003" points="108.5 332 180.813121 373.25 180.813121 455.75 108.5 497 36.1868788 455.75 36.1868788 373.25"></polygon>
                    <polygon id="Polygon-Copy-5" fill="#D8D8D8" opacity="0.200000003" points="108.5 166 180.813121 207.25 180.813121 289.75 108.5 331 36.1868788 289.75 36.1868788 207.25"></polygon>
                    <polygon id="Polygon-Copy-3" fill="#D8D8D8" opacity="0.200000003" points="252.5 0 324.813121 41.25 324.813121 123.75 252.5 165 180.186879 123.75 180.186879 41.25"></polygon>
                    <polygon id="Polygon-Copy-6" fill="#D8D8D8" opacity="0.200000003" points="252.5 166 324.813121 207.25 324.813121 289.75 252.5 331 180.186879 289.75 180.186879 207.25"></polygon>
                    <polygon id="Polygon-Copy-2" stroke="#FFFFFF" opacity="0.7" points="108.5 0 180.813121 41.25 180.813121 123.75 108.5 165 36.1868788 123.75 36.1868788 41.25"></polygon>
                    <polygon id="Polygon-Copy-10" stroke="#FFFFFF" opacity="0.7" points="108.5 332 180.813121 373.25 180.813121 455.75 108.5 497 36.1868788 455.75 36.1868788 373.25"></polygon>
                    <polygon id="Polygon-Copy-7" stroke="#FFFFFF" opacity="0.200000003" points="108.5 166 180.813121 207.25 180.813121 289.75 108.5 331 36.1868788 289.75 36.1868788 207.25"></polygon>
                    <polygon id="Polygon-Copy-4" stroke="#FFFFFF" opacity="0.200000003" points="252.5 0 324.813121 41.25 324.813121 123.75 252.5 165 180.186879 123.75 180.186879 41.25"></polygon>
                    <polygon id="Polygon-Copy-8" stroke="#FFFFFF" points="252.5 166 324.813121 207.25 324.813121 289.75 252.5 331 180.186879 289.75 180.186879 207.25"></polygon>
                    <text id="상담" font-family="NotoSansCJKkr-Bold, Noto Sans CJK KR" font-size="16" font-weight="bold" line-spacing="24" fill="#FFFFFF">
                        <tspan x="93.78" y="122">상담</tspan>
                    </text>
                    <text id="최종정검" font-family="NotoSansCJKkr-Bold, Noto Sans CJK KR" font-size="16" font-weight="bold" line-spacing="24" fill="#FFFFFF">
                        <tspan x="79.06" y="454">최종정검</tspan>
                    </text>
                    <text id="수술-후-상담" font-family="NotoSansCJKkr-Bold, Noto Sans CJK KR" font-size="16" font-weight="bold" line-spacing="24" fill="#FFFFFF">
                        <tspan x="68.068" y="288">수술 후 상담</tspan>
                    </text>
                    <g id="-round/ver1/doctor2" transform="translate(84.000000, 51.000000)">
                        <mask id="mask-2" fill="white">
                            <use xlink:href="#path-1"></use>
                        </mask>
                        <use id="Mask" fill="#613627" fill-rule="evenodd" xlink:href="#path-1"></use>
                        <g id="swatch/white" mask="url(#mask-2)" fill="#FFFFFF" fill-rule="evenodd">
                            <rect id="Rectangle" x="0" y="0" width="51" height="49"></rect>
                        </g>
                    </g>
                    <g id="-round/ver1/doctor2" transform="translate(84.000000, 217.000000)">
                        <mask id="mask-4" fill="white">
                            <use xlink:href="#path-3"></use>
                        </mask>
                        <use id="Mask" fill="#613627" fill-rule="evenodd" xlink:href="#path-3"></use>
                        <g id="swatch/white" mask="url(#mask-4)" fill="#FFFFFF" fill-rule="evenodd">
                            <rect id="Rectangle" x="0" y="0" width="51" height="49"></rect>
                        </g>
                    </g>
                    <text id="수술" font-family="NotoSansCJKkr-Bold, Noto Sans CJK KR" font-size="16" font-weight="bold" line-spacing="24" fill="#FFFFFF">
                        <tspan x="237.78" y="123">수술</tspan>
                    </text>
                    <text id="에프터-케어" font-family="NotoSansCJKkr-Bold, Noto Sans CJK KR" font-size="16" font-weight="bold" line-spacing="24" fill="#FFFFFF">
                        <tspan x="213.884" y="289">에프터 케어</tspan>
                    </text>
                    <g id="-round/ver1/doctor" transform="translate(230.000000, 53.000000)">
                        <mask id="mask-6" fill="white">
                            <use xlink:href="#path-5"></use>
                        </mask>
                        <use id="Mask" fill="#613627" fill-rule="evenodd" xlink:href="#path-5"></use>
                        <g id="swatch/white" mask="url(#mask-6)" fill="#FFFFFF" fill-rule="evenodd">
                            <rect id="Rectangle" x="0" y="0" width="47" height="45"></rect>
                        </g>
                    </g>
                    <path d="M246.354,190.274 C248.142009,190.274 249.518995,190.825994 250.485,191.93 C251.451005,193.034006 251.934,194.61799 251.934,196.682 C251.934,198.74601 251.451005,200.332994 250.485,201.443 C249.518995,202.553006 248.142009,203.108 246.354,203.108 C244.541991,203.108 243.153005,202.553006 242.187,201.443 C241.220995,200.332994 240.738,198.74601 240.738,196.682 C240.738,194.61799 241.220995,193.034006 242.187,191.93 C243.153005,190.825994 244.541991,190.274 246.354,190.274 Z M246.354,192.722 C245.561996,192.722 244.992002,193.030997 244.644,193.649 C244.295998,194.267003 244.122,195.277993 244.122,196.682 C244.122,198.098007 244.295998,199.114997 244.644,199.733 C244.992002,200.351003 245.561996,200.66 246.354,200.66 C247.122004,200.66 247.682998,200.348003 248.037,199.724 C248.391002,199.099997 248.568,198.086007 248.568,196.682 C248.568,195.277993 248.391002,194.267003 248.037,193.649 C247.682998,193.030997 247.122004,192.722 246.354,192.722 Z M262.986,197.78 L262.986,200.282 L261.366,200.282 L261.366,203 L258.342,203 L258.342,200.282 L252.636,200.282 L252.636,198.05 L256.218,190.382 L259.35,190.382 L255.984,197.78 L258.342,197.78 L258.342,195.098 L261.366,195.098 L261.366,197.78 L262.986,197.78 Z" id="04" fill="#FFFFFF" opacity="0.4"></path>
                    <path d="M103.354,356.274 C105.142009,356.274 106.518995,356.825994 107.485,357.93 C108.451005,359.034006 108.934,360.61799 108.934,362.682 C108.934,364.74601 108.451005,366.332994 107.485,367.443 C106.518995,368.553006 105.142009,369.108 103.354,369.108 C101.541991,369.108 100.153005,368.553006 99.187,367.443 C98.2209952,366.332994 97.738,364.74601 97.738,362.682 C97.738,360.61799 98.2209952,359.034006 99.187,357.93 C100.153005,356.825994 101.541991,356.274 103.354,356.274 Z M103.354,358.722 C102.561996,358.722 101.992002,359.030997 101.644,359.649 C101.295998,360.267003 101.122,361.277993 101.122,362.682 C101.122,364.098007 101.295998,365.114997 101.644,365.733 C101.992002,366.351003 102.561996,366.66 103.354,366.66 C104.122004,366.66 104.682998,366.348003 105.037,365.724 C105.391002,365.099997 105.568,364.086007 105.568,362.682 C105.568,361.277993 105.391002,360.267003 105.037,359.649 C104.682998,359.030997 104.122004,358.722 103.354,358.722 Z M115.414,360.954 C116.386005,360.954 117.240996,361.115998 117.979,361.44 C118.717004,361.764002 119.286998,362.213997 119.689,362.79 C120.091002,363.366003 120.292,364.025996 120.292,364.77 C120.292,365.646004 120.082002,366.413997 119.662,367.074 C119.241998,367.734003 118.642004,368.243998 117.862,368.604 C117.081996,368.964002 116.176005,369.144 115.144,369.144 C114.303996,369.144 113.437004,369.000001 112.543,368.712 C111.648996,368.423999 110.854003,368.046002 110.158,367.578 L111.382,365.202 C112.546006,366.138005 113.679994,366.606 114.784,366.606 C115.408003,366.606 115.893998,366.465001 116.242,366.183 C116.590002,365.900999 116.764,365.514002 116.764,365.022 C116.764,364.529998 116.593002,364.155001 116.251,363.897 C115.908998,363.638999 115.396003,363.51 114.712,363.51 C113.115992,363.51 111.964004,363.534 111.256,363.582 L111.256,356.382 L119.734,356.382 L119.734,359.028 L114.28,359.028 L114.28,360.954 L115.414,360.954 Z" id="05" fill="#FFFFFF" opacity="0.4"></path>
                    <path d="M103.354,190.274 C105.142009,190.274 106.518995,190.825994 107.485,191.93 C108.451005,193.034006 108.934,194.61799 108.934,196.682 C108.934,198.74601 108.451005,200.332994 107.485,201.443 C106.518995,202.553006 105.142009,203.108 103.354,203.108 C101.541991,203.108 100.153005,202.553006 99.187,201.443 C98.2209952,200.332994 97.738,198.74601 97.738,196.682 C97.738,194.61799 98.2209952,193.034006 99.187,191.93 C100.153005,190.825994 101.541991,190.274 103.354,190.274 Z M103.354,192.722 C102.561996,192.722 101.992002,193.030997 101.644,193.649 C101.295998,194.267003 101.122,195.277993 101.122,196.682 C101.122,198.098007 101.295998,199.114997 101.644,199.733 C101.992002,200.351003 102.561996,200.66 103.354,200.66 C104.122004,200.66 104.682998,200.348003 105.037,199.724 C105.391002,199.099997 105.568,198.086007 105.568,196.682 C105.568,195.277993 105.391002,194.267003 105.037,193.649 C104.682998,193.030997 104.122004,192.722 103.354,192.722 Z M116.53,195.566 C117.550005,195.710001 118.368997,196.084997 118.987,196.691 C119.605003,197.297003 119.914,198.073995 119.914,199.022 C119.914,199.826004 119.704002,200.539997 119.284,201.164 C118.863998,201.788003 118.270004,202.273998 117.502,202.622 C116.733996,202.970002 115.834005,203.144 114.802,203.144 C113.877995,203.144 112.969004,203.003001 112.075,202.721 C111.180996,202.438999 110.428003,202.064002 109.816,201.596 L111.04,199.274 C111.568003,199.718002 112.131997,200.053999 112.732,200.282 C113.332003,200.510001 113.931997,200.624 114.532,200.624 C115.228003,200.624 115.761998,200.489001 116.134,200.219 C116.506002,199.948999 116.692,199.562003 116.692,199.058 C116.692,198.553997 116.506002,198.170001 116.134,197.906 C115.761998,197.641999 115.222004,197.51 114.514,197.51 L112.39,197.51 L112.39,195.71 L115.306,192.902 L110.482,192.902 L110.482,190.382 L119.302,190.382 L119.302,192.29 L115.864,195.44 L116.53,195.566 Z" id="03" fill="#FFFFFF" opacity="0.4"></path>
                    <g id="-round/ver1/alram" transform="translate(230.000000, 219.000000)">
                        <mask id="mask-8" fill="white">
                            <use xlink:href="#path-7"></use>
                        </mask>
                        <use id="Fill-4" fill="#231916" fill-rule="evenodd" xlink:href="#path-7"></use>
                        <g id="swatch/white" mask="url(#mask-8)" fill="#FFFFFF" fill-rule="evenodd">
                            <rect id="Rectangle" x="0" y="0" width="47" height="45"></rect>
                        </g>
                    </g>
                    <g id="-round/ver1/face3" transform="translate(86.000000, 388.000000)">
                        <mask id="mask-10" fill="white">
                            <use xlink:href="#path-9"></use>
                        </mask>
                        <use id="Fill-1" fill="#613627" fill-rule="evenodd" xlink:href="#path-9"></use>
                        <g id="swatch/white" mask="url(#mask-10)" fill="#FFFFFF" fill-rule="evenodd">
                            <rect id="Rectangle" x="0" y="0" width="47" height="45"></rect>
                        </g>
                    </g>
                </g>
                <path d="M247.354,24.274 C249.142009,24.274 250.518995,24.8259945 251.485,25.93 C252.451005,27.0340055 252.934,28.6179897 252.934,30.682 C252.934,32.7460103 252.451005,34.3329944 251.485,35.443 C250.518995,36.5530055 249.142009,37.108 247.354,37.108 C245.541991,37.108 244.153005,36.5530055 243.187,35.443 C242.220995,34.3329944 241.738,32.7460103 241.738,30.682 C241.738,28.6179897 242.220995,27.0340055 243.187,25.93 C244.153005,24.8259945 245.541991,24.274 247.354,24.274 Z M247.354,26.722 C246.561996,26.722 245.992002,27.0309969 245.644,27.649 C245.295998,28.2670031 245.122,29.277993 245.122,30.682 C245.122,32.0980071 245.295998,33.1149969 245.644,33.733 C245.992002,34.3510031 246.561996,34.66 247.354,34.66 C248.122004,34.66 248.682998,34.3480031 249.037,33.724 C249.391002,33.0999969 249.568,32.086007 249.568,30.682 C249.568,29.277993 249.391002,28.2670031 249.037,27.649 C248.682998,27.0309969 248.122004,26.722 247.354,26.722 Z M263.95,34.354 L263.95,37 L254.338,37 L254.32,34.822 L258.91,30.106 C259.270002,29.7339981 259.563999,29.3620019 259.792,28.99 C260.020001,28.6179981 260.134,28.3000013 260.134,28.036 C260.134,27.6879983 260.008001,27.4210009 259.756,27.235 C259.503999,27.0489991 259.150002,26.956 258.694,26.956 C258.189997,26.956 257.629003,27.0969986 257.011,27.379 C256.392997,27.6610014 255.796003,28.0539975 255.22,28.558 L253.96,26.128 C255.700009,24.8679937 257.445991,24.238 259.198,24.238 C260.038004,24.238 260.790997,24.3759986 261.457,24.652 C262.123003,24.9280014 262.644998,25.3179975 263.023,25.822 C263.401002,26.3260025 263.59,26.9019968 263.59,27.55 C263.59,28.1980032 263.377002,28.8669965 262.951,29.557 C262.524998,30.2470034 261.922004,30.9819961 261.142,31.762 L258.568,34.354 L263.95,34.354 Z" id="02" fill="#FFFFFF" opacity="0.4"></path>
                <path d="M105.354,24.274 C107.142009,24.274 108.518995,24.8259945 109.485,25.93 C110.451005,27.0340055 110.934,28.6179897 110.934,30.682 C110.934,32.7460103 110.451005,34.3329944 109.485,35.443 C108.518995,36.5530055 107.142009,37.108 105.354,37.108 C103.541991,37.108 102.153005,36.5530055 101.187,35.443 C100.220995,34.3329944 99.738,32.7460103 99.738,30.682 C99.738,28.6179897 100.220995,27.0340055 101.187,25.93 C102.153005,24.8259945 103.541991,24.274 105.354,24.274 Z M105.354,26.722 C104.561996,26.722 103.992002,27.0309969 103.644,27.649 C103.295998,28.2670031 103.122,29.277993 103.122,30.682 C103.122,32.0980071 103.295998,33.1149969 103.644,33.733 C103.992002,34.3510031 104.561996,34.66 105.354,34.66 C106.122004,34.66 106.682998,34.3480031 107.037,33.724 C107.391002,33.0999969 107.568,32.086007 107.568,30.682 C107.568,29.277993 107.391002,28.2670031 107.037,27.649 C106.682998,27.0309969 106.122004,26.722 105.354,26.722 Z M111.384,24.382 L117.108,24.382 L117.108,37 L113.814,37 L113.814,27.082 L111.384,27.082 L111.384,24.382 Z" id="01" fill="#FFFFFF" opacity="0.4"></path>
            </g>
        </g>
    </g>
</svg>