<?xml version="1.0" encoding="UTF-8"?>
<svg width="320px" height="380px" viewBox="0 0 320 380" version="1.1" xmlns="http://www.w3.org/2000/svg" xmlns:xlink="http://www.w3.org/1999/xlink">
    <!-- Generator: Sketch 52.5 (67469) - http://www.bohemiancoding.com/sketch -->
    <title>Group 14</title>
    <desc>Created with Sketch.</desc>
    <defs>
        <rect id="path-1" x="0" y="0" width="326" height="380"></rect>
        <path d="M177.33075,64.0958666 L177.33075,64.4632348 C177.285915,65.8605756 176.729293,67.2437823 175.660883,68.3121917 C174.541467,69.4231917 173.076967,69.970275 171.60405,69.970275 C170.156383,69.970275 168.708717,69.4231917 167.572467,68.3121917 L134.267717,35.0074417 C132.0373,32.777025 132.0373,29.1746917 134.267717,26.944275 C136.498133,24.6886083 140.100467,24.6886083 142.356133,26.944275 L175.660883,60.2406083 C176.729293,61.3130494 177.285915,62.6983566 177.33075,64.0958679 Z M61.5515042,30.9749895 L61.5515042,30.9750427 C61.5514996,32.4332162 60.9938954,33.8913963 59.8786917,35.0066 L26.5739417,68.31135 C25.4629417,69.42235 24.0068583,69.9694333 22.5339417,69.9694333 C21.0694417,69.9694333 19.621775,69.42235 18.5023583,68.31135 C17.4402151,67.2492067 16.8838734,65.8759478 16.8333333,64.486976 L16.8333333,64.0704385 C16.8838734,62.6812764 17.4402151,61.305918 18.5023583,60.2397667 L51.815525,26.9434333 C54.0459417,24.6877667 57.648275,24.6877667 59.8786917,26.9434333 C60.993894,28.0586357 61.5514982,29.5168135 61.5515042,30.9749932 Z M119.941708,106.310075 C123.072708,106.310075 125.631375,108.877158 125.631375,112.033408 C125.631375,115.189658 123.072708,117.739908 119.941708,117.739908 L97.2335417,117.739908 C97.1157083,117.739908 97.0062917,117.680992 96.8800417,117.672575 C96.518125,117.739908 96.189875,117.882992 95.811125,117.882992 C92.6632917,117.882992 90.0962083,115.324325 90.0962083,112.168075 L90.0962083,81.4051583 C90.0962083,78.2489083 92.6632917,75.6902417 95.811125,75.6902417 C98.967375,75.6902417 101.526042,78.2489083 101.526042,81.4051583 L101.526042,106.310075 L119.941708,106.310075 Z M48.5397583,108.06495 C48.5397583,80.7612833 70.742925,58.5665333 98.0213417,58.5665333 C125.325008,58.5665333 147.502925,80.7612833 147.502925,108.06495 C147.502925,135.326533 125.325008,157.521283 98.0213417,157.521283 C70.742925,157.521283 48.5397583,135.326533 48.5397583,108.06495 M147.023783,177.2146 L146.750121,177.2146 C145.323681,177.179903 143.907878,176.609153 142.831675,175.53295 L128.195092,160.896367 C119.290258,165.996867 109.005092,168.959533 98.0213417,168.959533 C86.0612583,168.959533 74.9260083,165.441367 65.5077583,159.457117 L50.5260917,174.413533 C49.4150917,175.53295 47.967425,176.096867 46.4945083,176.096867 C45.0300083,176.096867 43.5570917,175.53295 42.462925,174.413533 C40.240925,172.183117 40.240925,168.580783 42.462925,166.350367 L56.4093417,152.387117 C44.5755083,141.277117 37.1267583,125.53795 37.1267583,108.06495 C37.1267583,74.4572 64.455675,47.1535333 98.0213417,47.1535333 C131.612258,47.1535333 158.941175,74.4572 158.941175,108.06495 C158.941175,126.505867 150.659175,143.027783 137.655425,154.205117 L150.920092,167.469783 C153.150508,169.7002 153.150508,173.294117 150.920092,175.53295 C149.81943,176.609153 148.418656,177.179903 147.023783,177.2146 Z" id="path-3"></path>
    </defs>
    <g id="Page-1" stroke="none" stroke-width="1" fill="none" fill-rule="evenodd">
        <g id="main" transform="translate(0.000000, -4488.000000)">
            <g id="Group-14" transform="translate(0.000000, 4488.000000)">
                <g id="Group-3">
                    <mask id="mask-2" fill="white">
                        <use xlink:href="#path-1"></use>
                    </mask>
                    <rect stroke="#F2F2F2" x="0.5" y="0.5" width="325" height="379"></rect>
                    <g id="icon/clock" opacity="0.08" mask="url(#mask-2)">
                        <g transform="translate(166.000000, -38.000000)">
                            <mask id="mask-4" fill="white">
                                <use xlink:href="#path-3"></use>
                            </mask>
                            <use id="Mask" stroke="none" fill="#231916" fill-rule="evenodd" xlink:href="#path-3"></use>
                            <g id="swatch/white" stroke="none" fill="none" mask="url(#mask-4)" fill-rule="evenodd">
                                <rect id="Rectangle" fill="#FFFFFF" x="0" y="0" width="210" height="202"></rect>
                            </g>
                            <g id="gray/lighten-2" stroke="none" fill="none" mask="url(#mask-4)" fill-rule="nonzero">
                                <rect id="Rectangle-Copy" fill="#636C77" x="0" y="0" width="202" height="202"></rect>
                            </g>
                        </g>
                    </g>
                    <path d="M71.668,101.864 L71.668,112.36 L70.5,112.36 L70.5,101.864 L71.668,101.864 Z M68.692,109.336 L68.1,110.264 C66.436,109.688 65.092,108.472 64.452,106.936 C63.844,108.6 62.484,109.912 60.788,110.536 L60.18,109.624 C62.292,108.872 63.844,107 63.844,104.936 L63.844,104.024 L60.484,104.024 L60.484,103.064 L68.356,103.064 L68.356,104.024 L65.028,104.024 L65.028,104.936 C65.028,106.904 66.612,108.648 68.692,109.336 Z M63.684,114.872 L72.116,114.872 L72.116,115.848 L62.532,115.848 L62.532,111.368 L63.684,111.368 L63.684,114.872 Z M79.508,110.584 L79.508,113.384 L82.932,113.384 L82.932,110.584 L79.508,110.584 Z M84.084,113.384 L87.652,113.384 L87.652,114.36 L74.676,114.36 L74.676,113.384 L78.372,113.384 L78.372,110.584 L76.324,110.584 L76.324,106.232 L84.868,106.232 L84.868,103.912 L76.292,103.912 L76.292,102.936 L86.004,102.936 L86.004,107.192 L77.476,107.192 L77.476,109.608 L86.34,109.608 L86.34,110.584 L84.084,110.584 L84.084,113.384 Z M94.388,103.128 L94.388,105.784 C94.388,108.392 96.196,111.016 98.244,111.976 L97.556,112.904 C95.94,112.104 94.5,110.36 93.812,108.28 C93.172,110.472 91.716,112.296 90.068,113.16 L89.348,112.2 C91.412,111.224 93.236,108.488 93.236,105.784 L93.236,103.128 L94.388,103.128 Z M99.908,101.848 L101.076,101.848 L101.076,116.184 L99.908,116.184 L99.908,101.848 Z M104.74,102.968 L111.364,102.968 C111.364,106.632 108.724,109.352 104.644,110.664 L104.164,109.72 C107.588,108.632 109.86,106.536 110.116,103.928 L104.74,103.928 L104.74,102.968 Z M107.492,111.288 L107.492,114.872 L115.844,114.872 L115.844,115.848 L106.34,115.848 L106.34,111.288 L107.492,111.288 Z M115.188,106.264 L117.332,106.264 L117.332,107.24 L115.188,107.24 L115.188,112.344 L114.02,112.344 L114.02,101.848 L115.188,101.848 L115.188,106.264 Z M125.3,103 C122.9,103 121.492,103.592 121.492,104.6 C121.492,105.608 122.9,106.184 125.3,106.184 C127.684,106.184 129.108,105.608 129.108,104.6 C129.108,103.592 127.684,103 125.3,103 Z M125.3,107.08 C122.164,107.08 120.292,106.184 120.292,104.6 C120.292,103 122.164,102.104 125.3,102.104 C128.436,102.104 130.292,103 130.292,104.6 C130.292,106.184 128.436,107.08 125.3,107.08 Z M121.604,113.496 L121.604,115.048 L130.532,115.048 L130.532,115.992 L120.468,115.992 L120.468,112.632 L128.948,112.632 L128.948,111.256 L120.42,111.256 L120.42,110.36 L130.1,110.36 L130.1,113.496 L121.604,113.496 Z M118.852,108.088 L131.78,108.088 L131.78,109.048 L118.852,109.048 L118.852,108.088 Z M137.972,103.272 L144.5,103.272 L144.5,112.52 L137.972,112.52 L137.972,103.272 Z M143.348,104.232 L139.108,104.232 L139.108,111.576 L143.348,111.576 L143.348,104.232 Z M147.636,101.848 L148.804,101.848 L148.804,116.184 L147.636,116.184 L147.636,101.848 Z M153.876,108.232 L153.876,111.72 C156.244,111.72 158.388,111.608 160.98,111.192 L161.092,112.184 C158.452,112.584 156.292,112.696 153.876,112.696 L152.692,112.696 L152.692,107.272 L158.068,107.272 L158.068,104.168 L152.66,104.168 L152.66,103.192 L159.236,103.192 L159.236,108.232 L153.876,108.232 Z M162.388,101.832 L163.556,101.832 L163.556,116.168 L162.388,116.168 L162.388,101.832 Z M174.244,105.496 L174.244,106.264 C174.244,108.568 175.476,110.952 177.38,111.992 L176.708,112.872 C175.284,112.072 174.228,110.552 173.7,108.792 C173.204,110.664 172.164,112.312 170.74,113.192 L170.052,112.296 C171.956,111.176 173.14,108.632 173.14,106.264 L173.14,105.496 L170.404,105.496 L170.404,104.52 L173.14,104.52 L173.14,102.36 L174.26,102.36 L174.26,104.52 L176.964,104.52 L176.964,105.496 L174.244,105.496 Z M178.276,107.544 L178.276,102.2 L179.38,102.2 L179.38,115.4 L178.276,115.4 L178.276,108.52 L175.972,108.52 L175.972,107.544 L178.276,107.544 Z M181.124,101.848 L182.244,101.848 L182.244,116.152 L181.124,116.152 L181.124,101.848 Z M186.052,107.72 L194.98,107.336 C195.012,106.584 195.012,105.864 195.012,105.144 L195.012,104.328 L186.42,104.328 L186.42,103.352 L196.148,103.352 L196.148,105.144 C196.148,107.24 196.148,109.176 195.572,112.072 L194.404,111.96 C194.724,110.568 194.868,109.352 194.932,108.216 L186.228,108.712 L186.052,107.72 Z M184.868,113.144 L197.796,113.144 L197.796,114.12 L184.868,114.12 L184.868,113.144 Z M203.124,111.816 C204.308,111.816 205.156,110.888 205.156,109.576 C205.156,108.28 204.308,107.32 203.124,107.32 C201.972,107.32 201.124,108.28 201.124,109.576 C201.124,110.888 201.972,111.816 203.124,111.816 Z M203.124,106.328 C204.916,106.328 206.196,107.656 206.196,109.576 C206.196,111.496 204.916,112.808 203.124,112.808 C201.348,112.808 200.084,111.496 200.084,109.576 C200.084,107.656 201.348,106.328 203.124,106.328 Z M203.7,102.264 L203.7,104.36 L206.708,104.36 L206.708,105.336 L199.556,105.336 L199.556,104.36 L202.548,104.36 L202.548,102.264 L203.7,102.264 Z M210.532,101.848 L211.652,101.848 L211.652,116.152 L210.532,116.152 L210.532,108.904 L208.564,108.904 L208.564,115.448 L207.46,115.448 L207.46,102.2 L208.564,102.2 L208.564,107.928 L210.532,107.928 L210.532,101.848 Z M215.54,108.76 L215.092,107.832 C217.492,107.48 220.116,105.832 220.116,103.88 L220.116,103.736 L215.54,103.736 L215.54,102.76 L225.972,102.76 L225.972,103.736 L221.428,103.736 L221.428,103.88 C221.428,105.832 224.052,107.48 226.436,107.832 L225.988,108.76 C223.844,108.376 221.62,107.176 220.756,105.416 C219.908,107.176 217.684,108.376 215.54,108.76 Z M227.236,110.04 L227.236,111.016 L221.332,111.016 L221.332,116.152 L220.164,116.152 L220.164,111.016 L214.308,111.016 L214.308,110.04 L227.236,110.04 Z M233.188,103.208 L233.188,105.976 C233.188,108.232 234.356,110.696 236.212,111.816 L235.54,112.712 C234.164,111.88 233.156,110.328 232.644,108.568 C232.132,110.504 231.06,112.152 229.604,113.032 L228.868,112.152 C230.804,111.016 232.068,108.456 232.068,106.008 L232.068,103.208 L233.188,103.208 Z M237.124,107.032 L237.124,102.184 L238.228,102.184 L238.228,115.432 L237.124,115.432 L237.124,108.008 L234.66,108.008 L234.66,107.032 L237.124,107.032 Z M240.02,101.848 L241.14,101.848 L241.14,116.152 L240.02,116.152 L240.02,101.848 Z M248.132,109.864 L248.132,113.32 L252.292,113.32 L252.292,109.848 C251.668,110.008 250.948,110.104 250.196,110.104 C249.46,110.104 248.756,110.008 248.132,109.864 Z M246.132,106.456 C246.132,108.072 247.844,109.16 250.196,109.16 C252.548,109.16 254.26,108.072 254.26,106.456 C254.26,104.824 252.548,103.736 250.196,103.736 C247.844,103.736 246.132,104.824 246.132,106.456 Z M253.444,113.32 L256.724,113.32 L256.724,114.296 L243.716,114.296 L243.716,113.32 L246.964,113.32 L246.964,109.4 C245.748,108.776 245.012,107.752 245.012,106.456 C245.012,104.232 247.172,102.792 250.196,102.792 C253.22,102.792 255.364,104.232 255.364,106.456 C255.364,107.752 254.644,108.76 253.444,109.4 L253.444,113.32 Z M259.732,115.208 C259.204,115.208 258.756,114.792 258.756,114.184 C258.756,113.544 259.204,113.128 259.732,113.128 C260.276,113.128 260.724,113.544 260.724,114.184 C260.724,114.792 260.276,115.208 259.732,115.208 Z" id="진료시간을-미리-체크해주세요." fill="#555555" mask="url(#mask-2)"></path>
                    <g id="Group-11" mask="url(#mask-2)">
                        <g transform="translate(28.000000, 152.000000)">
                            <path d="M5.12,39.38 C5.12,41.34 7.06,42.58 9.76,42.58 C12.44,42.58 14.38,41.34 14.38,39.38 C14.38,37.42 12.44,36.18 9.76,36.18 C7.06,36.18 5.12,37.42 5.12,39.38 Z M10.78,47.64 L17.96,47.64 L17.96,49.32 L1.6,49.32 L1.6,47.64 L8.72,47.64 L8.72,44.18 C5.42,43.88 3.12,42.06 3.12,39.38 C3.12,36.44 5.92,34.54 9.76,34.54 C13.58,34.54 16.4,36.44 16.4,39.38 C16.4,42.06 14.08,43.9 10.78,44.2 L10.78,47.64 Z M29.62,38.32 L32.9,38.32 L32.9,33.5 L34.96,33.5 L34.96,46.7 L32.9,46.7 L32.9,40.02 L29.62,40.02 L29.62,38.32 Z M30.74,42.54 L29.72,44.14 C27.72,43.46 26.26,42.04 25.5,40.26 C24.7,42.22 23.18,43.8 21.04,44.54 L19.98,42.92 C22.78,41.94 24.42,39.56 24.42,37.12 L24.42,36.5 L20.6,36.5 L20.6,34.84 L30.26,34.84 L30.26,36.5 L26.5,36.5 L26.5,37.12 C26.5,39.34 28.04,41.6 30.74,42.54 Z M25.32,49.52 L35.42,49.52 L35.42,51.2 L23.26,51.2 L23.26,45.56 L25.32,45.56 L25.32,49.52 Z M44.14,47.04 C44.5533354,47.3200014 45.026664,47.5366659 45.56,47.69 C46.093336,47.8433341 46.626664,47.92 47.16,47.92 C48.4133396,47.92 49.3533302,47.5033375 49.98,46.67 C50.6066698,45.8366625 50.9066668,44.6933406 50.88,43.24 C50.5199982,43.840003 50.0266698,44.2999984 49.4,44.62 C48.7733302,44.9400016 48.0400042,45.1 47.2,45.1 C45.8266598,45.1 44.740004,44.6933374 43.94,43.88 C43.139996,43.0666626 42.74,41.9733402 42.74,40.6 C42.74,39.6399952 42.9433313,38.8066702 43.35,38.1 C43.7566687,37.3933298 44.3333296,36.8466686 45.08,36.46 C45.8266704,36.0733314 46.699995,35.88 47.7,35.88 C48.8866726,35.88 49.9099957,36.1533306 50.77,36.7 C51.6300043,37.2466694 52.2899977,38.0333282 52.75,39.06 C53.2100023,40.0866718 53.44,41.3066596 53.44,42.72 C53.44,44.2000074 53.1900025,45.4999944 52.69,46.62 C52.1899975,47.7400056 51.4800046,48.6033303 50.56,49.21 C49.6399954,49.8166697 48.5666728,50.12 47.34,50.12 C46.6333298,50.12 45.8966705,50.020001 45.13,49.82 C44.3633295,49.619999 43.6866696,49.353335 43.1,49.02 L44.14,47.04 Z M47.82,38.14 C47.0333294,38.14 46.4000024,38.3599978 45.92,38.8 C45.4399976,39.2400022 45.2,39.8466628 45.2,40.62 C45.2,41.3666704 45.4266644,41.9533312 45.88,42.38 C46.3333356,42.8066688 46.9533294,43.02 47.74,43.02 C48.5933376,43.02 49.2666642,42.7833357 49.76,42.31 C50.2533358,41.8366643 50.4933334,41.2466702 50.48,40.54 C50.4933334,39.8999968 50.2700023,39.3400024 49.81,38.86 C49.3499977,38.3799976 48.686671,38.14 47.82,38.14 Z M62.18,34.98 L62.18,37.94 C62.18,41.26 64.02,44.58 66.86,45.86 L65.66,47.5 C63.58,46.52 62,44.52 61.18,42.08 C60.36,44.7 58.76,46.84 56.58,47.9 L55.36,46.18 C58.24,44.88 60.12,41.42 60.12,37.94 L60.12,34.98 L62.18,34.98 Z M68.3,33.46 L70.38,33.46 L70.38,51.58 L68.3,51.58 L68.3,33.46 Z M84.12,41.84 C85.4133398,41.9600006 86.4433295,42.35333 87.21,43.02 C87.9766705,43.68667 88.36,44.5599946 88.36,45.64 C88.36,46.5200044 88.1333356,47.2966633 87.68,47.97 C87.2266644,48.6433367 86.5800042,49.1699981 85.74,49.55 C84.8999958,49.9300019 83.9200056,50.12 82.8,50.12 C81.8533286,50.12 80.9166713,49.9766681 79.99,49.69 C79.0633287,49.4033319 78.2733366,49.0200024 77.62,48.54 L78.68,46.46 C79.2400028,46.926669 79.8599966,47.2833321 80.54,47.53 C81.2200034,47.7766679 81.9133298,47.9 82.62,47.9 C83.5933382,47.9 84.3566639,47.700002 84.91,47.3 C85.4633361,46.899998 85.74,46.3600034 85.74,45.68 C85.74,44.9866632 85.4666694,44.4566685 84.92,44.09 C84.3733306,43.7233315 83.5933384,43.54 82.58,43.54 L80.46,43.54 L80.46,41.92 L84.22,38.28 L78.32,38.28 L78.3,36 L87.66,36 L87.66,37.66 L83.38,41.76 L84.12,41.84 Z M96.34,35.88 C98.273343,35.88 99.7599948,36.4933272 100.8,37.72 C101.840005,38.9466728 102.36,40.7066552 102.36,43 C102.36,45.2800114 101.840005,47.0333272 100.8,48.26 C99.7599948,49.4866728 98.273343,50.1 96.34,50.1 C94.406657,50.1 92.9200052,49.4866728 91.88,48.26 C90.8399948,47.0333272 90.32,45.2800114 90.32,43 C90.32,40.7066552 90.8399948,38.9466728 91.88,37.72 C92.9200052,36.4933272 94.406657,35.88 96.34,35.88 Z M96.34,38 C95.2333278,38 94.413336,38.4033293 93.88,39.21 C93.346664,40.0166707 93.08,41.2799914 93.08,43 C93.08,44.7066752 93.346664,45.9666626 93.88,46.78 C94.413336,47.5933374 95.2333278,48 96.34,48 C97.4466722,48 98.266664,47.5933374 98.8,46.78 C99.333336,45.9666626 99.6,44.7066752 99.6,43 C99.6,41.2799914 99.333336,40.0166707 98.8,39.21 C98.266664,38.4033293 97.4466722,38 96.34,38 Z M116.58,39.74 L116.58,37.72 L108.54,37.72 L108.54,39.74 L116.58,39.74 Z M118.62,34.04 L118.62,41.36 L106.5,41.36 L106.5,34.04 L108.54,34.04 L108.54,36.14 L116.58,36.14 L116.58,34.04 L118.62,34.04 Z M108.44,46.26 L108.44,49.52 L118.94,49.52 L118.94,51.2 L106.38,51.2 L106.38,46.26 L108.44,46.26 Z M104.38,42.88 L120.76,42.88 L120.76,44.54 L113.76,44.54 L113.76,47.76 L111.7,47.76 L111.7,44.54 L104.38,44.54 L104.38,42.88 Z M133.94,44.34 C132.12,44.34 131.24,42.5 129.98,42.5 C129.34,42.5 128.78,42.92 128.28,43.84 L127.04,42.94 C127.94,41.42 129,40.82 130.02,40.82 C131.82,40.82 132.72,42.66 133.98,42.66 C134.62,42.66 135.16,42.24 135.66,41.32 L136.92,42.24 C136,43.72 134.94,44.34 133.94,44.34 Z M146.72,39.38 C146.72,41.34 148.66,42.58 151.36,42.58 C154.04,42.58 155.98,41.34 155.98,39.38 C155.98,37.42 154.04,36.18 151.36,36.18 C148.66,36.18 146.72,37.42 146.72,39.38 Z M152.38,47.64 L159.56,47.64 L159.56,49.32 L143.2,49.32 L143.2,47.64 L150.32,47.64 L150.32,44.18 C147.02,43.88 144.72,42.06 144.72,39.38 C144.72,36.44 147.52,34.54 151.36,34.54 C155.18,34.54 158,36.44 158,39.38 C158,42.06 155.68,43.9 152.38,44.2 L152.38,47.64 Z M177.02,35.46 L177.02,37.1 L162.4,37.1 L162.4,35.46 L168.72,35.46 L168.72,33.42 L170.78,33.42 L170.78,35.46 L177.02,35.46 Z M173.62,41.04 C173.62,40.06 172.28,39.54 169.76,39.54 C167.24,39.54 165.88,40.06 165.88,41.04 C165.88,42.02 167.24,42.56 169.76,42.56 C172.28,42.56 173.62,42.02 173.62,41.04 Z M163.74,41.04 C163.74,39.08 166,37.98 169.76,37.98 C173.52,37.98 175.78,39.08 175.78,41.04 C175.78,43 173.52,44.1 169.76,44.1 C166,44.1 163.74,43 163.74,41.04 Z M177.96,45.18 L177.96,46.84 L170.78,46.84 L170.78,51.56 L168.72,51.56 L168.72,46.84 L161.58,46.84 L161.58,45.18 L177.96,45.18 Z M193.78,38.96 C193.366665,38.6666652 192.890003,38.4433341 192.35,38.29 C191.809997,38.1366659 191.266669,38.06 190.72,38.06 C189.46666,38.06 188.523337,38.4799958 187.89,39.32 C187.256664,40.1600042 186.96,41.3066594 187,42.76 C187.360002,42.1466636 187.849997,41.6833349 188.47,41.37 C189.090003,41.0566651 189.826662,40.9 190.68,40.9 C192.066674,40.9 193.166663,41.3066626 193.98,42.12 C194.793337,42.9333374 195.2,44.0199932 195.2,45.38 C195.2,46.3400048 194.993335,47.1766631 194.58,47.89 C194.166665,48.6033369 193.583337,49.1533314 192.83,49.54 C192.076663,49.9266686 191.200005,50.12 190.2,50.12 C189.013327,50.12 187.986671,49.8466694 187.12,49.3 C186.253329,48.7533306 185.590002,47.9666718 185.13,46.94 C184.669998,45.9133282 184.44,44.6866738 184.44,43.26 C184.44,41.7799926 184.689998,40.4833389 185.19,39.37 C185.690003,38.2566611 186.399995,37.3966697 187.32,36.79 C188.240005,36.1833303 189.319994,35.88 190.56,35.88 C191.280004,35.88 192.02333,35.9766657 192.79,36.17 C193.556671,36.3633343 194.226664,36.626665 194.8,36.96 L193.78,38.96 Z M190.16,42.96 C189.306662,42.96 188.626669,43.1999976 188.12,43.68 C187.613331,44.1600024 187.366667,44.7533298 187.38,45.46 C187.366667,45.860002 187.459999,46.2433315 187.66,46.61 C187.860001,46.9766685 188.163331,47.2766655 188.57,47.51 C188.976669,47.7433345 189.479997,47.86 190.08,47.86 C190.880004,47.86 191.519998,47.6400022 192,47.2 C192.480002,46.7599978 192.72,46.1466706 192.72,45.36 C192.72,44.626663 192.490002,44.0433355 192.03,43.61 C191.569998,43.1766645 190.946671,42.96 190.16,42.96 Z M203.82,34.98 L203.82,37.94 C203.82,41.26 205.66,44.58 208.5,45.86 L207.3,47.5 C205.22,46.52 203.64,44.52 202.82,42.08 C202,44.7 200.4,46.84 198.22,47.9 L197,46.18 C199.88,44.88 201.76,41.42 201.76,37.94 L201.76,34.98 L203.82,34.98 Z M209.94,33.46 L212.02,33.46 L212.02,51.58 L209.94,51.58 L209.94,33.46 Z M225.76,41.84 C227.05334,41.9600006 228.083329,42.35333 228.85,43.02 C229.616671,43.68667 230,44.5599946 230,45.64 C230,46.5200044 229.773336,47.2966633 229.32,47.97 C228.866664,48.6433367 228.220004,49.1699981 227.38,49.55 C226.539996,49.9300019 225.560006,50.12 224.44,50.12 C223.493329,50.12 222.556671,49.9766681 221.63,49.69 C220.703329,49.4033319 219.913337,49.0200024 219.26,48.54 L220.32,46.46 C220.880003,46.926669 221.499997,47.2833321 222.18,47.53 C222.860003,47.7766679 223.55333,47.9 224.26,47.9 C225.233338,47.9 225.996664,47.700002 226.55,47.3 C227.103336,46.899998 227.38,46.3600034 227.38,45.68 C227.38,44.9866632 227.106669,44.4566685 226.56,44.09 C226.013331,43.7233315 225.233338,43.54 224.22,43.54 L222.1,43.54 L222.1,41.92 L225.86,38.28 L219.96,38.28 L219.94,36 L229.3,36 L229.3,37.66 L225.02,41.76 L225.76,41.84 Z M237.98,35.88 C239.913343,35.88 241.399995,36.4933272 242.44,37.72 C243.480005,38.9466728 244,40.7066552 244,43 C244,45.2800114 243.480005,47.0333272 242.44,48.26 C241.399995,49.4866728 239.913343,50.1 237.98,50.1 C236.046657,50.1 234.560005,49.4866728 233.52,48.26 C232.479995,47.0333272 231.96,45.2800114 231.96,43 C231.96,40.7066552 232.479995,38.9466728 233.52,37.72 C234.560005,36.4933272 236.046657,35.88 237.98,35.88 Z M237.98,38 C236.873328,38 236.053336,38.4033293 235.52,39.21 C234.986664,40.0166707 234.72,41.2799914 234.72,43 C234.72,44.7066752 234.986664,45.9666626 235.52,46.78 C236.053336,47.5933374 236.873328,48 237.98,48 C239.086672,48 239.906664,47.5933374 240.44,46.78 C240.973336,45.9666626 241.24,44.7066752 241.24,43 C241.24,41.2799914 240.973336,40.0166707 240.44,39.21 C239.906664,38.4033293 239.086672,38 237.98,38 Z M258.22,39.74 L258.22,37.72 L250.18,37.72 L250.18,39.74 L258.22,39.74 Z M260.26,34.04 L260.26,41.36 L248.14,41.36 L248.14,34.04 L250.18,34.04 L250.18,36.14 L258.22,36.14 L258.22,34.04 L260.26,34.04 Z M250.08,46.26 L250.08,49.52 L260.58,49.52 L260.58,51.2 L248.02,51.2 L248.02,46.26 L250.08,46.26 Z M246.02,42.88 L262.4,42.88 L262.4,44.54 L255.4,44.54 L255.4,47.76 L253.34,47.76 L253.34,44.54 L246.02,44.54 L246.02,42.88 Z" id="오전-9시-30분-~-오후-6시-30" fill="#39322D"></path>
                            <path d="M30.07,105.38 C30.07,107.34 32.01,108.58 34.71,108.58 C37.39,108.58 39.33,107.34 39.33,105.38 C39.33,103.42 37.39,102.18 34.71,102.18 C32.01,102.18 30.07,103.42 30.07,105.38 Z M35.73,113.64 L42.91,113.64 L42.91,115.32 L26.55,115.32 L26.55,113.64 L33.67,113.64 L33.67,110.18 C30.37,109.88 28.07,108.06 28.07,105.38 C28.07,102.44 30.87,100.54 34.71,100.54 C38.53,100.54 41.35,102.44 41.35,105.38 C41.35,108.06 39.03,109.9 35.73,110.2 L35.73,113.64 Z M54.57,104.32 L57.85,104.32 L57.85,99.5 L59.91,99.5 L59.91,112.7 L57.85,112.7 L57.85,106.02 L54.57,106.02 L54.57,104.32 Z M55.69,108.54 L54.67,110.14 C52.67,109.46 51.21,108.04 50.45,106.26 C49.65,108.22 48.13,109.8 45.99,110.54 L44.93,108.92 C47.73,107.94 49.37,105.56 49.37,103.12 L49.37,102.5 L45.55,102.5 L45.55,100.84 L55.21,100.84 L55.21,102.5 L51.45,102.5 L51.45,103.12 C51.45,105.34 52.99,107.6 55.69,108.54 Z M50.27,115.52 L60.37,115.52 L60.37,117.2 L48.21,117.2 L48.21,111.56 L50.27,111.56 L50.27,115.52 Z M69.09,113.04 C69.5033354,113.320001 69.976664,113.536666 70.51,113.69 C71.043336,113.843334 71.576664,113.92 72.11,113.92 C73.3633396,113.92 74.3033302,113.503338 74.93,112.67 C75.5566698,111.836663 75.8566668,110.693341 75.83,109.24 C75.4699982,109.840003 74.9766698,110.299998 74.35,110.62 C73.7233302,110.940002 72.9900042,111.1 72.15,111.1 C70.7766598,111.1 69.690004,110.693337 68.89,109.88 C68.089996,109.066663 67.69,107.97334 67.69,106.6 C67.69,105.639995 67.8933313,104.80667 68.3,104.1 C68.7066687,103.39333 69.2833296,102.846669 70.03,102.46 C70.7766704,102.073331 71.649995,101.88 72.65,101.88 C73.8366726,101.88 74.8599957,102.153331 75.72,102.7 C76.5800043,103.246669 77.2399977,104.033328 77.7,105.06 C78.1600023,106.086672 78.39,107.30666 78.39,108.72 C78.39,110.200007 78.1400025,111.499994 77.64,112.62 C77.1399975,113.740006 76.4300046,114.60333 75.51,115.21 C74.5899954,115.81667 73.5166728,116.12 72.29,116.12 C71.5833298,116.12 70.8466705,116.020001 70.08,115.82 C69.3133295,115.619999 68.6366696,115.353335 68.05,115.02 L69.09,113.04 Z M72.77,104.14 C71.9833294,104.14 71.3500024,104.359998 70.87,104.8 C70.3899976,105.240002 70.15,105.846663 70.15,106.62 C70.15,107.36667 70.3766644,107.953331 70.83,108.38 C71.2833356,108.806669 71.9033294,109.02 72.69,109.02 C73.5433376,109.02 74.2166642,108.783336 74.71,108.31 C75.2033358,107.836664 75.4433334,107.24667 75.43,106.54 C75.4433334,105.899997 75.2200023,105.340002 74.76,104.86 C74.2999977,104.379998 73.636671,104.14 72.77,104.14 Z M87.13,100.98 L87.13,103.94 C87.13,107.26 88.97,110.58 91.81,111.86 L90.61,113.5 C88.53,112.52 86.95,110.52 86.13,108.08 C85.31,110.7 83.71,112.84 81.53,113.9 L80.31,112.18 C83.19,110.88 85.07,107.42 85.07,103.94 L85.07,100.98 L87.13,100.98 Z M93.25,99.46 L95.33,99.46 L95.33,117.58 L93.25,117.58 L93.25,99.46 Z M109.07,107.84 C110.36334,107.960001 111.393329,108.35333 112.16,109.02 C112.926671,109.68667 113.31,110.559995 113.31,111.64 C113.31,112.520004 113.083336,113.296663 112.63,113.97 C112.176664,114.643337 111.530004,115.169998 110.69,115.55 C109.849996,115.930002 108.870006,116.12 107.75,116.12 C106.803329,116.12 105.866671,115.976668 104.94,115.69 C104.013329,115.403332 103.223337,115.020002 102.57,114.54 L103.63,112.46 C104.190003,112.926669 104.809997,113.283332 105.49,113.53 C106.170003,113.776668 106.86333,113.9 107.57,113.9 C108.543338,113.9 109.306664,113.700002 109.86,113.3 C110.413336,112.899998 110.69,112.360003 110.69,111.68 C110.69,110.986663 110.416669,110.456669 109.87,110.09 C109.323331,109.723332 108.543338,109.54 107.53,109.54 L105.41,109.54 L105.41,107.92 L109.17,104.28 L103.27,104.28 L103.25,102 L112.61,102 L112.61,103.66 L108.33,107.76 L109.07,107.84 Z M121.29,101.88 C123.223343,101.88 124.709995,102.493327 125.75,103.72 C126.790005,104.946673 127.31,106.706655 127.31,109 C127.31,111.280011 126.790005,113.033327 125.75,114.26 C124.709995,115.486673 123.223343,116.1 121.29,116.1 C119.356657,116.1 117.870005,115.486673 116.83,114.26 C115.789995,113.033327 115.27,111.280011 115.27,109 C115.27,106.706655 115.789995,104.946673 116.83,103.72 C117.870005,102.493327 119.356657,101.88 121.29,101.88 Z M121.29,104 C120.183328,104 119.363336,104.403329 118.83,105.21 C118.296664,106.016671 118.03,107.279991 118.03,109 C118.03,110.706675 118.296664,111.966663 118.83,112.78 C119.363336,113.593337 120.183328,114 121.29,114 C122.396672,114 123.216664,113.593337 123.75,112.78 C124.283336,111.966663 124.55,110.706675 124.55,109 C124.55,107.279991 124.283336,106.016671 123.75,105.21 C123.216664,104.403329 122.396672,104 121.29,104 Z M141.53,105.74 L141.53,103.72 L133.49,103.72 L133.49,105.74 L141.53,105.74 Z M143.57,100.04 L143.57,107.36 L131.45,107.36 L131.45,100.04 L133.49,100.04 L133.49,102.14 L141.53,102.14 L141.53,100.04 L143.57,100.04 Z M133.39,112.26 L133.39,115.52 L143.89,115.52 L143.89,117.2 L131.33,117.2 L131.33,112.26 L133.39,112.26 Z M129.33,108.88 L145.71,108.88 L145.71,110.54 L138.71,110.54 L138.71,113.76 L136.65,113.76 L136.65,110.54 L129.33,110.54 L129.33,108.88 Z M158.89,110.34 C157.07,110.34 156.19,108.5 154.93,108.5 C154.29,108.5 153.73,108.92 153.23,109.84 L151.99,108.94 C152.89,107.42 153.95,106.82 154.97,106.82 C156.77,106.82 157.67,108.66 158.93,108.66 C159.57,108.66 160.11,108.24 160.61,107.32 L161.87,108.24 C160.95,109.72 159.89,110.34 158.89,110.34 Z M171.67,105.38 C171.67,107.34 173.61,108.58 176.31,108.58 C178.99,108.58 180.93,107.34 180.93,105.38 C180.93,103.42 178.99,102.18 176.31,102.18 C173.61,102.18 171.67,103.42 171.67,105.38 Z M177.33,113.64 L184.51,113.64 L184.51,115.32 L168.15,115.32 L168.15,113.64 L175.27,113.64 L175.27,110.18 C171.97,109.88 169.67,108.06 169.67,105.38 C169.67,102.44 172.47,100.54 176.31,100.54 C180.13,100.54 182.95,102.44 182.95,105.38 C182.95,108.06 180.63,109.9 177.33,110.2 L177.33,113.64 Z M201.97,101.46 L201.97,103.1 L187.35,103.1 L187.35,101.46 L193.67,101.46 L193.67,99.42 L195.73,99.42 L195.73,101.46 L201.97,101.46 Z M198.57,107.04 C198.57,106.06 197.23,105.54 194.71,105.54 C192.19,105.54 190.83,106.06 190.83,107.04 C190.83,108.02 192.19,108.56 194.71,108.56 C197.23,108.56 198.57,108.02 198.57,107.04 Z M188.69,107.04 C188.69,105.08 190.95,103.98 194.71,103.98 C198.47,103.98 200.73,105.08 200.73,107.04 C200.73,109 198.47,110.1 194.71,110.1 C190.95,110.1 188.69,109 188.69,107.04 Z M202.91,111.18 L202.91,112.84 L195.73,112.84 L195.73,117.56 L193.67,117.56 L193.67,112.84 L186.53,112.84 L186.53,111.18 L202.91,111.18 Z M214.71,101.88 C216.176674,101.88 217.333329,102.209997 218.18,102.87 C219.026671,103.530003 219.45,104.426661 219.45,105.56 C219.45,106.200003 219.276668,106.779997 218.93,107.3 C218.583332,107.820003 218.103336,108.226665 217.49,108.52 C218.316671,108.826668 218.966664,109.29333 219.44,109.92 C219.913336,110.54667 220.15,111.266663 220.15,112.08 C220.15,112.893337 219.930002,113.606664 219.49,114.22 C219.049998,114.833336 218.420004,115.303332 217.6,115.63 C216.779996,115.956668 215.823339,116.12 214.73,116.12 C213.636661,116.12 212.680004,115.956668 211.86,115.63 C211.039996,115.303332 210.410002,114.840003 209.97,114.24 C209.529998,113.639997 209.31,112.933337 209.31,112.12 C209.31,111.293329 209.556664,110.563337 210.05,109.93 C210.543336,109.296663 211.223329,108.826668 212.09,108.52 C211.436663,108.199998 210.926668,107.773336 210.56,107.24 C210.193331,106.706664 210.01,106.113337 210.01,105.46 C210.01,104.366661 210.433329,103.49667 211.28,102.85 C212.126671,102.20333 213.269993,101.88 214.71,101.88 Z M214.73,103.8 C213.956663,103.8 213.353336,103.966665 212.92,104.3 C212.486665,104.633335 212.27,105.099997 212.27,105.7 C212.27,106.300003 212.486665,106.766665 212.92,107.1 C213.353336,107.433335 213.956663,107.6 214.73,107.6 C215.503337,107.6 216.103331,107.433335 216.53,107.1 C216.956669,106.766665 217.17,106.300003 217.17,105.7 C217.17,105.099997 216.956669,104.633335 216.53,104.3 C216.103331,103.966665 215.503337,103.8 214.73,103.8 Z M214.71,109.68 C213.803329,109.68 213.096669,109.866665 212.59,110.24 C212.083331,110.613335 211.83,111.139997 211.83,111.82 C211.83,112.513337 212.083331,113.053331 212.59,113.44 C213.096669,113.826669 213.809995,114.02 214.73,114.02 C215.636671,114.02 216.346664,113.830002 216.86,113.45 C217.373336,113.069998 217.63,112.533337 217.63,111.84 C217.63,111.159997 217.373336,110.630002 216.86,110.25 C216.346664,109.869998 215.630005,109.68 214.71,109.68 Z M228.75,100.98 L228.75,103.94 C228.75,107.26 230.59,110.58 233.43,111.86 L232.23,113.5 C230.15,112.52 228.57,110.52 227.75,108.08 C226.93,110.7 225.33,112.84 223.15,113.9 L221.93,112.18 C224.81,110.88 226.69,107.42 226.69,103.94 L226.69,100.98 L228.75,100.98 Z M234.87,99.46 L236.95,99.46 L236.95,117.58 L234.87,117.58 L234.87,99.46 Z" id="오전-9시-30분-~-오후-8시" fill="#39322D"></path>
                            <path d="M29.99,171.38 C29.99,173.34 31.93,174.58 34.63,174.58 C37.31,174.58 39.25,173.34 39.25,171.38 C39.25,169.42 37.31,168.18 34.63,168.18 C31.93,168.18 29.99,169.42 29.99,171.38 Z M35.65,179.64 L42.83,179.64 L42.83,181.32 L26.47,181.32 L26.47,179.64 L33.59,179.64 L33.59,176.18 C30.29,175.88 27.99,174.06 27.99,171.38 C27.99,168.44 30.79,166.54 34.63,166.54 C38.45,166.54 41.27,168.44 41.27,171.38 C41.27,174.06 38.95,175.9 35.65,176.2 L35.65,179.64 Z M54.49,170.32 L57.77,170.32 L57.77,165.5 L59.83,165.5 L59.83,178.7 L57.77,178.7 L57.77,172.02 L54.49,172.02 L54.49,170.32 Z M55.61,174.54 L54.59,176.14 C52.59,175.46 51.13,174.04 50.37,172.26 C49.57,174.22 48.05,175.8 45.91,176.54 L44.85,174.92 C47.65,173.94 49.29,171.56 49.29,169.12 L49.29,168.5 L45.47,168.5 L45.47,166.84 L55.13,166.84 L55.13,168.5 L51.37,168.5 L51.37,169.12 C51.37,171.34 52.91,173.6 55.61,174.54 Z M50.19,181.52 L60.29,181.52 L60.29,183.2 L48.13,183.2 L48.13,177.56 L50.19,177.56 L50.19,181.52 Z M69.01,179.04 C69.4233354,179.320001 69.896664,179.536666 70.43,179.69 C70.963336,179.843334 71.496664,179.92 72.03,179.92 C73.2833396,179.92 74.2233302,179.503337 74.85,178.67 C75.4766698,177.836662 75.7766668,176.693341 75.75,175.24 C75.3899982,175.840003 74.8966698,176.299998 74.27,176.62 C73.6433302,176.940002 72.9100042,177.1 72.07,177.1 C70.6966598,177.1 69.610004,176.693337 68.81,175.88 C68.009996,175.066663 67.61,173.97334 67.61,172.6 C67.61,171.639995 67.8133313,170.80667 68.22,170.1 C68.6266687,169.39333 69.2033296,168.846669 69.95,168.46 C70.6966704,168.073331 71.569995,167.88 72.57,167.88 C73.7566726,167.88 74.7799957,168.153331 75.64,168.7 C76.5000043,169.246669 77.1599977,170.033328 77.62,171.06 C78.0800023,172.086672 78.31,173.30666 78.31,174.72 C78.31,176.200007 78.0600025,177.499994 77.56,178.62 C77.0599975,179.740006 76.3500046,180.60333 75.43,181.21 C74.5099954,181.81667 73.4366728,182.12 72.21,182.12 C71.5033298,182.12 70.7666705,182.020001 70,181.82 C69.2333295,181.619999 68.5566696,181.353335 67.97,181.02 L69.01,179.04 Z M72.69,170.14 C71.9033294,170.14 71.2700024,170.359998 70.79,170.8 C70.3099976,171.240002 70.07,171.846663 70.07,172.62 C70.07,173.36667 70.2966644,173.953331 70.75,174.38 C71.2033356,174.806669 71.8233294,175.02 72.61,175.02 C73.4633376,175.02 74.1366642,174.783336 74.63,174.31 C75.1233358,173.836664 75.3633334,173.24667 75.35,172.54 C75.3633334,171.899997 75.1400023,171.340002 74.68,170.86 C74.2199977,170.379998 73.556671,170.14 72.69,170.14 Z M87.05,166.98 L87.05,169.94 C87.05,173.26 88.89,176.58 91.73,177.86 L90.53,179.5 C88.45,178.52 86.87,176.52 86.05,174.08 C85.23,176.7 83.63,178.84 81.45,179.9 L80.23,178.18 C83.11,176.88 84.99,173.42 84.99,169.94 L84.99,166.98 L87.05,166.98 Z M93.17,165.46 L95.25,165.46 L95.25,183.58 L93.17,183.58 L93.17,165.46 Z M108.99,173.84 C110.28334,173.960001 111.313329,174.35333 112.08,175.02 C112.84667,175.68667 113.23,176.559995 113.23,177.64 C113.23,178.520004 113.003336,179.296663 112.55,179.97 C112.096664,180.643337 111.450004,181.169998 110.61,181.55 C109.769996,181.930002 108.790006,182.12 107.67,182.12 C106.723329,182.12 105.786671,181.976668 104.86,181.69 C103.933329,181.403332 103.143337,181.020002 102.49,180.54 L103.55,178.46 C104.110003,178.926669 104.729997,179.283332 105.41,179.53 C106.090003,179.776668 106.78333,179.9 107.49,179.9 C108.463338,179.9 109.226664,179.700002 109.78,179.3 C110.333336,178.899998 110.61,178.360003 110.61,177.68 C110.61,176.986663 110.336669,176.456669 109.79,176.09 C109.243331,175.723332 108.463338,175.54 107.45,175.54 L105.33,175.54 L105.33,173.92 L109.09,170.28 L103.19,170.28 L103.17,168 L112.53,168 L112.53,169.66 L108.25,173.76 L108.99,173.84 Z M121.21,167.88 C123.143343,167.88 124.629995,168.493327 125.67,169.72 C126.710005,170.946673 127.23,172.706655 127.23,175 C127.23,177.280011 126.710005,179.033327 125.67,180.26 C124.629995,181.486673 123.143343,182.1 121.21,182.1 C119.276657,182.1 117.790005,181.486673 116.75,180.26 C115.709995,179.033327 115.19,177.280011 115.19,175 C115.19,172.706655 115.709995,170.946673 116.75,169.72 C117.790005,168.493327 119.276657,167.88 121.21,167.88 Z M121.21,170 C120.103328,170 119.283336,170.403329 118.75,171.21 C118.216664,172.016671 117.95,173.279991 117.95,175 C117.95,176.706675 118.216664,177.966663 118.75,178.78 C119.283336,179.593337 120.103328,180 121.21,180 C122.316672,180 123.136664,179.593337 123.67,178.78 C124.203336,177.966663 124.47,176.706675 124.47,175 C124.47,173.279991 124.203336,172.016671 123.67,171.21 C123.136664,170.403329 122.316672,170 121.21,170 Z M141.45,171.74 L141.45,169.72 L133.41,169.72 L133.41,171.74 L141.45,171.74 Z M143.49,166.04 L143.49,173.36 L131.37,173.36 L131.37,166.04 L133.41,166.04 L133.41,168.14 L141.45,168.14 L141.45,166.04 L143.49,166.04 Z M133.31,178.26 L133.31,181.52 L143.81,181.52 L143.81,183.2 L131.25,183.2 L131.25,178.26 L133.31,178.26 Z M129.25,174.88 L145.63,174.88 L145.63,176.54 L138.63,176.54 L138.63,179.76 L136.57,179.76 L136.57,176.54 L129.25,176.54 L129.25,174.88 Z M158.81,176.34 C156.99,176.34 156.11,174.5 154.85,174.5 C154.21,174.5 153.65,174.92 153.15,175.84 L151.91,174.94 C152.81,173.42 153.87,172.82 154.89,172.82 C156.69,172.82 157.59,174.66 158.85,174.66 C159.49,174.66 160.03,174.24 160.53,173.32 L161.79,174.24 C160.87,175.72 159.81,176.34 158.81,176.34 Z M171.59,171.38 C171.59,173.34 173.53,174.58 176.23,174.58 C178.91,174.58 180.85,173.34 180.85,171.38 C180.85,169.42 178.91,168.18 176.23,168.18 C173.53,168.18 171.59,169.42 171.59,171.38 Z M177.25,179.64 L184.43,179.64 L184.43,181.32 L168.07,181.32 L168.07,179.64 L175.19,179.64 L175.19,176.18 C171.89,175.88 169.59,174.06 169.59,171.38 C169.59,168.44 172.39,166.54 176.23,166.54 C180.05,166.54 182.87,168.44 182.87,171.38 C182.87,174.06 180.55,175.9 177.25,176.2 L177.25,179.64 Z M201.89,167.46 L201.89,169.1 L187.27,169.1 L187.27,167.46 L193.59,167.46 L193.59,165.42 L195.65,165.42 L195.65,167.46 L201.89,167.46 Z M198.49,173.04 C198.49,172.06 197.15,171.54 194.63,171.54 C192.11,171.54 190.75,172.06 190.75,173.04 C190.75,174.02 192.11,174.56 194.63,174.56 C197.15,174.56 198.49,174.02 198.49,173.04 Z M188.61,173.04 C188.61,171.08 190.87,169.98 194.63,169.98 C198.39,169.98 200.65,171.08 200.65,173.04 C200.65,175 198.39,176.1 194.63,176.1 C190.87,176.1 188.61,175 188.61,173.04 Z M202.83,177.18 L202.83,178.84 L195.65,178.84 L195.65,183.56 L193.59,183.56 L193.59,178.84 L186.45,178.84 L186.45,177.18 L202.83,177.18 Z M219.47,179.66 L219.47,182 L209.11,182 L209.11,180.06 L214.39,174.62 C214.896669,174.113331 215.303332,173.613336 215.61,173.12 C215.916668,172.626664 216.07,172.200002 216.07,171.84 C216.07,171.333331 215.870002,170.936668 215.47,170.65 C215.069998,170.363332 214.51667,170.22 213.81,170.22 C213.196664,170.22 212.543337,170.373332 211.85,170.68 C211.156663,170.986668 210.503336,171.413331 209.89,171.96 L208.83,169.9 C209.656671,169.259997 210.526662,168.763335 211.44,168.41 C212.353338,168.056665 213.269995,167.88 214.19,167.88 C215.110005,167.88 215.92333,168.026665 216.63,168.32 C217.33667,168.613335 217.886665,169.029997 218.28,169.57 C218.673335,170.110003 218.87,170.73333 218.87,171.44 C218.87,172.120003 218.636669,172.839996 218.17,173.6 C217.703331,174.360004 217.050004,175.179996 216.21,176.06 L212.65,179.66 L219.47,179.66 Z M227.83,166.98 L227.83,169.94 C227.83,173.26 229.67,176.58 232.51,177.86 L231.31,179.5 C229.23,178.52 227.65,176.52 226.83,174.08 C226.01,176.7 224.41,178.84 222.23,179.9 L221.01,178.18 C223.89,176.88 225.77,173.42 225.77,169.94 L225.77,166.98 L227.83,166.98 Z M233.95,165.46 L236.03,165.46 L236.03,183.58 L233.95,183.58 L233.95,165.46 Z" id="오전-9시-30분-~-오후-2시" fill="#39322D"></path>
                            <path d="M128.31,16.158 L128.31,13.08 L125.502,13.08 L125.502,11.982 L128.31,11.982 L128.31,10.236 L125.502,10.236 L125.502,9.138 L128.31,9.138 L128.31,6.222 L129.624,6.222 L129.624,16.158 L128.31,16.158 Z M119.85,8.544 L119.85,13.98 C120.696,13.962 121.578,13.926 122.442,13.89 L122.442,8.544 L119.85,8.544 Z M125.934,13.602 L126.024,14.592 C122.892,15.078 119.238,15.132 116.628,15.132 L116.484,14.016 C117.114,14.016 117.834,14.016 118.572,13.998 L118.572,8.544 L116.916,8.544 L116.916,7.464 L125.376,7.464 L125.376,8.544 L123.72,8.544 L123.72,13.8 C124.476,13.764 125.232,13.692 125.934,13.602 Z M124.35,21.234 C126.852,21.234 128.382,20.55 128.382,19.38 C128.382,18.228 126.852,17.544 124.35,17.544 C121.848,17.544 120.318,18.228 120.318,19.38 C120.318,20.55 121.848,21.234 124.35,21.234 Z M124.35,16.5 C127.68,16.5 129.678,17.562 129.678,19.38 C129.678,21.216 127.68,22.278 124.35,22.278 C121.02,22.278 119.022,21.216 119.022,19.38 C119.022,17.562 121.02,16.5 124.35,16.5 Z M146.148,6.204 L146.148,14.502 L144.834,14.502 L144.834,6.204 L146.148,6.204 Z M134.646,10.362 C134.646,11.802 135.852,12.828 137.49,12.828 C139.146,12.828 140.352,11.802 140.352,10.362 C140.352,8.922 139.146,7.896 137.49,7.896 C135.852,7.896 134.646,8.922 134.646,10.362 Z M141.63,10.362 C141.63,12.468 139.902,13.908 137.49,13.908 C135.114,13.908 133.368,12.468 133.368,10.362 C133.368,8.274 135.114,6.816 137.49,6.816 C139.902,6.816 141.63,8.274 141.63,10.362 Z M137.112,21.018 L146.724,21.018 L146.724,22.08 L135.816,22.08 L135.816,18.12 L144.852,18.12 L144.852,16.374 L135.78,16.374 L135.78,15.312 L146.148,15.312 L146.148,19.11 L137.112,19.11 L137.112,21.018 Z" id="평일" fill="#555555"></path>
                            <path d="M98.601,83.49 C100.221,83.49 101.355,81.708 101.355,79.044 C101.355,76.416 100.221,74.652 98.601,74.652 C96.981,74.652 95.829,76.416 95.829,79.044 C95.829,81.708 96.981,83.49 98.601,83.49 Z M98.601,73.482 C100.941,73.482 102.615,75.66 102.615,79.044 C102.615,82.464 100.941,84.66 98.601,84.66 C96.243,84.66 94.587,82.464 94.587,79.044 C94.587,75.66 96.243,73.482 98.601,73.482 Z M109.275,77.406 L106.647,77.406 L106.647,81.114 L109.275,81.114 L109.275,82.212 L106.647,82.212 L106.647,88.314 L105.333,88.314 L105.333,72.222 L106.647,72.222 L106.647,76.308 L109.275,76.308 L109.275,77.406 Z M111.579,73.464 L119.031,73.464 C119.031,77.586 116.061,80.646 111.471,82.122 L110.931,81.06 C114.783,79.836 117.339,77.478 117.627,74.544 L111.579,74.544 L111.579,73.464 Z M114.675,82.824 L114.675,86.856 L124.071,86.856 L124.071,87.954 L113.379,87.954 L113.379,82.824 L114.675,82.824 Z M123.333,77.172 L125.745,77.172 L125.745,78.27 L123.333,78.27 L123.333,84.012 L122.019,84.012 L122.019,72.204 L123.333,72.204 L123.333,77.172 Z M145.257,78.414 L144.735,79.476 C142.305,79.044 139.785,77.64 138.741,75.642 C137.751,77.658 135.231,79.026 132.765,79.476 L132.243,78.414 C135.033,77.982 138.057,76.074 138.057,73.716 L138.057,72.78 L139.443,72.78 L139.443,73.716 C139.443,76.038 142.503,77.982 145.257,78.414 Z M146.013,81.33 L146.013,82.428 L139.371,82.428 L139.371,88.314 L138.057,88.314 L138.057,82.428 L131.469,82.428 L131.469,81.33 L146.013,81.33 Z M147.237,90.204 L152.781,72.762 L153.879,72.762 L148.317,90.204 L147.237,90.204 Z M158.181,83.472 L158.181,87 L166.533,87 L166.533,83.472 L158.181,83.472 Z M156.885,88.08 L156.885,82.41 L167.811,82.41 L167.811,88.08 L156.885,88.08 Z M167.307,79.044 L169.683,79.044 L169.683,80.142 L155.067,80.142 L155.067,79.044 L165.993,79.044 C166.461,76.992 166.461,75.498 166.461,74.256 L166.461,74.166 L156.957,74.166 L156.957,73.068 L167.757,73.068 L167.757,74.256 C167.757,75.516 167.757,77.01 167.307,79.044 Z" id="야간-수/금" fill="#555555"></path>
                            <path d="M116.07,151.182 L122.748,151.182 L122.748,152.28 L108.114,152.28 L108.114,151.182 L114.756,151.182 L114.756,147.726 L110.022,147.726 L110.022,139.554 L120.894,139.554 L120.894,140.634 L111.354,140.634 L111.354,143.01 L120.534,143.01 L120.534,144.09 L111.354,144.09 L111.354,146.628 L121.056,146.628 L121.056,147.726 L116.07,147.726 L116.07,151.182 Z M129.642,147.222 L129.642,151.11 L134.322,151.11 L134.322,147.204 C133.62,147.384 132.81,147.492 131.964,147.492 C131.136,147.492 130.344,147.384 129.642,147.222 Z M127.392,143.388 C127.392,145.206 129.318,146.43 131.964,146.43 C134.61,146.43 136.536,145.206 136.536,143.388 C136.536,141.552 134.61,140.328 131.964,140.328 C129.318,140.328 127.392,141.552 127.392,143.388 Z M135.618,151.11 L139.308,151.11 L139.308,152.208 L124.674,152.208 L124.674,151.11 L128.328,151.11 L128.328,146.7 C126.96,145.998 126.132,144.846 126.132,143.388 C126.132,140.886 128.562,139.266 131.964,139.266 C135.366,139.266 137.778,140.886 137.778,143.388 C137.778,144.846 136.968,145.98 135.618,146.7 L135.618,151.11 Z M154.428,138.204 L154.428,146.502 L153.114,146.502 L153.114,138.204 L154.428,138.204 Z M142.926,142.362 C142.926,143.802 144.132,144.828 145.77,144.828 C147.426,144.828 148.632,143.802 148.632,142.362 C148.632,140.922 147.426,139.896 145.77,139.896 C144.132,139.896 142.926,140.922 142.926,142.362 Z M149.91,142.362 C149.91,144.468 148.182,145.908 145.77,145.908 C143.394,145.908 141.648,144.468 141.648,142.362 C141.648,140.274 143.394,138.816 145.77,138.816 C148.182,138.816 149.91,140.274 149.91,142.362 Z M145.392,153.018 L155.004,153.018 L155.004,154.08 L144.096,154.08 L144.096,150.12 L153.132,150.12 L153.132,148.374 L144.06,148.374 L144.06,147.312 L154.428,147.312 L154.428,151.11 L145.392,151.11 L145.392,153.018 Z" id="토요일" fill="#555555"></path>
                        </g>
                    </g>
                    <path d="M109.6625,60.125 L109.6625,76.775 L106.3375,76.775 L106.3375,60.125 L109.6625,60.125 Z M104.8875,71.4 L103.2125,73.925 C100.6625,73.125 98.9125003,71.475 97.8625003,69.425 C96.8375003,71.675 94.9875003,73.45 92.3125003,74.325 L90.6375003,71.75 C94.4625003,70.55 96.1375003,67.525 96.1375003,64.65 L96.1375003,64.375 L91.5125003,64.375 L91.5125003,61.775 L104.0375,61.775 L104.0375,64.375 L99.4875003,64.375 L99.4875003,64.65 C99.4875003,67.35 101.1625,70.175 104.8875,71.4 Z M97.6375003,80.125 L110.2375,80.125 L110.2375,82.75 L94.3375003,82.75 L94.3375003,75.275 L97.6375003,75.275 L97.6375003,80.125 Z M121.848214,74.425 L121.848214,77.925 L125.873214,77.925 L125.873214,74.425 L121.848214,74.425 Z M129.123214,77.925 L134.173214,77.925 L134.173214,80.625 L113.298214,80.625 L113.298214,77.925 L118.598214,77.925 L118.598214,74.425 L115.723214,74.425 L115.723214,66.675 L128.573215,66.675 L128.573215,64.225 L115.698214,64.225 L115.698214,61.6 L131.823215,61.6 L131.823215,69.25 L118.998214,69.25 L118.998214,71.775 L132.348214,71.775 L132.348214,74.425 L129.123214,74.425 L129.123214,77.925 Z M145.033929,61.9 L145.033929,65.25 C145.033929,69.525 146.858929,73.725 150.758929,75.4 L148.883929,78.075 C146.233929,76.875 144.458929,74.6 143.433929,71.775 C142.408929,74.85 140.533929,77.325 137.783929,78.625 L135.808929,75.9 C139.833929,74.175 141.733929,69.725 141.733929,65.25 L141.733929,61.9 L145.033929,61.9 Z M151.883929,60.1 L155.183929,60.1 L155.183929,83.2 L151.883929,83.2 L151.883929,60.1 Z M159.719643,61.85 L170.794643,61.85 C170.794643,68.1 166.944643,72.425 160.094643,74.4 L158.719643,71.775 C163.844643,70.375 166.694643,67.7 167.219643,64.475 L159.719643,64.475 L159.719643,61.85 Z M165.444643,74.95 L165.444643,80.125 L177.794643,80.125 L177.794643,82.75 L162.144643,82.75 L162.144643,74.95 L165.444643,74.95 Z M176.994643,66.55 L180.069643,66.55 L180.069643,69.25 L176.994643,69.25 L176.994643,76.6 L173.694643,76.6 L173.694643,60.125 L176.994643,60.125 L176.994643,66.55 Z M189.241071,67.55 C189.241071,69.95 191.116071,71.75 193.616071,71.75 C196.066071,71.75 197.941071,69.95 197.941071,67.55 C197.941071,65.15 196.066071,63.35 193.616071,63.35 C191.116071,63.35 189.241071,65.15 189.241071,67.55 Z M199.241071,67.55 C199.241071,70.7 196.841071,72.925 193.616071,72.925 C190.341071,72.925 187.966071,70.7 187.966071,67.55 C187.966071,64.375 190.341071,62.175 193.616071,62.175 C196.841071,62.175 199.241071,64.375 199.241071,67.55 Z M192.266071,75.325 L192.266071,81.075 L205.591071,81.075 L205.591071,82.2 L190.941071,82.2 L190.941071,75.325 L192.266071,75.325 Z M204.491071,67.5 L207.966071,67.5 L207.966071,68.65 L204.491071,68.65 L204.491071,77 L203.166071,77 L203.166071,60.525 L204.491071,60.525 L204.491071,67.5 Z M212.726786,63.35 L212.726786,75.6 C215.126785,75.6 217.676785,75.475 220.676785,74.85 L220.851786,76.025 C217.726786,76.65 215.226786,76.8 212.726786,76.8 L211.401786,76.8 L211.401786,63.35 L212.726786,63.35 Z M227.601786,60.525 L228.876785,60.525 L228.876785,82.75 L227.601786,82.75 L227.601786,71.025 L223.751785,71.025 L223.751785,81.55 L222.476786,81.55 L222.476786,61.075 L223.751785,61.075 L223.751785,69.85 L227.601786,69.85 L227.601786,60.525 Z" id="진료시간-안내" fill="#39322D" mask="url(#mask-2)"></path>
                </g>
            </g>
        </g>
    </g>
</svg>