<?xml version="1.0" encoding="UTF-8"?>
<svg width="304px" height="228px" viewBox="0 0 304 228" version="1.1" xmlns="http://www.w3.org/2000/svg" xmlns:xlink="http://www.w3.org/1999/xlink">
    <!-- Generator: Sketch 52.5 (67469) - http://www.bohemiancoding.com/sketch -->
    <title>Group 14</title>
    <desc>Created with Sketch.</desc>
    <defs>
        <path d="M171.381742,159.020262 L147.895367,177.943471 C147.050658,178.265679 144.995492,178.875262 142.0782,178.875262 C136.496158,178.875262 130.42645,176.637221 124.530908,172.396262 L44.396825,93.2723458 C43.9701167,92.7585542 33.8771583,80.8978042 39.8423667,65.2228042 L55.9702,39.6203042 C56.5101167,39.0978042 58.0253667,37.9221792 60.2111583,37.9221792 C62.4317833,37.9221792 65.0704083,39.1500542 67.4477833,41.1442625 L79.7613667,53.4317208 L80.762825,54.2503042 C80.762825,54.2503042 81.6772,55.0079292 81.7991167,55.9397208 C81.9558667,57.2285542 80.8412,59.2837208 78.48995,61.8352625 C76.50445,64.3084292 66.812075,77.2664292 71.2359083,87.2548875 L71.6887417,88.2650542 L122.467033,139.017221 C122.919867,139.531012 127.125992,143.972262 134.275533,143.972262 C138.78645,143.972262 143.323492,142.204471 147.747325,138.721137 L148.470117,138.033179 C149.471575,136.935929 152.850408,134.062179 156.229242,134.062179 C157.709658,134.062179 159.146533,134.628221 160.078325,135.307471 L175.67495,150.869262 C175.67495,150.895387 176.397742,151.783637 176.3542,152.811221 C176.267117,154.457096 174.516742,156.660304 171.381742,159.020262 M188.160958,152.586419 L188.160958,152.824247 C188.159417,153.009466 188.15426,153.196719 188.145283,153.385971 C187.892742,158.776429 184.696783,163.809846 178.635783,168.346887 L153.695117,188.323804 C153.225838,188.545645 149.069843,190.623384 142.488538,190.707275 L141.673698,190.707275 C135.938501,190.633381 127.141743,188.96029 117.198492,181.679346 L116.536658,181.139429 L35.8191167,101.371096 C35.1206208,100.619381 26.2150847,90.405432 26.125,75.4497384 L26.125,74.9927591 C26.1521021,70.4937146 26.9822825,65.5752898 29.0701583,60.3635542 L29.5491167,59.4056375 L46.2865333,32.8190958 C47.2343734,31.5894655 51.8245357,26.3323478 59.7368133,26.1284833 L60.6881455,26.1284833 C65.6490022,26.2552848 70.5981286,28.3601453 75.4246167,32.4272208 L87.79045,44.7495125 C89.331825,45.9338458 92.8412833,49.1385125 93.5205333,54.4680125 C94.1475333,59.4753042 92.1097833,64.5522625 87.4334083,69.5421375 C84.5944917,73.1473875 81.6597833,79.0255125 81.8774917,81.7338042 L131.018617,130.901054 C131.184075,131.049096 132.350992,132.172471 134.275533,132.172471 C135.956242,132.172471 137.967867,131.310346 140.083992,129.716721 C141.81695,127.931512 147.956325,122.253679 156.229242,122.253679 C160.391825,122.253679 164.3367,123.673137 167.907117,126.503346 L183.82595,142.326387 C184.101558,142.593644 188.109736,146.441284 188.160958,152.586439 Z" id="path-1"></path>
    </defs>
    <g id="Page-1" stroke="none" stroke-width="1" fill="none" fill-rule="evenodd">
        <g id="main" transform="translate(-16.000000, -4088.000000)">
            <g id="Group-2" transform="translate(0.000000, 4088.000000)">
                <g id="Group-14" transform="translate(16.000000, -69.000000)">
                    <g id="icon/call" opacity="0.06" transform="translate(137.000000, 0.000000)">
                        <mask id="mask-2" fill="white">
                            <use xlink:href="#path-1"></use>
                        </mask>
                        <use id="Mask" fill="#231916" fill-rule="evenodd" xlink:href="#path-1"></use>
                        <g id="swatch/white" mask="url(#mask-2)" fill="#FFFFFF" fill-rule="evenodd">
                            <rect id="Rectangle" x="0" y="0" width="218" height="209"></rect>
                        </g>
                        <g id="gray/lighten-2" mask="url(#mask-2)" fill="#636C77" fill-rule="nonzero">
                            <rect id="Rectangle-Copy" x="0" y="0" width="209" height="209"></rect>
                        </g>
                    </g>
                    <path d="M61.29,188.82 C64.1900145,188.82 66.4199922,189.739991 67.98,191.58 C69.5400078,193.420009 70.32,196.059983 70.32,199.5 C70.32,202.920017 69.5400078,205.549991 67.98,207.39 C66.4199922,209.230009 64.1900145,210.15 61.29,210.15 C58.3899855,210.15 56.1600078,209.230009 54.6,207.39 C53.0399922,205.549991 52.26,202.920017 52.26,199.5 C52.26,196.059983 53.0399922,193.420009 54.6,191.58 C56.1600078,189.739991 58.3899855,188.82 61.29,188.82 Z M61.29,192 C59.6299917,192 58.400004,192.604994 57.6,193.815 C56.799996,195.025006 56.4,196.919987 56.4,199.5 C56.4,202.060013 56.799996,203.949994 57.6,205.17 C58.400004,206.390006 59.6299917,207 61.29,207 C62.9500083,207 64.179996,206.390006 64.98,205.17 C65.780004,203.949994 66.18,202.060013 66.18,199.5 C66.18,196.919987 65.780004,195.025006 64.98,193.815 C64.179996,192.604994 62.9500083,192 61.29,192 Z M88.53,206.49 L88.53,210 L72.99,210 L72.99,207.09 L80.91,198.93 C81.6700038,198.169996 82.2799977,197.420004 82.74,196.68 C83.2000023,195.939996 83.43,195.300003 83.43,194.76 C83.43,193.999996 83.130003,193.405002 82.53,192.975 C81.929997,192.544998 81.1000053,192.33 80.04,192.33 C79.1199954,192.33 78.1400052,192.559998 77.1,193.02 C76.0599948,193.480002 75.0800046,194.119996 74.16,194.94 L72.57,191.85 C73.8100062,190.889995 75.1149931,190.145003 76.485,189.615 C77.8550068,189.084997 79.2299931,188.82 80.61,188.82 C81.9900069,188.82 83.2099947,189.039998 84.27,189.48 C85.3300053,189.920002 86.154997,190.544996 86.745,191.355 C87.3350029,192.165004 87.63,193.099995 87.63,194.16 C87.63,195.180005 87.2800035,196.259994 86.58,197.4 C85.8799965,198.540006 84.9000063,199.769993 83.64,201.09 L78.3,206.49 L88.53,206.49 Z M92.91,205.95 C93.510003,205.95 94.004998,206.149998 94.395,206.55 C94.7850019,206.950002 94.98,207.459997 94.98,208.08 C94.98,208.720003 94.7850019,209.244998 94.395,209.655 C94.004998,210.065002 93.510003,210.27 92.91,210.27 C92.3299971,210.27 91.8450019,210.060002 91.455,209.64 C91.064998,209.219998 90.87,208.700003 90.87,208.08 C90.87,207.459997 91.064998,206.950002 91.455,206.55 C91.8450019,206.149998 92.3299971,205.95 92.91,205.95 Z M106.38,197.76 C108.32001,197.940001 109.864994,198.529995 111.015,199.53 C112.165006,200.530005 112.74,201.839992 112.74,203.46 C112.74,204.780007 112.400003,205.944995 111.72,206.955 C111.039997,207.965005 110.070006,208.754997 108.81,209.325 C107.549994,209.895003 106.080008,210.18 104.4,210.18 C102.979993,210.18 101.575007,209.965002 100.185,209.535 C98.794993,209.104998 97.6100049,208.530004 96.63,207.81 L98.22,204.69 C99.0600042,205.390004 99.9899949,205.924998 101.01,206.295 C102.030005,206.665002 103.069995,206.85 104.13,206.85 C105.590007,206.85 106.734996,206.550003 107.565,205.95 C108.395004,205.349997 108.81,204.540005 108.81,203.52 C108.81,202.479995 108.400004,201.685003 107.58,201.135 C106.759996,200.584997 105.590008,200.31 104.07,200.31 L100.89,200.31 L100.89,197.88 L106.53,192.42 L97.68,192.42 L97.65,189 L111.69,189 L111.69,191.49 L105.27,197.64 L106.38,197.76 Z M129.54,193.44 C128.919997,192.999998 128.205004,192.665001 127.395,192.435 C126.584996,192.204999 125.770004,192.09 124.95,192.09 C123.069991,192.09 121.655005,192.719994 120.705,193.98 C119.754995,195.240006 119.31,196.959989 119.37,199.14 C119.910003,198.219995 120.644995,197.525002 121.575,197.055 C122.505005,196.584998 123.609994,196.35 124.89,196.35 C126.97001,196.35 128.619994,196.959994 129.84,198.18 C131.060006,199.400006 131.67,201.02999 131.67,203.07 C131.67,204.510007 131.360003,205.764995 130.74,206.835 C130.119997,207.905005 129.245006,208.729997 128.115,209.31 C126.984994,209.890003 125.670007,210.18 124.17,210.18 C122.389991,210.18 120.850006,209.770004 119.55,208.95 C118.249993,208.129996 117.255003,206.950008 116.565,205.41 C115.874997,203.869992 115.53,202.030011 115.53,199.89 C115.53,197.669989 115.904996,195.725008 116.655,194.055 C117.405004,192.384992 118.469993,191.095005 119.85,190.185 C121.230007,189.274995 122.849991,188.82 124.71,188.82 C125.790005,188.82 126.904994,188.964999 128.055,189.255 C129.205006,189.545001 130.209996,189.939998 131.07,190.44 L129.54,193.44 Z M124.11,199.44 C122.829994,199.44 121.810004,199.799996 121.05,200.52 C120.289996,201.240004 119.92,202.129995 119.94,203.19 C119.92,203.790003 120.059998,204.364997 120.36,204.915 C120.660001,205.465003 121.114997,205.914998 121.725,206.265 C122.335003,206.615002 123.089995,206.79 123.99,206.79 C125.190006,206.79 126.149996,206.460003 126.87,205.8 C127.590004,205.139997 127.95,204.220006 127.95,203.04 C127.95,201.939995 127.605003,201.065003 126.915,200.415 C126.224997,199.764997 125.290006,199.44 124.11,199.44 Z M142.56,196.68 C144.140008,196.68 145.529994,196.949997 146.73,197.49 C147.930006,198.030003 148.854997,198.784995 149.505,199.755 C150.155003,200.725005 150.48,201.819994 150.48,203.04 C150.48,204.460007 150.140003,205.709995 149.46,206.79 C148.779997,207.870005 147.820006,208.704997 146.58,209.295 C145.339994,209.885003 143.900008,210.18 142.26,210.18 C140.939993,210.18 139.565007,209.955002 138.135,209.505 C136.704993,209.054998 135.440005,208.450004 134.34,207.69 L135.93,204.54 C136.830004,205.240004 137.789995,205.784998 138.81,206.175 C139.830005,206.565002 140.849995,206.76 141.87,206.76 C143.190007,206.76 144.234996,206.455003 145.005,205.845 C145.775004,205.234997 146.16,204.400005 146.16,203.34 C146.16,202.319995 145.780004,201.530003 145.02,200.97 C144.259996,200.409997 143.130007,200.13 141.63,200.13 C140.909996,200.13 139.960006,200.155 138.78,200.205 C137.599994,200.255 136.690003,200.31 136.05,200.37 L136.05,189 L149.55,189 L149.55,192.51 L139.77,192.51 L139.77,196.68 L142.56,196.68 Z M155.04,205.95 C155.640003,205.95 156.134998,206.149998 156.525,206.55 C156.915002,206.950002 157.11,207.459997 157.11,208.08 C157.11,208.720003 156.915002,209.244998 156.525,209.655 C156.134998,210.065002 155.640003,210.27 155.04,210.27 C154.459997,210.27 153.975002,210.060002 153.585,209.64 C153.194998,209.219998 153,208.700003 153,208.08 C153,207.459997 153.194998,206.950002 153.585,206.55 C153.975002,206.149998 154.459997,205.95 155.04,205.95 Z M175.47,201.6 L175.47,205.05 L172.44,205.05 L172.44,210 L168.72,210 L168.72,205.05 L158.67,205.05 L158.67,202.08 L165.51,189 L169.38,189 L162.96,201.6 L168.72,201.6 L168.72,196.74 L172.44,196.74 L172.44,201.6 L175.47,201.6 Z M185.91,196.68 C187.490008,196.68 188.879994,196.949997 190.08,197.49 C191.280006,198.030003 192.204997,198.784995 192.855,199.755 C193.505003,200.725005 193.83,201.819994 193.83,203.04 C193.83,204.460007 193.490003,205.709995 192.81,206.79 C192.129997,207.870005 191.170006,208.704997 189.93,209.295 C188.689994,209.885003 187.250008,210.18 185.61,210.18 C184.289993,210.18 182.915007,209.955002 181.485,209.505 C180.054993,209.054998 178.790005,208.450004 177.69,207.69 L179.28,204.54 C180.180004,205.240004 181.139995,205.784998 182.16,206.175 C183.180005,206.565002 184.199995,206.76 185.22,206.76 C186.540007,206.76 187.584996,206.455003 188.355,205.845 C189.125004,205.234997 189.51,204.400005 189.51,203.34 C189.51,202.319995 189.130004,201.530003 188.37,200.97 C187.609996,200.409997 186.480007,200.13 184.98,200.13 C184.259996,200.13 183.310006,200.155 182.13,200.205 C180.949994,200.255 180.040003,200.31 179.4,200.37 L179.4,189 L192.9,189 L192.9,192.51 L183.12,192.51 L183.12,196.68 L185.91,196.68 Z M204.51,196.68 C206.090008,196.68 207.479994,196.949997 208.68,197.49 C209.880006,198.030003 210.804997,198.784995 211.455,199.755 C212.105003,200.725005 212.43,201.819994 212.43,203.04 C212.43,204.460007 212.090003,205.709995 211.41,206.79 C210.729997,207.870005 209.770006,208.704997 208.53,209.295 C207.289994,209.885003 205.850008,210.18 204.21,210.18 C202.889993,210.18 201.515007,209.955002 200.085,209.505 C198.654993,209.054998 197.390005,208.450004 196.29,207.69 L197.88,204.54 C198.780004,205.240004 199.739995,205.784998 200.76,206.175 C201.780005,206.565002 202.799995,206.76 203.82,206.76 C205.140007,206.76 206.184996,206.455003 206.955,205.845 C207.725004,205.234997 208.11,204.400005 208.11,203.34 C208.11,202.319995 207.730004,201.530003 206.97,200.97 C206.209996,200.409997 205.080007,200.13 203.58,200.13 C202.859996,200.13 201.910006,200.155 200.73,200.205 C199.549994,200.255 198.640003,200.31 198,200.37 L198,189 L211.5,189 L211.5,192.51 L201.72,192.51 L201.72,196.68 L204.51,196.68 Z M230.31,206.49 L230.31,210 L214.77,210 L214.77,207.09 L222.69,198.93 C223.450004,198.169996 224.059998,197.420004 224.52,196.68 C224.980002,195.939996 225.21,195.300003 225.21,194.76 C225.21,193.999996 224.910003,193.405002 224.31,192.975 C223.709997,192.544998 222.880005,192.33 221.82,192.33 C220.899995,192.33 219.920005,192.559998 218.88,193.02 C217.839995,193.480002 216.860005,194.119996 215.94,194.94 L214.35,191.85 C215.590006,190.889995 216.894993,190.145003 218.265,189.615 C219.635007,189.084997 221.009993,188.82 222.39,188.82 C223.770007,188.82 224.989995,189.039998 226.05,189.48 C227.110005,189.920002 227.934997,190.544996 228.525,191.355 C229.115003,192.165004 229.41,193.099995 229.41,194.16 C229.41,195.180005 229.060003,196.259994 228.36,197.4 C227.659996,198.540006 226.680006,199.769993 225.42,201.09 L220.08,206.49 L230.31,206.49 Z" id="02.365.4552" fill="#8D7047"></path>
                    <path d="M7.688,237.848 L10.664,237.848 L10.664,233.864 L11.832,233.864 L11.832,244.376 L10.664,244.376 L10.664,238.824 L7.688,238.824 L7.688,237.848 Z M8.488,241.224 L7.896,242.136 C6.296,241.56 5.032,240.344 4.408,238.856 C3.8,240.536 2.456,241.864 0.776,242.488 L0.152,241.56 C2.248,240.808 3.8,238.904 3.8,236.84 L3.8,236.024 L0.536,236.024 L0.536,235.048 L8.184,235.048 L8.184,236.024 L4.968,236.024 L4.968,236.824 C4.968,238.696 6.456,240.504 8.488,241.224 Z M3.912,246.872 L12.248,246.872 L12.248,247.848 L2.744,247.848 L2.744,243.432 L3.912,243.432 L3.912,246.872 Z M23.464,235.624 L23.464,236.584 L14.888,236.584 L14.888,235.624 L18.6,235.624 L18.6,233.864 L19.768,233.864 L19.768,235.624 L23.464,235.624 Z M16.936,240.104 C16.936,241.128 17.848,241.816 19.176,241.816 C20.536,241.816 21.432,241.128 21.432,240.104 C21.432,239.064 20.536,238.376 19.176,238.376 C17.848,238.376 16.936,239.064 16.936,240.104 Z M19.768,242.712 L19.768,244.296 C21.112,244.232 22.456,244.136 23.72,243.944 L23.8,244.808 C20.728,245.352 17.336,245.384 14.84,245.384 L14.648,244.392 C15.816,244.392 17.176,244.392 18.6,244.344 L18.6,242.712 C16.936,242.52 15.832,241.528 15.832,240.104 C15.832,238.504 17.192,237.448 19.176,237.448 C21.192,237.448 22.536,238.504 22.536,240.104 C22.536,241.544 21.448,242.52 19.768,242.712 Z M28.072,239.992 L28.072,240.968 L25.768,240.968 L25.768,248.168 L24.6,248.168 L24.6,233.864 L25.768,233.864 L25.768,239.992 L28.072,239.992 Z M30.776,240.76 L30.328,239.832 C32.728,239.48 35.352,237.832 35.352,235.88 L35.352,235.736 L30.776,235.736 L30.776,234.76 L41.208,234.76 L41.208,235.736 L36.664,235.736 L36.664,235.88 C36.664,237.832 39.288,239.48 41.672,239.832 L41.224,240.76 C39.08,240.376 36.856,239.176 35.992,237.416 C35.144,239.176 32.92,240.376 30.776,240.76 Z M42.472,242.04 L42.472,243.016 L36.568,243.016 L36.568,248.152 L35.4,248.152 L35.4,243.016 L29.544,243.016 L29.544,242.04 L42.472,242.04 Z M49.24,235.128 L49.24,237.784 C49.24,240.392 51.048,243.016 53.096,243.976 L52.408,244.904 C50.792,244.104 49.352,242.36 48.664,240.28 C48.024,242.472 46.568,244.296 44.92,245.16 L44.2,244.2 C46.264,243.224 48.088,240.488 48.088,237.784 L48.088,235.128 L49.24,235.128 Z M54.76,233.848 L55.928,233.848 L55.928,248.184 L54.76,248.184 L54.76,233.848 Z M64.984,240.792 L64.984,236.056 L60.792,236.056 L60.792,240.792 L64.984,240.792 Z M69.544,237.4 L66.12,237.4 L66.12,239.48 L69.544,239.48 L69.544,237.4 Z M66.12,240.456 L66.12,241.752 L59.64,241.752 L59.64,235.112 L66.12,235.112 L66.12,236.424 L69.544,236.424 L69.544,233.864 L70.712,233.864 L70.712,244.312 L69.544,244.312 L69.544,240.456 L66.12,240.456 Z M62.728,246.872 L71.064,246.872 L71.064,247.848 L61.56,247.848 L61.56,243.384 L62.728,243.384 L62.728,246.872 Z M78.6,238.296 C78.6,239.768 79.688,240.808 81.16,240.808 C82.616,240.808 83.704,239.768 83.704,238.296 C83.704,236.84 82.616,235.8 81.16,235.8 C79.688,235.8 78.6,236.84 78.6,238.296 Z M87.832,238.824 L84.792,238.824 C84.536,240.616 83.08,241.832 81.16,241.832 C79.048,241.832 77.496,240.36 77.496,238.296 C77.496,236.232 79.048,234.776 81.16,234.776 C83.112,234.776 84.584,236.008 84.792,237.848 L87.832,237.848 L87.832,233.864 L89,233.864 L89,244.408 L87.832,244.408 L87.832,238.824 Z M81.08,246.872 L89.416,246.872 L89.416,247.848 L79.912,247.848 L79.912,243.352 L81.08,243.352 L81.08,246.872 Z M96.12,236.536 L96.12,237.944 C96.12,240.456 97.256,242.936 99.208,244.072 L98.488,244.92 C97.08,244.072 96.056,242.504 95.56,240.632 C95.064,242.648 94.008,244.36 92.552,245.272 L91.816,244.408 C93.784,243.224 94.984,240.6 94.984,237.944 L94.984,236.536 L92.184,236.536 L92.184,235.56 L98.76,235.56 L98.76,236.536 L96.12,236.536 Z M100.12,239.032 L100.12,234.2 L101.224,234.2 L101.224,247.416 L100.12,247.416 L100.12,240.008 L97.656,240.008 L97.656,239.032 L100.12,239.032 Z M102.968,233.848 L104.088,233.848 L104.088,248.168 L102.968,248.168 L102.968,233.848 Z M108.456,235.256 L108.456,243.528 C110.552,243.528 112.712,243.368 115.08,242.888 L115.208,243.864 C112.776,244.36 110.584,244.52 108.408,244.52 L107.288,244.52 L107.288,235.256 L108.456,235.256 Z M120.008,239.608 L120.008,240.6 L117.656,240.6 L117.656,248.152 L116.488,248.152 L116.488,233.848 L117.656,233.848 L117.656,239.608 L120.008,239.608 Z M136.696,233.864 L136.696,244.456 L135.528,244.456 L135.528,233.864 L136.696,233.864 Z M133.768,241.496 L133.208,242.408 C131.528,241.864 130.2,240.696 129.544,239.192 C128.936,240.824 127.576,242.088 125.88,242.68 L125.32,241.768 C127.4,241.064 128.952,239.24 128.952,237.192 L128.952,236.76 L125.624,236.76 L125.624,235.8 L128.952,235.8 L128.952,233.912 L130.12,233.912 L130.12,235.8 L133.4,235.8 L133.4,236.76 L130.104,236.76 L130.104,237.192 C130.104,239.128 131.688,240.84 133.768,241.496 Z M128.712,246.872 L137.144,246.872 L137.144,247.848 L127.56,247.848 L127.56,243.464 L128.712,243.464 L128.712,246.872 Z M147.336,237.096 L150.264,237.096 L150.264,233.848 L151.432,233.848 L151.432,241.256 L150.264,241.256 L150.264,238.056 L147.336,238.056 L147.336,237.096 Z M148.072,240.136 L147.512,241.064 C145.896,240.52 144.616,239.368 143.992,237.96 C143.384,239.528 142.04,240.808 140.376,241.4 L139.784,240.472 C141.848,239.768 143.4,237.96 143.4,236.072 L143.4,235.592 L140.168,235.592 L140.168,234.616 L147.8,234.616 L147.8,235.592 L144.568,235.592 L144.568,236.088 C144.568,237.816 146.056,239.496 148.072,240.136 Z M143.448,247.048 L152.008,247.048 L152.008,248.008 L142.312,248.008 L142.312,244.456 L150.296,244.456 L150.296,242.952 L142.264,242.952 L142.264,242.008 L151.432,242.008 L151.432,245.368 L143.448,245.368 L143.448,247.048 Z M159.064,243.944 C160.456,243.944 161.48,242.984 161.48,241.656 C161.48,240.328 160.456,239.368 159.064,239.368 C157.688,239.368 156.68,240.328 156.68,241.656 C156.68,242.984 157.688,243.944 159.064,243.944 Z M159.064,238.392 C161.128,238.392 162.584,239.736 162.584,241.656 C162.584,243.592 161.128,244.92 159.064,244.92 C157.032,244.92 155.576,243.592 155.576,241.656 C155.576,239.736 157.032,238.392 159.064,238.392 Z M159.624,233.976 L159.624,236.184 L163.352,236.184 L163.352,237.16 L154.76,237.16 L154.76,236.184 L158.456,236.184 L158.456,233.976 L159.624,233.976 Z M164.936,233.848 L166.104,233.848 L166.104,248.168 L164.936,248.168 L164.936,233.848 Z M180.952,240.664 L180.328,241.592 C178.76,240.984 177.496,239.784 176.872,238.248 C176.28,239.992 174.968,241.32 173.288,241.992 L172.68,241.048 C174.792,240.264 176.264,238.328 176.264,236.088 L176.264,234.584 L177.432,234.584 L177.432,236.168 C177.432,238.12 178.936,239.96 180.952,240.664 Z M179.256,247.208 C181.432,247.208 182.776,246.6 182.776,245.56 C182.776,244.536 181.432,243.928 179.256,243.928 C177.08,243.928 175.72,244.536 175.72,245.56 C175.72,246.6 177.08,247.208 179.256,247.208 Z M179.256,242.984 C182.168,242.984 183.928,243.928 183.928,245.56 C183.928,247.192 182.168,248.136 179.256,248.136 C176.344,248.136 174.568,247.192 174.568,245.56 C174.568,243.928 176.344,242.984 179.256,242.984 Z M183.784,237.624 L185.928,237.624 L185.928,238.6 L183.784,238.6 L183.784,242.568 L182.616,242.568 L182.616,233.864 L183.784,233.864 L183.784,237.624 Z M195.752,239.656 L195.896,240.616 C193.88,241 192.168,241.112 189.208,241.112 L188.12,241.112 L188.12,234.824 L194.408,234.824 L194.408,235.784 L189.272,235.784 L189.272,240.136 C192.152,240.136 193.816,240.04 195.752,239.656 Z M190.712,243.704 L190.712,247 L197.352,247 L197.352,243.704 L190.712,243.704 Z M189.576,247.96 L189.576,242.744 L198.504,242.744 L198.504,247.96 L189.576,247.96 Z M200.648,237.4 L200.648,238.376 L198.504,238.376 L198.504,241.944 L197.336,241.944 L197.336,233.848 L198.504,233.848 L198.504,237.4 L200.648,237.4 Z M205.704,243.816 C206.888,243.816 207.736,242.888 207.736,241.576 C207.736,240.28 206.888,239.32 205.704,239.32 C204.552,239.32 203.704,240.28 203.704,241.576 C203.704,242.888 204.552,243.816 205.704,243.816 Z M205.704,238.328 C207.496,238.328 208.776,239.656 208.776,241.576 C208.776,243.496 207.496,244.808 205.704,244.808 C203.928,244.808 202.664,243.496 202.664,241.576 C202.664,239.656 203.928,238.328 205.704,238.328 Z M206.28,234.264 L206.28,236.36 L209.288,236.36 L209.288,237.336 L202.136,237.336 L202.136,236.36 L205.128,236.36 L205.128,234.264 L206.28,234.264 Z M213.112,233.848 L214.232,233.848 L214.232,248.152 L213.112,248.152 L213.112,240.904 L211.144,240.904 L211.144,247.448 L210.04,247.448 L210.04,234.2 L211.144,234.2 L211.144,239.928 L213.112,239.928 L213.112,233.848 Z M231.896,240.776 L231.896,241.736 L222.104,241.736 L222.104,235.192 L231.736,235.192 L231.736,236.168 L223.272,236.168 L223.272,240.776 L231.896,240.776 Z M220.424,245.208 L233.416,245.208 L233.416,246.184 L220.424,246.184 L220.424,245.208 Z M243.864,239.944 L243.992,240.92 C241.592,241.304 239.64,241.384 237.048,241.384 L235.912,241.384 L235.912,237.432 L241.192,237.432 L241.192,235.528 L235.864,235.528 L235.864,234.568 L242.344,234.568 L242.344,238.36 L237.048,238.36 L237.048,240.408 C239.592,240.408 241.528,240.328 243.864,239.944 Z M245.72,247 L245.72,245.16 L238.808,245.16 L238.808,247 L245.72,247 Z M245.72,244.216 L245.72,242.424 L246.872,242.424 L246.872,247.976 L237.656,247.976 L237.656,242.424 L238.808,242.424 L238.808,244.216 L245.72,244.216 Z M245.704,233.864 L246.872,233.864 L246.872,241.688 L245.704,241.688 L245.704,233.864 Z M251.976,235.256 L251.976,243.432 C254.184,243.432 256.424,243.256 258.856,242.76 L258.984,243.752 C256.504,244.28 254.248,244.44 251.976,244.44 L250.808,244.44 L250.808,235.256 L251.976,235.256 Z M260.392,233.864 L261.56,233.864 L261.56,248.152 L260.392,248.152 L260.392,233.864 Z M266.392,236.216 L266.392,243.592 C269.048,243.592 270.872,243.496 273,243.096 L273.128,244.104 C270.92,244.504 269.064,244.6 266.328,244.6 L265.224,244.6 L265.224,235.24 L271.864,235.24 L271.864,236.216 L266.392,236.216 Z M277.96,239.56 L277.96,240.536 L275.56,240.536 L275.56,248.184 L274.392,248.184 L274.392,233.848 L275.56,233.848 L275.56,239.56 L277.96,239.56 Z M280.6,247.208 C280.072,247.208 279.624,246.792 279.624,246.184 C279.624,245.544 280.072,245.128 280.6,245.128 C281.144,245.128 281.592,245.544 281.592,246.184 C281.592,246.792 281.144,247.208 280.6,247.208 Z M17.816,259.272 L24.344,259.272 L24.344,268.52 L17.816,268.52 L17.816,259.272 Z M23.192,260.232 L18.952,260.232 L18.952,267.576 L23.192,267.576 L23.192,260.232 Z M27.48,257.848 L28.648,257.848 L28.648,272.184 L27.48,272.184 L27.48,257.848 Z M33.72,264.232 L33.72,267.72 C36.088,267.72 38.232,267.608 40.824,267.192 L40.936,268.184 C38.296,268.584 36.136,268.696 33.72,268.696 L32.536,268.696 L32.536,263.272 L37.912,263.272 L37.912,260.168 L32.504,260.168 L32.504,259.192 L39.08,259.192 L39.08,264.232 L33.72,264.232 Z M42.232,257.832 L43.4,257.832 L43.4,272.168 L42.232,272.168 L42.232,257.832 Z M56.088,265.704 L58.2,265.704 L58.2,262.328 L56.088,262.328 C56.184,262.84 56.232,263.4 56.232,264.008 C56.232,264.632 56.184,265.192 56.088,265.704 Z M53.192,267.896 C54.392,267.896 55.176,266.376 55.176,264.008 C55.176,261.672 54.392,260.168 53.192,260.168 C52.008,260.168 51.224,261.672 51.224,264.008 C51.224,266.376 52.008,267.896 53.192,267.896 Z M58.2,261.352 L58.2,258.184 L59.304,258.184 L59.304,271.448 L58.2,271.448 L58.2,266.68 L55.848,266.68 C55.352,268.12 54.424,268.968 53.192,268.968 C51.368,268.968 50.168,267.064 50.168,264.008 C50.168,260.984 51.368,259.096 53.192,259.096 C54.408,259.096 55.352,259.928 55.848,261.352 L58.2,261.352 Z M60.984,257.864 L62.104,257.864 L62.104,272.168 L60.984,272.168 L60.984,257.864 Z M66.136,262.088 C66.136,263.464 67.208,264.456 68.696,264.456 C70.184,264.456 71.272,263.464 71.272,262.088 C71.272,260.696 70.184,259.72 68.696,259.72 C67.208,259.72 66.136,260.696 66.136,262.088 Z M72.408,262.088 C72.408,264.072 70.856,265.448 68.696,265.448 C66.552,265.448 65,264.072 65,262.088 C65,260.088 66.552,258.728 68.696,258.728 C70.856,258.728 72.408,260.088 72.408,262.088 Z M66.52,268.024 L66.52,267.064 L75.768,267.064 L75.768,272.168 L74.6,272.168 L74.6,268.024 L66.52,268.024 Z M77.896,261.08 L75.768,261.08 L75.768,263.144 L77.896,263.144 L77.896,264.12 L75.768,264.12 L75.768,266.36 L74.6,266.36 L74.6,257.864 L75.768,257.864 L75.768,260.104 L77.896,260.104 L77.896,261.08 Z M83.624,267.944 C85,267.944 85.992,266.984 85.992,265.656 C85.992,264.328 85,263.368 83.624,263.368 C82.28,263.368 81.288,264.328 81.288,265.656 C81.288,266.984 82.28,267.944 83.624,267.944 Z M83.624,262.392 C85.656,262.392 87.096,263.736 87.096,265.656 C87.096,267.592 85.656,268.92 83.624,268.92 C81.64,268.92 80.184,267.592 80.184,265.656 C80.184,263.736 81.64,262.392 83.624,262.392 Z M84.2,258.008 L84.2,260.168 L87.8,260.168 L87.8,261.128 L79.336,261.128 L79.336,260.168 L83.032,260.168 L83.032,258.008 L84.2,258.008 Z M92.776,263.8 L92.776,264.776 L90.376,264.776 L90.376,272.168 L89.208,272.168 L89.208,257.848 L90.376,257.848 L90.376,263.8 L92.776,263.8 Z M99.128,259.128 L99.128,261.784 C99.128,264.392 100.936,267.016 102.984,267.976 L102.296,268.904 C100.68,268.104 99.24,266.36 98.552,264.28 C97.912,266.472 96.456,268.296 94.808,269.16 L94.088,268.2 C96.152,267.224 97.976,264.488 97.976,261.784 L97.976,259.128 L99.128,259.128 Z M104.648,257.848 L105.816,257.848 L105.816,272.184 L104.648,272.184 L104.648,257.848 Z M114.872,264.792 L114.872,260.056 L110.68,260.056 L110.68,264.792 L114.872,264.792 Z M119.432,261.4 L116.008,261.4 L116.008,263.48 L119.432,263.48 L119.432,261.4 Z M116.008,264.456 L116.008,265.752 L109.528,265.752 L109.528,259.112 L116.008,259.112 L116.008,260.424 L119.432,260.424 L119.432,257.864 L120.6,257.864 L120.6,268.312 L119.432,268.312 L119.432,264.456 L116.008,264.456 Z M112.616,270.872 L120.952,270.872 L120.952,271.848 L111.448,271.848 L111.448,267.384 L112.616,267.384 L112.616,270.872 Z M137.72,268.52 L137.72,264.28 L135.208,264.28 L135.208,263.304 L137.72,263.304 L137.72,261.576 L135.208,261.576 L135.208,260.6 L137.72,260.6 L137.72,257.848 L138.888,257.848 L138.888,268.52 L137.72,268.52 Z M130.2,259.992 L130.2,265.256 C130.952,265.24 131.736,265.224 132.504,265.176 L132.504,259.992 L130.2,259.992 Z M135.608,264.936 L135.688,265.8 C132.92,266.232 129.656,266.28 127.336,266.28 L127.208,265.288 C127.768,265.288 128.408,265.288 129.064,265.272 L129.064,259.992 L127.592,259.992 L127.592,259.032 L135.112,259.032 L135.112,259.992 L133.64,259.992 L133.64,265.112 C134.312,265.064 134.984,265.016 135.608,264.936 Z M130.952,270.872 L139.272,270.872 L139.272,271.848 L129.784,271.848 L129.784,267.624 L130.952,267.624 L130.952,270.872 Z M146.072,267.944 C147.448,267.944 148.44,266.984 148.44,265.656 C148.44,264.328 147.448,263.368 146.072,263.368 C144.728,263.368 143.736,264.328 143.736,265.656 C143.736,266.984 144.728,267.944 146.072,267.944 Z M146.072,262.392 C148.104,262.392 149.544,263.736 149.544,265.656 C149.544,267.592 148.104,268.92 146.072,268.92 C144.088,268.92 142.632,267.592 142.632,265.656 C142.632,263.736 144.088,262.392 146.072,262.392 Z M146.648,258.008 L146.648,260.168 L150.248,260.168 L150.248,261.128 L141.784,261.128 L141.784,260.168 L145.48,260.168 L145.48,258.008 L146.648,258.008 Z M155.224,263.8 L155.224,264.776 L152.824,264.776 L152.824,272.168 L151.656,272.168 L151.656,257.848 L152.824,257.848 L152.824,263.8 L155.224,263.8 Z M168.296,257.864 L168.296,268.36 L167.128,268.36 L167.128,257.864 L168.296,257.864 Z M165.176,265.08 L164.552,266.008 C162.936,265.352 161.624,264.04 160.984,262.36 C160.376,264.136 159.064,265.592 157.4,266.28 L156.76,265.336 C158.872,264.504 160.392,262.408 160.392,260.12 L160.392,258.648 L161.544,258.648 L161.544,260.12 C161.544,262.328 163.08,264.296 165.176,265.08 Z M160.312,270.872 L168.744,270.872 L168.744,271.848 L159.16,271.848 L159.16,267.4 L160.312,267.4 L160.312,270.872 Z M179.864,259.128 L179.864,261.784 C179.864,264.392 181.672,267.016 183.72,267.976 L183.032,268.904 C181.416,268.104 179.976,266.36 179.288,264.28 C178.648,266.472 177.192,268.296 175.544,269.16 L174.824,268.2 C176.888,267.224 178.712,264.488 178.712,261.784 L178.712,259.128 L179.864,259.128 Z M185.384,257.848 L186.552,257.848 L186.552,272.184 L185.384,272.184 L185.384,257.848 Z M190.216,258.968 L196.84,258.968 C196.84,262.632 194.2,265.352 190.12,266.664 L189.64,265.72 C193.064,264.632 195.336,262.536 195.592,259.928 L190.216,259.928 L190.216,258.968 Z M192.968,267.288 L192.968,270.872 L201.32,270.872 L201.32,271.848 L191.816,271.848 L191.816,267.288 L192.968,267.288 Z M200.664,262.264 L202.808,262.264 L202.808,263.24 L200.664,263.24 L200.664,268.344 L199.496,268.344 L199.496,257.848 L200.664,257.848 L200.664,262.264 Z M207.528,267.896 C208.728,267.896 209.496,266.376 209.496,264.008 C209.496,261.688 208.728,260.168 207.528,260.168 C206.344,260.168 205.576,261.688 205.576,264.008 C205.576,266.376 206.344,267.896 207.528,267.896 Z M212.52,263.464 L212.52,258.184 L213.624,258.184 L213.624,271.448 L212.52,271.448 L212.52,264.44 L210.552,264.44 C210.44,267.24 209.288,268.968 207.528,268.968 C205.704,268.968 204.504,267.064 204.504,264.008 C204.504,261 205.704,259.096 207.528,259.096 C209.272,259.096 210.408,260.76 210.552,263.464 L212.52,263.464 Z M215.32,257.864 L216.44,257.864 L216.44,272.168 L215.32,272.168 L215.32,257.864 Z M234.312,257.864 L234.312,268.36 L233.144,268.36 L233.144,257.864 L234.312,257.864 Z M231.336,265.336 L230.744,266.264 C229.08,265.688 227.736,264.472 227.096,262.936 C226.488,264.6 225.128,265.912 223.432,266.536 L222.824,265.624 C224.936,264.872 226.488,263 226.488,260.936 L226.488,260.024 L223.128,260.024 L223.128,259.064 L231,259.064 L231,260.024 L227.672,260.024 L227.672,260.936 C227.672,262.904 229.256,264.648 231.336,265.336 Z M226.328,270.872 L234.76,270.872 L234.76,271.848 L225.176,271.848 L225.176,267.368 L226.328,267.368 L226.328,270.872 Z M242.152,266.584 L242.152,269.384 L245.576,269.384 L245.576,266.584 L242.152,266.584 Z M246.728,269.384 L250.296,269.384 L250.296,270.36 L237.32,270.36 L237.32,269.384 L241.016,269.384 L241.016,266.584 L238.968,266.584 L238.968,262.232 L247.512,262.232 L247.512,259.912 L238.936,259.912 L238.936,258.936 L248.648,258.936 L248.648,263.192 L240.12,263.192 L240.12,265.608 L248.984,265.608 L248.984,266.584 L246.728,266.584 L246.728,269.384 Z M252.824,259.4 L259.336,259.4 C259.336,263.432 257.416,267.112 252.824,269.416 L252.168,268.488 C255.88,266.632 257.896,263.8 258.168,260.376 L252.824,260.376 L252.824,259.4 Z M265.352,263.72 L265.352,264.696 L263,264.696 L263,272.152 L261.832,272.152 L261.832,257.848 L263,257.848 L263,263.72 L265.352,263.72 Z M103.688,283.4 L110.2,283.4 C110.2,287.432 108.28,291.112 103.688,293.416 L103.032,292.488 C106.744,290.632 108.76,287.8 109.032,284.376 L103.688,284.376 L103.688,283.4 Z M116.216,287.72 L116.216,288.696 L113.864,288.696 L113.864,296.152 L112.696,296.152 L112.696,281.848 L113.864,281.848 L113.864,287.72 L116.216,287.72 Z M129.096,285.912 L129.096,286.872 L119.4,286.872 L119.4,282.152 L120.568,282.152 L120.568,285.912 L129.096,285.912 Z M124.088,295.176 C126.392,295.176 127.8,294.568 127.8,293.512 C127.8,292.456 126.408,291.848 124.088,291.848 C121.784,291.848 120.376,292.456 120.376,293.512 C120.376,294.568 121.784,295.176 124.088,295.176 Z M124.088,290.92 C127.144,290.92 128.984,291.864 128.984,293.512 C128.984,295.16 127.144,296.104 124.088,296.104 C121.032,296.104 119.208,295.16 119.208,293.512 C119.208,291.864 121.032,290.92 124.088,290.92 Z M117.64,288.616 L130.568,288.616 L130.568,289.576 L117.64,289.576 L117.64,288.616 Z M140.856,283.368 L140.856,284.328 L132.408,284.328 L132.408,283.368 L136.04,283.368 L136.04,281.704 L137.208,281.704 L137.208,283.368 L140.856,283.368 Z M134.312,287.528 C134.312,288.52 135.24,289.144 136.616,289.144 C137.992,289.144 138.92,288.52 138.92,287.528 C138.92,286.568 137.992,285.928 136.616,285.928 C135.24,285.928 134.312,286.568 134.312,287.528 Z M140.024,287.528 C140.024,289.064 138.664,290.056 136.616,290.056 C134.568,290.056 133.208,289.064 133.208,287.528 C133.208,286.008 134.568,285.032 136.616,285.032 C138.664,285.032 140.024,286.008 140.024,287.528 Z M142.264,295 L142.264,293.32 L135.64,293.32 L135.64,295 L142.264,295 Z M142.264,292.392 L142.264,290.792 L143.416,290.792 L143.416,295.96 L134.472,295.96 L134.472,290.792 L135.64,290.792 L135.64,292.392 L142.264,292.392 Z M145.56,285.544 L145.56,286.52 L143.416,286.52 L143.416,290.152 L142.248,290.152 L142.248,281.864 L143.416,281.864 L143.416,285.544 L145.56,285.544 Z M149.16,283.256 L149.16,291.432 C151.368,291.432 153.608,291.256 156.04,290.76 L156.168,291.752 C153.688,292.28 151.432,292.44 149.16,292.44 L147.992,292.44 L147.992,283.256 L149.16,283.256 Z M157.576,281.864 L158.744,281.864 L158.744,296.152 L157.576,296.152 L157.576,281.864 Z M163.576,284.216 L163.576,291.592 C166.232,291.592 168.056,291.496 170.184,291.096 L170.312,292.104 C168.104,292.504 166.248,292.6 163.512,292.6 L162.408,292.6 L162.408,283.24 L169.048,283.24 L169.048,284.216 L163.576,284.216 Z M175.144,287.56 L175.144,288.536 L172.744,288.536 L172.744,296.184 L171.576,296.184 L171.576,281.848 L172.744,281.848 L172.744,287.56 L175.144,287.56 Z M177.784,295.208 C177.256,295.208 176.808,294.792 176.808,294.184 C176.808,293.544 177.256,293.128 177.784,293.128 C178.328,293.128 178.776,293.544 178.776,294.184 C178.776,294.792 178.328,295.208 177.784,295.208 Z" id="전화주시면-언제나-친절히-상담해-드립" fill="#555555"></path>
                    <path d="M39.3589285,154.45 C39.3589285,156.9 41.2089285,158.75 43.7089285,158.75 C46.2089285,158.75 48.0589285,156.9 48.0589285,154.45 C48.0589285,152.05 46.2089285,150.2 43.7089285,150.2 C41.2089285,150.2 39.3589285,152.05 39.3589285,154.45 Z M54.4589285,152.35 L48.9589285,152.35 C49.1839285,152.975 49.3339285,153.7 49.3339285,154.45 C49.3339285,155.2 49.2089285,155.9 48.9839285,156.525 L54.4589285,156.525 L54.4589285,152.35 Z M54.4589285,157.65 L48.3839285,157.65 C47.3839285,159.05 45.7089285,159.9 43.7089285,159.9 C40.4589285,159.9 38.0839285,157.675 38.0839285,154.45 C38.0839285,151.25 40.4589285,149.025 43.7089285,149.025 C45.6839285,149.025 47.3339285,149.875 48.3589285,151.225 L54.4589285,151.225 L54.4589285,147.55 L55.7839285,147.55 L55.7839285,164.05 L54.4589285,164.05 L54.4589285,157.65 Z M43.2339285,168.075 L56.4589285,168.075 L56.4589285,169.2 L41.9089285,169.2 L41.9089285,162.325 L43.2339285,162.325 L43.2339285,168.075 Z M66.7196428,149.725 L66.7196428,154.25 C66.7196428,157.75 68.8446428,161.575 71.7196428,163.25 L70.8696428,164.275 C68.6946428,162.95 66.9196428,160.35 66.1196428,157.475 C65.3196428,160.625 63.4696428,163.35 61.1946428,164.75 L60.3196428,163.75 C63.2446428,162.075 65.4696428,158.1 65.4696428,154.275 L65.4696428,149.725 L66.7196428,149.725 Z M73.4196428,155.8 L73.4196428,148.1 L74.6946428,148.1 L74.6946428,168.575 L73.4196428,168.575 L73.4196428,156.925 L69.2446428,156.925 L69.2446428,155.8 L73.4196428,155.8 Z M77.9696428,147.55 L79.2446428,147.55 L79.2446428,169.75 L77.9696428,169.75 L77.9696428,147.55 Z M90.3553571,151.05 L90.3553571,154.775 C90.3553571,158.4 93.3303571,162.375 96.2553571,163.8 L95.4803571,164.875 C93.0803571,163.6 90.6803571,160.8 89.7053571,157.675 C88.7303571,161.05 86.2053571,164.1 83.8053571,165.425 L82.9803571,164.325 C85.8553571,162.875 89.0553571,158.625 89.0553571,154.775 L89.0553571,151.05 L83.7303571,151.05 L83.7303571,149.9 L95.5803571,149.9 L95.5803571,151.05 L90.3553571,151.05 Z M104.055357,156.8 L104.055357,157.925 L100.155357,157.925 L100.155357,169.75 L98.8303571,169.75 L98.8303571,147.55 L100.155357,147.55 L100.155357,156.8 L104.055357,156.8 Z M107.716071,154.45 C107.716071,156.9 109.566071,158.75 112.066071,158.75 C114.566071,158.75 116.416071,156.9 116.416071,154.45 C116.416071,152.05 114.566071,150.2 112.066071,150.2 C109.566071,150.2 107.716071,152.05 107.716071,154.45 Z M122.816071,152.35 L117.316071,152.35 C117.541071,152.975 117.691071,153.7 117.691071,154.45 C117.691071,155.2 117.566071,155.9 117.341071,156.525 L122.816071,156.525 L122.816071,152.35 Z M122.816071,157.65 L116.741071,157.65 C115.741071,159.05 114.066071,159.9 112.066071,159.9 C108.816071,159.9 106.441071,157.675 106.441071,154.45 C106.441071,151.25 108.816071,149.025 112.066071,149.025 C114.041071,149.025 115.691071,149.875 116.716071,151.225 L122.816071,151.225 L122.816071,147.55 L124.141071,147.55 L124.141071,164.05 L122.816071,164.05 L122.816071,157.65 Z M111.591071,168.075 L124.816071,168.075 L124.816071,169.2 L110.266071,169.2 L110.266071,162.325 L111.591071,162.325 L111.591071,168.075 Z M130.201786,149.825 L140.151786,149.825 L140.151786,163.975 L130.201786,163.975 L130.201786,149.825 Z M138.851786,150.925 L131.501786,150.925 L131.501786,162.875 L138.851786,162.875 L138.851786,150.925 Z M145.526786,147.55 L146.851786,147.55 L146.851786,169.75 L145.526786,169.75 L145.526786,147.55 Z M174.573214,162.325 L171.273214,161.95 C172.148214,157.6 172.198214,154.4 172.198214,151.725 L158.773214,151.725 L158.773214,149.1 L175.498214,149.1 L175.498214,151.3 C175.498214,154.175 175.498214,157.425 174.573214,162.325 Z M167.323214,164.725 L177.498214,164.725 L177.498214,167.375 L156.673214,167.375 L156.673214,164.725 L164.023214,164.725 L164.023214,156.8 L167.323214,156.8 L167.323214,164.725 Z M180.283929,148.725 L189.408929,148.725 C189.408929,154.55 186.708929,158.425 180.708929,160.75 L179.183929,158.35 C183.483929,156.775 185.533929,154.45 185.983929,151.35 L180.283929,151.35 L180.283929,148.725 Z M183.108929,164.175 L183.108929,161.525 L199.058929,161.525 L199.058929,170.175 L195.758929,170.175 L195.758929,164.175 L183.108929,164.175 Z M195.933929,147.125 L199.058929,147.125 L199.058929,160.575 L195.933929,160.575 L195.933929,155.1 L193.958929,155.1 L193.958929,160.5 L190.883929,160.5 L190.883929,147.525 L193.958929,147.525 L193.958929,152.45 L195.933929,152.45 L195.933929,147.125 Z M221.844643,147.125 L221.844643,164.35 L218.719643,164.35 L218.719643,147.125 L221.844643,147.125 Z M214.119643,163.675 L214.119643,155.05 L211.394643,155.05 L211.394643,152.375 L214.119643,152.375 L214.119643,147.525 L217.194643,147.525 L217.194643,163.675 L214.119643,163.675 Z M213.444643,158.325 L211.644643,160.85 C209.844643,160 208.644643,158.575 207.919643,156.85 C207.094643,158.8 205.744643,160.45 203.719643,161.4 L201.919643,158.9 C205.069643,157.35 206.269643,154.375 206.269643,151.625 L206.269643,148.675 L209.469643,148.675 L209.469643,151.625 C209.469643,154.325 210.569643,156.925 213.444643,158.325 Z M209.644643,167.125 L222.419643,167.125 L222.419643,169.75 L206.344643,169.75 L206.344643,162.35 L209.644643,162.35 L209.644643,167.125 Z M229.330357,158.025 L229.330357,162.325 C232.430357,162.3 234.955357,162.175 237.780357,161.725 L238.080357,164.375 C234.755357,164.9 231.805357,164.975 227.930357,164.975 L226.055357,164.975 L226.055357,149.05 L236.705357,149.05 L236.705357,151.7 L229.330357,151.7 L229.330357,155.45 L235.930357,155.45 L235.930357,158.025 L229.330357,158.025 Z M241.030357,147.1 L244.330357,147.1 L244.330357,170.2 L241.030357,170.2 L241.030357,157.875 L237.080357,157.875 L237.080357,155.225 L241.030357,155.225 L241.030357,147.1 Z" id="연세자연미-고객센터" fill="#39322D"></path>
                </g>
            </g>
        </g>
    </g>
</svg>