<?xml version="1.0" encoding="UTF-8"?>
<svg width="143px" height="116px" viewBox="0 0 143 116" version="1.1" xmlns="http://www.w3.org/2000/svg" xmlns:xlink="http://www.w3.org/1999/xlink">
    <!-- Generator: Sketch 52.5 (67469) - http://www.bohemiancoding.com/sketch -->
    <title>Group 10</title>
    <desc>Created with Sketch.</desc>
    <defs>
        <path d="M29.99625,15.9375 C29.09125,15.9375 28.35625,15.2025 28.35625,14.2975 C28.35625,13.39 29.09125,12.6575 29.99625,12.6575 C30.90125,12.6575 31.63625,13.39 31.63625,14.2975 C31.63625,15.2025 30.90125,15.9375 29.99625,15.9375 Z M47.41325,46.4845 C48.10325,46.4845 48.66325,47.0445 48.66325,47.7345 C48.66325,48.4245 48.10325,48.9845 47.41325,48.9845 L45.81075,48.9845 L45.81075,50.587 C45.81075,51.277 45.25325,51.837 44.56075,51.837 C43.87075,51.837 43.31075,51.277 43.31075,50.587 L43.31075,48.9845 L41.71075,48.9845 C41.01825,48.9845 40.46075,48.4245 40.46075,47.7345 C40.46075,47.0445 41.01825,46.4845 41.71075,46.4845 L43.31075,46.4845 L43.31075,44.882 C43.31075,44.192 43.87075,43.632 44.56075,43.632 C45.25325,43.632 45.81075,44.192 45.81075,44.882 L45.81075,46.4845 L47.41325,46.4845 Z M52.5695,55 L36.1645,55 L36.1645,43.4375 C36.1645,43.345 36.1545,43.255 36.1345,43.1675 L35.587,40.7 L37.402,42.025 C37.622,42.1875 37.882,42.265 38.137,42.265 C38.507,42.265 38.872,42.1025 39.117,41.7925 L41.7995,38.4175 C43.647,39.1025 45.857,39.9475 48.032,40.8425 C52.447,42.66 52.567,46.0075 52.5695,46.1375 L52.5695,55 Z M7.4995,46.1375 C7.4995,46.1025 7.552,42.69 12.0395,40.8425 C14.192,39.955 16.382,39.1175 18.2195,38.4375 L20.8895,41.7925 C21.1345,42.1025 21.4995,42.265 21.867,42.265 C22.122,42.265 22.382,42.1875 22.6045,42.025 L24.497,40.645 L23.9345,43.1675 C23.917,43.255 23.907,43.345 23.907,43.4375 L23.907,55 L7.4995,55 L7.4995,46.1375 Z M28.2145,33.85 C28.422,33.9875 28.6645,34.0625 28.9145,34.0625 L31.022,34.0625 C31.272,34.0625 31.517,33.9875 31.7245,33.8475 L35.3045,31.42 L35.3045,35.2725 C35.3045,35.35 35.332,35.415 35.347,35.485 L33.072,36.7125 C32.592,36.97 32.352,37.5075 32.447,38.0375 L32.4095,38.035 C32.287,38.2325 31.4195,38.7125 29.997,38.7125 C28.5745,38.7125 27.7045,38.235 27.612,38.165 L27.6095,38.165 L27.627,38.0825 C27.747,37.5375 27.492,36.9775 26.997,36.7125 L24.1345,35.17 L24.1345,31.0975 L28.2145,33.85 Z M30.0295,7.5 C33.482,7.5 36.447,9.3225 37.9395,11.9525 L35.182,11.9525 C34.2845,9.9775 32.3045,8.595 29.997,8.595 C27.6895,8.595 25.707,9.9775 24.8095,11.9525 L22.122,11.9525 C23.612,9.3225 26.5795,7.5 30.0295,7.5 Z M36.1445,15.3125 L38.507,15.3125 L38.507,14.4525 L36.1445,14.4525 L36.1445,15.3125 Z M29.997,11.095 C31.762,11.095 33.1995,12.53 33.1995,14.2975 C33.1995,16.0625 31.762,17.5 29.997,17.5 C28.2295,17.5 26.792,16.0625 26.792,14.2975 C26.792,12.53 28.2295,11.095 29.997,11.095 Z M23.157,27.4275 L21.357,17.8125 L25.5395,17.8125 C26.5845,19.135 28.1845,20 29.997,20 C31.8445,20 33.472,19.1025 34.5145,17.7375 C34.637,17.775 34.7595,17.8125 34.8945,17.8125 L38.6895,17.8125 L36.4445,27.6275 L30.6395,31.5625 L29.2945,31.5625 L23.157,27.4275 Z M21.4745,15.3125 L24.292,15.3125 L24.292,14.4525 L21.4745,14.4525 L21.4745,15.3125 Z M26.407,43.575 L27.0595,40.64 C27.862,41 28.862,41.2125 29.997,41.2125 C31.1645,41.2125 32.1895,40.985 33.002,40.605 L33.6645,43.575 L33.6645,55 L26.407,55 L26.407,43.575 Z M22.2345,36.985 L23.9795,37.925 L22.0995,39.3 L20.692,37.5325 C21.347,37.2975 21.8795,37.11 22.2345,36.985 Z M39.327,37.515 L37.907,39.3 L36.052,37.945 L37.8345,36.985 C38.1795,37.1075 38.6995,37.29 39.327,37.515 Z M48.982,38.5325 C43.697,36.355 38.187,34.4625 38.132,34.4425 C38.0245,34.405 37.9145,34.4075 37.8045,34.4025 L37.8045,29.805 C37.8045,29.78 37.792,29.76 37.7895,29.7375 L38.2545,29.4225 C38.5145,29.2425 38.702,28.9725 38.7695,28.665 L39.2445,26.5925 C40.447,26.3125 41.592,25.25 42.157,23.6475 C42.867,21.615 42.352,19.63 41.007,18.8725 L41.222,17.9325 C41.3895,17.185 41.477,16.4375 41.477,15.705 C41.477,9.8025 36.342,5 30.0295,5 C24.862,5 20.532,8.2425 19.117,12.6525 C19.0795,12.725 19.062,12.8025 19.0395,12.8825 C18.772,13.7875 18.5845,14.7225 18.5845,15.705 C18.5845,16.0625 18.6245,16.4075 18.6895,16.8475 C18.6745,16.9725 18.677,17.1 18.702,17.2275 L18.9745,18.6775 C18.9595,18.6825 18.9445,18.68 18.9295,18.685 C17.3045,19.255 16.6345,21.435 17.412,23.65 C17.9945,25.3125 19.207,26.4025 20.462,26.62 L20.797,28.4025 C20.857,28.73 21.0495,29.02 21.327,29.2075 L21.642,29.42 C21.6395,29.43 21.6345,29.44 21.6345,29.4525 L21.6345,34.5475 C20.4245,34.97 15.677,36.6425 11.087,38.5325 C5.0695,41.01 4.9995,45.93 4.9995,46.1375 L4.9995,56.25 C4.9995,56.94 5.5595,57.5 6.2495,57.5 L25.157,57.5 L34.9145,57.5 C34.9545,57.5 34.987,57.48 35.0245,57.4775 C35.067,57.48 35.107,57.5 35.147,57.5 L53.8195,57.5 C54.5095,57.5 55.0695,56.94 55.0695,56.25 L55.0695,46.1375 C55.0695,45.93 54.9995,41.01 48.982,38.5325 Z" id="path-1"></path>
    </defs>
    <g id="Page-1" stroke="none" stroke-width="1" fill="none" fill-rule="evenodd">
        <g id="main" transform="translate(-89.000000, -2787.000000)">
            <g id="Group-10" transform="translate(88.000000, 2782.000000)">
                <text id="NEWS-&amp;-NOTICE" font-family="Helvetica" font-size="18" font-weight="normal" fill="#544A43">
                    <tspan x="0" y="120">NEWS &amp; NOTICE</tspan>
                </text>
                <text id="병원소식" font-family="NotoSansCJKkr-Bold, Noto Sans CJK KR" font-size="25" font-weight="bold" fill="#39322D">
                    <tspan x="26" y="94">병원소식</tspan>
                </text>
                <g id="icon/doctor2" transform="translate(43.000000, 0.000000)">
                    <mask id="mask-2" fill="white">
                        <use xlink:href="#path-1"></use>
                    </mask>
                    <use id="Mask" fill="#613627" fill-rule="evenodd" xlink:href="#path-1"></use>
                    <g id="swatch/dark-brown" mask="url(#mask-2)" fill="#544A43" fill-rule="evenodd">
                        <rect id="Rectangle" x="0" y="0" width="63" height="60"></rect>
                    </g>
                </g>
            </g>
        </g>
    </g>
</svg>