<?xml version="1.0" encoding="UTF-8"?>
<svg width="320px" height="380px" viewBox="0 0 320 380" version="1.1" xmlns="http://www.w3.org/2000/svg" xmlns:xlink="http://www.w3.org/1999/xlink">
    <!-- Generator: Sketch 52.5 (67469) - http://www.bohemiancoding.com/sketch -->
    <title>Group 15</title>
    <desc>Created with Sketch.</desc>
    <defs>
        <rect id="path-1" x="0" y="0" width="640" height="380"></rect>
        <path d="M157.05965,108.154792 C153.080775,108.154792 149.874775,111.35125 149.874775,115.311042 C149.874775,119.261292 153.080775,122.467292 157.05965,122.467292 C160.981275,122.467292 164.2159,119.261292 164.2159,115.311042 C164.2159,111.35125 160.981275,108.154792 157.05965,108.154792 M116.936942,108.154792 C120.868108,108.154792 124.093192,111.35125 124.093192,115.311042 C124.093192,119.261292 120.868108,122.467292 116.936942,122.467292 C112.958067,122.467292 109.752067,119.261292 109.752067,115.311042 C109.752067,111.35125 112.958067,108.154792 116.936942,108.154792 Z M76.8132792,108.154792 C80.7730708,108.154792 83.9695292,111.35125 83.9695292,115.311042 C83.9695292,119.261292 80.7730708,122.467292 76.8132792,122.467292 C72.8630292,122.467292 69.6570292,119.261292 69.6570292,115.311042 C69.6570292,111.35125 72.8630292,108.154792 76.8132792,108.154792 Z M185.941321,140.366504 C185.941321,149.946337 178.145779,157.770504 168.537321,157.770504 L59.0466958,157.770504 C52.8541542,157.770504 48.0928625,163.476421 43.5224042,168.981962 C43.1789042,169.411337 42.7686125,169.897962 42.3678625,170.384587 C41.9098625,165.842754 41.4804875,157.684629 41.5854458,143.248087 L41.6140708,87.5820042 C41.6140708,78.0117125 49.4382375,70.1875458 59.0466958,70.1875458 L168.537321,70.1875458 C178.145779,70.1875458 185.941321,78.0117125 185.941321,87.5820042 L185.941321,140.366504 Z M168.537321,57.2490458 L59.0466958,57.2490458 C42.2915292,57.2490458 28.6755708,70.8554625 28.6755708,87.5820042 L28.6564875,143.143129 C28.4084042,169.783462 29.7537792,180.222046 34.0570708,184.553962 C35.6982375,186.166504 37.8260292,187.053879 40.0492375,187.053879 C45.3257792,187.053879 49.1138208,182.502504 53.4743625,177.264129 C55.2491125,175.117254 58.1497792,171.615462 59.6573625,170.709004 L168.537321,170.709004 C185.273404,170.709004 198.898904,157.102587 198.898904,140.366504 L198.898904,87.5820042 C198.898904,70.8554625 185.273404,57.2490458 168.537321,57.2490458 Z" id="path-3"></path>
    </defs>
    <g id="Page-1" stroke="none" stroke-width="1" fill="none" fill-rule="evenodd">
        <g id="main" transform="translate(0.000000, -4868.000000)">
            <g id="Group-15" transform="translate(0.000000, 4868.000000)">
                <g id="Group-12">
                    <mask id="mask-2" fill="white">
                        <use xlink:href="#path-1"></use>
                    </mask>
                    <use id="Mask" fill="#F7F7F7" xlink:href="#path-1"></use>
                    <g id="-round/ver1/talk/2" opacity="0.08" mask="url(#mask-2)">
                        <g transform="translate(151.000000, -75.000000)">
                            <mask id="mask-4" fill="white">
                                <use xlink:href="#path-3"></use>
                            </mask>
                            <use id="Mask" stroke="none" fill="#231916" fill-rule="evenodd" xlink:href="#path-3"></use>
                            <g id="swatch/white" stroke="none" fill="none" mask="url(#mask-4)" fill-rule="evenodd">
                                <rect id="Rectangle" fill="#FFFFFF" x="0" y="0" width="239" height="229"></rect>
                            </g>
                            <g id="gray/lighten-2" stroke="none" fill="none" mask="url(#mask-4)" fill-rule="nonzero">
                                <rect id="Rectangle-Copy" fill="#636C77" x="0" y="0" width="239" height="229"></rect>
                            </g>
                        </g>
                    </g>
                    <path d="M54.5160719,139.325 L65.0910719,139.325 C65.0910719,146.425 63.4160719,152.35 54.8410719,156.725 L53.0910719,154.175 C56.8660719,152.3 59.0910719,150.15 60.3910719,147.625 L53.7160719,148.275 L53.2910719,145.475 L61.3410719,145 C61.5660719,144.05 61.7410719,143.05 61.8160719,141.95 L54.5160719,141.95 L54.5160719,139.325 Z M74.4410719,145.9 L74.4410719,148.625 L71.2160719,148.625 L71.2160719,160.1 L67.9160719,160.1 L67.9160719,137.1 L71.2160719,137.1 L71.2160719,145.9 L74.4410719,145.9 Z M77.3017861,139.325 L87.8767861,139.325 C87.8767861,146.425 86.2017861,152.35 77.6267861,156.725 L75.8767861,154.175 C79.6517861,152.3 81.8767861,150.15 83.1767861,147.625 L76.5017861,148.275 L76.0767861,145.475 L84.1267861,145 C84.3517861,144.05 84.5267861,143.05 84.6017861,141.95 L77.3017861,141.95 L77.3017861,139.325 Z M97.2267861,145.9 L97.2267861,148.625 L94.0017861,148.625 L94.0017861,160.1 L90.7017861,160.1 L90.7017861,137.1 L94.0017861,137.1 L94.0017861,145.9 L97.2267861,145.9 Z M103.8375,144.65 C103.8375,147 106.0125,148.375 109.1625,148.375 C112.3375,148.375 114.5125,147 114.5125,144.65 C114.5125,142.3 112.3375,140.925 109.1625,140.925 C106.0125,140.925 103.8375,142.3 103.8375,144.65 Z M110.8125,154.8 L119.6125,154.8 L119.6125,157.475 L98.7625003,157.475 L98.7625003,154.8 L107.5125,154.8 L107.5125,150.9 C103.4625,150.4 100.5875,148.075 100.5875,144.65 C100.5875,140.8 104.2625,138.3 109.1625,138.3 C114.0875,138.3 117.7625,140.8 117.7625,144.65 C117.7625,148.075 114.8875,150.425 110.8125,150.9 L110.8125,154.8 Z M123.848215,155.9 L123.848215,153.3 L139.798215,153.3 L139.798215,160.175 L136.498215,160.175 L136.498215,155.9 L123.848215,155.9 Z M133.573215,149.325 L142.348214,149.325 L142.348214,151.95 L121.523214,151.95 L121.523214,149.325 L130.273214,149.325 L130.273214,147.675 L124.123215,147.675 L124.123215,137.675 L139.973214,137.675 L139.973214,140.175 L127.398214,140.175 L127.398214,141.425 L139.423215,141.425 L139.423215,143.825 L127.398214,143.825 L127.398214,145.175 L140.148214,145.175 L140.148214,147.675 L133.573215,147.675 L133.573215,149.325 Z M163.119643,144.425 L163.119643,139.325 L156.944643,139.325 L156.944643,144.425 L163.119643,144.425 Z M155.644643,144.425 L155.644643,139.325 L151.969643,139.325 L151.969643,138.25 L168.119643,138.25 L168.119643,139.325 L164.444643,139.325 L164.444643,144.425 L168.069643,144.425 L168.069643,145.5 L151.994643,145.5 L151.994643,144.425 L155.644643,144.425 Z M153.894643,155.75 L153.894643,158.35 L168.169643,158.35 L168.169643,159.425 L152.594643,159.425 L152.594643,154.7 L166.144643,154.7 L166.144643,152.35 L152.544643,152.35 L152.544643,151.3 L167.444643,151.3 L167.444643,155.75 L153.894643,155.75 Z M150.019643,147.8 L170.094643,147.8 L170.094643,148.9 L150.019643,148.9 L150.019643,147.8 Z M174.980357,153.2 L175.305357,153.2 C179.455357,153.2 182.180357,153.05 185.480357,152.425 L185.605357,153.55 C182.230357,154.175 179.505357,154.325 175.305357,154.325 L173.680357,154.325 L173.680357,146.025 L182.205357,146.025 L182.205357,140.85 L173.630357,140.85 L173.630357,139.7 L183.505357,139.7 L183.505357,147.15 L174.980357,147.15 L174.980357,153.2 Z M189.555357,137.55 L190.880357,137.55 L190.880357,159.775 L189.555357,159.775 L189.555357,147.525 L184.880357,147.525 L184.880357,146.4 L189.555357,146.4 L189.555357,137.55 Z M214.541071,149.075 L213.916071,150.2 C210.991071,149.45 206.966071,146.975 205.591071,143.5 C204.216071,146.975 200.241071,149.425 197.291071,150.2 L196.666071,149.075 C199.841071,148.425 204.891071,145.125 204.891071,141 L204.891071,139.225 L206.266071,139.225 L206.266071,141 C206.266071,145.1 211.391071,148.45 214.541071,149.075 Z M195.591071,155.45 L215.741071,155.45 L215.741071,156.575 L195.591071,156.575 L195.591071,155.45 Z M241.7875,137.55 L241.7875,154.05 L240.4625,154.05 L240.4625,137.55 L241.7875,137.55 Z M237.2625,149.675 L236.6125,150.75 C234.0375,149.8 231.7375,147.85 230.8125,145.3 C229.8875,148.05 227.6375,150.15 225.0375,151.15 L224.3625,150.125 C227.4625,149 230.1125,146.1 230.1125,142.7 L230.1125,141.85 L224.7375,141.85 L224.7375,140.75 L230.1125,140.75 L230.1125,137.625 L231.4375,137.625 L231.4375,140.75 L236.7625,140.75 L236.7625,141.85 L231.4375,141.85 L231.4375,142.7 C231.4375,145.925 234.1625,148.625 237.2625,149.675 Z M229.1625,158.075 L242.5375,158.075 L242.5375,159.2 L227.8375,159.2 L227.8375,152.475 L229.1625,152.475 L229.1625,158.075 Z M266.573214,148.65 L266.573214,149.775 L257.198214,149.775 L257.198214,159.775 L255.873214,159.775 L255.873214,149.775 L246.498214,149.775 L246.498214,148.65 L261.723214,148.65 C262.448214,145.425 262.448214,143.05 262.448214,140.975 L262.448214,140.175 L249.148214,140.175 L249.148214,139.075 L263.748214,139.075 L263.748214,140.975 C263.748214,143.05 263.748214,145.4 263.098214,148.65 L266.573214,148.65 Z" id="카카오톡-플러스-친구" fill="#39322D" mask="url(#mask-2)"></path>
                    <path d="M35.08,265.4 C28.42,265.4 22.9,261.23 22.9,253.13 C22.9,243.98 29.56,237.95 37.33,237.95 C44.29,237.95 48.7,242.63 48.7,249.41 C48.7,255.38 44.86,258.44 41.65,258.44 C39.79,258.44 38.29,257.57 38.05,255.89 L37.96,255.89 C36.91,257.21 35.32,258.17 33.88,258.17 C31.48,258.17 29.68,256.4 29.68,253.31 C29.68,249.56 32.38,245.36 36.28,245.36 C37.42,245.36 38.35,245.87 38.95,247.01 L39.01,247.01 L39.43,245.63 L41.65,245.63 L40.24,252.56 C39.64,255.05 40.24,256.19 41.98,256.19 C44.08,256.19 46.36,253.67 46.36,249.53 C46.36,244.25 43.36,240.17 37.06,240.17 C31.12,240.17 25.36,245.24 25.36,253.04 C25.36,259.64 29.74,263.18 35.35,263.18 C37.3,263.18 39.22,262.58 40.69,261.74 L41.56,263.72 C39.55,264.86 37.42,265.4 35.08,265.4 Z M34.57,255.92 C35.44,255.92 36.34,255.38 37.42,254.06 L38.32,248.93 C37.78,248.03 37.18,247.67 36.34,247.67 C33.91,247.67 32.38,250.73 32.38,253.13 C32.38,255.08 33.31,255.92 34.57,255.92 Z M55.21,243.77 C55.21,246.29 56.98,247.97 59.35,247.97 C61.66,247.97 63.43,246.29 63.43,243.77 C63.43,241.31 61.66,239.63 59.35,239.63 C56.98,239.63 55.21,241.31 55.21,243.77 Z M71.26,241.76 L66.07,241.76 C66.28,242.39 66.37,243.05 66.37,243.77 C66.37,244.49 66.28,245.15 66.07,245.78 L71.26,245.78 L71.26,241.76 Z M71.26,248.3 L64.75,248.3 C63.49,249.77 61.57,250.67 59.35,250.64 C55.33,250.64 52.27,247.76 52.27,243.77 C52.27,239.78 55.33,236.9 59.35,236.9 C61.57,236.9 63.49,237.8 64.75,239.24 L71.26,239.24 L71.26,235.25 L74.35,235.25 L74.35,255.17 L71.26,255.17 L71.26,248.3 Z M59.89,259.28 L75.04,259.28 L75.04,261.8 L56.8,261.8 L56.8,253.16 L59.89,253.16 L59.89,259.28 Z M87.82,237.71 L87.82,242.45 C87.82,246.83 89.47,251.42 93.1,253.7 L91.36,256.1 C88.9,254.6 87.28,251.96 86.35,248.93 C85.39,252.26 83.62,255.11 81.01,256.7 L79.12,254.36 C82.96,252.08 84.82,247.22 84.82,242.6 L84.82,237.71 L87.82,237.71 Z M94.18,244.7 L94.18,235.73 L97.09,235.73 L97.09,261.05 L94.18,261.05 L94.18,247.22 L90.19,247.22 L90.19,244.7 L94.18,244.7 Z M99.7,235.22 L102.64,235.22 L102.64,262.31 L99.7,262.31 L99.7,235.22 Z M116.59,240.47 L116.59,243.08 C116.59,247.28 119.26,252.08 123.37,254.03 L121.66,256.46 C118.63,255.02 116.32,252.02 115.09,248.6 C113.89,252.38 111.49,255.62 108.37,257.15 L106.6,254.69 C110.74,252.71 113.5,247.58 113.5,243.08 L113.5,240.47 L107.59,240.47 L107.59,237.92 L122.32,237.92 L122.32,240.47 L116.59,240.47 Z M132.31,245.9 L132.31,248.45 L128.08,248.45 L128.08,262.31 L124.99,262.31 L124.99,235.22 L128.08,235.22 L128.08,245.9 L132.31,245.9 Z M138.01,243.77 C138.01,246.29 139.78,247.97 142.15,247.97 C144.46,247.97 146.23,246.29 146.23,243.77 C146.23,241.31 144.46,239.63 142.15,239.63 C139.78,239.63 138.01,241.31 138.01,243.77 Z M154.06,241.76 L148.87,241.76 C149.08,242.39 149.17,243.05 149.17,243.77 C149.17,244.49 149.08,245.15 148.87,245.78 L154.06,245.78 L154.06,241.76 Z M154.06,248.3 L147.55,248.3 C146.29,249.77 144.37,250.67 142.15,250.64 C138.13,250.64 135.07,247.76 135.07,243.77 C135.07,239.78 138.13,236.9 142.15,236.9 C144.37,236.9 146.29,237.8 147.55,239.24 L154.06,239.24 L154.06,235.25 L157.15,235.25 L157.15,255.17 L154.06,255.17 L154.06,248.3 Z M142.69,259.28 L157.84,259.28 L157.84,261.8 L139.6,261.8 L139.6,253.16 L142.69,253.16 L142.69,259.28 Z M163.75,237.77 L176.47,237.77 L176.47,255.68 L163.75,255.68 L163.75,237.77 Z M173.44,240.23 L166.78,240.23 L166.78,253.19 L173.44,253.19 L173.44,240.23 Z M181.48,235.19 L184.6,235.19 L184.6,262.37 L181.48,262.37 L181.48,235.19 Z M209.26,251.18 L209.26,243.14 L203.77,243.14 L203.77,240.62 L209.26,240.62 L209.26,235.19 L212.35,235.19 L212.35,251.18 L209.26,251.18 Z M205.99,247.67 L204.34,250.1 C201.43,249.05 199.33,247.01 198.16,244.37 C196.96,247.37 194.68,249.74 191.41,250.91 L189.79,248.42 C194.14,246.95 196.51,243.29 196.51,239.33 L196.51,236.66 L199.63,236.66 L199.63,239.18 C199.63,242.93 201.88,246.32 205.99,247.67 Z M203.32,259.88 C207.16,259.88 209.38,258.89 209.38,257.12 C209.38,255.35 207.16,254.36 203.32,254.36 C199.48,254.36 197.29,255.35 197.29,257.12 C197.29,258.89 199.48,259.88 203.32,259.88 Z M203.32,251.93 C208.99,251.93 212.47,253.85 212.47,257.12 C212.47,260.39 208.99,262.31 203.32,262.31 C197.68,262.31 194.2,260.39 194.2,257.12 C194.2,253.85 197.68,251.93 203.32,251.93 Z M236.86,252.62 L236.86,249.32 L232.72,249.32 L232.72,246.83 L236.86,246.83 L236.86,243.98 L232.78,243.98 L232.78,241.46 L236.86,241.46 L236.86,235.22 L239.95,235.22 L239.95,252.62 L236.86,252.62 Z M232.6,237.95 L232.6,240.41 L217.57,240.41 L217.57,237.95 L223.66,237.95 L223.66,234.98 L226.75,234.98 L226.75,237.95 L232.6,237.95 Z M221.86,246.65 C221.86,248.36 223.21,249.38 225.22,249.38 C227.2,249.38 228.55,248.36 228.55,246.65 C228.55,245 227.2,243.95 225.22,243.95 C223.21,243.95 221.86,245 221.86,246.65 Z M231.43,246.65 C231.43,249.68 228.88,251.72 225.22,251.72 C221.53,251.72 218.98,249.68 218.98,246.65 C218.98,243.65 221.53,241.61 225.22,241.61 C228.88,241.61 231.43,243.65 231.43,246.65 Z M230.98,259.94 C234.64,259.94 236.83,259.13 236.83,257.6 C236.83,256.07 234.64,255.29 230.98,255.29 C227.26,255.29 225.07,256.07 225.07,257.6 C225.07,259.13 227.26,259.94 230.98,259.94 Z M230.98,252.92 C236.59,252.92 240.1,254.66 240.1,257.6 C240.1,260.57 236.59,262.31 230.98,262.31 C225.31,262.31 221.83,260.57 221.83,257.6 C221.83,254.66 225.31,252.92 230.98,252.92 Z M249.52,243.41 C249.52,245.75 251.35,247.25 253.84,247.25 C256.36,247.25 258.19,245.75 258.19,243.41 C258.19,241.04 256.36,239.54 253.84,239.54 C251.35,239.54 249.52,241.04 249.52,243.41 Z M255.4,249.8 L255.4,253.91 C257.83,253.76 260.32,253.58 262.66,253.22 L262.87,255.47 C256.9,256.61 250.42,256.67 245.62,256.67 L245.23,254.12 C247.3,254.12 249.76,254.12 252.28,254.03 L252.28,249.8 C248.86,249.23 246.49,246.74 246.49,243.41 C246.49,239.57 249.61,236.9 253.84,236.9 C258.07,236.9 261.22,239.57 261.22,243.41 C261.22,246.74 258.82,249.23 255.4,249.8 Z M264.28,235.19 L267.4,235.19 L267.4,262.34 L264.28,262.34 L264.28,235.19 Z M286.9,250.46 L283.87,250.19 C284.56,245.99 284.62,242.84 284.62,240.56 L273.88,240.56 L273.88,238.07 L287.65,238.07 L287.65,239.87 C287.65,242.24 287.65,245.66 286.9,250.46 Z M280.84,245.84 L280.84,253.91 C283.66,253.79 286.51,253.64 289.15,253.28 L289.3,255.56 C283.72,256.49 277.51,256.61 272.77,256.61 L272.44,254.06 C274.09,254.06 275.92,254.03 277.81,254 L277.81,245.84 L280.84,245.84 Z M297.7,246.35 L297.7,248.96 L293.71,248.96 L293.71,262.31 L290.59,262.31 L290.59,235.22 L293.71,235.22 L293.71,246.35 L297.7,246.35 Z" id="@연세자연미성형외과" fill="#8D7047" mask="url(#mask-2)"></path>
                    <path d="M45.828,178.368 L52.244,178.368 C52.244,182.464 50.804,186.24 45.7,188.784 L45.06,187.856 C47.764,186.544 49.38,184.848 50.26,182.88 L45.316,183.36 L45.092,182.32 L50.612,181.936 C50.884,181.104 51.028,180.24 51.076,179.328 L45.828,179.328 L45.828,178.368 Z M58.196,182.72 L58.196,183.696 L55.844,183.696 L55.844,191.152 L54.676,191.152 L54.676,176.848 L55.844,176.848 L55.844,182.72 L58.196,182.72 Z M61.044,187.856 L61.044,186.896 L70.852,186.896 L70.852,191.168 L69.684,191.168 L69.684,187.856 L61.044,187.856 Z M66.644,184.592 L72.532,184.592 L72.532,185.552 L59.588,185.552 L59.588,184.592 L65.492,184.592 L65.492,183.008 L61.316,183.008 L61.316,177.232 L70.932,177.232 L70.932,178.176 L62.484,178.176 L62.484,179.616 L70.532,179.616 L70.532,180.528 L62.484,180.528 L62.484,182.064 L70.996,182.064 L70.996,183.008 L66.644,183.008 L66.644,184.592 Z M80.788,177.792 C83.764,177.792 85.956,179.344 85.956,181.712 C85.956,184.08 83.764,185.632 80.788,185.632 C77.812,185.632 75.604,184.08 75.604,181.712 C75.604,179.344 77.812,177.792 80.788,177.792 Z M80.788,178.768 C78.468,178.768 76.724,179.968 76.724,181.712 C76.724,183.456 78.468,184.656 80.788,184.656 C83.108,184.656 84.852,183.456 84.852,181.712 C84.852,179.968 83.108,178.768 80.788,178.768 Z M74.308,188.256 L87.316,188.256 L87.316,189.232 L74.308,189.232 L74.308,188.256 Z M96.1,188.384 L102.02,188.384 L102.02,189.36 L89.044,189.36 L89.044,188.384 L94.932,188.384 L94.932,185.6 L90.692,185.6 L90.692,181.248 L99.236,181.248 L99.236,178.912 L90.66,178.912 L90.66,177.936 L100.372,177.936 L100.372,182.192 L91.844,182.192 L91.844,184.64 L100.708,184.64 L100.708,185.6 L96.1,185.6 L96.1,188.384 Z M119.62,184.112 L119.108,185.088 C117.012,184.576 114.692,183.024 113.764,180.896 C112.868,183.024 110.564,184.576 108.452,185.088 L107.924,184.112 C110.276,183.648 113.156,181.472 113.156,178.976 L113.156,177.872 L114.388,177.872 L114.388,178.976 C114.388,181.472 117.268,183.648 119.62,184.112 Z M107.332,188.224 L120.324,188.224 L120.324,189.2 L107.332,189.2 L107.332,188.224 Z M123.78,179.264 L123.78,186.544 L128.02,186.544 L128.02,179.264 L123.78,179.264 Z M122.644,187.504 L122.644,178.304 L129.156,178.304 L129.156,187.504 L122.644,187.504 Z M135.412,182.624 L135.412,183.616 L133.012,183.616 L133.012,191.168 L131.844,191.168 L131.844,176.864 L133.012,176.864 L133.012,182.624 L135.412,182.624 Z M148.244,184.624 L148.244,185.584 L138.452,185.584 L138.452,178.112 L148.1,178.112 L148.1,179.088 L139.636,179.088 L139.636,181.312 L147.78,181.312 L147.78,182.272 L139.636,182.272 L139.636,184.624 L148.244,184.624 Z M136.756,188.304 L149.748,188.304 L149.748,189.28 L136.756,189.28 L136.756,188.304 Z M155.7,186.944 C157.076,186.944 158.068,185.984 158.068,184.656 C158.068,183.328 157.076,182.368 155.7,182.368 C154.356,182.368 153.364,183.328 153.364,184.656 C153.364,185.984 154.356,186.944 155.7,186.944 Z M155.7,181.392 C157.732,181.392 159.172,182.736 159.172,184.656 C159.172,186.592 157.732,187.92 155.7,187.92 C153.716,187.92 152.26,186.592 152.26,184.656 C152.26,182.736 153.716,181.392 155.7,181.392 Z M156.276,177.008 L156.276,179.168 L159.876,179.168 L159.876,180.128 L151.412,180.128 L151.412,179.168 L155.108,179.168 L155.108,177.008 L156.276,177.008 Z M164.852,182.8 L164.852,183.776 L162.452,183.776 L162.452,191.168 L161.284,191.168 L161.284,176.848 L162.452,176.848 L162.452,182.8 L164.852,182.8 Z M174.26,182.752 L174.26,177.248 L175.364,177.248 L175.364,190.432 L174.26,190.432 L174.26,183.728 L171.172,183.728 C170.292,185.392 168.932,186.88 166.948,188.064 L166.26,187.216 C169.38,185.344 170.964,182.672 171.188,179.664 L166.836,179.664 L166.836,178.688 L172.34,178.688 C172.34,180.112 172.116,181.472 171.604,182.752 L174.26,182.752 Z M177.22,176.864 L178.34,176.864 L178.34,191.168 L177.22,191.168 L177.22,176.864 Z M192.74,183.664 L192.116,184.592 C190.548,183.984 189.284,182.784 188.66,181.248 C188.068,182.992 186.756,184.32 185.076,184.992 L184.468,184.048 C186.58,183.264 188.052,181.328 188.052,179.088 L188.052,177.584 L189.22,177.584 L189.22,179.168 C189.22,181.12 190.724,182.96 192.74,183.664 Z M191.044,190.208 C193.22,190.208 194.564,189.6 194.564,188.56 C194.564,187.536 193.22,186.928 191.044,186.928 C188.868,186.928 187.508,187.536 187.508,188.56 C187.508,189.6 188.868,190.208 191.044,190.208 Z M191.044,185.984 C193.956,185.984 195.716,186.928 195.716,188.56 C195.716,190.192 193.956,191.136 191.044,191.136 C188.132,191.136 186.356,190.192 186.356,188.56 C186.356,186.928 188.132,185.984 191.044,185.984 Z M195.572,180.624 L197.716,180.624 L197.716,181.6 L195.572,181.6 L195.572,185.568 L194.404,185.568 L194.404,176.864 L195.572,176.864 L195.572,180.624 Z M207.54,182.656 L207.684,183.616 C205.668,184 203.956,184.112 200.996,184.112 L199.908,184.112 L199.908,177.824 L206.196,177.824 L206.196,178.784 L201.06,178.784 L201.06,183.136 C203.94,183.136 205.604,183.04 207.54,182.656 Z M202.5,186.704 L202.5,190 L209.14,190 L209.14,186.704 L202.5,186.704 Z M201.364,190.96 L201.364,185.744 L210.292,185.744 L210.292,190.96 L201.364,190.96 Z M212.436,180.4 L212.436,181.376 L210.292,181.376 L210.292,184.944 L209.124,184.944 L209.124,176.848 L210.292,176.848 L210.292,180.4 L212.436,180.4 Z M220.004,183.344 L220.004,180.848 L215.716,180.848 L215.716,183.344 L220.004,183.344 Z M221.14,177.648 L221.14,184.304 L214.564,184.304 L214.564,177.648 L215.716,177.648 L215.716,179.904 L220.004,179.904 L220.004,177.648 L221.14,177.648 Z M217.316,187.008 L217.316,190 L225.412,190 L225.412,190.976 L216.148,190.976 L216.148,186.032 L225.156,186.032 L225.156,187.008 L217.316,187.008 Z M225.012,180.336 L227.156,180.336 L227.156,181.312 L225.012,181.312 L225.012,185.232 L223.844,185.232 L223.844,176.864 L225.012,176.864 L225.012,180.336 Z M235.124,177.792 C238.1,177.792 240.292,179.344 240.292,181.712 C240.292,184.08 238.1,185.632 235.124,185.632 C232.148,185.632 229.94,184.08 229.94,181.712 C229.94,179.344 232.148,177.792 235.124,177.792 Z M235.124,178.768 C232.804,178.768 231.06,179.968 231.06,181.712 C231.06,183.456 232.804,184.656 235.124,184.656 C237.444,184.656 239.188,183.456 239.188,181.712 C239.188,179.968 237.444,178.768 235.124,178.768 Z M228.644,188.256 L241.652,188.256 L241.652,189.232 L228.644,189.232 L228.644,188.256 Z M247.556,178.208 L247.556,180.976 C247.556,183.232 248.724,185.696 250.58,186.816 L249.908,187.712 C248.532,186.88 247.524,185.328 247.012,183.568 C246.5,185.504 245.428,187.152 243.972,188.032 L243.236,187.152 C245.172,186.016 246.436,183.456 246.436,181.008 L246.436,178.208 L247.556,178.208 Z M251.492,182.032 L251.492,177.184 L252.596,177.184 L252.596,190.432 L251.492,190.432 L251.492,183.008 L249.028,183.008 L249.028,182.032 L251.492,182.032 Z M254.388,176.848 L255.508,176.848 L255.508,191.152 L254.388,191.152 L254.388,176.848 Z M262.5,184.864 L262.5,188.32 L266.66,188.32 L266.66,184.848 C266.036,185.008 265.316,185.104 264.564,185.104 C263.828,185.104 263.124,185.008 262.5,184.864 Z M260.5,181.456 C260.5,183.072 262.212,184.16 264.564,184.16 C266.916,184.16 268.628,183.072 268.628,181.456 C268.628,179.824 266.916,178.736 264.564,178.736 C262.212,178.736 260.5,179.824 260.5,181.456 Z M267.812,188.32 L271.092,188.32 L271.092,189.296 L258.084,189.296 L258.084,188.32 L261.332,188.32 L261.332,184.4 C260.116,183.776 259.38,182.752 259.38,181.456 C259.38,179.232 261.54,177.792 264.564,177.792 C267.588,177.792 269.732,179.232 269.732,181.456 C269.732,182.752 269.012,183.76 267.812,184.4 L267.812,188.32 Z M274.02,186.544 L273.844,179.616 L273.812,178.048 L275.124,178.048 L275.092,179.616 L274.916,186.544 L274.02,186.544 Z M274.468,190.208 C273.94,190.208 273.492,189.792 273.492,189.184 C273.492,188.544 273.94,188.128 274.468,188.128 C274.996,188.128 275.46,188.544 275.46,189.184 C275.46,189.792 274.996,190.208 274.468,190.208 Z" id="카톡으로-스마트하게-상담받으세요!" fill="#555555" mask="url(#mask-2)"></path>
                </g>
            </g>
        </g>
    </g>
</svg>