<?xml version="1.0" encoding="UTF-8"?>
<svg width="320px" height="380px" viewBox="0 0 320 380" version="1.1" xmlns="http://www.w3.org/2000/svg" xmlns:xlink="http://www.w3.org/1999/xlink">
    <!-- Generator: Sketch 52.5 (67469) - http://www.bohemiancoding.com/sketch -->
    <title>Group 13</title>
    <desc>Created with Sketch.</desc>
    <defs>
        <rect id="path-1" x="0" y="0" width="320" height="380"></rect>
        <path d="M171.381742,159.020262 L147.895367,177.943471 C147.050658,178.265679 144.995492,178.875262 142.0782,178.875262 C136.496158,178.875262 130.42645,176.637221 124.530908,172.396262 L44.396825,93.2723458 C43.9701167,92.7585542 33.8771583,80.8978042 39.8423667,65.2228042 L55.9702,39.6203042 C56.5101167,39.0978042 58.0253667,37.9221792 60.2111583,37.9221792 C62.4317833,37.9221792 65.0704083,39.1500542 67.4477833,41.1442625 L79.7613667,53.4317208 L80.762825,54.2503042 C80.762825,54.2503042 81.6772,55.0079292 81.7991167,55.9397208 C81.9558667,57.2285542 80.8412,59.2837208 78.48995,61.8352625 C76.50445,64.3084292 66.812075,77.2664292 71.2359083,87.2548875 L71.6887417,88.2650542 L122.467033,139.017221 C122.919867,139.531012 127.125992,143.972262 134.275533,143.972262 C138.78645,143.972262 143.323492,142.204471 147.747325,138.721137 L148.470117,138.033179 C149.471575,136.935929 152.850408,134.062179 156.229242,134.062179 C157.709658,134.062179 159.146533,134.628221 160.078325,135.307471 L175.67495,150.869262 C175.67495,150.895387 176.397742,151.783637 176.3542,152.811221 C176.267117,154.457096 174.516742,156.660304 171.381742,159.020262 M188.160958,152.586419 L188.160958,152.824247 C188.159417,153.009466 188.15426,153.196719 188.145283,153.385971 C187.892742,158.776429 184.696783,163.809846 178.635783,168.346887 L153.695117,188.323804 C153.225838,188.545645 149.069843,190.623384 142.488538,190.707275 L141.673698,190.707275 C135.938501,190.633381 127.141743,188.96029 117.198492,181.679346 L116.536658,181.139429 L35.8191167,101.371096 C35.1206208,100.619381 26.2150847,90.405432 26.125,75.4497384 L26.125,74.9927591 C26.1521021,70.4937146 26.9822825,65.5752898 29.0701583,60.3635542 L29.5491167,59.4056375 L46.2865333,32.8190958 C47.2343734,31.5894655 51.8245357,26.3323478 59.7368133,26.1284833 L60.6881455,26.1284833 C65.6490022,26.2552848 70.5981286,28.3601453 75.4246167,32.4272208 L87.79045,44.7495125 C89.331825,45.9338458 92.8412833,49.1385125 93.5205333,54.4680125 C94.1475333,59.4753042 92.1097833,64.5522625 87.4334083,69.5421375 C84.5944917,73.1473875 81.6597833,79.0255125 81.8774917,81.7338042 L131.018617,130.901054 C131.184075,131.049096 132.350992,132.172471 134.275533,132.172471 C135.956242,132.172471 137.967867,131.310346 140.083992,129.716721 C141.81695,127.931512 147.956325,122.253679 156.229242,122.253679 C160.391825,122.253679 164.3367,123.673137 167.907117,126.503346 L183.82595,142.326387 C184.101558,142.593644 188.109736,146.441284 188.160958,152.586439 Z" id="path-3"></path>
    </defs>
    <g id="Page-1" stroke="none" stroke-width="1" fill="none" fill-rule="evenodd">
        <g id="main" transform="translate(0.000000, -4108.000000)">
            <g id="Group-13" transform="translate(0.000000, 4108.000000)">
                <g id="Group-2">
                    <mask id="mask-2" fill="white">
                        <use xlink:href="#path-1"></use>
                    </mask>
                    <rect stroke="#F2F2F2" x="0.5" y="0.5" width="319" height="379"></rect>
                    <g id="icon/call" opacity="0.06" mask="url(#mask-2)">
                        <g transform="translate(153.000000, -69.000000)">
                            <mask id="mask-4" fill="white">
                                <use xlink:href="#path-3"></use>
                            </mask>
                            <use id="Mask" stroke="none" fill="#231916" fill-rule="evenodd" xlink:href="#path-3"></use>
                            <g id="swatch/white" stroke="none" fill="none" mask="url(#mask-4)" fill-rule="evenodd">
                                <rect id="Rectangle" fill="#FFFFFF" x="0" y="0" width="218" height="209"></rect>
                            </g>
                            <g id="gray/lighten-2" stroke="none" fill="none" mask="url(#mask-4)" fill-rule="nonzero">
                                <rect id="Rectangle-Copy" fill="#636C77" x="0" y="0" width="209" height="209"></rect>
                            </g>
                        </g>
                    </g>
                    <path d="M77.29,119.82 C80.1900145,119.82 82.4199922,120.739991 83.98,122.58 C85.5400078,124.420009 86.32,127.059983 86.32,130.5 C86.32,133.920017 85.5400078,136.549991 83.98,138.39 C82.4199922,140.230009 80.1900145,141.15 77.29,141.15 C74.3899855,141.15 72.1600078,140.230009 70.6,138.39 C69.0399922,136.549991 68.26,133.920017 68.26,130.5 C68.26,127.059983 69.0399922,124.420009 70.6,122.58 C72.1600078,120.739991 74.3899855,119.82 77.29,119.82 Z M77.29,123 C75.6299917,123 74.400004,123.604994 73.6,124.815 C72.799996,126.025006 72.4,127.919987 72.4,130.5 C72.4,133.060013 72.799996,134.949994 73.6,136.17 C74.400004,137.390006 75.6299917,138 77.29,138 C78.9500083,138 80.179996,137.390006 80.98,136.17 C81.780004,134.949994 82.18,133.060013 82.18,130.5 C82.18,127.919987 81.780004,126.025006 80.98,124.815 C80.179996,123.604994 78.9500083,123 77.29,123 Z M104.53,137.49 L104.53,141 L88.99,141 L88.99,138.09 L96.91,129.93 C97.6700038,129.169996 98.2799977,128.420004 98.74,127.68 C99.2000023,126.939996 99.43,126.300003 99.43,125.76 C99.43,124.999996 99.130003,124.405002 98.53,123.975 C97.929997,123.544998 97.1000053,123.33 96.04,123.33 C95.1199954,123.33 94.1400052,123.559998 93.1,124.02 C92.0599948,124.480002 91.0800046,125.119996 90.16,125.94 L88.57,122.85 C89.8100062,121.889995 91.1149932,121.145003 92.485,120.615 C93.8550069,120.084997 95.2299931,119.82 96.61,119.82 C97.9900069,119.82 99.2099947,120.039998 100.27,120.48 C101.330005,120.920002 102.154997,121.544996 102.745,122.355 C103.335003,123.165004 103.63,124.099995 103.63,125.16 C103.63,126.180005 103.280004,127.259994 102.58,128.4 C101.879997,129.540006 100.900006,130.769993 99.64,132.09 L94.3,137.49 L104.53,137.49 Z M108.91,136.95 C109.510003,136.95 110.004998,137.149998 110.395,137.55 C110.785002,137.950002 110.98,138.459997 110.98,139.08 C110.98,139.720003 110.785002,140.244998 110.395,140.655 C110.004998,141.065002 109.510003,141.27 108.91,141.27 C108.329997,141.27 107.845002,141.060002 107.455,140.64 C107.064998,140.219998 106.87,139.700003 106.87,139.08 C106.87,138.459997 107.064998,137.950002 107.455,137.55 C107.845002,137.149998 108.329997,136.95 108.91,136.95 Z M122.38,128.76 C124.32001,128.940001 125.864994,129.529995 127.015,130.53 C128.165006,131.530005 128.74,132.839992 128.74,134.46 C128.74,135.780007 128.400003,136.944995 127.72,137.955 C127.039997,138.965005 126.070006,139.754997 124.81,140.325 C123.549994,140.895003 122.080008,141.18 120.4,141.18 C118.979993,141.18 117.575007,140.965002 116.185,140.535 C114.794993,140.104998 113.610005,139.530004 112.63,138.81 L114.22,135.69 C115.060004,136.390004 115.989995,136.924998 117.01,137.295 C118.030005,137.665002 119.069995,137.85 120.13,137.85 C121.590007,137.85 122.734996,137.550003 123.565,136.95 C124.395004,136.349997 124.81,135.540005 124.81,134.52 C124.81,133.479995 124.400004,132.685003 123.58,132.135 C122.759996,131.584997 121.590008,131.31 120.07,131.31 L116.89,131.31 L116.89,128.88 L122.53,123.42 L113.68,123.42 L113.65,120 L127.69,120 L127.69,122.49 L121.27,128.64 L122.38,128.76 Z M145.54,124.44 C144.919997,123.999998 144.205004,123.665001 143.395,123.435 C142.584996,123.204999 141.770004,123.09 140.95,123.09 C139.069991,123.09 137.655005,123.719994 136.705,124.98 C135.754995,126.240006 135.31,127.959989 135.37,130.14 C135.910003,129.219995 136.644995,128.525002 137.575,128.055 C138.505005,127.584998 139.609994,127.35 140.89,127.35 C142.97001,127.35 144.619994,127.959994 145.84,129.18 C147.060006,130.400006 147.67,132.02999 147.67,134.07 C147.67,135.510007 147.360003,136.764995 146.74,137.835 C146.119997,138.905005 145.245006,139.729997 144.115,140.31 C142.984994,140.890003 141.670007,141.18 140.17,141.18 C138.389991,141.18 136.850007,140.770004 135.55,139.95 C134.249994,139.129996 133.255003,137.950008 132.565,136.41 C131.874997,134.869992 131.53,133.030011 131.53,130.89 C131.53,128.669989 131.904996,126.725008 132.655,125.055 C133.405004,123.384992 134.469993,122.095005 135.85,121.185 C137.230007,120.274995 138.849991,119.82 140.71,119.82 C141.790005,119.82 142.904994,119.964999 144.055,120.255 C145.205006,120.545001 146.209996,120.939998 147.07,121.44 L145.54,124.44 Z M140.11,130.44 C138.829994,130.44 137.810004,130.799996 137.05,131.52 C136.289996,132.240004 135.92,133.129995 135.94,134.19 C135.92,134.790003 136.059999,135.364997 136.36,135.915 C136.660002,136.465003 137.114997,136.914998 137.725,137.265 C138.335003,137.615002 139.089996,137.79 139.99,137.79 C141.190006,137.79 142.149996,137.460003 142.87,136.8 C143.590004,136.139997 143.95,135.220006 143.95,134.04 C143.95,132.939995 143.605003,132.065003 142.915,131.415 C142.224997,130.764997 141.290006,130.44 140.11,130.44 Z M158.56,127.68 C160.140008,127.68 161.529994,127.949997 162.73,128.49 C163.930006,129.030003 164.854997,129.784995 165.505,130.755 C166.155003,131.725005 166.48,132.819994 166.48,134.04 C166.48,135.460007 166.140003,136.709995 165.46,137.79 C164.779997,138.870005 163.820006,139.704997 162.58,140.295 C161.339994,140.885003 159.900008,141.18 158.26,141.18 C156.939993,141.18 155.565007,140.955002 154.135,140.505 C152.704993,140.054998 151.440006,139.450004 150.34,138.69 L151.93,135.54 C152.830005,136.240004 153.789995,136.784998 154.81,137.175 C155.830005,137.565002 156.849995,137.76 157.87,137.76 C159.190007,137.76 160.234996,137.455003 161.005,136.845 C161.775004,136.234997 162.16,135.400005 162.16,134.34 C162.16,133.319995 161.780004,132.530003 161.02,131.97 C160.259996,131.409997 159.130008,131.13 157.63,131.13 C156.909996,131.13 155.960006,131.155 154.78,131.205 C153.599994,131.255 152.690003,131.31 152.05,131.37 L152.05,120 L165.55,120 L165.55,123.51 L155.77,123.51 L155.77,127.68 L158.56,127.68 Z M171.04,136.95 C171.640003,136.95 172.134998,137.149998 172.525,137.55 C172.915002,137.950002 173.11,138.459997 173.11,139.08 C173.11,139.720003 172.915002,140.244998 172.525,140.655 C172.134998,141.065002 171.640003,141.27 171.04,141.27 C170.459997,141.27 169.975002,141.060002 169.585,140.64 C169.194998,140.219998 169,139.700003 169,139.08 C169,138.459997 169.194998,137.950002 169.585,137.55 C169.975002,137.149998 170.459997,136.95 171.04,136.95 Z M191.47,132.6 L191.47,136.05 L188.44,136.05 L188.44,141 L184.72,141 L184.72,136.05 L174.67,136.05 L174.67,133.08 L181.51,120 L185.38,120 L178.96,132.6 L184.72,132.6 L184.72,127.74 L188.44,127.74 L188.44,132.6 L191.47,132.6 Z M201.91,127.68 C203.490008,127.68 204.879994,127.949997 206.08,128.49 C207.280006,129.030003 208.204997,129.784995 208.855,130.755 C209.505003,131.725005 209.83,132.819994 209.83,134.04 C209.83,135.460007 209.490003,136.709995 208.81,137.79 C208.129997,138.870005 207.170006,139.704997 205.93,140.295 C204.689994,140.885003 203.250008,141.18 201.61,141.18 C200.289993,141.18 198.915007,140.955002 197.485,140.505 C196.054993,140.054998 194.790006,139.450004 193.69,138.69 L195.28,135.54 C196.180004,136.240004 197.139995,136.784998 198.16,137.175 C199.180005,137.565002 200.199995,137.76 201.22,137.76 C202.540007,137.76 203.584996,137.455003 204.355,136.845 C205.125004,136.234997 205.51,135.400005 205.51,134.34 C205.51,133.319995 205.130004,132.530003 204.37,131.97 C203.609996,131.409997 202.480008,131.13 200.98,131.13 C200.259996,131.13 199.310006,131.155 198.13,131.205 C196.949994,131.255 196.040003,131.31 195.4,131.37 L195.4,120 L208.9,120 L208.9,123.51 L199.12,123.51 L199.12,127.68 L201.91,127.68 Z M220.51,127.68 C222.090008,127.68 223.479994,127.949997 224.68,128.49 C225.880006,129.030003 226.804997,129.784995 227.455,130.755 C228.105003,131.725005 228.43,132.819994 228.43,134.04 C228.43,135.460007 228.090003,136.709995 227.41,137.79 C226.729997,138.870005 225.770006,139.704997 224.53,140.295 C223.289994,140.885003 221.850008,141.18 220.21,141.18 C218.889993,141.18 217.515007,140.955002 216.085,140.505 C214.654993,140.054998 213.390006,139.450004 212.29,138.69 L213.88,135.54 C214.780004,136.240004 215.739995,136.784998 216.76,137.175 C217.780005,137.565002 218.799995,137.76 219.82,137.76 C221.140007,137.76 222.184996,137.455003 222.955,136.845 C223.725004,136.234997 224.11,135.400005 224.11,134.34 C224.11,133.319995 223.730004,132.530003 222.97,131.97 C222.209996,131.409997 221.080008,131.13 219.58,131.13 C218.859996,131.13 217.910006,131.155 216.73,131.205 C215.549994,131.255 214.640003,131.31 214,131.37 L214,120 L227.5,120 L227.5,123.51 L217.72,123.51 L217.72,127.68 L220.51,127.68 Z M246.31,137.49 L246.31,141 L230.77,141 L230.77,138.09 L238.69,129.93 C239.450004,129.169996 240.059998,128.420004 240.52,127.68 C240.980002,126.939996 241.21,126.300003 241.21,125.76 C241.21,124.999996 240.910003,124.405002 240.31,123.975 C239.709997,123.544998 238.880005,123.33 237.82,123.33 C236.899995,123.33 235.920005,123.559998 234.88,124.02 C233.839995,124.480002 232.860005,125.119996 231.94,125.94 L230.35,122.85 C231.590006,121.889995 232.894993,121.145003 234.265,120.615 C235.635007,120.084997 237.009993,119.82 238.39,119.82 C239.770007,119.82 240.989995,120.039998 242.05,120.48 C243.110005,120.920002 243.934997,121.544996 244.525,122.355 C245.115003,123.165004 245.41,124.099995 245.41,125.16 C245.41,126.180005 245.060003,127.259994 244.36,128.4 C243.659996,129.540006 242.680006,130.769993 241.42,132.09 L236.08,137.49 L246.31,137.49 Z" id="02.365.4552" fill="#8D7047" mask="url(#mask-2)"></path>
                    <path d="M23.688,168.848 L26.664,168.848 L26.664,164.864 L27.832,164.864 L27.832,175.376 L26.664,175.376 L26.664,169.824 L23.688,169.824 L23.688,168.848 Z M24.488,172.224 L23.896,173.136 C22.296,172.56 21.032,171.344 20.408,169.856 C19.8,171.536 18.456,172.864 16.776,173.488 L16.152,172.56 C18.248,171.808 19.8,169.904 19.8,167.84 L19.8,167.024 L16.536,167.024 L16.536,166.048 L24.184,166.048 L24.184,167.024 L20.968,167.024 L20.968,167.824 C20.968,169.696 22.456,171.504 24.488,172.224 Z M19.912,177.872 L28.248,177.872 L28.248,178.848 L18.744,178.848 L18.744,174.432 L19.912,174.432 L19.912,177.872 Z M39.464,166.624 L39.464,167.584 L30.888,167.584 L30.888,166.624 L34.6,166.624 L34.6,164.864 L35.768,164.864 L35.768,166.624 L39.464,166.624 Z M32.936,171.104 C32.936,172.128 33.848,172.816 35.176,172.816 C36.536,172.816 37.432,172.128 37.432,171.104 C37.432,170.064 36.536,169.376 35.176,169.376 C33.848,169.376 32.936,170.064 32.936,171.104 Z M35.768,173.712 L35.768,175.296 C37.112,175.232 38.456,175.136 39.72,174.944 L39.8,175.808 C36.728,176.352 33.336,176.384 30.84,176.384 L30.648,175.392 C31.816,175.392 33.176,175.392 34.6,175.344 L34.6,173.712 C32.936,173.52 31.832,172.528 31.832,171.104 C31.832,169.504 33.192,168.448 35.176,168.448 C37.192,168.448 38.536,169.504 38.536,171.104 C38.536,172.544 37.448,173.52 35.768,173.712 Z M44.072,170.992 L44.072,171.968 L41.768,171.968 L41.768,179.168 L40.6,179.168 L40.6,164.864 L41.768,164.864 L41.768,170.992 L44.072,170.992 Z M46.776,171.76 L46.328,170.832 C48.728,170.48 51.352,168.832 51.352,166.88 L51.352,166.736 L46.776,166.736 L46.776,165.76 L57.208,165.76 L57.208,166.736 L52.664,166.736 L52.664,166.88 C52.664,168.832 55.288,170.48 57.672,170.832 L57.224,171.76 C55.08,171.376 52.856,170.176 51.992,168.416 C51.144,170.176 48.92,171.376 46.776,171.76 Z M58.472,173.04 L58.472,174.016 L52.568,174.016 L52.568,179.152 L51.4,179.152 L51.4,174.016 L45.544,174.016 L45.544,173.04 L58.472,173.04 Z M65.24,166.128 L65.24,168.784 C65.24,171.392 67.048,174.016 69.096,174.976 L68.408,175.904 C66.792,175.104 65.352,173.36 64.664,171.28 C64.024,173.472 62.568,175.296 60.92,176.16 L60.2,175.2 C62.264,174.224 64.088,171.488 64.088,168.784 L64.088,166.128 L65.24,166.128 Z M70.76,164.848 L71.928,164.848 L71.928,179.184 L70.76,179.184 L70.76,164.848 Z M80.984,171.792 L80.984,167.056 L76.792,167.056 L76.792,171.792 L80.984,171.792 Z M85.544,168.4 L82.12,168.4 L82.12,170.48 L85.544,170.48 L85.544,168.4 Z M82.12,171.456 L82.12,172.752 L75.64,172.752 L75.64,166.112 L82.12,166.112 L82.12,167.424 L85.544,167.424 L85.544,164.864 L86.712,164.864 L86.712,175.312 L85.544,175.312 L85.544,171.456 L82.12,171.456 Z M78.728,177.872 L87.064,177.872 L87.064,178.848 L77.56,178.848 L77.56,174.384 L78.728,174.384 L78.728,177.872 Z M94.6,169.296 C94.6,170.768 95.688,171.808 97.16,171.808 C98.616,171.808 99.704,170.768 99.704,169.296 C99.704,167.84 98.616,166.8 97.16,166.8 C95.688,166.8 94.6,167.84 94.6,169.296 Z M103.832,169.824 L100.792,169.824 C100.536,171.616 99.08,172.832 97.16,172.832 C95.048,172.832 93.496,171.36 93.496,169.296 C93.496,167.232 95.048,165.776 97.16,165.776 C99.112,165.776 100.584,167.008 100.792,168.848 L103.832,168.848 L103.832,164.864 L105,164.864 L105,175.408 L103.832,175.408 L103.832,169.824 Z M97.08,177.872 L105.416,177.872 L105.416,178.848 L95.912,178.848 L95.912,174.352 L97.08,174.352 L97.08,177.872 Z M112.12,167.536 L112.12,168.944 C112.12,171.456 113.256,173.936 115.208,175.072 L114.488,175.92 C113.08,175.072 112.056,173.504 111.56,171.632 C111.064,173.648 110.008,175.36 108.552,176.272 L107.816,175.408 C109.784,174.224 110.984,171.6 110.984,168.944 L110.984,167.536 L108.184,167.536 L108.184,166.56 L114.76,166.56 L114.76,167.536 L112.12,167.536 Z M116.12,170.032 L116.12,165.2 L117.224,165.2 L117.224,178.416 L116.12,178.416 L116.12,171.008 L113.656,171.008 L113.656,170.032 L116.12,170.032 Z M118.968,164.848 L120.088,164.848 L120.088,179.168 L118.968,179.168 L118.968,164.848 Z M124.456,166.256 L124.456,174.528 C126.552,174.528 128.712,174.368 131.08,173.888 L131.208,174.864 C128.776,175.36 126.584,175.52 124.408,175.52 L123.288,175.52 L123.288,166.256 L124.456,166.256 Z M136.008,170.608 L136.008,171.6 L133.656,171.6 L133.656,179.152 L132.488,179.152 L132.488,164.848 L133.656,164.848 L133.656,170.608 L136.008,170.608 Z M152.696,164.864 L152.696,175.456 L151.528,175.456 L151.528,164.864 L152.696,164.864 Z M149.768,172.496 L149.208,173.408 C147.528,172.864 146.2,171.696 145.544,170.192 C144.936,171.824 143.576,173.088 141.88,173.68 L141.32,172.768 C143.4,172.064 144.952,170.24 144.952,168.192 L144.952,167.76 L141.624,167.76 L141.624,166.8 L144.952,166.8 L144.952,164.912 L146.12,164.912 L146.12,166.8 L149.4,166.8 L149.4,167.76 L146.104,167.76 L146.104,168.192 C146.104,170.128 147.688,171.84 149.768,172.496 Z M144.712,177.872 L153.144,177.872 L153.144,178.848 L143.56,178.848 L143.56,174.464 L144.712,174.464 L144.712,177.872 Z M163.336,168.096 L166.264,168.096 L166.264,164.848 L167.432,164.848 L167.432,172.256 L166.264,172.256 L166.264,169.056 L163.336,169.056 L163.336,168.096 Z M164.072,171.136 L163.512,172.064 C161.896,171.52 160.616,170.368 159.992,168.96 C159.384,170.528 158.04,171.808 156.376,172.4 L155.784,171.472 C157.848,170.768 159.4,168.96 159.4,167.072 L159.4,166.592 L156.168,166.592 L156.168,165.616 L163.8,165.616 L163.8,166.592 L160.568,166.592 L160.568,167.088 C160.568,168.816 162.056,170.496 164.072,171.136 Z M159.448,178.048 L168.008,178.048 L168.008,179.008 L158.312,179.008 L158.312,175.456 L166.296,175.456 L166.296,173.952 L158.264,173.952 L158.264,173.008 L167.432,173.008 L167.432,176.368 L159.448,176.368 L159.448,178.048 Z M175.064,174.944 C176.456,174.944 177.48,173.984 177.48,172.656 C177.48,171.328 176.456,170.368 175.064,170.368 C173.688,170.368 172.68,171.328 172.68,172.656 C172.68,173.984 173.688,174.944 175.064,174.944 Z M175.064,169.392 C177.128,169.392 178.584,170.736 178.584,172.656 C178.584,174.592 177.128,175.92 175.064,175.92 C173.032,175.92 171.576,174.592 171.576,172.656 C171.576,170.736 173.032,169.392 175.064,169.392 Z M175.624,164.976 L175.624,167.184 L179.352,167.184 L179.352,168.16 L170.76,168.16 L170.76,167.184 L174.456,167.184 L174.456,164.976 L175.624,164.976 Z M180.936,164.848 L182.104,164.848 L182.104,179.168 L180.936,179.168 L180.936,164.848 Z M196.952,171.664 L196.328,172.592 C194.76,171.984 193.496,170.784 192.872,169.248 C192.28,170.992 190.968,172.32 189.288,172.992 L188.68,172.048 C190.792,171.264 192.264,169.328 192.264,167.088 L192.264,165.584 L193.432,165.584 L193.432,167.168 C193.432,169.12 194.936,170.96 196.952,171.664 Z M195.256,178.208 C197.432,178.208 198.776,177.6 198.776,176.56 C198.776,175.536 197.432,174.928 195.256,174.928 C193.08,174.928 191.72,175.536 191.72,176.56 C191.72,177.6 193.08,178.208 195.256,178.208 Z M195.256,173.984 C198.168,173.984 199.928,174.928 199.928,176.56 C199.928,178.192 198.168,179.136 195.256,179.136 C192.344,179.136 190.568,178.192 190.568,176.56 C190.568,174.928 192.344,173.984 195.256,173.984 Z M199.784,168.624 L201.928,168.624 L201.928,169.6 L199.784,169.6 L199.784,173.568 L198.616,173.568 L198.616,164.864 L199.784,164.864 L199.784,168.624 Z M211.752,170.656 L211.896,171.616 C209.88,172 208.168,172.112 205.208,172.112 L204.12,172.112 L204.12,165.824 L210.408,165.824 L210.408,166.784 L205.272,166.784 L205.272,171.136 C208.152,171.136 209.816,171.04 211.752,170.656 Z M206.712,174.704 L206.712,178 L213.352,178 L213.352,174.704 L206.712,174.704 Z M205.576,178.96 L205.576,173.744 L214.504,173.744 L214.504,178.96 L205.576,178.96 Z M216.648,168.4 L216.648,169.376 L214.504,169.376 L214.504,172.944 L213.336,172.944 L213.336,164.848 L214.504,164.848 L214.504,168.4 L216.648,168.4 Z M221.704,174.816 C222.888,174.816 223.736,173.888 223.736,172.576 C223.736,171.28 222.888,170.32 221.704,170.32 C220.552,170.32 219.704,171.28 219.704,172.576 C219.704,173.888 220.552,174.816 221.704,174.816 Z M221.704,169.328 C223.496,169.328 224.776,170.656 224.776,172.576 C224.776,174.496 223.496,175.808 221.704,175.808 C219.928,175.808 218.664,174.496 218.664,172.576 C218.664,170.656 219.928,169.328 221.704,169.328 Z M222.28,165.264 L222.28,167.36 L225.288,167.36 L225.288,168.336 L218.136,168.336 L218.136,167.36 L221.128,167.36 L221.128,165.264 L222.28,165.264 Z M229.112,164.848 L230.232,164.848 L230.232,179.152 L229.112,179.152 L229.112,171.904 L227.144,171.904 L227.144,178.448 L226.04,178.448 L226.04,165.2 L227.144,165.2 L227.144,170.928 L229.112,170.928 L229.112,164.848 Z M247.896,171.776 L247.896,172.736 L238.104,172.736 L238.104,166.192 L247.736,166.192 L247.736,167.168 L239.272,167.168 L239.272,171.776 L247.896,171.776 Z M236.424,176.208 L249.416,176.208 L249.416,177.184 L236.424,177.184 L236.424,176.208 Z M259.864,170.944 L259.992,171.92 C257.592,172.304 255.64,172.384 253.048,172.384 L251.912,172.384 L251.912,168.432 L257.192,168.432 L257.192,166.528 L251.864,166.528 L251.864,165.568 L258.344,165.568 L258.344,169.36 L253.048,169.36 L253.048,171.408 C255.592,171.408 257.528,171.328 259.864,170.944 Z M261.72,178 L261.72,176.16 L254.808,176.16 L254.808,178 L261.72,178 Z M261.72,175.216 L261.72,173.424 L262.872,173.424 L262.872,178.976 L253.656,178.976 L253.656,173.424 L254.808,173.424 L254.808,175.216 L261.72,175.216 Z M261.704,164.864 L262.872,164.864 L262.872,172.688 L261.704,172.688 L261.704,164.864 Z M267.976,166.256 L267.976,174.432 C270.184,174.432 272.424,174.256 274.856,173.76 L274.984,174.752 C272.504,175.28 270.248,175.44 267.976,175.44 L266.808,175.44 L266.808,166.256 L267.976,166.256 Z M276.392,164.864 L277.56,164.864 L277.56,179.152 L276.392,179.152 L276.392,164.864 Z M282.392,167.216 L282.392,174.592 C285.048,174.592 286.872,174.496 289,174.096 L289.128,175.104 C286.92,175.504 285.064,175.6 282.328,175.6 L281.224,175.6 L281.224,166.24 L287.864,166.24 L287.864,167.216 L282.392,167.216 Z M293.96,170.56 L293.96,171.536 L291.56,171.536 L291.56,179.184 L290.392,179.184 L290.392,164.848 L291.56,164.848 L291.56,170.56 L293.96,170.56 Z M296.6,178.208 C296.072,178.208 295.624,177.792 295.624,177.184 C295.624,176.544 296.072,176.128 296.6,176.128 C297.144,176.128 297.592,176.544 297.592,177.184 C297.592,177.792 297.144,178.208 296.6,178.208 Z M33.816,190.272 L40.344,190.272 L40.344,199.52 L33.816,199.52 L33.816,190.272 Z M39.192,191.232 L34.952,191.232 L34.952,198.576 L39.192,198.576 L39.192,191.232 Z M43.48,188.848 L44.648,188.848 L44.648,203.184 L43.48,203.184 L43.48,188.848 Z M49.72,195.232 L49.72,198.72 C52.088,198.72 54.232,198.608 56.824,198.192 L56.936,199.184 C54.296,199.584 52.136,199.696 49.72,199.696 L48.536,199.696 L48.536,194.272 L53.912,194.272 L53.912,191.168 L48.504,191.168 L48.504,190.192 L55.08,190.192 L55.08,195.232 L49.72,195.232 Z M58.232,188.832 L59.4,188.832 L59.4,203.168 L58.232,203.168 L58.232,188.832 Z M72.088,196.704 L74.2,196.704 L74.2,193.328 L72.088,193.328 C72.184,193.84 72.232,194.4 72.232,195.008 C72.232,195.632 72.184,196.192 72.088,196.704 Z M69.192,198.896 C70.392,198.896 71.176,197.376 71.176,195.008 C71.176,192.672 70.392,191.168 69.192,191.168 C68.008,191.168 67.224,192.672 67.224,195.008 C67.224,197.376 68.008,198.896 69.192,198.896 Z M74.2,192.352 L74.2,189.184 L75.304,189.184 L75.304,202.448 L74.2,202.448 L74.2,197.68 L71.848,197.68 C71.352,199.12 70.424,199.968 69.192,199.968 C67.368,199.968 66.168,198.064 66.168,195.008 C66.168,191.984 67.368,190.096 69.192,190.096 C70.408,190.096 71.352,190.928 71.848,192.352 L74.2,192.352 Z M76.984,188.864 L78.104,188.864 L78.104,203.168 L76.984,203.168 L76.984,188.864 Z M82.136,193.088 C82.136,194.464 83.208,195.456 84.696,195.456 C86.184,195.456 87.272,194.464 87.272,193.088 C87.272,191.696 86.184,190.72 84.696,190.72 C83.208,190.72 82.136,191.696 82.136,193.088 Z M88.408,193.088 C88.408,195.072 86.856,196.448 84.696,196.448 C82.552,196.448 81,195.072 81,193.088 C81,191.088 82.552,189.728 84.696,189.728 C86.856,189.728 88.408,191.088 88.408,193.088 Z M82.52,199.024 L82.52,198.064 L91.768,198.064 L91.768,203.168 L90.6,203.168 L90.6,199.024 L82.52,199.024 Z M93.896,192.08 L91.768,192.08 L91.768,194.144 L93.896,194.144 L93.896,195.12 L91.768,195.12 L91.768,197.36 L90.6,197.36 L90.6,188.864 L91.768,188.864 L91.768,191.104 L93.896,191.104 L93.896,192.08 Z M99.624,198.944 C101,198.944 101.992,197.984 101.992,196.656 C101.992,195.328 101,194.368 99.624,194.368 C98.28,194.368 97.288,195.328 97.288,196.656 C97.288,197.984 98.28,198.944 99.624,198.944 Z M99.624,193.392 C101.656,193.392 103.096,194.736 103.096,196.656 C103.096,198.592 101.656,199.92 99.624,199.92 C97.64,199.92 96.184,198.592 96.184,196.656 C96.184,194.736 97.64,193.392 99.624,193.392 Z M100.2,189.008 L100.2,191.168 L103.8,191.168 L103.8,192.128 L95.336,192.128 L95.336,191.168 L99.032,191.168 L99.032,189.008 L100.2,189.008 Z M108.776,194.8 L108.776,195.776 L106.376,195.776 L106.376,203.168 L105.208,203.168 L105.208,188.848 L106.376,188.848 L106.376,194.8 L108.776,194.8 Z M115.128,190.128 L115.128,192.784 C115.128,195.392 116.936,198.016 118.984,198.976 L118.296,199.904 C116.68,199.104 115.24,197.36 114.552,195.28 C113.912,197.472 112.456,199.296 110.808,200.16 L110.088,199.2 C112.152,198.224 113.976,195.488 113.976,192.784 L113.976,190.128 L115.128,190.128 Z M120.648,188.848 L121.816,188.848 L121.816,203.184 L120.648,203.184 L120.648,188.848 Z M130.872,195.792 L130.872,191.056 L126.68,191.056 L126.68,195.792 L130.872,195.792 Z M135.432,192.4 L132.008,192.4 L132.008,194.48 L135.432,194.48 L135.432,192.4 Z M132.008,195.456 L132.008,196.752 L125.528,196.752 L125.528,190.112 L132.008,190.112 L132.008,191.424 L135.432,191.424 L135.432,188.864 L136.6,188.864 L136.6,199.312 L135.432,199.312 L135.432,195.456 L132.008,195.456 Z M128.616,201.872 L136.952,201.872 L136.952,202.848 L127.448,202.848 L127.448,198.384 L128.616,198.384 L128.616,201.872 Z M153.72,199.52 L153.72,195.28 L151.208,195.28 L151.208,194.304 L153.72,194.304 L153.72,192.576 L151.208,192.576 L151.208,191.6 L153.72,191.6 L153.72,188.848 L154.888,188.848 L154.888,199.52 L153.72,199.52 Z M146.2,190.992 L146.2,196.256 C146.952,196.24 147.736,196.224 148.504,196.176 L148.504,190.992 L146.2,190.992 Z M151.608,195.936 L151.688,196.8 C148.92,197.232 145.656,197.28 143.336,197.28 L143.208,196.288 C143.768,196.288 144.408,196.288 145.064,196.272 L145.064,190.992 L143.592,190.992 L143.592,190.032 L151.112,190.032 L151.112,190.992 L149.64,190.992 L149.64,196.112 C150.312,196.064 150.984,196.016 151.608,195.936 Z M146.952,201.872 L155.272,201.872 L155.272,202.848 L145.784,202.848 L145.784,198.624 L146.952,198.624 L146.952,201.872 Z M162.072,198.944 C163.448,198.944 164.44,197.984 164.44,196.656 C164.44,195.328 163.448,194.368 162.072,194.368 C160.728,194.368 159.736,195.328 159.736,196.656 C159.736,197.984 160.728,198.944 162.072,198.944 Z M162.072,193.392 C164.104,193.392 165.544,194.736 165.544,196.656 C165.544,198.592 164.104,199.92 162.072,199.92 C160.088,199.92 158.632,198.592 158.632,196.656 C158.632,194.736 160.088,193.392 162.072,193.392 Z M162.648,189.008 L162.648,191.168 L166.248,191.168 L166.248,192.128 L157.784,192.128 L157.784,191.168 L161.48,191.168 L161.48,189.008 L162.648,189.008 Z M171.224,194.8 L171.224,195.776 L168.824,195.776 L168.824,203.168 L167.656,203.168 L167.656,188.848 L168.824,188.848 L168.824,194.8 L171.224,194.8 Z M184.296,188.864 L184.296,199.36 L183.128,199.36 L183.128,188.864 L184.296,188.864 Z M181.176,196.08 L180.552,197.008 C178.936,196.352 177.624,195.04 176.984,193.36 C176.376,195.136 175.064,196.592 173.4,197.28 L172.76,196.336 C174.872,195.504 176.392,193.408 176.392,191.12 L176.392,189.648 L177.544,189.648 L177.544,191.12 C177.544,193.328 179.08,195.296 181.176,196.08 Z M176.312,201.872 L184.744,201.872 L184.744,202.848 L175.16,202.848 L175.16,198.4 L176.312,198.4 L176.312,201.872 Z M195.864,190.128 L195.864,192.784 C195.864,195.392 197.672,198.016 199.72,198.976 L199.032,199.904 C197.416,199.104 195.976,197.36 195.288,195.28 C194.648,197.472 193.192,199.296 191.544,200.16 L190.824,199.2 C192.888,198.224 194.712,195.488 194.712,192.784 L194.712,190.128 L195.864,190.128 Z M201.384,188.848 L202.552,188.848 L202.552,203.184 L201.384,203.184 L201.384,188.848 Z M206.216,189.968 L212.84,189.968 C212.84,193.632 210.2,196.352 206.12,197.664 L205.64,196.72 C209.064,195.632 211.336,193.536 211.592,190.928 L206.216,190.928 L206.216,189.968 Z M208.968,198.288 L208.968,201.872 L217.32,201.872 L217.32,202.848 L207.816,202.848 L207.816,198.288 L208.968,198.288 Z M216.664,193.264 L218.808,193.264 L218.808,194.24 L216.664,194.24 L216.664,199.344 L215.496,199.344 L215.496,188.848 L216.664,188.848 L216.664,193.264 Z M223.528,198.896 C224.728,198.896 225.496,197.376 225.496,195.008 C225.496,192.688 224.728,191.168 223.528,191.168 C222.344,191.168 221.576,192.688 221.576,195.008 C221.576,197.376 222.344,198.896 223.528,198.896 Z M228.52,194.464 L228.52,189.184 L229.624,189.184 L229.624,202.448 L228.52,202.448 L228.52,195.44 L226.552,195.44 C226.44,198.24 225.288,199.968 223.528,199.968 C221.704,199.968 220.504,198.064 220.504,195.008 C220.504,192 221.704,190.096 223.528,190.096 C225.272,190.096 226.408,191.76 226.552,194.464 L228.52,194.464 Z M231.32,188.864 L232.44,188.864 L232.44,203.168 L231.32,203.168 L231.32,188.864 Z M250.312,188.864 L250.312,199.36 L249.144,199.36 L249.144,188.864 L250.312,188.864 Z M247.336,196.336 L246.744,197.264 C245.08,196.688 243.736,195.472 243.096,193.936 C242.488,195.6 241.128,196.912 239.432,197.536 L238.824,196.624 C240.936,195.872 242.488,194 242.488,191.936 L242.488,191.024 L239.128,191.024 L239.128,190.064 L247,190.064 L247,191.024 L243.672,191.024 L243.672,191.936 C243.672,193.904 245.256,195.648 247.336,196.336 Z M242.328,201.872 L250.76,201.872 L250.76,202.848 L241.176,202.848 L241.176,198.368 L242.328,198.368 L242.328,201.872 Z M258.152,197.584 L258.152,200.384 L261.576,200.384 L261.576,197.584 L258.152,197.584 Z M262.728,200.384 L266.296,200.384 L266.296,201.36 L253.32,201.36 L253.32,200.384 L257.016,200.384 L257.016,197.584 L254.968,197.584 L254.968,193.232 L263.512,193.232 L263.512,190.912 L254.936,190.912 L254.936,189.936 L264.648,189.936 L264.648,194.192 L256.12,194.192 L256.12,196.608 L264.984,196.608 L264.984,197.584 L262.728,197.584 L262.728,200.384 Z M268.824,190.4 L275.336,190.4 C275.336,194.432 273.416,198.112 268.824,200.416 L268.168,199.488 C271.88,197.632 273.896,194.8 274.168,191.376 L268.824,191.376 L268.824,190.4 Z M281.352,194.72 L281.352,195.696 L279,195.696 L279,203.152 L277.832,203.152 L277.832,188.848 L279,188.848 L279,194.72 L281.352,194.72 Z M119.688,214.4 L126.2,214.4 C126.2,218.432 124.28,222.112 119.688,224.416 L119.032,223.488 C122.744,221.632 124.76,218.8 125.032,215.376 L119.688,215.376 L119.688,214.4 Z M132.216,218.72 L132.216,219.696 L129.864,219.696 L129.864,227.152 L128.696,227.152 L128.696,212.848 L129.864,212.848 L129.864,218.72 L132.216,218.72 Z M145.096,216.912 L145.096,217.872 L135.4,217.872 L135.4,213.152 L136.568,213.152 L136.568,216.912 L145.096,216.912 Z M140.088,226.176 C142.392,226.176 143.8,225.568 143.8,224.512 C143.8,223.456 142.408,222.848 140.088,222.848 C137.784,222.848 136.376,223.456 136.376,224.512 C136.376,225.568 137.784,226.176 140.088,226.176 Z M140.088,221.92 C143.144,221.92 144.984,222.864 144.984,224.512 C144.984,226.16 143.144,227.104 140.088,227.104 C137.032,227.104 135.208,226.16 135.208,224.512 C135.208,222.864 137.032,221.92 140.088,221.92 Z M133.64,219.616 L146.568,219.616 L146.568,220.576 L133.64,220.576 L133.64,219.616 Z M156.856,214.368 L156.856,215.328 L148.408,215.328 L148.408,214.368 L152.04,214.368 L152.04,212.704 L153.208,212.704 L153.208,214.368 L156.856,214.368 Z M150.312,218.528 C150.312,219.52 151.24,220.144 152.616,220.144 C153.992,220.144 154.92,219.52 154.92,218.528 C154.92,217.568 153.992,216.928 152.616,216.928 C151.24,216.928 150.312,217.568 150.312,218.528 Z M156.024,218.528 C156.024,220.064 154.664,221.056 152.616,221.056 C150.568,221.056 149.208,220.064 149.208,218.528 C149.208,217.008 150.568,216.032 152.616,216.032 C154.664,216.032 156.024,217.008 156.024,218.528 Z M158.264,226 L158.264,224.32 L151.64,224.32 L151.64,226 L158.264,226 Z M158.264,223.392 L158.264,221.792 L159.416,221.792 L159.416,226.96 L150.472,226.96 L150.472,221.792 L151.64,221.792 L151.64,223.392 L158.264,223.392 Z M161.56,216.544 L161.56,217.52 L159.416,217.52 L159.416,221.152 L158.248,221.152 L158.248,212.864 L159.416,212.864 L159.416,216.544 L161.56,216.544 Z M165.16,214.256 L165.16,222.432 C167.368,222.432 169.608,222.256 172.04,221.76 L172.168,222.752 C169.688,223.28 167.432,223.44 165.16,223.44 L163.992,223.44 L163.992,214.256 L165.16,214.256 Z M173.576,212.864 L174.744,212.864 L174.744,227.152 L173.576,227.152 L173.576,212.864 Z M179.576,215.216 L179.576,222.592 C182.232,222.592 184.056,222.496 186.184,222.096 L186.312,223.104 C184.104,223.504 182.248,223.6 179.512,223.6 L178.408,223.6 L178.408,214.24 L185.048,214.24 L185.048,215.216 L179.576,215.216 Z M191.144,218.56 L191.144,219.536 L188.744,219.536 L188.744,227.184 L187.576,227.184 L187.576,212.848 L188.744,212.848 L188.744,218.56 L191.144,218.56 Z M193.784,226.208 C193.256,226.208 192.808,225.792 192.808,225.184 C192.808,224.544 193.256,224.128 193.784,224.128 C194.328,224.128 194.776,224.544 194.776,225.184 C194.776,225.792 194.328,226.208 193.784,226.208 Z" id="전화주시면-언제나-친절히-상담해-드립" fill="#555555" mask="url(#mask-2)"></path>
                    <path d="M55.3589285,85.45 C55.3589285,87.9 57.2089285,89.75 59.7089285,89.75 C62.2089285,89.75 64.0589285,87.9 64.0589285,85.45 C64.0589285,83.05 62.2089285,81.2 59.7089285,81.2 C57.2089285,81.2 55.3589285,83.05 55.3589285,85.45 Z M70.4589285,83.35 L64.9589285,83.35 C65.1839285,83.975 65.3339285,84.7 65.3339285,85.45 C65.3339285,86.2 65.2089285,86.9 64.9839285,87.525 L70.4589285,87.525 L70.4589285,83.35 Z M70.4589285,88.65 L64.3839285,88.65 C63.3839285,90.05 61.7089285,90.9 59.7089285,90.9 C56.4589285,90.9 54.0839285,88.675 54.0839285,85.45 C54.0839285,82.25 56.4589285,80.025 59.7089285,80.025 C61.6839285,80.025 63.3339285,80.875 64.3589285,82.225 L70.4589285,82.225 L70.4589285,78.55 L71.7839285,78.55 L71.7839285,95.05 L70.4589285,95.05 L70.4589285,88.65 Z M59.2339285,99.075 L72.4589285,99.075 L72.4589285,100.2 L57.9089285,100.2 L57.9089285,93.325 L59.2339285,93.325 L59.2339285,99.075 Z M82.7196428,80.725 L82.7196428,85.25 C82.7196428,88.75 84.8446428,92.575 87.7196428,94.25 L86.8696428,95.275 C84.6946428,93.95 82.9196428,91.35 82.1196428,88.475 C81.3196428,91.625 79.4696428,94.35 77.1946428,95.75 L76.3196428,94.75 C79.2446428,93.075 81.4696428,89.1 81.4696428,85.275 L81.4696428,80.725 L82.7196428,80.725 Z M89.4196428,86.8 L89.4196428,79.1 L90.6946428,79.1 L90.6946428,99.575 L89.4196428,99.575 L89.4196428,87.925 L85.2446428,87.925 L85.2446428,86.8 L89.4196428,86.8 Z M93.9696428,78.55 L95.2446428,78.55 L95.2446428,100.75 L93.9696428,100.75 L93.9696428,78.55 Z M106.355357,82.05 L106.355357,85.775 C106.355357,89.4 109.330357,93.375 112.255357,94.8 L111.480357,95.875 C109.080357,94.6 106.680357,91.8 105.705357,88.675 C104.730357,92.05 102.205357,95.1 99.8053571,96.425 L98.9803571,95.325 C101.855357,93.875 105.055357,89.625 105.055357,85.775 L105.055357,82.05 L99.7303571,82.05 L99.7303571,80.9 L111.580357,80.9 L111.580357,82.05 L106.355357,82.05 Z M120.055357,87.8 L120.055357,88.925 L116.155357,88.925 L116.155357,100.75 L114.830357,100.75 L114.830357,78.55 L116.155357,78.55 L116.155357,87.8 L120.055357,87.8 Z M123.716071,85.45 C123.716071,87.9 125.566071,89.75 128.066071,89.75 C130.566071,89.75 132.416071,87.9 132.416071,85.45 C132.416071,83.05 130.566071,81.2 128.066071,81.2 C125.566071,81.2 123.716071,83.05 123.716071,85.45 Z M138.816071,83.35 L133.316071,83.35 C133.541071,83.975 133.691071,84.7 133.691071,85.45 C133.691071,86.2 133.566071,86.9 133.341071,87.525 L138.816071,87.525 L138.816071,83.35 Z M138.816071,88.65 L132.741071,88.65 C131.741071,90.05 130.066071,90.9 128.066071,90.9 C124.816071,90.9 122.441071,88.675 122.441071,85.45 C122.441071,82.25 124.816071,80.025 128.066071,80.025 C130.041071,80.025 131.691071,80.875 132.716071,82.225 L138.816071,82.225 L138.816071,78.55 L140.141071,78.55 L140.141071,95.05 L138.816071,95.05 L138.816071,88.65 Z M127.591071,99.075 L140.816071,99.075 L140.816071,100.2 L126.266071,100.2 L126.266071,93.325 L127.591071,93.325 L127.591071,99.075 Z M146.201786,80.825 L156.151786,80.825 L156.151786,94.975 L146.201786,94.975 L146.201786,80.825 Z M154.851786,81.925 L147.501786,81.925 L147.501786,93.875 L154.851786,93.875 L154.851786,81.925 Z M161.526786,78.55 L162.851786,78.55 L162.851786,100.75 L161.526786,100.75 L161.526786,78.55 Z M190.573214,93.325 L187.273214,92.95 C188.148214,88.6 188.198214,85.4 188.198214,82.725 L174.773214,82.725 L174.773214,80.1 L191.498214,80.1 L191.498214,82.3 C191.498214,85.175 191.498214,88.425 190.573214,93.325 Z M183.323214,95.725 L193.498214,95.725 L193.498214,98.375 L172.673214,98.375 L172.673214,95.725 L180.023214,95.725 L180.023214,87.8 L183.323214,87.8 L183.323214,95.725 Z M196.283929,79.725 L205.408929,79.725 C205.408929,85.55 202.708929,89.425 196.708929,91.75 L195.183929,89.35 C199.483929,87.775 201.533929,85.45 201.983929,82.35 L196.283929,82.35 L196.283929,79.725 Z M199.108929,95.175 L199.108929,92.525 L215.058929,92.525 L215.058929,101.175 L211.758929,101.175 L211.758929,95.175 L199.108929,95.175 Z M211.933929,78.125 L215.058929,78.125 L215.058929,91.575 L211.933929,91.575 L211.933929,86.1 L209.958929,86.1 L209.958929,91.5 L206.883929,91.5 L206.883929,78.525 L209.958929,78.525 L209.958929,83.45 L211.933929,83.45 L211.933929,78.125 Z M237.844643,78.125 L237.844643,95.35 L234.719643,95.35 L234.719643,78.125 L237.844643,78.125 Z M230.119643,94.675 L230.119643,86.05 L227.394643,86.05 L227.394643,83.375 L230.119643,83.375 L230.119643,78.525 L233.194643,78.525 L233.194643,94.675 L230.119643,94.675 Z M229.444643,89.325 L227.644643,91.85 C225.844643,91 224.644643,89.575 223.919643,87.85 C223.094643,89.8 221.744643,91.45 219.719643,92.4 L217.919643,89.9 C221.069643,88.35 222.269643,85.375 222.269643,82.625 L222.269643,79.675 L225.469643,79.675 L225.469643,82.625 C225.469643,85.325 226.569643,87.925 229.444643,89.325 Z M225.644643,98.125 L238.419643,98.125 L238.419643,100.75 L222.344643,100.75 L222.344643,93.35 L225.644643,93.35 L225.644643,98.125 Z M245.330357,89.025 L245.330357,93.325 C248.430357,93.3 250.955357,93.175 253.780357,92.725 L254.080357,95.375 C250.755357,95.9 247.805357,95.975 243.930357,95.975 L242.055357,95.975 L242.055357,80.05 L252.705357,80.05 L252.705357,82.7 L245.330357,82.7 L245.330357,86.45 L251.930357,86.45 L251.930357,89.025 L245.330357,89.025 Z M257.030357,78.1 L260.330357,78.1 L260.330357,101.2 L257.030357,101.2 L257.030357,88.875 L253.080357,88.875 L253.080357,86.225 L257.030357,86.225 L257.030357,78.1 Z" id="연세자연미-고객센터" fill="#39322D" mask="url(#mask-2)"></path>
                    <g id="textColor" mask="url(#mask-2)" font-family="AppleSDGothicNeo-Regular, Apple SD Gothic Neo" font-size="16" font-weight="normal" letter-spacing="-0.4000001">
                        <g transform="translate(112.000000, 301.000000)" id="↳-text">
                            <text>
                                <tspan x="5.90900035" y="14" fill="#F4F6F8">진료</tspan>
                                <tspan x="32.7890001" y="14" font-family="Montserrat-Regular, Montserrat" fill="#F4F6F8"> </tspan>
                                <tspan x="36.5810001" y="14" fill="#F4F6F8">예약하기</tspan>
                            </text>
                        </g>
                    </g>
                </g>
            </g>
        </g>
    </g>
</svg>