<?xml version="1.0" encoding="UTF-8"?>
<svg width="320px" height="380px" viewBox="0 0 320 380" version="1.1" xmlns="http://www.w3.org/2000/svg" xmlns:xlink="http://www.w3.org/1999/xlink">
    <!-- Generator: Sketch 52.5 (67469) - http://www.bohemiancoding.com/sketch -->
    <title>Group 14</title>
    <desc>Created with Sketch.</desc>
    <defs>
        <rect id="path-1" x="0" y="0" width="326" height="380"></rect>
        <path d="M177.33075,64.0958666 L177.33075,64.4632348 C177.285915,65.8605756 176.729293,67.2437823 175.660883,68.3121917 C174.541467,69.4231917 173.076967,69.970275 171.60405,69.970275 C170.156383,69.970275 168.708717,69.4231917 167.572467,68.3121917 L134.267717,35.0074417 C132.0373,32.777025 132.0373,29.1746917 134.267717,26.944275 C136.498133,24.6886083 140.100467,24.6886083 142.356133,26.944275 L175.660883,60.2406083 C176.729293,61.3130494 177.285915,62.6983566 177.33075,64.0958679 Z M61.5515042,30.9749895 L61.5515042,30.9750427 C61.5514996,32.4332162 60.9938954,33.8913963 59.8786917,35.0066 L26.5739417,68.31135 C25.4629417,69.42235 24.0068583,69.9694333 22.5339417,69.9694333 C21.0694417,69.9694333 19.621775,69.42235 18.5023583,68.31135 C17.4402151,67.2492067 16.8838734,65.8759478 16.8333333,64.486976 L16.8333333,64.0704385 C16.8838734,62.6812764 17.4402151,61.305918 18.5023583,60.2397667 L51.815525,26.9434333 C54.0459417,24.6877667 57.648275,24.6877667 59.8786917,26.9434333 C60.993894,28.0586357 61.5514982,29.5168135 61.5515042,30.9749932 Z M119.941708,106.310075 C123.072708,106.310075 125.631375,108.877158 125.631375,112.033408 C125.631375,115.189658 123.072708,117.739908 119.941708,117.739908 L97.2335417,117.739908 C97.1157083,117.739908 97.0062917,117.680992 96.8800417,117.672575 C96.518125,117.739908 96.189875,117.882992 95.811125,117.882992 C92.6632917,117.882992 90.0962083,115.324325 90.0962083,112.168075 L90.0962083,81.4051583 C90.0962083,78.2489083 92.6632917,75.6902417 95.811125,75.6902417 C98.967375,75.6902417 101.526042,78.2489083 101.526042,81.4051583 L101.526042,106.310075 L119.941708,106.310075 Z M48.5397583,108.06495 C48.5397583,80.7612833 70.742925,58.5665333 98.0213417,58.5665333 C125.325008,58.5665333 147.502925,80.7612833 147.502925,108.06495 C147.502925,135.326533 125.325008,157.521283 98.0213417,157.521283 C70.742925,157.521283 48.5397583,135.326533 48.5397583,108.06495 M147.023783,177.2146 L146.750121,177.2146 C145.323681,177.179903 143.907878,176.609153 142.831675,175.53295 L128.195092,160.896367 C119.290258,165.996867 109.005092,168.959533 98.0213417,168.959533 C86.0612583,168.959533 74.9260083,165.441367 65.5077583,159.457117 L50.5260917,174.413533 C49.4150917,175.53295 47.967425,176.096867 46.4945083,176.096867 C45.0300083,176.096867 43.5570917,175.53295 42.462925,174.413533 C40.240925,172.183117 40.240925,168.580783 42.462925,166.350367 L56.4093417,152.387117 C44.5755083,141.277117 37.1267583,125.53795 37.1267583,108.06495 C37.1267583,74.4572 64.455675,47.1535333 98.0213417,47.1535333 C131.612258,47.1535333 158.941175,74.4572 158.941175,108.06495 C158.941175,126.505867 150.659175,143.027783 137.655425,154.205117 L150.920092,167.469783 C153.150508,169.7002 153.150508,173.294117 150.920092,175.53295 C149.81943,176.609153 148.418656,177.179903 147.023783,177.2146 Z" id="path-3"></path>
    </defs>
    <g id="Page-1" stroke="none" stroke-width="1" fill="none" fill-rule="evenodd">
        <g id="main" transform="translate(0.000000, -4488.000000)">
            <g id="Group-14" transform="translate(0.000000, 4488.000000)">
                <g id="Group-3">
                    <mask id="mask-2" fill="white">
                        <use xlink:href="#path-1"></use>
                    </mask>
                    <rect stroke="#F2F2F2" x="0.5" y="0.5" width="325" height="379"></rect>
                    <g id="icon/clock" opacity="0.08" mask="url(#mask-2)">
                        <g transform="translate(166.000000, -38.000000)">
                            <mask id="mask-4" fill="white">
                                <use xlink:href="#path-3"></use>
                            </mask>
                            <use id="Mask" stroke="none" fill="#231916" fill-rule="evenodd" xlink:href="#path-3"></use>
                            <g id="swatch/white" stroke="none" fill="none" mask="url(#mask-4)" fill-rule="evenodd">
                                <rect id="Rectangle" fill="#FFFFFF" x="0" y="0" width="210" height="202"></rect>
                            </g>
                            <g id="gray/lighten-2" stroke="none" fill="none" mask="url(#mask-4)" fill-rule="nonzero">
                                <rect id="Rectangle-Copy" fill="#636C77" x="0" y="0" width="202" height="202"></rect>
                            </g>
                        </g>
                    </g>
                    <path d="M71.668,101.864 L71.668,112.36 L70.5,112.36 L70.5,101.864 L71.668,101.864 Z M68.692,109.336 L68.1,110.264 C66.436,109.688 65.092,108.472 64.452,106.936 C63.844,108.6 62.484,109.912 60.788,110.536 L60.18,109.624 C62.292,108.872 63.844,107 63.844,104.936 L63.844,104.024 L60.484,104.024 L60.484,103.064 L68.356,103.064 L68.356,104.024 L65.028,104.024 L65.028,104.936 C65.028,106.904 66.612,108.648 68.692,109.336 Z M63.684,114.872 L72.116,114.872 L72.116,115.848 L62.532,115.848 L62.532,111.368 L63.684,111.368 L63.684,114.872 Z M79.508,110.584 L79.508,113.384 L82.932,113.384 L82.932,110.584 L79.508,110.584 Z M84.084,113.384 L87.652,113.384 L87.652,114.36 L74.676,114.36 L74.676,113.384 L78.372,113.384 L78.372,110.584 L76.324,110.584 L76.324,106.232 L84.868,106.232 L84.868,103.912 L76.292,103.912 L76.292,102.936 L86.004,102.936 L86.004,107.192 L77.476,107.192 L77.476,109.608 L86.34,109.608 L86.34,110.584 L84.084,110.584 L84.084,113.384 Z M94.388,103.128 L94.388,105.784 C94.388,108.392 96.196,111.016 98.244,111.976 L97.556,112.904 C95.94,112.104 94.5,110.36 93.812,108.28 C93.172,110.472 91.716,112.296 90.068,113.16 L89.348,112.2 C91.412,111.224 93.236,108.488 93.236,105.784 L93.236,103.128 L94.388,103.128 Z M99.908,101.848 L101.076,101.848 L101.076,116.184 L99.908,116.184 L99.908,101.848 Z M104.74,102.968 L111.364,102.968 C111.364,106.632 108.724,109.352 104.644,110.664 L104.164,109.72 C107.588,108.632 109.86,106.536 110.116,103.928 L104.74,103.928 L104.74,102.968 Z M107.492,111.288 L107.492,114.872 L115.844,114.872 L115.844,115.848 L106.34,115.848 L106.34,111.288 L107.492,111.288 Z M115.188,106.264 L117.332,106.264 L117.332,107.24 L115.188,107.24 L115.188,112.344 L114.02,112.344 L114.02,101.848 L115.188,101.848 L115.188,106.264 Z M125.3,103 C122.9,103 121.492,103.592 121.492,104.6 C121.492,105.608 122.9,106.184 125.3,106.184 C127.684,106.184 129.108,105.608 129.108,104.6 C129.108,103.592 127.684,103 125.3,103 Z M125.3,107.08 C122.164,107.08 120.292,106.184 120.292,104.6 C120.292,103 122.164,102.104 125.3,102.104 C128.436,102.104 130.292,103 130.292,104.6 C130.292,106.184 128.436,107.08 125.3,107.08 Z M121.604,113.496 L121.604,115.048 L130.532,115.048 L130.532,115.992 L120.468,115.992 L120.468,112.632 L128.948,112.632 L128.948,111.256 L120.42,111.256 L120.42,110.36 L130.1,110.36 L130.1,113.496 L121.604,113.496 Z M118.852,108.088 L131.78,108.088 L131.78,109.048 L118.852,109.048 L118.852,108.088 Z M137.972,103.272 L144.5,103.272 L144.5,112.52 L137.972,112.52 L137.972,103.272 Z M143.348,104.232 L139.108,104.232 L139.108,111.576 L143.348,111.576 L143.348,104.232 Z M147.636,101.848 L148.804,101.848 L148.804,116.184 L147.636,116.184 L147.636,101.848 Z M153.876,108.232 L153.876,111.72 C156.244,111.72 158.388,111.608 160.98,111.192 L161.092,112.184 C158.452,112.584 156.292,112.696 153.876,112.696 L152.692,112.696 L152.692,107.272 L158.068,107.272 L158.068,104.168 L152.66,104.168 L152.66,103.192 L159.236,103.192 L159.236,108.232 L153.876,108.232 Z M162.388,101.832 L163.556,101.832 L163.556,116.168 L162.388,116.168 L162.388,101.832 Z M174.244,105.496 L174.244,106.264 C174.244,108.568 175.476,110.952 177.38,111.992 L176.708,112.872 C175.284,112.072 174.228,110.552 173.7,108.792 C173.204,110.664 172.164,112.312 170.74,113.192 L170.052,112.296 C171.956,111.176 173.14,108.632 173.14,106.264 L173.14,105.496 L170.404,105.496 L170.404,104.52 L173.14,104.52 L173.14,102.36 L174.26,102.36 L174.26,104.52 L176.964,104.52 L176.964,105.496 L174.244,105.496 Z M178.276,107.544 L178.276,102.2 L179.38,102.2 L179.38,115.4 L178.276,115.4 L178.276,108.52 L175.972,108.52 L175.972,107.544 L178.276,107.544 Z M181.124,101.848 L182.244,101.848 L182.244,116.152 L181.124,116.152 L181.124,101.848 Z M186.052,107.72 L194.98,107.336 C195.012,106.584 195.012,105.864 195.012,105.144 L195.012,104.328 L186.42,104.328 L186.42,103.352 L196.148,103.352 L196.148,105.144 C196.148,107.24 196.148,109.176 195.572,112.072 L194.404,111.96 C194.724,110.568 194.868,109.352 194.932,108.216 L186.228,108.712 L186.052,107.72 Z M184.868,113.144 L197.796,113.144 L197.796,114.12 L184.868,114.12 L184.868,113.144 Z M203.124,111.816 C204.308,111.816 205.156,110.888 205.156,109.576 C205.156,108.28 204.308,107.32 203.124,107.32 C201.972,107.32 201.124,108.28 201.124,109.576 C201.124,110.888 201.972,111.816 203.124,111.816 Z M203.124,106.328 C204.916,106.328 206.196,107.656 206.196,109.576 C206.196,111.496 204.916,112.808 203.124,112.808 C201.348,112.808 200.084,111.496 200.084,109.576 C200.084,107.656 201.348,106.328 203.124,106.328 Z M203.7,102.264 L203.7,104.36 L206.708,104.36 L206.708,105.336 L199.556,105.336 L199.556,104.36 L202.548,104.36 L202.548,102.264 L203.7,102.264 Z M210.532,101.848 L211.652,101.848 L211.652,116.152 L210.532,116.152 L210.532,108.904 L208.564,108.904 L208.564,115.448 L207.46,115.448 L207.46,102.2 L208.564,102.2 L208.564,107.928 L210.532,107.928 L210.532,101.848 Z M215.54,108.76 L215.092,107.832 C217.492,107.48 220.116,105.832 220.116,103.88 L220.116,103.736 L215.54,103.736 L215.54,102.76 L225.972,102.76 L225.972,103.736 L221.428,103.736 L221.428,103.88 C221.428,105.832 224.052,107.48 226.436,107.832 L225.988,108.76 C223.844,108.376 221.62,107.176 220.756,105.416 C219.908,107.176 217.684,108.376 215.54,108.76 Z M227.236,110.04 L227.236,111.016 L221.332,111.016 L221.332,116.152 L220.164,116.152 L220.164,111.016 L214.308,111.016 L214.308,110.04 L227.236,110.04 Z M233.188,103.208 L233.188,105.976 C233.188,108.232 234.356,110.696 236.212,111.816 L235.54,112.712 C234.164,111.88 233.156,110.328 232.644,108.568 C232.132,110.504 231.06,112.152 229.604,113.032 L228.868,112.152 C230.804,111.016 232.068,108.456 232.068,106.008 L232.068,103.208 L233.188,103.208 Z M237.124,107.032 L237.124,102.184 L238.228,102.184 L238.228,115.432 L237.124,115.432 L237.124,108.008 L234.66,108.008 L234.66,107.032 L237.124,107.032 Z M240.02,101.848 L241.14,101.848 L241.14,116.152 L240.02,116.152 L240.02,101.848 Z M248.132,109.864 L248.132,113.32 L252.292,113.32 L252.292,109.848 C251.668,110.008 250.948,110.104 250.196,110.104 C249.46,110.104 248.756,110.008 248.132,109.864 Z M246.132,106.456 C246.132,108.072 247.844,109.16 250.196,109.16 C252.548,109.16 254.26,108.072 254.26,106.456 C254.26,104.824 252.548,103.736 250.196,103.736 C247.844,103.736 246.132,104.824 246.132,106.456 Z M253.444,113.32 L256.724,113.32 L256.724,114.296 L243.716,114.296 L243.716,113.32 L246.964,113.32 L246.964,109.4 C245.748,108.776 245.012,107.752 245.012,106.456 C245.012,104.232 247.172,102.792 250.196,102.792 C253.22,102.792 255.364,104.232 255.364,106.456 C255.364,107.752 254.644,108.76 253.444,109.4 L253.444,113.32 Z M259.732,115.208 C259.204,115.208 258.756,114.792 258.756,114.184 C258.756,113.544 259.204,113.128 259.732,113.128 C260.276,113.128 260.724,113.544 260.724,114.184 C260.724,114.792 260.276,115.208 259.732,115.208 Z" id="진료시간을-미리-체크해주세요." fill="#555555" mask="url(#mask-2)"></path>
                    <g id="Group-11" mask="url(#mask-2)">
                        <g transform="translate(29.000000, 158.000000)">
                            <path d="M4.12,33.38 C4.12,35.34 6.06,36.58 8.76,36.58 C11.44,36.58 13.38,35.34 13.38,33.38 C13.38,31.42 11.44,30.18 8.76,30.18 C6.06,30.18 4.12,31.42 4.12,33.38 Z M9.78,41.64 L16.96,41.64 L16.96,43.32 L0.6,43.32 L0.6,41.64 L7.72,41.64 L7.72,38.18 C4.42,37.88 2.12,36.06 2.12,33.38 C2.12,30.44 4.92,28.54 8.76,28.54 C12.58,28.54 15.4,30.44 15.4,33.38 C15.4,36.06 13.08,37.9 9.78,38.2 L9.78,41.64 Z M28.62,32.32 L31.9,32.32 L31.9,27.5 L33.96,27.5 L33.96,40.7 L31.9,40.7 L31.9,34.02 L28.62,34.02 L28.62,32.32 Z M29.74,36.54 L28.72,38.14 C26.72,37.46 25.26,36.04 24.5,34.26 C23.7,36.22 22.18,37.8 20.04,38.54 L18.98,36.92 C21.78,35.94 23.42,33.56 23.42,31.12 L23.42,30.5 L19.6,30.5 L19.6,28.84 L29.26,28.84 L29.26,30.5 L25.5,30.5 L25.5,31.12 C25.5,33.34 27.04,35.6 29.74,36.54 Z M24.32,43.52 L34.42,43.52 L34.42,45.2 L22.26,45.2 L22.26,39.56 L24.32,39.56 L24.32,43.52 Z M43.14,41.04 C43.5533354,41.3200014 44.026664,41.5366659 44.56,41.69 C45.093336,41.8433341 45.626664,41.92 46.16,41.92 C47.4133396,41.92 48.3533302,41.5033375 48.98,40.67 C49.6066698,39.8366625 49.9066668,38.6933406 49.88,37.24 C49.5199982,37.840003 49.0266698,38.2999984 48.4,38.62 C47.7733302,38.9400016 47.0400042,39.1 46.2,39.1 C44.8266598,39.1 43.740004,38.6933374 42.94,37.88 C42.139996,37.0666626 41.74,35.9733402 41.74,34.6 C41.74,33.6399952 41.9433313,32.8066702 42.35,32.1 C42.7566687,31.3933298 43.3333296,30.8466686 44.08,30.46 C44.8266704,30.0733314 45.699995,29.88 46.7,29.88 C47.8866726,29.88 48.9099957,30.1533306 49.77,30.7 C50.6300043,31.2466694 51.2899977,32.0333282 51.75,33.06 C52.2100023,34.0866718 52.44,35.3066596 52.44,36.72 C52.44,38.2000074 52.1900025,39.4999944 51.69,40.62 C51.1899975,41.7400056 50.4800046,42.6033303 49.56,43.21 C48.6399954,43.8166697 47.5666728,44.12 46.34,44.12 C45.6333298,44.12 44.8966705,44.020001 44.13,43.82 C43.3633295,43.619999 42.6866696,43.353335 42.1,43.02 L43.14,41.04 Z M46.82,32.14 C46.0333294,32.14 45.4000024,32.3599978 44.92,32.8 C44.4399976,33.2400022 44.2,33.8466628 44.2,34.62 C44.2,35.3666704 44.4266644,35.9533312 44.88,36.38 C45.3333356,36.8066688 45.9533294,37.02 46.74,37.02 C47.5933376,37.02 48.2666642,36.7833357 48.76,36.31 C49.2533358,35.8366643 49.4933334,35.2466702 49.48,34.54 C49.4933334,33.8999968 49.2700023,33.3400024 48.81,32.86 C48.3499977,32.3799976 47.686671,32.14 46.82,32.14 Z M61.18,28.98 L61.18,31.94 C61.18,35.26 63.02,38.58 65.86,39.86 L64.66,41.5 C62.58,40.52 61,38.52 60.18,36.08 C59.36,38.7 57.76,40.84 55.58,41.9 L54.36,40.18 C57.24,38.88 59.12,35.42 59.12,31.94 L59.12,28.98 L61.18,28.98 Z M67.3,27.46 L69.38,27.46 L69.38,45.58 L67.3,45.58 L67.3,27.46 Z M83.12,35.84 C84.4133398,35.9600006 85.4433295,36.35333 86.21,37.02 C86.9766705,37.68667 87.36,38.5599946 87.36,39.64 C87.36,40.5200044 87.1333356,41.2966633 86.68,41.97 C86.2266644,42.6433367 85.5800042,43.1699981 84.74,43.55 C83.8999958,43.9300019 82.9200056,44.12 81.8,44.12 C80.8533286,44.12 79.9166713,43.9766681 78.99,43.69 C78.0633287,43.4033319 77.2733366,43.0200024 76.62,42.54 L77.68,40.46 C78.2400028,40.926669 78.8599966,41.2833321 79.54,41.53 C80.2200034,41.7766679 80.9133298,41.9 81.62,41.9 C82.5933382,41.9 83.3566639,41.700002 83.91,41.3 C84.4633361,40.899998 84.74,40.3600034 84.74,39.68 C84.74,38.9866632 84.4666694,38.4566685 83.92,38.09 C83.3733306,37.7233315 82.5933384,37.54 81.58,37.54 L79.46,37.54 L79.46,35.92 L83.22,32.28 L77.32,32.28 L77.3,30 L86.66,30 L86.66,31.66 L82.38,35.76 L83.12,35.84 Z M95.34,29.88 C97.273343,29.88 98.7599948,30.4933272 99.8,31.72 C100.840005,32.9466728 101.36,34.7066552 101.36,37 C101.36,39.2800114 100.840005,41.0333272 99.8,42.26 C98.7599948,43.4866728 97.273343,44.1 95.34,44.1 C93.406657,44.1 91.9200052,43.4866728 90.88,42.26 C89.8399948,41.0333272 89.32,39.2800114 89.32,37 C89.32,34.7066552 89.8399948,32.9466728 90.88,31.72 C91.9200052,30.4933272 93.406657,29.88 95.34,29.88 Z M95.34,32 C94.2333278,32 93.413336,32.4033293 92.88,33.21 C92.346664,34.0166707 92.08,35.2799914 92.08,37 C92.08,38.7066752 92.346664,39.9666626 92.88,40.78 C93.413336,41.5933374 94.2333278,42 95.34,42 C96.4466722,42 97.266664,41.5933374 97.8,40.78 C98.333336,39.9666626 98.6,38.7066752 98.6,37 C98.6,35.2799914 98.333336,34.0166707 97.8,33.21 C97.266664,32.4033293 96.4466722,32 95.34,32 Z M115.58,33.74 L115.58,31.72 L107.54,31.72 L107.54,33.74 L115.58,33.74 Z M117.62,28.04 L117.62,35.36 L105.5,35.36 L105.5,28.04 L107.54,28.04 L107.54,30.14 L115.58,30.14 L115.58,28.04 L117.62,28.04 Z M107.44,40.26 L107.44,43.52 L117.94,43.52 L117.94,45.2 L105.38,45.2 L105.38,40.26 L107.44,40.26 Z M103.38,36.88 L119.76,36.88 L119.76,38.54 L112.76,38.54 L112.76,41.76 L110.7,41.76 L110.7,38.54 L103.38,38.54 L103.38,36.88 Z M132.94,38.34 C131.12,38.34 130.24,36.5 128.98,36.5 C128.34,36.5 127.78,36.92 127.28,37.84 L126.04,36.94 C126.94,35.42 128,34.82 129.02,34.82 C130.82,34.82 131.72,36.66 132.98,36.66 C133.62,36.66 134.16,36.24 134.66,35.32 L135.92,36.24 C135,37.72 133.94,38.34 132.94,38.34 Z M145.72,33.38 C145.72,35.34 147.66,36.58 150.36,36.58 C153.04,36.58 154.98,35.34 154.98,33.38 C154.98,31.42 153.04,30.18 150.36,30.18 C147.66,30.18 145.72,31.42 145.72,33.38 Z M151.38,41.64 L158.56,41.64 L158.56,43.32 L142.2,43.32 L142.2,41.64 L149.32,41.64 L149.32,38.18 C146.02,37.88 143.72,36.06 143.72,33.38 C143.72,30.44 146.52,28.54 150.36,28.54 C154.18,28.54 157,30.44 157,33.38 C157,36.06 154.68,37.9 151.38,38.2 L151.38,41.64 Z M176.02,29.46 L176.02,31.1 L161.4,31.1 L161.4,29.46 L167.72,29.46 L167.72,27.42 L169.78,27.42 L169.78,29.46 L176.02,29.46 Z M172.62,35.04 C172.62,34.06 171.28,33.54 168.76,33.54 C166.24,33.54 164.88,34.06 164.88,35.04 C164.88,36.02 166.24,36.56 168.76,36.56 C171.28,36.56 172.62,36.02 172.62,35.04 Z M162.74,35.04 C162.74,33.08 165,31.98 168.76,31.98 C172.52,31.98 174.78,33.08 174.78,35.04 C174.78,37 172.52,38.1 168.76,38.1 C165,38.1 162.74,37 162.74,35.04 Z M176.96,39.18 L176.96,40.84 L169.78,40.84 L169.78,45.56 L167.72,45.56 L167.72,40.84 L160.58,40.84 L160.58,39.18 L176.96,39.18 Z M192.78,32.96 C192.366665,32.6666652 191.890003,32.4433341 191.35,32.29 C190.809997,32.1366659 190.266669,32.06 189.72,32.06 C188.46666,32.06 187.523337,32.4799958 186.89,33.32 C186.256664,34.1600042 185.96,35.3066594 186,36.76 C186.360002,36.1466636 186.849997,35.6833349 187.47,35.37 C188.090003,35.0566651 188.826662,34.9 189.68,34.9 C191.066674,34.9 192.166663,35.3066626 192.98,36.12 C193.793337,36.9333374 194.2,38.0199932 194.2,39.38 C194.2,40.3400048 193.993335,41.1766631 193.58,41.89 C193.166665,42.6033369 192.583337,43.1533314 191.83,43.54 C191.076663,43.9266686 190.200005,44.12 189.2,44.12 C188.013327,44.12 186.986671,43.8466694 186.12,43.3 C185.253329,42.7533306 184.590002,41.9666718 184.13,40.94 C183.669998,39.9133282 183.44,38.6866738 183.44,37.26 C183.44,35.7799926 183.689998,34.4833389 184.19,33.37 C184.690003,32.2566611 185.399995,31.3966697 186.32,30.79 C187.240005,30.1833303 188.319994,29.88 189.56,29.88 C190.280004,29.88 191.02333,29.9766657 191.79,30.17 C192.556671,30.3633343 193.226664,30.626665 193.8,30.96 L192.78,32.96 Z M189.16,36.96 C188.306662,36.96 187.626669,37.1999976 187.12,37.68 C186.613331,38.1600024 186.366667,38.7533298 186.38,39.46 C186.366667,39.860002 186.459999,40.2433315 186.66,40.61 C186.860001,40.9766685 187.163331,41.2766655 187.57,41.51 C187.976669,41.7433345 188.479997,41.86 189.08,41.86 C189.880004,41.86 190.519998,41.6400022 191,41.2 C191.480002,40.7599978 191.72,40.1466706 191.72,39.36 C191.72,38.626663 191.490002,38.0433355 191.03,37.61 C190.569998,37.1766645 189.946671,36.96 189.16,36.96 Z M202.82,28.98 L202.82,31.94 C202.82,35.26 204.66,38.58 207.5,39.86 L206.3,41.5 C204.22,40.52 202.64,38.52 201.82,36.08 C201,38.7 199.4,40.84 197.22,41.9 L196,40.18 C198.88,38.88 200.76,35.42 200.76,31.94 L200.76,28.98 L202.82,28.98 Z M208.94,27.46 L211.02,27.46 L211.02,45.58 L208.94,45.58 L208.94,27.46 Z M224.76,35.84 C226.05334,35.9600006 227.08333,36.35333 227.85,37.02 C228.616671,37.68667 229,38.5599946 229,39.64 C229,40.5200044 228.773336,41.2966633 228.32,41.97 C227.866664,42.6433367 227.220004,43.1699981 226.38,43.55 C225.539996,43.9300019 224.560006,44.12 223.44,44.12 C222.493329,44.12 221.556671,43.9766681 220.63,43.69 C219.703329,43.4033319 218.913337,43.0200024 218.26,42.54 L219.32,40.46 C219.880003,40.926669 220.499997,41.2833321 221.18,41.53 C221.860003,41.7766679 222.55333,41.9 223.26,41.9 C224.233338,41.9 224.996664,41.700002 225.55,41.3 C226.103336,40.899998 226.38,40.3600034 226.38,39.68 C226.38,38.9866632 226.106669,38.4566685 225.56,38.09 C225.013331,37.7233315 224.233338,37.54 223.22,37.54 L221.1,37.54 L221.1,35.92 L224.86,32.28 L218.96,32.28 L218.94,30 L228.3,30 L228.3,31.66 L224.02,35.76 L224.76,35.84 Z M236.98,29.88 C238.913343,29.88 240.399995,30.4933272 241.44,31.72 C242.480005,32.9466728 243,34.7066552 243,37 C243,39.2800114 242.480005,41.0333272 241.44,42.26 C240.399995,43.4866728 238.913343,44.1 236.98,44.1 C235.046657,44.1 233.560005,43.4866728 232.52,42.26 C231.479995,41.0333272 230.96,39.2800114 230.96,37 C230.96,34.7066552 231.479995,32.9466728 232.52,31.72 C233.560005,30.4933272 235.046657,29.88 236.98,29.88 Z M236.98,32 C235.873328,32 235.053336,32.4033293 234.52,33.21 C233.986664,34.0166707 233.72,35.2799914 233.72,37 C233.72,38.7066752 233.986664,39.9666626 234.52,40.78 C235.053336,41.5933374 235.873328,42 236.98,42 C238.086672,42 238.906664,41.5933374 239.44,40.78 C239.973336,39.9666626 240.24,38.7066752 240.24,37 C240.24,35.2799914 239.973336,34.0166707 239.44,33.21 C238.906664,32.4033293 238.086672,32 236.98,32 Z M257.22,33.74 L257.22,31.72 L249.18,31.72 L249.18,33.74 L257.22,33.74 Z M259.26,28.04 L259.26,35.36 L247.14,35.36 L247.14,28.04 L249.18,28.04 L249.18,30.14 L257.22,30.14 L257.22,28.04 L259.26,28.04 Z M249.08,40.26 L249.08,43.52 L259.58,43.52 L259.58,45.2 L247.02,45.2 L247.02,40.26 L249.08,40.26 Z M245.02,36.88 L261.4,36.88 L261.4,38.54 L254.4,38.54 L254.4,41.76 L252.34,41.76 L252.34,38.54 L245.02,38.54 L245.02,36.88 Z" id="오전-9시-30분-~-오후-6시-30" fill="#39322D"></path>
                            <path d="M29.07,99.38 C29.07,101.34 31.01,102.58 33.71,102.58 C36.39,102.58 38.33,101.34 38.33,99.38 C38.33,97.42 36.39,96.18 33.71,96.18 C31.01,96.18 29.07,97.42 29.07,99.38 Z M34.73,107.64 L41.91,107.64 L41.91,109.32 L25.55,109.32 L25.55,107.64 L32.67,107.64 L32.67,104.18 C29.37,103.88 27.07,102.06 27.07,99.38 C27.07,96.44 29.87,94.54 33.71,94.54 C37.53,94.54 40.35,96.44 40.35,99.38 C40.35,102.06 38.03,103.9 34.73,104.2 L34.73,107.64 Z M53.57,98.32 L56.85,98.32 L56.85,93.5 L58.91,93.5 L58.91,106.7 L56.85,106.7 L56.85,100.02 L53.57,100.02 L53.57,98.32 Z M54.69,102.54 L53.67,104.14 C51.67,103.46 50.21,102.04 49.45,100.26 C48.65,102.22 47.13,103.8 44.99,104.54 L43.93,102.92 C46.73,101.94 48.37,99.56 48.37,97.12 L48.37,96.5 L44.55,96.5 L44.55,94.84 L54.21,94.84 L54.21,96.5 L50.45,96.5 L50.45,97.12 C50.45,99.34 51.99,101.6 54.69,102.54 Z M49.27,109.52 L59.37,109.52 L59.37,111.2 L47.21,111.2 L47.21,105.56 L49.27,105.56 L49.27,109.52 Z M68.09,107.04 C68.5033354,107.320001 68.976664,107.536666 69.51,107.69 C70.043336,107.843334 70.576664,107.92 71.11,107.92 C72.3633396,107.92 73.3033302,107.503338 73.93,106.67 C74.5566698,105.836663 74.8566668,104.693341 74.83,103.24 C74.4699982,103.840003 73.9766698,104.299998 73.35,104.62 C72.7233302,104.940002 71.9900042,105.1 71.15,105.1 C69.7766598,105.1 68.690004,104.693337 67.89,103.88 C67.089996,103.066663 66.69,101.97334 66.69,100.6 C66.69,99.6399952 66.8933313,98.8066702 67.3,98.1 C67.7066687,97.3933298 68.2833296,96.8466686 69.03,96.46 C69.7766704,96.0733314 70.649995,95.88 71.65,95.88 C72.8366726,95.88 73.8599957,96.1533306 74.72,96.7 C75.5800043,97.2466694 76.2399977,98.0333282 76.7,99.06 C77.1600023,100.086672 77.39,101.30666 77.39,102.72 C77.39,104.200007 77.1400025,105.499994 76.64,106.62 C76.1399975,107.740006 75.4300046,108.60333 74.51,109.21 C73.5899954,109.81667 72.5166728,110.12 71.29,110.12 C70.5833298,110.12 69.8466705,110.020001 69.08,109.82 C68.3133295,109.619999 67.6366696,109.353335 67.05,109.02 L68.09,107.04 Z M71.77,98.14 C70.9833294,98.14 70.3500024,98.3599978 69.87,98.8 C69.3899976,99.2400022 69.15,99.8466628 69.15,100.62 C69.15,101.36667 69.3766644,101.953331 69.83,102.38 C70.2833356,102.806669 70.9033294,103.02 71.69,103.02 C72.5433376,103.02 73.2166642,102.783336 73.71,102.31 C74.2033358,101.836664 74.4433334,101.24667 74.43,100.54 C74.4433334,99.8999968 74.2200023,99.3400024 73.76,98.86 C73.2999977,98.3799976 72.636671,98.14 71.77,98.14 Z M86.13,94.98 L86.13,97.94 C86.13,101.26 87.97,104.58 90.81,105.86 L89.61,107.5 C87.53,106.52 85.95,104.52 85.13,102.08 C84.31,104.7 82.71,106.84 80.53,107.9 L79.31,106.18 C82.19,104.88 84.07,101.42 84.07,97.94 L84.07,94.98 L86.13,94.98 Z M92.25,93.46 L94.33,93.46 L94.33,111.58 L92.25,111.58 L92.25,93.46 Z M108.07,101.84 C109.36334,101.960001 110.393329,102.35333 111.16,103.02 C111.92667,103.68667 112.31,104.559995 112.31,105.64 C112.31,106.520004 112.083336,107.296663 111.63,107.97 C111.176664,108.643337 110.530004,109.169998 109.69,109.55 C108.849996,109.930002 107.870006,110.12 106.75,110.12 C105.803329,110.12 104.866671,109.976668 103.94,109.69 C103.013329,109.403332 102.223337,109.020002 101.57,108.54 L102.63,106.46 C103.190003,106.926669 103.809997,107.283332 104.49,107.53 C105.170003,107.776668 105.86333,107.9 106.57,107.9 C107.543338,107.9 108.306664,107.700002 108.86,107.3 C109.413336,106.899998 109.69,106.360003 109.69,105.68 C109.69,104.986663 109.416669,104.456669 108.87,104.09 C108.323331,103.723332 107.543338,103.54 106.53,103.54 L104.41,103.54 L104.41,101.92 L108.17,98.28 L102.27,98.28 L102.25,96 L111.61,96 L111.61,97.66 L107.33,101.76 L108.07,101.84 Z M120.29,95.88 C122.223343,95.88 123.709995,96.4933272 124.75,97.72 C125.790005,98.9466728 126.31,100.706655 126.31,103 C126.31,105.280011 125.790005,107.033327 124.75,108.26 C123.709995,109.486673 122.223343,110.1 120.29,110.1 C118.356657,110.1 116.870005,109.486673 115.83,108.26 C114.789995,107.033327 114.27,105.280011 114.27,103 C114.27,100.706655 114.789995,98.9466728 115.83,97.72 C116.870005,96.4933272 118.356657,95.88 120.29,95.88 Z M120.29,98 C119.183328,98 118.363336,98.4033293 117.83,99.21 C117.296664,100.016671 117.03,101.279991 117.03,103 C117.03,104.706675 117.296664,105.966663 117.83,106.78 C118.363336,107.593337 119.183328,108 120.29,108 C121.396672,108 122.216664,107.593337 122.75,106.78 C123.283336,105.966663 123.55,104.706675 123.55,103 C123.55,101.279991 123.283336,100.016671 122.75,99.21 C122.216664,98.4033293 121.396672,98 120.29,98 Z M140.53,99.74 L140.53,97.72 L132.49,97.72 L132.49,99.74 L140.53,99.74 Z M142.57,94.04 L142.57,101.36 L130.45,101.36 L130.45,94.04 L132.49,94.04 L132.49,96.14 L140.53,96.14 L140.53,94.04 L142.57,94.04 Z M132.39,106.26 L132.39,109.52 L142.89,109.52 L142.89,111.2 L130.33,111.2 L130.33,106.26 L132.39,106.26 Z M128.33,102.88 L144.71,102.88 L144.71,104.54 L137.71,104.54 L137.71,107.76 L135.65,107.76 L135.65,104.54 L128.33,104.54 L128.33,102.88 Z M157.89,104.34 C156.07,104.34 155.19,102.5 153.93,102.5 C153.29,102.5 152.73,102.92 152.23,103.84 L150.99,102.94 C151.89,101.42 152.95,100.82 153.97,100.82 C155.77,100.82 156.67,102.66 157.93,102.66 C158.57,102.66 159.11,102.24 159.61,101.32 L160.87,102.24 C159.95,103.72 158.89,104.34 157.89,104.34 Z M170.67,99.38 C170.67,101.34 172.61,102.58 175.31,102.58 C177.99,102.58 179.93,101.34 179.93,99.38 C179.93,97.42 177.99,96.18 175.31,96.18 C172.61,96.18 170.67,97.42 170.67,99.38 Z M176.33,107.64 L183.51,107.64 L183.51,109.32 L167.15,109.32 L167.15,107.64 L174.27,107.64 L174.27,104.18 C170.97,103.88 168.67,102.06 168.67,99.38 C168.67,96.44 171.47,94.54 175.31,94.54 C179.13,94.54 181.95,96.44 181.95,99.38 C181.95,102.06 179.63,103.9 176.33,104.2 L176.33,107.64 Z M200.97,95.46 L200.97,97.1 L186.35,97.1 L186.35,95.46 L192.67,95.46 L192.67,93.42 L194.73,93.42 L194.73,95.46 L200.97,95.46 Z M197.57,101.04 C197.57,100.06 196.23,99.54 193.71,99.54 C191.19,99.54 189.83,100.06 189.83,101.04 C189.83,102.02 191.19,102.56 193.71,102.56 C196.23,102.56 197.57,102.02 197.57,101.04 Z M187.69,101.04 C187.69,99.08 189.95,97.98 193.71,97.98 C197.47,97.98 199.73,99.08 199.73,101.04 C199.73,103 197.47,104.1 193.71,104.1 C189.95,104.1 187.69,103 187.69,101.04 Z M201.91,105.18 L201.91,106.84 L194.73,106.84 L194.73,111.56 L192.67,111.56 L192.67,106.84 L185.53,106.84 L185.53,105.18 L201.91,105.18 Z M213.71,95.88 C215.176674,95.88 216.333329,96.2099967 217.18,96.87 C218.026671,97.5300033 218.45,98.426661 218.45,99.56 C218.45,100.200003 218.276668,100.779997 217.93,101.3 C217.583332,101.820003 217.103336,102.226665 216.49,102.52 C217.316671,102.826668 217.966664,103.29333 218.44,103.92 C218.913336,104.54667 219.15,105.266663 219.15,106.08 C219.15,106.893337 218.930002,107.606664 218.49,108.22 C218.049998,108.833336 217.420004,109.303332 216.6,109.63 C215.779996,109.956668 214.823339,110.12 213.73,110.12 C212.636661,110.12 211.680004,109.956668 210.86,109.63 C210.039996,109.303332 209.410002,108.840003 208.97,108.24 C208.529998,107.639997 208.31,106.933337 208.31,106.12 C208.31,105.293329 208.556664,104.563337 209.05,103.93 C209.543336,103.296664 210.223329,102.826668 211.09,102.52 C210.436663,102.199998 209.926668,101.773336 209.56,101.24 C209.193331,100.706664 209.01,100.113337 209.01,99.46 C209.01,98.3666612 209.433329,97.4966699 210.28,96.85 C211.126671,96.2033301 212.269993,95.88 213.71,95.88 Z M213.73,97.8 C212.956663,97.8 212.353335,97.966665 211.92,98.3 C211.486664,98.633335 211.27,99.099997 211.27,99.7 C211.27,100.300003 211.486664,100.766665 211.92,101.1 C212.353335,101.433335 212.956663,101.6 213.73,101.6 C214.503337,101.6 215.103331,101.433335 215.53,101.1 C215.956669,100.766665 216.17,100.300003 216.17,99.7 C216.17,99.099997 215.956669,98.633335 215.53,98.3 C215.103331,97.966665 214.503337,97.8 213.73,97.8 Z M213.71,103.68 C212.803329,103.68 212.096669,103.866665 211.59,104.24 C211.083331,104.613335 210.83,105.139997 210.83,105.82 C210.83,106.513337 211.083331,107.053331 211.59,107.44 C212.096669,107.826669 212.809995,108.02 213.73,108.02 C214.636671,108.02 215.346664,107.830002 215.86,107.45 C216.373336,107.069998 216.63,106.533337 216.63,105.84 C216.63,105.159997 216.373336,104.630002 215.86,104.25 C215.346664,103.869998 214.630005,103.68 213.71,103.68 Z M227.75,94.98 L227.75,97.94 C227.75,101.26 229.59,104.58 232.43,105.86 L231.23,107.5 C229.15,106.52 227.57,104.52 226.75,102.08 C225.93,104.7 224.33,106.84 222.15,107.9 L220.93,106.18 C223.81,104.88 225.69,101.42 225.69,97.94 L225.69,94.98 L227.75,94.98 Z M233.87,93.46 L235.95,93.46 L235.95,111.58 L233.87,111.58 L233.87,93.46 Z" id="오전-9시-30분-~-오후-8시" fill="#39322D"></path>
                            <path d="M28.99,165.38 C28.99,167.34 30.93,168.58 33.63,168.58 C36.31,168.58 38.25,167.34 38.25,165.38 C38.25,163.42 36.31,162.18 33.63,162.18 C30.93,162.18 28.99,163.42 28.99,165.38 Z M34.65,173.64 L41.83,173.64 L41.83,175.32 L25.47,175.32 L25.47,173.64 L32.59,173.64 L32.59,170.18 C29.29,169.88 26.99,168.06 26.99,165.38 C26.99,162.44 29.79,160.54 33.63,160.54 C37.45,160.54 40.27,162.44 40.27,165.38 C40.27,168.06 37.95,169.9 34.65,170.2 L34.65,173.64 Z M53.49,164.32 L56.77,164.32 L56.77,159.5 L58.83,159.5 L58.83,172.7 L56.77,172.7 L56.77,166.02 L53.49,166.02 L53.49,164.32 Z M54.61,168.54 L53.59,170.14 C51.59,169.46 50.13,168.04 49.37,166.26 C48.57,168.22 47.05,169.8 44.91,170.54 L43.85,168.92 C46.65,167.94 48.29,165.56 48.29,163.12 L48.29,162.5 L44.47,162.5 L44.47,160.84 L54.13,160.84 L54.13,162.5 L50.37,162.5 L50.37,163.12 C50.37,165.34 51.91,167.6 54.61,168.54 Z M49.19,175.52 L59.29,175.52 L59.29,177.2 L47.13,177.2 L47.13,171.56 L49.19,171.56 L49.19,175.52 Z M68.01,173.04 C68.4233354,173.320001 68.896664,173.536666 69.43,173.69 C69.963336,173.843334 70.496664,173.92 71.03,173.92 C72.2833396,173.92 73.2233302,173.503338 73.85,172.67 C74.4766698,171.836663 74.7766668,170.693341 74.75,169.24 C74.3899982,169.840003 73.8966698,170.299998 73.27,170.62 C72.6433302,170.940002 71.9100042,171.1 71.07,171.1 C69.6966598,171.1 68.610004,170.693337 67.81,169.88 C67.009996,169.066663 66.61,167.97334 66.61,166.6 C66.61,165.639995 66.8133313,164.80667 67.22,164.1 C67.6266687,163.39333 68.2033296,162.846669 68.95,162.46 C69.6966704,162.073331 70.569995,161.88 71.57,161.88 C72.7566726,161.88 73.7799957,162.153331 74.64,162.7 C75.5000043,163.246669 76.1599977,164.033328 76.62,165.06 C77.0800023,166.086672 77.31,167.30666 77.31,168.72 C77.31,170.200007 77.0600025,171.499994 76.56,172.62 C76.0599975,173.740006 75.3500046,174.60333 74.43,175.21 C73.5099954,175.81667 72.4366728,176.12 71.21,176.12 C70.5033298,176.12 69.7666705,176.020001 69,175.82 C68.2333295,175.619999 67.5566696,175.353335 66.97,175.02 L68.01,173.04 Z M71.69,164.14 C70.9033294,164.14 70.2700024,164.359998 69.79,164.8 C69.3099976,165.240002 69.07,165.846663 69.07,166.62 C69.07,167.36667 69.2966644,167.953331 69.75,168.38 C70.2033356,168.806669 70.8233294,169.02 71.61,169.02 C72.4633376,169.02 73.1366642,168.783336 73.63,168.31 C74.1233358,167.836664 74.3633334,167.24667 74.35,166.54 C74.3633334,165.899997 74.1400023,165.340002 73.68,164.86 C73.2199977,164.379998 72.556671,164.14 71.69,164.14 Z M86.05,160.98 L86.05,163.94 C86.05,167.26 87.89,170.58 90.73,171.86 L89.53,173.5 C87.45,172.52 85.87,170.52 85.05,168.08 C84.23,170.7 82.63,172.84 80.45,173.9 L79.23,172.18 C82.11,170.88 83.99,167.42 83.99,163.94 L83.99,160.98 L86.05,160.98 Z M92.17,159.46 L94.25,159.46 L94.25,177.58 L92.17,177.58 L92.17,159.46 Z M107.99,167.84 C109.28334,167.960001 110.313329,168.35333 111.08,169.02 C111.84667,169.68667 112.23,170.559995 112.23,171.64 C112.23,172.520004 112.003336,173.296663 111.55,173.97 C111.096664,174.643337 110.450004,175.169998 109.61,175.55 C108.769996,175.930002 107.790006,176.12 106.67,176.12 C105.723329,176.12 104.786671,175.976668 103.86,175.69 C102.933329,175.403332 102.143337,175.020002 101.49,174.54 L102.55,172.46 C103.110003,172.926669 103.729997,173.283332 104.41,173.53 C105.090003,173.776668 105.78333,173.9 106.49,173.9 C107.463338,173.9 108.226664,173.700002 108.78,173.3 C109.333336,172.899998 109.61,172.360003 109.61,171.68 C109.61,170.986663 109.336669,170.456669 108.79,170.09 C108.243331,169.723332 107.463338,169.54 106.45,169.54 L104.33,169.54 L104.33,167.92 L108.09,164.28 L102.19,164.28 L102.17,162 L111.53,162 L111.53,163.66 L107.25,167.76 L107.99,167.84 Z M120.21,161.88 C122.143343,161.88 123.629995,162.493327 124.67,163.72 C125.710005,164.946673 126.23,166.706655 126.23,169 C126.23,171.280011 125.710005,173.033327 124.67,174.26 C123.629995,175.486673 122.143343,176.1 120.21,176.1 C118.276657,176.1 116.790005,175.486673 115.75,174.26 C114.709995,173.033327 114.19,171.280011 114.19,169 C114.19,166.706655 114.709995,164.946673 115.75,163.72 C116.790005,162.493327 118.276657,161.88 120.21,161.88 Z M120.21,164 C119.103328,164 118.283336,164.403329 117.75,165.21 C117.216664,166.016671 116.95,167.279991 116.95,169 C116.95,170.706675 117.216664,171.966663 117.75,172.78 C118.283336,173.593337 119.103328,174 120.21,174 C121.316672,174 122.136664,173.593337 122.67,172.78 C123.203336,171.966663 123.47,170.706675 123.47,169 C123.47,167.279991 123.203336,166.016671 122.67,165.21 C122.136664,164.403329 121.316672,164 120.21,164 Z M140.45,165.74 L140.45,163.72 L132.41,163.72 L132.41,165.74 L140.45,165.74 Z M142.49,160.04 L142.49,167.36 L130.37,167.36 L130.37,160.04 L132.41,160.04 L132.41,162.14 L140.45,162.14 L140.45,160.04 L142.49,160.04 Z M132.31,172.26 L132.31,175.52 L142.81,175.52 L142.81,177.2 L130.25,177.2 L130.25,172.26 L132.31,172.26 Z M128.25,168.88 L144.63,168.88 L144.63,170.54 L137.63,170.54 L137.63,173.76 L135.57,173.76 L135.57,170.54 L128.25,170.54 L128.25,168.88 Z M157.81,170.34 C155.99,170.34 155.11,168.5 153.85,168.5 C153.21,168.5 152.65,168.92 152.15,169.84 L150.91,168.94 C151.81,167.42 152.87,166.82 153.89,166.82 C155.69,166.82 156.59,168.66 157.85,168.66 C158.49,168.66 159.03,168.24 159.53,167.32 L160.79,168.24 C159.87,169.72 158.81,170.34 157.81,170.34 Z M170.59,165.38 C170.59,167.34 172.53,168.58 175.23,168.58 C177.91,168.58 179.85,167.34 179.85,165.38 C179.85,163.42 177.91,162.18 175.23,162.18 C172.53,162.18 170.59,163.42 170.59,165.38 Z M176.25,173.64 L183.43,173.64 L183.43,175.32 L167.07,175.32 L167.07,173.64 L174.19,173.64 L174.19,170.18 C170.89,169.88 168.59,168.06 168.59,165.38 C168.59,162.44 171.39,160.54 175.23,160.54 C179.05,160.54 181.87,162.44 181.87,165.38 C181.87,168.06 179.55,169.9 176.25,170.2 L176.25,173.64 Z M200.89,161.46 L200.89,163.1 L186.27,163.1 L186.27,161.46 L192.59,161.46 L192.59,159.42 L194.65,159.42 L194.65,161.46 L200.89,161.46 Z M197.49,167.04 C197.49,166.06 196.15,165.54 193.63,165.54 C191.11,165.54 189.75,166.06 189.75,167.04 C189.75,168.02 191.11,168.56 193.63,168.56 C196.15,168.56 197.49,168.02 197.49,167.04 Z M187.61,167.04 C187.61,165.08 189.87,163.98 193.63,163.98 C197.39,163.98 199.65,165.08 199.65,167.04 C199.65,169 197.39,170.1 193.63,170.1 C189.87,170.1 187.61,169 187.61,167.04 Z M201.83,171.18 L201.83,172.84 L194.65,172.84 L194.65,177.56 L192.59,177.56 L192.59,172.84 L185.45,172.84 L185.45,171.18 L201.83,171.18 Z M218.47,173.66 L218.47,176 L208.11,176 L208.11,174.06 L213.39,168.62 C213.896669,168.113331 214.303332,167.613336 214.61,167.12 C214.916668,166.626664 215.07,166.200002 215.07,165.84 C215.07,165.333331 214.870002,164.936668 214.47,164.65 C214.069998,164.363332 213.51667,164.22 212.81,164.22 C212.196664,164.22 211.543337,164.373332 210.85,164.68 C210.156663,164.986668 209.503336,165.413331 208.89,165.96 L207.83,163.9 C208.656671,163.259997 209.526662,162.763335 210.44,162.41 C211.353338,162.056665 212.269995,161.88 213.19,161.88 C214.110005,161.88 214.92333,162.026665 215.63,162.32 C216.33667,162.613335 216.886665,163.029997 217.28,163.57 C217.673335,164.110003 217.87,164.73333 217.87,165.44 C217.87,166.120003 217.636669,166.839996 217.17,167.6 C216.703331,168.360004 216.050004,169.179996 215.21,170.06 L211.65,173.66 L218.47,173.66 Z M226.83,160.98 L226.83,163.94 C226.83,167.26 228.67,170.58 231.51,171.86 L230.31,173.5 C228.23,172.52 226.65,170.52 225.83,168.08 C225.01,170.7 223.41,172.84 221.23,173.9 L220.01,172.18 C222.89,170.88 224.77,167.42 224.77,163.94 L224.77,160.98 L226.83,160.98 Z M232.95,159.46 L235.03,159.46 L235.03,177.58 L232.95,177.58 L232.95,159.46 Z" id="오전-9시-30분-~-오후-2시" fill="#39322D"></path>
                            <path d="M127.31,10.158 L127.31,7.08 L124.502,7.08 L124.502,5.982 L127.31,5.982 L127.31,4.236 L124.502,4.236 L124.502,3.138 L127.31,3.138 L127.31,0.222 L128.624,0.222 L128.624,10.158 L127.31,10.158 Z M118.85,2.544 L118.85,7.98 C119.696,7.962 120.578,7.926 121.442,7.89 L121.442,2.544 L118.85,2.544 Z M124.934,7.602 L125.024,8.592 C121.892,9.078 118.238,9.132 115.628,9.132 L115.484,8.016 C116.114,8.016 116.834,8.016 117.572,7.998 L117.572,2.544 L115.916,2.544 L115.916,1.464 L124.376,1.464 L124.376,2.544 L122.72,2.544 L122.72,7.8 C123.476,7.764 124.232,7.692 124.934,7.602 Z M123.35,15.234 C125.852,15.234 127.382,14.55 127.382,13.38 C127.382,12.228 125.852,11.544 123.35,11.544 C120.848,11.544 119.318,12.228 119.318,13.38 C119.318,14.55 120.848,15.234 123.35,15.234 Z M123.35,10.5 C126.68,10.5 128.678,11.562 128.678,13.38 C128.678,15.216 126.68,16.278 123.35,16.278 C120.02,16.278 118.022,15.216 118.022,13.38 C118.022,11.562 120.02,10.5 123.35,10.5 Z M145.148,0.204 L145.148,8.502 L143.834,8.502 L143.834,0.204 L145.148,0.204 Z M133.646,4.362 C133.646,5.802 134.852,6.828 136.49,6.828 C138.146,6.828 139.352,5.802 139.352,4.362 C139.352,2.922 138.146,1.896 136.49,1.896 C134.852,1.896 133.646,2.922 133.646,4.362 Z M140.63,4.362 C140.63,6.468 138.902,7.908 136.49,7.908 C134.114,7.908 132.368,6.468 132.368,4.362 C132.368,2.274 134.114,0.816 136.49,0.816 C138.902,0.816 140.63,2.274 140.63,4.362 Z M136.112,15.018 L145.724,15.018 L145.724,16.08 L134.816,16.08 L134.816,12.12 L143.852,12.12 L143.852,10.374 L134.78,10.374 L134.78,9.312 L145.148,9.312 L145.148,13.11 L136.112,13.11 L136.112,15.018 Z" id="평일" fill="#555555"></path>
                            <path d="M97.601,77.49 C99.221,77.49 100.355,75.708 100.355,73.044 C100.355,70.416 99.221,68.652 97.601,68.652 C95.981,68.652 94.829,70.416 94.829,73.044 C94.829,75.708 95.981,77.49 97.601,77.49 Z M97.601,67.482 C99.941,67.482 101.615,69.66 101.615,73.044 C101.615,76.464 99.941,78.66 97.601,78.66 C95.243,78.66 93.587,76.464 93.587,73.044 C93.587,69.66 95.243,67.482 97.601,67.482 Z M108.275,71.406 L105.647,71.406 L105.647,75.114 L108.275,75.114 L108.275,76.212 L105.647,76.212 L105.647,82.314 L104.333,82.314 L104.333,66.222 L105.647,66.222 L105.647,70.308 L108.275,70.308 L108.275,71.406 Z M110.579,67.464 L118.031,67.464 C118.031,71.586 115.061,74.646 110.471,76.122 L109.931,75.06 C113.783,73.836 116.339,71.478 116.627,68.544 L110.579,68.544 L110.579,67.464 Z M113.675,76.824 L113.675,80.856 L123.071,80.856 L123.071,81.954 L112.379,81.954 L112.379,76.824 L113.675,76.824 Z M122.333,71.172 L124.745,71.172 L124.745,72.27 L122.333,72.27 L122.333,78.012 L121.019,78.012 L121.019,66.204 L122.333,66.204 L122.333,71.172 Z M144.257,72.414 L143.735,73.476 C141.305,73.044 138.785,71.64 137.741,69.642 C136.751,71.658 134.231,73.026 131.765,73.476 L131.243,72.414 C134.033,71.982 137.057,70.074 137.057,67.716 L137.057,66.78 L138.443,66.78 L138.443,67.716 C138.443,70.038 141.503,71.982 144.257,72.414 Z M145.013,75.33 L145.013,76.428 L138.371,76.428 L138.371,82.314 L137.057,82.314 L137.057,76.428 L130.469,76.428 L130.469,75.33 L145.013,75.33 Z M146.237,84.204 L151.781,66.762 L152.879,66.762 L147.317,84.204 L146.237,84.204 Z M157.181,77.472 L157.181,81 L165.533,81 L165.533,77.472 L157.181,77.472 Z M155.885,82.08 L155.885,76.41 L166.811,76.41 L166.811,82.08 L155.885,82.08 Z M166.307,73.044 L168.683,73.044 L168.683,74.142 L154.067,74.142 L154.067,73.044 L164.993,73.044 C165.461,70.992 165.461,69.498 165.461,68.256 L165.461,68.166 L155.957,68.166 L155.957,67.068 L166.757,67.068 L166.757,68.256 C166.757,69.516 166.757,71.01 166.307,73.044 Z" id="야간-수/금" fill="#555555"></path>
                            <path d="M115.07,145.182 L121.748,145.182 L121.748,146.28 L107.114,146.28 L107.114,145.182 L113.756,145.182 L113.756,141.726 L109.022,141.726 L109.022,133.554 L119.894,133.554 L119.894,134.634 L110.354,134.634 L110.354,137.01 L119.534,137.01 L119.534,138.09 L110.354,138.09 L110.354,140.628 L120.056,140.628 L120.056,141.726 L115.07,141.726 L115.07,145.182 Z M128.642,141.222 L128.642,145.11 L133.322,145.11 L133.322,141.204 C132.62,141.384 131.81,141.492 130.964,141.492 C130.136,141.492 129.344,141.384 128.642,141.222 Z M126.392,137.388 C126.392,139.206 128.318,140.43 130.964,140.43 C133.61,140.43 135.536,139.206 135.536,137.388 C135.536,135.552 133.61,134.328 130.964,134.328 C128.318,134.328 126.392,135.552 126.392,137.388 Z M134.618,145.11 L138.308,145.11 L138.308,146.208 L123.674,146.208 L123.674,145.11 L127.328,145.11 L127.328,140.7 C125.96,139.998 125.132,138.846 125.132,137.388 C125.132,134.886 127.562,133.266 130.964,133.266 C134.366,133.266 136.778,134.886 136.778,137.388 C136.778,138.846 135.968,139.98 134.618,140.7 L134.618,145.11 Z M153.428,132.204 L153.428,140.502 L152.114,140.502 L152.114,132.204 L153.428,132.204 Z M141.926,136.362 C141.926,137.802 143.132,138.828 144.77,138.828 C146.426,138.828 147.632,137.802 147.632,136.362 C147.632,134.922 146.426,133.896 144.77,133.896 C143.132,133.896 141.926,134.922 141.926,136.362 Z M148.91,136.362 C148.91,138.468 147.182,139.908 144.77,139.908 C142.394,139.908 140.648,138.468 140.648,136.362 C140.648,134.274 142.394,132.816 144.77,132.816 C147.182,132.816 148.91,134.274 148.91,136.362 Z M144.392,147.018 L154.004,147.018 L154.004,148.08 L143.096,148.08 L143.096,144.12 L152.132,144.12 L152.132,142.374 L143.06,142.374 L143.06,141.312 L153.428,141.312 L153.428,145.11 L144.392,145.11 L144.392,147.018 Z" id="토요일" fill="#555555"></path>
                        </g>
                    </g>
                    <path d="M109.6625,60.125 L109.6625,76.775 L106.3375,76.775 L106.3375,60.125 L109.6625,60.125 Z M104.8875,71.4 L103.2125,73.925 C100.6625,73.125 98.9125003,71.475 97.8625003,69.425 C96.8375003,71.675 94.9875003,73.45 92.3125003,74.325 L90.6375003,71.75 C94.4625003,70.55 96.1375003,67.525 96.1375003,64.65 L96.1375003,64.375 L91.5125003,64.375 L91.5125003,61.775 L104.0375,61.775 L104.0375,64.375 L99.4875003,64.375 L99.4875003,64.65 C99.4875003,67.35 101.1625,70.175 104.8875,71.4 Z M97.6375003,80.125 L110.2375,80.125 L110.2375,82.75 L94.3375003,82.75 L94.3375003,75.275 L97.6375003,75.275 L97.6375003,80.125 Z M121.848214,74.425 L121.848214,77.925 L125.873214,77.925 L125.873214,74.425 L121.848214,74.425 Z M129.123214,77.925 L134.173214,77.925 L134.173214,80.625 L113.298214,80.625 L113.298214,77.925 L118.598214,77.925 L118.598214,74.425 L115.723214,74.425 L115.723214,66.675 L128.573215,66.675 L128.573215,64.225 L115.698214,64.225 L115.698214,61.6 L131.823215,61.6 L131.823215,69.25 L118.998214,69.25 L118.998214,71.775 L132.348214,71.775 L132.348214,74.425 L129.123214,74.425 L129.123214,77.925 Z M145.033929,61.9 L145.033929,65.25 C145.033929,69.525 146.858929,73.725 150.758929,75.4 L148.883929,78.075 C146.233929,76.875 144.458929,74.6 143.433929,71.775 C142.408929,74.85 140.533929,77.325 137.783929,78.625 L135.808929,75.9 C139.833929,74.175 141.733929,69.725 141.733929,65.25 L141.733929,61.9 L145.033929,61.9 Z M151.883929,60.1 L155.183929,60.1 L155.183929,83.2 L151.883929,83.2 L151.883929,60.1 Z M159.719643,61.85 L170.794643,61.85 C170.794643,68.1 166.944643,72.425 160.094643,74.4 L158.719643,71.775 C163.844643,70.375 166.694643,67.7 167.219643,64.475 L159.719643,64.475 L159.719643,61.85 Z M165.444643,74.95 L165.444643,80.125 L177.794643,80.125 L177.794643,82.75 L162.144643,82.75 L162.144643,74.95 L165.444643,74.95 Z M176.994643,66.55 L180.069643,66.55 L180.069643,69.25 L176.994643,69.25 L176.994643,76.6 L173.694643,76.6 L173.694643,60.125 L176.994643,60.125 L176.994643,66.55 Z M189.241071,67.55 C189.241071,69.95 191.116071,71.75 193.616071,71.75 C196.066071,71.75 197.941071,69.95 197.941071,67.55 C197.941071,65.15 196.066071,63.35 193.616071,63.35 C191.116071,63.35 189.241071,65.15 189.241071,67.55 Z M199.241071,67.55 C199.241071,70.7 196.841071,72.925 193.616071,72.925 C190.341071,72.925 187.966071,70.7 187.966071,67.55 C187.966071,64.375 190.341071,62.175 193.616071,62.175 C196.841071,62.175 199.241071,64.375 199.241071,67.55 Z M192.266071,75.325 L192.266071,81.075 L205.591071,81.075 L205.591071,82.2 L190.941071,82.2 L190.941071,75.325 L192.266071,75.325 Z M204.491071,67.5 L207.966071,67.5 L207.966071,68.65 L204.491071,68.65 L204.491071,77 L203.166071,77 L203.166071,60.525 L204.491071,60.525 L204.491071,67.5 Z M212.726786,63.35 L212.726786,75.6 C215.126785,75.6 217.676785,75.475 220.676785,74.85 L220.851786,76.025 C217.726786,76.65 215.226786,76.8 212.726786,76.8 L211.401786,76.8 L211.401786,63.35 L212.726786,63.35 Z M227.601786,60.525 L228.876785,60.525 L228.876785,82.75 L227.601786,82.75 L227.601786,71.025 L223.751785,71.025 L223.751785,81.55 L222.476786,81.55 L222.476786,61.075 L223.751785,61.075 L223.751785,69.85 L227.601786,69.85 L227.601786,60.525 Z" id="진료시간-안내" fill="#39322D" mask="url(#mask-2)"></path>
                </g>
            </g>
        </g>
    </g>
</svg>