<?xml version="1.0" encoding="UTF-8"?>
<svg width="481px" height="457px" viewBox="0 0 481 457" version="1.1" xmlns="http://www.w3.org/2000/svg" xmlns:xlink="http://www.w3.org/1999/xlink">
    <!-- Generator: Sketch 52.4 (67378) - http://www.bohemiancoding.com/sketch -->
    <title>Group 4</title>
    <desc>Created with Sketch.</desc>
    <defs>
        <polygon id="path-1" points="0.684747967 0.580686297 101.35536 0.580686297 101.35536 17.7131178 0.684747967 17.7131178"></polygon>
        <polygon id="path-3" points="0.416911653 0.429009062 54.9447832 0.429009062 54.9447832 9.41462974 0.416911653 9.41462974"></polygon>
        <polygon id="path-5" points="0.125804607 0.786217225 31.7632114 0.786217225 31.7632114 9.76826939 0.125804607 9.76826939"></polygon>
        <polygon id="path-7" points="0.684747967 0.843061224 53.3417775 0.843061224 53.3417775 15.6595277 0.684747967 15.6595277"></polygon>
        <polygon id="path-9" points="0.684747967 0.659818076 53.3417775 0.659818076 53.3417775 13.3601563 0.684747967 13.3601563"></polygon>
        <polygon id="path-11" points="0.684747967 0.178604082 33.6151515 0.178604082 33.6151515 12.8709131 0.684747967 12.8709131"></polygon>
        <polygon id="path-13" points="0.684747967 0.558405608 41.059735 0.558405608 41.059735 14.274677 0.684747967 14.274677"></polygon>
        <polygon id="path-15" points="0.844789973 0.0887667638 60.2943767 0.0887667638 60.2943767 14.8606268 0.844789973 14.8606268"></polygon>
        <polygon id="path-17" points="0.170027913 0.0790425656 62.9691734 0.0790425656 62.9691734 11.9969843 0.170027913 11.9969843"></polygon>
        <polygon id="path-19" points="0.211665583 0.398870554 100.416328 0.398870554 100.416328 10.8902991 0.211665583 10.8902991"></polygon>
        <polygon id="path-21" points="0.684747967 0.444904373 101.35536 0.444904373 101.35536 15.7252776 0.684747967 15.7252776"></polygon>
        <polygon id="path-23" points="0.684747967 0.463282216 114.754219 0.463282216 114.754219 15.740979 0.684747967 15.740979"></polygon>
        <polygon id="path-25" points="0.449989973 0.276113703 112.007114 0.276113703 112.007114 15.3013382 0.449989973 15.3013382"></polygon>
        <polygon id="path-27" points="0.684747967 0.801488047 97.2608702 0.801488047 97.2608702 15.8258204 0.684747967 15.8258204"></polygon>
        <polygon id="path-29" points="0.684747967 0.535455394 37.3378444 0.535455394 37.3378444 13.9432513 0.684747967 13.9432513"></polygon>
        <polygon id="path-31" points="0.684747967 0.0999183673 37.3378444 0.0999183673 37.3378444 13.5077143 0.684747967 13.5077143"></polygon>
        <polygon id="path-33" points="0.00303143631 0.0999183673 32.6548103 0.0999183673 32.6548103 13.5077143 0.00303143631 13.5077143"></polygon>
        <polygon id="path-35" points="0.684747967 305.107872 328.66565 305.107872 328.66565 0.850198251 0.684747967 0.850198251"></polygon>
    </defs>
    <g id="Page-1" stroke="none" stroke-width="1" fill="none" fill-rule="evenodd">
        <g id="tan-박피술" transform="translate(-370.000000, -1847.000000)">
            <g id="Group-4" transform="translate(370.000000, 1844.000000)">
                <g id="Group-209" transform="translate(0.000000, 30.000000)">
                    <polygon id="Fill-1" fill="#9D0101" points="192.090796 73.097958 193.694782 78.5497539 198.194682 75.0820513 196.29201 80.4357131 201.967929 80.2786985 197.283468 83.4903603 201.967929 86.6993458 196.29201 86.5450076 198.194682 91.895993 193.694782 88.4309668 192.090796 93.8809784 190.486809 88.4309668 185.98691 91.895993 187.889582 86.5450076 182.213663 86.6993458 186.898124 83.4903603 182.213663 80.2786985 187.889582 80.4357131 185.98691 75.0820513 190.486809 78.5497539"></polygon>
                    <polygon id="Fill-2" fill="#AAAFB6" points="0.684747967 241.707883 328.64336 241.707883 328.64336 136.302035 0.684747967 136.302035"></polygon>
                    <polygon id="Fill-3" fill="#C1030E" points="0.684747967 248.053592 328.64336 248.053592 328.64336 241.706991 0.684747967 241.706991"></polygon>
                    <polygon id="Fill-4" fill="#B9001B" points="0.684747967 305.149802 328.64336 305.149802 328.64336 254.398408 0.684747967 254.398408"></polygon>
                    <g id="Group-208" transform="translate(0.000000, 0.041930)">
                        <g id="Group-7" transform="translate(0.000000, 129.358601)">
                            <mask id="mask-2" fill="white">
                                <use xlink:href="#path-1"></use>
                            </mask>
                            <g id="Clip-6"></g>
                            <path d="M101.35536,9.14690204 C101.35536,17.7131178 76.0259263,17.7131178 44.7807339,17.7131178 C13.5355415,17.7131178 -36.8540629,13.8778583 -36.8540629,9.14690204 C-36.8540629,4.41594577 13.5355415,0.580686297 44.7807339,0.580686297 C76.0259263,0.580686297 101.35536,4.41594577 101.35536,9.14690204" id="Fill-5" fill="#EF7946" mask="url(#mask-2)"></path>
                        </g>
                        <path d="M208.920171,139.436885 C209.664656,147.15201 184.189001,152.325462 156.027849,152.325462 C127.866697,152.325462 101.355003,146.076103 103.588459,138.505503 C104.694041,134.754995 129.768478,136.270721 157.929629,136.270721 C186.090781,136.270721 208.5457,135.547205 208.920171,139.436885" id="Fill-8" fill="#EF7946"></path>
                        <path d="M324.302165,141.671577 C324.302165,144.653962 299.639648,149.799757 269.216509,149.799757 C238.793371,149.799757 214.131745,144.653962 214.131745,141.671577 C214.131745,133.663833 238.793371,136.270632 269.216509,136.270632 C299.639648,136.270632 324.302165,129.94009 324.302165,141.671577" id="Fill-10" fill="#EF7946"></path>
                        <g id="Group-14" transform="translate(273.720867, 152.553936)">
                            <mask id="mask-4" fill="white">
                                <use xlink:href="#path-3"></use>
                            </mask>
                            <g id="Clip-13"></g>
                            <path d="M58.3966976,4.94506706 C58.3966976,7.41269388 39.9156352,9.41462974 26.7609848,9.41462974 C13.6045512,9.41462974 0.416911653,4.8897551 0.416911653,2.4194519 C0.416911653,-0.0481749271 13.6045512,0.475504373 26.7609848,0.475504373 C39.9156352,0.475504373 58.3966976,2.47476385 58.3966976,4.94506706" id="Fill-12" fill="#EF7946" mask="url(#mask-4)"></path>
                        </g>
                        <g id="Group-17" transform="translate(296.902439, 144.524781)">
                            <mask id="mask-6" fill="white">
                                <use xlink:href="#path-5"></use>
                            </mask>
                            <g id="Clip-16"></g>
                            <path d="M0.125804607,5.30227522 C0.125804607,7.76900991 18.6068669,9.76826939 31.7624089,9.76826939 C44.9179509,9.76826939 58.1055905,5.24696327 58.1055905,2.77666006 C58.1055905,0.309033236 44.9179509,0.832712536 31.7624089,0.832712536 C18.6068669,0.832712536 0.125804607,2.83107988 0.125804607,5.30227522" id="Fill-15" fill="#EF7946" mask="url(#mask-6)"></path>
                        </g>
                        <path d="M269.216331,157.499003 C269.216331,160.789172 245.887646,163.45842 217.108616,163.45842 C188.330478,163.45842 165.0009,160.789172 165.0009,157.499003 C165.0009,154.208834 188.330478,151.540478 217.108616,151.540478 C245.887646,151.540478 269.216331,154.208834 269.216331,157.499003" id="Fill-18" fill="#EF7946"></path>
                        <path d="M156.812545,159.733695 C156.812545,163.023864 131.96725,163.458331 105.449315,163.458331 C78.9313797,163.458331 57.4358214,157.851304 57.4358214,154.560243 C57.4358214,151.270074 78.9313797,151.540389 105.449315,151.540389 C131.96725,151.540389 156.812545,156.443526 156.812545,159.733695" id="Fill-20" fill="#EF7946"></path>
                        <g id="Group-24" transform="translate(0.000000, 146.309038)">
                            <mask id="mask-8" fill="white">
                                <use xlink:href="#path-7"></use>
                            </mask>
                            <g id="Clip-23"></g>
                            <path d="M53.3417775,8.25129446 C53.3417775,12.3425948 31.8462192,15.6595277 5.32828428,15.6595277 C-21.1896507,15.6595277 -42.6852089,12.3425948 -42.6852089,8.25129446 C-42.6852089,4.1608863 -21.1896507,0.843061224 5.32828428,0.843061224 C31.8462192,0.843061224 53.3417775,4.1608863 53.3417775,8.25129446" id="Fill-22" fill="#EF7946" mask="url(#mask-8)"></path>
                        </g>
                        <g id="Group-27" transform="translate(0.000000, 176.641399)">
                            <mask id="mask-10" fill="white">
                                <use xlink:href="#path-9"></use>
                            </mask>
                            <g id="Clip-26"></g>
                            <path d="M53.3417775,8.04396385 C53.3417775,13.3601563 31.8462192,13.3601563 5.32828428,13.3601563 C-21.1896507,13.3601563 -42.6852089,10.979958 -42.6852089,8.04396385 C-42.6852089,5.10886181 -21.1896507,0.659818076 5.32828428,0.659818076 C31.8462192,0.659818076 53.3417775,2.72866356 53.3417775,8.04396385" id="Fill-25" fill="#EF7946" mask="url(#mask-10)"></path>
                        </g>
                        <path d="M150.733356,187.621357 C150.733356,190.557352 129.237798,192.058803 102.719863,192.058803 C76.2019279,192.058803 54.7063696,187.621357 54.7063696,184.685363 C54.7063696,181.750261 76.2019279,179.370063 102.719863,179.370063 C129.237798,179.370063 150.733356,184.685363 150.733356,187.621357" id="Fill-28" fill="#EF7946"></path>
                        <path d="M134.852999,239.445803 C134.852999,240.914246 113.35744,241.665418 86.8395054,241.665418 C60.3215705,241.665418 38.8260122,239.445803 38.8260122,237.979144 C38.8260122,236.509809 60.3215705,235.31971 86.8395054,235.31971 C113.35744,235.31971 134.852999,237.979144 134.852999,239.445803" id="Fill-30" fill="#EF7946"></path>
                        <g id="Group-34" transform="translate(0.000000, 232.845481)">
                            <mask id="mask-12" fill="white">
                                <use xlink:href="#path-11"></use>
                            </mask>
                            <g id="Clip-33"></g>
                            <path d="M33.6151515,8.42989854 C33.6151515,11.3658927 12.1195932,12.8709131 -14.3983417,12.8709131 C-40.9162767,12.8709131 -62.411835,8.42989854 -62.411835,5.4947965 C-62.411835,2.55880233 -40.9162767,0.178604082 -14.3983417,0.178604082 C12.1195932,0.178604082 33.6151515,5.4947965 33.6151515,8.42989854" id="Fill-32" fill="#EF7946" mask="url(#mask-12)"></path>
                        </g>
                        <path d="M147.011911,215.843657 C147.011911,212.724777 131.71564,205.726922 94.0339954,207.338998 C67.5401336,208.470217 46.0205022,212.05568 46.0205022,215.171885 C46.0205022,218.290765 67.5160604,220.819057 94.0339954,220.819057 C120.55193,220.819057 147.011911,218.962538 147.011911,215.843657" id="Fill-35" fill="#EF7946"></path>
                        <g id="Group-39" transform="translate(0.000000, 208.758017)">
                            <mask id="mask-14" fill="white">
                                <use xlink:href="#path-13"></use>
                            </mask>
                            <g id="Clip-38"></g>
                            <path d="M41.059735,9.30284606 C41.059735,6.1839656 25.763464,-0.81388863 -11.918181,0.795510787 C-38.4120428,1.92672945 -59.9316743,5.51130087 -59.9316743,8.63018134 C-59.9316743,11.7463854 -38.436116,14.274677 -11.918181,14.274677 C14.5997539,14.274677 41.059735,12.4190501 41.059735,9.30284606" id="Fill-37" fill="#EF7946" mask="url(#mask-14)"></path>
                        </g>
                        <path d="M316.113186,169.788427 C316.113186,173.079488 292.7845,178.727552 264.006362,178.727552 C235.227332,178.727552 211.897755,173.797651 211.897755,167.926555 C211.897755,164.636386 235.227332,163.829902 264.006362,163.829902 C292.7845,163.829902 316.113186,166.498258 316.113186,169.788427" id="Fill-40" fill="#EF7946"></path>
                        <path d="M205.570612,169.477342 C205.570612,172.767511 182.241035,180.835919 153.462897,180.835919 C124.684759,180.835919 101.355182,174.694508 101.355182,171.403447 C101.355182,168.113278 124.684759,166.809878 153.462897,166.809878 C182.241035,166.809878 205.570612,166.187173 205.570612,169.477342" id="Fill-42" fill="#EF7946"></path>
                        <g id="Group-46" transform="translate(268.371274, 178.425656)">
                            <mask id="mask-16" fill="white">
                                <use xlink:href="#path-15"></use>
                            </mask>
                            <g id="Clip-45"></g>
                            <path d="M105.060221,8.90210204 C105.060221,12.1922711 81.7315352,14.8606268 52.953397,14.8606268 C24.1743672,14.8606268 0.844789973,12.1922711 0.844789973,8.90210204 C0.844789973,5.61193294 24.1743672,0.0887667638 52.953397,0.0887667638 C81.7315352,0.0887667638 105.060221,5.61193294 105.060221,8.90210204" id="Fill-44" fill="#EF7946" mask="url(#mask-16)"></path>
                        </g>
                        <path d="M264.006005,190.001556 C264.006005,193.291725 240.676428,193.86804 211.89829,193.86804 C183.11926,193.86804 161.923279,193.332763 161.923279,190.041701 C161.923279,186.75064 183.11926,179.370063 211.89829,179.370063 C240.676428,179.370063 264.006005,186.711387 264.006005,190.001556" id="Fill-47" fill="#EF7946"></path>
                        <path d="M276.660825,241.665686 C276.660825,244.030718 259.892525,245.948794 239.208321,245.948794 C218.523227,245.948794 201.755817,244.030718 201.755817,241.665686 C201.755817,239.300654 218.523227,237.382578 239.208321,237.382578 C259.892525,237.382578 276.660825,239.300654 276.660825,241.665686" id="Fill-49" fill="#EF7946"></path>
                        <path d="M209.664656,199.699079 C209.664656,202.989248 186.335079,207.338374 157.556941,207.338374 C128.778803,207.338374 105.449225,201.380741 105.449225,198.08968 C105.449225,194.799511 128.778803,195.421324 157.556941,195.421324 C186.335079,195.421324 209.664656,196.408018 209.664656,199.699079" id="Fill-51" fill="#EF7946"></path>
                        <path d="M261.028243,219.256226 C261.028243,222.546395 237.698666,225.215643 208.920528,225.215643 C180.141498,225.215643 156.812812,222.546395 156.812812,219.256226 C156.812812,215.966057 180.141498,213.297701 208.920528,213.297701 C237.698666,213.297701 261.028243,215.966057 261.028243,219.256226" id="Fill-53" fill="#EF7946"></path>
                        <path d="M226.476111,230.74327 C226.476111,234.033439 203.146533,239.37015 174.368395,239.37015 C145.590257,239.37015 122.26068,231.861107 122.26068,228.569153 C122.26068,225.278984 145.590257,227.453101 174.368395,227.453101 C203.146533,227.453101 226.476111,227.453101 226.476111,230.74327" id="Fill-55" fill="#EF7946"></path>
                        <g id="Group-59" transform="translate(265.696477, 213.218659)">
                            <mask id="mask-18" fill="white">
                                <use xlink:href="#path-17"></use>
                            </mask>
                            <g id="Clip-58"></g>
                            <path d="M104.385459,6.03756735 C104.385459,9.32773644 81.0567732,11.9969843 52.278635,11.9969843 C23.4996051,11.9969843 0.170027913,9.32773644 0.170027913,6.03756735 C0.170027913,2.74739825 23.4996051,0.0790425656 52.278635,0.0790425656 C81.0567732,0.0790425656 104.385459,2.74739825 104.385459,6.03756735" id="Fill-57" fill="#EF7946" mask="url(#mask-18)"></path>
                        </g>
                        <g id="Group-62" transform="translate(228.249322, 224.816327)">
                            <mask id="mask-20" fill="white">
                                <use xlink:href="#path-19"></use>
                            </mask>
                            <g id="Clip-61"></g>
                            <path d="M126.758975,5.64458484 C126.758975,8.53954111 98.4310938,10.8902991 63.4848743,10.8902991 C28.5404379,10.8902991 0.211665583,8.53954111 0.211665583,5.64458484 C0.211665583,2.74695219 28.5404379,0.398870554 63.4848743,0.398870554 C98.4310938,0.398870554 126.758975,2.74695219 126.758975,5.64458484" id="Fill-60" fill="#EF7946" mask="url(#mask-20)"></path>
                        </g>
                        <g id="Group-65" transform="translate(0.000000, 193.591837)">
                            <mask id="mask-22" fill="white">
                                <use xlink:href="#path-21"></use>
                            </mask>
                            <g id="Clip-64"></g>
                            <path d="M101.35536,6.10724257 C101.35536,10.3261172 71.4431079,15.7252776 34.5451783,15.7252776 C-2.35185962,15.7252776 -32.2641117,12.3039656 -32.2641117,8.08598309 C-32.2641117,3.86621633 -2.35185962,0.444904373 34.5451783,0.444904373 C71.4431079,0.444904373 101.35536,1.88836793 101.35536,6.10724257" id="Fill-63" fill="#EF7946" mask="url(#mask-22)"></path>
                        </g>
                        <g id="Group-68" transform="translate(0.000000, 220.355685)">
                            <mask id="mask-24" fill="white">
                                <use xlink:href="#path-23"></use>
                            </mask>
                            <g id="Clip-67"></g>
                            <path d="M114.754219,6.1220519 C114.754219,10.3436029 84.8428588,15.740979 47.9449293,15.740979 C11.0469997,15.740979 -18.8643607,12.3223434 -18.8643607,8.10079242 C-18.8643607,3.88191778 11.0469997,0.463282216 47.9449293,0.463282216 C84.8428588,0.463282216 114.754219,1.90317726 114.754219,6.1220519" id="Fill-66" fill="#EF7946" mask="url(#mask-24)"></path>
                        </g>
                        <g id="Group-71" transform="translate(216.658537, 193.591837)">
                            <mask id="mask-26" fill="white">
                                <use xlink:href="#path-25"></use>
                            </mask>
                            <g id="Clip-70"></g>
                            <path d="M131.836006,7.78872595 C131.836006,11.9371224 102.424833,15.3013382 66.1429981,15.3013382 C29.862055,15.3013382 0.449989973,11.9371224 0.449989973,7.78872595 C0.449989973,3.64032945 29.862055,0.276113703 66.1429981,0.276113703 C102.424833,0.276113703 131.836006,3.64032945 131.836006,7.78872595" id="Fill-69" fill="#EF7946" mask="url(#mask-26)"></path>
                        </g>
                        <g id="Group-74" transform="translate(0.000000, 161.475219)">
                            <mask id="mask-28" fill="white">
                                <use xlink:href="#path-27"></use>
                            </mask>
                            <g id="Clip-73"></g>
                            <path d="M97.2608702,7.19626356 C97.2608702,11.3446601 67.8496967,15.8258204 31.5678621,15.8258204 C-4.71308103,15.8258204 -34.1251461,12.4624968 -34.1251461,8.31320816 C-34.1251461,4.16481166 -4.71308103,0.801488047 31.5678621,0.801488047 C67.8496967,0.801488047 97.2608702,3.04786706 97.2608702,7.19626356" id="Fill-72" fill="#EF7946" mask="url(#mask-28)"></path>
                        </g>
                        <path d="M114.754219,296.289362 C114.754219,299.98991 105.755311,302.992814 94.6557965,302.992814 C83.55539,302.992814 74.5564821,299.98991 74.5564821,296.289362 C74.5564821,292.585245 83.55539,289.585018 94.6557965,289.585018 C105.755311,289.585018 114.754219,292.585245 114.754219,296.289362" id="Fill-75" fill="#CB1E37"></path>
                        <g id="Group-79" transform="translate(0.000000, 289.049563)">
                            <mask id="mask-30" fill="white">
                                <use xlink:href="#path-29"></use>
                            </mask>
                            <g id="Clip-78"></g>
                            <path d="M37.3378444,7.23979942 C37.3378444,10.9403475 28.3389366,13.9432513 17.2394217,13.9432513 C6.13901518,13.9432513 -2.85989268,10.9403475 -2.85989268,7.23979942 C-2.85989268,3.5356828 6.13901518,0.535455394 17.2394217,0.535455394 C28.3389366,0.535455394 37.3378444,3.5356828 37.3378444,7.23979942" id="Fill-77" fill="#CB1E37" mask="url(#mask-30)"></path>
                        </g>
                        <g id="Group-82" transform="translate(0.000000, 254.256560)">
                            <mask id="mask-32" fill="white">
                                <use xlink:href="#path-31"></use>
                            </mask>
                            <g id="Clip-81"></g>
                            <path d="M37.3378444,6.80426239 C37.3378444,10.5048105 28.3389366,13.5077143 17.2394217,13.5077143 C6.13901518,13.5077143 -2.85989268,10.5048105 -2.85989268,6.80426239 C-2.85989268,3.10014577 6.13901518,0.0999183673 17.2394217,0.0999183673 C28.3389366,0.0999183673 37.3378444,3.10014577 37.3378444,6.80426239" id="Fill-80" fill="#CB1E37" mask="url(#mask-32)"></path>
                        </g>
                        <path d="M73.4402003,284.865927 C73.4402003,288.570044 64.4412924,291.570271 53.3417775,291.570271 C42.241371,291.570271 33.2424631,288.570044 33.2424631,284.865927 C33.2424631,281.165379 42.241371,278.162475 53.3417775,278.162475 C64.4412924,278.162475 73.4402003,281.165379 73.4402003,284.865927" id="Fill-83" fill="#CB1E37"></path>
                        <path d="M51.6665523,271.458756 C51.6665523,275.162872 42.6676444,278.1631 31.5681295,278.1631 C20.467723,278.1631 11.4688152,275.162872 11.4688152,271.458756 C11.4688152,267.7591 20.467723,264.755304 31.5681295,264.755304 C42.6676444,264.755304 51.6665523,267.7591 51.6665523,271.458756" id="Fill-85" fill="#CB1E37"></path>
                        <path d="M106.938285,278.162832 C106.938285,281.866057 97.939377,284.866284 86.8398621,284.866284 C75.738564,284.866284 66.7405477,281.866057 66.7405477,278.162832 C66.7405477,274.462284 75.738564,271.458488 86.8398621,271.458488 C97.939377,271.458488 106.938285,274.462284 106.938285,278.162832" id="Fill-87" fill="#CB1E37"></path>
                        <path d="M97.6340043,261.060822 C97.6340043,264.76137 88.6350965,267.764274 77.5355816,267.764274 C66.4342835,267.764274 57.4362672,264.76137 57.4362672,261.060822 C57.4362672,257.356706 66.4342835,254.356478 77.5355816,254.356478 C88.6350965,254.356478 97.6340043,257.356706 97.6340043,261.060822" id="Fill-89" fill="#CB1E37"></path>
                        <path d="M147.322366,261.060822 C147.322366,264.76137 138.323458,267.764274 127.223943,267.764274 C116.123537,267.764274 107.124629,264.76137 107.124629,261.060822 C107.124629,257.356706 116.123537,254.356478 127.223943,254.356478 C138.323458,254.356478 147.322366,257.356706 147.322366,261.060822" id="Fill-91" fill="#CB1E37"></path>
                        <path d="M142.35937,284.865927 C142.35937,288.570044 133.360462,291.570271 122.260947,291.570271 C111.160541,291.570271 102.161633,288.570044 102.161633,284.865927 C102.161633,281.165379 111.160541,278.162475 122.260947,278.162475 C133.360462,278.162475 142.35937,281.165379 142.35937,284.865927" id="Fill-93" fill="#CB1E37"></path>
                        <path d="M182.021969,289.585375 C182.021969,293.285923 173.023062,296.289719 161.923547,296.289719 C150.822249,296.289719 141.824232,293.285923 141.824232,289.585375 C141.824232,285.88215 150.822249,282.881923 161.923547,282.881923 C173.023062,282.881923 182.021969,285.88215 182.021969,289.585375" id="Fill-95" fill="#CB1E37"></path>
                        <path d="M182.021969,271.458756 C182.021969,275.162872 173.023062,278.1631 161.923547,278.1631 C150.822249,278.1631 141.824232,275.162872 141.824232,271.458756 C141.824232,267.7591 150.822249,264.755304 161.923547,264.755304 C173.023062,264.755304 182.021969,267.7591 182.021969,271.458756" id="Fill-97" fill="#CB1E37"></path>
                        <path d="M187.52046,257.886094 C187.52046,261.590211 178.521552,264.590438 167.422037,264.590438 C156.320739,264.590438 147.322723,261.590211 147.322723,257.886094 C147.322723,254.185546 156.320739,251.182643 167.422037,251.182643 C178.521552,251.182643 187.52046,254.185546 187.52046,257.886094" id="Fill-99" fill="#CB1E37"></path>
                        <path d="M229.019931,267.763917 C229.019931,271.464465 220.021024,274.468261 208.921509,274.468261 C197.820211,274.468261 188.822194,271.464465 188.822194,267.763917 C188.822194,264.060693 197.820211,261.060465 208.921509,261.060465 C220.021024,261.060465 229.019931,264.060693 229.019931,267.763917" id="Fill-101" fill="#CB1E37"></path>
                        <path d="M211.897933,282.882191 C211.897933,286.582739 202.899025,289.585643 191.799511,289.585643 C180.699104,289.585643 171.700196,286.582739 171.700196,282.882191 C171.700196,279.178074 180.699104,276.177847 191.799511,276.177847 C202.899025,276.177847 211.897933,279.178074 211.897933,282.882191" id="Fill-103" fill="#CB1E37"></path>
                        <path d="M239.207965,291.570003 C239.207965,295.273228 230.209057,298.273455 219.109542,298.273455 C208.009136,298.273455 199.010228,295.273228 199.010228,291.570003 C199.010228,287.869455 208.009136,284.865659 219.109542,284.865659 C230.209057,284.865659 239.207965,287.869455 239.207965,291.570003" id="Fill-105" fill="#CB1E37"></path>
                        <path d="M264.006005,274.467994 C264.006005,278.168542 255.006206,281.171445 243.906691,281.171445 C232.806285,281.171445 223.807377,278.168542 223.807377,274.467994 C223.807377,270.763877 232.806285,267.76365 243.906691,267.76365 C255.006206,267.76365 264.006005,270.763877 264.006005,274.467994" id="Fill-107" fill="#CB1E37"></path>
                        <path d="M281.126666,287.874273 C281.126666,291.574821 272.127758,294.578617 261.028243,294.578617 C249.927837,294.578617 240.928929,291.574821 240.928929,287.874273 C240.928929,284.171048 249.927837,281.170821 261.028243,281.170821 C272.127758,281.170821 281.126666,284.171048 281.126666,287.874273" id="Fill-109" fill="#CB1E37"></path>
                        <path d="M314.336051,274.467994 C314.336051,278.168542 305.337143,281.171445 294.237628,281.171445 C283.137222,281.171445 274.137422,278.168542 274.137422,274.467994 C274.137422,270.763877 283.137222,267.76365 294.237628,267.76365 C305.337143,267.76365 314.336051,270.763877 314.336051,274.467994" id="Fill-111" fill="#CB1E37"></path>
                        <path d="M289.315556,261.060822 C289.315556,264.76137 280.316649,267.764274 269.217134,267.764274 C258.116727,267.764274 249.117819,264.76137 249.117819,261.060822 C249.117819,257.356706 258.116727,254.356478 269.217134,254.356478 C280.316649,254.356478 289.315556,257.356706 289.315556,261.060822" id="Fill-113" fill="#CB1E37"></path>
                        <g id="Group-117" transform="translate(296.010840, 254.256560)">
                            <mask id="mask-34" fill="white">
                                <use xlink:href="#path-33"></use>
                            </mask>
                            <g id="Clip-116"></g>
                            <path d="M40.2016602,6.80426239 C40.2016602,10.5048105 31.2018607,13.5077143 20.1023458,13.5077143 C9.0019393,13.5077143 0.00303143631,10.5048105 0.00303143631,6.80426239 C0.00303143631,3.10014577 9.0019393,0.0999183673 20.1023458,0.0999183673 C31.2018607,0.0999183673 40.2016602,3.10014577 40.2016602,6.80426239" id="Fill-115" fill="#CB1E37" mask="url(#mask-34)"></path>
                        </g>
                        <path d="M326.018315,289.585375 C326.018315,293.285923 317.019407,296.289719 305.919001,296.289719 C294.819486,296.289719 285.819686,293.285923 285.819686,289.585375 C285.819686,285.88215 294.819486,282.881923 305.919001,282.881923 C317.019407,282.881923 326.018315,285.88215 326.018315,289.585375" id="Fill-118" fill="#CB1E37"></path>
                        <mask id="mask-36" fill="white">
                            <use xlink:href="#path-35"></use>
                        </mask>
                        <g id="Clip-121"></g>
                        <polygon id="Fill-120" fill="#F01916" mask="url(#mask-36)" points="0.010699187 254.356478 328.64336 254.356478 328.64336 248.011662 0.010699187 248.011662"></polygon>
                        <path d="M42.9639228,39.3172531 C44.9495136,39.8132764 61.8212398,39.3172531 61.8212398,39.3172531 C61.8212398,39.3172531 61.0785379,118.518617 87.6285705,126.960827 L68.7694702,126.960827 C68.7694702,126.960827 51.4002317,120.504495 46.9342127,82.0216496 C42.4681938,43.5388041 42.9639228,39.3172531 42.9639228,39.3172531" id="Fill-122" fill="#8D7047" opacity="0.600000024" mask="url(#mask-36)"></path>
                        <path d="M104.252611,68.3653959 L94.5751959,68.3653959 L114.17789,39.316807 L130.554779,68.3653959 L120.877364,68.3653959 C120.877364,68.3653959 116.411345,120.256929 96.5607867,126.961273 L73.7322881,126.961273 C73.7322881,126.961273 100.283212,121.498772 104.252611,68.3653959" id="Fill-123" fill="#8D7047" mask="url(#mask-36)"></path>
                        <path d="M204.878375,39.3172531 C206.863966,39.8132764 223.736584,39.3172531 223.736584,39.3172531 C223.736584,39.3172531 222.99299,118.518617 249.543023,126.960827 L230.684814,126.960827 C230.684814,126.960827 213.315576,120.504495 208.849557,82.0216496 C204.382646,43.5388041 204.878375,39.3172531 204.878375,39.3172531" id="Fill-124" fill="#8D7047" opacity="0.600000024" mask="url(#mask-36)"></path>
                        <path d="M266.167954,68.3653959 L256.49054,68.3653959 L276.093234,39.316807 L292.469231,68.3653959 L282.792708,68.3653959 C282.792708,68.3653959 278.326689,120.256929 258.476131,126.961273 L235.647632,126.961273 C235.647632,126.961273 262.197664,121.498772 266.167954,68.3653959" id="Fill-125" fill="#8D7047" mask="url(#mask-36)"></path>
                        <polygon id="Fill-126" fill="#0C4FE5" mask="url(#mask-36)" points="56.3635846 296.021099 69.018048 245.143023 64.5511374 250.353945 56.3635846 258.988854 56.3635846 141.85598 54.3779938 141.85598 54.3779938 258.991531 46.1895493 250.353945 41.7226388 245.143023 54.3779938 296.024668 54.3779938 297.030988 54.6294247 297.030988 55.3703434 300.013373 56.1121537 297.030988 56.3635846 297.030988"></polygon>
                        <polygon id="Fill-127" fill="#0C4FE5" mask="url(#mask-36)" points="145.195189 296.021099 157.849653 245.143023 153.382742 250.353945 145.195189 258.988854 145.195189 141.85598 143.209599 141.85598 143.209599 258.991531 135.021154 250.353945 130.554244 245.143023 143.209599 296.024668 143.209599 297.030988 143.46103 297.030988 144.201948 300.013373 144.943759 297.030988 145.195189 297.030988"></polygon>
                        <polygon id="Fill-128" fill="#0C4FE5" mask="url(#mask-36)" points="236.011672 296.021099 248.666135 245.143023 244.199225 250.353945 236.011672 258.988854 236.011672 141.85598 234.026081 141.85598 234.026081 258.991531 225.837637 250.353945 221.370726 245.143023 234.026081 296.024668 234.026081 297.030988 234.277512 297.030988 235.018431 300.013373 235.760241 297.030988 236.011672 297.030988"></polygon>
                        <path d="M188.24533,83.4488764 C188.24533,81.3220426 189.967007,79.600235 192.090796,79.600235 C194.214585,79.600235 195.936262,81.3220426 195.936262,83.4488764 C195.936262,85.5730338 194.214585,87.2957335 192.090796,87.2957335 C189.967007,87.2957335 188.24533,85.5730338 188.24533,83.4488764" id="Fill-129" fill="#350003" mask="url(#mask-36)"></path>
                        <polygon id="Fill-130" fill="#9D0101" mask="url(#mask-36)" points="167.727231 94.036744 169.331218 99.4858636 173.831118 96.0208373 171.927554 101.374499 177.604364 101.217485 172.919904 104.42647 177.604364 107.638132 171.927554 107.481117 173.831118 112.834779 169.331218 109.369753 167.727231 114.818872 166.122353 109.369753 161.622454 112.834779 163.526017 107.481117 157.850099 107.638132 162.534559 104.42647 157.850099 101.217485 163.526017 101.374499 161.622454 96.0208373 166.122353 99.4858636"></polygon>
                        <path d="M163.881409,104.426024 C163.881409,102.301866 165.603086,100.579167 167.726875,100.579167 C169.851555,100.579167 171.572341,102.301866 171.572341,104.426024 C171.572341,106.55375 169.851555,108.275557 167.726875,108.275557 C165.603086,108.275557 163.881409,106.55375 163.881409,104.426024" id="Fill-131" fill="#350003" mask="url(#mask-36)"></path>
                        <polygon id="Fill-132" fill="#9D0101" mask="url(#mask-36)" points="133.284052 79.5997889 134.88893 85.0515848 139.38883 81.5838822 137.485266 86.937544 143.161185 86.7805294 138.476724 89.9921913 143.161185 93.2011767 137.485266 93.0468385 139.38883 98.3978239 134.88893 94.9327977 133.284052 100.381917 131.680066 94.9327977 127.180166 98.3978239 129.08373 93.0468385 123.406919 93.2011767 128.09138 89.9921913 123.406919 86.7805294 129.08373 86.937544 127.180166 81.5838822 131.680066 85.0515848"></polygon>
                        <path d="M129.438586,89.9925481 C129.438586,87.8648222 131.160263,86.1430146 133.284052,86.1430146 C135.408732,86.1430146 137.129518,87.8648222 137.129518,89.9925481 C137.129518,92.1167055 135.408732,93.8394052 133.284052,93.8394052 C131.160263,93.8394052 129.438586,92.1167055 129.438586,89.9925481" id="Fill-133" fill="#350003" mask="url(#mask-36)"></path>
                        <polygon id="Fill-134" fill="#9D0101" mask="url(#mask-36)" points="180.562244 36.1251289 182.434601 42.4886799 187.687011 38.441986 185.465146 44.6913446 192.090618 44.5075662 186.622441 48.2553971 192.090618 52.003228 185.465146 51.8212338 187.687011 58.0697003 182.434601 54.0230064 180.562244 60.3847732 178.688994 54.0230064 173.437477 58.0697003 175.65845 51.8212338 169.032978 52.003228 174.501154 48.2553971 169.032978 44.5075662 175.65845 44.6913446 173.437477 38.441986 178.688994 42.4886799"></polygon>
                        <path d="M176.716421,48.2550402 C176.716421,46.1290985 178.438098,44.407291 180.561887,44.407291 C182.686567,44.407291 184.407353,46.1290985 184.407353,48.2550402 C184.407353,50.3809819 182.686567,52.1027895 180.561887,52.1027895 C178.438098,52.1027895 176.716421,50.3809819 176.716421,48.2550402" id="Fill-135" fill="#350003" mask="url(#mask-36)"></path>
                        <path d="M190.956682,94.5891499 C190.956682,95.3403219 190.349503,95.946077 189.60056,95.946077 C188.852509,95.946077 188.24533,95.3403219 188.24533,94.5891499 C188.24533,93.8415464 188.852509,93.2331149 189.60056,93.2331149 C190.349503,93.2331149 190.956682,93.8415464 190.956682,94.5891499" id="Fill-136" fill="#000000" mask="url(#mask-36)"></path>
                        <path d="M182.662405,103.061692 C182.662405,100.594065 184.662261,98.5921294 187.128424,98.5921294 C189.595478,98.5921294 191.595334,100.594065 191.595334,103.061692 C191.595334,105.531103 189.595478,107.531255 187.128424,107.531255 C184.662261,107.531255 182.662405,105.531103 182.662405,103.061692" id="Fill-137" fill="#CBCE52" mask="url(#mask-36)"></path>
                        <path d="M182.662405,103.061692 C182.662405,100.594065 184.662261,98.5921294 187.128424,98.5921294 C189.595478,98.5921294 191.595334,100.594065 191.595334,103.061692 C191.595334,105.531103 189.595478,107.531255 187.128424,107.531255 C184.662261,107.531255 182.662405,105.531103 182.662405,103.061692 Z" id="Stroke-138" stroke="#000000" mask="url(#mask-36)"></path>
                        <path d="M184.018081,95.3924222 C184.018081,96.1418099 183.410902,96.7484571 182.661959,96.7484571 C181.913908,96.7484571 181.305837,96.1418099 181.305837,95.3924222 C181.305837,94.6430344 181.913908,94.0363872 182.661959,94.0363872 C183.410902,94.0363872 184.018081,94.6430344 184.018081,95.3924222" id="Fill-139" fill="#000000" mask="url(#mask-36)"></path>
                        <path d="M197.116917,98.5923971 C197.116917,99.3435691 196.509738,99.9493242 195.760795,99.9493242 C195.012744,99.9493242 194.405565,99.3435691 194.405565,98.5923971 C194.405565,97.8447936 195.012744,97.2363621 195.760795,97.2363621 C196.509738,97.2363621 197.116917,97.8447936 197.116917,98.5923971" id="Fill-140" fill="#000000" mask="url(#mask-36)"></path>
                        <path d="M197.116917,105.783397 C197.116917,106.532785 196.509738,107.140324 195.760795,107.140324 C195.012744,107.140324 194.405565,106.532785 194.405565,105.783397 C194.405565,105.034009 195.012744,104.42647 195.760795,104.42647 C196.509738,104.42647 197.116917,105.034009 197.116917,105.783397" id="Fill-141" fill="#000000" mask="url(#mask-36)"></path>
                        <path d="M192.312358,110.718026 C192.312358,111.467414 191.705179,112.074953 190.956236,112.074953 C190.208185,112.074953 189.601006,111.467414 189.601006,110.718026 C189.601006,109.968638 190.208185,109.361099 190.956236,109.361099 C191.705179,109.361099 192.312358,109.968638 192.312358,110.718026" id="Fill-142" fill="#000000" mask="url(#mask-36)"></path>
                        <path d="M184.018081,110.718026 C184.018081,111.467414 183.410902,112.074953 182.661959,112.074953 C181.913908,112.074953 181.305837,111.467414 181.305837,110.718026 C181.305837,109.968638 181.913908,109.361099 182.661959,109.361099 C183.410902,109.361099 184.018081,109.968638 184.018081,110.718026" id="Fill-143" fill="#000000" mask="url(#mask-36)"></path>
                        <path d="M181.306283,105.783397 C181.306283,106.532785 180.699104,107.140324 179.950161,107.140324 C179.202109,107.140324 178.594931,106.532785 178.594931,105.783397 C178.594931,105.034009 179.202109,104.42647 179.950161,104.42647 C180.699104,104.42647 181.306283,105.034009 181.306283,105.783397" id="Fill-144" fill="#000000" mask="url(#mask-36)"></path>
                        <path d="M181.306283,99.2231318 C181.306283,99.9716274 180.699104,100.580059 179.950161,100.580059 C179.202109,100.580059 178.594931,99.9716274 178.594931,99.2231318 C178.594931,98.473744 179.202109,97.8662047 179.950161,97.8662047 C180.699104,97.8662047 181.306283,98.473744 181.306283,99.2231318" id="Fill-145" fill="#000000" mask="url(#mask-36)"></path>
                        <path d="M182.662405,95.3924222 L184.852172,99.223221" id="Stroke-146" stroke="#000000" mask="url(#mask-36)"></path>
                        <path d="M189.601006,94.5891499 L188.757553,98.9061586" id="Stroke-147" stroke="#000000" mask="url(#mask-36)"></path>
                        <path d="M195.761241,98.5923971 L191.2551,101.350858" id="Stroke-148" stroke="#000000" mask="url(#mask-36)"></path>
                        <path d="M195.761241,105.783397 L191.594799,104.645041" id="Stroke-149" stroke="#000000" mask="url(#mask-36)"></path>
                        <path d="M190.956682,110.718026 L189.60056,107.140592" id="Stroke-150" stroke="#000000" mask="url(#mask-36)"></path>
                        <path d="M182.662405,110.718026 L185.095578,107.037997" id="Stroke-151" stroke="#000000" mask="url(#mask-36)"></path>
                        <path d="M179.950607,105.783397 L182.955295,104.645041" id="Stroke-152" stroke="#000000" mask="url(#mask-36)"></path>
                        <path d="M179.950607,99.2231318 L182.955295,101.013633" id="Stroke-153" stroke="#000000" mask="url(#mask-36)"></path>
                        <path d="M157.708959,55.1655551 C157.708959,55.915835 157.10178,56.5224822 156.352837,56.5224822 C155.604785,56.5224822 154.997606,55.915835 154.997606,55.1655551 C154.997606,54.4170595 155.604785,53.808628 156.352837,53.808628 C157.10178,53.808628 157.708959,54.4170595 157.708959,55.1655551" id="Fill-154" fill="#000000" mask="url(#mask-36)"></path>
                        <path d="M149.414681,63.6381866 C149.414681,61.1705598 151.414538,59.1686239 153.8807,59.1686239 C156.347754,59.1686239 158.347611,61.1705598 158.347611,63.6381866 C158.347611,66.1067055 156.347754,68.1068571 153.8807,68.1068571 C151.414538,68.1068571 149.414681,66.1067055 149.414681,63.6381866" id="Fill-155" fill="#CBCE52" mask="url(#mask-36)"></path>
                        <path d="M149.414681,63.6381866 C149.414681,61.1705598 151.414538,59.1686239 153.8807,59.1686239 C156.347754,59.1686239 158.347611,61.1705598 158.347611,63.6381866 C158.347611,66.1067055 156.347754,68.1068571 153.8807,68.1068571 C151.414538,68.1068571 149.414681,66.1067055 149.414681,63.6381866 Z" id="Stroke-156" stroke="#000000" mask="url(#mask-36)"></path>
                        <path d="M150.770357,55.9680245 C150.770357,56.7174122 150.163179,57.3249516 149.414236,57.3249516 C148.666184,57.3249516 148.059005,56.7174122 148.059005,55.9680245 C148.059005,55.2186367 148.666184,54.6119895 149.414236,54.6119895 C150.163179,54.6119895 150.770357,55.2186367 150.770357,55.9680245" id="Fill-157" fill="#000000" mask="url(#mask-36)"></path>
                        <path d="M163.869194,59.1688023 C163.869194,59.9199743 163.262015,60.5257294 162.513072,60.5257294 C161.76502,60.5257294 161.157841,59.9199743 161.157841,59.1688023 C161.157841,58.4211988 161.76502,57.8127673 162.513072,57.8127673 C163.262015,57.8127673 163.869194,58.4211988 163.869194,59.1688023" id="Fill-158" fill="#000000" mask="url(#mask-36)"></path>
                        <path d="M163.869194,66.3598915 C163.869194,67.1092793 163.262015,67.7168187 162.513072,67.7168187 C161.76502,67.7168187 161.157841,67.1092793 161.157841,66.3598915 C161.157841,65.6105038 161.76502,65.0029644 162.513072,65.0029644 C163.262015,65.0029644 163.869194,65.6105038 163.869194,66.3598915" id="Fill-159" fill="#000000" mask="url(#mask-36)"></path>
                        <path d="M159.064635,71.2944315 C159.064635,72.0438192 158.457456,72.6513586 157.708513,72.6513586 C156.960461,72.6513586 156.353282,72.0438192 156.353282,71.2944315 C156.353282,70.5450437 156.960461,69.9375044 157.708513,69.9375044 C158.457456,69.9375044 159.064635,70.5450437 159.064635,71.2944315" id="Fill-160" fill="#000000" mask="url(#mask-36)"></path>
                        <path d="M150.770357,71.2944315 C150.770357,72.0438192 150.163179,72.6513586 149.414236,72.6513586 C148.666184,72.6513586 148.059005,72.0438192 148.059005,71.2944315 C148.059005,70.5450437 148.666184,69.9375044 149.414236,69.9375044 C150.163179,69.9375044 150.770357,70.5450437 150.770357,71.2944315" id="Fill-161" fill="#000000" mask="url(#mask-36)"></path>
                        <path d="M148.059005,66.3598915 C148.059005,67.1092793 147.451826,67.7168187 146.702883,67.7168187 C145.95394,67.7168187 145.346761,67.1092793 145.346761,66.3598915 C145.346761,65.6105038 145.95394,65.0029644 146.702883,65.0029644 C147.451826,65.0029644 148.059005,65.6105038 148.059005,66.3598915" id="Fill-162" fill="#000000" mask="url(#mask-36)"></path>
                        <path d="M148.059005,59.7987341 C148.059005,60.5481219 147.451826,61.1556612 146.702883,61.1556612 C145.95394,61.1556612 145.346761,60.5481219 145.346761,59.7987341 C145.346761,59.0493464 145.95394,58.441807 146.702883,58.441807 C147.451826,58.441807 148.059005,59.0493464 148.059005,59.7987341" id="Fill-163" fill="#000000" mask="url(#mask-36)"></path>
                        <path d="M149.414681,55.9680245 L151.604448,59.7988233" id="Stroke-164" stroke="#000000" mask="url(#mask-36)"></path>
                        <path d="M156.353282,55.1655551 L155.50983,59.4816717" id="Stroke-165" stroke="#000000" mask="url(#mask-36)"></path>
                        <path d="M162.513518,59.1688023 L158.007377,61.927263" id="Stroke-166" stroke="#000000" mask="url(#mask-36)"></path>
                        <path d="M162.513518,66.3598915 L158.347076,65.2206437" id="Stroke-167" stroke="#000000" mask="url(#mask-36)"></path>
                        <path d="M157.708959,71.2944315 L156.352837,67.7169971" id="Stroke-168" stroke="#000000" mask="url(#mask-36)"></path>
                        <path d="M149.414681,71.2944315 L151.847855,67.6135102" id="Stroke-169" stroke="#000000" mask="url(#mask-36)"></path>
                        <path d="M146.702883,66.3598915 L149.707572,65.2206437" id="Stroke-170" stroke="#000000" mask="url(#mask-36)"></path>
                        <path d="M146.702883,59.7987341 L149.707572,61.5892356" id="Stroke-171" stroke="#000000" mask="url(#mask-36)"></path>
                        <path d="M99.9901436,19.6895388 C99.9901436,20.4407108 99.3829648,21.0464659 98.6340217,21.0464659 C97.8859702,21.0464659 97.2778997,20.4407108 97.2778997,19.6895388 C97.2778997,18.9419353 97.8859702,18.3335038 98.6340217,18.3335038 C99.3829648,18.3335038 99.9901436,18.9419353 99.9901436,19.6895388" id="Fill-172" fill="#000000" mask="url(#mask-36)"></path>
                        <path d="M91.6953314,28.1621703 C91.6953314,25.6945434 93.6951878,23.6926076 96.1613504,23.6926076 C98.6284046,23.6926076 100.628261,25.6945434 100.628261,28.1621703 C100.628261,30.6306892 98.6284046,32.6308408 96.1613504,32.6308408 C93.6951878,32.6308408 91.6953314,30.6306892 91.6953314,28.1621703" id="Fill-173" fill="#CBCE52" mask="url(#mask-36)"></path>
                        <path d="M91.6953314,28.1621703 C91.6953314,25.6945434 93.6951878,23.6926076 96.1613504,23.6926076 C98.6284046,23.6926076 100.628261,25.6945434 100.628261,28.1621703 C100.628261,30.6306892 98.6284046,32.6308408 96.1613504,32.6308408 C93.6951878,32.6308408 91.6953314,30.6306892 91.6953314,28.1621703 Z" id="Stroke-174" stroke="#000000" mask="url(#mask-36)"></path>
                        <path d="M93.0510967,20.4928111 C93.0510967,21.2421988 92.4439179,21.8488461 91.6949748,21.8488461 C90.9469233,21.8488461 90.3397444,21.2421988 90.3397444,20.4928111 C90.3397444,19.7434233 90.9469233,19.135884 91.6949748,19.135884 C92.4439179,19.135884 93.0510967,19.7434233 93.0510967,20.4928111" id="Fill-175" fill="#000000" mask="url(#mask-36)"></path>
                        <path d="M106.150379,23.692786 C106.150379,24.443958 105.5432,25.0497131 104.794257,25.0497131 C104.046205,25.0497131 103.438135,24.443958 103.438135,23.692786 C103.438135,22.9451825 104.046205,22.336751 104.794257,22.336751 C105.5432,22.336751 106.150379,22.9451825 106.150379,23.692786" id="Fill-176" fill="#000000" mask="url(#mask-36)"></path>
                        <path d="M106.150379,30.8838752 C106.150379,31.633263 105.5432,32.2408023 104.794257,32.2408023 C104.046205,32.2408023 103.438135,31.633263 103.438135,30.8838752 C103.438135,30.1344875 104.046205,29.5269481 104.794257,29.5269481 C105.5432,29.5269481 106.150379,30.1344875 106.150379,30.8838752" id="Fill-177" fill="#000000" mask="url(#mask-36)"></path>
                        <path d="M101.34582,35.8184152 C101.34582,36.5678029 100.738641,37.1753423 99.9896978,37.1753423 C99.2416463,37.1753423 98.6344675,36.5678029 98.6344675,35.8184152 C98.6344675,35.0690274 99.2416463,34.461488 99.9896978,34.461488 C100.738641,34.461488 101.34582,35.0690274 101.34582,35.8184152" id="Fill-178" fill="#000000" mask="url(#mask-36)"></path>
                        <path d="M93.0510967,35.8184152 C93.0510967,36.5678029 92.4439179,37.1753423 91.6949748,37.1753423 C90.9469233,37.1753423 90.3397444,36.5678029 90.3397444,35.8184152 C90.3397444,35.0690274 90.9469233,34.461488 91.6949748,34.461488 C92.4439179,34.461488 93.0510967,35.0690274 93.0510967,35.8184152" id="Fill-179" fill="#000000" mask="url(#mask-36)"></path>
                        <path d="M90.3396553,30.8838752 C90.3396553,31.633263 89.7324764,32.2408023 88.9835333,32.2408023 C88.2354818,32.2408023 87.628303,31.633263 87.628303,30.8838752 C87.628303,30.1344875 88.2354818,29.5269481 88.9835333,29.5269481 C89.7324764,29.5269481 90.3396553,30.1344875 90.3396553,30.8838752" id="Fill-180" fill="#000000" mask="url(#mask-36)"></path>
                        <path d="M90.3396553,24.3227178 C90.3396553,25.0721055 89.7324764,25.6796449 88.9835333,25.6796449 C88.2354818,25.6796449 87.628303,25.0721055 87.628303,24.3227178 C87.628303,23.57333 88.2354818,22.9657907 88.9835333,22.9657907 C89.7324764,22.9657907 90.3396553,23.57333 90.3396553,24.3227178" id="Fill-181" fill="#000000" mask="url(#mask-36)"></path>
                        <path d="M91.6953314,20.4928111 L93.8850984,24.3227178" id="Stroke-182" stroke="#000000" mask="url(#mask-36)"></path>
                        <path d="M98.6344675,19.6895388 L97.7910149,24.0056554" id="Stroke-183" stroke="#000000" mask="url(#mask-36)"></path>
                        <path d="M104.794257,23.692786 L100.288116,26.4512466" id="Stroke-184" stroke="#000000" mask="url(#mask-36)"></path>
                        <path d="M104.794257,30.8838752 L100.628707,29.7455195" id="Stroke-185" stroke="#000000" mask="url(#mask-36)"></path>
                        <path d="M99.9901436,35.8184152 L98.6340217,32.2409808" id="Stroke-186" stroke="#000000" mask="url(#mask-36)"></path>
                        <path d="M91.6953314,35.8184152 L94.1293965,32.1374939" id="Stroke-187" stroke="#000000" mask="url(#mask-36)"></path>
                        <path d="M88.9839791,30.8838752 L91.9886675,29.7455195" id="Stroke-188" stroke="#000000" mask="url(#mask-36)"></path>
                        <path d="M88.9839791,24.3227178 L91.9886675,26.1141114" id="Stroke-189" stroke="#000000" mask="url(#mask-36)"></path>
                        <path d="M136.384587,110.718026 C136.384587,111.467414 135.777408,112.074953 135.028465,112.074953 C134.280414,112.074953 133.673235,111.467414 133.673235,110.718026 C133.673235,109.968638 134.280414,109.361099 135.028465,109.361099 C135.777408,109.361099 136.384587,109.968638 136.384587,110.718026" id="Fill-190" fill="#000000" mask="url(#mask-36)"></path>
                        <path d="M128.09031,119.190569 C128.09031,116.72205 130.090166,114.721898 132.556329,114.721898 C135.023383,114.721898 137.02324,116.72205 137.02324,119.190569 C137.02324,121.65998 135.023383,123.660131 132.556329,123.660131 C130.090166,123.660131 128.09031,121.65998 128.09031,119.190569" id="Fill-191" fill="#CBCE52" mask="url(#mask-36)"></path>
                        <path d="M128.09031,119.190569 C128.09031,116.72205 130.090166,114.721898 132.556329,114.721898 C135.023383,114.721898 137.02324,116.72205 137.02324,119.190569 C137.02324,121.65998 135.023383,123.660131 132.556329,123.660131 C130.090166,123.660131 128.09031,121.65998 128.09031,119.190569 Z" id="Stroke-192" stroke="#000000" mask="url(#mask-36)"></path>
                        <path d="M129.445986,111.519514 C129.445986,112.270686 128.838807,112.876441 128.089864,112.876441 C127.341813,112.876441 126.734634,112.270686 126.734634,111.519514 C126.734634,110.771911 127.341813,110.163479 128.089864,110.163479 C128.838807,110.163479 129.445986,110.771911 129.445986,111.519514" id="Fill-193" fill="#000000" mask="url(#mask-36)"></path>
                        <path d="M142.544822,114.722166 C142.544822,115.471553 141.937644,116.079093 141.188701,116.079093 C140.440649,116.079093 139.83347,115.471553 139.83347,114.722166 C139.83347,113.972778 140.440649,113.365238 141.188701,113.365238 C141.937644,113.365238 142.544822,113.972778 142.544822,114.722166" id="Fill-194" fill="#000000" mask="url(#mask-36)"></path>
                        <path d="M142.544822,121.912273 C142.544822,122.660769 141.937644,123.269201 141.188701,123.269201 C140.440649,123.269201 139.83347,122.660769 139.83347,121.912273 C139.83347,121.161994 140.440649,120.555346 141.188701,120.555346 C141.937644,120.555346 142.544822,121.161994 142.544822,121.912273" id="Fill-195" fill="#000000" mask="url(#mask-36)"></path>
                        <path d="M137.740263,126.846903 C137.740263,127.595398 137.133085,128.20383 136.384141,128.20383 C135.63609,128.20383 135.028911,127.595398 135.028911,126.846903 C135.028911,126.096623 135.63609,125.489976 136.384141,125.489976 C137.133085,125.489976 137.740263,126.096623 137.740263,126.846903" id="Fill-196" fill="#000000" mask="url(#mask-36)"></path>
                        <path d="M129.445986,126.846903 C129.445986,127.595398 128.838807,128.20383 128.089864,128.20383 C127.341813,128.20383 126.734634,127.595398 126.734634,126.846903 C126.734634,126.096623 127.341813,125.489976 128.089864,125.489976 C128.838807,125.489976 129.445986,126.096623 129.445986,126.846903" id="Fill-197" fill="#000000" mask="url(#mask-36)"></path>
                        <path d="M126.734634,121.912273 C126.734634,122.660769 126.127455,123.269201 125.378512,123.269201 C124.63046,123.269201 124.02239,122.660769 124.02239,121.912273 C124.02239,121.161994 124.63046,120.555346 125.378512,120.555346 C126.127455,120.555346 126.734634,121.161994 126.734634,121.912273" id="Fill-198" fill="#000000" mask="url(#mask-36)"></path>
                        <path d="M126.734634,115.352008 C126.734634,116.099612 126.127455,116.708043 125.378512,116.708043 C124.63046,116.708043 124.02239,116.099612 124.02239,115.352008 C124.02239,114.600836 124.63046,113.995081 125.378512,113.995081 C126.127455,113.995081 126.734634,114.600836 126.734634,115.352008" id="Fill-199" fill="#000000" mask="url(#mask-36)"></path>
                        <path d="M128.09031,111.519514 L130.280077,115.352097" id="Stroke-200" stroke="#000000" mask="url(#mask-36)"></path>
                        <path d="M135.028911,110.718026 L134.185459,115.035035" id="Stroke-201" stroke="#000000" mask="url(#mask-36)"></path>
                        <path d="M141.189146,114.722166 L136.683005,117.480626" id="Stroke-202" stroke="#000000" mask="url(#mask-36)"></path>
                        <path d="M141.189146,121.912273 L137.022705,120.773918" id="Stroke-203" stroke="#000000" mask="url(#mask-36)"></path>
                        <path d="M136.384587,126.846903 L135.028465,123.268576" id="Stroke-204" stroke="#000000" mask="url(#mask-36)"></path>
                        <path d="M128.09031,126.846903 L130.523483,123.166873" id="Stroke-205" stroke="#000000" mask="url(#mask-36)"></path>
                        <path d="M125.378512,121.912273 L128.3832,120.773918" id="Stroke-206" stroke="#000000" mask="url(#mask-36)"></path>
                        <path d="M125.378512,115.352008 L128.3832,117.14251" id="Stroke-207" stroke="#000000" mask="url(#mask-36)"></path>
                    </g>
                </g>
                <circle id="Oval-Copy" stroke="#8D7047" stroke-width="2" fill="#FFFFFF" cx="390" cy="369" r="90"></circle>
                <text id="TAN-박피술" font-family="Montserrat-Bold, Montserrat" font-size="22" font-weight="bold" fill="#8D7047">
                    <tspan x="333" y="373">TAN</tspan>
                    <tspan x="379.156" y="373" font-family="NotoSansCJKkr-Bold, Noto Sans CJK KR"> 박피술</tspan>
                </text>
                <text id="Normal-Skin-Barrier" font-family="Montserrat-Bold, Montserrat" font-size="16" font-weight="bold" fill="#8D7047">
                    <tspan x="4" y="356">Normal Skin Barrier </tspan>
                    <tspan x="4" y="375">Foundation</tspan>
                </text>
                <text id="Harmful-Substances-u" font-family="Montserrat-Bold, Montserrat" font-size="16" font-weight="bold" fill="#8D7047">
                    <tspan x="206" y="15">Harmful Substances</tspan>
                    <tspan x="206" y="34">unable to pentrate</tspan>
                </text>
                <text id="Skin-Barrier-(Lipid" font-family="Montserrat-Bold, Montserrat" font-size="16" font-weight="bold" fill="#8D7047">
                    <tspan x="368" y="224">Skin Barrier</tspan>
                    <tspan x="368" y="243">(Lipid </tspan>
                    <tspan x="368" y="262">bllayers)</tspan>
                </text>
                <text id="Cornecoyres-(Horny-l" font-family="Montserrat-Bold, Montserrat" font-size="16" font-weight="bold" fill="#8D7047">
                    <tspan x="365" y="171">Cornecoyres</tspan>
                    <tspan x="365" y="190">(Horny layer )</tspan>
                </text>
                <text id="Moisture" font-family="Montserrat-Bold, Montserrat" font-size="16" font-weight="bold" fill="#0C4FE5">
                    <tspan x="65" y="241">Moisture</tspan>
                </text>
                <g id="Group-5" transform="translate(237.000000, 186.000000)" stroke="#000000" stroke-linecap="round" stroke-linejoin="round">
                    <polyline id="Stroke-1" points="3.3599 0.5 126.3599 0.5 48.8599 16"></polyline>
                    <polyline id="Stroke-3" points="28.86 33 126.86 47.5 0 56.5"></polyline>
                </g>
            </g>
        </g>
    </g>
</svg>