<?xml version="1.0" encoding="UTF-8"?>
<svg width="500px" height="437px" viewBox="0 0 500 437" version="1.1" xmlns="http://www.w3.org/2000/svg" xmlns:xlink="http://www.w3.org/1999/xlink">
    <!-- Generator: Sketch 52.4 (67378) - http://www.bohemiancoding.com/sketch -->
    <title>Group 6</title>
    <desc>Created with Sketch.</desc>
    <defs>
        <polygon id="path-1" points="0.433434568 0.7357 143.623 0.7357 143.623 129.140922 0.433434568 129.140922"></polygon>
        <polygon id="path-3" points="0.012 341.047 368.623 341.047 368.623 0 0.012 0"></polygon>
    </defs>
    <g id="Page-1" stroke="none" stroke-width="1" fill="none" fill-rule="evenodd">
        <g id="tan-박피술" transform="translate(-1051.000000, -1847.000000)">
            <g id="Group-6" transform="translate(1051.000000, 1844.000000)">
                <g id="Group-207" transform="translate(0.000000, 2.000000)">
                    <path d="M140.6221,269.9337 C167.1431,293.0057 0.0121,269.9337 0.0121,269.9337 L0.0121,151.7827 L104.2081,151.7827 C104.2081,151.7827 104.0701,238.1357 140.6221,269.9337" id="Fill-1" fill="#AAAFB6"></path>
                    <g id="Group-5" transform="translate(225.000000, 151.047000)">
                        <mask id="mask-2" fill="white">
                            <use xlink:href="#path-1"></use>
                        </mask>
                        <g id="Clip-4"></g>
                        <path d="M3.2861,118.8867 C-23.2349,141.9587 143.8961,118.8867 143.8961,118.8867 L143.8961,0.7357 L39.7011,0.7357 C39.7011,0.7357 39.8381,87.0887 3.2861,118.8867" id="Fill-3" fill="#AAAFB6" mask="url(#mask-2)"></path>
                    </g>
                    <mask id="mask-4" fill="white">
                        <use xlink:href="#path-3"></use>
                    </mask>
                    <g id="Clip-7"></g>
                    <polygon id="Fill-6" fill="#C1030E" mask="url(#mask-4)" points="0.012 277.047 368.601 277.047 368.601 269.934 0.012 269.934"></polygon>
                    <polygon id="Fill-8" fill="#B9001B" mask="url(#mask-4)" points="0.012 341.047 368.601 341.047 368.601 284.159 0.012 284.159"></polygon>
                    <path d="M113.6787,154.2999 C113.6787,163.9019 85.2697,163.9019 50.2267,163.9019 C15.1817,163.9019 -41.3353,159.6029 -41.3353,154.2999 C-41.3353,148.9969 15.1817,144.6979 50.2267,144.6979 C85.2697,144.6979 113.6787,148.9969 113.6787,154.2999" id="Fill-9" fill="#EF7946" mask="url(#mask-4)"></path>
                    <path d="M234.3213,155.3439 C235.1563,163.9919 206.5823,169.7909 174.9983,169.7909 C143.4123,169.7909 113.6783,162.7859 116.1833,154.2999 C117.4233,150.0959 145.5453,151.7949 177.1313,151.7949 C208.7153,151.7949 233.9003,150.9839 234.3213,155.3439" id="Fill-10" fill="#EF7946" mask="url(#mask-4)"></path>
                    <path d="M363.7314,157.8488 C363.7314,161.1918 336.0684,166.9598 301.9484,166.9598 C267.8254,166.9598 240.1664,161.1918 240.1664,157.8488 C240.1664,148.8728 267.8254,151.7948 301.9484,151.7948 C336.0684,151.7948 363.7314,144.6988 363.7314,157.8488" id="Fill-11" fill="#EF7946" mask="url(#mask-4)"></path>
                    <path d="M372.4971,175.59 C372.4971,178.356 351.7681,180.6 337.0151,180.6 C322.2591,180.6 307.4671,175.528 307.4671,172.759 C307.4671,169.993 322.2591,170.58 337.0151,170.58 C351.7681,170.58 372.4971,172.821 372.4971,175.59" id="Fill-12" fill="#EF7946" mask="url(#mask-4)"></path>
                    <path d="M333.1396,166.9904 C333.1396,169.7554 353.8686,171.9964 368.6226,171.9964 C383.3786,171.9964 398.1706,166.9284 398.1706,164.1594 C398.1706,161.3934 383.3786,161.9804 368.6226,161.9804 C353.8686,161.9804 333.1396,164.2204 333.1396,166.9904" id="Fill-13" fill="#EF7946" mask="url(#mask-4)"></path>
                    <path d="M175.8789,178.0949 C175.8789,181.7829 148.0109,182.2699 118.2709,182.2699 C88.5269,182.2699 64.4199,175.9849 64.4199,172.2959 C64.4199,168.6079 88.5269,168.9109 118.2709,168.9109 C148.0109,168.9109 175.8789,174.4069 175.8789,178.0949" id="Fill-14" fill="#EF7946" mask="url(#mask-4)"></path>
                    <path d="M59.8271,172.296 C59.8271,176.882 35.7171,180.6 5.9761,180.6 C-23.7659,180.6 -47.8749,176.882 -47.8749,172.296 C-47.8749,167.711 -23.7659,163.992 5.9761,163.992 C35.7171,163.992 59.8271,167.711 59.8271,172.296" id="Fill-15" fill="#EF7946" mask="url(#mask-4)"></path>
                    <path d="M59.8271,206.0636 C59.8271,212.0226 35.7171,212.0226 5.9761,212.0226 C-23.7659,212.0226 -47.8749,209.3546 -47.8749,206.0636 C-47.8749,202.7736 -23.7659,197.7866 5.9761,197.7866 C35.7171,197.7866 59.8271,200.1056 59.8271,206.0636" id="Fill-16" fill="#EF7946" mask="url(#mask-4)"></path>
                    <path d="M169.0596,209.3546 C169.0596,212.6456 144.9506,214.3286 115.2076,214.3286 C85.4666,214.3286 61.3576,209.3546 61.3576,206.0636 C61.3576,202.7736 85.4666,200.1056 115.2076,200.1056 C144.9506,200.1056 169.0596,206.0636 169.0596,209.3546" id="Fill-17" fill="#EF7946" mask="url(#mask-4)"></path>
                    <path d="M151.249,267.4454 C151.249,269.0914 127.138,269.9334 97.398,269.9334 C67.654,269.9334 43.547,267.4454 43.547,265.8014 C43.547,264.1544 67.654,262.8204 97.398,262.8204 C127.138,262.8204 151.249,265.8014 151.249,267.4454" id="Fill-18" fill="#EF7946" mask="url(#mask-4)"></path>
                    <path d="M37.7031,269.4962 C37.7031,272.7872 13.5921,274.4742 -16.1499,274.4742 C-45.8909,274.4742 -69.9999,269.4962 -69.9999,266.2062 C-69.9999,262.9152 -45.8909,260.2472 -16.1499,260.2472 C13.5921,260.2472 37.7031,266.2062 37.7031,269.4962" id="Fill-19" fill="#EF7946" mask="url(#mask-4)"></path>
                    <path d="M164.8848,240.9894 C164.8848,237.4934 147.7308,229.6494 105.4668,231.4564 C75.7528,232.7244 51.6148,236.7434 51.6148,240.2364 C51.6148,243.7324 75.7248,246.5664 105.4668,246.5664 C135.2078,246.5664 164.8848,244.4854 164.8848,240.9894" id="Fill-20" fill="#EF7946" mask="url(#mask-4)"></path>
                    <path d="M46.0518,243.4747 C46.0518,239.9787 28.8958,232.1347 -13.3662,233.9387 C-43.0822,235.2067 -67.2192,239.2247 -67.2192,242.7207 C-67.2192,246.2137 -43.1092,249.0477 -13.3662,249.0477 C16.3728,249.0477 46.0518,246.9677 46.0518,243.4747" id="Fill-21" fill="#EF7946" mask="url(#mask-4)"></path>
                    <path d="M354.5469,189.3654 C354.5469,193.0544 328.3819,199.3854 296.1049,199.3854 C263.8269,199.3854 237.6609,193.8594 237.6609,187.2784 C237.6609,183.5904 263.8269,182.6864 296.1049,182.6864 C328.3819,182.6864 354.5469,185.6774 354.5469,189.3654" id="Fill-22" fill="#EF7946" mask="url(#mask-4)"></path>
                    <path d="M230.5645,189.0167 C230.5645,192.7047 204.3985,201.7487 172.1215,201.7487 C139.8435,201.7487 113.6785,194.8647 113.6785,191.1757 C113.6785,187.4877 139.8435,186.0267 172.1215,186.0267 C204.3985,186.0267 230.5645,185.3287 230.5645,189.0167" id="Fill-23" fill="#EF7946" mask="url(#mask-4)"></path>
                    <path d="M418.834,209.0255 C418.834,212.7135 392.669,215.7045 360.392,215.7045 C328.114,215.7045 301.948,212.7135 301.948,209.0255 C301.948,205.3375 328.114,199.1465 360.392,199.1465 C392.669,199.1465 418.834,205.3375 418.834,209.0255" id="Fill-24" fill="#EF7946" mask="url(#mask-4)"></path>
                    <path d="M296.1045,212.0226 C296.1045,215.7106 269.9385,216.3566 237.6615,216.3566 C205.3835,216.3566 181.6085,215.7566 181.6085,212.0676 C181.6085,208.3786 205.3835,200.1056 237.6615,200.1056 C269.9385,200.1056 296.1045,208.3346 296.1045,212.0226" id="Fill-25" fill="#EF7946" mask="url(#mask-4)"></path>
                    <path d="M310.2979,269.9337 C310.2979,272.5847 291.4889,274.7347 268.2919,274.7347 C245.0909,274.7347 226.2849,272.5847 226.2849,269.9337 C226.2849,267.2827 245.0909,265.1327 268.2919,265.1327 C291.4889,265.1327 310.2979,267.2827 310.2979,269.9337" id="Fill-26" fill="#EF7946" mask="url(#mask-4)"></path>
                    <path d="M235.1562,222.8927 C235.1562,226.5807 208.9912,231.4557 176.7142,231.4557 C144.4362,231.4557 118.2702,224.7777 118.2702,221.0887 C118.2702,217.4007 144.4362,218.0977 176.7142,218.0977 C208.9912,218.0977 235.1562,219.2037 235.1562,222.8927" id="Fill-27" fill="#EF7946" mask="url(#mask-4)"></path>
                    <path d="M292.7646,244.8146 C292.7646,248.5026 266.5986,251.4946 234.3216,251.4946 C202.0436,251.4946 175.8786,248.5026 175.8786,244.8146 C175.8786,241.1266 202.0436,238.1356 234.3216,238.1356 C266.5986,238.1356 292.7646,241.1266 292.7646,244.8146" id="Fill-28" fill="#EF7946" mask="url(#mask-4)"></path>
                    <path d="M254.0098,257.6906 C254.0098,261.3786 227.8448,267.3606 195.5678,267.3606 C163.2898,267.3606 137.1238,258.9436 137.1238,255.2536 C137.1238,251.5656 163.2898,254.0026 195.5678,254.0026 C227.8448,254.0026 254.0098,254.0026 254.0098,257.6906" id="Fill-29" fill="#EF7946" mask="url(#mask-4)"></path>
                    <path d="M415.0771,244.8146 C415.0771,248.5026 388.9121,251.4946 356.6351,251.4946 C324.3571,251.4946 298.1911,248.5026 298.1911,244.8146 C298.1911,241.1266 324.3571,238.1356 356.6351,238.1356 C388.9121,238.1356 415.0771,241.1266 415.0771,244.8146" id="Fill-30" fill="#EF7946" mask="url(#mask-4)"></path>
                    <path d="M398.1709,257.3741 C398.1709,260.6191 366.3979,263.2541 327.2039,263.2541 C288.0099,263.2541 256.2369,260.6191 256.2369,257.3741 C256.2369,254.1261 288.0099,251.4941 327.2039,251.4941 C366.3979,251.4941 398.1709,254.1261 398.1709,257.3741" id="Fill-31" fill="#EF7946" mask="url(#mask-4)"></path>
                    <path d="M113.6787,222.8927 C113.6787,227.6217 80.1287,233.6737 38.7457,233.6737 C-2.6383,233.6737 -36.1863,229.8387 -36.1863,225.1107 C-36.1863,220.3807 -2.6383,216.5457 38.7457,216.5457 C80.1287,216.5457 113.6787,218.1637 113.6787,222.8927" id="Fill-32" fill="#EF7946" mask="url(#mask-4)"></path>
                    <path d="M128.707,252.9093 C128.707,257.6413 95.157,263.6913 53.774,263.6913 C12.39,263.6913 -21.158,259.8593 -21.158,255.1273 C-21.158,250.3983 12.39,246.5663 53.774,246.5663 C95.157,246.5663 128.707,248.1803 128.707,252.9093" id="Fill-33" fill="#EF7946" mask="url(#mask-4)"></path>
                    <path d="M390.8652,224.7775 C390.8652,229.4275 357.8772,233.1985 317.1852,233.1985 C276.4922,233.1985 243.5062,229.4275 243.5062,224.7775 C243.5062,220.1275 276.4922,216.3565 317.1852,216.3565 C357.8772,216.3565 390.8652,220.1275 390.8652,224.7775" id="Fill-34" fill="#EF7946" mask="url(#mask-4)"></path>
                    <path d="M109.0869,188.1134 C109.0869,192.7634 76.0989,197.7864 35.4059,197.7864 C-5.2861,197.7864 -38.2741,194.0164 -38.2741,189.3654 C-38.2741,184.7154 -5.2861,180.9454 35.4059,180.9454 C76.0989,180.9454 109.0869,183.4634 109.0869,188.1134" id="Fill-35" fill="#EF7946" mask="url(#mask-4)"></path>
                    <path d="M128.707,331.1622 C128.707,335.3102 118.613,338.6762 106.164,338.6762 C93.713,338.6762 83.62,335.3102 83.62,331.1622 C83.62,327.0102 93.713,323.6472 106.164,323.6472 C118.613,323.6472 128.707,327.0102 128.707,331.1622" id="Fill-36" fill="#CB1E37" mask="url(#mask-4)"></path>
                    <path d="M41.877,331.1622 C41.877,335.3102 31.783,338.6762 19.335,338.6762 C6.885,338.6762 -3.207,335.3102 -3.207,331.1622 C-3.207,327.0102 6.885,323.6472 19.335,323.6472 C31.783,323.6472 41.877,327.0102 41.877,331.1622" id="Fill-37" fill="#CB1E37" mask="url(#mask-4)"></path>
                    <path d="M41.877,291.674 C41.877,295.822 31.783,299.188 19.335,299.188 C6.885,299.188 -3.207,295.822 -3.207,291.674 C-3.207,287.522 6.885,284.159 19.335,284.159 C31.783,284.159 41.877,287.522 41.877,291.674" id="Fill-38" fill="#CB1E37" mask="url(#mask-4)"></path>
                    <path d="M82.3701,318.3575 C82.3701,322.5095 72.2761,325.8725 59.8271,325.8725 C47.3761,325.8725 37.2831,322.5095 37.2831,318.3575 C37.2831,314.2095 47.3761,310.8435 59.8271,310.8435 C72.2761,310.8435 82.3701,314.2095 82.3701,318.3575" id="Fill-39" fill="#CB1E37" mask="url(#mask-4)"></path>
                    <path d="M57.9492,303.3292 C57.9492,307.4812 47.8552,310.8442 35.4062,310.8442 C22.9552,310.8442 12.8622,307.4812 12.8622,303.3292 C12.8622,299.1822 22.9552,295.8152 35.4062,295.8152 C47.8552,295.8152 57.9492,299.1822 57.9492,303.3292" id="Fill-40" fill="#CB1E37" mask="url(#mask-4)"></path>
                    <path d="M119.9404,310.8439 C119.9404,314.9949 109.8464,318.3579 97.3984,318.3579 C84.9464,318.3579 74.8544,314.9949 74.8544,310.8439 C74.8544,306.6959 84.9464,303.3289 97.3984,303.3289 C109.8464,303.3289 119.9404,306.6959 119.9404,310.8439" id="Fill-41" fill="#CB1E37" mask="url(#mask-4)"></path>
                    <path d="M109.5039,291.674 C109.5039,295.822 99.4099,299.188 86.9619,299.188 C74.5119,299.188 64.4199,295.822 64.4199,291.674 C64.4199,287.522 74.5119,284.159 86.9619,284.159 C99.4099,284.159 109.5039,287.522 109.5039,291.674" id="Fill-42" fill="#CB1E37" mask="url(#mask-4)"></path>
                    <path d="M165.2334,291.674 C165.2334,295.822 155.1394,299.188 142.6914,299.188 C130.2414,299.188 120.1494,295.822 120.1494,291.674 C120.1494,287.522 130.2414,284.159 142.6914,284.159 C155.1394,284.159 165.2334,287.522 165.2334,291.674" id="Fill-43" fill="#CB1E37" mask="url(#mask-4)"></path>
                    <path d="M159.666,318.3575 C159.666,322.5095 149.574,325.8725 137.124,325.8725 C124.676,325.8725 114.582,322.5095 114.582,318.3575 C114.582,314.2095 124.676,310.8435 137.124,310.8435 C149.574,310.8435 159.666,314.2095 159.666,318.3575" id="Fill-44" fill="#CB1E37" mask="url(#mask-4)"></path>
                    <path d="M204.1514,323.6476 C204.1514,327.7956 194.0584,331.1626 181.6084,331.1626 C169.1604,331.1626 159.0664,327.7956 159.0664,323.6476 C159.0664,319.4966 169.1604,316.1336 181.6084,316.1336 C194.0584,316.1336 204.1514,319.4966 204.1514,323.6476" id="Fill-45" fill="#CB1E37" mask="url(#mask-4)"></path>
                    <path d="M204.1514,303.3292 C204.1514,307.4812 194.0584,310.8442 181.6084,310.8442 C169.1604,310.8442 159.0664,307.4812 159.0664,303.3292 C159.0664,299.1822 169.1604,295.8152 181.6084,295.8152 C194.0584,295.8152 204.1514,299.1822 204.1514,303.3292" id="Fill-46" fill="#CB1E37" mask="url(#mask-4)"></path>
                    <path d="M210.3184,288.1154 C210.3184,292.2674 200.2254,295.6304 187.7754,295.6304 C175.3274,295.6304 165.2334,292.2674 165.2334,288.1154 C165.2334,283.9674 175.3274,280.6014 187.7754,280.6014 C200.2254,280.6014 210.3184,283.9674 210.3184,288.1154" id="Fill-47" fill="#CB1E37" mask="url(#mask-4)"></path>
                    <path d="M256.8643,299.1876 C256.8643,303.3356 246.7703,306.7026 234.3213,306.7026 C221.8713,306.7026 211.7793,303.3356 211.7793,299.1876 C211.7793,295.0366 221.8713,291.6736 234.3213,291.6736 C246.7703,291.6736 256.8643,295.0366 256.8643,299.1876" id="Fill-48" fill="#CB1E37" mask="url(#mask-4)"></path>
                    <path d="M237.6611,316.1339 C237.6611,320.2819 227.5671,323.6479 215.1191,323.6479 C202.6671,323.6479 192.5751,320.2819 192.5751,316.1339 C192.5751,311.9819 202.6671,308.6189 215.1191,308.6189 C227.5671,308.6189 237.6611,311.9819 237.6611,316.1339" id="Fill-49" fill="#CB1E37" mask="url(#mask-4)"></path>
                    <path d="M268.292,325.8722 C268.292,330.0232 258.197,333.3862 245.749,333.3862 C233.298,333.3862 223.205,330.0232 223.205,325.8722 C223.205,321.7242 233.298,318.3572 245.749,318.3572 C258.197,318.3572 268.292,321.7242 268.292,325.8722" id="Fill-50" fill="#CB1E37" mask="url(#mask-4)"></path>
                    <path d="M296.1045,306.7023 C296.1045,310.8503 286.0105,314.2163 273.5615,314.2163 C261.1105,314.2163 251.0175,310.8503 251.0175,306.7023 C251.0175,302.5503 261.1105,299.1873 273.5615,299.1873 C286.0105,299.1873 296.1045,302.5503 296.1045,306.7023" id="Fill-51" fill="#CB1E37" mask="url(#mask-4)"></path>
                    <path d="M315.3066,321.7296 C315.3066,325.8776 305.2126,329.2446 292.7646,329.2446 C280.3126,329.2446 270.2206,325.8776 270.2206,321.7296 C270.2206,317.5786 280.3126,314.2156 292.7646,314.2156 C305.2126,314.2156 315.3066,317.5786 315.3066,321.7296" id="Fill-52" fill="#CB1E37" mask="url(#mask-4)"></path>
                    <path d="M352.5527,306.7023 C352.5527,310.8503 342.4607,314.2163 330.0107,314.2163 C317.5607,314.2163 307.4667,310.8503 307.4667,306.7023 C307.4667,302.5503 317.5607,299.1873 330.0107,299.1873 C342.4607,299.1873 352.5527,302.5503 352.5527,306.7023" id="Fill-53" fill="#CB1E37" mask="url(#mask-4)"></path>
                    <path d="M324.4912,291.674 C324.4912,295.822 314.3962,299.188 301.9482,299.188 C289.4982,299.188 279.4062,295.822 279.4062,291.674 C279.4062,287.522 289.4982,284.159 301.9482,284.159 C314.3962,284.159 324.4912,287.522 324.4912,291.674" id="Fill-54" fill="#CB1E37" mask="url(#mask-4)"></path>
                    <path d="M377.0898,291.674 C377.0898,295.822 366.9958,299.188 354.5468,299.188 C342.0958,299.188 332.0028,295.822 332.0028,291.674 C332.0028,287.522 342.0958,284.159 354.5468,284.159 C366.9958,284.159 377.0898,287.522 377.0898,291.674" id="Fill-55" fill="#CB1E37" mask="url(#mask-4)"></path>
                    <path d="M365.6553,323.6476 C365.6553,327.7956 355.5613,331.1626 343.1133,331.1626 C330.6633,331.1626 320.5703,327.7956 320.5703,323.6476 C320.5703,319.4966 330.6633,316.1336 343.1133,316.1336 C355.5613,316.1336 365.6553,319.4966 365.6553,323.6476" id="Fill-56" fill="#CB1E37" mask="url(#mask-4)"></path>
                    <polygon id="Fill-57" fill="#F01916" mask="url(#mask-4)" points="0.012 284.159 368.601 284.159 368.601 277.047 0.012 277.047"></polygon>
                    <polygon id="Fill-58" fill="#0C4FE5" mask="url(#mask-4)" points="63.2158 162.5314 77.4088 219.5624 72.4008 213.7214 63.2158 204.0424 63.2158 335.3384 60.9878 335.3384 60.9878 204.0384 51.8048 213.7214 46.7948 219.5624 60.9878 162.5284 60.9878 161.3994 61.2708 161.3994 62.1028 158.0564 62.9338 161.3994 63.2158 161.3994"></polygon>
                    <polygon id="Fill-59" fill="#9D0101" mask="url(#mask-4)" points="185.7002 42.0743 187.8012 49.2073 193.6922 44.6703 191.2002 51.6763 198.6312 51.4703 192.4982 55.6713 198.6312 59.8713 191.2002 59.6683 193.6922 66.6713 187.8012 62.1363 185.7002 69.2673 183.5992 62.1363 177.7102 66.6713 180.2012 59.6683 172.7702 59.8713 178.9032 55.6713 172.7702 51.4703 180.2012 51.6763 177.7102 44.6703 183.5992 49.2073"></polygon>
                    <path d="M181.3887,55.671 C181.3887,53.288 183.3197,51.358 185.7007,51.358 C188.0837,51.358 190.0147,53.288 190.0147,55.671 C190.0147,58.054 188.0837,59.984 185.7007,59.984 C183.3197,59.984 181.3887,58.054 181.3887,55.671" id="Fill-60" fill="#350003" mask="url(#mask-4)"></path>
                    <polygon id="Fill-61" fill="#9D0101" mask="url(#mask-4)" points="199.1758 81.1359 201.2768 88.2679 207.1678 83.7319 204.6758 90.7369 212.1078 90.5319 205.9748 94.7319 212.1078 98.9329 204.6758 98.7289 207.1678 105.7329 201.2768 101.1979 199.1758 108.3279 197.0748 101.1979 191.1858 105.7329 193.6778 98.7289 186.2458 98.9329 192.3788 94.7319 186.2458 90.5319 193.6778 90.7369 191.1858 83.7319 197.0748 88.2679"></polygon>
                    <path d="M194.8643,94.7316 C194.8643,92.3496 196.7953,90.4196 199.1763,90.4196 C201.5593,90.4196 203.4903,92.3496 203.4903,94.7316 C203.4903,97.1146 201.5593,99.0446 199.1763,99.0446 C196.7953,99.0446 194.8643,97.1146 194.8643,94.7316" id="Fill-62" fill="#350003" mask="url(#mask-4)"></path>
                    <polygon id="Fill-63" fill="#9D0101" mask="url(#mask-4)" points="134.1221 85.132 136.2231 92.265 142.1141 87.729 139.6221 94.734 147.0541 94.528 140.9201 98.729 147.0541 102.929 139.6221 102.726 142.1141 109.729 136.2231 105.194 134.1221 112.325 132.0211 105.194 126.1321 109.729 128.6241 102.726 121.1921 102.929 127.3251 98.729 121.1921 94.528 128.6241 94.734 126.1321 87.729 132.0211 92.265"></polygon>
                    <path d="M129.8105,98.7286 C129.8105,96.3456 131.7415,94.4156 134.1225,94.4156 C136.5055,94.4156 138.4365,96.3456 138.4365,98.7286 C138.4365,101.1116 136.5055,103.0416 134.1225,103.0416 C131.7415,103.0416 129.8105,101.1116 129.8105,98.7286" id="Fill-64" fill="#350003" mask="url(#mask-4)"></path>
                    <polygon id="Fill-65" fill="#9D0101" mask="url(#mask-4)" points="130.0225 236.6193 131.5825 241.9153 135.9555 238.5473 134.1055 243.7483 139.6225 243.5953 135.0695 246.7133 139.6225 249.8323 134.1055 249.6813 135.9555 254.8813 131.5825 251.5143 130.0225 256.8083 128.4615 251.5143 124.0895 254.8813 125.9395 249.6813 120.4225 249.8323 124.9755 246.7133 120.4225 243.5953 125.9395 243.7483 124.0895 238.5473 128.4615 241.9153"></polygon>
                    <path d="M126.8213,246.713 C126.8213,244.945 128.2553,243.512 130.0223,243.512 C131.7923,243.512 133.2253,244.945 133.2253,246.713 C133.2253,248.483 131.7923,249.916 130.0223,249.916 C128.2553,249.916 126.8213,248.483 126.8213,246.713" id="Fill-66" fill="#350003" mask="url(#mask-4)"></path>
                    <polygon id="Fill-67" fill="#9D0101" mask="url(#mask-4)" points="172.0303 200.9113 174.0083 207.6333 179.5573 203.3563 177.2113 209.9583 184.2113 209.7643 178.4333 213.7203 184.2113 217.6793 177.2113 217.4863 179.5573 224.0863 174.0083 219.8113 172.0303 226.5323 170.0493 219.8113 164.5023 224.0863 166.8473 217.4863 159.8473 217.6793 165.6253 213.7203 159.8473 209.7643 166.8473 209.9583 164.5023 203.3563 170.0493 207.6333"></polygon>
                    <path d="M167.9678,213.7199 C167.9678,211.4779 169.7858,209.6579 172.0298,209.6579 C174.2758,209.6579 176.0938,211.4779 176.0938,213.7199 C176.0938,215.9649 174.2758,217.7849 172.0298,217.7849 C169.7858,217.7849 167.9678,215.9649 167.9678,213.7199" id="Fill-68" fill="#350003" mask="url(#mask-4)"></path>
                    <polygon id="Fill-69" fill="#9D0101" mask="url(#mask-4)" points="93.2842 71.5372 95.3842 78.6702 101.2752 74.1332 98.7842 81.1392 106.2152 80.9332 100.0822 85.1342 106.2152 89.3342 98.7842 89.1292 101.2752 96.1342 95.3842 91.5982 93.2842 98.7302 91.1832 91.5982 85.2942 96.1342 87.7852 89.1292 80.3542 89.3342 86.4872 85.1342 80.3542 80.9332 87.7852 81.1392 85.2942 74.1332 91.1832 78.6702"></polygon>
                    <path d="M88.9727,85.1339 C88.9727,82.7499 90.9037,80.8199 93.2847,80.8199 C95.6677,80.8199 97.5987,82.7499 97.5987,85.1339 C97.5987,87.5149 95.6677,89.4459 93.2847,89.4459 C90.9037,89.4459 88.9727,87.5149 88.9727,85.1339" id="Fill-70" fill="#350003" mask="url(#mask-4)"></path>
                    <path d="M209.9434,124.3038 C209.9434,125.1458 209.2614,125.8248 208.4234,125.8248 C207.5824,125.8248 206.9024,125.1458 206.9024,124.3038 C206.9024,123.4658 207.5824,122.7838 208.4234,122.7838 C209.2614,122.7838 209.9434,123.4658 209.9434,124.3038" id="Fill-71" fill="#000000" mask="url(#mask-4)"></path>
                    <path d="M200.6406,133.8009 C200.6406,131.0349 202.8826,128.7909 205.6496,128.7909 C208.4166,128.7909 210.6596,131.0349 210.6596,133.8009 C210.6596,136.5689 208.4166,138.8109 205.6496,138.8109 C202.8826,138.8109 200.6406,136.5689 200.6406,133.8009" id="Fill-72" fill="#CBCE52" mask="url(#mask-4)"></path>
                    <path d="M200.6406,133.8009 C200.6406,131.0349 202.8826,128.7909 205.6496,128.7909 C208.4166,128.7909 210.6596,131.0349 210.6596,133.8009 C210.6596,136.5689 208.4166,138.8109 205.6496,138.8109 C202.8826,138.8109 200.6406,136.5689 200.6406,133.8009 Z" id="Stroke-73" stroke="#000000" mask="url(#mask-4)"></path>
                    <path d="M202.1621,125.2042 C202.1621,126.0442 201.4801,126.7242 200.6411,126.7242 C199.8011,126.7242 199.1191,126.0442 199.1191,125.2042 C199.1191,124.3642 199.8011,123.6842 200.6411,123.6842 C201.4801,123.6842 202.1621,124.3642 202.1621,125.2042" id="Fill-74" fill="#000000" mask="url(#mask-4)"></path>
                    <path d="M216.8525,128.7911 C216.8525,129.6331 216.1715,130.3121 215.3315,130.3121 C214.4925,130.3121 213.8115,129.6331 213.8115,128.7911 C213.8115,127.9531 214.4925,127.2711 215.3315,127.2711 C216.1715,127.2711 216.8525,127.9531 216.8525,128.7911" id="Fill-75" fill="#000000" mask="url(#mask-4)"></path>
                    <path d="M216.8525,136.8517 C216.8525,137.6917 216.1715,138.3727 215.3315,138.3727 C214.4925,138.3727 213.8115,137.6917 213.8115,136.8517 C213.8115,136.0117 214.4925,135.3307 215.3315,135.3307 C216.1715,135.3307 216.8525,136.0117 216.8525,136.8517" id="Fill-76" fill="#000000" mask="url(#mask-4)"></path>
                    <path d="M211.4629,142.3829 C211.4629,143.2229 210.7829,143.9039 209.9429,143.9039 C209.1039,143.9039 208.4239,143.2229 208.4239,142.3829 C208.4239,141.5429 209.1039,140.8619 209.9429,140.8619 C210.7829,140.8619 211.4629,141.5429 211.4629,142.3829" id="Fill-77" fill="#000000" mask="url(#mask-4)"></path>
                    <path d="M202.1621,142.3829 C202.1621,143.2229 201.4801,143.9039 200.6411,143.9039 C199.8011,143.9039 199.1191,143.2229 199.1191,142.3829 C199.1191,141.5429 199.8011,140.8619 200.6411,140.8619 C201.4801,140.8619 202.1621,141.5429 202.1621,142.3829" id="Fill-78" fill="#000000" mask="url(#mask-4)"></path>
                    <path d="M199.1191,136.8517 C199.1191,137.6917 198.4381,138.3727 197.5981,138.3727 C196.7591,138.3727 196.0791,137.6917 196.0791,136.8517 C196.0791,136.0117 196.7591,135.3307 197.5981,135.3307 C198.4381,135.3307 199.1191,136.0117 199.1191,136.8517" id="Fill-79" fill="#000000" mask="url(#mask-4)"></path>
                    <path d="M199.1191,129.4972 C199.1191,130.3372 198.4381,131.0182 197.5981,131.0182 C196.7591,131.0182 196.0791,130.3372 196.0791,129.4972 C196.0791,128.6582 196.7591,127.9762 197.5981,127.9762 C198.4381,127.9762 199.1191,128.6582 199.1191,129.4972" id="Fill-80" fill="#000000" mask="url(#mask-4)"></path>
                    <path d="M200.6406,125.2042 L203.0956,129.4972" id="Stroke-81" stroke="#000000" mask="url(#mask-4)"></path>
                    <path d="M208.4238,124.3038 L207.4778,129.1418" id="Stroke-82" stroke="#000000" mask="url(#mask-4)"></path>
                    <path d="M215.3311,128.7911 L210.2771,131.8831" id="Stroke-83" stroke="#000000" mask="url(#mask-4)"></path>
                    <path d="M215.3311,136.8517 L210.6591,135.5757" id="Stroke-84" stroke="#000000" mask="url(#mask-4)"></path>
                    <path d="M209.9434,142.3829 L208.4234,138.3729" id="Stroke-85" stroke="#000000" mask="url(#mask-4)"></path>
                    <path d="M200.6406,142.3829 L203.3696,138.2579" id="Stroke-86" stroke="#000000" mask="url(#mask-4)"></path>
                    <path d="M197.5986,136.8517 L200.9676,135.5757" id="Stroke-87" stroke="#000000" mask="url(#mask-4)"></path>
                    <path d="M197.5986,129.4972 L200.9676,131.5052" id="Stroke-88" stroke="#000000" mask="url(#mask-4)"></path>
                    <path d="M242.2217,210.9054 C242.2217,211.7464 241.5407,212.4264 240.7017,212.4264 C239.8617,212.4264 239.1807,211.7464 239.1807,210.9054 C239.1807,210.0674 239.8617,209.3854 240.7017,209.3854 C241.5407,209.3854 242.2217,210.0674 242.2217,210.9054" id="Fill-89" fill="#000000" mask="url(#mask-4)"></path>
                    <path d="M232.9189,220.4025 C232.9189,217.6365 235.1609,215.3925 237.9289,215.3925 C240.6959,215.3925 242.9379,217.6365 242.9379,220.4025 C242.9379,223.1695 240.6959,225.4115 237.9289,225.4115 C235.1609,225.4115 232.9189,223.1695 232.9189,220.4025" id="Fill-90" fill="#CBCE52" mask="url(#mask-4)"></path>
                    <path d="M232.9189,220.4025 C232.9189,217.6365 235.1609,215.3925 237.9289,215.3925 C240.6959,215.3925 242.9379,217.6365 242.9379,220.4025 C242.9379,223.1695 240.6959,225.4115 237.9289,225.4115 C235.1609,225.4115 232.9189,223.1695 232.9189,220.4025 Z" id="Stroke-91" stroke="#000000" mask="url(#mask-4)"></path>
                    <path d="M234.4404,211.8058 C234.4404,212.6458 233.7584,213.3258 232.9194,213.3258 C232.0794,213.3258 231.3974,212.6458 231.3974,211.8058 C231.3974,210.9658 232.0794,210.2848 232.9194,210.2848 C233.7584,210.2848 234.4404,210.9658 234.4404,211.8058" id="Fill-92" fill="#000000" mask="url(#mask-4)"></path>
                    <path d="M249.1309,215.3927 C249.1309,216.2347 248.4509,216.9137 247.6099,216.9137 C246.7719,216.9137 246.0899,216.2347 246.0899,215.3927 C246.0899,214.5547 246.7719,213.8727 247.6099,213.8727 C248.4509,213.8727 249.1309,214.5547 249.1309,215.3927" id="Fill-93" fill="#000000" mask="url(#mask-4)"></path>
                    <path d="M249.1309,223.4532 C249.1309,224.2932 248.4509,224.9742 247.6099,224.9742 C246.7719,224.9742 246.0899,224.2932 246.0899,223.4532 C246.0899,222.6132 246.7719,221.9322 247.6099,221.9322 C248.4509,221.9322 249.1309,222.6132 249.1309,223.4532" id="Fill-94" fill="#000000" mask="url(#mask-4)"></path>
                    <path d="M243.7422,228.9845 C243.7422,229.8245 243.0612,230.5055 242.2212,230.5055 C241.3832,230.5055 240.7022,229.8245 240.7022,228.9845 C240.7022,228.1445 241.3832,227.4635 242.2212,227.4635 C243.0612,227.4635 243.7422,228.1445 243.7422,228.9845" id="Fill-95" fill="#000000" mask="url(#mask-4)"></path>
                    <path d="M234.4404,228.9845 C234.4404,229.8245 233.7584,230.5055 232.9194,230.5055 C232.0794,230.5055 231.3974,229.8245 231.3974,228.9845 C231.3974,228.1445 232.0794,227.4635 232.9194,227.4635 C233.7584,227.4635 234.4404,228.1445 234.4404,228.9845" id="Fill-96" fill="#000000" mask="url(#mask-4)"></path>
                    <path d="M231.3975,223.4532 C231.3975,224.2932 230.7175,224.9742 229.8775,224.9742 C229.0385,224.9742 228.3585,224.2932 228.3585,223.4532 C228.3585,222.6132 229.0385,221.9322 229.8775,221.9322 C230.7175,221.9322 231.3975,222.6132 231.3975,223.4532" id="Fill-97" fill="#000000" mask="url(#mask-4)"></path>
                    <path d="M231.3975,216.0988 C231.3975,216.9388 230.7175,217.6198 229.8775,217.6198 C229.0385,217.6198 228.3585,216.9388 228.3585,216.0988 C228.3585,215.2588 229.0385,214.5778 229.8775,214.5778 C230.7175,214.5778 231.3975,215.2588 231.3975,216.0988" id="Fill-98" fill="#000000" mask="url(#mask-4)"></path>
                    <path d="M232.9189,211.8058 L235.3749,216.0988" id="Stroke-99" stroke="#000000" mask="url(#mask-4)"></path>
                    <path d="M240.7021,210.9054 L239.7571,215.7434" id="Stroke-100" stroke="#000000" mask="url(#mask-4)"></path>
                    <path d="M247.6094,215.3927 L242.5564,218.4847" id="Stroke-101" stroke="#000000" mask="url(#mask-4)"></path>
                    <path d="M247.6094,223.4532 L242.9374,222.1772" id="Stroke-102" stroke="#000000" mask="url(#mask-4)"></path>
                    <path d="M242.2217,228.9845 L240.7017,224.9745" id="Stroke-103" stroke="#000000" mask="url(#mask-4)"></path>
                    <path d="M232.9189,228.9845 L235.6479,224.8585" id="Stroke-104" stroke="#000000" mask="url(#mask-4)"></path>
                    <path d="M229.8779,223.4532 L233.2469,222.1772" id="Stroke-105" stroke="#000000" mask="url(#mask-4)"></path>
                    <path d="M229.8779,216.0988 L233.2469,218.1068" id="Stroke-106" stroke="#000000" mask="url(#mask-4)"></path>
                    <path d="M186.8301,172.2443 C186.8301,173.0853 186.1481,173.7653 185.3101,173.7653 C184.4691,173.7653 183.7891,173.0853 183.7891,172.2443 C183.7891,171.4053 184.4691,170.7233 185.3101,170.7233 C186.1481,170.7233 186.8301,171.4053 186.8301,172.2443" id="Fill-107" fill="#000000" mask="url(#mask-4)"></path>
                    <path d="M177.5273,181.7413 C177.5273,178.9753 179.7693,176.7313 182.5363,176.7313 C185.3033,176.7313 187.5463,178.9753 187.5463,181.7413 C187.5463,184.5083 185.3033,186.7503 182.5363,186.7503 C179.7693,186.7503 177.5273,184.5083 177.5273,181.7413" id="Fill-108" fill="#CBCE52" mask="url(#mask-4)"></path>
                    <path d="M177.5273,181.7413 C177.5273,178.9753 179.7693,176.7313 182.5363,176.7313 C185.3033,176.7313 187.5463,178.9753 187.5463,181.7413 C187.5463,184.5083 185.3033,186.7503 182.5363,186.7503 C179.7693,186.7503 177.5273,184.5083 177.5273,181.7413 Z" id="Stroke-109" stroke="#000000" mask="url(#mask-4)"></path>
                    <path d="M179.0488,173.1437 C179.0488,173.9837 178.3668,174.6647 177.5278,174.6647 C176.6878,174.6647 176.0058,173.9837 176.0058,173.1437 C176.0058,172.3037 176.6878,171.6237 177.5278,171.6237 C178.3668,171.6237 179.0488,172.3037 179.0488,173.1437" id="Fill-110" fill="#000000" mask="url(#mask-4)"></path>
                    <path d="M193.7393,176.7316 C193.7393,177.5736 193.0593,178.2526 192.2183,178.2526 C191.3803,178.2526 190.6983,177.5736 190.6983,176.7316 C190.6983,175.8936 191.3803,175.2116 192.2183,175.2116 C193.0593,175.2116 193.7393,175.8936 193.7393,176.7316" id="Fill-111" fill="#000000" mask="url(#mask-4)"></path>
                    <path d="M193.7393,184.7921 C193.7393,185.6321 193.0593,186.3131 192.2183,186.3131 C191.3803,186.3131 190.6983,185.6321 190.6983,184.7921 C190.6983,183.9521 191.3803,183.2711 192.2183,183.2711 C193.0593,183.2711 193.7393,183.9521 193.7393,184.7921" id="Fill-112" fill="#000000" mask="url(#mask-4)"></path>
                    <path d="M188.3496,190.3234 C188.3496,191.1634 187.6696,191.8444 186.8296,191.8444 C185.9906,191.8444 185.3106,191.1634 185.3106,190.3234 C185.3106,189.4834 185.9906,188.8024 186.8296,188.8024 C187.6696,188.8024 188.3496,189.4834 188.3496,190.3234" id="Fill-113" fill="#000000" mask="url(#mask-4)"></path>
                    <path d="M179.0488,190.3234 C179.0488,191.1634 178.3668,191.8444 177.5278,191.8444 C176.6878,191.8444 176.0058,191.1634 176.0058,190.3234 C176.0058,189.4834 176.6878,188.8024 177.5278,188.8024 C178.3668,188.8024 179.0488,189.4834 179.0488,190.3234" id="Fill-114" fill="#000000" mask="url(#mask-4)"></path>
                    <path d="M176.0059,184.7921 C176.0059,185.6321 175.3259,186.3131 174.4859,186.3131 C173.6469,186.3131 172.9659,185.6321 172.9659,184.7921 C172.9659,183.9521 173.6469,183.2711 174.4859,183.2711 C175.3259,183.2711 176.0059,183.9521 176.0059,184.7921" id="Fill-115" fill="#000000" mask="url(#mask-4)"></path>
                    <path d="M176.0059,177.4376 C176.0059,178.2776 175.3259,178.9586 174.4859,178.9586 C173.6469,178.9586 172.9659,178.2776 172.9659,177.4376 C172.9659,176.5976 173.6469,175.9166 174.4859,175.9166 C175.3259,175.9166 176.0059,176.5976 176.0059,177.4376" id="Fill-116" fill="#000000" mask="url(#mask-4)"></path>
                    <path d="M177.5273,173.1437 L179.9833,177.4377" id="Stroke-117" stroke="#000000" mask="url(#mask-4)"></path>
                    <path d="M185.3105,172.2443 L184.3645,177.0823" id="Stroke-118" stroke="#000000" mask="url(#mask-4)"></path>
                    <path d="M192.2178,176.7316 L187.1638,179.8236" id="Stroke-119" stroke="#000000" mask="url(#mask-4)"></path>
                    <path d="M192.2178,184.7921 L187.5458,183.5151" id="Stroke-120" stroke="#000000" mask="url(#mask-4)"></path>
                    <path d="M186.8301,190.3234 L185.3101,186.3134" id="Stroke-121" stroke="#000000" mask="url(#mask-4)"></path>
                    <path d="M177.5273,190.3234 L180.2563,186.1974" id="Stroke-122" stroke="#000000" mask="url(#mask-4)"></path>
                    <path d="M174.4863,184.7921 L177.8543,183.5151" id="Stroke-123" stroke="#000000" mask="url(#mask-4)"></path>
                    <path d="M174.4863,177.4376 L177.8543,179.4446" id="Stroke-124" stroke="#000000" mask="url(#mask-4)"></path>
                    <path d="M145.9375,121.8009 C145.9375,122.5459 145.3355,123.1479 144.5945,123.1479 C143.8505,123.1479 143.2495,122.5459 143.2495,121.8009 C143.2495,121.0609 143.8505,120.4569 144.5945,120.4569 C145.3355,120.4569 145.9375,121.0609 145.9375,121.8009" id="Fill-125" fill="#000000" mask="url(#mask-4)"></path>
                    <path d="M137.7109,130.2003 C137.7109,127.7543 139.6939,125.7693 142.1419,125.7693 C144.5899,125.7693 146.5699,127.7543 146.5699,130.2003 C146.5699,132.6483 144.5899,134.6313 142.1419,134.6313 C139.6939,134.6313 137.7109,132.6483 137.7109,130.2003" id="Fill-126" fill="#CBCE52" mask="url(#mask-4)"></path>
                    <path d="M137.7109,130.2003 C137.7109,127.7543 139.6939,125.7693 142.1419,125.7693 C144.5899,125.7693 146.5699,127.7543 146.5699,130.2003 C146.5699,132.6483 144.5899,134.6313 142.1419,134.6313 C139.6939,134.6313 137.7109,132.6483 137.7109,130.2003 Z" id="Stroke-127" stroke="#000000" mask="url(#mask-4)"></path>
                    <path d="M139.0566,122.5988 C139.0566,123.3398 138.4546,123.9418 137.7106,123.9418 C136.9696,123.9418 136.3666,123.3398 136.3666,122.5988 C136.3666,121.8568 136.9696,121.2528 137.7106,121.2528 C138.4546,121.2528 139.0566,121.8568 139.0566,122.5988" id="Fill-128" fill="#000000" mask="url(#mask-4)"></path>
                    <path d="M152.0479,125.7697 C152.0479,126.5137 151.4459,127.1177 150.7029,127.1177 C149.9609,127.1177 149.3599,126.5137 149.3599,125.7697 C149.3599,125.0297 149.9609,124.4257 150.7029,124.4257 C151.4459,124.4257 152.0479,125.0297 152.0479,125.7697" id="Fill-129" fill="#000000" mask="url(#mask-4)"></path>
                    <path d="M152.0479,132.8995 C152.0479,133.6405 151.4459,134.2435 150.7029,134.2435 C149.9609,134.2435 149.3599,133.6405 149.3599,132.8995 C149.3599,132.1555 149.9609,131.5515 150.7029,131.5515 C151.4459,131.5515 152.0479,132.1555 152.0479,132.8995" id="Fill-130" fill="#000000" mask="url(#mask-4)"></path>
                    <path d="M147.2812,137.7892 C147.2812,138.5312 146.6812,139.1352 145.9372,139.1352 C145.1962,139.1352 144.5942,138.5312 144.5942,137.7892 C144.5942,137.0482 145.1962,136.4442 145.9372,136.4442 C146.6812,136.4442 147.2812,137.0482 147.2812,137.7892" id="Fill-131" fill="#000000" mask="url(#mask-4)"></path>
                    <path d="M139.0566,137.7892 C139.0566,138.5312 138.4546,139.1352 137.7106,139.1352 C136.9696,139.1352 136.3666,138.5312 136.3666,137.7892 C136.3666,137.0482 136.9696,136.4442 137.7106,136.4442 C138.4546,136.4442 139.0566,137.0482 139.0566,137.7892" id="Fill-132" fill="#000000" mask="url(#mask-4)"></path>
                    <path d="M136.3662,132.8995 C136.3662,133.6405 135.7652,134.2435 135.0222,134.2435 C134.2802,134.2435 133.6782,133.6405 133.6782,132.8995 C133.6782,132.1555 134.2802,131.5515 135.0222,131.5515 C135.7652,131.5515 136.3662,132.1555 136.3662,132.8995" id="Fill-133" fill="#000000" mask="url(#mask-4)"></path>
                    <path d="M136.3662,126.3947 C136.3662,127.1367 135.7652,127.7397 135.0222,127.7397 C134.2802,127.7397 133.6782,127.1367 133.6782,126.3947 C133.6782,125.6527 134.2802,125.0487 135.0222,125.0487 C135.7652,125.0487 136.3662,125.6527 136.3662,126.3947" id="Fill-134" fill="#000000" mask="url(#mask-4)"></path>
                    <path d="M137.7109,122.5988 L139.8829,126.3948" id="Stroke-135" stroke="#000000" mask="url(#mask-4)"></path>
                    <path d="M144.5947,121.8009 L143.7577,126.0799" id="Stroke-136" stroke="#000000" mask="url(#mask-4)"></path>
                    <path d="M150.7031,125.7697 L146.2341,128.5047" id="Stroke-137" stroke="#000000" mask="url(#mask-4)"></path>
                    <path d="M150.7031,132.8995 L146.5701,131.7695" id="Stroke-138" stroke="#000000" mask="url(#mask-4)"></path>
                    <path d="M145.9375,137.7892 L144.5945,134.2432" id="Stroke-139" stroke="#000000" mask="url(#mask-4)"></path>
                    <path d="M137.7109,137.7892 L140.1259,134.1422" id="Stroke-140" stroke="#000000" mask="url(#mask-4)"></path>
                    <path d="M135.0225,132.8995 L138.0015,131.7695" id="Stroke-141" stroke="#000000" mask="url(#mask-4)"></path>
                    <path d="M135.0225,126.3947 L138.0015,128.1697" id="Stroke-142" stroke="#000000" mask="url(#mask-4)"></path>
                    <path d="M135.1133,45.339 C135.1133,46.084 134.5113,46.686 133.7693,46.686 C133.0263,46.686 132.4253,46.084 132.4253,45.339 C132.4253,44.599 133.0263,43.995 133.7693,43.995 C134.5113,43.995 135.1133,44.599 135.1133,45.339" id="Fill-143" fill="#000000" mask="url(#mask-4)"></path>
                    <path d="M126.8867,53.7384 C126.8867,51.2934 128.8697,49.3074 131.3177,49.3074 C133.7647,49.3074 135.7457,51.2934 135.7457,53.7384 C135.7457,56.1864 133.7647,58.1694 131.3177,58.1694 C128.8697,58.1694 126.8867,56.1864 126.8867,53.7384" id="Fill-144" fill="#CBCE52" mask="url(#mask-4)"></path>
                    <path d="M126.8867,53.7384 C126.8867,51.2934 128.8697,49.3074 131.3177,49.3074 C133.7647,49.3074 135.7457,51.2934 135.7457,53.7384 C135.7457,56.1864 133.7647,58.1694 131.3177,58.1694 C128.8697,58.1694 126.8867,56.1864 126.8867,53.7384 Z" id="Stroke-145" stroke="#000000" mask="url(#mask-4)"></path>
                    <path d="M128.2324,46.1368 C128.2324,46.8778 127.6304,47.4808 126.8864,47.4808 C126.1444,47.4808 125.5424,46.8778 125.5424,46.1368 C125.5424,45.3948 126.1444,44.7908 126.8864,44.7908 C127.6304,44.7908 128.2324,45.3948 128.2324,46.1368" id="Fill-146" fill="#000000" mask="url(#mask-4)"></path>
                    <path d="M141.2236,49.3077 C141.2236,50.0517 140.6216,50.6557 139.8786,50.6557 C139.1366,50.6557 138.5356,50.0517 138.5356,49.3077 C138.5356,48.5677 139.1366,47.9637 139.8786,47.9637 C140.6216,47.9637 141.2236,48.5677 141.2236,49.3077" id="Fill-147" fill="#000000" mask="url(#mask-4)"></path>
                    <path d="M141.2236,56.4376 C141.2236,57.1796 140.6216,57.7816 139.8786,57.7816 C139.1366,57.7816 138.5356,57.1796 138.5356,56.4376 C138.5356,55.6936 139.1366,55.0896 139.8786,55.0896 C140.6216,55.0896 141.2236,55.6936 141.2236,56.4376" id="Fill-148" fill="#000000" mask="url(#mask-4)"></path>
                    <path d="M136.457,61.3283 C136.457,62.0693 135.857,62.6733 135.113,62.6733 C134.372,62.6733 133.769,62.0693 133.769,61.3283 C133.769,60.5863 134.372,59.9823 135.113,59.9823 C135.857,59.9823 136.457,60.5863 136.457,61.3283" id="Fill-149" fill="#000000" mask="url(#mask-4)"></path>
                    <path d="M128.2324,61.3283 C128.2324,62.0693 127.6304,62.6733 126.8864,62.6733 C126.1444,62.6733 125.5424,62.0693 125.5424,61.3283 C125.5424,60.5863 126.1444,59.9823 126.8864,59.9823 C127.6304,59.9823 128.2324,60.5863 128.2324,61.3283" id="Fill-150" fill="#000000" mask="url(#mask-4)"></path>
                    <path d="M125.542,56.4376 C125.542,57.1796 124.941,57.7816 124.198,57.7816 C123.456,57.7816 122.854,57.1796 122.854,56.4376 C122.854,55.6936 123.456,55.0896 124.198,55.0896 C124.941,55.0896 125.542,55.6936 125.542,56.4376" id="Fill-151" fill="#000000" mask="url(#mask-4)"></path>
                    <path d="M125.542,49.9327 C125.542,50.6747 124.941,51.2777 124.198,51.2777 C123.456,51.2777 122.854,50.6747 122.854,49.9327 C122.854,49.1907 123.456,48.5867 124.198,48.5867 C124.941,48.5867 125.542,49.1907 125.542,49.9327" id="Fill-152" fill="#000000" mask="url(#mask-4)"></path>
                    <path d="M126.8867,46.1368 L129.0587,49.9328" id="Stroke-153" stroke="#000000" mask="url(#mask-4)"></path>
                    <path d="M133.7695,45.339 L132.9335,49.618" id="Stroke-154" stroke="#000000" mask="url(#mask-4)"></path>
                    <path d="M139.8789,49.3077 L135.4099,52.0427" id="Stroke-155" stroke="#000000" mask="url(#mask-4)"></path>
                    <path d="M139.8789,56.4376 L135.7459,55.3076" id="Stroke-156" stroke="#000000" mask="url(#mask-4)"></path>
                    <path d="M135.1133,61.3283 L133.7693,57.7813" id="Stroke-157" stroke="#000000" mask="url(#mask-4)"></path>
                    <path d="M126.8867,61.3283 L129.3017,57.6803" id="Stroke-158" stroke="#000000" mask="url(#mask-4)"></path>
                    <path d="M124.1982,56.4376 L127.1772,55.3076" id="Stroke-159" stroke="#000000" mask="url(#mask-4)"></path>
                    <path d="M124.1982,49.9327 L127.1772,51.7077" id="Stroke-160" stroke="#000000" mask="url(#mask-4)"></path>
                    <path d="M58.9277,72.8253 C58.9277,73.5693 58.3247,74.1693 57.5837,74.1693 C56.8397,74.1693 56.2387,73.5693 56.2387,72.8253 C56.2387,72.0843 56.8397,71.4813 57.5837,71.4813 C58.3247,71.4813 58.9277,72.0843 58.9277,72.8253" id="Fill-161" fill="#000000" mask="url(#mask-4)"></path>
                    <path d="M50.7012,81.2238 C50.7012,78.7778 52.6832,76.7928 55.1312,76.7928 C57.5792,76.7928 59.5602,78.7778 59.5602,81.2238 C59.5602,83.6688 57.5792,85.6528 55.1312,85.6528 C52.6832,85.6528 50.7012,83.6688 50.7012,81.2238" id="Fill-162" fill="#CBCE52" mask="url(#mask-4)"></path>
                    <path d="M50.7012,81.2238 C50.7012,78.7778 52.6832,76.7928 55.1312,76.7928 C57.5792,76.7928 59.5602,78.7778 59.5602,81.2238 C59.5602,83.6688 57.5792,85.6528 55.1312,85.6528 C52.6832,85.6528 50.7012,83.6688 50.7012,81.2238 Z" id="Stroke-163" stroke="#000000" mask="url(#mask-4)"></path>
                    <path d="M52.0459,73.6212 C52.0459,74.3632 51.4439,74.9652 50.7009,74.9652 C49.9589,74.9652 49.3559,74.3632 49.3559,73.6212 C49.3559,72.8782 49.9589,72.2772 50.7009,72.2772 C51.4439,72.2772 52.0459,72.8782 52.0459,73.6212" id="Fill-164" fill="#000000" mask="url(#mask-4)"></path>
                    <path d="M65.0371,76.7931 C65.0371,77.5381 64.4351,78.1381 63.6921,78.1381 C62.9501,78.1381 62.3491,77.5381 62.3491,76.7931 C62.3491,76.0511 62.9501,75.4491 63.6921,75.4491 C64.4351,75.4491 65.0371,76.0511 65.0371,76.7931" id="Fill-165" fill="#000000" mask="url(#mask-4)"></path>
                    <path d="M65.0371,83.921 C65.0371,84.664 64.4351,85.268 63.6921,85.268 C62.9501,85.268 62.3491,84.664 62.3491,83.921 C62.3491,83.179 62.9501,82.577 63.6921,82.577 C64.4351,82.577 65.0371,83.179 65.0371,83.921" id="Fill-166" fill="#000000" mask="url(#mask-4)"></path>
                    <path d="M60.2715,88.8126 C60.2715,89.5556 59.6705,90.1586 58.9275,90.1586 C58.1855,90.1586 57.5835,89.5556 57.5835,88.8126 C57.5835,88.0696 58.1855,87.4666 58.9275,87.4666 C59.6705,87.4666 60.2715,88.0696 60.2715,88.8126" id="Fill-167" fill="#000000" mask="url(#mask-4)"></path>
                    <path d="M52.0459,88.8126 C52.0459,89.5556 51.4439,90.1586 50.7009,90.1586 C49.9589,90.1586 49.3559,89.5556 49.3559,88.8126 C49.3559,88.0696 49.9589,87.4666 50.7009,87.4666 C51.4439,87.4666 52.0459,88.0696 52.0459,88.8126" id="Fill-168" fill="#000000" mask="url(#mask-4)"></path>
                    <path d="M49.3555,83.921 C49.3555,84.664 48.7545,85.268 48.0115,85.268 C47.2695,85.268 46.6675,84.664 46.6675,83.921 C46.6675,83.179 47.2695,82.577 48.0115,82.577 C48.7545,82.577 49.3555,83.179 49.3555,83.921" id="Fill-169" fill="#000000" mask="url(#mask-4)"></path>
                    <path d="M49.3555,77.4171 C49.3555,78.1611 48.7545,78.7631 48.0115,78.7631 C47.2695,78.7631 46.6675,78.1611 46.6675,77.4171 C46.6675,76.6741 47.2695,76.0721 48.0115,76.0721 C48.7545,76.0721 49.3555,76.6741 49.3555,77.4171" id="Fill-170" fill="#000000" mask="url(#mask-4)"></path>
                    <path d="M50.7012,73.6212 L52.8732,77.4172" id="Stroke-171" stroke="#000000" mask="url(#mask-4)"></path>
                    <path d="M57.584,72.8253 L56.747,77.1043" id="Stroke-172" stroke="#000000" mask="url(#mask-4)"></path>
                    <path d="M63.6924,76.7931 L59.2244,79.5271" id="Stroke-173" stroke="#000000" mask="url(#mask-4)"></path>
                    <path d="M63.6924,83.921 L59.5604,82.792" id="Stroke-174" stroke="#000000" mask="url(#mask-4)"></path>
                    <path d="M58.9277,88.8126 L57.5837,85.2676" id="Stroke-175" stroke="#000000" mask="url(#mask-4)"></path>
                    <path d="M50.7012,88.8126 L53.1152,85.1636" id="Stroke-176" stroke="#000000" mask="url(#mask-4)"></path>
                    <path d="M48.0117,83.921 L50.9907,82.792" id="Stroke-177" stroke="#000000" mask="url(#mask-4)"></path>
                    <path d="M48.0117,77.4171 L50.9907,79.1911" id="Stroke-178" stroke="#000000" mask="url(#mask-4)"></path>
                    <polygon id="Fill-179" fill="#8D7047" opacity="0.600000024" mask="url(#mask-4)" points="231.592 170.545 243.55 170.545 243.55 49.933 231.592 49.933"></polygon>
                    <path d="M196.9863,199.4552 C196.9863,199.4552 243.9493,199.6032 242.9373,173.7662 C242.9373,173.7662 244.3663,168.9502 237.9283,170.5452 C237.9283,170.5452 242.4843,158.5112 250.8343,167.3422 C250.8343,167.3422 257.8613,189.3602 237.9283,199.4662 C237.9283,199.4662 234.4323,205.0922 200.6403,207.5242 L198.5133,207.5242 L199.5843,215.0182 L186.8303,205.6922 L196.0083,193.4302 L196.9863,199.4552 Z" id="Fill-180" fill="#8D7047" mask="url(#mask-4)"></path>
                    <polygon id="Fill-181" fill="#9D0101" mask="url(#mask-4)" points="209.1836 190.0773 210.7426 195.3733 215.1156 192.0043 213.2666 197.2063 218.7836 197.0533 214.2306 200.1713 218.7836 203.2903 213.2666 203.1393 215.1156 208.3393 210.7426 204.9713 209.1836 210.2653 207.6226 204.9713 203.2506 208.3393 205.0996 203.1393 199.5836 203.2903 204.1366 200.1713 199.5836 197.0533 205.0996 197.2063 203.2506 192.0043 207.6226 195.3733"></polygon>
                    <path d="M205.9824,200.171 C205.9824,198.403 207.4164,196.97 209.1834,196.97 C210.9524,196.97 212.3854,198.403 212.3854,200.171 C212.3854,201.94 210.9524,203.373 209.1834,203.373 C207.4164,203.373 205.9824,201.94 205.9824,200.171" id="Fill-182" fill="#350003" mask="url(#mask-4)"></path>
                    <path d="M301.9482,175.59 C301.9482,179.278 275.7832,182.27 243.5062,182.27 C211.2282,182.27 185.0622,179.278 185.0622,175.59 C185.0622,171.902 211.2282,168.911 243.5062,168.911 C275.7832,168.911 301.9482,171.902 301.9482,175.59" id="Fill-183" fill="#EF7946" mask="url(#mask-4)"></path>
                    <polygon id="Fill-184" fill="#0C4FE5" mask="url(#mask-4)" points="264.7061 162.5314 278.8991 219.5624 273.8881 213.7214 264.7061 204.0424 264.7061 335.3384 262.4791 335.3384 262.4791 204.0384 253.2961 213.7214 248.2851 219.5624 262.4791 162.5284 262.4791 161.3994 262.7611 161.3994 263.5921 158.0564 264.4241 161.3994 264.7061 161.3994"></polygon>
                    <polygon id="Fill-185" fill="#9D0101" mask="url(#mask-4)" points="209.1836 157.2482 210.7426 162.5452 215.1156 159.1762 213.2666 164.3772 218.7836 164.2252 214.2306 167.3422 218.7836 170.4622 213.2666 170.3102 215.1156 175.5102 210.7426 172.1432 209.1836 177.4372 207.6226 172.1432 203.2506 175.5102 205.0996 170.3102 199.5836 170.4622 204.1366 167.3422 199.5836 164.2252 205.0996 164.3772 203.2506 159.1762 207.6226 162.5452"></polygon>
                    <path d="M205.9824,167.3419 C205.9824,165.5739 207.4164,164.1409 209.1834,164.1409 C210.9524,164.1409 212.3854,165.5739 212.3854,167.3419 C212.3854,169.1119 210.9524,170.5449 209.1834,170.5449 C207.4164,170.5449 205.9824,169.1119 205.9824,167.3419" id="Fill-186" fill="#350003" mask="url(#mask-4)"></path>
                    <path d="M107.5098,49.3077 L107.5098,151.4057 C107.5098,151.4057 107.4478,161.1457 93.2848,159.4757 C93.2848,159.4757 88.8008,159.3347 85.1828,159.9777 L82.0448,153.9107 L75.9238,170.5447 L91.8628,172.6397 L88.6608,167.3417 C88.6608,167.3417 97.6308,167.1377 104.4488,167.3417 C111.2668,167.5477 113.3218,164.3467 115.4948,161.0067 C115.4948,161.0067 127.3638,171.7937 143.2488,172.2447 C159.1348,172.6957 175.4468,169.3597 179.0488,178.9587 C179.0488,178.9587 182.2358,188.4007 165.2578,184.7917 C165.2578,184.7917 136.8708,181.0457 128.2438,180.9067 C119.6158,180.7657 103.6148,176.7387 107.6508,197.3987 L108.3448,199.5437 L100.5538,199.4657 L115.9888,213.3277 L124.1598,199.4657 L117.1818,199.4657 C117.1818,199.4657 111.8238,186.9567 128.2438,188.8017 C144.6628,190.6457 185.1088,203.5627 190.6978,190.0777 C196.2878,176.5907 189.3788,165.0427 172.0308,162.9547 C154.6818,160.8687 122.2118,163.6537 121.1928,147.5097 C120.1738,131.3697 120.5908,49.3077 120.5908,49.3077 L107.5098,49.3077 Z" id="Fill-187" fill="#8D7047" mask="url(#mask-4)"></path>
                    <path d="M126.1543,196.4982 C126.1543,197.3402 125.4723,198.0192 124.6343,198.0192 C123.7943,198.0192 123.1133,197.3402 123.1133,196.4982 C123.1133,195.6602 123.7943,194.9782 124.6343,194.9782 C125.4723,194.9782 126.1543,195.6602 126.1543,196.4982" id="Fill-188" fill="#000000" mask="url(#mask-4)"></path>
                    <path d="M116.8516,205.9952 C116.8516,203.2292 119.0936,200.9862 121.8616,200.9862 C124.6286,200.9862 126.8716,203.2292 126.8716,205.9952 C126.8716,208.7632 124.6286,211.0052 121.8616,211.0052 C119.0936,211.0052 116.8516,208.7632 116.8516,205.9952" id="Fill-189" fill="#CBCE52" mask="url(#mask-4)"></path>
                    <path d="M116.8516,205.9952 C116.8516,203.2292 119.0936,200.9862 121.8616,200.9862 C124.6286,200.9862 126.8716,203.2292 126.8716,205.9952 C126.8716,208.7632 124.6286,211.0052 121.8616,211.0052 C119.0936,211.0052 116.8516,208.7632 116.8516,205.9952 Z" id="Stroke-190" stroke="#000000" mask="url(#mask-4)"></path>
                    <path d="M118.373,197.3986 C118.373,198.2386 117.691,198.9186 116.852,198.9186 C116.012,198.9186 115.33,198.2386 115.33,197.3986 C115.33,196.5586 116.012,195.8786 116.852,195.8786 C117.691,195.8786 118.373,196.5586 118.373,197.3986" id="Fill-191" fill="#000000" mask="url(#mask-4)"></path>
                    <path d="M133.0635,200.9865 C133.0635,201.8275 132.3835,202.5075 131.5425,202.5075 C130.7045,202.5075 130.0225,201.8275 130.0225,200.9865 C130.0225,200.1475 130.7045,199.4655 131.5425,199.4655 C132.3835,199.4655 133.0635,200.1475 133.0635,200.9865" id="Fill-192" fill="#000000" mask="url(#mask-4)"></path>
                    <path d="M133.0635,209.046 C133.0635,209.886 132.3835,210.567 131.5425,210.567 C130.7045,210.567 130.0225,209.886 130.0225,209.046 C130.0225,208.206 130.7045,207.525 131.5425,207.525 C132.3835,207.525 133.0635,208.206 133.0635,209.046" id="Fill-193" fill="#000000" mask="url(#mask-4)"></path>
                    <path d="M127.6748,214.5773 C127.6748,215.4173 126.9938,216.0983 126.1538,216.0983 C125.3148,216.0983 124.6348,215.4173 124.6348,214.5773 C124.6348,213.7373 125.3148,213.0563 126.1538,213.0563 C126.9938,213.0563 127.6748,213.7373 127.6748,214.5773" id="Fill-194" fill="#000000" mask="url(#mask-4)"></path>
                    <path d="M118.373,214.5773 C118.373,215.4173 117.691,216.0983 116.852,216.0983 C116.012,216.0983 115.33,215.4173 115.33,214.5773 C115.33,213.7373 116.012,213.0563 116.852,213.0563 C117.691,213.0563 118.373,213.7373 118.373,214.5773" id="Fill-195" fill="#000000" mask="url(#mask-4)"></path>
                    <path d="M115.3301,209.046 C115.3301,209.886 114.6501,210.567 113.8101,210.567 C112.9711,210.567 112.2911,209.886 112.2911,209.046 C112.2911,208.206 112.9711,207.525 113.8101,207.525 C114.6501,207.525 115.3301,208.206 115.3301,209.046" id="Fill-196" fill="#000000" mask="url(#mask-4)"></path>
                    <path d="M115.3301,201.6925 C115.3301,202.5315 114.6501,203.2135 113.8101,203.2135 C112.9711,203.2135 112.2911,202.5315 112.2911,201.6925 C112.2911,200.8525 112.9711,200.1715 113.8101,200.1715 C114.6501,200.1715 115.3301,200.8525 115.3301,201.6925" id="Fill-197" fill="#000000" mask="url(#mask-4)"></path>
                    <path d="M116.8516,197.3986 L119.3076,201.6926" id="Stroke-198" stroke="#000000" mask="url(#mask-4)"></path>
                    <path d="M124.6348,196.4982 L123.6898,201.3362" id="Stroke-199" stroke="#000000" mask="url(#mask-4)"></path>
                    <path d="M131.543,200.9865 L126.489,204.0775" id="Stroke-200" stroke="#000000" mask="url(#mask-4)"></path>
                    <path d="M131.543,209.046 L126.871,207.77" id="Stroke-201" stroke="#000000" mask="url(#mask-4)"></path>
                    <path d="M126.1543,214.5773 L124.6343,210.5673" id="Stroke-202" stroke="#000000" mask="url(#mask-4)"></path>
                    <path d="M116.8516,214.5773 L119.5816,210.4523" id="Stroke-203" stroke="#000000" mask="url(#mask-4)"></path>
                    <path d="M113.8105,209.046 L117.1795,207.77" id="Stroke-204" stroke="#000000" mask="url(#mask-4)"></path>
                    <path d="M113.8105,201.6925 L117.1795,203.6995" id="Stroke-205" stroke="#000000" mask="url(#mask-4)"></path>
                    <polygon id="Fill-206" fill="#0C4FE5" mask="url(#mask-4)" points="162.8477 162.5314 177.0407 219.5624 172.0307 213.7214 162.8477 204.0424 162.8477 335.3384 160.6217 335.3384 160.6217 204.0384 151.4387 213.7214 146.4267 219.5624 160.6217 162.5284 160.6217 161.3994 160.9027 161.3994 161.7347 158.0564 162.5657 161.3994 162.8477 161.3994"></polygon>
                </g>
                <path d="M409,439 C458.705627,439 499,398.705627 499,349 C499,299.294373 458.705627,259 409,259 C359.294373,259 319,299.294373 319,349 C319,398.705627 359.294373,439 409,439 Z" id="Oval" stroke="#8D7047" stroke-width="2" fill="#FFFFFF" stroke-dasharray="6"></path>
                <text id="Disrupted-Skin-Barri" font-family="Montserrat-Bold, Montserrat" font-size="16" font-weight="bold" fill="#8D7047">
                    <tspan x="0" y="369">Disrupted Skin Barrier </tspan>
                    <tspan x="0" y="388">Foundation</tspan>
                </text>
                <text id="Harmful-substances-p" font-family="Montserrat-Bold, Montserrat" font-size="16" font-weight="bold" fill="#8D7047">
                    <tspan x="209" y="15">Harmful substances</tspan>
                    <tspan x="209" y="34">penetrate stratum corneum</tspan>
                </text>
                <text id="Reduced-Skin-Barrier" font-family="Montserrat-Bold, Montserrat" font-size="16" font-weight="bold" fill="#8D7047">
                    <tspan x="383" y="182">Reduced</tspan>
                    <tspan x="383" y="201">Skin Barrier</tspan>
                    <tspan x="383" y="220">(Disrupted </tspan>
                    <tspan x="383" y="239">bilayers )</tspan>
                </text>
                <text id="Corneocytes-(Horny-L" font-family="Montserrat-Bold, Montserrat" font-size="16" font-weight="bold" fill="#8D7047">
                    <tspan x="383" y="102">Corneocytes</tspan>
                    <tspan x="383" y="121">(Horny Layer )</tspan>
                </text>
                <text id="Moisture-Copy" font-family="Montserrat-Bold, Montserrat" font-size="16" font-weight="bold" fill="#0C4FE5">
                    <tspan x="165" y="259">Moisture</tspan>
                </text>
                <text id="일반-박피술" font-family="NotoSansCJKkr-Bold, Noto Sans CJK KR" font-size="22" font-weight="bold" fill="#39322D">
                    <tspan x="355" y="358">일반 박피술</tspan>
                </text>
                <g id="Group-5" transform="translate(249.000000, 127.000000)" stroke="#000000" stroke-linecap="round" stroke-linejoin="round">
                    <polyline id="Stroke-1" transform="translate(76.616943, 28.065236) rotate(-10.000000) translate(-76.616943, -28.065236) " points="26.6038586 31.7297165 126.630028 8.90075636 72.1038586 47.2297165"></polyline>
                    <polyline id="Stroke-3" points="28.86 78 126.86 87.5638298 0 93.5"></polyline>
                </g>
            </g>
        </g>
    </g>
</svg>