<?xml version="1.0" encoding="utf-8"?>
<!-- Generator: Adobe Illustrator 20.0.0, SVG Export Plug-In . SVG Version: 6.00 Build 0)  -->
<svg  version="1.1" id="레이어_1" xmlns="http://www.w3.org/2000/svg" xmlns:xlink="http://www.w3.org/1999/xlink" x="0px"
	 y="0px" viewBox="0 0 94 66" style="enable-background:new 0 0 94 66;" xml:space="preserve">
<style type="text/css">
	.st0{opacity:0.5;}
	.st1{fill:#6C573A;}
	.st2{filter:url(#Adobe_OpacityMaskFilter);}
	.st3{fill:#FFFFFF;}
	.st4{mask:url(#mask-6);}
</style>
<title>Group 23</title>
<desc>Created with Sketch.</desc>
<g id="Page-1">
	<g id="목주름-제거" transform="translate(-1067.000000, -2513.000000)">
		<g id="Group-9" transform="translate(1033.000000, 2497.000000)">
			<g id="Group-22">
				<g id="Group-23">
					
						<g id="_x2D_round_x2F_ver1_x2F_face3-arrow" transform="translate(113.000000, 49.000000) rotate(-9.000000) translate(-113.000000, -49.000000) translate(71.000000, 7.000000)" class="st0">
						<g id="Fill-4">
							<path id="path-1_1_" class="st1" d="M50.5,33.6c0.6,0.2,1,0.8,0.8,1.5c-0.3,1.2-0.7,2.3-1,3.3c-0.2,0.5-0.6,0.8-1.1,0.8
								c-0.1,0-0.3,0-0.4-0.1c-0.6-0.2-1-0.9-0.7-1.5c0.4-1,0.7-2,1-3.1C49.2,33.8,49.9,33.4,50.5,33.6z M39.1,50.7
								c0.5-0.4,1.3-0.3,1.7,0.2c0.4,0.5,0.3,1.3-0.2,1.7c-0.9,0.8-1.9,1.4-2.9,2c-0.2,0.1-0.4,0.2-0.6,0.2c-0.4,0-0.8-0.2-1-0.6
								c-0.3-0.6-0.2-1.3,0.4-1.7C37.3,52,38.2,51.4,39.1,50.7z M46.8,40.5c0.3-0.6,1-0.9,1.6-0.6c0.6,0.3,0.9,1,0.6,1.6
								c-0.5,1.1-1.1,2.1-1.6,3.1c-0.2,0.4-0.6,0.6-1,0.6c-0.2,0-0.4-0.1-0.6-0.2c-0.6-0.3-0.8-1.1-0.4-1.6
								C45.9,42.5,46.4,41.6,46.8,40.5z M57.5,35.3c0.4,0.6,0.2,1.3-0.4,1.7c-0.2,0.1-0.4,0.2-0.6,0.2c-0.4,0-0.8-0.2-1-0.6
								l-3.2-5.1c0,0.1,0,0.2,0,0.2c-0.1,0.6-0.6,1-1.2,1c-0.1,0-0.2,0-0.2,0c-0.7-0.1-1.1-0.8-1-1.4c0-0.1,0-0.1,0-0.2L45,34.8
								c-0.2,0.2-0.5,0.3-0.7,0.3c-0.4,0-0.7-0.2-0.9-0.4c-0.4-0.5-0.3-1.3,0.2-1.7l7.2-5.8c0,0,0,0,0,0c0,0,0,0,0.1,0
								c0,0,0,0,0-0.1c0.1-0.1,0.3,0,0.4-0.1c0.1,0,0.3-0.1,0.4-0.1c0,0,0,0,0,0c0,0,0,0,0.1,0c0.1,0,0.2,0.1,0.4,0.2
								c0.1,0.1,0.3,0.1,0.4,0.2c0,0,0,0,0,0c0,0,0,0,0,0.1c0,0,0,0,0,0L57.5,35.3z M33.6,54c0.6-0.3,1.3,0,1.6,0.6
								c0.3,0.6,0,1.3-0.6,1.6c-1.6,0.7-3,1-3.3,1c-0.7,0-1.2-0.5-1.2-1.2s0.5-1.2,1.2-1.2C31.2,54.9,32.2,54.6,33.6,54z M43.5,46.1
								c0.4-0.5,1.2-0.6,1.7-0.2c0.5,0.4,0.6,1.2,0.2,1.7c-0.7,0.9-1.5,1.8-2.3,2.7c-0.2,0.3-0.6,0.4-0.9,0.4
								c-0.3,0-0.6-0.1-0.8-0.3c-0.5-0.5-0.5-1.2,0-1.7C42.1,47.8,42.8,47,43.5,46.1z"/>
						</g>
					</g>
					
						<g id="_x2D_round_x2F_ver1_x2F_face3-arrow_1_" transform="translate(49.000000, 49.000000) scale(-1, 1) rotate(-9.000000) translate(-49.000000, -49.000000) translate(7.000000, 7.000000)" class="st0">
						<g id="Fill-4_1_">
							<path id="path-3_1_" class="st1" d="M50.5,33.6c0.6,0.2,1,0.8,0.8,1.5c-0.3,1.2-0.7,2.3-1,3.3c-0.2,0.5-0.6,0.8-1.1,0.8
								c-0.1,0-0.3,0-0.4-0.1c-0.6-0.2-1-0.9-0.7-1.5c0.4-1,0.7-2,1-3.1C49.2,33.8,49.9,33.4,50.5,33.6z M39.1,50.7
								c0.5-0.4,1.3-0.3,1.7,0.2c0.4,0.5,0.3,1.3-0.2,1.7c-0.9,0.8-1.9,1.4-2.9,2c-0.2,0.1-0.4,0.2-0.6,0.2c-0.4,0-0.8-0.2-1-0.6
								c-0.3-0.6-0.2-1.3,0.4-1.7C37.3,52,38.2,51.4,39.1,50.7z M46.8,40.5c0.3-0.6,1-0.9,1.6-0.6c0.6,0.3,0.9,1,0.6,1.6
								c-0.5,1.1-1.1,2.1-1.6,3.1c-0.2,0.4-0.6,0.6-1,0.6c-0.2,0-0.4-0.1-0.6-0.2c-0.6-0.3-0.8-1.1-0.4-1.6
								C45.9,42.5,46.4,41.6,46.8,40.5z M57.5,35.3c0.4,0.6,0.2,1.3-0.4,1.7c-0.2,0.1-0.4,0.2-0.6,0.2c-0.4,0-0.8-0.2-1-0.6
								l-3.2-5.1c0,0.1,0,0.2,0,0.2c-0.1,0.6-0.6,1-1.2,1c-0.1,0-0.2,0-0.2,0c-0.7-0.1-1.1-0.8-1-1.4c0-0.1,0-0.1,0-0.2L45,34.8
								c-0.2,0.2-0.5,0.3-0.7,0.3c-0.4,0-0.7-0.2-0.9-0.4c-0.4-0.5-0.3-1.3,0.2-1.7l7.2-5.8c0,0,0,0,0,0c0,0,0,0,0.1,0
								c0,0,0,0,0-0.1c0.1-0.1,0.3,0,0.4-0.1c0.1,0,0.3-0.1,0.4-0.1c0,0,0,0,0,0c0,0,0,0,0.1,0c0.1,0,0.2,0.1,0.4,0.2
								c0.1,0.1,0.3,0.1,0.4,0.2c0,0,0,0,0,0c0,0,0,0,0,0.1c0,0,0,0,0,0L57.5,35.3z M33.6,54c0.6-0.3,1.3,0,1.6,0.6
								c0.3,0.6,0,1.3-0.6,1.6c-1.6,0.7-3,1-3.3,1c-0.7,0-1.2-0.5-1.2-1.2c0-0.7,0.5-1.2,1.2-1.2C31.2,54.9,32.2,54.6,33.6,54z
								 M43.5,46.1c0.4-0.5,1.2-0.6,1.7-0.2c0.5,0.4,0.6,1.2,0.2,1.7c-0.7,0.9-1.5,1.8-2.3,2.7c-0.2,0.3-0.6,0.4-0.9,0.4
								c-0.3,0-0.6-0.1-0.8-0.3c-0.5-0.5-0.5-1.2,0-1.7C42.1,47.8,42.8,47,43.5,46.1z"/>
						</g>
					</g>
					<g id="_x2D_round_x2F_ver1_x2F_face3" transform="translate(38.000000, 7.000000)">
						<g id="Fill-1">
							<path id="path-5_1_" class="st1" d="M67.2,28.1c0.1,0.1,0.2,0.2,0.2,0.3c0.8,1.6,0.7,4.1-0.1,6.5c-0.9,2.6-2.5,4.2-3.9,5
								C65.2,36,66.4,31.9,67.2,28.1 M18.2,35c-0.7-1.9-0.8-3.8-0.5-5.4c0.1-0.4,0.3-0.7,0.4-1c0.8,3.6,2,7.4,3.5,11.1
								C20.4,38.9,19.1,37.3,18.2,35 M68.9,69.8c-3.7-0.5-6.5-2-8.4-4.5c-4.3-5.6-3.1-14.5-3.1-14.6c0-0.1,0-0.2,0-0.3
								c1.7-2,3.2-4.3,4.4-6.6c0.1,0,0.3,0.1,0.4,0.1c3.3,0,6.8-3,8.4-7.7c1.2-3.2,1.1-6.6,0-9c-0.6-1.2-1.5-2-2.5-2.6
								c1.2-6.7,1.4-11.9,1.4-12.4c0-1.2-0.9-2.2-2.2-2.3c-1.4-0.1-2.3,0.9-2.3,2.2c0,0.4-1.2,38-22.3,42.5
								c-21-4.5-22.2-42.1-22.3-42.5c0-1.2-0.9-2.1-2.3-2.2c-1.2,0-2.2,1-2.2,2.3c0,0.6,0.2,5.8,1.4,12.5c-1.4,0.9-2.4,2.3-2.9,4.3
								c-0.5,2.2-0.3,4.7,0.6,7.2c1.6,4.6,5.1,7.7,8.4,7.7c0,0,0.1,0,0.1,0c1.3,2.4,2.8,4.7,4.6,6.8c0,0,0,0.1,0,0.1
								c0,0.1,1.2,8.9-3.1,14.6c-2,2.6-4.7,4.1-8.4,4.6c-1.2,0.2-2.1,1.3-1.9,2.5c0.2,1.1,1.1,1.9,2.2,1.9c0.1,0,0.2,0,0.3,0
								c4.9-0.7,8.7-2.8,11.4-6.3c3.2-4.2,4-9.4,4.1-13.1c2.6,1.9,5.6,3.4,9.1,4.1c0,0,0,0,0.1,0c0.1,0,0.2,0.1,0.3,0.1
								c0.1,0,0.3,0,0.4,0c0,0,0,0,0,0h0c0,0,0,0,0,0c0.1,0,0.3,0,0.4,0c0.1,0,0.2-0.1,0.3-0.1c0,0,0,0,0.1,0
								c3.6-0.7,6.6-2.2,9.3-4.2c0.1,3.7,0.9,9.1,4.2,13.3c2.7,3.5,6.5,5.6,11.4,6.3c0.1,0,0.2,0,0.3,0c1.1,0,2.1-0.8,2.2-1.9
								C71,71.1,70.1,69.9,68.9,69.8"/>
						</g>
						<defs>
							<filter id="Adobe_OpacityMaskFilter" filterUnits="userSpaceOnUse">
								<feColorMatrix  type="matrix" values="1 0 0 0 0  0 1 0 0 0  0 0 1 0 0  0 0 0 1 0"/>
							</filter>
						</defs>
						<mask maskUnits="userSpaceOnUse" id="mask-6">
							<g class="st2">
								<path id="path-5" class="st3" d="M67.2,28.1c0.1,0.1,0.2,0.2,0.2,0.3c0.8,1.6,0.7,4.1-0.1,6.5c-0.9,2.6-2.5,4.2-3.9,5
									C65.2,36,66.4,31.9,67.2,28.1 M18.2,35c-0.7-1.9-0.8-3.8-0.5-5.4c0.1-0.4,0.3-0.7,0.4-1c0.8,3.6,2,7.4,3.5,11.1
									C20.4,38.9,19.1,37.3,18.2,35 M68.9,69.8c-3.7-0.5-6.5-2-8.4-4.5c-4.3-5.6-3.1-14.5-3.1-14.6c0-0.1,0-0.2,0-0.3
									c1.7-2,3.2-4.3,4.4-6.6c0.1,0,0.3,0.1,0.4,0.1c3.3,0,6.8-3,8.4-7.7c1.2-3.2,1.1-6.6,0-9c-0.6-1.2-1.5-2-2.5-2.6
									c1.2-6.7,1.4-11.9,1.4-12.4c0-1.2-0.9-2.2-2.2-2.3c-1.4-0.1-2.3,0.9-2.3,2.2c0,0.4-1.2,38-22.3,42.5
									c-21-4.5-22.2-42.1-22.3-42.5c0-1.2-0.9-2.1-2.3-2.2c-1.2,0-2.2,1-2.2,2.3c0,0.6,0.2,5.8,1.4,12.5c-1.4,0.9-2.4,2.3-2.9,4.3
									c-0.5,2.2-0.3,4.7,0.6,7.2c1.6,4.6,5.1,7.7,8.4,7.7c0,0,0.1,0,0.1,0c1.3,2.4,2.8,4.7,4.6,6.8c0,0,0,0.1,0,0.1
									c0,0.1,1.2,8.9-3.1,14.6c-2,2.6-4.7,4.1-8.4,4.6c-1.2,0.2-2.1,1.3-1.9,2.5c0.2,1.1,1.1,1.9,2.2,1.9c0.1,0,0.2,0,0.3,0
									c4.9-0.7,8.7-2.8,11.4-6.3c3.2-4.2,4-9.4,4.1-13.1c2.6,1.9,5.6,3.4,9.1,4.1c0,0,0,0,0.1,0c0.1,0,0.2,0.1,0.3,0.1
									c0.1,0,0.3,0,0.4,0c0,0,0,0,0,0h0c0,0,0,0,0,0c0.1,0,0.3,0,0.4,0c0.1,0,0.2-0.1,0.3-0.1c0,0,0,0,0.1,0
									c3.6-0.7,6.6-2.2,9.3-4.2c0.1,3.7,0.9,9.1,4.2,13.3c2.7,3.5,6.5,5.6,11.4,6.3c0.1,0,0.2,0,0.3,0c1.1,0,2.1-0.8,2.2-1.9
									C71,71.1,70.1,69.9,68.9,69.8"/>
							</g>
						</mask>
						<g id="swatch_x2F_dark-brown1_2_" class="st4">
						</g>
					</g>
				</g>
			</g>
		</g>
	</g>
</g>
</svg>
