<?xml version="1.0" encoding="utf-8"?>
<!-- Generator: Adobe Illustrator 20.0.0, SVG Export Plug-In . SVG Version: 6.00 Build 0)  -->
<svg version="1.1" id="레이어_1" xmlns="http://www.w3.org/2000/svg" xmlns:xlink="http://www.w3.org/1999/xlink" x="0px"
	 y="0px" viewBox="0 0 33.7 22.6" style="enable-background:new 0 0 33.7 22.6;" xml:space="preserve">
<style type="text/css">
	.st0{fill:#6B573A;}
	.st1{opacity:0.5;}
</style>
<g id="Page-1">
	<g id="목주름-제거" transform="translate(-481.000000, -2513.000000)">
		<g id="Group-4" transform="translate(469.000000, 2505.000000)">
			<g id="Group-21">
				
					<g id="_x2D_round_x2F_ver1_x2F_syringe" transform="translate(82.500000, 56.000000) scale(1, -1) rotate(45.000000) translate(-82.500000, -56.000000) translate(51.000000, 24.000000)">
					<g id="Mask">
						<path id="path-1_1_" class="st0" d="M24.6,82.6l1.9-2l0.6,0.6l-1.9,2c0,0,0,0,0,0L24.6,82.6C24.6,82.6,24.6,82.6,24.6,82.6z
							 M24,86.7L23.3,86c-0.2-0.2-0.6-0.2-0.8,0c-0.2,0.2-0.2,0.6,0,0.8l0.7,0.7l-0.7,0.8l-0.7-0.7c-0.2-0.2-0.6-0.2-0.8,0
							s-0.2,0.6,0,0.8l0.7,0.7l-0.7,0.8l-2.7-2.7l4.6-4.7l2.7,2.7L24,86.7z M17.1,93.2L14.9,91c-0.1-0.1-0.1-0.3,0-0.4l2.6-2.6
							l2.7,2.7l-0.7,0.8l-0.7-0.7c-0.2-0.2-0.6-0.2-0.8,0c-0.2,0.2-0.2,0.6,0,0.8l0.7,0.7l-1,1C17.4,93.3,17.2,93.3,17.1,93.2z
							 M14.9,93.4c-0.1,0.1-0.4-0.1-0.3-0.3l0.4-0.4l0.3,0.3L14.9,93.4z M21.6,81.2l0.5,0.5l-7.9,8.1c-0.6,0.6-0.6,1.5,0,2.1
							l0.2,0.2l-0.4,0.4c-0.4,0.4-0.5,0.9-0.3,1.4l-2.4,2.4c-0.2,0.2-0.2,0.6,0,0.8c0.2,0.2,0.6,0.2,0.8,0l2.4-2.4
							c0.5,0.2,1,0.1,1.4-0.3l0.4-0.4l0.2,0.2c0.6,0.6,1.5,0.6,2,0l7.9-8.1l0.5,0.5c0.2,0.2,0.6,0.2,0.8,0c0.2-0.2,0.2-0.6,0-0.8
							L26,84c0,0,0,0,0,0l1.9-2l0.5,0.5c0.2,0.2,0.6,0.2,0.8,0c0.2-0.2,0.2-0.6,0-0.8l-3.1-3.2c-0.2-0.2-0.6-0.2-0.8,0
							c-0.2,0.2-0.2,0.6,0,0.8l0.4,0.4l-1.9,2c0,0,0,0,0,0l-1.4-1.5c-0.2-0.2-0.6-0.2-0.8,0C21.3,80.6,21.3,81,21.6,81.2z"/>
					</g>
				</g>
				<g id="_x2D_round_x2F_ver1_x2F_face3" class="st1">
					<g id="Fill-1">
						<path id="path-3_1_" class="st0" d="M27.6,13.9c0,0,0.1,0.1,0.1,0.1c0.2,0.5,0.2,1.2,0,1.9c-0.3,0.8-0.7,1.3-1.1,1.5
							C27,16.3,27.4,15.1,27.6,13.9 M13.2,16c-0.2-0.6-0.2-1.1-0.1-1.6c0-0.1,0.1-0.2,0.1-0.3c0.2,1.1,0.6,2.2,1,3.3
							C13.8,17.2,13.4,16.7,13.2,16 M28.1,26.4c-1.1-0.1-1.9-0.6-2.5-1.4c-1.3-1.7-0.9-4.3-0.9-4.4c0,0,0-0.1,0-0.1
							c0.5-0.6,0.9-1.3,1.3-2c0,0,0.1,0,0.1,0c1,0,2-0.9,2.5-2.3c0.3-1,0.3-2,0-2.7c-0.2-0.4-0.4-0.6-0.7-0.8c0.4-2,0.4-3.5,0.4-3.7
							c0-0.4-0.3-0.7-0.6-0.7c-0.4,0-0.7,0.3-0.7,0.6c0,0.1-0.4,11.4-6.6,12.7c-6.2-1.4-6.6-12.6-6.6-12.7c0-0.4-0.3-0.6-0.7-0.6
							c-0.4,0-0.7,0.3-0.6,0.7c0,0.2,0.1,1.7,0.4,3.7c-0.4,0.3-0.7,0.7-0.9,1.3c-0.1,0.6-0.1,1.4,0.2,2.1c0.5,1.4,1.5,2.3,2.5,2.3
							c0,0,0,0,0,0c0.4,0.7,0.8,1.4,1.3,2c0,0,0,0,0,0c0,0,0.4,2.7-0.9,4.4c-0.6,0.8-1.4,1.2-2.5,1.4c-0.4,0-0.6,0.4-0.6,0.7
							c0,0.3,0.3,0.6,0.7,0.6c0,0,0.1,0,0.1,0c1.4-0.2,2.6-0.8,3.4-1.9c0.9-1.2,1.2-2.8,1.2-3.9c0.8,0.6,1.7,1,2.7,1.2c0,0,0,0,0,0
							c0,0,0.1,0,0.1,0c0,0,0.1,0,0.1,0c0,0,0,0,0,0h0c0,0,0,0,0,0c0,0,0.1,0,0.1,0c0,0,0.1,0,0.1,0c0,0,0,0,0,0
							c1.1-0.2,1.9-0.7,2.7-1.3c0,1.1,0.3,2.7,1.2,4c0.8,1,1.9,1.7,3.4,1.9c0,0,0.1,0,0.1,0c0.3,0,0.6-0.2,0.7-0.6
							C28.7,26.8,28.5,26.4,28.1,26.4"/>
					</g>
				</g>
			</g>
		</g>
	</g>
</g>
</svg>
