<?xml version="1.0" encoding="UTF-8"?>
<svg width="1201px" height="601px" viewBox="0 0 1201 601" version="1.1" xmlns="http://www.w3.org/2000/svg" xmlns:xlink="http://www.w3.org/1999/xlink">
    <!-- Generator: Sketch 52.5 (67469) - http://www.bohemiancoding.com/sketch -->
    <title>Group 23</title>
    <desc>Created with Sketch.</desc>
    <defs>
        <path d="M1180,166.004237 L1181,166 L1181,581.443977 L1,581.443977 L1,215 L0,215 L0,0 L20.9861861,0 C22.4050942,6.96795455 28.5439437,12.2159091 35.9212902,12.2159091 C43.2986368,12.2159091 49.4374863,6.96795455 50.8515184,0 L71.3598592,0 C72.7738912,6.96795455 78.9176167,12.2159091 86.2900873,12.2159091 C93.6674339,12.2159091 99.8111594,6.96795455 101.225191,0 L121.738408,0 C123.147564,6.96795455 129.29129,12.2159091 136.66376,12.2159091 C144.041107,12.2159091 150.184832,6.96795455 151.593989,0 L172.107205,0 C173.516361,6.96795455 179.660087,12.2159091 187.032557,12.2159091 C194.409904,12.2159091 200.55363,6.96795455 201.962786,0 L222.476002,0 C223.885158,6.96795455 230.028884,12.2159091 237.401355,12.2159091 C244.773825,12.2159091 250.922427,6.96795455 252.331583,0 L272.844799,0 C274.258832,6.96795455 280.402557,12.2159091 287.775028,12.2159091 C295.152374,12.2159091 301.2961,6.96795455 302.710132,0 L323.213597,0 C324.627629,6.96795455 330.77623,12.2159091 338.143825,12.2159091 C345.521171,12.2159091 351.664897,6.96795455 353.078929,0 L373.592146,0 C375.001302,6.96795455 381.149903,12.2159091 388.517498,12.2159091 C395.894844,12.2159091 402.03857,6.96795455 403.447726,0 L423.960943,0 C425.370099,6.96795455 431.5187,12.2159091 438.891171,12.2159091 C446.263641,12.2159091 452.407367,6.96795455 453.816523,0 L474.324864,0 C475.738896,6.96795455 481.877745,12.2159091 489.259968,12.2159091 C496.622686,12.2159091 502.776164,6.96795455 504.18532,0 L524.698537,0 C526.112569,6.96795455 532.256294,12.2159091 539.633641,12.2159091 C547.006111,12.2159091 553.149837,6.96795455 554.563869,0 L575.067334,0 C576.481366,6.96795455 582.629967,12.2159091 590.002438,12.2159091 C597.374909,12.2159091 603.518634,6.96795455 604.932666,0 L625.436131,0 C626.850163,6.96795455 632.998764,12.2159091 640.371235,12.2159091 C647.748582,12.2159091 653.887431,6.96795455 655.301463,0 L675.81468,0 C677.223836,6.96795455 683.372438,12.2159091 690.744908,12.2159091 C698.122255,12.2159091 704.261104,6.96795455 705.67026,0 L726.183477,0 C727.592633,6.96795455 733.736359,12.2159091 741.113705,12.2159091 C748.486176,12.2159091 754.629901,6.96795455 756.039057,0 L776.552274,0 C777.966306,6.96795455 784.110032,12.2159091 791.482502,12.2159091 C798.859849,12.2159091 804.998698,6.96795455 806.41273,0 L826.925947,0 C828.339979,6.96795455 834.483705,12.2159091 841.856175,12.2159091 C849.233522,12.2159091 855.377247,6.96795455 856.791279,0 L877.294744,0 C878.708776,6.96795455 884.852502,12.2159091 892.224972,12.2159091 C899.602319,12.2159091 905.746044,6.96795455 907.160077,0 L927.668417,0 C929.077573,6.96795455 935.226175,12.2159091 942.593769,12.2159091 C949.971116,12.2159091 956.114842,6.96795455 957.528874,0 L978.04209,0 C979.451246,6.96795455 985.599848,12.2159091 992.967443,12.2159091 C1000.34479,12.2159091 1006.48851,6.96795455 1007.89767,0 L1028.41089,0 C1029.82004,6.96795455 1035.96865,12.2159091 1043.33624,12.2159091 C1050.71359,12.2159091 1056.85731,6.96795455 1058.26647,0 L1078.77968,0 C1080.19372,6.96795455 1086.34232,12.2159091 1093.70991,12.2159091 C1101.08726,12.2159091 1107.23098,6.96795455 1108.64502,0 L1129.14848,0 C1130.56251,6.96795455 1136.71112,12.2159091 1144.07871,12.2159091 C1151.45606,12.2159091 1157.59978,6.96795455 1159.01381,0 L1180,0 L1180,166.004237 Z" id="path-1"></path>
        <filter x="-1.3%" y="-2.6%" width="102.5%" height="105.2%" filterUnits="objectBoundingBox" id="filter-2">
            <feOffset dx="0" dy="0" in="SourceAlpha" result="shadowOffsetOuter1"></feOffset>
            <feGaussianBlur stdDeviation="5" in="shadowOffsetOuter1" result="shadowBlurOuter1"></feGaussianBlur>
            <feColorMatrix values="0 0 0 0 0   0 0 0 0 0   0 0 0 0 0  0 0 0 0.2 0" type="matrix" in="shadowBlurOuter1"></feColorMatrix>
        </filter>
    </defs>
    <g id="Page-1" stroke="none" stroke-width="1" fill="none" fill-rule="evenodd">
        <g id="목주름-제거" transform="translate(-360.000000, -1523.000000)">
            <g id="Group-23" transform="translate(370.000000, 1533.000000)">
                <g id="Group-3">
                    <g id="Rectangle-9">
                        <use fill="black" fill-opacity="1" filter="url(#filter-2)" xlink:href="#path-1"></use>
                        <use fill="#FFFFFF" fill-rule="evenodd" xlink:href="#path-1"></use>
                    </g>
                </g>
                <rect id="Rectangle-16" fill="#8D7047" opacity="0.200000003" x="0" y="182" width="1180" height="1"></rect>
                <rect id="Rectangle-16-Copy-10" fill="#8D7047" opacity="0.200000003" x="0" y="167" width="1180" height="5"></rect>
                <rect id="Rectangle-16-Copy-8" fill="#8D7047" opacity="0.200000003" x="0" y="50" width="1180" height="1"></rect>
                <rect id="Rectangle-16-Copy-9" fill="#8D7047" opacity="0.200000003" x="0" y="61" width="1180" height="5"></rect>
                <path d="M389.8525,123.115 L389.8525,119.44 L412.2525,119.44 L412.2525,130.045 L407.6325,130.045 L407.6325,123.115 L389.8525,123.115 Z M394.7525,102.64 L394.7525,106.805 L407.5275,106.805 L407.5275,102.64 L394.7525,102.64 Z M403.4675,113.455 L415.7525,113.455 L415.7525,117.13 L386.6325,117.13 L386.6325,113.455 L398.8475,113.455 L398.8475,110.445 L390.2025,110.445 L390.2025,99.035 L412.0775,99.035 L412.0775,110.445 L403.4675,110.445 L403.4675,113.455 Z M421.9125,113.735 L420.2325,110.13 C426.8125,109.325 430.2425,106.175 430.6975,103.095 L421.4225,103.095 L421.4225,99.42 L445.3275,99.42 L445.3275,103.095 L436.1925,103.095 C436.6475,106.175 440.0425,109.325 446.5875,110.13 L444.9425,113.735 C439.3075,112.965 435.3525,110.55 433.4275,107.26 C431.5025,110.55 427.5475,112.965 421.9125,113.735 Z M447.9875,115.59 L447.9875,119.265 L435.6325,119.265 L435.6325,130.08 L431.0125,130.08 L431.0125,119.265 L418.8675,119.265 L418.8675,115.59 L447.9875,115.59 Z M472.1025,103.725 L472.1025,101.905 L454.6025,101.905 L454.6025,98.405 L476.6525,98.405 L476.6525,106.98 L459.2225,106.98 L459.2225,108.835 L477.2825,108.835 L477.2825,112.335 L454.6725,112.335 L454.6725,103.725 L472.1025,103.725 Z M459.2575,123.255 L459.2575,126.02 L472.3125,126.02 L472.3125,123.255 L459.2575,123.255 Z M454.7075,129.66 L454.7075,119.615 L476.8275,119.615 L476.8275,129.66 L454.7075,129.66 Z M451.0325,114.05 L480.2225,114.05 L480.2225,117.69 L451.0325,117.69 L451.0325,114.05 Z M516.6225,118.565 L512.0025,118.11 C513.0525,112.265 513.0875,107.925 513.0875,104.215 L494.0125,104.215 L494.0125,100.54 L517.7075,100.54 L517.7075,103.655 C517.7075,107.61 517.7075,112.055 516.6225,118.565 Z M509.7975,122.415 L520.3675,122.415 L520.3675,126.125 L491.1775,126.125 L491.1775,122.415 L497.3025,122.415 L497.3025,112.23 L501.8525,112.23 L501.8525,122.415 L505.2825,122.415 L505.2825,112.23 L509.7975,112.23 L509.7975,122.415 Z M540.8775,105.545 L545.7075,105.545 L545.7075,97.775 L550.3275,97.775 L550.3275,116.955 L545.7075,116.955 L545.7075,109.29 L540.8775,109.29 L540.8775,105.545 Z M542.8025,112.475 L540.5625,116.08 C537.0625,114.925 534.6475,112.65 533.2475,109.815 C531.8475,113.07 529.2925,115.695 525.5475,116.955 L523.2025,113.315 C528.3125,111.53 530.6575,107.435 530.7975,103.41 L524.4625,103.41 L524.4625,99.7 L541.7875,99.7 L541.7875,103.41 L535.5225,103.41 C535.6625,107.085 537.9025,110.865 542.8025,112.475 Z M539.4425,126.545 C543.6425,126.545 545.8475,125.67 545.8475,123.85 C545.8475,122.03 543.6425,121.155 539.4425,121.155 C535.2075,121.155 533.0025,122.03 533.0025,123.85 C533.0025,125.67 535.2075,126.545 539.4425,126.545 Z M539.4425,117.655 C546.2675,117.655 550.4675,119.93 550.4675,123.85 C550.4675,127.77 546.2675,130.045 539.4425,130.045 C532.5825,130.045 528.3825,127.77 528.3825,123.85 C528.3825,119.93 532.5825,117.655 539.4425,117.655 Z M583.2625,105.615 L581.7225,109.08 C576.1575,108.485 572.1675,106.385 570.1375,103.445 C568.1075,106.385 564.0825,108.485 558.5175,109.08 L557.0125,105.615 C564.2575,104.915 567.7575,101.66 567.7575,98.545 L567.7575,97.95 L572.5175,97.95 L572.5175,98.545 C572.5175,101.66 576.0175,104.915 583.2625,105.615 Z M584.6975,114.05 L572.4125,114.05 L572.4125,116.115 L581.1625,116.115 L581.1625,124.48 L563.5225,124.48 L563.5225,126.3 L582.0025,126.3 L582.0025,129.765 L558.9375,129.765 L558.9375,121.295 L576.6125,121.295 L576.6125,119.545 L558.9025,119.545 L558.9025,116.115 L567.7925,116.115 L567.7925,114.05 L555.5775,114.05 L555.5775,110.41 L584.6975,110.41 L584.6975,114.05 Z M612.0675,98.44 L613.2225,98.44 L613.2225,129.345 L612.0675,129.345 L612.0675,98.44 Z M597.2975,101.065 C601.7425,101.065 604.8575,105.195 604.8575,111.565 C604.8575,117.97 601.7425,122.1 597.2975,122.1 C592.8875,122.1 589.7375,117.97 589.7375,111.565 C589.7375,105.195 592.8875,101.065 597.2975,101.065 Z M597.2975,102.045 C593.5525,102.045 590.8575,106.105 590.8575,111.565 C590.8575,117.06 593.5525,121.12 597.2975,121.12 C601.0425,121.12 603.7375,117.06 603.7375,111.565 C603.7375,106.105 601.0425,102.045 597.2975,102.045 Z M653.1925,98.475 L653.1925,114.645 L652.0375,114.645 L652.0375,98.475 L653.1925,98.475 Z M634.5025,101.835 L634.5025,111.845 C636.7075,111.775 639.0875,111.705 641.3625,111.565 L641.3625,101.835 L634.5025,101.835 Z M648.0125,110.97 L648.0825,111.915 C641.9225,112.755 634.4675,113.07 628.9375,113.07 L628.7275,111.95 C630.1975,111.95 631.7375,111.915 633.3475,111.88 L633.3475,101.835 L629.6375,101.835 L629.6375,100.785 L646.1925,100.785 L646.1925,101.835 L642.5175,101.835 L642.5175,111.495 C644.4425,111.355 646.2625,111.18 648.0125,110.97 Z M635.1325,127.805 L654.6275,127.805 L654.6275,128.855 L633.9775,128.855 L633.9775,121.925 L652.0375,121.925 L652.0375,117.48 L633.8725,117.48 L633.8725,116.43 L653.1925,116.43 L653.1925,122.94 L635.1325,122.94 L635.1325,127.805 Z M669.1525,115.24 L669.1525,123.955 L679.6525,123.955 L679.6525,115.205 C678.1475,115.73 676.3275,116.01 674.3675,116.01 C672.4075,116.01 670.6575,115.73 669.1525,115.24 Z M664.4975,108.45 C664.4975,112.265 668.6975,115.03 674.3675,115.03 C680.0375,115.03 684.2375,112.265 684.2375,108.45 C684.2375,104.6 680.0375,101.835 674.3675,101.835 C668.6975,101.835 664.4975,104.6 664.4975,108.45 Z M680.8075,123.955 L688.4375,123.955 L688.4375,125.005 L660.4375,125.005 L660.4375,123.955 L667.9975,123.955 L667.9975,114.785 C665.1975,113.525 663.4825,111.285 663.4825,108.45 C663.4825,103.83 667.9275,100.855 674.3675,100.855 C680.8075,100.855 685.2525,103.83 685.2525,108.45 C685.2525,111.25 683.5725,113.49 680.8075,114.75 L680.8075,123.955 Z M711.1175,102.78 L711.1175,103.83 L692.8125,103.83 L692.8125,102.78 L701.3875,102.78 L701.3875,98.51 L702.5425,98.51 L702.5425,102.78 L711.1175,102.78 Z M695.8225,111.67 C695.8225,114.295 698.2725,116.22 701.9475,116.22 C705.5875,116.22 708.0375,114.295 708.0375,111.67 C708.0375,109.01 705.5875,107.155 701.9475,107.155 C698.2725,107.155 695.8225,109.01 695.8225,111.67 Z M709.1225,111.67 C709.1225,115.065 706.2525,117.235 701.9475,117.235 C697.5725,117.235 694.7375,115.065 694.7375,111.67 C694.7375,108.275 697.5725,106.14 701.9475,106.14 C706.2525,106.14 709.1225,108.275 709.1225,111.67 Z M698.8675,119.755 L698.8675,127.455 L717.9425,127.455 L717.9425,128.505 L697.7125,128.505 L697.7125,119.755 L698.8675,119.755 Z M716.2625,109.36 L721.3025,109.36 L721.3025,110.41 L716.2625,110.41 L716.2625,121.715 L715.1075,121.715 L715.1075,98.475 L716.2625,98.475 L716.2625,109.36 Z M756.3375,106.035 L747.3075,106.035 C745.2425,111.04 740.0625,114.89 733.6925,116.99 L733.0975,116.01 C740.7625,113.56 746.6425,108.59 747.0625,102.045 L734.6025,102.045 L734.6025,100.995 L748.3225,100.995 C748.3225,102.395 748.1125,103.725 747.6925,104.985 L756.3375,104.985 L756.3375,98.475 L757.4925,98.475 L757.4925,117.69 L756.3375,117.69 L756.3375,112.475 L746.8875,112.475 L746.8875,111.425 L756.3375,111.425 L756.3375,106.035 Z M747.6575,128.19 C752.9425,128.19 756.5125,126.37 756.5125,123.605 C756.5125,120.84 752.9425,119.02 747.6575,119.02 C742.3375,119.02 738.7675,120.84 738.7675,123.605 C738.7675,126.37 742.3375,128.19 747.6575,128.19 Z M747.6575,118.005 C753.8525,118.005 757.6325,120.07 757.6325,123.605 C757.6325,127.14 753.8525,129.205 747.6575,129.205 C741.4275,129.205 737.6475,127.14 737.6475,123.605 C737.6475,120.07 741.4275,118.005 747.6575,118.005 Z M778.6675,100.89 C773.2775,100.89 769.3925,103.2 769.3925,106.455 C769.3925,109.745 773.2775,112.055 778.6675,112.055 C784.0925,112.055 787.9425,109.745 787.9425,106.455 C787.9425,103.2 784.0925,100.89 778.6675,100.89 Z M778.6675,113.07 C772.4025,113.07 768.2375,110.515 768.2375,106.455 C768.2375,102.395 772.4025,99.875 778.6675,99.875 C784.9675,99.875 789.0975,102.395 789.0975,106.455 C789.0975,110.515 784.9675,113.07 778.6675,113.07 Z M792.7375,116.57 L792.7375,117.62 L779.2625,117.62 L779.2625,129.31 L778.1075,129.31 L778.1075,117.62 L764.6675,117.62 L764.6675,116.57 L792.7375,116.57 Z" id="목주름-교정술이-필요한-경우" fill="#8D7047"></path>
                <rect id="Rectangle-4" stroke="#E9E9E9" fill="#FFFFFF" x="100.5" y="233.5" width="979" height="59"></rect>
                <rect id="Rectangle-4-Copy-4" stroke="#E9E9E9" fill="#FFFFFF" x="100.5" y="393.5" width="979" height="59"></rect>
                <rect id="Rectangle-4-Copy" stroke="#E9E9E9" fill="#F8F8F8" x="100.5" y="313.5" width="979" height="59"></rect>
                <rect id="Rectangle-4-Copy-5" stroke="#E9E9E9" fill="#F8F8F8" x="100.5" y="473.5" width="979" height="59"></rect>
                <text id="목의-가로,-세로-주름으로-스트레스가" font-family="NotoSansCJKkr-Bold, Noto Sans CJK KR" font-size="22" font-weight="bold" fill="#555555">
                    <tspan x="225" y="273">목의 가로, 세로 주름으로 스트레스가 심하신 분</tspan>
                </text>
                <text id="목부위에-자글자글한-목주름이-신경쓰이" font-family="NotoSansCJKkr-Bold, Noto Sans CJK KR" font-size="22" font-weight="bold" fill="#555555">
                    <tspan x="225" y="433">목부위에 자글자글한 목주름이 신경쓰이는 분</tspan>
                </text>
                <text id="목살-처짐으로-목이-짧아-보이는-경우" font-family="NotoSansCJKkr-Bold, Noto Sans CJK KR" font-size="22" font-weight="bold" fill="#555555">
                    <tspan x="225" y="353">목살 처짐으로 목이 짧아 보이는 경우</tspan>
                </text>
                <text id="얼굴에-비해-목-부위의-노화가-심한" font-family="NotoSansCJKkr-Bold, Noto Sans CJK KR" font-size="22" font-weight="bold" fill="#555555">
                    <tspan x="225" y="513">얼굴에 비해 목 부위의 노화가 심한 경우</tspan>
                </text>
                <rect id="Rectangle-4" fill="#AE8B59" x="100" y="233" width="95" height="60"></rect>
                <rect id="Rectangle-4-Copy-6" fill="#AE8B59" x="100" y="393" width="95" height="60"></rect>
                <rect id="Rectangle-4-Copy-2" fill="#8D7047" x="100" y="313" width="95" height="60"></rect>
                <rect id="Rectangle-4-Copy-7" fill="#8D7047" x="100" y="473" width="95" height="60"></rect>
                <rect id="Rectangle-4" stroke="#FFFFFF" opacity="0.5" x="105.5" y="238.5" width="84" height="49"></rect>
                <rect id="Rectangle-4-Copy-8" stroke="#FFFFFF" opacity="0.5" x="105.5" y="398.5" width="84" height="49"></rect>
                <rect id="Rectangle-4-Copy-3" stroke="#FFFFFF" opacity="0.5" x="105.5" y="318.5" width="84" height="49"></rect>
                <rect id="Rectangle-4-Copy-9" stroke="#FFFFFF" opacity="0.5" x="105.5" y="478.5" width="84" height="49"></rect>
                <path d="M140.894,252.446 C143.079344,252.446 144.762327,253.12066 145.943,254.47 C147.123673,255.81934 147.714,257.755321 147.714,260.278 C147.714,262.800679 147.123673,264.740327 145.943,266.097 C144.762327,267.453673 143.079344,268.132 140.894,268.132 C138.679322,268.132 136.981673,267.453673 135.801,266.097 C134.620327,264.740327 134.03,262.800679 134.03,260.278 C134.03,257.755321 134.620327,255.81934 135.801,254.47 C136.981673,253.12066 138.679322,252.446 140.894,252.446 Z M140.894,255.438 C139.925995,255.438 139.229335,255.815663 138.804,256.571 C138.378665,257.326337 138.166,258.561991 138.166,260.278 C138.166,262.008675 138.378665,263.251663 138.804,264.007 C139.229335,264.762337 139.925995,265.14 140.894,265.14 C141.832671,265.14 142.518331,264.75867 142.951,263.996 C143.383669,263.23333 143.6,261.994009 143.6,260.278 C143.6,258.561991 143.383669,257.326337 142.951,256.571 C142.518331,255.815663 141.832671,255.438 140.894,255.438 Z M148.264,252.578 L155.26,252.578 L155.26,268 L151.234,268 L151.234,255.878 L148.264,255.878 L148.264,252.578 Z M160.166,264.37 C160.723336,264.37 161.177998,264.545998 161.53,264.898 C161.882002,265.250002 162.058,265.704664 162.058,266.262 C162.058,266.819336 161.882002,267.277665 161.53,267.637 C161.177998,267.996335 160.723336,268.176 160.166,268.176 C159.623331,268.176 159.176002,267.996335 158.824,267.637 C158.471998,267.277665 158.296,266.819336 158.296,266.262 C158.296,265.704664 158.468332,265.250002 158.813,264.898 C159.157668,264.545998 159.608664,264.37 160.166,264.37 Z" id="01." fill="#FFFFFF"></path>
                <path d="M138.705,412.446 C140.890344,412.446 142.573327,413.12066 143.754,414.47 C144.934673,415.81934 145.525,417.755321 145.525,420.278 C145.525,422.800679 144.934673,424.740327 143.754,426.097 C142.573327,427.453673 140.890344,428.132 138.705,428.132 C136.490322,428.132 134.792673,427.453673 133.612,426.097 C132.431327,424.740327 131.841,422.800679 131.841,420.278 C131.841,417.755321 132.431327,415.81934 133.612,414.47 C134.792673,413.12066 136.490322,412.446 138.705,412.446 Z M138.705,415.438 C137.736995,415.438 137.040335,415.815663 136.615,416.571 C136.189665,417.326337 135.977,418.561991 135.977,420.278 C135.977,422.008675 136.189665,423.251663 136.615,424.007 C137.040335,424.762337 137.736995,425.14 138.705,425.14 C139.643671,425.14 140.329331,424.75867 140.762,423.996 C141.194669,423.23333 141.411,421.994009 141.411,420.278 C141.411,418.561991 141.194669,417.326337 140.762,416.571 C140.329331,415.815663 139.643671,415.438 138.705,415.438 Z M154.809,418.914 C156.055673,419.090001 157.056663,419.54833 157.812,420.289 C158.567337,421.02967 158.945,421.979328 158.945,423.138 C158.945,424.120672 158.688336,424.99333 158.175,425.756 C157.661664,426.51867 156.935671,427.112665 155.997,427.538 C155.058329,427.963335 153.95834,428.176 152.697,428.176 C151.567661,428.176 150.456672,428.003668 149.364,427.659 C148.271328,427.314332 147.351004,426.856003 146.603,426.284 L148.099,423.446 C148.744337,423.988669 149.433663,424.399332 150.167,424.678 C150.900337,424.956668 151.633663,425.096 152.367,425.096 C153.217671,425.096 153.870331,424.931002 154.325,424.601 C154.779669,424.270998 155.007,423.798003 155.007,423.182 C155.007,422.565997 154.779669,422.096668 154.325,421.774 C153.870331,421.451332 153.210338,421.29 152.345,421.29 L149.749,421.29 L149.749,419.09 L153.313,415.658 L147.417,415.658 L147.417,412.578 L158.197,412.578 L158.197,414.91 L153.995,418.76 L154.809,418.914 Z M162.355,424.37 C162.912336,424.37 163.366998,424.545998 163.719,424.898 C164.071002,425.250002 164.247,425.704664 164.247,426.262 C164.247,426.819336 164.071002,427.277665 163.719,427.637 C163.366998,427.996335 162.912336,428.176 162.355,428.176 C161.812331,428.176 161.365002,427.996335 161.013,427.637 C160.660998,427.277665 160.485,426.819336 160.485,426.262 C160.485,425.704664 160.657332,425.250002 161.002,424.898 C161.346668,424.545998 161.797664,424.37 162.355,424.37 Z" id="03." fill="#FFFFFF"></path>
                <path d="M138.683,332.446 C140.868344,332.446 142.551327,333.12066 143.732,334.47 C144.912673,335.81934 145.503,337.755321 145.503,340.278 C145.503,342.800679 144.912673,344.740327 143.732,346.097 C142.551327,347.453673 140.868344,348.132 138.683,348.132 C136.468322,348.132 134.770673,347.453673 133.59,346.097 C132.409327,344.740327 131.819,342.800679 131.819,340.278 C131.819,337.755321 132.409327,335.81934 133.59,334.47 C134.770673,333.12066 136.468322,332.446 138.683,332.446 Z M138.683,335.438 C137.714995,335.438 137.018335,335.815663 136.593,336.571 C136.167665,337.326337 135.955,338.561991 135.955,340.278 C135.955,342.008675 136.167665,343.251663 136.593,344.007 C137.018335,344.762337 137.714995,345.14 138.683,345.14 C139.621671,345.14 140.307331,344.75867 140.74,343.996 C141.172669,343.23333 141.389,341.994009 141.389,340.278 C141.389,338.561991 141.172669,337.326337 140.74,336.571 C140.307331,335.815663 139.621671,335.438 138.683,335.438 Z M158.967,344.766 L158.967,348 L147.219,348 L147.197,345.338 L152.807,339.574 C153.247002,339.119331 153.606332,338.664669 153.885,338.21 C154.163668,337.755331 154.303,337.366668 154.303,337.044 C154.303,336.618665 154.149002,336.292334 153.841,336.065 C153.532998,335.837666 153.100336,335.724 152.543,335.724 C151.926997,335.724 151.241337,335.896332 150.486,336.241 C149.730663,336.585668 149.001004,337.065997 148.297,337.682 L146.757,334.712 C148.883677,333.171992 151.017656,332.402 153.159,332.402 C154.185672,332.402 155.105996,332.570665 155.92,332.908 C156.734004,333.245335 157.371998,333.721997 157.834,334.338 C158.296002,334.954003 158.527,335.657996 158.527,336.45 C158.527,337.242004 158.266669,338.059662 157.746,338.903 C157.225331,339.746338 156.488338,340.644662 155.535,341.598 L152.389,344.766 L158.967,344.766 Z M162.377,344.37 C162.934336,344.37 163.388998,344.545998 163.741,344.898 C164.093002,345.250002 164.269,345.704664 164.269,346.262 C164.269,346.819336 164.093002,347.277665 163.741,347.637 C163.388998,347.996335 162.934336,348.176 162.377,348.176 C161.834331,348.176 161.387002,347.996335 161.035,347.637 C160.682998,347.277665 160.507,346.819336 160.507,346.262 C160.507,345.704664 160.679332,345.250002 161.024,344.898 C161.368668,344.545998 161.819664,344.37 162.377,344.37 Z" id="02." fill="#FFFFFF"></path>
                <path d="M138.161,492.446 C140.346344,492.446 142.029327,493.12066 143.21,494.47 C144.390673,495.81934 144.981,497.755321 144.981,500.278 C144.981,502.800679 144.390673,504.740327 143.21,506.097 C142.029327,507.453673 140.346344,508.132 138.161,508.132 C135.946322,508.132 134.248673,507.453673 133.068,506.097 C131.887327,504.740327 131.297,502.800679 131.297,500.278 C131.297,497.755321 131.887327,495.81934 133.068,494.47 C134.248673,493.12066 135.946322,492.446 138.161,492.446 Z M138.161,495.438 C137.192995,495.438 136.496335,495.815663 136.071,496.571 C135.645665,497.326337 135.433,498.561991 135.433,500.278 C135.433,502.008675 135.645665,503.251663 136.071,504.007 C136.496335,504.762337 137.192995,505.14 138.161,505.14 C139.099671,505.14 139.785331,504.75867 140.218,503.996 C140.650669,503.23333 140.867,501.994009 140.867,500.278 C140.867,498.561991 140.650669,497.326337 140.218,496.571 C139.785331,495.815663 139.099671,495.438 138.161,495.438 Z M158.489,501.62 L158.489,504.678 L156.509,504.678 L156.509,508 L152.813,508 L152.813,504.678 L145.839,504.678 L145.839,501.95 L150.217,492.578 L154.045,492.578 L149.931,501.62 L152.813,501.62 L152.813,498.342 L156.509,498.342 L156.509,501.62 L158.489,501.62 Z M161.899,504.37 C162.456336,504.37 162.910998,504.545998 163.263,504.898 C163.615002,505.250002 163.791,505.704664 163.791,506.262 C163.791,506.819336 163.615002,507.277665 163.263,507.637 C162.910998,507.996335 162.456336,508.176 161.899,508.176 C161.356331,508.176 160.909002,507.996335 160.557,507.637 C160.204998,507.277665 160.029,506.819336 160.029,506.262 C160.029,505.704664 160.201332,505.250002 160.546,504.898 C160.890668,504.545998 161.341664,504.37 161.899,504.37 Z" id="04." fill="#FFFFFF"></path>
            </g>
        </g>
    </g>
</svg>