<?xml version="1.0" encoding="UTF-8"?>
<svg width="90px" height="64px" viewBox="0 0 90 64" version="1.1" xmlns="http://www.w3.org/2000/svg" xmlns:xlink="http://www.w3.org/1999/xlink">
    <!-- Generator: Sketch 52.5 (67469) - http://www.bohemiancoding.com/sketch -->
    <title>Group 4</title>
    <desc>Created with Sketch.</desc>
    <defs>
        <path d="M17.1646441,33.4849103 C16.5374369,31.7574831 16.3667683,29.9352329 16.7038388,28.4922747 C16.7934398,28.1006146 16.9641084,27.8161457 17.1177102,27.511063 C17.9113193,30.8752172 19.0078651,34.4290173 20.4969488,37.8921171 C19.2468012,37.1129197 17.9582531,35.6575932 17.1646441,33.4849103 M63.838244,27.1235257 C63.9150448,27.2348396 64.0046459,27.3131716 64.0686466,27.4450992 C64.8110551,28.9416531 64.7769214,31.2586318 63.9662454,33.4849103 C63.1001022,35.8760983 61.6323521,37.4303705 60.2712699,38.1106222 C61.8712882,34.4455082 63.0233013,30.6649576 63.838244,27.1235257 M65.3870617,65.8978758 C61.858488,65.4361291 59.234458,64.0508892 57.3571033,61.6597012 C53.2354562,56.4114558 54.3746692,48.1412436 54.3874693,48.0587888 C54.4002695,47.9557204 54.3704025,47.8608974 54.3661357,47.7619517 C55.9917543,45.8819832 57.3741701,43.7917551 58.5688504,41.5819676 C58.6968519,41.5943358 58.8205866,41.6438086 58.9485881,41.6438086 C62.1059575,41.6438086 65.4211954,38.8156104 66.9870799,34.5073493 C68.0836258,31.4895051 68.0708257,28.3479788 66.9486795,26.1010867 C66.3940065,24.9838247 65.5406634,24.2252409 64.5507854,23.705776 C65.7027986,17.4804417 65.8777339,12.6692066 65.8905341,12.1167597 C65.9204011,10.978884 64.9859904,10.034777 63.8126437,10.0059179 C62.4387613,9.91521763 61.6536857,10.8799383 61.6238187,12.017814 C61.6238187,12.1126369 61.5299509,14.6852254 61.0350119,18.4451624 C59.9085991,17.8638563 58.4621825,17.3443914 56.6061613,17.0764134 C56.5720276,17.0681679 55.8338859,16.9197493 54.617872,16.9197493 C53.4317251,16.9197493 51.558637,17.0681679 49.4039457,17.7690334 L45.7388372,18.985241 C45.4615007,19.0759413 45.3164324,19.3686557 45.4060334,19.6366336 L46.1100414,21.6732662 C46.1527086,21.8051938 46.2551097,21.912385 46.3873779,21.974226 C46.5111127,22.0360671 46.6689811,22.0401898 46.8012493,21.990717 C46.8567166,21.974226 52.4759808,19.9664527 57.1267006,19.9664527 C58.6029842,19.9664527 59.7933978,20.1932033 60.7320751,20.5931088 C59.0381891,31.3452093 54.1912004,48.7266724 40.4310432,51.6208344 C26.9482225,48.780268 22.0329663,32.0048474 20.2494793,21.2156423 L21.3502919,20.6838091 C22.3188363,20.2096942 23.6287179,19.9664527 25.245803,19.9664527 C29.8965229,19.9664527 35.5157871,21.974226 35.5712544,21.990717 C35.7035225,22.0401898 35.8571243,22.0360671 35.9851257,21.974226 C36.1173939,21.912385 36.2155284,21.8051938 36.2624622,21.6732662 L36.9664703,19.6366336 C37.0560713,19.3686557 36.9067363,19.0759413 36.6293998,18.985241 L32.9642912,17.7690334 C30.8138667,17.0681679 28.9407786,16.9197493 27.750365,16.9197493 C26.5386178,16.9197493 25.7962093,17.0681679 25.7962093,17.0722906 C23.0441779,17.4721962 21.1796233,18.403935 19.9550759,19.2903236 C19.3577358,15.0810082 19.2425345,12.1208824 19.2425345,12.017814 C19.2126675,10.8799383 18.3891914,10.0306543 17.0579762,10.0059179 C15.8803627,10.034777 14.945952,10.978884 14.975819,12.1167597 C14.9886192,12.6692066 15.1635545,17.5175463 16.3283678,23.7799852 C14.9843525,24.5715509 14.0115414,25.9485454 13.5806031,27.8161457 C13.1112644,29.8362872 13.3160668,32.2109843 14.1438095,34.511472 C15.7182275,38.8156104 19.0291987,41.6438086 22.1908348,41.6438086 C22.233502,41.6438086 22.2761691,41.6273177 22.3188363,41.6231949 C23.5476503,43.8907008 24.9855334,46.026279 26.6666193,47.9351067 C26.6666193,47.9804568 26.6495524,48.0175614 26.6580859,48.0629116 C26.670886,48.1453663 27.8271659,56.361983 23.6969854,61.6514557 C21.8196306,64.0467665 19.1913339,65.4361291 15.6542268,65.8978758 C14.4894135,66.0504171 13.6702041,67.089347 13.8280726,68.2148545 C13.9731409,69.2496617 14.886218,70 15.9400967,70 C16.0339645,70 16.1320989,69.9958773 16.2259667,69.983509 C20.8852199,69.3733438 24.541795,67.4067979 27.0975575,64.1333439 C30.1439923,60.2456021 30.9162678,55.3725259 31.0442693,51.8929351 C33.5274977,53.6698351 36.3691301,55.0220932 39.684368,55.6899767 C39.7099683,55.6982222 39.7313019,55.7023449 39.7526355,55.7105904 C39.8507699,55.7312041 39.9318375,55.7724315 40.0257052,55.7889224 C40.1622401,55.8136588 40.2945083,55.8219043 40.4267765,55.8219043 C40.4267765,55.8219043 40.4267765,55.826027 40.4310432,55.826027 L40.4353099,55.826027 C40.4353099,55.826027 40.4353099,55.8219043 40.4395766,55.8219043 C40.5675781,55.8219043 40.704113,55.8136588 40.8363812,55.7889224 C40.9302489,55.7724315 41.0113165,55.7312041 41.109451,55.7105904 C41.1307845,55.7023449 41.1563848,55.6982222 41.1777184,55.6899767 C44.5697572,55.0056022 47.4668569,53.6038713 49.9927524,51.7610075 C50.1036871,55.2488437 50.8631624,60.1961292 53.9437309,64.1333439 C56.5037602,67.4067979 60.1603353,69.3733438 64.8153218,69.983509 C64.9134563,69.9958773 65.0115907,70 65.1054584,70 C66.1550704,70 67.0724143,69.2496617 67.2174826,68.2148545 C67.375351,67.089347 66.5561417,66.0504171 65.3870617,65.8978758" id="path-1"></path>
        <path d="M40.2344792,13.8538442 L45.6043125,8.48401086 L47.2621458,10.1442609 L41.8947292,15.5140942 C41.8850625,15.5237609 41.8826458,15.5382609 41.8705625,15.5479275 L40.2006458,13.8780109 C40.2103125,13.8659275 40.2248125,13.8635109 40.2344792,13.8538442 Z M38.4823958,24.9777609 L36.4958958,22.9912609 C35.8844792,22.3774275 34.8888125,22.3774275 34.2749792,22.9912609 C33.6635625,23.6026775 33.6611458,24.5983442 34.2749792,25.2121775 L36.2614792,27.1986775 L34.1758958,29.2842609 L32.1893958,27.2977609 C31.5755625,26.6839275 30.5823125,26.6839275 29.9684792,27.2977609 C29.3546458,27.9115942 29.3546458,28.9072609 29.9684792,29.5186775 L31.9549792,31.5051775 L29.8669792,33.5931775 L22.4768125,26.2005942 L35.2803125,13.3995109 L42.6704792,20.7896775 L38.4823958,24.9777609 Z M19.3278958,42.9360109 L13.1339792,36.7420942 C12.8028958,36.4110109 12.8028958,35.8745109 13.1339792,35.5458442 L20.2558958,28.4239275 L27.6460625,35.8140942 L25.5604792,37.8996775 L23.5739792,35.9131775 C22.9601458,35.3017609 21.9644792,35.3017609 21.3530625,35.9131775 C20.7392292,36.5270109 20.7392292,37.5202609 21.3530625,38.1340942 L23.3395625,40.1205942 L20.5241458,42.9360109 C20.1954792,43.2646775 19.6565625,43.2646775 19.3278958,42.9360109 Z M13.3418125,43.4265942 C12.9575625,43.8108442 12.2591458,43.1100109 12.6433958,42.7281775 L13.6608125,41.7107609 L14.3592292,42.4091775 L13.3418125,43.4265942 Z M31.7664792,9.88567753 L33.0569792,11.1785942 L10.9130625,33.3249275 C9.35914583,34.8788442 9.35914583,37.4090942 10.9130625,38.9630109 L11.4398958,39.4874275 L10.4224792,40.5048442 C9.4050625,41.5246775 9.1295625,42.9988442 9.57422917,44.2724275 L2.87522917,50.9714275 C2.2638125,51.5852609 2.2638125,52.5809275 2.87522917,53.1947609 C3.4890625,53.8061775 4.48472917,53.8061775 5.09614583,53.1923442 L11.7951458,46.4933442 C13.0711458,46.9380109 14.5453125,46.6649275 15.5651458,45.6475109 L16.5801458,44.6300942 L17.1069792,45.1569275 C18.6608958,46.7108442 21.1911458,46.7108442 22.7474792,45.1569275 L44.8913958,23.0105942 L46.1843125,24.3035109 C46.7981458,24.9173442 47.7913958,24.9173442 48.4052292,24.3035109 C49.0190625,23.6896775 49.0190625,22.6964275 48.4052292,22.0825942 L44.0818125,17.7591775 C44.0914792,17.7470942 44.1059792,17.7446775 44.1156458,17.7350109 L49.4854792,12.3651775 L50.9717292,13.8538442 C51.5855625,14.4676775 52.5812292,14.4676775 53.1926458,13.8538442 C53.8064792,13.2424275 53.8064792,12.2467609 53.1926458,11.6329275 L44.4370625,2.87492753 C43.8232292,2.26351086 42.8275625,2.26351086 42.2137292,2.8773442 C41.6023125,3.48876086 41.6023125,4.48442753 42.2137292,5.0958442 L43.3833958,6.2630942 L38.0135625,11.6329275 C38.0038958,11.6425942 38.0014792,11.6570942 37.9893958,11.6691775 L33.9873958,7.66476086 C33.3735625,7.05092753 32.3803125,7.05092753 31.7664792,7.6623442 C31.1526458,8.27617753 31.1526458,9.2718442 31.7664792,9.88567753 Z" id="path-3"></path>
    </defs>
    <g id="Page-1" stroke="none" stroke-width="1" fill="none" fill-rule="evenodd">
        <g id="미간주름제거" transform="translate(-1006.000000, -2429.000000)">
            <g id="Group-4" transform="translate(993.000000, 2419.000000)">
                <g id="-round/ver1/face-brow" opacity="0.5">
                    <mask id="mask-2" fill="white">
                        <use xlink:href="#path-1"></use>
                    </mask>
                    <use id="Fill-1" fill="#5F3526" fill-rule="evenodd" xlink:href="#path-1"></use>
                    <g id="swatch/dark-brown1" mask="url(#mask-2)" fill="#6C573A" fill-rule="evenodd">
                        <rect id="Rectangle" x="0" y="0" width="83" height="80"></rect>
                    </g>
                </g>
                <g id="-round/ver1/syringe" transform="translate(76.000000, 49.000000) rotate(90.000000) translate(-76.000000, -49.000000) translate(47.000000, 20.000000)">
                    <mask id="mask-4" fill="white">
                        <use xlink:href="#path-3"></use>
                    </mask>
                    <use id="Mask" fill="#00A0E8" fill-rule="evenodd" xlink:href="#path-3"></use>
                    <g id="swatch/dark-brown1" mask="url(#mask-4)" fill="#6C573A" fill-rule="evenodd">
                        <rect id="Rectangle" x="0" y="0" width="60" height="58"></rect>
                    </g>
                </g>
            </g>
        </g>
    </g>
</svg>