<?xml version="1.0" encoding="UTF-8"?>
<svg width="1180px" height="788px" viewBox="0 0 1180 788" version="1.1" xmlns="http://www.w3.org/2000/svg" xmlns:xlink="http://www.w3.org/1999/xlink">
    <!-- Generator: Sketch 52.5 (67469) - http://www.bohemiancoding.com/sketch -->
    <title>Group 4</title>
    <desc>Created with Sketch.</desc>
    <defs>
        <linearGradient x1="50%" y1="50%" x2="0%" y2="0%" id="linearGradient-1">
            <stop stop-color="#8D7047" offset="0%"></stop>
            <stop stop-color="#BB9A6D" offset="100%"></stop>
        </linearGradient>
        <polygon id="path-2" points="71 -48 129.631353 -48 147 38 129.631353 124 71 124"></polygon>
        <polygon id="path-3" points="70 188 128.631353 188 146 274 128.631353 360 70 360"></polygon>
        <polygon id="path-4" points="71 461 129.631353 461 147 547 129.631353 633 71 633"></polygon>
    </defs>
    <g id="Page-1" stroke="none" stroke-width="1" fill="none" fill-rule="evenodd">
        <g id="트임성형_다크써클" transform="translate(-370.000000, -2632.000000)">
            <g id="Group-4" transform="translate(370.000000, 2632.000000)">
                <rect id="Rectangle-4" fill="#D8D8D8" opacity="0.2" x="0" y="10" width="280" height="778"></rect>
                <path d="M0,518 L0,245 L1180,245 L1180,518 L0,518 Z" id="Rectangle-16-Copy-2" fill-opacity="0.2" fill="#D8D8D8"></path>
                <circle id="Oval" fill="#555555" cx="28" cy="327" r="2"></circle>
                <circle id="Oval-Copy-6" fill="#555555" cx="28" cy="365" r="2"></circle>
                <circle id="Oval-Copy-7" fill="#555555" cx="28" cy="402" r="2"></circle>
                <circle id="Oval-Copy-8" fill="#555555" cx="28" cy="619" r="2"></circle>
                <circle id="Oval-Copy" fill="#555555" cx="28" cy="95" r="2"></circle>
                <circle id="Oval-Copy-2" fill="#555555" cx="28" cy="130" r="2"></circle>
                <circle id="Oval-Copy-4" fill="#555555" cx="28" cy="168" r="2"></circle>
                <path d="M456.58,138.988 L456.58,147.466 L454.204,147.466 L454.204,138.988 L456.58,138.988 Z M447.076,141.814 L447.076,145.234 C447.652,145.216 448.246,145.198 448.822,145.162 L448.822,141.814 L447.076,141.814 Z M453.034,144.856 L453.142,146.53 C449.884,147.07 446.158,147.16 443.296,147.178 L443.062,145.288 L444.79,145.27 L444.79,141.814 L443.476,141.814 L443.476,139.978 L452.404,139.978 L452.404,141.814 L451.108,141.814 L451.108,145.036 C451.774,145 452.404,144.928 453.034,144.856 Z M447.742,153.586 L457.048,153.586 L457.048,155.422 L445.384,155.422 L445.384,150.904 L454.222,150.904 L454.222,149.95 L445.366,149.95 L445.366,148.132 L456.58,148.132 L456.58,152.596 L447.742,152.596 L447.742,153.586 Z M462.25,146.584 L462.25,149.806 C464.5,149.788 466.39,149.68 468.478,149.338 L468.694,151.264 C466.228,151.66 464.032,151.75 461.278,151.75 L459.91,151.75 L459.91,144.73 L464.986,144.73 L464.986,142.264 L459.874,142.264 L459.874,140.374 L467.344,140.374 L467.344,146.584 L462.25,146.584 Z M470.818,138.952 L473.212,138.952 L473.212,155.584 L470.818,155.584 L470.818,146.854 L468.226,146.854 L468.226,144.928 L470.818,144.928 L470.818,138.952 Z M482.32,140.248 L482.32,142.66 C482.32,145.738 483.634,148.762 486.442,149.968 L485.092,151.894 C483.184,151.03 481.906,149.392 481.168,147.358 C480.43,149.572 479.08,151.354 477.1,152.29 L475.678,150.328 C478.576,149.086 479.944,145.882 479.944,142.66 L479.944,140.248 L482.32,140.248 Z M487.252,138.952 L489.628,138.952 L489.628,155.584 L487.252,155.584 L487.252,138.952 Z M506.692,143.002 L505.9,144.784 C503.038,144.478 500.986,143.398 499.942,141.886 C498.898,143.398 496.828,144.478 493.966,144.784 L493.192,143.002 C496.918,142.642 498.718,140.968 498.718,139.366 L498.718,139.06 L501.166,139.06 L501.166,139.366 C501.166,140.968 502.966,142.642 506.692,143.002 Z M507.43,147.34 L501.112,147.34 L501.112,148.402 L505.612,148.402 L505.612,152.704 L496.54,152.704 L496.54,153.64 L506.044,153.64 L506.044,155.422 L494.182,155.422 L494.182,151.066 L503.272,151.066 L503.272,150.166 L494.164,150.166 L494.164,148.402 L498.736,148.402 L498.736,147.34 L492.454,147.34 L492.454,145.468 L507.43,145.468 L507.43,147.34 Z" id="필러시술" fill="#555555"></path>
                <path d="M456.13,632.434 L456.13,634.306 L444.7,634.306 L444.7,628.42 L447.076,628.42 L447.076,632.434 L456.13,632.434 Z M446.914,639.274 L446.914,642.388 L456.238,642.388 L456.238,644.26 L444.538,644.26 L444.538,639.274 L446.914,639.274 Z M442.792,635.746 L457.804,635.746 L457.804,637.636 L451.666,637.636 L451.666,640.534 L449.29,640.534 L449.29,637.636 L442.792,637.636 L442.792,635.746 Z M473.086,627.988 L473.086,636.466 L470.71,636.466 L470.71,627.988 L473.086,627.988 Z M465.886,634.054 L465.886,630.76 L462.502,630.76 L462.502,634.054 L465.886,634.054 Z M468.208,628.888 L468.208,635.908 L460.162,635.908 L460.162,628.888 L468.208,628.888 Z M464.446,642.568 L473.482,642.568 L473.482,644.368 L462.088,644.368 L462.088,637.204 L473.194,637.204 L473.194,638.986 L464.446,638.986 L464.446,639.94 L472.996,639.94 L472.996,641.578 L464.446,641.578 L464.446,642.568 Z M482.302,631.516 L482.302,632.434 C482.302,635.134 483.634,637.996 486.406,639.148 L485.11,641.02 C483.184,640.192 481.87,638.572 481.132,636.574 C480.394,638.734 479.062,640.552 477.118,641.434 L475.768,639.544 C478.54,638.302 479.89,635.26 479.89,632.434 L479.89,631.516 L476.434,631.516 L476.434,629.554 L485.722,629.554 L485.722,631.516 L482.302,631.516 Z M487.252,627.97 L489.628,627.97 L489.628,644.548 L487.252,644.548 L487.252,627.97 Z M498.538,634.954 L498.538,632.902 L495.28,632.902 L495.28,634.954 L498.538,634.954 Z M500.878,629.032 L500.878,636.808 L492.94,636.808 L492.94,629.032 L495.28,629.032 L495.28,631.084 L498.538,631.084 L498.538,629.032 L500.878,629.032 Z M500.068,642.73 C502.192,642.73 503.326,642.28 503.326,641.344 C503.326,640.408 502.192,639.958 500.068,639.958 C497.962,639.958 496.828,640.408 496.828,641.344 C496.828,642.28 497.962,642.73 500.068,642.73 Z M500.068,638.104 C503.524,638.104 505.684,639.31 505.684,641.344 C505.684,643.36 503.524,644.584 500.068,644.584 C496.63,644.584 494.47,643.36 494.47,641.344 C494.47,639.31 496.63,638.104 500.068,638.104 Z M505.504,631.84 L507.7,631.84 L507.7,633.784 L505.504,633.784 L505.504,637.744 L503.128,637.744 L503.128,627.988 L505.504,627.988 L505.504,631.84 Z M525.196,627.952 L527.446,627.952 L527.446,644.53 L525.196,644.53 L525.196,636.25 L523.846,636.25 L523.846,643.792 L521.632,643.792 L521.632,638.986 L520.3,640.768 C518.824,639.976 517.87,638.644 517.276,636.988 C516.736,638.896 515.764,640.462 514.216,641.38 L512.794,639.58 C515.26,638.14 516.052,635.206 516.052,632.02 L516.052,631.57 L513.334,631.57 L513.334,629.644 L520.84,629.644 L520.84,631.57 L518.356,631.57 L518.356,632.02 C518.356,634.918 519.184,637.672 521.632,638.95 L521.632,628.222 L523.846,628.222 L523.846,634.306 L525.196,634.306 L525.196,627.952 Z M534.484,638.734 L534.484,635.026 L532.36,635.026 L532.36,638.734 L534.484,638.734 Z M534.484,633.172 L534.484,629.428 L536.662,629.428 L536.662,640.624 L530.128,640.624 L530.128,629.428 L532.36,629.428 L532.36,633.172 L534.484,633.172 Z M541.63,627.952 L543.88,627.952 L543.88,644.53 L541.63,644.53 L541.63,636.196 L540.244,636.196 L540.244,643.81 L538.03,643.81 L538.03,628.222 L540.244,628.222 L540.244,634.288 L541.63,634.288 L541.63,627.952 Z M552.682,632.56 L552.682,633.136 C552.682,635.53 553.996,638.23 556.714,639.4 L555.454,641.218 C553.582,640.444 552.268,638.86 551.53,636.97 C550.792,638.968 549.46,640.66 547.57,641.506 L546.292,639.688 C549.01,638.464 550.306,635.656 550.306,633.136 L550.306,632.56 L546.85,632.56 L546.85,630.67 L550.306,630.67 L550.306,628.366 L552.682,628.366 L552.682,630.67 L556.066,630.67 L556.066,632.56 L552.682,632.56 Z M557.596,627.97 L559.972,627.97 L559.972,644.548 L557.596,644.548 L557.596,627.97 Z M447.04,665.644 L447.04,669.37 L456.49,669.37 L456.49,671.26 L444.664,671.26 L444.664,665.644 L447.04,665.644 Z M455.662,662.314 L457.786,662.314 L457.786,664.204 L442.774,664.204 L442.774,662.314 L453.286,662.314 C453.646,660.478 453.7,659.074 453.7,657.778 L444.628,657.778 L444.628,655.888 L456.04,655.888 L456.04,657.328 C456.04,658.732 456.04,660.298 455.662,662.314 Z M465.382,662.008 L465.382,658.012 L462.142,658.012 L462.142,662.008 L465.382,662.008 Z M467.722,656.14 L467.722,663.88 L459.82,663.88 L459.82,656.14 L467.722,656.14 Z M461.314,667.426 L461.314,665.536 L472.384,665.536 L472.384,671.566 L470.008,671.566 L470.008,667.426 L461.314,667.426 Z M474.58,658.912 L474.58,660.856 L472.384,660.856 L472.384,664.798 L470.008,664.798 L470.008,654.97 L472.384,654.97 L472.384,658.912 L474.58,658.912 Z M477.226,665.104 L476.38,663.232 C480.16,662.782 481.978,660.928 482.176,659.11 L477.19,659.11 L477.19,657.22 L482.212,657.22 L482.212,655.186 L484.588,655.186 L484.588,657.22 L489.61,657.22 L489.61,659.11 L484.624,659.11 C484.822,660.928 486.64,662.782 490.42,663.232 L489.574,665.104 C486.604,664.708 484.498,663.484 483.4,661.792 C482.302,663.484 480.196,664.708 477.226,665.104 Z M484.588,667.732 L490.906,667.732 L490.906,669.658 L475.894,669.658 L475.894,667.732 L482.212,667.732 L482.212,664.528 L484.588,664.528 L484.588,667.732 Z M509.446,665.914 L507.07,665.644 C507.7,662.512 507.736,660.208 507.736,658.282 L498.07,658.282 L498.07,656.392 L510.112,656.392 L510.112,657.976 C510.112,660.046 510.112,662.386 509.446,665.914 Z M504.226,667.642 L511.552,667.642 L511.552,669.55 L496.558,669.55 L496.558,667.642 L501.85,667.642 L501.85,661.936 L504.226,661.936 L504.226,667.642 Z M522.1,658.966 L524.584,658.966 L524.584,654.97 L526.96,654.97 L526.96,664.834 L524.584,664.834 L524.584,660.892 L522.1,660.892 L522.1,658.966 Z M523.09,662.53 L521.938,664.384 C520.138,663.79 518.896,662.62 518.176,661.162 C517.456,662.836 516.142,664.186 514.216,664.834 L513.01,662.962 C515.638,662.044 516.844,659.938 516.916,657.868 L513.658,657.868 L513.658,655.96 L522.568,655.96 L522.568,657.868 L519.346,657.868 C519.418,659.758 520.57,661.702 523.09,662.53 Z M521.362,669.766 C523.522,669.766 524.656,669.316 524.656,668.38 C524.656,667.444 523.522,666.994 521.362,666.994 C519.184,666.994 518.05,667.444 518.05,668.38 C518.05,669.316 519.184,669.766 521.362,669.766 Z M521.362,665.194 C524.872,665.194 527.032,666.364 527.032,668.38 C527.032,670.396 524.872,671.566 521.362,671.566 C517.834,671.566 515.674,670.396 515.674,668.38 C515.674,666.364 517.834,665.194 521.362,665.194 Z M451.936,690.268 L451.936,685.3 L448.552,685.3 L448.552,690.268 L451.936,690.268 Z M446.194,690.268 L446.194,685.3 L443.944,685.3 L443.944,683.41 L456.544,683.41 L456.544,685.3 L454.294,685.3 L454.294,690.268 L456.49,690.268 L456.49,692.158 L444.034,692.158 L444.034,690.268 L446.194,690.268 Z M442.774,694.696 L457.786,694.696 L457.786,696.622 L442.774,696.622 L442.774,694.696 Z M459.928,686.218 L465.13,686.218 L465.13,684.778 L459.91,684.778 L459.91,682.888 L467.47,682.888 L467.47,687.982 L462.286,687.982 L462.286,689.548 C464.986,689.53 466.804,689.422 468.874,689.044 L469.072,690.952 C466.768,691.384 464.662,691.456 461.35,691.456 L459.928,691.456 L459.928,686.218 Z M461.332,694.696 L461.332,692.806 L472.384,692.806 L472.384,698.548 L470.008,698.548 L470.008,694.696 L461.332,694.696 Z M474.58,685.912 L474.58,687.874 L472.384,687.874 L472.384,692.05 L470.008,692.05 L470.008,681.988 L472.384,681.988 L472.384,685.912 L474.58,685.912 Z M490.024,681.97 L490.024,690.592 L487.774,690.592 L487.774,681.97 L490.024,681.97 Z M484.462,690.502 L484.462,686.416 L482.554,686.416 L482.554,684.526 L484.462,684.526 L484.462,682.222 L486.676,682.222 L486.676,690.502 L484.462,690.502 Z M483.958,688.414 L482.77,690.232 C481.402,689.656 480.502,688.648 479.962,687.388 C479.404,688.81 478.432,689.98 476.992,690.664 L475.678,688.9 C477.946,687.874 478.81,685.732 478.81,683.644 L478.81,682.6 L481.132,682.6 L481.132,683.68 C481.132,685.714 481.906,687.568 483.958,688.414 Z M481.132,696.586 L490.546,696.586 L490.546,698.422 L478.792,698.422 L478.792,693.922 L487.684,693.922 L487.684,693.022 L478.756,693.022 L478.756,691.204 L490.024,691.204 L490.024,695.632 L481.132,695.632 L481.132,696.586 Z M499.294,689.944 L499.294,692.734 C500.86,692.698 502.336,692.608 504.01,692.338 L504.208,694.246 C502.066,694.624 500.23,694.678 498.16,694.678 L496.99,694.678 L496.99,688.072 L500.536,688.072 L500.536,685.48 L496.972,685.48 L496.972,683.59 L502.84,683.59 L502.84,689.944 L499.294,689.944 Z M505.144,687.604 L505.144,682.258 L507.34,682.258 L507.34,697.774 L505.144,697.774 L505.144,689.548 L503.506,689.548 L503.506,687.604 L505.144,687.604 Z M508.51,681.952 L510.76,681.952 L510.76,698.53 L508.51,698.53 L508.51,681.952 Z M524.458,681.952 L526.834,681.952 L526.834,698.584 L524.458,698.584 L524.458,681.952 Z M517.924,683.122 C520.426,683.122 522.28,685.39 522.28,689.026 C522.28,692.68 520.426,694.966 517.924,694.966 C515.422,694.966 513.568,692.68 513.568,689.026 C513.568,685.39 515.422,683.122 517.924,683.122 Z M517.924,685.264 C516.7,685.264 515.854,686.578 515.854,689.026 C515.854,691.492 516.7,692.806 517.924,692.806 C519.148,692.806 519.994,691.492 519.994,689.026 C519.994,686.578 519.148,685.264 517.924,685.264 Z M535.888,685.48 L535.888,686.056 C535.888,688.972 537.202,692.032 539.956,693.292 L538.588,695.164 C536.716,694.246 535.438,692.536 534.718,690.466 C534.016,692.698 532.72,694.534 530.812,695.488 L529.408,693.616 C532.18,692.32 533.494,689.134 533.494,686.056 L533.494,685.48 L530.092,685.48 L530.092,683.554 L539.29,683.554 L539.29,685.48 L535.888,685.48 Z M541.198,681.952 L543.574,681.952 L543.574,698.584 L541.198,698.584 L541.198,689.674 L538.282,689.674 L538.282,687.748 L541.198,687.748 L541.198,681.952 Z" id="눈밑지방-재배치-근막초-고정-프락셀" fill="#555555"></path>
                <path d="M444.528,381.944 L444.528,384.734 C446.094,384.698 447.57,384.608 449.244,384.338 L449.442,386.246 C447.3,386.624 445.464,386.678 443.394,386.678 L442.224,386.678 L442.224,380.072 L445.77,380.072 L445.77,377.48 L442.206,377.48 L442.206,375.59 L448.074,375.59 L448.074,381.944 L444.528,381.944 Z M450.378,379.604 L450.378,374.258 L452.574,374.258 L452.574,389.774 L450.378,389.774 L450.378,381.548 L448.74,381.548 L448.74,379.604 L450.378,379.604 Z M453.744,373.952 L455.994,373.952 L455.994,390.53 L453.744,390.53 L453.744,373.952 Z M469.692,373.952 L472.068,373.952 L472.068,390.584 L469.692,390.584 L469.692,373.952 Z M463.158,375.122 C465.66,375.122 467.514,377.39 467.514,381.026 C467.514,384.68 465.66,386.966 463.158,386.966 C460.656,386.966 458.802,384.68 458.802,381.026 C458.802,377.39 460.656,375.122 463.158,375.122 Z M463.158,377.264 C461.934,377.264 461.088,378.578 461.088,381.026 C461.088,383.492 461.934,384.806 463.158,384.806 C464.382,384.806 465.228,383.492 465.228,381.026 C465.228,378.578 464.382,377.264 463.158,377.264 Z M481.122,377.48 L481.122,378.056 C481.122,380.972 482.436,384.032 485.19,385.292 L483.822,387.164 C481.95,386.246 480.672,384.536 479.952,382.466 C479.25,384.698 477.954,386.534 476.046,387.488 L474.642,385.616 C477.414,384.32 478.728,381.134 478.728,378.056 L478.728,377.48 L475.326,377.48 L475.326,375.554 L484.524,375.554 L484.524,377.48 L481.122,377.48 Z M486.432,373.952 L488.808,373.952 L488.808,390.584 L486.432,390.584 L486.432,381.674 L483.516,381.674 L483.516,379.748 L486.432,379.748 L486.432,373.952 Z" id="레이저" fill="#555555"></path>
                <path d="M742.584,140.464 L750.558,140.464 L750.558,151.606 L742.584,151.606 L742.584,140.464 Z M748.218,142.336 L744.924,142.336 L744.924,149.734 L748.218,149.734 L748.218,142.336 Z M753.132,138.97 L755.508,138.97 L755.508,155.584 L753.132,155.584 L753.132,138.97 Z M763.626,140.41 L763.626,143.11 C763.626,145.792 764.346,148.546 766.596,150.04 L765.3,151.876 C763.896,151.012 763.014,149.608 762.492,147.934 C761.916,149.77 760.944,151.354 759.45,152.254 L758.028,150.472 C760.458,148.996 761.34,146.026 761.34,143.2 L761.34,140.41 L763.626,140.41 Z M766.938,144.568 L766.938,139.24 L769.152,139.24 L769.152,154.81 L766.938,154.81 L766.938,146.494 L764.868,146.494 L764.868,144.568 L766.938,144.568 Z M770.304,138.97 L772.554,138.97 L772.554,155.548 L770.304,155.548 L770.304,138.97 Z M781.302,142.516 L781.302,143.434 C781.302,146.134 782.634,148.996 785.406,150.148 L784.11,152.02 C782.184,151.192 780.87,149.572 780.132,147.574 C779.394,149.734 778.062,151.552 776.118,152.434 L774.768,150.544 C777.54,149.302 778.89,146.26 778.89,143.434 L778.89,142.516 L775.434,142.516 L775.434,140.554 L784.722,140.554 L784.722,142.516 L781.302,142.516 Z M786.252,138.97 L788.628,138.97 L788.628,155.548 L786.252,155.548 L786.252,138.97 Z M797.538,145.954 L797.538,143.902 L794.28,143.902 L794.28,145.954 L797.538,145.954 Z M799.878,140.032 L799.878,147.808 L791.94,147.808 L791.94,140.032 L794.28,140.032 L794.28,142.084 L797.538,142.084 L797.538,140.032 L799.878,140.032 Z M799.068,153.73 C801.192,153.73 802.326,153.28 802.326,152.344 C802.326,151.408 801.192,150.958 799.068,150.958 C796.962,150.958 795.828,151.408 795.828,152.344 C795.828,153.28 796.962,153.73 799.068,153.73 Z M799.068,149.104 C802.524,149.104 804.684,150.31 804.684,152.344 C804.684,154.36 802.524,155.584 799.068,155.584 C795.63,155.584 793.47,154.36 793.47,152.344 C793.47,150.31 795.63,149.104 799.068,149.104 Z M804.504,142.84 L806.7,142.84 L806.7,144.784 L804.504,144.784 L804.504,148.744 L802.128,148.744 L802.128,138.988 L804.504,138.988 L804.504,142.84 Z M819.372,138.952 L821.748,138.952 L821.748,155.584 L819.372,155.584 L819.372,138.952 Z M812.838,140.122 C815.34,140.122 817.194,142.39 817.194,146.026 C817.194,149.68 815.34,151.966 812.838,151.966 C810.336,151.966 808.482,149.68 808.482,146.026 C808.482,142.39 810.336,140.122 812.838,140.122 Z M812.838,142.264 C811.614,142.264 810.768,143.578 810.768,146.026 C810.768,148.492 811.614,149.806 812.838,149.806 C814.062,149.806 814.908,148.492 814.908,146.026 C814.908,143.578 814.062,142.264 812.838,142.264 Z M834.726,146.188 L833.574,148.06 C831.72,147.466 830.442,146.296 829.704,144.802 C828.948,146.404 827.616,147.7 825.672,148.33 L824.502,146.458 C827.274,145.576 828.462,143.416 828.462,141.31 L828.462,139.726 L830.874,139.726 L830.874,141.31 C830.874,143.38 832.044,145.36 834.726,146.188 Z M827.04,151.48 L827.04,149.572 L838.344,149.572 L838.344,155.566 L835.95,155.566 L835.95,151.48 L827.04,151.48 Z M835.95,138.97 L838.344,138.97 L838.344,148.852 L835.95,148.852 L835.95,138.97 Z" id="미세지방이식" fill="#555555"></path>
                <path d="M755.13,632.434 L755.13,634.306 L743.7,634.306 L743.7,628.42 L746.076,628.42 L746.076,632.434 L755.13,632.434 Z M745.914,639.274 L745.914,642.388 L755.238,642.388 L755.238,644.26 L743.538,644.26 L743.538,639.274 L745.914,639.274 Z M741.792,635.746 L756.804,635.746 L756.804,637.636 L750.666,637.636 L750.666,640.534 L748.29,640.534 L748.29,637.636 L741.792,637.636 L741.792,635.746 Z M772.086,627.988 L772.086,636.466 L769.71,636.466 L769.71,627.988 L772.086,627.988 Z M764.886,634.054 L764.886,630.76 L761.502,630.76 L761.502,634.054 L764.886,634.054 Z M767.208,628.888 L767.208,635.908 L759.162,635.908 L759.162,628.888 L767.208,628.888 Z M763.446,642.568 L772.482,642.568 L772.482,644.368 L761.088,644.368 L761.088,637.204 L772.194,637.204 L772.194,638.986 L763.446,638.986 L763.446,639.94 L771.996,639.94 L771.996,641.578 L763.446,641.578 L763.446,642.568 Z M781.302,631.516 L781.302,632.434 C781.302,635.134 782.634,637.996 785.406,639.148 L784.11,641.02 C782.184,640.192 780.87,638.572 780.132,636.574 C779.394,638.734 778.062,640.552 776.118,641.434 L774.768,639.544 C777.54,638.302 778.89,635.26 778.89,632.434 L778.89,631.516 L775.434,631.516 L775.434,629.554 L784.722,629.554 L784.722,631.516 L781.302,631.516 Z M786.252,627.97 L788.628,627.97 L788.628,644.548 L786.252,644.548 L786.252,627.97 Z M797.538,634.954 L797.538,632.902 L794.28,632.902 L794.28,634.954 L797.538,634.954 Z M799.878,629.032 L799.878,636.808 L791.94,636.808 L791.94,629.032 L794.28,629.032 L794.28,631.084 L797.538,631.084 L797.538,629.032 L799.878,629.032 Z M799.068,642.73 C801.192,642.73 802.326,642.28 802.326,641.344 C802.326,640.408 801.192,639.958 799.068,639.958 C796.962,639.958 795.828,640.408 795.828,641.344 C795.828,642.28 796.962,642.73 799.068,642.73 Z M799.068,638.104 C802.524,638.104 804.684,639.31 804.684,641.344 C804.684,643.36 802.524,644.584 799.068,644.584 C795.63,644.584 793.47,643.36 793.47,641.344 C793.47,639.31 795.63,638.104 799.068,638.104 Z M804.504,631.84 L806.7,631.84 L806.7,633.784 L804.504,633.784 L804.504,637.744 L802.128,637.744 L802.128,627.988 L804.504,627.988 L804.504,631.84 Z M824.196,627.952 L826.446,627.952 L826.446,644.53 L824.196,644.53 L824.196,636.25 L822.846,636.25 L822.846,643.792 L820.632,643.792 L820.632,638.986 L819.3,640.768 C817.824,639.976 816.87,638.644 816.276,636.988 C815.736,638.896 814.764,640.462 813.216,641.38 L811.794,639.58 C814.26,638.14 815.052,635.206 815.052,632.02 L815.052,631.57 L812.334,631.57 L812.334,629.644 L819.84,629.644 L819.84,631.57 L817.356,631.57 L817.356,632.02 C817.356,634.918 818.184,637.672 820.632,638.95 L820.632,628.222 L822.846,628.222 L822.846,634.306 L824.196,634.306 L824.196,627.952 Z M833.484,638.734 L833.484,635.026 L831.36,635.026 L831.36,638.734 L833.484,638.734 Z M833.484,633.172 L833.484,629.428 L835.662,629.428 L835.662,640.624 L829.128,640.624 L829.128,629.428 L831.36,629.428 L831.36,633.172 L833.484,633.172 Z M840.63,627.952 L842.88,627.952 L842.88,644.53 L840.63,644.53 L840.63,636.196 L839.244,636.196 L839.244,643.81 L837.03,643.81 L837.03,628.222 L839.244,628.222 L839.244,634.288 L840.63,634.288 L840.63,627.952 Z M851.682,632.56 L851.682,633.136 C851.682,635.53 852.996,638.23 855.714,639.4 L854.454,641.218 C852.582,640.444 851.268,638.86 850.53,636.97 C849.792,638.968 848.46,640.66 846.57,641.506 L845.292,639.688 C848.01,638.464 849.306,635.656 849.306,633.136 L849.306,632.56 L845.85,632.56 L845.85,630.67 L849.306,630.67 L849.306,628.366 L851.682,628.366 L851.682,630.67 L855.066,630.67 L855.066,632.56 L851.682,632.56 Z M856.596,627.97 L858.972,627.97 L858.972,644.548 L856.596,644.548 L856.596,627.97 Z M746.04,665.644 L746.04,669.37 L755.49,669.37 L755.49,671.26 L743.664,671.26 L743.664,665.644 L746.04,665.644 Z M754.662,662.314 L756.786,662.314 L756.786,664.204 L741.774,664.204 L741.774,662.314 L752.286,662.314 C752.646,660.478 752.7,659.074 752.7,657.778 L743.628,657.778 L743.628,655.888 L755.04,655.888 L755.04,657.328 C755.04,658.732 755.04,660.298 754.662,662.314 Z M764.382,662.008 L764.382,658.012 L761.142,658.012 L761.142,662.008 L764.382,662.008 Z M766.722,656.14 L766.722,663.88 L758.82,663.88 L758.82,656.14 L766.722,656.14 Z M760.314,667.426 L760.314,665.536 L771.384,665.536 L771.384,671.566 L769.008,671.566 L769.008,667.426 L760.314,667.426 Z M773.58,658.912 L773.58,660.856 L771.384,660.856 L771.384,664.798 L769.008,664.798 L769.008,654.97 L771.384,654.97 L771.384,658.912 L773.58,658.912 Z M776.226,665.104 L775.38,663.232 C779.16,662.782 780.978,660.928 781.176,659.11 L776.19,659.11 L776.19,657.22 L781.212,657.22 L781.212,655.186 L783.588,655.186 L783.588,657.22 L788.61,657.22 L788.61,659.11 L783.624,659.11 C783.822,660.928 785.64,662.782 789.42,663.232 L788.574,665.104 C785.604,664.708 783.498,663.484 782.4,661.792 C781.302,663.484 779.196,664.708 776.226,665.104 Z M783.588,667.732 L789.906,667.732 L789.906,669.658 L774.894,669.658 L774.894,667.732 L781.212,667.732 L781.212,664.528 L783.588,664.528 L783.588,667.732 Z M808.446,665.914 L806.07,665.644 C806.7,662.512 806.736,660.208 806.736,658.282 L797.07,658.282 L797.07,656.392 L809.112,656.392 L809.112,657.976 C809.112,660.046 809.112,662.386 808.446,665.914 Z M803.226,667.642 L810.552,667.642 L810.552,669.55 L795.558,669.55 L795.558,667.642 L800.85,667.642 L800.85,661.936 L803.226,661.936 L803.226,667.642 Z M821.1,658.966 L823.584,658.966 L823.584,654.97 L825.96,654.97 L825.96,664.834 L823.584,664.834 L823.584,660.892 L821.1,660.892 L821.1,658.966 Z M822.09,662.53 L820.938,664.384 C819.138,663.79 817.896,662.62 817.176,661.162 C816.456,662.836 815.142,664.186 813.216,664.834 L812.01,662.962 C814.638,662.044 815.844,659.938 815.916,657.868 L812.658,657.868 L812.658,655.96 L821.568,655.96 L821.568,657.868 L818.346,657.868 C818.418,659.758 819.57,661.702 822.09,662.53 Z M820.362,669.766 C822.522,669.766 823.656,669.316 823.656,668.38 C823.656,667.444 822.522,666.994 820.362,666.994 C818.184,666.994 817.05,667.444 817.05,668.38 C817.05,669.316 818.184,669.766 820.362,669.766 Z M820.362,665.194 C823.872,665.194 826.032,666.364 826.032,668.38 C826.032,670.396 823.872,671.566 820.362,671.566 C816.834,671.566 814.674,670.396 814.674,668.38 C814.674,666.364 816.834,665.194 820.362,665.194 Z M742.584,683.464 L750.558,683.464 L750.558,694.606 L742.584,694.606 L742.584,683.464 Z M748.218,685.336 L744.924,685.336 L744.924,692.734 L748.218,692.734 L748.218,685.336 Z M753.132,681.97 L755.508,681.97 L755.508,698.584 L753.132,698.584 L753.132,681.97 Z M763.626,683.41 L763.626,686.11 C763.626,688.792 764.346,691.546 766.596,693.04 L765.3,694.876 C763.896,694.012 763.014,692.608 762.492,690.934 C761.916,692.77 760.944,694.354 759.45,695.254 L758.028,693.472 C760.458,691.996 761.34,689.026 761.34,686.2 L761.34,683.41 L763.626,683.41 Z M766.938,687.568 L766.938,682.24 L769.152,682.24 L769.152,697.81 L766.938,697.81 L766.938,689.494 L764.868,689.494 L764.868,687.568 L766.938,687.568 Z M770.304,681.97 L772.554,681.97 L772.554,698.548 L770.304,698.548 L770.304,681.97 Z M781.302,685.516 L781.302,686.434 C781.302,689.134 782.634,691.996 785.406,693.148 L784.11,695.02 C782.184,694.192 780.87,692.572 780.132,690.574 C779.394,692.734 778.062,694.552 776.118,695.434 L774.768,693.544 C777.54,692.302 778.89,689.26 778.89,686.434 L778.89,685.516 L775.434,685.516 L775.434,683.554 L784.722,683.554 L784.722,685.516 L781.302,685.516 Z M786.252,681.97 L788.628,681.97 L788.628,698.548 L786.252,698.548 L786.252,681.97 Z M797.538,688.954 L797.538,686.902 L794.28,686.902 L794.28,688.954 L797.538,688.954 Z M799.878,683.032 L799.878,690.808 L791.94,690.808 L791.94,683.032 L794.28,683.032 L794.28,685.084 L797.538,685.084 L797.538,683.032 L799.878,683.032 Z M799.068,696.73 C801.192,696.73 802.326,696.28 802.326,695.344 C802.326,694.408 801.192,693.958 799.068,693.958 C796.962,693.958 795.828,694.408 795.828,695.344 C795.828,696.28 796.962,696.73 799.068,696.73 Z M799.068,692.104 C802.524,692.104 804.684,693.31 804.684,695.344 C804.684,697.36 802.524,698.584 799.068,698.584 C795.63,698.584 793.47,697.36 793.47,695.344 C793.47,693.31 795.63,692.104 799.068,692.104 Z M804.504,685.84 L806.7,685.84 L806.7,687.784 L804.504,687.784 L804.504,691.744 L802.128,691.744 L802.128,681.988 L804.504,681.988 L804.504,685.84 Z M819.372,681.952 L821.748,681.952 L821.748,698.584 L819.372,698.584 L819.372,681.952 Z M812.838,683.122 C815.34,683.122 817.194,685.39 817.194,689.026 C817.194,692.68 815.34,694.966 812.838,694.966 C810.336,694.966 808.482,692.68 808.482,689.026 C808.482,685.39 810.336,683.122 812.838,683.122 Z M812.838,685.264 C811.614,685.264 810.768,686.578 810.768,689.026 C810.768,691.492 811.614,692.806 812.838,692.806 C814.062,692.806 814.908,691.492 814.908,689.026 C814.908,686.578 814.062,685.264 812.838,685.264 Z M834.726,689.188 L833.574,691.06 C831.72,690.466 830.442,689.296 829.704,687.802 C828.948,689.404 827.616,690.7 825.672,691.33 L824.502,689.458 C827.274,688.576 828.462,686.416 828.462,684.31 L828.462,682.726 L830.874,682.726 L830.874,684.31 C830.874,686.38 832.044,688.36 834.726,689.188 Z M827.04,694.48 L827.04,692.572 L838.344,692.572 L838.344,698.566 L835.95,698.566 L835.95,694.48 L827.04,694.48 Z M835.95,681.97 L838.344,681.97 L838.344,691.852 L835.95,691.852 L835.95,681.97 Z M750.936,717.268 L750.936,712.3 L747.552,712.3 L747.552,717.268 L750.936,717.268 Z M745.194,717.268 L745.194,712.3 L742.944,712.3 L742.944,710.41 L755.544,710.41 L755.544,712.3 L753.294,712.3 L753.294,717.268 L755.49,717.268 L755.49,719.158 L743.034,719.158 L743.034,717.268 L745.194,717.268 Z M741.774,721.696 L756.786,721.696 L756.786,723.622 L741.774,723.622 L741.774,721.696 Z M758.928,713.218 L764.13,713.218 L764.13,711.778 L758.91,711.778 L758.91,709.888 L766.47,709.888 L766.47,714.982 L761.286,714.982 L761.286,716.548 C763.986,716.53 765.804,716.422 767.874,716.044 L768.072,717.952 C765.768,718.384 763.662,718.456 760.35,718.456 L758.928,718.456 L758.928,713.218 Z M760.332,721.696 L760.332,719.806 L771.384,719.806 L771.384,725.548 L769.008,725.548 L769.008,721.696 L760.332,721.696 Z M773.58,712.912 L773.58,714.874 L771.384,714.874 L771.384,719.05 L769.008,719.05 L769.008,708.988 L771.384,708.988 L771.384,712.912 L773.58,712.912 Z M789.024,708.97 L789.024,717.592 L786.774,717.592 L786.774,708.97 L789.024,708.97 Z M783.462,717.502 L783.462,713.416 L781.554,713.416 L781.554,711.526 L783.462,711.526 L783.462,709.222 L785.676,709.222 L785.676,717.502 L783.462,717.502 Z M782.958,715.414 L781.77,717.232 C780.402,716.656 779.502,715.648 778.962,714.388 C778.404,715.81 777.432,716.98 775.992,717.664 L774.678,715.9 C776.946,714.874 777.81,712.732 777.81,710.644 L777.81,709.6 L780.132,709.6 L780.132,710.68 C780.132,712.714 780.906,714.568 782.958,715.414 Z M780.132,723.586 L789.546,723.586 L789.546,725.422 L777.792,725.422 L777.792,720.922 L786.684,720.922 L786.684,720.022 L777.756,720.022 L777.756,718.204 L789.024,718.204 L789.024,722.632 L780.132,722.632 L780.132,723.586 Z M798.294,716.944 L798.294,719.734 C799.86,719.698 801.336,719.608 803.01,719.338 L803.208,721.246 C801.066,721.624 799.23,721.678 797.16,721.678 L795.99,721.678 L795.99,715.072 L799.536,715.072 L799.536,712.48 L795.972,712.48 L795.972,710.59 L801.84,710.59 L801.84,716.944 L798.294,716.944 Z M804.144,714.604 L804.144,709.258 L806.34,709.258 L806.34,724.774 L804.144,724.774 L804.144,716.548 L802.506,716.548 L802.506,714.604 L804.144,714.604 Z M807.51,708.952 L809.76,708.952 L809.76,725.53 L807.51,725.53 L807.51,708.952 Z M823.458,708.952 L825.834,708.952 L825.834,725.584 L823.458,725.584 L823.458,708.952 Z M816.924,710.122 C819.426,710.122 821.28,712.39 821.28,716.026 C821.28,719.68 819.426,721.966 816.924,721.966 C814.422,721.966 812.568,719.68 812.568,716.026 C812.568,712.39 814.422,710.122 816.924,710.122 Z M816.924,712.264 C815.7,712.264 814.854,713.578 814.854,716.026 C814.854,718.492 815.7,719.806 816.924,719.806 C818.148,719.806 818.994,718.492 818.994,716.026 C818.994,713.578 818.148,712.264 816.924,712.264 Z M834.888,712.48 L834.888,713.056 C834.888,715.972 836.202,719.032 838.956,720.292 L837.588,722.164 C835.716,721.246 834.438,719.536 833.718,717.466 C833.016,719.698 831.72,721.534 829.812,722.488 L828.408,720.616 C831.18,719.32 832.494,716.134 832.494,713.056 L832.494,712.48 L829.092,712.48 L829.092,710.554 L838.29,710.554 L838.29,712.48 L834.888,712.48 Z M840.198,708.952 L842.574,708.952 L842.574,725.584 L840.198,725.584 L840.198,716.674 L837.282,716.674 L837.282,714.748 L840.198,714.748 L840.198,708.952 Z" id="눈밑지방-재배치-근막초-고정-미세지방" fill="#555555"></path>
                <path d="M747.182,377.516 L747.182,378.434 C747.182,381.134 748.514,383.996 751.286,385.148 L749.99,387.02 C748.064,386.192 746.75,384.572 746.012,382.574 C745.274,384.734 743.942,386.552 741.998,387.434 L740.648,385.544 C743.42,384.302 744.77,381.26 744.77,378.434 L744.77,377.516 L741.314,377.516 L741.314,375.554 L750.602,375.554 L750.602,377.516 L747.182,377.516 Z M752.132,373.97 L754.508,373.97 L754.508,390.548 L752.132,390.548 L752.132,373.97 Z M763.418,380.954 L763.418,378.902 L760.16,378.902 L760.16,380.954 L763.418,380.954 Z M765.758,375.032 L765.758,382.808 L757.82,382.808 L757.82,375.032 L760.16,375.032 L760.16,377.084 L763.418,377.084 L763.418,375.032 L765.758,375.032 Z M764.948,388.73 C767.072,388.73 768.206,388.28 768.206,387.344 C768.206,386.408 767.072,385.958 764.948,385.958 C762.842,385.958 761.708,386.408 761.708,387.344 C761.708,388.28 762.842,388.73 764.948,388.73 Z M764.948,384.104 C768.404,384.104 770.564,385.31 770.564,387.344 C770.564,389.36 768.404,390.584 764.948,390.584 C761.51,390.584 759.35,389.36 759.35,387.344 C759.35,385.31 761.51,384.104 764.948,384.104 Z M770.384,377.84 L772.58,377.84 L772.58,379.784 L770.384,379.784 L770.384,383.744 L768.008,383.744 L768.008,373.988 L770.384,373.988 L770.384,377.84 Z M785.252,373.952 L787.628,373.952 L787.628,390.584 L785.252,390.584 L785.252,373.952 Z M778.718,375.122 C781.22,375.122 783.074,377.39 783.074,381.026 C783.074,384.68 781.22,386.966 778.718,386.966 C776.216,386.966 774.362,384.68 774.362,381.026 C774.362,377.39 776.216,375.122 778.718,375.122 Z M778.718,377.264 C777.494,377.264 776.648,378.578 776.648,381.026 C776.648,383.492 777.494,384.806 778.718,384.806 C779.942,384.806 780.788,383.492 780.788,381.026 C780.788,378.578 779.942,377.264 778.718,377.264 Z M800.606,381.188 L799.454,383.06 C797.6,382.466 796.322,381.296 795.584,379.802 C794.828,381.404 793.496,382.7 791.552,383.33 L790.382,381.458 C793.154,380.576 794.342,378.416 794.342,376.31 L794.342,374.726 L796.754,374.726 L796.754,376.31 C796.754,378.38 797.924,380.36 800.606,381.188 Z M792.92,386.48 L792.92,384.572 L804.224,384.572 L804.224,390.566 L801.83,390.566 L801.83,386.48 L792.92,386.48 Z M801.83,373.97 L804.224,373.97 L804.224,383.852 L801.83,383.852 L801.83,373.97 Z M814.178,379.01 C814.178,380.306 815.15,381.062 816.428,381.062 C817.706,381.062 818.678,380.306 818.678,379.01 C818.678,377.714 817.706,376.958 816.428,376.958 C815.15,376.958 814.178,377.714 814.178,379.01 Z M817.616,382.97 L817.616,385.184 C818.966,385.094 820.352,384.986 821.648,384.788 L821.792,386.498 C818.228,387.218 814.34,387.254 811.478,387.254 L811.172,385.328 C812.378,385.328 813.782,385.328 815.24,385.292 L815.24,382.97 C813.26,382.538 811.874,381.008 811.874,379.01 C811.874,376.634 813.836,374.924 816.428,374.924 C819.02,374.924 821,376.634 821,379.01 C821,381.008 819.596,382.538 817.616,382.97 Z M822.548,373.952 L824.924,373.952 L824.924,390.584 L822.548,390.584 L822.548,373.952 Z M743.222,405.938 C743.222,407.216 744.14,407.99 745.4,407.99 C746.642,407.99 747.578,407.216 747.578,405.938 C747.578,404.642 746.642,403.886 745.4,403.886 C744.14,403.886 743.222,404.642 743.222,405.938 Z M749.882,405.938 C749.882,408.296 747.938,409.988 745.4,409.988 C742.844,409.988 740.9,408.296 740.9,405.938 C740.9,403.58 742.844,401.87 745.4,401.87 C747.938,401.87 749.882,403.58 749.882,405.938 Z M742.772,413.318 L742.772,411.41 L753.824,411.41 L753.824,417.566 L751.448,417.566 L751.448,413.318 L742.772,413.318 Z M755.948,405.056 L753.824,405.056 L753.824,406.712 L755.948,406.712 L755.948,408.656 L753.824,408.656 L753.824,410.744 L751.448,410.744 L751.448,400.97 L753.824,400.97 L753.824,403.13 L755.948,403.13 L755.948,405.056 Z M757.928,402.212 L765.902,402.212 C765.902,406.712 763.13,409.826 758.198,411.248 L757.208,409.358 C760.898,408.35 762.95,406.424 763.328,404.102 L757.928,404.102 L757.928,402.212 Z M762.05,411.644 L762.05,415.37 L770.942,415.37 L770.942,417.26 L759.674,417.26 L759.674,411.644 L762.05,411.644 Z M770.366,405.596 L772.58,405.596 L772.58,407.54 L770.366,407.54 L770.366,412.832 L767.99,412.832 L767.99,400.97 L770.366,400.97 L770.366,405.596 Z M779.222,402.068 C781.814,402.068 783.794,403.778 783.794,406.154 C783.794,408.548 781.814,410.24 779.222,410.24 C776.63,410.24 774.668,408.548 774.668,406.154 C774.668,403.778 776.63,402.068 779.222,402.068 Z M779.222,404.102 C777.944,404.102 776.972,404.858 776.972,406.154 C776.972,407.45 777.944,408.206 779.222,408.206 C780.5,408.206 781.472,407.45 781.472,406.154 C781.472,404.858 780.5,404.102 779.222,404.102 Z M785.342,400.952 L787.718,400.952 L787.718,417.584 L785.342,417.584 L785.342,400.952 Z M774.272,414.218 L773.966,412.292 C776.882,412.292 780.95,412.274 784.442,411.752 L784.586,413.462 C781.022,414.182 777.134,414.218 774.272,414.218 Z M798.68,404.408 L798.68,411.77 C799.292,411.77 799.904,411.734 800.534,411.716 L800.534,404.408 L798.68,404.408 Z M802.82,404.408 L802.82,411.572 C803.522,411.536 804.206,411.464 804.89,411.374 L805.034,413.084 C801.542,413.678 797.726,413.75 794.756,413.768 L794.504,411.824 L796.376,411.824 L796.376,404.408 L794.936,404.408 L794.936,402.5 L804.242,402.5 L804.242,404.408 L802.82,404.408 Z M805.952,400.988 L808.346,400.988 L808.346,417.566 L805.952,417.566 L805.952,400.988 Z M821.99,407.054 L821.99,405.344 L815.168,405.344 L815.168,407.054 L821.99,407.054 Z M824.33,401.6 L824.33,408.944 L812.81,408.944 L812.81,401.6 L815.168,401.6 L815.168,403.49 L821.99,403.49 L821.99,401.6 L824.33,401.6 Z M826.112,410.51 L826.112,412.4 L819.74,412.4 L819.74,417.566 L817.364,417.566 L817.364,412.4 L811.1,412.4 L811.1,410.51 L826.112,410.51 Z M840.746,411.662 L838.37,411.428 C838.91,408.422 838.928,406.19 838.928,404.282 L829.118,404.282 L829.118,402.392 L841.304,402.392 L841.304,403.994 C841.304,406.028 841.304,408.314 840.746,411.662 Z M837.236,413.642 L842.672,413.642 L842.672,415.55 L827.66,415.55 L827.66,413.642 L830.81,413.642 L830.81,408.404 L833.15,408.404 L833.15,413.642 L834.914,413.642 L834.914,408.404 L837.236,408.404 L837.236,413.642 Z M853.22,404.966 L855.704,404.966 L855.704,400.97 L858.08,400.97 L858.08,410.834 L855.704,410.834 L855.704,406.892 L853.22,406.892 L853.22,404.966 Z M854.21,408.53 L853.058,410.384 C851.258,409.79 850.016,408.62 849.296,407.162 C848.576,408.836 847.262,410.186 845.336,410.834 L844.13,408.962 C846.758,408.044 847.964,405.938 848.036,403.868 L844.778,403.868 L844.778,401.96 L853.688,401.96 L853.688,403.868 L850.466,403.868 C850.538,405.758 851.69,407.702 854.21,408.53 Z M852.482,415.766 C854.642,415.766 855.776,415.316 855.776,414.38 C855.776,413.444 854.642,412.994 852.482,412.994 C850.304,412.994 849.17,413.444 849.17,414.38 C849.17,415.316 850.304,415.766 852.482,415.766 Z M852.482,411.194 C855.992,411.194 858.152,412.364 858.152,414.38 C858.152,416.396 855.992,417.566 852.482,417.566 C848.954,417.566 846.794,416.396 846.794,414.38 C846.794,412.364 848.954,411.194 852.482,411.194 Z M878.672,400.988 L878.672,409.466 L876.296,409.466 L876.296,400.988 L878.672,400.988 Z M869.168,403.814 L869.168,407.234 C869.744,407.216 870.338,407.198 870.914,407.162 L870.914,403.814 L869.168,403.814 Z M875.126,406.856 L875.234,408.53 C871.976,409.07 868.25,409.16 865.388,409.178 L865.154,407.288 L866.882,407.27 L866.882,403.814 L865.568,403.814 L865.568,401.978 L874.496,401.978 L874.496,403.814 L873.2,403.814 L873.2,407.036 C873.866,407 874.496,406.928 875.126,406.856 Z M869.834,415.586 L879.14,415.586 L879.14,417.422 L867.476,417.422 L867.476,412.904 L876.314,412.904 L876.314,411.95 L867.458,411.95 L867.458,410.132 L878.672,410.132 L878.672,414.596 L869.834,414.596 L869.834,415.586 Z M887.096,410.528 L887.096,413.696 L890.75,413.696 L890.75,410.528 C890.174,410.636 889.562,410.69 888.914,410.69 C888.266,410.69 887.672,410.636 887.096,410.528 Z M888.914,403.652 C886.61,403.652 885.08,404.588 885.08,406.244 C885.08,407.882 886.61,408.836 888.914,408.836 C891.218,408.836 892.766,407.882 892.766,406.244 C892.766,404.588 891.218,403.652 888.914,403.652 Z M893.108,413.696 L896.438,413.696 L896.438,415.622 L881.426,415.622 L881.426,413.696 L884.738,413.696 L884.738,409.646 C883.478,408.872 882.722,407.684 882.74,406.244 C882.74,403.526 885.35,401.78 888.914,401.78 C892.496,401.78 895.106,403.526 895.106,406.244 C895.106,407.684 894.35,408.872 893.108,409.646 L893.108,413.696 Z" id="지방이식-외-약간의-피부교정-필요" fill="#555555"></path>
                <path d="M1053.258,142.84 L1049.748,142.84 C1048.74,145.306 1046.4,146.872 1042.764,147.664 L1041.972,145.756 C1045.734,145.018 1047.426,143.434 1047.714,141.49 L1042.926,141.49 L1042.926,139.6 L1050.324,139.6 C1050.324,140.104 1050.288,140.59 1050.216,141.058 L1053.258,141.058 L1053.258,138.97 L1055.634,138.97 L1055.634,147.286 L1053.258,147.286 L1053.258,146.044 L1049.586,146.044 L1049.586,144.262 L1053.258,144.262 L1053.258,142.84 Z M1047.102,153.514 L1055.976,153.514 L1055.976,155.386 L1044.726,155.386 L1044.726,150.706 L1053.258,150.706 L1053.258,149.77 L1044.708,149.77 L1044.708,147.898 L1055.634,147.898 L1055.634,152.47 L1047.102,152.47 L1047.102,153.514 Z M1064.382,146.008 L1064.382,142.012 L1061.142,142.012 L1061.142,146.008 L1064.382,146.008 Z M1066.722,140.14 L1066.722,147.88 L1058.82,147.88 L1058.82,140.14 L1066.722,140.14 Z M1060.314,151.426 L1060.314,149.536 L1071.384,149.536 L1071.384,155.566 L1069.008,155.566 L1069.008,151.426 L1060.314,151.426 Z M1073.58,142.912 L1073.58,144.856 L1071.384,144.856 L1071.384,148.798 L1069.008,148.798 L1069.008,138.97 L1071.384,138.97 L1071.384,142.912 L1073.58,142.912 Z M1082.382,140.95 C1079.988,140.95 1078.854,141.292 1078.854,142.03 C1078.854,142.804 1079.988,143.128 1082.382,143.128 C1084.794,143.128 1085.928,142.804 1085.928,142.03 C1085.928,141.292 1084.794,140.95 1082.382,140.95 Z M1082.382,144.856 C1078.602,144.856 1076.388,143.866 1076.388,142.03 C1076.388,140.212 1078.602,139.204 1082.382,139.204 C1086.18,139.204 1088.394,140.212 1088.394,142.03 C1088.394,143.866 1086.18,144.856 1082.382,144.856 Z M1078.98,152.704 L1078.98,153.64 L1088.484,153.64 L1088.484,155.422 L1076.622,155.422 L1076.622,151.066 L1085.712,151.066 L1085.712,150.184 L1076.604,150.184 L1076.604,148.438 L1088.052,148.438 L1088.052,152.704 L1078.98,152.704 Z M1074.894,145.648 L1089.87,145.648 L1089.87,147.502 L1074.894,147.502 L1074.894,145.648 Z M1102.992,153.82 C1105.296,153.82 1106.358,153.514 1106.358,152.83 C1106.358,152.146 1105.296,151.858 1102.992,151.858 C1100.706,151.858 1099.644,152.146 1099.644,152.83 C1099.644,153.514 1100.706,153.82 1102.992,153.82 Z M1102.992,150.112 C1106.646,150.112 1108.752,151.048 1108.752,152.83 C1108.752,154.594 1106.646,155.548 1102.992,155.548 C1099.356,155.548 1097.25,154.594 1097.25,152.83 C1097.25,151.048 1099.356,150.112 1102.992,150.112 Z M1104.198,147.52 L1110.516,147.52 L1110.516,149.374 L1095.522,149.374 L1095.522,147.52 L1101.822,147.52 L1101.822,146.494 L1097.394,146.494 L1097.394,139.402 L1108.806,139.402 L1108.806,141.202 L1099.752,141.202 L1099.752,142.066 L1108.428,142.066 L1108.428,143.794 L1099.752,143.794 L1099.752,144.694 L1108.932,144.694 L1108.932,146.494 L1104.198,146.494 L1104.198,147.52 Z M1121.874,140.716 L1121.856,142.57 L1112.1,142.57 L1112.1,140.716 L1115.772,140.716 L1115.772,138.952 L1118.166,138.952 L1118.166,140.716 L1121.874,140.716 Z M1115.178,146.35 C1115.178,147.268 1115.916,147.754 1116.978,147.754 C1118.022,147.754 1118.778,147.268 1118.778,146.35 C1118.778,145.45 1118.022,144.964 1116.978,144.964 C1115.916,144.964 1115.178,145.45 1115.178,146.35 Z M1121.046,146.35 C1121.046,148.258 1119.354,149.554 1116.978,149.554 C1114.602,149.554 1112.91,148.258 1112.91,146.35 C1112.91,144.478 1114.602,143.164 1116.978,143.164 C1119.354,143.164 1121.046,144.478 1121.046,146.35 Z M1116.834,150.454 L1116.834,153.37 L1125.744,153.37 L1125.744,155.26 L1114.458,155.26 L1114.458,150.454 L1116.834,150.454 Z M1125.15,144.028 L1127.346,144.028 L1127.346,145.99 L1125.15,145.99 L1125.15,151.372 L1122.774,151.372 L1122.774,138.97 L1125.15,138.97 L1125.15,144.028 Z M1055.13,170.434 L1055.13,172.306 L1043.7,172.306 L1043.7,166.42 L1046.076,166.42 L1046.076,170.434 L1055.13,170.434 Z M1045.914,177.274 L1045.914,180.388 L1055.238,180.388 L1055.238,182.26 L1043.538,182.26 L1043.538,177.274 L1045.914,177.274 Z M1041.792,173.746 L1056.804,173.746 L1056.804,175.636 L1050.666,175.636 L1050.666,178.534 L1048.29,178.534 L1048.29,175.636 L1041.792,175.636 L1041.792,173.746 Z M1072.086,165.988 L1072.086,174.466 L1069.71,174.466 L1069.71,165.988 L1072.086,165.988 Z M1064.886,172.054 L1064.886,168.76 L1061.502,168.76 L1061.502,172.054 L1064.886,172.054 Z M1067.208,166.888 L1067.208,173.908 L1059.162,173.908 L1059.162,166.888 L1067.208,166.888 Z M1063.446,180.568 L1072.482,180.568 L1072.482,182.368 L1061.088,182.368 L1061.088,175.204 L1072.194,175.204 L1072.194,176.986 L1063.446,176.986 L1063.446,177.94 L1071.996,177.94 L1071.996,179.578 L1063.446,179.578 L1063.446,180.568 Z M1081.302,169.516 L1081.302,170.434 C1081.302,173.134 1082.634,175.996 1085.406,177.148 L1084.11,179.02 C1082.184,178.192 1080.87,176.572 1080.132,174.574 C1079.394,176.734 1078.062,178.552 1076.118,179.434 L1074.768,177.544 C1077.54,176.302 1078.89,173.26 1078.89,170.434 L1078.89,169.516 L1075.434,169.516 L1075.434,167.554 L1084.722,167.554 L1084.722,169.516 L1081.302,169.516 Z M1086.252,165.97 L1088.628,165.97 L1088.628,182.548 L1086.252,182.548 L1086.252,165.97 Z M1097.538,172.954 L1097.538,170.902 L1094.28,170.902 L1094.28,172.954 L1097.538,172.954 Z M1099.878,167.032 L1099.878,174.808 L1091.94,174.808 L1091.94,167.032 L1094.28,167.032 L1094.28,169.084 L1097.538,169.084 L1097.538,167.032 L1099.878,167.032 Z M1099.068,180.73 C1101.192,180.73 1102.326,180.28 1102.326,179.344 C1102.326,178.408 1101.192,177.958 1099.068,177.958 C1096.962,177.958 1095.828,178.408 1095.828,179.344 C1095.828,180.28 1096.962,180.73 1099.068,180.73 Z M1099.068,176.104 C1102.524,176.104 1104.684,177.31 1104.684,179.344 C1104.684,181.36 1102.524,182.584 1099.068,182.584 C1095.63,182.584 1093.47,181.36 1093.47,179.344 C1093.47,177.31 1095.63,176.104 1099.068,176.104 Z M1104.504,169.84 L1106.7,169.84 L1106.7,171.784 L1104.504,171.784 L1104.504,175.744 L1102.128,175.744 L1102.128,165.988 L1104.504,165.988 L1104.504,169.84 Z M1124.196,165.952 L1126.446,165.952 L1126.446,182.53 L1124.196,182.53 L1124.196,174.25 L1122.846,174.25 L1122.846,181.792 L1120.632,181.792 L1120.632,176.986 L1119.3,178.768 C1117.824,177.976 1116.87,176.644 1116.276,174.988 C1115.736,176.896 1114.764,178.462 1113.216,179.38 L1111.794,177.58 C1114.26,176.14 1115.052,173.206 1115.052,170.02 L1115.052,169.57 L1112.334,169.57 L1112.334,167.644 L1119.84,167.644 L1119.84,169.57 L1117.356,169.57 L1117.356,170.02 C1117.356,172.918 1118.184,175.672 1120.632,176.95 L1120.632,166.222 L1122.846,166.222 L1122.846,172.306 L1124.196,172.306 L1124.196,165.952 Z M1133.484,176.734 L1133.484,173.026 L1131.36,173.026 L1131.36,176.734 L1133.484,176.734 Z M1133.484,171.172 L1133.484,167.428 L1135.662,167.428 L1135.662,178.624 L1129.128,178.624 L1129.128,167.428 L1131.36,167.428 L1131.36,171.172 L1133.484,171.172 Z M1140.63,165.952 L1142.88,165.952 L1142.88,182.53 L1140.63,182.53 L1140.63,174.196 L1139.244,174.196 L1139.244,181.81 L1137.03,181.81 L1137.03,166.222 L1139.244,166.222 L1139.244,172.288 L1140.63,172.288 L1140.63,165.952 Z M1151.682,170.56 L1151.682,171.136 C1151.682,173.53 1152.996,176.23 1155.714,177.4 L1154.454,179.218 C1152.582,178.444 1151.268,176.86 1150.53,174.97 C1149.792,176.968 1148.46,178.66 1146.57,179.506 L1145.292,177.688 C1148.01,176.464 1149.306,173.656 1149.306,171.136 L1149.306,170.56 L1145.85,170.56 L1145.85,168.67 L1149.306,168.67 L1149.306,166.366 L1151.682,166.366 L1151.682,168.67 L1155.066,168.67 L1155.066,170.56 L1151.682,170.56 Z M1156.596,165.97 L1158.972,165.97 L1158.972,182.548 L1156.596,182.548 L1156.596,165.97 Z M1046.04,203.644 L1046.04,207.37 L1055.49,207.37 L1055.49,209.26 L1043.664,209.26 L1043.664,203.644 L1046.04,203.644 Z M1054.662,200.314 L1056.786,200.314 L1056.786,202.204 L1041.774,202.204 L1041.774,200.314 L1052.286,200.314 C1052.646,198.478 1052.7,197.074 1052.7,195.778 L1043.628,195.778 L1043.628,193.888 L1055.04,193.888 L1055.04,195.328 C1055.04,196.732 1055.04,198.298 1054.662,200.314 Z M1064.382,200.008 L1064.382,196.012 L1061.142,196.012 L1061.142,200.008 L1064.382,200.008 Z M1066.722,194.14 L1066.722,201.88 L1058.82,201.88 L1058.82,194.14 L1066.722,194.14 Z M1060.314,205.426 L1060.314,203.536 L1071.384,203.536 L1071.384,209.566 L1069.008,209.566 L1069.008,205.426 L1060.314,205.426 Z M1073.58,196.912 L1073.58,198.856 L1071.384,198.856 L1071.384,202.798 L1069.008,202.798 L1069.008,192.97 L1071.384,192.97 L1071.384,196.912 L1073.58,196.912 Z M1076.226,203.104 L1075.38,201.232 C1079.16,200.782 1080.978,198.928 1081.176,197.11 L1076.19,197.11 L1076.19,195.22 L1081.212,195.22 L1081.212,193.186 L1083.588,193.186 L1083.588,195.22 L1088.61,195.22 L1088.61,197.11 L1083.624,197.11 C1083.822,198.928 1085.64,200.782 1089.42,201.232 L1088.574,203.104 C1085.604,202.708 1083.498,201.484 1082.4,199.792 C1081.302,201.484 1079.196,202.708 1076.226,203.104 Z M1083.588,205.732 L1089.906,205.732 L1089.906,207.658 L1074.894,207.658 L1074.894,205.732 L1081.212,205.732 L1081.212,202.528 L1083.588,202.528 L1083.588,205.732 Z M1108.446,203.914 L1106.07,203.644 C1106.7,200.512 1106.736,198.208 1106.736,196.282 L1097.07,196.282 L1097.07,194.392 L1109.112,194.392 L1109.112,195.976 C1109.112,198.046 1109.112,200.386 1108.446,203.914 Z M1103.226,205.642 L1110.552,205.642 L1110.552,207.55 L1095.558,207.55 L1095.558,205.642 L1100.85,205.642 L1100.85,199.936 L1103.226,199.936 L1103.226,205.642 Z M1121.1,196.966 L1123.584,196.966 L1123.584,192.97 L1125.96,192.97 L1125.96,202.834 L1123.584,202.834 L1123.584,198.892 L1121.1,198.892 L1121.1,196.966 Z M1122.09,200.53 L1120.938,202.384 C1119.138,201.79 1117.896,200.62 1117.176,199.162 C1116.456,200.836 1115.142,202.186 1113.216,202.834 L1112.01,200.962 C1114.638,200.044 1115.844,197.938 1115.916,195.868 L1112.658,195.868 L1112.658,193.96 L1121.568,193.96 L1121.568,195.868 L1118.346,195.868 C1118.418,197.758 1119.57,199.702 1122.09,200.53 Z M1120.362,207.766 C1122.522,207.766 1123.656,207.316 1123.656,206.38 C1123.656,205.444 1122.522,204.994 1120.362,204.994 C1118.184,204.994 1117.05,205.444 1117.05,206.38 C1117.05,207.316 1118.184,207.766 1120.362,207.766 Z M1120.362,203.194 C1123.872,203.194 1126.032,204.364 1126.032,206.38 C1126.032,208.396 1123.872,209.566 1120.362,209.566 C1116.834,209.566 1114.674,208.396 1114.674,206.38 C1114.674,204.364 1116.834,203.194 1120.362,203.194 Z" id="결막을-통한-눈밑지방-재배치-근막초" fill="#555555"></path>
                <path d="M1055.13,632.434 L1055.13,634.306 L1043.7,634.306 L1043.7,628.42 L1046.076,628.42 L1046.076,632.434 L1055.13,632.434 Z M1045.914,639.274 L1045.914,642.388 L1055.238,642.388 L1055.238,644.26 L1043.538,644.26 L1043.538,639.274 L1045.914,639.274 Z M1041.792,635.746 L1056.804,635.746 L1056.804,637.636 L1050.666,637.636 L1050.666,640.534 L1048.29,640.534 L1048.29,637.636 L1041.792,637.636 L1041.792,635.746 Z M1072.086,627.988 L1072.086,636.466 L1069.71,636.466 L1069.71,627.988 L1072.086,627.988 Z M1064.886,634.054 L1064.886,630.76 L1061.502,630.76 L1061.502,634.054 L1064.886,634.054 Z M1067.208,628.888 L1067.208,635.908 L1059.162,635.908 L1059.162,628.888 L1067.208,628.888 Z M1063.446,642.568 L1072.482,642.568 L1072.482,644.368 L1061.088,644.368 L1061.088,637.204 L1072.194,637.204 L1072.194,638.986 L1063.446,638.986 L1063.446,639.94 L1071.996,639.94 L1071.996,641.578 L1063.446,641.578 L1063.446,642.568 Z M1081.302,631.516 L1081.302,632.434 C1081.302,635.134 1082.634,637.996 1085.406,639.148 L1084.11,641.02 C1082.184,640.192 1080.87,638.572 1080.132,636.574 C1079.394,638.734 1078.062,640.552 1076.118,641.434 L1074.768,639.544 C1077.54,638.302 1078.89,635.26 1078.89,632.434 L1078.89,631.516 L1075.434,631.516 L1075.434,629.554 L1084.722,629.554 L1084.722,631.516 L1081.302,631.516 Z M1086.252,627.97 L1088.628,627.97 L1088.628,644.548 L1086.252,644.548 L1086.252,627.97 Z M1097.538,634.954 L1097.538,632.902 L1094.28,632.902 L1094.28,634.954 L1097.538,634.954 Z M1099.878,629.032 L1099.878,636.808 L1091.94,636.808 L1091.94,629.032 L1094.28,629.032 L1094.28,631.084 L1097.538,631.084 L1097.538,629.032 L1099.878,629.032 Z M1099.068,642.73 C1101.192,642.73 1102.326,642.28 1102.326,641.344 C1102.326,640.408 1101.192,639.958 1099.068,639.958 C1096.962,639.958 1095.828,640.408 1095.828,641.344 C1095.828,642.28 1096.962,642.73 1099.068,642.73 Z M1099.068,638.104 C1102.524,638.104 1104.684,639.31 1104.684,641.344 C1104.684,643.36 1102.524,644.584 1099.068,644.584 C1095.63,644.584 1093.47,643.36 1093.47,641.344 C1093.47,639.31 1095.63,638.104 1099.068,638.104 Z M1104.504,631.84 L1106.7,631.84 L1106.7,633.784 L1104.504,633.784 L1104.504,637.744 L1102.128,637.744 L1102.128,627.988 L1104.504,627.988 L1104.504,631.84 Z M1124.196,627.952 L1126.446,627.952 L1126.446,644.53 L1124.196,644.53 L1124.196,636.25 L1122.846,636.25 L1122.846,643.792 L1120.632,643.792 L1120.632,638.986 L1119.3,640.768 C1117.824,639.976 1116.87,638.644 1116.276,636.988 C1115.736,638.896 1114.764,640.462 1113.216,641.38 L1111.794,639.58 C1114.26,638.14 1115.052,635.206 1115.052,632.02 L1115.052,631.57 L1112.334,631.57 L1112.334,629.644 L1119.84,629.644 L1119.84,631.57 L1117.356,631.57 L1117.356,632.02 C1117.356,634.918 1118.184,637.672 1120.632,638.95 L1120.632,628.222 L1122.846,628.222 L1122.846,634.306 L1124.196,634.306 L1124.196,627.952 Z M1133.484,638.734 L1133.484,635.026 L1131.36,635.026 L1131.36,638.734 L1133.484,638.734 Z M1133.484,633.172 L1133.484,629.428 L1135.662,629.428 L1135.662,640.624 L1129.128,640.624 L1129.128,629.428 L1131.36,629.428 L1131.36,633.172 L1133.484,633.172 Z M1140.63,627.952 L1142.88,627.952 L1142.88,644.53 L1140.63,644.53 L1140.63,636.196 L1139.244,636.196 L1139.244,643.81 L1137.03,643.81 L1137.03,628.222 L1139.244,628.222 L1139.244,634.288 L1140.63,634.288 L1140.63,627.952 Z M1151.682,632.56 L1151.682,633.136 C1151.682,635.53 1152.996,638.23 1155.714,639.4 L1154.454,641.218 C1152.582,640.444 1151.268,638.86 1150.53,636.97 C1149.792,638.968 1148.46,640.66 1146.57,641.506 L1145.292,639.688 C1148.01,638.464 1149.306,635.656 1149.306,633.136 L1149.306,632.56 L1145.85,632.56 L1145.85,630.67 L1149.306,630.67 L1149.306,628.366 L1151.682,628.366 L1151.682,630.67 L1155.066,630.67 L1155.066,632.56 L1151.682,632.56 Z M1156.596,627.97 L1158.972,627.97 L1158.972,644.548 L1156.596,644.548 L1156.596,627.97 Z M1046.04,665.644 L1046.04,669.37 L1055.49,669.37 L1055.49,671.26 L1043.664,671.26 L1043.664,665.644 L1046.04,665.644 Z M1054.662,662.314 L1056.786,662.314 L1056.786,664.204 L1041.774,664.204 L1041.774,662.314 L1052.286,662.314 C1052.646,660.478 1052.7,659.074 1052.7,657.778 L1043.628,657.778 L1043.628,655.888 L1055.04,655.888 L1055.04,657.328 C1055.04,658.732 1055.04,660.298 1054.662,662.314 Z M1064.382,662.008 L1064.382,658.012 L1061.142,658.012 L1061.142,662.008 L1064.382,662.008 Z M1066.722,656.14 L1066.722,663.88 L1058.82,663.88 L1058.82,656.14 L1066.722,656.14 Z M1060.314,667.426 L1060.314,665.536 L1071.384,665.536 L1071.384,671.566 L1069.008,671.566 L1069.008,667.426 L1060.314,667.426 Z M1073.58,658.912 L1073.58,660.856 L1071.384,660.856 L1071.384,664.798 L1069.008,664.798 L1069.008,654.97 L1071.384,654.97 L1071.384,658.912 L1073.58,658.912 Z M1076.226,665.104 L1075.38,663.232 C1079.16,662.782 1080.978,660.928 1081.176,659.11 L1076.19,659.11 L1076.19,657.22 L1081.212,657.22 L1081.212,655.186 L1083.588,655.186 L1083.588,657.22 L1088.61,657.22 L1088.61,659.11 L1083.624,659.11 C1083.822,660.928 1085.64,662.782 1089.42,663.232 L1088.574,665.104 C1085.604,664.708 1083.498,663.484 1082.4,661.792 C1081.302,663.484 1079.196,664.708 1076.226,665.104 Z M1083.588,667.732 L1089.906,667.732 L1089.906,669.658 L1074.894,669.658 L1074.894,667.732 L1081.212,667.732 L1081.212,664.528 L1083.588,664.528 L1083.588,667.732 Z M1108.446,665.914 L1106.07,665.644 C1106.7,662.512 1106.736,660.208 1106.736,658.282 L1097.07,658.282 L1097.07,656.392 L1109.112,656.392 L1109.112,657.976 C1109.112,660.046 1109.112,662.386 1108.446,665.914 Z M1103.226,667.642 L1110.552,667.642 L1110.552,669.55 L1095.558,669.55 L1095.558,667.642 L1100.85,667.642 L1100.85,661.936 L1103.226,661.936 L1103.226,667.642 Z M1121.1,658.966 L1123.584,658.966 L1123.584,654.97 L1125.96,654.97 L1125.96,664.834 L1123.584,664.834 L1123.584,660.892 L1121.1,660.892 L1121.1,658.966 Z M1122.09,662.53 L1120.938,664.384 C1119.138,663.79 1117.896,662.62 1117.176,661.162 C1116.456,662.836 1115.142,664.186 1113.216,664.834 L1112.01,662.962 C1114.638,662.044 1115.844,659.938 1115.916,657.868 L1112.658,657.868 L1112.658,655.96 L1121.568,655.96 L1121.568,657.868 L1118.346,657.868 C1118.418,659.758 1119.57,661.702 1122.09,662.53 Z M1120.362,669.766 C1122.522,669.766 1123.656,669.316 1123.656,668.38 C1123.656,667.444 1122.522,666.994 1120.362,666.994 C1118.184,666.994 1117.05,667.444 1117.05,668.38 C1117.05,669.316 1118.184,669.766 1120.362,669.766 Z M1120.362,665.194 C1123.872,665.194 1126.032,666.364 1126.032,668.38 C1126.032,670.396 1123.872,671.566 1120.362,671.566 C1116.834,671.566 1114.674,670.396 1114.674,668.38 C1114.674,666.364 1116.834,665.194 1120.362,665.194 Z M1047.966,686.56 L1047.966,687.136 C1047.966,689.512 1049.244,692.212 1051.908,693.4 L1050.648,695.218 C1048.83,694.408 1047.534,692.86 1046.814,690.988 C1046.112,692.968 1044.816,694.642 1042.944,695.488 L1041.684,693.67 C1044.348,692.428 1045.59,689.62 1045.59,687.136 L1045.59,686.56 L1042.242,686.56 L1042.242,684.67 L1045.59,684.67 L1045.59,682.366 L1047.966,682.366 L1047.966,684.67 L1051.26,684.67 L1051.26,686.56 L1047.966,686.56 Z M1053.312,681.97 L1055.688,681.97 L1055.688,698.584 L1053.312,698.584 L1053.312,690.232 L1050.378,690.232 L1050.378,688.306 L1053.312,688.306 L1053.312,681.97 Z M1072.104,681.97 L1072.104,693.958 L1069.71,693.958 L1069.71,681.97 L1072.104,681.97 Z M1068.666,690.088 L1067.46,691.906 C1065.624,691.33 1064.364,690.142 1063.608,688.666 C1062.87,690.286 1061.538,691.564 1059.612,692.194 L1058.406,690.34 C1061.16,689.476 1062.366,687.298 1062.366,685.228 L1062.366,685.03 L1059.036,685.03 L1059.036,683.158 L1068.054,683.158 L1068.054,685.03 L1064.778,685.03 L1064.778,685.228 C1064.778,687.172 1065.984,689.206 1068.666,690.088 Z M1063.446,696.37 L1072.518,696.37 L1072.518,698.26 L1061.07,698.26 L1061.07,692.878 L1063.446,692.878 L1063.446,696.37 Z M1079.034,685.408 L1079.034,692.77 C1079.646,692.77 1080.258,692.734 1080.888,692.716 L1080.888,685.408 L1079.034,685.408 Z M1083.174,685.408 L1083.174,692.572 C1083.876,692.536 1084.56,692.464 1085.244,692.374 L1085.388,694.084 C1081.896,694.678 1078.08,694.75 1075.11,694.768 L1074.858,692.824 L1076.73,692.824 L1076.73,685.408 L1075.29,685.408 L1075.29,683.5 L1084.596,683.5 L1084.596,685.408 L1083.174,685.408 Z M1086.306,681.988 L1088.7,681.988 L1088.7,698.566 L1086.306,698.566 L1086.306,681.988 Z M1102.344,688.054 L1102.344,686.344 L1095.522,686.344 L1095.522,688.054 L1102.344,688.054 Z M1104.684,682.6 L1104.684,689.944 L1093.164,689.944 L1093.164,682.6 L1095.522,682.6 L1095.522,684.49 L1102.344,684.49 L1102.344,682.6 L1104.684,682.6 Z M1106.466,691.51 L1106.466,693.4 L1100.094,693.4 L1100.094,698.566 L1097.718,698.566 L1097.718,693.4 L1091.454,693.4 L1091.454,691.51 L1106.466,691.51 Z M1125.186,692.662 L1122.81,692.428 C1123.35,689.422 1123.368,687.19 1123.368,685.282 L1113.558,685.282 L1113.558,683.392 L1125.744,683.392 L1125.744,684.994 C1125.744,687.028 1125.744,689.314 1125.186,692.662 Z M1121.676,694.642 L1127.112,694.642 L1127.112,696.55 L1112.1,696.55 L1112.1,694.642 L1115.25,694.642 L1115.25,689.404 L1117.59,689.404 L1117.59,694.642 L1119.354,694.642 L1119.354,689.404 L1121.676,689.404 L1121.676,694.642 Z M1137.66,685.966 L1140.144,685.966 L1140.144,681.97 L1142.52,681.97 L1142.52,691.834 L1140.144,691.834 L1140.144,687.892 L1137.66,687.892 L1137.66,685.966 Z M1138.65,689.53 L1137.498,691.384 C1135.698,690.79 1134.456,689.62 1133.736,688.162 C1133.016,689.836 1131.702,691.186 1129.776,691.834 L1128.57,689.962 C1131.198,689.044 1132.404,686.938 1132.476,684.868 L1129.218,684.868 L1129.218,682.96 L1138.128,682.96 L1138.128,684.868 L1134.906,684.868 C1134.978,686.758 1136.13,688.702 1138.65,689.53 Z M1136.922,696.766 C1139.082,696.766 1140.216,696.316 1140.216,695.38 C1140.216,694.444 1139.082,693.994 1136.922,693.994 C1134.744,693.994 1133.61,694.444 1133.61,695.38 C1133.61,696.316 1134.744,696.766 1136.922,696.766 Z M1136.922,692.194 C1140.432,692.194 1142.592,693.364 1142.592,695.38 C1142.592,697.396 1140.432,698.566 1136.922,698.566 C1133.394,698.566 1131.234,697.396 1131.234,695.38 C1131.234,693.364 1133.394,692.194 1136.922,692.194 Z M1045.212,727.636 C1043.52,724.846 1042.53,721.93 1042.53,718.312 C1042.53,714.73 1043.52,711.778 1045.212,709.006 L1046.868,709.708 C1045.356,712.336 1044.672,715.378 1044.672,718.312 C1044.672,721.282 1045.356,724.306 1046.868,726.934 L1045.212,727.636 Z M1052.718,712.408 L1052.718,719.77 C1053.33,719.77 1053.942,719.734 1054.572,719.716 L1054.572,712.408 L1052.718,712.408 Z M1056.858,712.408 L1056.858,719.572 C1057.56,719.536 1058.244,719.464 1058.928,719.374 L1059.072,721.084 C1055.58,721.678 1051.764,721.75 1048.794,721.768 L1048.542,719.824 L1050.414,719.824 L1050.414,712.408 L1048.974,712.408 L1048.974,710.5 L1058.28,710.5 L1058.28,712.408 L1056.858,712.408 Z M1059.99,708.988 L1062.384,708.988 L1062.384,725.566 L1059.99,725.566 L1059.99,708.988 Z M1076.028,715.054 L1076.028,713.344 L1069.206,713.344 L1069.206,715.054 L1076.028,715.054 Z M1078.368,709.6 L1078.368,716.944 L1066.848,716.944 L1066.848,709.6 L1069.206,709.6 L1069.206,711.49 L1076.028,711.49 L1076.028,709.6 L1078.368,709.6 Z M1080.15,718.51 L1080.15,720.4 L1073.778,720.4 L1073.778,725.566 L1071.402,725.566 L1071.402,720.4 L1065.138,720.4 L1065.138,718.51 L1080.15,718.51 Z M1094.748,712.354 L1097.268,712.354 L1097.268,708.97 L1099.644,708.97 L1099.644,717.394 L1097.268,717.394 L1097.268,714.244 L1094.748,714.244 L1094.748,712.354 Z M1095.666,715.558 L1094.568,717.412 C1092.732,716.89 1091.49,715.81 1090.752,714.442 C1090.014,715.936 1088.682,717.196 1086.756,717.754 L1085.64,715.9 C1088.214,715.108 1089.438,713.182 1089.528,711.472 L1086.27,711.472 L1086.27,709.582 L1095.18,709.582 L1095.18,711.472 L1091.94,711.472 C1092.012,713.146 1093.164,714.838 1095.666,715.558 Z M1091.076,723.532 L1100.112,723.532 L1100.112,725.368 L1088.736,725.368 L1088.736,720.814 L1097.286,720.814 L1097.286,719.896 L1088.7,719.896 L1088.7,718.06 L1099.644,718.06 L1099.644,722.524 L1091.076,722.524 L1091.076,723.532 Z M1107.6,712.552 L1107.6,713.362 C1107.6,716.134 1108.41,718.924 1110.804,720.328 L1109.418,722.056 C1107.942,721.192 1107.006,719.752 1106.466,718.006 C1105.89,719.896 1104.918,721.516 1103.424,722.452 L1102.02,720.706 C1104.432,719.176 1105.296,716.206 1105.296,713.362 L1105.296,712.552 L1102.632,712.552 L1102.632,710.626 L1110.012,710.626 L1110.012,712.552 L1107.6,712.552 Z M1110.966,714.622 L1110.966,709.24 L1113.18,709.24 L1113.18,724.792 L1110.966,724.792 L1110.966,716.548 L1108.86,716.548 L1108.86,714.622 L1110.966,714.622 Z M1114.314,708.952 L1116.564,708.952 L1116.564,725.53 L1114.314,725.53 L1114.314,708.952 Z M1120.704,727.636 L1119.066,726.934 C1120.578,724.306 1121.262,721.282 1121.262,718.312 C1121.262,715.378 1120.578,712.336 1119.066,709.708 L1120.704,709.006 C1122.414,711.778 1123.404,714.73 1123.404,718.312 C1123.404,721.93 1122.414,724.846 1120.704,727.636 Z M1043.214,742.846 L1042.422,741.01 C1045.5,740.74 1047.12,739.66 1047.534,738.544 L1043.142,738.544 L1043.142,736.654 L1055.4,736.654 L1055.4,738.544 L1050.99,738.544 C1051.404,739.66 1053.024,740.74 1056.12,741.01 L1055.292,742.846 C1052.178,742.576 1050.144,741.406 1049.262,739.84 C1048.38,741.406 1046.346,742.576 1043.214,742.846 Z M1052.574,749.56 C1052.574,748.714 1051.44,748.354 1049.226,748.354 C1047.012,748.354 1045.878,748.714 1045.878,749.56 C1045.878,750.388 1047.012,750.748 1049.226,750.748 C1051.44,750.748 1052.574,750.388 1052.574,749.56 Z M1056.75,745.384 L1050.45,745.384 L1050.45,746.608 C1053.294,746.842 1054.986,747.868 1054.986,749.56 C1054.986,751.468 1052.808,752.566 1049.226,752.566 C1045.644,752.566 1043.484,751.468 1043.484,749.56 C1043.484,747.85 1045.194,746.824 1048.074,746.59 L1048.074,745.384 L1041.774,745.384 L1041.774,743.494 L1056.75,743.494 L1056.75,745.384 Z M1060.782,741.244 C1060.782,742.594 1061.718,743.404 1062.96,743.404 C1064.184,743.404 1065.138,742.594 1065.138,741.244 C1065.138,739.894 1064.184,739.084 1062.96,739.084 C1061.718,739.084 1060.782,739.894 1060.782,741.244 Z M1067.442,741.244 C1067.442,743.674 1065.48,745.456 1062.96,745.456 C1060.422,745.456 1058.46,743.674 1058.46,741.244 C1058.46,738.796 1060.422,737.032 1062.96,737.032 C1065.48,737.032 1067.442,738.796 1067.442,741.244 Z M1063.068,746.788 L1063.068,750.37 L1071.978,750.37 L1071.978,752.26 L1060.692,752.26 L1060.692,746.788 L1063.068,746.788 Z M1071.384,740.722 L1073.58,740.722 L1073.58,742.666 L1071.384,742.666 L1071.384,748.03 L1069.008,748.03 L1069.008,735.97 L1071.384,735.97 L1071.384,740.722 Z M1081.068,743.53 L1081.068,739.156 L1077.918,739.156 L1077.918,743.53 L1081.068,743.53 Z M1086.378,740.47 L1083.39,740.47 L1083.39,742.144 L1086.378,742.144 L1086.378,740.47 Z M1083.39,744.034 L1083.39,745.402 L1075.578,745.402 L1075.578,737.302 L1083.39,737.302 L1083.39,738.58 L1086.378,738.58 L1086.378,735.97 L1088.754,735.97 L1088.754,748.048 L1086.378,748.048 L1086.378,744.034 L1083.39,744.034 Z M1080.186,750.37 L1089.114,750.37 L1089.114,752.26 L1077.81,752.26 L1077.81,746.914 L1080.186,746.914 L1080.186,750.37 Z M1102.344,742.054 L1102.344,740.344 L1095.522,740.344 L1095.522,742.054 L1102.344,742.054 Z M1104.684,736.6 L1104.684,743.944 L1093.164,743.944 L1093.164,736.6 L1095.522,736.6 L1095.522,738.49 L1102.344,738.49 L1102.344,736.6 L1104.684,736.6 Z M1106.466,745.51 L1106.466,747.4 L1100.094,747.4 L1100.094,752.566 L1097.718,752.566 L1097.718,747.4 L1091.454,747.4 L1091.454,745.51 L1106.466,745.51 Z M1112.694,737.68 L1120.488,737.68 C1120.488,742.684 1118.886,746.824 1113.162,749.686 L1111.902,747.85 C1116.042,745.762 1117.752,743.188 1118.076,739.57 L1112.694,739.57 L1112.694,737.68 Z M1123.584,735.97 L1125.96,735.97 L1125.96,752.548 L1123.584,752.548 L1123.584,744.25 L1120.38,744.25 L1120.38,742.324 L1123.584,742.324 L1123.584,735.97 Z M1138.434,743.314 L1137.192,745.15 C1135.446,744.574 1134.24,743.458 1133.538,742.054 C1132.818,743.692 1131.54,744.97 1129.65,745.618 L1128.408,743.746 C1131.18,742.828 1132.296,740.614 1132.296,738.364 L1132.296,736.87 L1134.708,736.87 L1134.708,738.562 C1134.708,740.56 1135.824,742.504 1138.434,743.314 Z M1136.292,750.712 C1138.398,750.712 1139.532,750.28 1139.532,749.344 C1139.532,748.426 1138.398,747.994 1136.292,747.994 C1134.168,747.994 1133.034,748.426 1133.034,749.344 C1133.034,750.28 1134.168,750.712 1136.292,750.712 Z M1136.292,746.158 C1139.73,746.158 1141.89,747.346 1141.89,749.344 C1141.89,751.36 1139.73,752.548 1136.292,752.548 C1132.836,752.548 1130.676,751.36 1130.676,749.344 C1130.676,747.346 1132.836,746.158 1136.292,746.158 Z M1141.71,739.822 L1143.906,739.822 L1143.906,741.784 L1141.71,741.784 L1141.71,745.78 L1139.334,745.78 L1139.334,735.988 L1141.71,735.988 L1141.71,739.822 Z M1159.458,740.002 L1158.666,741.784 C1155.804,741.478 1153.752,740.398 1152.708,738.886 C1151.664,740.398 1149.594,741.478 1146.732,741.784 L1145.958,740.002 C1149.684,739.642 1151.484,737.968 1151.484,736.366 L1151.484,736.06 L1153.932,736.06 L1153.932,736.366 C1153.932,737.968 1155.732,739.642 1159.458,740.002 Z M1160.196,744.34 L1153.878,744.34 L1153.878,745.402 L1158.378,745.402 L1158.378,749.704 L1149.306,749.704 L1149.306,750.64 L1158.81,750.64 L1158.81,752.422 L1146.948,752.422 L1146.948,748.066 L1156.038,748.066 L1156.038,747.166 L1146.93,747.166 L1146.93,745.402 L1151.502,745.402 L1151.502,744.34 L1145.22,744.34 L1145.22,742.468 L1160.196,742.468 L1160.196,744.34 Z" id="눈밑지방-재배치-근막초-고정-처진피부" fill="#555555"></path>
                <text id="눈-밑의-거뭇한-색소" font-family="NotoSansCJKkr-DemiLight, Noto Sans CJK KR" font-size="18" font-weight="300" fill="#555555">
                    <tspan x="40" y="99">눈 밑의 거뭇한 색소</tspan>
                </text>
                <text id="눈-밑의-지방이-많고-눈-위-꺼짐" font-family="NotoSansCJKkr-DemiLight, Noto Sans CJK KR" font-size="18" font-weight="300" fill="#555555">
                    <tspan x="40" y="334">눈 밑의 지방이 많고 눈 위 꺼짐</tspan>
                </text>
                <text id="눈-밑의-꺼짐과-함께-처진-피부-주름" font-family="NotoSansCJKkr-DemiLight, Noto Sans CJK KR" font-size="18" font-weight="300" fill="#555555">
                    <tspan x="40" y="621">눈 밑의 꺼짐과 함께 처진 피부</tspan>
                    <tspan x="40" y="648">주름 지방 돌출 발생</tspan>
                </text>
                <text id="눈-밑의-꺼짐" font-family="NotoSansCJKkr-DemiLight, Noto Sans CJK KR" font-size="18" font-weight="300" fill="#555555">
                    <tspan x="40" y="137">눈 밑의 꺼짐</tspan>
                </text>
                <text id="눈-밑의-지방과다와-함께-거뭇한-색소" font-family="NotoSansCJKkr-DemiLight, Noto Sans CJK KR" font-size="18" font-weight="300" fill="#555555">
                    <tspan x="40" y="372">눈 밑의 지방과다와 함께 </tspan>
                    <tspan x="40" y="399">거뭇한 색소</tspan>
                </text>
                <text id="(눈-밑-주름이-심한-경우,-하안검" font-family="NotoSansCJKkr-DemiLight, Noto Sans CJK KR" font-size="18" font-weight="300" fill="#555555">
                    <tspan x="40" y="690">(눈 밑 주름이 심한 경우, </tspan>
                    <tspan x="40" y="717">하안검 수술 동시 시행 필요)</tspan>
                </text>
                <text id="눈-밑의-지방돌출,-피부-처짐" font-family="NotoSansCJKkr-DemiLight, Noto Sans CJK KR" font-size="18" font-weight="300" fill="#555555">
                    <tspan x="40" y="175">눈 밑의 지방돌출, 피부 처짐</tspan>
                </text>
                <text id="눈-밑-주름과-지방-돌출,-피부처짐" font-family="NotoSansCJKkr-DemiLight, Noto Sans CJK KR" font-size="18" font-weight="300" fill="#555555">
                    <tspan x="40" y="429">눈 밑 주름과 지방 돌출,</tspan>
                    <tspan x="40" y="456">피부처짐</tspan>
                </text>
                <text id="위와-같은-증상-복합적-발생" font-family="NotoSansCJKkr-Bold, Noto Sans CJK KR" font-size="18" font-weight="bold" fill="#555555">
                    <tspan x="23" y="213">위와 같은 증상 복합적 발생</tspan>
                </text>
                <text id="위와-같은-증상-복합적-발생" font-family="NotoSansCJKkr-Bold, Noto Sans CJK KR" font-size="18" font-weight="bold" fill="#555555">
                    <tspan x="26" y="486">위와 같은 증상 복합적 발생</tspan>
                </text>
                <path d="M332.77,58.37 C341.710045,58.37 348.594976,61.1299724 353.425,66.65 C358.255024,72.1700276 360.67,80.0899484 360.67,90.41 C360.67,100.730052 358.255024,108.664972 353.425,114.215 C348.594976,119.765028 341.710045,122.54 332.77,122.54 C323.709955,122.54 316.765024,119.765028 311.935,114.215 C307.104976,108.664972 304.69,100.730052 304.69,90.41 C304.69,80.0899484 307.104976,72.1700276 311.935,66.65 C316.765024,61.1299724 323.709955,58.37 332.77,58.37 Z M332.77,70.61 C328.80998,70.61 325.960009,72.1549845 324.22,75.245 C322.479991,78.3350154 321.61,83.3899649 321.61,90.41 C321.61,97.4900354 322.479991,102.574985 324.22,105.665 C325.960009,108.755015 328.80998,110.3 332.77,110.3 C336.610019,110.3 339.414991,108.740016 341.185,105.62 C342.955009,102.499984 343.84,97.4300351 343.84,90.41 C343.84,83.3899649 342.955009,78.3350154 341.185,75.245 C339.414991,72.1549845 336.610019,70.61 332.77,70.61 Z M362.92,58.91 L391.54,58.91 L391.54,122 L375.07,122 L375.07,72.41 L362.92,72.41 L362.92,58.91 Z" id="01" fill="#8D7047" opacity="0.3"></path>
                <path d="M332.77,547.37 C341.710045,547.37 348.594976,550.129972 353.425,555.65 C358.255024,561.170028 360.67,569.089948 360.67,579.41 C360.67,589.730052 358.255024,597.664972 353.425,603.215 C348.594976,608.765028 341.710045,611.54 332.77,611.54 C323.709955,611.54 316.765024,608.765028 311.935,603.215 C307.104976,597.664972 304.69,589.730052 304.69,579.41 C304.69,569.089948 307.104976,561.170028 311.935,555.65 C316.765024,550.129972 323.709955,547.37 332.77,547.37 Z M332.77,559.61 C328.80998,559.61 325.960009,561.154985 324.22,564.245 C322.479991,567.335015 321.61,572.389965 321.61,579.41 C321.61,586.490035 322.479991,591.574985 324.22,594.665 C325.960009,597.755015 328.80998,599.3 332.77,599.3 C336.610019,599.3 339.414991,597.740016 341.185,594.62 C342.955009,591.499984 343.84,586.430035 343.84,579.41 C343.84,572.389965 342.955009,567.335015 341.185,564.245 C339.414991,561.154985 336.610019,559.61 332.77,559.61 Z M362.92,547.91 L391.54,547.91 L391.54,611 L375.07,611 L375.07,561.41 L362.92,561.41 L362.92,547.91 Z" id="01-copy" fill="#8D7047" opacity="0.3"></path>
                <path d="M331.77,293.37 C340.710045,293.37 347.594976,296.129972 352.425,301.65 C357.255024,307.170028 359.67,315.089948 359.67,325.41 C359.67,335.730052 357.255024,343.664972 352.425,349.215 C347.594976,354.765028 340.710045,357.54 331.77,357.54 C322.709955,357.54 315.765024,354.765028 310.935,349.215 C306.104976,343.664972 303.69,335.730052 303.69,325.41 C303.69,315.089948 306.104976,307.170028 310.935,301.65 C315.765024,296.129972 322.709955,293.37 331.77,293.37 Z M331.77,305.61 C327.80998,305.61 324.960009,307.154985 323.22,310.245 C321.479991,313.335015 320.61,318.389965 320.61,325.41 C320.61,332.490035 321.479991,337.574985 323.22,340.665 C324.960009,343.755015 327.80998,345.3 331.77,345.3 C335.610019,345.3 338.414991,343.740016 340.185,340.62 C341.955009,337.499984 342.84,332.430035 342.84,325.41 C342.84,318.389965 341.955009,313.335015 340.185,310.245 C338.414991,307.154985 335.610019,305.61 331.77,305.61 Z M361.92,293.91 L390.54,293.91 L390.54,357 L374.07,357 L374.07,307.41 L361.92,307.41 L361.92,293.91 Z" id="01-copy-3" fill="#8D7047" opacity="0.3"></path>
                <path d="M631.77,58.37 C640.710045,58.37 647.594976,61.1299724 652.425,66.65 C657.255024,72.1700276 659.67,80.0899484 659.67,90.41 C659.67,100.730052 657.255024,108.664972 652.425,114.215 C647.594976,119.765028 640.710045,122.54 631.77,122.54 C622.709955,122.54 615.765024,119.765028 610.935,114.215 C606.104976,108.664972 603.69,100.730052 603.69,90.41 C603.69,80.0899484 606.104976,72.1700276 610.935,66.65 C615.765024,61.1299724 622.709955,58.37 631.77,58.37 Z M631.77,70.61 C627.80998,70.61 624.960009,72.1549845 623.22,75.245 C621.479991,78.3350154 620.61,83.3899649 620.61,90.41 C620.61,97.4900354 621.479991,102.574985 623.22,105.665 C624.960009,108.755015 627.80998,110.3 631.77,110.3 C635.610019,110.3 638.414991,108.740016 640.185,105.62 C641.955009,102.499984 642.84,97.4300351 642.84,90.41 C642.84,83.3899649 641.955009,78.3350154 640.185,75.245 C638.414991,72.1549845 635.610019,70.61 631.77,70.61 Z M714.75,108.77 L714.75,122 L666.69,122 L666.6,111.11 L689.55,87.53 C691.350009,85.6699907 692.819994,83.8100093 693.96,81.95 C695.100006,80.0899907 695.67,78.5000066 695.67,77.18 C695.67,75.4399913 695.040006,74.1050046 693.78,73.175 C692.519994,72.2449953 690.750011,71.78 688.47,71.78 C685.949987,71.78 683.145015,72.4849929 680.055,73.895 C676.964985,75.305007 673.980014,77.2699874 671.1,79.79 L664.8,67.64 C673.500044,61.3399685 682.229956,58.19 690.99,58.19 C695.190021,58.19 698.954983,58.8799931 702.285,60.26 C705.615017,61.6400069 708.224991,63.5899874 710.115,66.11 C712.005009,68.6300126 712.95,71.5099838 712.95,74.75 C712.95,77.9900162 711.885011,81.3349827 709.755,84.785 C707.624989,88.2350172 704.61002,91.9099805 700.71,95.81 L687.84,108.77 L714.75,108.77 Z" id="02" fill="#8D7047" opacity="0.6"></path>
                <path d="M631.77,547.37 C640.710045,547.37 647.594976,550.129972 652.425,555.65 C657.255024,561.170028 659.67,569.089948 659.67,579.41 C659.67,589.730052 657.255024,597.664972 652.425,603.215 C647.594976,608.765028 640.710045,611.54 631.77,611.54 C622.709955,611.54 615.765024,608.765028 610.935,603.215 C606.104976,597.664972 603.69,589.730052 603.69,579.41 C603.69,569.089948 606.104976,561.170028 610.935,555.65 C615.765024,550.129972 622.709955,547.37 631.77,547.37 Z M631.77,559.61 C627.80998,559.61 624.960009,561.154985 623.22,564.245 C621.479991,567.335015 620.61,572.389965 620.61,579.41 C620.61,586.490035 621.479991,591.574985 623.22,594.665 C624.960009,597.755015 627.80998,599.3 631.77,599.3 C635.610019,599.3 638.414991,597.740016 640.185,594.62 C641.955009,591.499984 642.84,586.430035 642.84,579.41 C642.84,572.389965 641.955009,567.335015 640.185,564.245 C638.414991,561.154985 635.610019,559.61 631.77,559.61 Z M714.75,597.77 L714.75,611 L666.69,611 L666.6,600.11 L689.55,576.53 C691.350009,574.669991 692.819994,572.810009 693.96,570.95 C695.100006,569.089991 695.67,567.500007 695.67,566.18 C695.67,564.439991 695.040006,563.105005 693.78,562.175 C692.519994,561.244995 690.750011,560.78 688.47,560.78 C685.949987,560.78 683.145015,561.484993 680.055,562.895 C676.964985,564.305007 673.980014,566.269987 671.1,568.79 L664.8,556.64 C673.500044,550.339968 682.229956,547.19 690.99,547.19 C695.190021,547.19 698.954983,547.879993 702.285,549.26 C705.615017,550.640007 708.224991,552.589987 710.115,555.11 C712.005009,557.630013 712.95,560.509984 712.95,563.75 C712.95,566.990016 711.885011,570.334983 709.755,573.785 C707.624989,577.235017 704.61002,580.90998 700.71,584.81 L687.84,597.77 L714.75,597.77 Z" id="02-copy" fill="#8D7047" opacity="0.6"></path>
                <path d="M630.77,293.37 C639.710045,293.37 646.594976,296.129972 651.425,301.65 C656.255024,307.170028 658.67,315.089948 658.67,325.41 C658.67,335.730052 656.255024,343.664972 651.425,349.215 C646.594976,354.765028 639.710045,357.54 630.77,357.54 C621.709955,357.54 614.765024,354.765028 609.935,349.215 C605.104976,343.664972 602.69,335.730052 602.69,325.41 C602.69,315.089948 605.104976,307.170028 609.935,301.65 C614.765024,296.129972 621.709955,293.37 630.77,293.37 Z M630.77,305.61 C626.80998,305.61 623.960009,307.154985 622.22,310.245 C620.479991,313.335015 619.61,318.389965 619.61,325.41 C619.61,332.490035 620.479991,337.574985 622.22,340.665 C623.960009,343.755015 626.80998,345.3 630.77,345.3 C634.610019,345.3 637.414991,343.740016 639.185,340.62 C640.955009,337.499984 641.84,332.430035 641.84,325.41 C641.84,318.389965 640.955009,313.335015 639.185,310.245 C637.414991,307.154985 634.610019,305.61 630.77,305.61 Z M713.75,343.77 L713.75,357 L665.69,357 L665.6,346.11 L688.55,322.53 C690.350009,320.669991 691.819994,318.810009 692.96,316.95 C694.100006,315.089991 694.67,313.500007 694.67,312.18 C694.67,310.439991 694.040006,309.105005 692.78,308.175 C691.519994,307.244995 689.750011,306.78 687.47,306.78 C684.949987,306.78 682.145015,307.484993 679.055,308.895 C675.964985,310.305007 672.980014,312.269987 670.1,314.79 L663.8,302.64 C672.500044,296.339968 681.229956,293.19 689.99,293.19 C694.190021,293.19 697.954983,293.879993 701.285,295.26 C704.615017,296.640007 707.224991,298.589987 709.115,301.11 C711.005009,303.630013 711.95,306.509984 711.95,309.75 C711.95,312.990016 710.885011,316.334983 708.755,319.785 C706.624989,323.235017 703.61002,326.90998 699.71,330.81 L686.84,343.77 L713.75,343.77 Z" id="02-copy-3" fill="#8D7047" opacity="0.6"></path>
                <path d="M931.77,58.37 C940.710045,58.37 947.594976,61.1299724 952.425,66.65 C957.255024,72.1700276 959.67,80.0899484 959.67,90.41 C959.67,100.730052 957.255024,108.664972 952.425,114.215 C947.594976,119.765028 940.710045,122.54 931.77,122.54 C922.709955,122.54 915.765024,119.765028 910.935,114.215 C906.104976,108.664972 903.69,100.730052 903.69,90.41 C903.69,80.0899484 906.104976,72.1700276 910.935,66.65 C915.765024,61.1299724 922.709955,58.37 931.77,58.37 Z M931.77,70.61 C927.80998,70.61 924.960009,72.1549846 923.22,75.245 C921.479991,78.3350155 920.61,83.3899649 920.61,90.41 C920.61,97.4900354 921.479991,102.574985 923.22,105.665 C924.960009,108.755015 927.80998,110.3 931.77,110.3 C935.610019,110.3 938.414991,108.740016 940.185,105.62 C941.955009,102.499984 942.84,97.4300351 942.84,90.41 C942.84,83.3899649 941.955009,78.3350155 940.185,75.245 C938.414991,72.1549846 935.610019,70.61 931.77,70.61 Z M997.65,84.83 C1002.75003,85.5500036 1006.84498,87.4249849 1009.935,90.455 C1013.02502,93.4850152 1014.57,97.3699763 1014.57,102.11 C1014.57,106.13002 1013.52001,109.699984 1011.42,112.82 C1009.31999,115.940016 1006.35002,118.369991 1002.51,120.11 C998.669981,121.850009 994.170026,122.72 989.01,122.72 C984.389977,122.72 979.845022,122.015007 975.375,120.605 C970.904978,119.194993 967.140015,117.320012 964.08,114.98 L970.2,103.37 C972.840013,105.590011 975.659985,107.269994 978.66,108.41 C981.660015,109.550006 984.659985,110.12 987.66,110.12 C991.140017,110.12 993.809991,109.445007 995.67,108.095 C997.530009,106.744993 998.46,104.810013 998.46,102.29 C998.46,99.7699874 997.530009,97.8500066 995.67,96.53 C993.809991,95.2099934 991.110018,94.55 987.57,94.55 L976.95,94.55 L976.95,85.55 L991.53,71.51 L967.41,71.51 L967.41,58.91 L1011.51,58.91 L1011.51,68.45 L994.32,84.2 L997.65,84.83 Z" id="03" fill="#8D7047"></path>
                <path d="M931.77,547.37 C940.710045,547.37 947.594976,550.129972 952.425,555.65 C957.255024,561.170028 959.67,569.089948 959.67,579.41 C959.67,589.730052 957.255024,597.664972 952.425,603.215 C947.594976,608.765028 940.710045,611.54 931.77,611.54 C922.709955,611.54 915.765024,608.765028 910.935,603.215 C906.104976,597.664972 903.69,589.730052 903.69,579.41 C903.69,569.089948 906.104976,561.170028 910.935,555.65 C915.765024,550.129972 922.709955,547.37 931.77,547.37 Z M931.77,559.61 C927.80998,559.61 924.960009,561.154985 923.22,564.245 C921.479991,567.335015 920.61,572.389965 920.61,579.41 C920.61,586.490035 921.479991,591.574985 923.22,594.665 C924.960009,597.755015 927.80998,599.3 931.77,599.3 C935.610019,599.3 938.414991,597.740016 940.185,594.62 C941.955009,591.499984 942.84,586.430035 942.84,579.41 C942.84,572.389965 941.955009,567.335015 940.185,564.245 C938.414991,561.154985 935.610019,559.61 931.77,559.61 Z M997.65,573.83 C1002.75003,574.550004 1006.84498,576.424985 1009.935,579.455 C1013.02502,582.485015 1014.57,586.369976 1014.57,591.11 C1014.57,595.13002 1013.52001,598.699984 1011.42,601.82 C1009.31999,604.940016 1006.35002,607.369991 1002.51,609.11 C998.669981,610.850009 994.170026,611.72 989.01,611.72 C984.389977,611.72 979.845022,611.015007 975.375,609.605 C970.904978,608.194993 967.140015,606.320012 964.08,603.98 L970.2,592.37 C972.840013,594.590011 975.659985,596.269994 978.66,597.41 C981.660015,598.550006 984.659985,599.12 987.66,599.12 C991.140017,599.12 993.809991,598.445007 995.67,597.095 C997.530009,595.744993 998.46,593.810013 998.46,591.29 C998.46,588.769987 997.530009,586.850007 995.67,585.53 C993.809991,584.209993 991.110018,583.55 987.57,583.55 L976.95,583.55 L976.95,574.55 L991.53,560.51 L967.41,560.51 L967.41,547.91 L1011.51,547.91 L1011.51,557.45 L994.32,573.2 L997.65,573.83 Z" id="03-copy-2" fill="#8D7047"></path>
                <polygon id="Rectangle-2" fill="#D8D8D8" points="455.29703 87 456 87.7029703 385.70297 158 385 157.29703"></polygon>
                <polygon id="Rectangle-2-Copy-5" fill="#D8D8D8" points="455.29703 576 456 576.70297 385.70297 647 385 646.29703"></polygon>
                <polygon id="Rectangle-2-Copy-3" fill="#D8D8D8" points="454.29703 322 455 322.70297 384.70297 393 384 392.29703"></polygon>
                <polygon id="Rectangle-2-Copy" fill="#D8D8D8" points="754.29703 87 755 87.7029703 684.70297 158 684 157.29703"></polygon>
                <polygon id="Rectangle-2-Copy-6" fill="#D8D8D8" points="754.29703 576 755 576.70297 684.70297 647 684 646.29703"></polygon>
                <polygon id="Rectangle-2-Copy-4" fill="#D8D8D8" points="753.29703 322 754 322.70297 683.70297 393 683 392.29703"></polygon>
                <polygon id="Rectangle-2-Copy-2" fill="#D8D8D8" points="1054.29703 87 1055 87.7029703 984.70297 158 984 157.29703"></polygon>
                <polygon id="Rectangle-2-Copy-7" fill="#D8D8D8" points="1054.29703 576 1055 576.70297 984.70297 647 984 646.29703"></polygon>
                <rect id="Rectangle-16-Copy" fill="#D8D8D8" x="0" y="787" width="1180" height="1"></rect>
                <rect id="Rectangle-16-Copy-4" fill="#D8D8D8" x="0" y="9" width="1180" height="1"></rect>
                <path d="M0,518 L1180,518 L1180,519 L0,519 L0,518 Z" id="Rectangle-16-Copy-2" fill-opacity="0.4" fill="#D8D8D8"></path>
                <path d="M0,245 L1180,245 L1180,246 L0,246 L0,245 Z" id="Rectangle-16-Copy-3" fill-opacity="0.4" fill="#D8D8D8"></path>
                <g id="Rectangle-3-Copy-8" transform="translate(109.000000, 38.000000) scale(-1, 1) rotate(90.000000) translate(-109.000000, -38.000000) ">
                    <use fill="#B5966A" xlink:href="#path-2"></use>
                    <use fill-opacity="0.5" fill="url(#linearGradient-1)" xlink:href="#path-2"></use>
                </g>
                <g id="Rectangle-3-Copy-11" transform="translate(108.000000, 274.000000) scale(-1, 1) rotate(90.000000) translate(-108.000000, -274.000000) ">
                    <use fill="#B4966B" xlink:href="#path-3"></use>
                    <use fill-opacity="0.5" fill="url(#linearGradient-1)" xlink:href="#path-3"></use>
                </g>
                <g id="Rectangle-3-Copy-13" transform="translate(109.000000, 547.000000) scale(-1, 1) rotate(90.000000) translate(-109.000000, -547.000000) ">
                    <use fill="#9D7E52" xlink:href="#path-4"></use>
                    <use fill="url(#linearGradient-1)" xlink:href="#path-4"></use>
                </g>
                <text id="20~30대-유형" font-family="Montserrat-Bold, Montserrat" font-size="22" font-weight="bold" fill="#FFFFFF">
                    <tspan x="43.312" y="36">20~30</tspan>
                    <tspan x="112.062" y="36" font-family="NotoSansCJKkr-Bold, Noto Sans CJK KR">대</tspan>
                    <tspan x="132.302" y="36" font-family="NotoSansCJKkr-DemiLight, Noto Sans CJK KR" font-weight="300"> 유형</tspan>
                </text>
                <text id="40~50대-유형" font-family="Montserrat-Bold, Montserrat" font-size="22" font-weight="bold" fill="#FFFFFF">
                    <tspan x="40.048" y="272">40~50</tspan>
                    <tspan x="109.326" y="272" font-family="NotoSansCJKkr-Bold, Noto Sans CJK KR">대</tspan>
                    <tspan x="129.566" y="272" font-family="NotoSansCJKkr-DemiLight, Noto Sans CJK KR" font-weight="300"> 유형</tspan>
                </text>
                <text id="60대-이후-유형" font-family="Montserrat-Bold, Montserrat" font-size="22" font-weight="bold" fill="#FFFFFF">
                    <tspan x="38.243" y="545">60</tspan>
                    <tspan x="67.569" y="545" font-family="NotoSansCJKkr-Bold, Noto Sans CJK KR">대 이후 </tspan>
                    <tspan x="138.277" y="545" font-family="NotoSansCJKkr-DemiLight, Noto Sans CJK KR" font-weight="300">유형</tspan>
                </text>
            </g>
        </g>
    </g>
</svg>