<?xml version="1.0" encoding="UTF-8"?>
<svg width="320px" height="678px" viewBox="0 0 320 678" version="1.1" xmlns="http://www.w3.org/2000/svg" xmlns:xlink="http://www.w3.org/1999/xlink">
    <!-- Generator: Sketch 52.5 (67469) - http://www.bohemiancoding.com/sketch -->
    <title>Group 11</title>
    <desc>Created with Sketch.</desc>
    <defs>
        <path d="M750,156.008026 L751,156 L751,658 L1,658 L1,215 L0,215 L0,0 L13.3386776,0 C14.2405259,6.96795455 18.1423371,12.2159091 22.8313285,12.2159091 C27.52032,12.2159091 31.4221311,6.96795455 32.3208803,0 L45.3558427,0 C46.2545919,6.96795455 50.1595022,12.2159091 54.8453945,12.2159091 C59.5343859,12.2159091 63.4392962,6.96795455 64.3380454,0 L77.3761069,0 C78.271757,6.96795455 82.1766672,12.2159091 86.8625596,12.2159091 C91.551551,12.2159091 95.4564613,6.96795455 96.3521113,0 L109.390173,0 C110.285823,6.96795455 114.190733,12.2159091 118.876625,12.2159091 C123.565617,12.2159091 127.470527,6.96795455 128.366177,0 L141.404239,0 C142.299889,6.96795455 146.204799,12.2159091 150.890691,12.2159091 C155.576584,12.2159091 159.484593,6.96795455 160.380243,0 L173.418305,0 C174.317054,6.96795455 178.221964,12.2159091 182.907857,12.2159091 C187.596848,12.2159091 191.501758,6.96795455 192.400507,0 L205.432371,0 C206.33112,6.96795455 210.239129,12.2159091 214.921922,12.2159091 C219.610914,12.2159091 223.515824,6.96795455 224.414573,0 L237.452635,0 C238.348285,6.96795455 242.256294,12.2159091 246.939088,12.2159091 C251.628079,12.2159091 255.532989,6.96795455 256.428639,0 L269.466701,0 C270.362351,6.96795455 274.27036,12.2159091 278.956253,12.2159091 C283.642145,12.2159091 287.547055,6.96795455 288.442705,0 L301.477668,0 C302.376417,6.96795455 306.278228,12.2159091 310.970319,12.2159091 C315.650013,12.2159091 319.561121,6.96795455 320.456771,0 L333.494833,0 C334.393582,6.96795455 338.298492,12.2159091 342.987484,12.2159091 C347.673376,12.2159091 351.578286,6.96795455 352.477035,0 L365.508899,0 C366.407648,6.96795455 370.315657,12.2159091 375.00155,12.2159091 C379.687442,12.2159091 383.592352,6.96795455 384.491101,0 L397.522965,0 C398.421714,6.96795455 402.329723,12.2159091 407.015616,12.2159091 C411.704607,12.2159091 415.606418,6.96795455 416.505167,0 L429.543229,0 C430.438879,6.96795455 434.346888,12.2159091 439.032781,12.2159091 C443.721772,12.2159091 447.623583,6.96795455 448.519233,0 L461.557295,0 C462.452945,6.96795455 466.357855,12.2159091 471.046847,12.2159091 C475.732739,12.2159091 479.637649,6.96795455 480.533299,0 L493.571361,0 C494.47011,6.96795455 498.37502,12.2159091 503.060912,12.2159091 C507.749904,12.2159091 511.651715,6.96795455 512.550464,0 L525.588526,0 C526.487275,6.96795455 530.392185,12.2159091 535.078078,12.2159091 C539.767069,12.2159091 543.671979,6.96795455 544.570728,0 L557.602592,0 C558.501341,6.96795455 562.406251,12.2159091 567.092143,12.2159091 C571.781135,12.2159091 575.686045,6.96795455 576.584794,0 L589.619757,0 C590.515407,6.96795455 594.423416,12.2159091 599.106209,12.2159091 C603.795201,12.2159091 607.700111,6.96795455 608.59886,0 L621.636922,0 C622.532572,6.96795455 626.440581,12.2159091 631.123375,12.2159091 C635.812366,12.2159091 639.717276,6.96795455 640.612926,0 L653.650988,0 C654.546638,6.96795455 658.454647,12.2159091 663.13744,12.2159091 C667.826432,12.2159091 671.731342,6.96795455 672.626992,0 L685.665054,0 C686.563803,6.96795455 690.471812,12.2159091 695.154606,12.2159091 C699.843597,12.2159091 703.748507,6.96795455 704.647256,0 L717.67912,0 C718.577869,6.96795455 722.485878,12.2159091 727.168671,12.2159091 C731.857663,12.2159091 735.762573,6.96795455 736.661322,0 L750,0 L750,156.008026 Z" id="path-1"></path>
        <filter x="-2.0%" y="-2.3%" width="104.0%" height="104.6%" filterUnits="objectBoundingBox" id="filter-2">
            <feOffset dx="0" dy="0" in="SourceAlpha" result="shadowOffsetOuter1"></feOffset>
            <feGaussianBlur stdDeviation="5" in="shadowOffsetOuter1" result="shadowBlurOuter1"></feGaussianBlur>
            <feColorMatrix values="0 0 0 0 0   0 0 0 0 0   0 0 0 0 0  0 0 0 0.2 0" type="matrix" in="shadowBlurOuter1"></feColorMatrix>
        </filter>
    </defs>
    <g id="Page-1" stroke="none" stroke-width="1" fill="none" fill-rule="evenodd">
        <g id="iPhone-8-Copy-8" transform="translate(0.000000, -1706.000000)">
            <g id="Group-11" transform="translate(-216.000000, 1716.000000)">
                <g id="Rectangle-9">
                    <use fill="black" fill-opacity="1" filter="url(#filter-2)" xlink:href="#path-1"></use>
                    <use fill="#FFFFFF" fill-rule="evenodd" xlink:href="#path-1"></use>
                </g>
                <rect id="Rectangle-4" stroke="#E9E9E9" fill="#FFFFFF" x="231.5" y="203.5" width="289" height="75"></rect>
                <rect id="Rectangle-4-Copy-2" stroke="#E9E9E9" fill="#FFFFFF" x="231.5" y="445.5" width="289" height="75"></rect>
                <rect id="Rectangle-4-Copy" stroke="#E9E9E9" fill="#F8F8F8" x="230.5" y="338.5" width="289" height="47"></rect>
                <rect id="Rectangle-4-Copy-3" stroke="#E9E9E9" fill="#F8F8F8" x="231.5" y="580.5" width="289" height="47"></rect>
                <text id="눈밑-지방이-불룩-나와-나이-들어-보" font-family="NotoSansCJKkr-Bold, Noto Sans CJK KR" font-size="18" font-weight="bold" fill="#555555">
                    <tspan x="258.145" y="234">눈밑 지방이 불룩 나와 나이 들어</tspan>
                    <tspan x="332.557" y="261">보이는 경우</tspan>
                </text>
                <text id="피곤하거나-우울해보이는-인상을-갖고" font-family="NotoSansCJKkr-Bold, Noto Sans CJK KR" font-size="18" font-weight="bold" fill="#555555">
                    <tspan x="255.994" y="476">피곤하거나 우울해보이는 인상을 </tspan>
                    <tspan x="322.234" y="503">갖고 있는 경우</tspan>
                </text>
                <text id="푹-꺼진-눈-밑이-고민인-경우" font-family="NotoSansCJKkr-Bold, Noto Sans CJK KR" font-size="18" font-weight="bold" fill="#555555">
                    <tspan x="273.705" y="369">푹 꺼진 눈 밑이 고민인 경우</tspan>
                </text>
                <text id="다크서클이-심한-경우" font-family="NotoSansCJKkr-Bold, Noto Sans CJK KR" font-size="18" font-weight="bold" fill="#555555">
                    <tspan x="297.394" y="611">다크서클이 심한 경우</tspan>
                </text>
                <g id="Group-2" transform="translate(231.000000, 50.000000)" fill="#8D7047" opacity="0.200000003">
                    <rect id="Rectangle-16" x="0" y="82" width="290" height="1"></rect>
                    <rect id="Rectangle-16-Copy-10" x="0" y="67" width="290" height="5"></rect>
                    <rect id="Rectangle-16-Copy-8" x="0" y="0" width="290" height="1"></rect>
                    <rect id="Rectangle-16-Copy-9" x="0" y="11" width="290" height="5"></rect>
                </g>
                <text id="눈밑-성형이-필요한-경우" font-family="NotoSansCJKkr-Bold, Noto Sans CJK KR" font-size="25" font-weight="bold" fill="#8D7047">
                    <tspan x="252.6625" y="100">눈밑 성형</tspan>
                    <tspan x="350.3375" y="100" font-family="NotoSansCJKkr-Thin, Noto Sans CJK KR" font-style="condensed" font-weight="300">이 필요한 경우</tspan>
                </text>
                <g id="Group-3" transform="translate(231.000000, 164.000000)">
                    <rect id="Rectangle-4" fill="#AE8B59" x="0" y="0" width="290" height="39"></rect>
                    <rect id="Rectangle-4" stroke="#FFFFFF" opacity="0.5" x="4.5" y="3.5" width="281" height="32"></rect>
                </g>
                <g id="Group-3-Copy-2" transform="translate(231.000000, 406.000000)">
                    <rect id="Rectangle-4" fill="#AE8B59" x="0" y="0" width="290" height="39"></rect>
                    <rect id="Rectangle-4" stroke="#FFFFFF" opacity="0.5" x="4.5" y="3.5" width="281" height="32"></rect>
                </g>
                <g id="Group-3-Copy" transform="translate(230.000000, 299.000000)">
                    <rect id="Rectangle-4" fill="#8D7047" x="0" y="0" width="290" height="39"></rect>
                    <rect id="Rectangle-4" stroke="#FFFFFF" opacity="0.5" x="4.5" y="3.5" width="281" height="32"></rect>
                </g>
                <g id="Group-3-Copy-3" transform="translate(231.000000, 541.000000)">
                    <rect id="Rectangle-4" fill="#8D7047" x="0" y="0" width="290" height="39"></rect>
                    <rect id="Rectangle-4" stroke="#FFFFFF" opacity="0.5" x="4.5" y="3.5" width="281" height="32"></rect>
                </g>
                <path d="M369.54,176.86 C371.526677,176.86 373.056661,177.473327 374.13,178.7 C375.203339,179.926673 375.74,181.686655 375.74,183.98 C375.74,186.273345 375.203339,188.03666 374.13,189.27 C373.056661,190.50334 371.526677,191.12 369.54,191.12 C367.526657,191.12 365.983339,190.50334 364.91,189.27 C363.836661,188.03666 363.3,186.273345 363.3,183.98 C363.3,181.686655 363.836661,179.926673 364.91,178.7 C365.983339,177.473327 367.526657,176.86 369.54,176.86 Z M369.54,179.58 C368.659996,179.58 368.026669,179.92333 367.64,180.61 C367.253331,181.29667 367.06,182.419992 367.06,183.98 C367.06,185.553341 367.253331,186.68333 367.64,187.37 C368.026669,188.05667 368.659996,188.4 369.54,188.4 C370.393338,188.4 371.016665,188.053337 371.41,187.36 C371.803335,186.666663 372,185.540008 372,183.98 C372,182.419992 371.803335,181.29667 371.41,180.61 C371.016665,179.92333 370.393338,179.58 369.54,179.58 Z M376.24,176.98 L382.6,176.98 L382.6,191 L378.94,191 L378.94,179.98 L376.24,179.98 L376.24,176.98 Z M387.06,187.7 C387.566669,187.7 387.979998,187.859998 388.3,188.18 C388.620002,188.500002 388.78,188.913331 388.78,189.42 C388.78,189.926669 388.620002,190.343332 388.3,190.67 C387.979998,190.996668 387.566669,191.16 387.06,191.16 C386.566664,191.16 386.160002,190.996668 385.84,190.67 C385.519998,190.343332 385.36,189.926669 385.36,189.42 C385.36,188.913331 385.516665,188.500002 385.83,188.18 C386.143335,187.859998 386.553331,187.7 387.06,187.7 Z" id="01." fill="#FFFFFF"></path>
                <path d="M367.55,418.86 C369.536677,418.86 371.066661,419.473327 372.14,420.7 C373.213339,421.926673 373.75,423.686655 373.75,425.98 C373.75,428.273345 373.213339,430.036661 372.14,431.27 C371.066661,432.50334 369.536677,433.12 367.55,433.12 C365.536657,433.12 363.993339,432.50334 362.92,431.27 C361.846661,430.036661 361.31,428.273345 361.31,425.98 C361.31,423.686655 361.846661,421.926673 362.92,420.7 C363.993339,419.473327 365.536657,418.86 367.55,418.86 Z M367.55,421.58 C366.669996,421.58 366.036669,421.92333 365.65,422.61 C365.263331,423.29667 365.07,424.419992 365.07,425.98 C365.07,427.553341 365.263331,428.68333 365.65,429.37 C366.036669,430.05667 366.669996,430.4 367.55,430.4 C368.403338,430.4 369.026665,430.053337 369.42,429.36 C369.813335,428.666663 370.01,427.540008 370.01,425.98 C370.01,424.419992 369.813335,423.29667 369.42,422.61 C369.026665,421.92333 368.403338,421.58 367.55,421.58 Z M382.19,424.74 C383.323339,424.900001 384.23333,425.316663 384.92,425.99 C385.60667,426.663337 385.95,427.526661 385.95,428.58 C385.95,429.473338 385.716669,430.266663 385.25,430.96 C384.783331,431.653337 384.123338,432.193331 383.27,432.58 C382.416662,432.966669 381.416672,433.16 380.27,433.16 C379.243328,433.16 378.233338,433.003335 377.24,432.69 C376.246662,432.376665 375.410003,431.960003 374.73,431.44 L376.09,428.86 C376.67667,429.353336 377.30333,429.726665 377.97,429.98 C378.63667,430.233335 379.30333,430.36 379.97,430.36 C380.743337,430.36 381.336665,430.210002 381.75,429.91 C382.163335,429.609999 382.37,429.180003 382.37,428.62 C382.37,428.059997 382.163335,427.633335 381.75,427.34 C381.336665,427.046665 380.736671,426.9 379.95,426.9 L377.59,426.9 L377.59,424.9 L380.83,421.78 L375.47,421.78 L375.47,418.98 L385.27,418.98 L385.27,421.1 L381.45,424.6 L382.19,424.74 Z M389.05,429.7 C389.556669,429.7 389.969998,429.859998 390.29,430.18 C390.610002,430.500002 390.77,430.913331 390.77,431.42 C390.77,431.926669 390.610002,432.343332 390.29,432.67 C389.969998,432.996668 389.556669,433.16 389.05,433.16 C388.556664,433.16 388.150002,432.996668 387.83,432.67 C387.509998,432.343332 387.35,431.926669 387.35,431.42 C387.35,430.913331 387.506665,430.500002 387.82,430.18 C388.133335,429.859998 388.543331,429.7 389.05,429.7 Z" id="03." fill="#FFFFFF"></path>
                <path d="M367.53,311.86 C369.516677,311.86 371.046661,312.473327 372.12,313.7 C373.193339,314.926673 373.73,316.686655 373.73,318.98 C373.73,321.273345 373.193339,323.03666 372.12,324.27 C371.046661,325.50334 369.516677,326.12 367.53,326.12 C365.516657,326.12 363.973339,325.50334 362.9,324.27 C361.826661,323.03666 361.29,321.273345 361.29,318.98 C361.29,316.686655 361.826661,314.926673 362.9,313.7 C363.973339,312.473327 365.516657,311.86 367.53,311.86 Z M367.53,314.58 C366.649996,314.58 366.016669,314.92333 365.63,315.61 C365.243331,316.29667 365.05,317.419992 365.05,318.98 C365.05,320.553341 365.243331,321.68333 365.63,322.37 C366.016669,323.05667 366.649996,323.4 367.53,323.4 C368.383338,323.4 369.006665,323.053337 369.4,322.36 C369.793335,321.666663 369.99,320.540008 369.99,318.98 C369.99,317.419992 369.793335,316.29667 369.4,315.61 C369.006665,314.92333 368.383338,314.58 367.53,314.58 Z M385.97,323.06 L385.97,326 L375.29,326 L375.27,323.58 L380.37,318.34 C380.770002,317.926665 381.096665,317.513335 381.35,317.1 C381.603335,316.686665 381.73,316.333335 381.73,316.04 C381.73,315.653331 381.590001,315.356668 381.31,315.15 C381.029999,314.943332 380.636669,314.84 380.13,314.84 C379.569997,314.84 378.94667,314.996665 378.26,315.31 C377.57333,315.623335 376.910003,316.059997 376.27,316.62 L374.87,313.92 C376.803343,312.519993 378.743324,311.82 380.69,311.82 C381.623338,311.82 382.459996,311.973332 383.2,312.28 C383.940004,312.586668 384.519998,313.019997 384.94,313.58 C385.360002,314.140003 385.57,314.779996 385.57,315.5 C385.57,316.220004 385.333336,316.96333 384.86,317.73 C384.386664,318.49667 383.716671,319.313329 382.85,320.18 L379.99,323.06 L385.97,323.06 Z M389.07,322.7 C389.576669,322.7 389.989998,322.859998 390.31,323.18 C390.630002,323.500002 390.79,323.913331 390.79,324.42 C390.79,324.926669 390.630002,325.343332 390.31,325.67 C389.989998,325.996668 389.576669,326.16 389.07,326.16 C388.576664,326.16 388.170002,325.996668 387.85,325.67 C387.529998,325.343332 387.37,324.926669 387.37,324.42 C387.37,323.913331 387.526665,323.500002 387.84,323.18 C388.153335,322.859998 388.563331,322.7 389.07,322.7 Z" id="02." fill="#FFFFFF"></path>
                <path d="M367.51,553.86 C369.496677,553.86 371.026661,554.473327 372.1,555.7 C373.173339,556.926673 373.71,558.686655 373.71,560.98 C373.71,563.273345 373.173339,565.036661 372.1,566.27 C371.026661,567.50334 369.496677,568.12 367.51,568.12 C365.496657,568.12 363.953339,567.50334 362.88,566.27 C361.806661,565.036661 361.27,563.273345 361.27,560.98 C361.27,558.686655 361.806661,556.926673 362.88,555.7 C363.953339,554.473327 365.496657,553.86 367.51,553.86 Z M367.51,556.58 C366.629996,556.58 365.996669,556.92333 365.61,557.61 C365.223331,558.29667 365.03,559.419992 365.03,560.98 C365.03,562.553341 365.223331,563.68333 365.61,564.37 C365.996669,565.05667 366.629996,565.4 367.51,565.4 C368.363338,565.4 368.986665,565.053337 369.38,564.36 C369.773335,563.666663 369.97,562.540008 369.97,560.98 C369.97,559.419992 369.773335,558.29667 369.38,557.61 C368.986665,556.92333 368.363338,556.58 367.51,556.58 Z M385.99,562.2 L385.99,564.98 L384.19,564.98 L384.19,568 L380.83,568 L380.83,564.98 L374.49,564.98 L374.49,562.5 L378.47,553.98 L381.95,553.98 L378.21,562.2 L380.83,562.2 L380.83,559.22 L384.19,559.22 L384.19,562.2 L385.99,562.2 Z M389.09,564.7 C389.596669,564.7 390.009998,564.859998 390.33,565.18 C390.650002,565.500002 390.81,565.913331 390.81,566.42 C390.81,566.926669 390.650002,567.343332 390.33,567.67 C390.009998,567.996668 389.596669,568.16 389.09,568.16 C388.596664,568.16 388.190002,567.996668 387.87,567.67 C387.549998,567.343332 387.39,566.926669 387.39,566.42 C387.39,565.913331 387.546665,565.500002 387.86,565.18 C388.173335,564.859998 388.583331,564.7 389.09,564.7 Z" id="04." fill="#FFFFFF"></path>
            </g>
        </g>
    </g>
</svg>