<?xml version="1.0" encoding="utf-8"?>
<!-- Generator: Adobe Illustrator 20.0.0, SVG Export Plug-In . SVG Version: 6.00 Build 0)  -->
<svg version="1.1" id="레이어_1" xmlns="http://www.w3.org/2000/svg" xmlns:xlink="http://www.w3.org/1999/xlink" x="0px"
	 y="0px" viewBox="0 0 274 217" style="enable-background:new 0 0 274 217;" xml:space="preserve">
<style type="text/css">
	.st0{fill:#5F4B2F;}
	.st1{font-family:'Helvetica';}
	.st2{font-size:62.7328px;}
	.st3{font-family:'AppleSDGothicNeo-Regular-KSCpc-EUC-H';}
	.st4{fill:#8D7047;}
	.st5{font-size:27.4456px;}
</style>
<title>Group 9</title>
<desc>Created with Sketch.</desc>
<g id="Page-1">
	<g id="_x2B__x2B_눈-밑-지방-재배치" transform="translate(-520.000000, -466.000000)">
		<g id="Group-2">
			<g id="Group-9" transform="translate(520.000000, 464.000000)">
				<text transform="matrix(1 0 0 1 0 141.1582)" class="st0 st1 st2">#</text>
				<text transform="matrix(1 0 0 1 34.8887 141.1582)" class="st0 st1 st2"> </text>
				<text transform="matrix(1 0 0 1 38.1368 141.3424)" class="st0 st3 st2">눈밑</text>
				<text transform="matrix(1 0 0 1 199.667 147.3428)" class="st0 st1 st2"> </text>
				<text transform="matrix(1 0 0 1 164.0943 141.3424)" class="st0 st3 st2">지방</text>
				<text transform="matrix(1 0 0 1 1.635 210.9059)" class="st0 st3 st2">재배치</text>
				<text transform="matrix(1 0 0 1 0 29.377)" class="st4 st3 st5">칙칙한</text>
				<text transform="matrix(1 0 0 1 71.2202 29.377)" class="st4 st3 st5"> </text>
				<text transform="matrix(1 0 0 1 78.8467 29.377)" class="st4 st3 st5">눈밑을</text>
				<text transform="matrix(1 0 0 1 0 68.585)" class="st4 st3 st5">밝고</text>
				<text transform="matrix(1 0 0 1 47.48 68.585)" class="st4 st3 st5"> </text>
				<text transform="matrix(1 0 0 1 55.106 68.585)" class="st4 st3 st5">화사하게</text>
				<text transform="matrix(1 0 0 1 150.0669 68.585)" class="st4 st3 st5"> </text>
				<text transform="matrix(1 0 0 1 151.4596 67.879)" class="st4 st1 st5">!</text>
			</g>
		</g>
	</g>
</g>
</svg>
