<?xml version="1.0" encoding="UTF-8"?>
<svg width="94px" height="66px" viewBox="0 0 94 66" version="1.1" xmlns="http://www.w3.org/2000/svg" xmlns:xlink="http://www.w3.org/1999/xlink">
    <!-- Generator: Sketch 52.5 (67469) - http://www.bohemiancoding.com/sketch -->
    <title>Group 9</title>
    <desc>Created with Sketch.</desc>
    <defs>
        <path d="M50.546514,33.5767143 C51.1862873,33.749886 51.5663029,34.4089006 51.3931312,35.0534841 C51.0756498,36.2127725 50.7293064,37.3095266 50.354101,38.3533671 C50.1809293,38.8440203 49.7191381,39.1470708 49.2236746,39.1470708 C49.0889855,39.1470708 48.9494861,39.1278295 48.8196073,39.0797262 C48.194265,38.853641 47.8671629,38.1657645 48.0932482,37.5404222 C48.4444019,36.5543056 48.7763144,35.5200857 49.0697442,34.4233315 C49.2477262,33.7835583 49.9019305,33.4083529 50.546514,33.5767143 Z M39.0705214,50.7134975 C39.5852262,50.2949992 40.3452576,50.3767747 40.7637559,50.8914795 C41.1774438,51.4109946 41.1004786,52.1662157 40.5809635,52.5799036 C39.6573811,53.3303143 38.6905058,54.0133805 37.7043891,54.6146711 C37.5071658,54.7349293 37.2907011,54.7878428 37.0742365,54.7878428 C36.6701692,54.7878428 36.2757226,54.5858092 36.0496373,54.2154141 C35.7032939,53.6477958 35.8812759,52.9070057 36.4488943,52.5606623 C37.348425,52.0170956 38.2287145,51.3917533 39.0705214,50.7134975 Z M46.8497792,40.5459133 C47.1335884,39.9446227 47.8503268,39.6848651 48.4516174,39.963864 C49.0529081,40.2476732 49.3126656,40.9596013 49.0288564,41.5657022 C48.5141517,42.6624564 47.9705849,43.6870556 47.4029666,44.6443103 C47.1768813,45.024326 46.7776243,45.23117 46.3687467,45.23117 C46.1570924,45.23117 45.9454381,45.1782564 45.7530251,45.0628086 C45.1805964,44.7212755 44.9929937,43.9852958 45.3345268,43.4176774 C45.8636625,42.5229569 46.373557,41.5705126 46.8497792,40.5459133 Z M57.4613563,35.2632143 C57.8173204,35.8260223 57.648959,36.5668124 57.086151,36.9227765 C56.8889277,37.0478449 56.6628424,37.1103791 56.4463777,37.1103791 C56.0471208,37.1103791 55.6574844,36.9131558 55.4265888,36.5475711 L52.2084813,31.4630575 C52.1940504,31.5352123 52.1844297,31.6217982 52.1699987,31.6891428 C52.0593613,32.2615714 51.5542771,32.6608284 50.9914691,32.6608284 C50.9145039,32.6608284 50.8375387,32.6560181 50.7605735,32.6415871 C50.1063693,32.5117083 49.6830607,31.8815558 49.8081291,31.2321619 C49.8225601,31.1648173 49.8321807,31.0878521 49.8418014,31.0205076 L45.0362866,34.844716 C44.8150117,35.0178877 44.5504438,35.0996632 44.2906862,35.0996632 C43.9347222,35.0996632 43.5835684,34.9457328 43.3478625,34.652303 C42.9341746,34.1279776 43.0207604,33.3727565 43.5402755,32.9590686 L50.7798148,27.2011094 C50.7798148,27.2011094 50.7846251,27.2011094 50.7894354,27.1962991 C50.8086767,27.1818681 50.8327284,27.1914888 50.8471593,27.1770578 C50.8664006,27.1626268 50.8664006,27.1385752 50.8856419,27.1241442 C51.0059001,27.047179 51.1502098,27.0808513 51.2848989,27.0519894 C51.419588,27.0279377 51.5398461,26.9317312 51.6745353,26.9509725 C51.6793456,26.9509725 51.6793456,26.9461622 51.6841559,26.9461622 C51.7033972,26.9509725 51.7130179,26.9750242 51.7370695,26.9750242 C51.8813792,27.0038861 51.9775857,27.1145236 52.1074645,27.1914888 C52.2277226,27.2636437 52.3768427,27.2732643 52.4682389,27.3935224 C52.4730492,27.3983328 52.4682389,27.4031431 52.4730492,27.4031431 C52.4874802,27.4223844 52.4826699,27.446436 52.4971008,27.460867 C52.5115318,27.4801083 52.5355834,27.4801083 52.5452041,27.4993496 L57.4613563,35.2632143 Z M33.6117645,54.0374321 C34.2226758,53.7728642 34.9297936,54.0518631 35.1895511,54.6675847 C35.454119,55.278496 35.1703098,55.9808035 34.5593986,56.2453713 C32.9479397,56.9380582 31.6010486,57.2892119 31.2979981,57.2892119 C30.6341733,57.2892119 30.0954169,56.7456451 30.0954169,56.0866306 C30.0954169,55.4276161 30.614932,54.8984803 31.2691362,54.8840493 C31.2402742,54.864808 32.2023393,54.6435331 33.6117645,54.0374321 Z M43.5306549,46.0912561 C43.9347222,45.55731 44.6899432,45.4611035 45.2142686,45.8603605 C45.7434044,46.2644278 45.8492316,47.0148385 45.4451643,47.5439743 C44.7332361,48.486798 43.9683944,49.3815185 43.1698805,50.2088944 C42.9293642,50.4590313 42.6166931,50.5792894 42.304022,50.5792894 C42.0009715,50.5792894 41.7027313,50.4686519 41.4670254,50.2425666 C40.9908032,49.7855858 40.9763722,49.0207441 41.4333531,48.5445219 C42.1452812,47.8085422 42.8475887,46.9955972 43.5306549,46.0912561 Z" id="path-1"></path>
        <path d="M50.546514,33.5767143 C51.1862873,33.749886 51.5663029,34.4089006 51.3931312,35.0534841 C51.0756498,36.2127725 50.7293064,37.3095266 50.354101,38.3533671 C50.1809293,38.8440203 49.7191381,39.1470708 49.2236746,39.1470708 C49.0889855,39.1470708 48.9494861,39.1278295 48.8196073,39.0797262 C48.194265,38.853641 47.8671629,38.1657645 48.0932482,37.5404222 C48.4444019,36.5543056 48.7763144,35.5200857 49.0697442,34.4233315 C49.2477262,33.7835583 49.9019305,33.4083529 50.546514,33.5767143 Z M39.0705214,50.7134975 C39.5852262,50.2949992 40.3452576,50.3767747 40.7637559,50.8914795 C41.1774438,51.4109946 41.1004786,52.1662157 40.5809635,52.5799036 C39.6573811,53.3303143 38.6905058,54.0133805 37.7043891,54.6146711 C37.5071658,54.7349293 37.2907011,54.7878428 37.0742365,54.7878428 C36.6701692,54.7878428 36.2757226,54.5858092 36.0496373,54.2154141 C35.7032939,53.6477958 35.8812759,52.9070057 36.4488943,52.5606623 C37.348425,52.0170956 38.2287145,51.3917533 39.0705214,50.7134975 Z M46.8497792,40.5459133 C47.1335884,39.9446227 47.8503268,39.6848651 48.4516174,39.963864 C49.0529081,40.2476732 49.3126656,40.9596013 49.0288564,41.5657022 C48.5141517,42.6624564 47.9705849,43.6870556 47.4029666,44.6443103 C47.1768813,45.024326 46.7776243,45.23117 46.3687467,45.23117 C46.1570924,45.23117 45.9454381,45.1782564 45.7530251,45.0628086 C45.1805964,44.7212755 44.9929937,43.9852958 45.3345268,43.4176774 C45.8636625,42.5229569 46.373557,41.5705126 46.8497792,40.5459133 Z M57.4613563,35.2632143 C57.8173204,35.8260223 57.648959,36.5668124 57.086151,36.9227765 C56.8889277,37.0478449 56.6628424,37.1103791 56.4463777,37.1103791 C56.0471208,37.1103791 55.6574844,36.9131558 55.4265888,36.5475711 L52.2084813,31.4630575 C52.1940504,31.5352123 52.1844297,31.6217982 52.1699987,31.6891428 C52.0593613,32.2615714 51.5542771,32.6608284 50.9914691,32.6608284 C50.9145039,32.6608284 50.8375387,32.6560181 50.7605735,32.6415871 C50.1063693,32.5117083 49.6830607,31.8815558 49.8081291,31.2321619 C49.8225601,31.1648173 49.8321807,31.0878521 49.8418014,31.0205076 L45.0362866,34.844716 C44.8150117,35.0178877 44.5504438,35.0996632 44.2906862,35.0996632 C43.9347222,35.0996632 43.5835684,34.9457328 43.3478625,34.652303 C42.9341746,34.1279776 43.0207604,33.3727565 43.5402755,32.9590686 L50.7798148,27.2011094 C50.7798148,27.2011094 50.7846251,27.2011094 50.7894354,27.1962991 C50.8086767,27.1818681 50.8327284,27.1914888 50.8471593,27.1770578 C50.8664006,27.1626268 50.8664006,27.1385752 50.8856419,27.1241442 C51.0059001,27.047179 51.1502098,27.0808513 51.2848989,27.0519894 C51.419588,27.0279377 51.5398461,26.9317312 51.6745353,26.9509725 C51.6793456,26.9509725 51.6793456,26.9461622 51.6841559,26.9461622 C51.7033972,26.9509725 51.7130179,26.9750242 51.7370695,26.9750242 C51.8813792,27.0038861 51.9775857,27.1145236 52.1074645,27.1914888 C52.2277226,27.2636437 52.3768427,27.2732643 52.4682389,27.3935224 C52.4730492,27.3983328 52.4682389,27.4031431 52.4730492,27.4031431 C52.4874802,27.4223844 52.4826699,27.446436 52.4971008,27.460867 C52.5115318,27.4801083 52.5355834,27.4801083 52.5452041,27.4993496 L57.4613563,35.2632143 Z M33.6117645,54.0374321 C34.2226758,53.7728642 34.9297936,54.0518631 35.1895511,54.6675847 C35.454119,55.278496 35.1703098,55.9808035 34.5593986,56.2453713 C32.9479397,56.9380582 31.6010486,57.2892119 31.2979981,57.2892119 C30.6341733,57.2892119 30.0954169,56.7456451 30.0954169,56.0866306 C30.0954169,55.4276161 30.614932,54.8984803 31.2691362,54.8840493 C31.2402742,54.864808 32.2023393,54.6435331 33.6117645,54.0374321 Z M43.5306549,46.0912561 C43.9347222,45.55731 44.6899432,45.4611035 45.2142686,45.8603605 C45.7434044,46.2644278 45.8492316,47.0148385 45.4451643,47.5439743 C44.7332361,48.486798 43.9683944,49.3815185 43.1698805,50.2088944 C42.9293642,50.4590313 42.6166931,50.5792894 42.304022,50.5792894 C42.0009715,50.5792894 41.7027313,50.4686519 41.4670254,50.2425666 C40.9908032,49.7855858 40.9763722,49.0207441 41.4333531,48.5445219 C42.1452812,47.8085422 42.8475887,46.9955972 43.5306549,46.0912561 Z" id="path-3"></path>
        <path d="M67.241552,28.1466771 C67.317712,28.2661881 67.411792,28.3547147 67.478992,28.4963574 C68.262992,30.1031164 68.222672,32.5862894 67.375952,34.9765094 C66.462032,37.5482091 64.920912,39.2125104 63.491792,39.9428554 C65.171792,36.0078451 66.385872,31.9488974 67.241552,28.1466771 M18.234832,34.9765094 C17.576272,33.1218757 17.397072,31.1654364 17.750992,29.6162197 C17.845072,29.1957181 18.024272,28.8947274 18.185552,28.5671787 C19.014352,32.1746404 20.165712,35.9901397 21.733712,39.7082597 C20.416592,38.8761091 19.063632,37.3091871 18.234832,34.9765094 M68.867792,69.7763421 C65.162832,69.2805927 62.403152,67.7977711 60.436432,65.2304977 C56.108752,59.5913491 57.300432,50.7121244 57.313872,50.6235977 C57.331792,50.5173657 57.295952,50.4155601 57.295952,50.3049017 C58.998352,48.2909201 60.449872,46.0423427 61.708752,43.6742544 C61.843152,43.6831071 61.968592,43.7406494 62.107472,43.7406494 C65.422672,43.7406494 68.899152,40.7041847 70.547792,36.0786664 C71.699152,32.8385904 71.681232,29.4657244 70.507472,27.0533727 C69.925072,25.8494101 69.024592,25.0393911 67.989712,24.4816731 C69.199312,17.7979097 69.382992,12.6279524 69.396432,12.0392501 C69.423312,10.8131557 68.446672,9.7995254 67.210192,9.7729674 C65.772112,9.67116173 64.947792,10.7113501 64.916432,11.9285917 C64.907472,12.3136827 63.724752,49.9198107 42.664272,54.4479497 C21.630672,49.9242371 20.421072,12.3136827 20.412112,11.9285917 C20.385232,10.7113501 19.520592,9.79509907 18.118352,9.7729674 C16.881872,9.7995254 15.905232,10.8131557 15.932112,12.0392501 C15.950032,12.6279524 16.133712,17.8377467 17.352272,24.5569207 C15.945552,25.4112031 14.919632,26.8895984 14.467152,28.8903011 C13.978832,31.0636307 14.189392,33.6131987 15.062992,36.0786664 C16.711632,40.7041847 20.192592,43.7406494 23.507792,43.7406494 C23.557072,43.7406494 23.597392,43.7185177 23.646672,43.7185177 C24.936912,46.1485747 26.442192,48.4414154 28.207312,50.4952341 C28.211792,50.5394974 28.193872,50.5793344 28.198352,50.6280241 C28.211792,50.7165507 29.430352,59.5426594 25.089232,65.2172187 C23.122512,67.7889184 20.362832,69.2805927 16.648912,69.7763421 C15.421392,69.9401164 14.561232,71.0555524 14.726992,72.2683677 C14.879312,73.3793774 15.842512,74.1849701 16.944592,74.1849701 C17.043152,74.1849701 17.146192,74.1761174 17.249232,74.1628384 C22.136912,73.5121674 25.976272,71.3963801 28.664272,67.8862977 C31.858512,63.7078391 32.673872,58.4803394 32.803792,54.7400877 C35.415632,56.6478374 38.399312,58.1041011 41.880272,58.8211671 C41.902672,58.8300197 41.929552,58.8344461 41.951952,58.8432987 C42.050512,58.8610041 42.135632,58.9052674 42.238672,58.9273991 C42.377552,58.9495307 42.516432,58.9628097 42.655312,58.9628097 C42.659792,58.9628097 42.659792,58.9628097 42.659792,58.9628097 L42.664272,58.9628097 C42.668752,58.9628097 42.668752,58.9628097 42.668752,58.9628097 C42.807632,58.9628097 42.946512,58.9495307 43.085392,58.9273991 C43.188432,58.9052674 43.273552,58.8610041 43.372112,58.8432987 C43.398992,58.8344461 43.421392,58.8300197 43.443792,58.8211671 C47.009872,58.0863957 50.047312,56.5770161 52.699472,54.6028714 C52.815952,58.3431231 53.617872,63.6547231 56.852432,67.8862977 C59.535952,71.3963801 63.379792,73.5121674 68.267472,74.1628384 C68.366032,74.1761174 68.469072,74.1849701 68.567632,74.1849701 C69.674192,74.1849701 70.632912,73.3793774 70.789712,72.2683677 C70.955472,71.0555524 70.095312,69.9401164 68.867792,69.7763421" id="path-5"></path>
    </defs>
    <g id="Page-1" stroke="none" stroke-width="1" fill="none" fill-rule="evenodd">
        <g id="iPhone-8-Copy-16" transform="translate(-185.000000, -3204.000000)">
            <g id="Group-9" transform="translate(151.000000, 3188.000000)">
                <g id="-round/ver1/face3-arrow" opacity="0.5" transform="translate(113.000000, 49.000000) rotate(-9.000000) translate(-113.000000, -49.000000) translate(71.000000, 7.000000)">
                    <mask id="mask-2" fill="white">
                        <use xlink:href="#path-1"></use>
                    </mask>
                    <use id="Fill-4" fill="#613627" fill-rule="evenodd" xlink:href="#path-1"></use>
                    <g id="swatch/dark-brown1" mask="url(#mask-2)" fill="#6C573A" fill-rule="evenodd">
                        <rect id="Rectangle" x="0" y="0" width="88" height="84"></rect>
                    </g>
                </g>
                <g id="-round/ver1/face3-arrow" opacity="0.5" transform="translate(49.000000, 49.000000) scale(-1, 1) rotate(-9.000000) translate(-49.000000, -49.000000) translate(7.000000, 7.000000)">
                    <mask id="mask-4" fill="white">
                        <use xlink:href="#path-3"></use>
                    </mask>
                    <use id="Fill-4" fill="#613627" fill-rule="evenodd" xlink:href="#path-3"></use>
                    <g id="swatch/dark-brown1" mask="url(#mask-4)" fill="#6C573A" fill-rule="evenodd">
                        <rect id="Rectangle" x="0" y="0" width="88" height="84"></rect>
                    </g>
                </g>
                <g id="-round/ver1/face3" transform="translate(38.000000, 7.000000)">
                    <mask id="mask-6" fill="white">
                        <use xlink:href="#path-5"></use>
                    </mask>
                    <use id="Fill-1" fill="#613627" fill-rule="evenodd" xlink:href="#path-5"></use>
                    <g id="swatch/dark-brown1" mask="url(#mask-6)" fill="#6C573A" fill-rule="evenodd">
                        <rect id="Rectangle" x="0" y="0" width="88" height="84"></rect>
                    </g>
                </g>
            </g>
        </g>
    </g>
</svg>