<?xml version="1.0" encoding="UTF-8"?>
<svg width="103px" height="63px" viewBox="0 0 103 63" version="1.1" xmlns="http://www.w3.org/2000/svg" xmlns:xlink="http://www.w3.org/1999/xlink">
    <!-- Generator: Sketch 52.5 (67469) - http://www.bohemiancoding.com/sketch -->
    <title>Group 4</title>
    <desc>Created with Sketch.</desc>
    <defs>
        <path d="M43.7029687,15.2870005 L49.5357187,9.36166716 L51.3364687,11.1936672 L45.5063437,17.1190005 C45.4958437,17.1296672 45.4932187,17.1456672 45.4800937,17.1563338 L43.6662187,15.3136672 C43.6767187,15.3003338 43.6924687,15.2976672 43.7029687,15.2870005 Z M41.7998437,27.5616672 L39.6420937,25.3696672 C38.9779687,24.6923338 37.8964687,24.6923338 37.2297187,25.3696672 C36.5655937,26.0443338 36.5629687,27.1430005 37.2297187,27.8203338 L39.3874687,30.0123338 L37.1220937,32.3136672 L34.9643437,30.1216672 C34.2975937,29.4443338 33.2187187,29.4443338 32.5519687,30.1216672 C31.8852187,30.7990005 31.8852187,31.8976672 32.5519687,32.5723338 L34.7097187,34.7643338 L32.4417187,37.0683338 L24.4144687,28.9110005 L38.3217187,14.7856672 L46.3489687,22.9403338 L41.7998437,27.5616672 Z M20.9940937,47.3776672 L14.2662187,40.5430005 C13.9065937,40.1776672 13.9065937,39.5856672 14.2662187,39.2230005 L22.0020937,31.3643338 L30.0293437,39.5190005 L27.7639687,41.8203338 L25.6062187,39.6283338 C24.9394687,38.9536672 23.8579687,38.9536672 23.1938437,39.6283338 C22.5270937,40.3056672 22.5270937,41.4016672 23.1938437,42.0790005 L25.3515937,44.2710005 L22.2934687,47.3776672 C21.9364687,47.7403338 21.3510937,47.7403338 20.9940937,47.3776672 Z M14.4919687,47.9190005 C14.0745937,48.3430005 13.3159687,47.5696672 13.7333437,47.1483338 L14.8384687,46.0256672 L15.5970937,46.7963338 L14.4919687,47.9190005 Z M34.5049687,10.9083338 L35.9067187,12.3350005 L11.8538437,36.7723338 C10.1659687,38.4870005 10.1659687,41.2790005 11.8538437,42.9936672 L12.4260937,43.5723338 L11.3209687,44.6950005 C10.2158437,45.8203338 9.91659375,47.4470005 10.3995937,48.8523338 L3.12309375,56.2443338 C2.45896875,56.9216672 2.45896875,58.0203338 3.12309375,58.6976672 C3.78984375,59.3723338 4.87134375,59.3723338 5.53546875,58.6950005 L12.8119687,51.3030005 C14.1979687,51.7936672 15.7992187,51.4923338 16.9069687,50.3696672 L18.0094687,49.2470005 L18.5817187,49.8283338 C20.2695937,51.5430005 23.0179687,51.5430005 24.7084687,49.8283338 L48.7613437,25.3910005 L50.1657187,26.8176672 C50.8324687,27.4950005 51.9113437,27.4950005 52.5780937,26.8176672 C53.2448437,26.1403338 53.2448437,25.0443338 52.5780937,24.3670005 L47.8819687,19.5963338 C47.8924687,19.5830005 47.9082187,19.5803338 47.9187187,19.5696672 L53.7514687,13.6443338 L55.3658437,15.2870005 C56.0325937,15.9643338 57.1140937,15.9643338 57.7782187,15.2870005 C58.4449687,14.6123338 58.4449687,13.5136672 57.7782187,12.8363338 L48.2678437,3.17233383 C47.6010937,2.49766716 46.5195937,2.49766716 45.8528437,3.17500049 C45.1887187,3.84966716 45.1887187,4.94833383 45.8528437,5.62300049 L47.1233437,6.91100049 L41.2905937,12.8363338 C41.2800937,12.8470005 41.2774687,12.8630005 41.2643437,12.8763338 L36.9173437,8.45766716 C36.2505937,7.78033383 35.1717187,7.78033383 34.5049687,8.45500049 C33.8382187,9.13233383 33.8382187,10.2310005 34.5049687,10.9083338 Z" id="path-1"></path>
        <path d="M60.0371,25.4660412 C60.1051,25.5741702 60.1891,25.6542657 60.2491,25.7824186 C60.9491,27.2361529 60.9131,29.4828333 60.1571,31.6454133 C59.3411,33.9721892 57.9651,35.4779856 56.6891,36.1387739 C58.1891,32.5785265 59.2731,28.9061453 60.0371,25.4660412 M16.2811,31.6454133 C15.6931,29.9674114 15.5331,28.1972996 15.8491,26.7956274 C15.9331,26.4151735 16.0931,26.1428486 16.2371,25.846495 C16.9771,29.1103889 18.0051,32.5625074 19.4051,35.9265207 C18.2291,35.1736225 17.0211,33.7559312 16.2811,31.6454133 M61.4891,63.1309762 C58.1811,62.682441 55.7171,61.3408405 53.9611,59.0180694 C50.0971,53.9159825 51.1611,45.8823983 51.1731,45.8023027 C51.1891,45.706188 51.1571,45.6140782 51.1571,45.5139587 C52.6771,43.6917848 53.9731,41.6573577 55.0971,39.5148016 C55.2171,39.5228112 55.3291,39.5748733 55.4531,39.5748733 C58.4131,39.5748733 61.5171,36.8275957 62.9891,32.6426029 C64.0171,29.7111056 64.0011,26.6594649 62.9531,24.476861 C62.4331,23.3875615 61.6291,22.6546872 60.7051,22.1500852 C61.7851,16.1028707 61.9491,11.4252903 61.9611,10.8926548 C61.9851,9.78333138 61.1131,8.86623727 60.0091,8.8422086 C58.7251,8.75009871 57.9891,9.69122149 57.9611,10.7925354 C57.9531,11.140951 56.8971,45.165543 38.0931,49.2624307 C19.3131,45.1695478 18.2331,11.140951 18.2251,10.7925354 C18.2011,9.69122149 17.4291,8.86223249 16.1771,8.8422086 C15.0731,8.86623727 14.2011,9.78333138 14.2251,10.8926548 C14.2411,11.4252903 14.4051,16.1389137 15.4931,22.2181664 C14.2371,22.9910885 13.3211,24.3286843 12.9171,26.1388438 C12.4811,28.1051897 12.6691,30.4119417 13.4491,32.6426029 C14.9211,36.8275957 18.0291,39.5748733 20.9891,39.5748733 C21.0331,39.5748733 21.0691,39.5548494 21.1131,39.5548494 C22.2651,41.7534724 23.6091,43.8279473 25.1851,45.6861642 C25.1891,45.7262119 25.1731,45.7622549 25.1771,45.8063075 C25.1891,45.886403 26.2771,53.8719299 22.4011,59.006055 C20.6451,61.3328309 18.1811,62.682441 14.8651,63.1309762 C13.7691,63.2791529 13.0011,64.2883569 13.1491,65.385666 C13.2851,66.3908653 14.1451,67.1197348 15.1291,67.1197348 C15.2171,67.1197348 15.3091,67.1117253 15.4011,67.0997109 C19.7651,66.5110086 23.1931,64.5967248 25.5931,61.420936 C28.4451,57.6404258 29.1731,52.9107833 29.2891,49.526746 C31.6211,51.2528053 34.2851,52.5703772 37.3931,53.2191512 C37.4131,53.2271607 37.4371,53.2311655 37.4571,53.239175 C37.5451,53.2551942 37.6211,53.2952419 37.7131,53.3152658 C37.8371,53.3352897 37.9611,53.347304 38.0851,53.347304 C38.0891,53.347304 38.0891,53.347304 38.0891,53.347304 L38.0931,53.347304 C38.0971,53.347304 38.0971,53.347304 38.0971,53.347304 C38.2211,53.347304 38.3451,53.3352897 38.4691,53.3152658 C38.5611,53.2952419 38.6371,53.2551942 38.7251,53.239175 C38.7491,53.2311655 38.7691,53.2271607 38.7891,53.2191512 C41.9731,52.554358 44.6851,51.1887288 47.0531,49.4025979 C47.1571,52.7866352 47.8731,57.5923685 50.7611,61.420936 C53.1571,64.5967248 56.5891,66.5110086 60.9531,67.0997109 C61.0411,67.1117253 61.1331,67.1197348 61.2211,67.1197348 C62.2091,67.1197348 63.0651,66.3908653 63.2051,65.385666 C63.3531,64.2883569 62.5851,63.2791529 61.4891,63.1309762" id="path-3"></path>
    </defs>
    <g id="Page-1" stroke="none" stroke-width="1" fill="none" fill-rule="evenodd">
        <g id="iPhone-8-Copy-16" transform="translate(-177.000000, -2795.000000)">
            <g id="Group-4" transform="translate(165.000000, 2787.000000)">
                <g id="-round/ver1/syringe" transform="translate(82.500000, 56.000000) scale(1, -1) rotate(45.000000) translate(-82.500000, -56.000000) translate(51.000000, 24.000000)">
                    <mask id="mask-2" fill="white">
                        <use xlink:href="#path-1"></use>
                    </mask>
                    <use id="Mask" fill="#00A0E8" fill-rule="evenodd" xlink:href="#path-1"></use>
                    <g id="swatch/dark-brown1" mask="url(#mask-2)" fill="#6C573A" fill-rule="evenodd">
                        <rect id="Rectangle" x="0" y="0" width="66" height="64"></rect>
                    </g>
                </g>
                <g id="-round/ver1/face3" opacity="0.5">
                    <mask id="mask-4" fill="white">
                        <use xlink:href="#path-3"></use>
                    </mask>
                    <use id="Fill-1" fill="#613627" fill-rule="evenodd" xlink:href="#path-3"></use>
                    <g id="swatch/dark-brown1" mask="url(#mask-4)" fill="#6C573A" fill-rule="evenodd">
                        <rect id="Rectangle" x="0" y="0" width="78" height="76"></rect>
                    </g>
                </g>
            </g>
        </g>
    </g>
</svg>