<?xml version="1.0" encoding="utf-8"?>
<!-- Generator: Adobe Illustrator 20.0.0, SVG Export Plug-In . SVG Version: 6.00 Build 0)  -->
<svg version="1.1" id="레이어_1" xmlns="http://www.w3.org/2000/svg" xmlns:xlink="http://www.w3.org/1999/xlink" x="0px"
	 y="0px" viewBox="0 0 225 234" style="enable-background:new 0 0 225 234;" xml:space="preserve">
<style type="text/css">
	.st0{fill:#FFCF7F;}
	.st1{font-family:'NotoSansCJKkr-Light-KSCpc-EUC-H';}
	.st2{font-size:22px;}
	.st3{font-family:'NotoSansCJKkr-Bold-KSCpc-EUC-H';}
</style>
<title>Group 7</title>
<desc>Created with Sketch.</desc>
<g id="Page-1">
	<g id="_x2B_트임성형_x5F_뒷트임" transform="translate(-370.000000, -2185.000000)">
		<g id="Group-7" transform="translate(370.000000, 2185.000000)">
			<path id="Fill-1" class="st0" d="M96.5,213c2.8-11.7-5.9-23.1-17.5-23c6.8,3.6-2.7,17,14.8,22.3c-1.7-6.3-4.5-11.4-7.5-16.2
				C91,200.7,94.4,206.3,96.5,213 M78.4,207c4.7-10.4-1.4-22.8-12.4-25c5.8,4.7-5.6,15.4,10,23.8c-0.5-6.3-2.2-11.6-4.1-16.7
				C75.4,194.4,77.6,200.3,78.4,207 M61.7,198c6.6-9,2.9-21.9-7.6-26c4.9,5.6-8.4,13.5,5.4,24.4c0.7-6,0-11.4-1-16.6
				C61.1,185.5,62.2,191.5,61.7,198 M47.9,186c7.7-7.3,6.6-20.2-2.3-26c3.4,6.1-10.1,11.3,0.6,24.1c1.7-5.6,2.1-10.8,2.1-15.9
				C49.6,174,49.5,180,47.9,186 M36.7,173c8.6-5.4,9.9-17.8,2.6-25c2.1,6.5-11.6,8.8-3.9,22.9c2.6-5,3.9-9.8,4.9-14.6
				C40.5,162,39.3,167.6,36.7,173 M29.4,158c9.5-4,12.7-15.9,6.4-24c1.2,6.6-13.1,6.8-7.3,21.8c3.4-4.4,5.4-9,7.1-13.5
				C34.8,147.9,32.8,153.1,29.4,158 M24.1,143c9.2-2.5,13.7-13.4,9.1-22c0.2,6.5-12.8,4.6-9.7,19.7c3.7-3.8,6.2-7.8,8.4-11.9
				C30.5,134.1,27.9,138.8,24.1,143 M21.3,127c9.2-0.9,15-10.4,11.9-19c-0.8,6-13,2.4-12.1,16.8c4.1-2.9,7-6.3,9.7-9.8
				C28.7,119.7,25.5,123.7,21.3,127 M22,113c8.6,0.4,15.4-8,13.7-17c-1.6,5.8-12.4,0.4-13.6,14.8c4.2-2.3,7.4-5.2,10.4-8.2
				C29.9,106.9,26.4,110.4,22,113 M24,97.7c8.5,1.7,16.4-5.1,16-13.7c-2.4,5.2-12.3-1.5-15.6,11.7c4.5-1.5,8.1-3.7,11.4-6.1
				C32.7,93.3,28.8,96,24,97.7 M28,84.3C35.8,87,44.2,81.9,45,74c-3,4.4-11.4-3-16.3,8.5c4.4-0.7,8.1-2.2,11.6-3.9
				C36.8,81.4,32.7,83.3,28,84.3 M34,71.6c6.7,3.7,15.1-0.1,17-7.6c-3.3,3.8-10-4.5-16.1,6c4.2-0.1,7.8-1.1,11.2-2.2
				C42.5,70,38.5,71.3,34,71.6 M42,60.7c5.8,4.5,14.2,2.1,17-4.9c-3.7,3.2-8.8-5.7-16,3.5c3.9,0.5,7.4,0.1,10.8-0.5
				C50.2,60.4,46.2,61.1,42,60.7 M51,51.4c5.3,4.5,13.7,3.1,17-2.8c-3.9,2.5-8-5.8-15.9,1.6c3.8,0.8,7.2,0.7,10.6,0.5
				C59,51.8,55.1,52.1,51,51.4 M61,43.3c4.2,5.1,12.1,4.9,16-0.5c-3.9,1.9-6.5-6.8-14.8-0.5c3.4,1.3,6.5,1.7,9.6,1.9
				C68.3,44.8,64.6,44.6,61,43.3 M71,36.6c3.4,5.4,10.9,5.9,15,1.1c-3.8,1.5-5.5-7.3-13.8-2c3,1.6,5.9,2.3,8.8,2.8
				C77.6,38.8,74.3,38.2,71,36.6 M72.2,32c-3.3-6.5,0.5-14.4,7.8-16c-3.8,3.1,4,9.6-6.2,15.2c0.2-4,1.2-7.4,2.5-10.6
				C74,24,72.6,27.8,72.2,32 M61.7,38c-3.9-6.3-0.9-14.7,6.1-17c-3.4,3.5,4.9,9.4-4.6,16c-0.2-4,0.5-7.6,1.4-11
				C62.7,29.7,61.7,33.7,61.7,38 M51.8,46c-4.9-6-3.1-15.5,3.7-19c-3,4.2,6.4,9.2-2.3,17.8c-0.8-4.3-0.6-8.1-0.2-11.9
				C51.5,37,51.1,41.4,51.8,46 M42,55c-6.2-5.7-5.1-15.6,2.2-20c-2.9,4.7,8.2,8.8-0.8,18.6c-1.3-4.3-1.6-8.3-1.5-12.3
				C40.8,45.8,40.8,50.3,42,55 M33.4,66c-6.8-5.3-7.3-16.2-0.8-22c-2.1,5.5,9.2,8.3,2,20.2c-1.9-4.5-2.7-8.8-3.3-13.1
				C30.8,56.2,31.5,61.1,33.4,66 M26.4,78c-7.9-4.2-9.9-15.1-4-22c-1.4,5.9,10.8,6.9,5,20.1c-2.7-4.2-4.1-8.4-5.3-12.6
				C22.3,68.5,23.7,73.4,26.4,78 M21.4,92C12,88.9,8,78,13.4,70c-0.6,6.3,13.1,5.4,8.7,19.8c-3.6-3.9-5.9-8-7.9-12.1
				C15.4,82.9,17.7,87.7,21.4,92 M18.4,107C8.8,105.2,3.3,94.3,7.3,85c0.4,6.7,13.5,3.7,11.5,19.6c-4.1-3.6-6.9-7.5-9.5-11.6
				C11.2,98.3,14.1,103,18.4,107 M17,122c-10.6-0.3-18.2-10.7-15.4-21c1.4,6.9,15.1,1.6,15.4,18.4c-4.9-3-8.6-6.7-12-10.5
				C7.8,114.2,11.8,118.6,17,122 M19,137.9C8.2,139.3-1.2,129.9,0.1,119c2.5,6.8,15.6-0.8,18.5,16.3c-5.5-2.3-9.8-5.4-13.9-8.7
				C8.5,131.4,13.2,135.2,19,137.9 M23,154.3c-10.7,3.1-21.6-4.9-22-16.3c3.6,6.6,15.7-3.3,21.2,13.7c-5.9-1.5-10.8-4-15.4-6.7
				C11.4,149.4,16.7,152.5,23,154.3 M30,170.4c-10.5,4.9-22.9-1.7-25-13.4c4.7,6.2,15.6-5.8,23.8,10.8c-6.3-0.6-11.6-2.4-16.8-4.5
				C17.3,167.1,23.3,169.5,30,170.4 M41,184.5c-9.7,7.1-23.6,3-28-8.4c6,5.3,14.7-9,26.3,6c-6.5,0.7-12.3-0.1-17.9-1.2
				C27.5,183.8,34,185,41,184.5 M54,197c-8.5,9-23.4,7.6-30-2.9c7.1,4.1,13.1-11.9,27.8,0.8c-6.5,2-12.5,2.4-18.4,2.4
				C40.2,199,47,198.9,54,197 M70,207.8c-6.8,10.9-22.2,12.4-31,3.1c8,2.8,11-14.8,28.4-4.7c-6.2,3.3-12.2,4.9-18.2,6.1
				C56.4,212.5,63.3,211.1,70,207.8 M127.5,213c-2.8-11.7,5.9-23.1,17.5-23c-6.8,3.6,2.7,17-14.8,22.3c1.7-6.3,4.5-11.4,7.5-16.2
				C133,200.7,129.6,206.3,127.5,213 M146.6,207c-4.7-10.4,1.4-22.8,12.4-25c-5.8,4.7,5.6,15.4-10,23.8c0.5-6.3,2.2-11.6,4.1-16.7
				C149.6,194.4,147.4,200.3,146.6,207 M162.3,198c-6.6-9-2.9-21.9,7.6-26c-4.9,5.6,8.4,13.5-5.4,24.4c-0.7-6,0-11.4,1-16.6
				C162.9,185.5,161.8,191.5,162.3,198 M176.1,186c-7.7-7.3-6.6-20.2,2.3-26c-3.4,6.1,10.1,11.3-0.6,24.1
				c-1.7-5.6-2.1-10.8-2.1-15.9C174.4,174,174.5,180,176.1,186 M187.3,173c-8.6-5.4-9.9-17.8-2.6-25c-2.1,6.5,11.6,8.8,3.9,22.9
				c-2.6-5-3.9-9.8-4.9-14.6C183.5,162,184.7,167.6,187.3,173 M195.6,158c-9.5-4-12.7-15.9-6.4-24c-1.2,6.6,13.1,6.8,7.3,21.8
				c-3.4-4.4-5.4-9-7.1-13.5C190.2,147.9,192.2,153.1,195.6,158 M199.9,143c-9.2-2.5-13.7-13.4-9.1-22c-0.2,6.5,12.8,4.6,9.7,19.7
				c-3.7-3.8-6.2-7.8-8.4-11.9C193.5,134.1,196.1,138.8,199.9,143 M202.7,127c-9.2-0.9-15-10.4-11.9-19c0.8,6,13,2.4,12.1,16.8
				c-4.1-2.9-7-6.3-9.7-9.8C195.3,119.7,198.5,123.7,202.7,127 M203,113c-8.6,0.4-15.4-8-13.7-17c1.6,5.8,12.4,0.4,13.6,14.8
				c-4.2-2.3-7.4-5.2-10.4-8.2C195.1,106.9,198.6,110.4,203,113 M201,97.7c-8.5,1.7-16.4-5.1-16-13.7c2.4,5.2,12.3-1.5,15.6,11.7
				c-4.5-1.5-8.1-3.7-11.4-6.1C192.3,93.3,196.2,96,201,97.7 M196,84.3c-7.8,2.7-16.2-2.4-17-10.3c3,4.4,11.4-3,16.3,8.5
				c-4.4-0.7-8.1-2.2-11.6-3.9C187.2,81.4,191.3,83.3,196,84.3 M190,71.6c-6.7,3.7-15.1-0.1-17-7.6c3.3,3.8,10-4.5,16.1,6
				c-4.2-0.1-7.8-1.1-11.2-2.2C181.5,70,185.5,71.3,190,71.6 M183,60.7c-5.8,4.5-14.2,2.1-17-4.9c3.7,3.2,8.8-5.7,16,3.5
				c-3.9,0.5-7.4,0.1-10.8-0.5C174.8,60.4,178.8,61.1,183,60.7 M174,51.4c-5.3,4.5-13.7,3.1-17-2.8c3.8,2.5,8-5.8,15.9,1.6
				c-3.8,0.8-7.2,0.7-10.6,0.5C166,51.8,169.9,52.1,174,51.4 M164,43.3c-4.2,5.1-12.1,4.9-16-0.5c3.9,1.9,6.5-6.8,14.8-0.5
				c-3.4,1.3-6.5,1.7-9.7,1.9C156.7,44.8,160.4,44.6,164,43.3 M153,36.6c-3.4,5.4-10.9,5.9-15,1.1c3.8,1.5,5.5-7.3,13.8-2
				c-3,1.6-5.9,2.3-8.8,2.8C146.4,38.8,149.7,38.2,153,36.6 M102.5,234c3-4.4,6.3-7.8,9.5-10.3c3.2,2.5,6.5,5.9,9.5,10.3
				c1-2.2,1.3-4.3,0.8-6.3c-2.2-2.6-4.6-4.6-7.1-6.3c5.8-3.7,11.3-5.1,15-5.9c43.3-9.6,75.7-48.4,75.7-94.9
				c0-38.6-22.3-71.9-54.7-87.6c31.1,16.1,52.4,48.7,52.4,86.3c0,45.6-31.3,83.9-73.5,94.2c-4.3,1-11.2,2.1-18.2,5.9
				c-7-3.8-13.9-4.9-18.2-5.9c-42.2-10.3-73.5-48.6-73.5-94.2c0-37.6,21.3-70.2,52.4-86.3C40.3,48.7,18,82,18,120.6
				c0,46.5,32.4,85.3,75.7,94.9c3.7,0.8,9.2,2.2,15,5.9c-2.4,1.7-4.8,3.7-7.1,6.3C101.2,229.7,101.5,231.8,102.5,234 M151.8,32
				c3.3-6.5-0.5-14.4-7.8-16c3.8,3.1-4,9.6,6.2,15.2c-0.2-4-1.2-7.4-2.5-10.6C150,24,151.4,27.8,151.8,32 M162.3,38
				c3.9-6.3,0.9-14.7-6.1-17c3.4,3.5-4.9,9.4,4.6,16c0.2-4-0.5-7.6-1.4-11C161.3,29.7,162.3,33.7,162.3,38 M173.2,46
				c5-6,3.1-15.5-3.7-19c3,4.2-6.4,9.2,2.3,17.8c0.8-4.3,0.6-8.1,0.2-11.9C173.5,37,173.9,41.4,173.2,46 M183,55
				c6.2-5.7,5.1-15.6-2.2-20c2.9,4.7-8.2,8.8,0.8,18.6c1.3-4.3,1.6-8.3,1.5-12.3C184.2,45.8,184.2,50.3,183,55 M190.6,66
				c6.8-5.3,7.3-16.2,0.8-22c2.1,5.5-9.2,8.3-2,20.2c1.9-4.5,2.7-8.8,3.3-13.1C193.2,56.2,192.5,61.1,190.6,66 M197.6,78
				c7.9-4.2,9.9-15.1,4-22c1.4,5.9-10.9,6.9-5,20.1c2.6-4.2,4.1-8.4,5.3-12.6C201.7,68.5,200.3,73.4,197.6,78 M202.6,92
				c9.4-3.1,13.4-14,8-22c0.6,6.3-13.1,5.4-8.7,19.8c3.6-3.9,5.9-8,7.9-12.1C208.6,82.9,206.3,87.7,202.6,92 M206.6,107
				c9.6-1.8,15.1-12.7,11.1-22c-0.4,6.7-13.5,3.7-11.5,19.6c4.1-3.6,6.9-7.5,9.5-11.6C213.8,98.3,210.9,103,206.6,107 M207,122
				c10.6-0.3,18.2-10.7,15.4-21c-1.4,6.9-15.1,1.6-15.4,18.4c4.9-3,8.6-6.7,12-10.5C216.2,114.2,212.2,118.6,207,122 M206,137.9
				c10.8,1.4,20.2-7.9,18.9-18.9c-2.5,6.8-15.6-0.8-18.5,16.3c5.5-2.3,9.8-5.4,13.8-8.7C216.5,131.4,211.8,135.2,206,137.9
				 M201,154.3c10.7,3.1,21.6-4.9,22-16.3c-3.6,6.6-15.7-3.3-21.2,13.7c5.9-1.5,10.8-4,15.4-6.7C212.6,149.4,207.3,152.5,201,154.3
				 M194,170.4c10.5,4.9,22.9-1.7,25-13.4c-4.7,6.2-15.6-5.8-23.8,10.8c6.3-0.6,11.6-2.4,16.7-4.5
				C206.7,167.1,200.7,169.5,194,170.4 M184,184.5c9.7,7.1,23.6,3,28-8.4c-6,5.3-14.7-9-26.3,6c6.5,0.7,12.3-0.1,17.9-1.2
				C197.5,183.8,191,185,184,184.5 M171,197c8.5,9,23.4,7.6,30-2.9c-7.1,4.1-13.1-11.9-27.8,0.8c6.5,2,12.5,2.4,18.4,2.4
				C184.8,199,178,198.9,171,197 M154,207.8c6.8,10.9,22.2,12.4,31,3.1c-8,2.8-11-14.8-28.4-4.7c6.2,3.3,12.2,4.9,18.2,6.1
				C167.6,212.5,160.7,211.1,154,207.8 M136,214.6c4.8,12.7,20.2,17.4,31,9.5c-8.7,1.2-8.2-17.5-28-10.7c5.6,4.7,11.4,7.6,17.3,10
				C149,222.3,142.2,219.5,136,214.6 M89,214.6c-4.8,12.7-20.2,17.4-31,9.5c8.7,1.2,8.2-17.5,28-10.7c-5.6,4.7-11.4,7.6-17.3,10
				C76,222.3,82.8,219.5,89,214.6z M136.5,30.2H88.5c0,0-0.1,0-0.1,0c0.2-1.3,0.5-2.6,0.5-3.9c0-1.3-0.3-2.6-0.5-3.9
				c0,0,0.1,0,0.1,0h47.9c0,0,0.1,0,0.1,0c-0.2,1.3-0.5,2.6-0.5,3.9c0,1.3,0.3,2.6,0.5,3.9C136.5,30.2,136.5,30.2,136.5,30.2z
				 M136.5,21.9H88.5c-0.1,0-0.3,0-0.4-0.1c-0.1-0.1-0.2-0.2-0.2-0.3c0,0,0-0.1,0-0.1c0,0,0-0.1,0-0.1c0-0.1,0-0.3,0.1-0.4
				c0.1-0.1,0.2-0.2,0.3-0.2h48.1c0.1,0,0.3,0.1,0.3,0.2c0.1,0.1,0.1,0.2,0.1,0.4c0,0,0,0.1,0,0.1c0,0,0,0.1,0,0.1
				c0,0.1-0.1,0.2-0.2,0.3C136.7,21.9,136.6,21.9,136.5,21.9z M136.6,32H88.4c0,0-0.1,0-0.1,0c-0.1,0-0.2,0-0.2-0.1
				C88,31.8,88,31.8,88,31.7c0,0,0,0,0-0.1l0,0c0-0.1,0-0.1,0-0.2c0-0.1,0.1-0.3,0.2-0.4c0.1-0.1,0.2-0.2,0.4-0.2h47.9
				c0.1,0,0.3,0.1,0.4,0.2c0.1,0.1,0.2,0.2,0.2,0.4c0,0.1,0,0.1,0,0.2l0,0c0,0,0,0,0,0.1c0,0.1-0.1,0.2-0.1,0.2
				C136.8,32,136.7,32,136.6,32C136.6,32,136.6,32,136.6,32z M88.1,20l0-0.5c0-5.9-2.5-11-5.1-16.1c1.5,1,12.2,3.4,6.5,9.6
				c0.7,4.1,3.6,5.1,6.1,4.9c1.6-0.4,3.4-1.5,3-4c-4.6-2.5-0.4-5.9,0.3-6.8c0.8,0.7,5.7,3.1,1.8,6.5c0.2,2.5,2.3,3.2,3.9,3.2
				c2.7-0.3,6.2-1.9,6-6.1c-7-4.9,0.5-9.6,1.7-10.9c1.2,1.3,8.7,6,1.7,10.9c-0.2,4.2,3.4,5.8,6,6.1c1.6,0,3.8-0.7,3.9-3.2
				c-3.9-3.5,1-5.9,1.8-6.5c0.7,0.9,4.9,4.3,0.3,6.8c-0.4,2.4,1.5,3.6,3,4c2.5,0.2,5.4-0.8,6.1-4.9c-5.7-6.3,5-8.7,6.5-9.6
				c-2.6,5.1-5.1,10.2-5.1,16.1l0,0.5c-0.1,0-0.2-0.1-0.3-0.1H88.4C88.3,20,88.2,20,88.1,20z"/>
			<text transform="matrix(1 0 0 1 52.0009 106)" class="st0 st1 st2">미국성형외과</text>
			<text transform="matrix(1 0 0 1 173.4406 106)" class="st0 st1 st2"> </text>
			<text transform="matrix(1 0 0 1 82.3609 136)" class="st0 st1 st2">학회지</text>
			<text transform="matrix(1 0 0 1 143.0808 136)" class="st0 st1 st2"> </text>
			<text transform="matrix(1 0 0 1 69.4579 166.044)" class="st0 st3 st2">논문 등재</text>
			<path id="Fill-160" class="st0" d="M110.8,69.9c1-0.6,1.7-2.2,2.1-3.6c0.1-0.2,0.1-0.4,0.2-0.7c0.1,0.2,0.1,0.5,0.2,0.7
				c0.4,1.4,1.1,3,2.1,3.6c-1,0.6-1.7,2.2-2.1,3.6c-0.1,0.2-0.1,0.4-0.2,0.7c-0.1-0.2-0.1-0.5-0.2-0.7
				C112.5,72.1,111.8,70.6,110.8,69.9c-0.2,0-0.4,0.1-0.5,0.1c-1.1,0.3-2.3,0.9-2.8,1.8c-0.5-0.9-1.7-1.4-2.8-1.8
				c-0.2-0.1-0.3-0.1-0.5-0.1c0.2,0,0.4-0.1,0.5-0.1c1.1-0.3,2.3-0.9,2.8-1.8c0.5,0.9,1.7,1.4,2.8,1.8
				C110.4,69.9,110.6,69.9,110.8,69.9L110.8,69.9z M97.5,68.4c1,0.7,3.4,1.2,5.6,1.5c0.3,0,0.7,0.1,1,0.1c-0.4,0-0.7,0.1-1,0.1
				c-2.2,0.3-4.6,0.7-5.6,1.5c-7-0.8-25.7-1.3-41.9-1.6C71.8,69.7,90.5,69.2,97.5,68.4z M118.6,68c0.5,0.9,1.7,1.4,2.8,1.8
				c0.2,0.1,0.3,0.1,0.5,0.1c-0.2,0-0.4,0.1-0.5,0.1c-1.1,0.3-2.3,0.9-2.8,1.8c-0.5-0.9-1.7-1.4-2.8-1.8c-0.2-0.1-0.3-0.1-0.5-0.1
				c0.2,0,0.4-0.1,0.5-0.1C117,69.5,118.2,68.9,118.6,68z M128.6,68.4c7,0.8,25.7,1.3,41.9,1.6c-16.1,0.3-34.9,0.8-41.9,1.6
				c-1-0.7-3.4-1.2-5.6-1.5c-0.3,0-0.7-0.1-1-0.1c0.4,0,0.7-0.1,1-0.1C125.2,69.6,127.6,69.1,128.6,68.4z M114.2,69.9
				c-0.5-0.6-0.9-1.3-1.2-2.1c-0.3,0.8-0.7,1.5-1.2,2.1c0.5,0.6,0.9,1.3,1.2,2.1C113.3,71.3,113.7,70.5,114.2,69.9z"/>
		</g>
	</g>
</g>
</svg>
