<?xml version="1.0" encoding="UTF-8"?>
<svg width="292px" height="197px" viewBox="0 0 292 197" version="1.1" xmlns="http://www.w3.org/2000/svg" xmlns:xlink="http://www.w3.org/1999/xlink">
    <!-- Generator: Sketch 52.4 (67378) - http://www.bohemiancoding.com/sketch -->
    <title>Group 4</title>
    <desc>Created with Sketch.</desc>
    <defs>
        <path d="M25.2479211,22.1675974 C25.2479211,22.4819654 24.9920286,22.7378579 24.6776607,22.7378579 L2.90180817,22.7378579 C2.58694044,22.7378579 2.33104793,22.4819654 2.33104793,22.1675974 L2.33104793,12.5801249 C2.33104793,12.2657569 2.58694044,12.0093646 2.90180817,12.0093646 L24.6776607,12.0093646 C24.9920286,12.0093646 25.2479211,12.2657569 25.2479211,12.5801249 L25.2479211,22.1675974 Z M6.29038472,10.4275291 L21.2890841,10.4275291 L21.2890841,5.65803267 L6.29038472,5.65803267 L6.29038472,10.4275291 Z M24.6776607,10.5099945 L22.7884543,10.5099945 L22.7884543,4.9083476 C22.7884543,4.49452144 22.4525954,4.15866252 22.0387692,4.15866252 L5.54069964,4.15866252 C5.12687348,4.15866252 4.79101456,4.49452144 4.79101456,4.9083476 L4.79101456,10.5099945 L2.90180817,10.5099945 C1.76078749,10.5099945 0.831677782,11.4386044 0.831677782,12.5801249 L0.831677782,22.1675974 C0.831677782,23.3086181 1.76078749,24.237228 2.90180817,24.237228 L24.6776607,24.237228 C25.8191812,24.237228 26.7472913,23.3086181 26.7472913,22.1675974 L26.7472913,12.5801249 C26.7472913,11.4386044 25.8191812,10.5099945 24.6776607,10.5099945 Z" id="path-1"></path>
        <path d="M16.9315637,21.7633885 L21.8282044,21.7633885 L21.8282044,5.9031739 L16.9315637,5.9031739 L16.9315637,21.7633885 Z M11.3686284,23.4769815 C8.52959408,23.4769815 7.09296871,22.872184 6.98800767,22.5549889 L6.83542113,7.14698537 C7.96502389,7.69028592 9.60602274,7.94829588 11.179976,7.94829588 C12.7641017,7.94829588 14.4143482,7.68704924 15.5444133,7.13635055 L15.5444133,22.2914304 C15.5444133,22.5961411 14.1087127,23.4769815 11.3686284,23.4769815 Z M11.179976,4.18911847 C13.8710476,4.18911847 15.3650086,4.95713737 15.5518115,5.30716164 C15.5490372,5.32981843 15.5444133,5.35201284 15.5444133,5.37559439 L15.5444133,5.45327481 C15.3372656,5.80746053 13.8479285,6.56114555 11.179976,6.56114555 C8.52219594,6.56114555 7.03378363,5.81300913 6.81785056,5.45697388 L6.81692579,5.29606444 C7.02777265,4.94095395 8.51664734,4.18911847 11.179976,4.18911847 Z M22.5217795,4.51602357 C22.904633,4.51602357 23.2153547,4.82674524 23.2153547,5.20959873 L23.2153547,22.4569636 C23.2153547,22.8398171 22.904633,23.1505388 22.5217795,23.1505388 L16.6587574,23.1505388 C15.8907385,24.2787544 13.6181239,24.8641319 11.3686284,24.8641319 C10.0156945,24.8641319 5.60131971,24.699061 5.60131971,22.5720971 L5.59438396,22.3085386 L5.43301214,5.67845555 C5.41266727,5.58043026 5.4006453,5.48009305 5.4006453,5.37559439 C5.4006453,3.60697771 8.39642764,2.80196813 11.179976,2.80196813 C13.4636878,2.80196813 15.8870395,3.34526868 16.6851133,4.51602357 L22.5217795,4.51602357 Z M12.3413445,5.37540944 C12.3413445,5.10029129 11.8216255,4.87788485 11.1798373,4.87788485 C10.5389738,4.87788485 10.0197172,5.10029129 10.0197172,5.37540944 C10.0197172,5.65052759 10.5389738,5.87293403 11.1798373,5.87293403 C11.8216255,5.87293403 12.3413445,5.65052759 12.3413445,5.37540944 Z" id="path-3"></path>
        <path d="M14.3896667,25.1695765 C10.0416097,25.1695765 6.50455926,20.3329847 6.50455926,14.3885 C6.50455926,8.44401533 10.0416097,3.60742349 14.3896667,3.60742349 C18.7377236,3.60742349 22.2747741,8.44401533 22.2747741,14.3885 C22.2747741,20.3329847 18.7377236,25.1695765 14.3896667,25.1695765 M14.3896667,2.15919756 C9.24315448,2.15919756 5.05633333,7.64507736 5.05633333,14.3885 C5.05633333,21.1319226 9.24315448,26.6178024 14.3896667,26.6178024 C19.5361789,26.6178024 23.723,21.1319226 23.723,14.3885 C23.723,7.64507736 19.5361789,2.15919756 14.3896667,2.15919756 M10.5682812,13.6648698 C9.5216966,13.6648698 8.6373133,13.0749591 8.6373133,12.3773969 C8.6373133,11.6798348 9.5216966,11.0899241 10.5682812,11.0899241 C11.6148658,11.0899241 12.4992491,11.6798348 12.4992491,12.3773969 C12.4992491,13.0749591 11.6148658,13.6648698 10.5682812,13.6648698 M13.464733,12.3773969 C13.464733,11.1353018 12.1656744,10.1244401 10.5682812,10.1244401 C8.970888,10.1244401 7.67182935,11.1353018 7.67182935,12.3773969 C7.67182935,13.619492 8.970888,14.6303537 10.5682812,14.6303537 C12.1656744,14.6303537 13.464733,13.619492 13.464733,12.3773969 M20.1425028,12.3773969 C20.1425028,13.0749591 19.2581195,13.6648698 18.2115349,13.6648698 C17.1649503,13.6648698 16.280567,13.0749591 16.280567,12.3773969 C16.280567,11.6798348 17.1649503,11.0899241 18.2115349,11.0899241 C19.2581195,11.0899241 20.1425028,11.6798348 20.1425028,12.3773969 M15.315083,12.3773969 C15.315083,13.619492 16.6141417,14.6303537 18.2115349,14.6303537 C19.8089281,14.6303537 21.1079867,13.619492 21.1079867,12.3773969 C21.1079867,11.1353018 19.8089281,10.1244401 18.2115349,10.1244401 C16.6141417,10.1244401 15.315083,11.1353018 15.315083,12.3773969 M14.3896667,22.0317537 C13.1002629,22.0317537 12.1371926,21.4794969 12.1371926,20.9861346 C12.1371926,20.4927723 13.1002629,19.9405154 14.3896667,19.9405154 C15.6790705,19.9405154 16.6421407,20.4927723 16.6421407,20.9861346 C16.6421407,21.4794969 15.6790705,22.0317537 14.3896667,22.0317537 M14.3896667,18.9750315 C16.1941562,18.9750315 17.6076247,19.8584493 17.6076247,20.9861346 C17.6076247,22.1138198 16.1941562,22.9972376 14.3896667,22.9972376 C12.5851772,22.9972376 11.1717087,22.1138198 11.1717087,20.9861346 C11.1717087,19.8584493 12.5851772,18.9750315 14.3896667,18.9750315 Z M12.9801084,14.8373052 C13.109966,14.6046236 13.4034731,14.5211092 13.6366375,14.6509668 C13.8693191,14.7808244 13.9533162,15.0748143 13.8229759,15.3079786 C13.4184381,16.0340226 13.1143106,16.8768901 13.1369995,17.1829485 L15.6419476,17.1843967 C15.665602,16.8797865 15.3619573,16.0349881 14.956454,15.3079786 C14.8261137,15.0748143 14.9101108,14.7808244 15.1423097,14.6509668 C15.3754741,14.521592 15.6694639,14.6046236 15.7993215,14.8373052 C16.1459302,15.4581114 16.9043179,16.9826105 16.4655054,17.7298951 C16.3733017,17.8867863 16.1488267,18.1498806 15.6796015,18.1498806 L13.0998284,18.1498806 C12.6301204,18.1498806 12.4061282,17.8867863 12.3139245,17.7298951 C11.875112,16.9826105 12.6334996,15.4581114 12.9801084,14.8373052 Z" id="path-5"></path>
        <path d="M13.4494243,14.12166 L14.645491,14.12166 L14.645491,12.38566 L16.570491,12.38566 L16.570491,11.1895933 L14.645491,11.1895933 L14.645491,9.21186 L13.4494243,9.21186 L13.4494243,11.1895933 L11.660691,11.1895933 L11.660691,12.38566 L13.4494243,12.38566 L13.4494243,14.12166 Z M17.358691,22.0112667 L10.8827576,22.0112667 L9.61389096,2.56666667 L18.919691,2.56666667 L17.358691,22.0112667 Z M13.1045576,25.4333333 L15.1266243,25.4333333 L15.1266243,23.5666667 L13.1045576,23.5666667 L13.1045576,25.4333333 Z M20.192291,1.3916 C20.0597576,1.24833333 19.873091,1.16666667 19.6780243,1.16666667 L8.86675763,1.16666667 C8.67309096,1.16666667 8.48829096,1.24693333 8.35575763,1.38833333 C8.2232243,1.52926667 8.15555763,1.7192 8.16815763,1.9124 L9.52849096,22.757 C9.55229096,23.1252 9.85795763,23.4112667 10.2266243,23.4112667 L11.7045576,23.4112667 L11.7045576,26.1333333 C11.7045576,26.5197333 12.0181576,26.8333333 12.4045576,26.8333333 L15.8266243,26.8333333 C16.213491,26.8333333 16.5266243,26.5197333 16.5266243,26.1333333 L16.5266243,23.4112667 L18.0045576,23.4112667 C18.369491,23.4112667 18.673291,23.1308 18.7022243,22.7672667 L20.375691,1.92266667 C20.3915576,1.72806667 20.3248243,1.53533333 20.192291,1.3916 Z" id="path-7"></path>
        <path d="M10.5002414,25.21796 C10.1116341,25.21796 9.66461501,23.6187404 9.61489259,22.0771358 C9.61489259,21.532755 10.0121892,21.0901427 10.5002414,21.0901427 C10.9882935,21.0901427 11.3851074,21.532755 11.3851074,22.0582898 C11.3542119,23.4895106 10.9520879,25.21796 10.5002414,25.21796 M10.5002414,2.78203999 C10.9520879,2.78203999 11.3542119,4.51048944 11.3851074,5.92286418 C11.3851074,6.46724498 10.9882935,6.90985727 10.5002414,6.90985727 C10.0121892,6.90985727 9.61489259,6.46724498 9.61440985,5.95086398 C9.66461501,4.38125957 10.1116341,2.78203999 10.5002414,2.78203999 M11.2113203,19.6115377 C11.2185614,19.5668457 11.2238716,19.5210768 11.2238716,19.4742309 L11.2238716,8.38415466 C12.1550809,8.04169551 12.8333333,7.07085615 12.8333333,5.90455661 C12.8169201,5.11356214 12.6286507,1.16666667 10.5002414,1.16666667 C8.41720975,1.16666667 8.19128651,5.10548528 8.16666667,5.92286418 C8.16666667,7.07408689 8.84491914,8.04169551 9.77564567,8.3836162 L9.77564567,19.4742309 C9.77564567,19.5216152 9.78095583,19.5668457 9.78819696,19.6120761 C8.85071204,19.9507661 8.16666667,20.9259131 8.16714941,22.1045972 C8.19128651,22.8945147 8.41720975,26.8333333 10.5002414,26.8333333 C12.6286507,26.8333333 12.8169201,22.8864379 12.8333333,22.0771358 C12.8333333,20.9205285 12.1488052,19.9491507 11.2113203,19.6115377 M17.5002414,25.21796 C17.1116341,25.21796 16.664615,23.6187404 16.6148926,22.0771358 C16.6148926,21.532755 17.0121892,21.0901427 17.5002414,21.0901427 C17.9882935,21.0901427 18.3851074,21.532755 18.3851074,22.0582898 C18.3542119,23.4895106 17.9520879,25.21796 17.5002414,25.21796 M17.5002414,2.78203999 C17.9520879,2.78203999 18.3542119,4.51048944 18.3851074,5.92286418 C18.3851074,6.46724498 17.9882935,6.90985727 17.5002414,6.90985727 C17.0121892,6.90985727 16.6148926,6.46724498 16.6144098,5.95086398 C16.664615,4.38125957 17.1116341,2.78203999 17.5002414,2.78203999 M18.2113203,19.6115377 C18.2185614,19.5668457 18.2238716,19.5210768 18.2238716,19.4742309 L18.2238716,8.38415466 C19.1550809,8.04169551 19.8333333,7.07085615 19.8333333,5.90455661 C19.8169201,5.11356214 19.6286507,1.16666667 17.5002414,1.16666667 C15.4172098,1.16666667 15.1912865,5.10548528 15.1666667,5.92286418 C15.1666667,7.07408689 15.8449191,8.04169551 16.7756457,8.3836162 L16.7756457,19.4742309 C16.7756457,19.5216152 16.7809558,19.5668457 16.788197,19.6120761 C15.850712,19.9507661 15.1666667,20.9259131 15.1671494,22.1045972 C15.1912865,22.8945147 15.4172098,26.8333333 17.5002414,26.8333333 C19.6286507,26.8333333 19.8169201,22.8864379 19.8333333,22.0771358 C19.8333333,20.9205285 19.1488052,19.9491507 18.2113203,19.6115377" id="path-9"></path>
    </defs>
    <g id="Page-1" stroke="none" stroke-width="1" fill="none" fill-rule="evenodd">
        <g id="iPhone-8-Copy-9" transform="translate(-14.000000, -7621.000000)">
            <g id="Group-4" transform="translate(15.000000, 7622.000000)">
                <polygon id="Polygon-Copy" stroke="#E1D7CF" fill-opacity="0.3" fill="#FFFFFF" points="48.5 0 97 28 97 84 48.5 112 -5.85573257e-13 84 -6.16534601e-13 28"></polygon>
                <polygon id="Polygon-Copy-3" stroke="#E1D7CF" fill-opacity="0.3" fill="#FFFFFF" points="241.5 0 290 28 290 84 241.5 112 193 84 193 28"></polygon>
                <polygon id="Polygon-Copy-2" stroke="#E1D7CF" fill-opacity="0.3" fill="#FFFFFF" points="145 0 193.5 28 193.5 84 145 112 96.5 84 96.5 28"></polygon>
                <polygon id="Polygon-Copy-4" stroke="#E1D7CF" fill-opacity="0.3" fill="#FFFFFF" points="97 84 145 111.75 145 167.25 97 195 49 167.25 49 111.75"></polygon>
                <polygon id="Polygon-Copy-5" stroke="#E1D7CF" fill-opacity="0.3" fill="#FFFFFF" points="193 84 241 111.75 241 167.25 193 195 145 167.25 145 111.75"></polygon>
                <text id="찜질-팩" font-family="NotoSansCJKkr-Bold, Noto Sans CJK KR" font-size="16" font-weight="bold" fill="#8D7047">
                    <tspan x="24.104" y="82">찜질 팩</tspan>
                </text>
                <text id="마스크-팩" font-family="NotoSansCJKkr-Bold, Noto Sans CJK KR" font-size="16" font-weight="bold" fill="#8D7047">
                    <tspan x="113.744" y="81">마스크 팩</tspan>
                </text>
                <text id="연고" font-family="NotoSansCJKkr-Bold, Noto Sans CJK KR" font-size="16" font-weight="bold" fill="#8D7047">
                    <tspan x="227.28" y="81">연고</tspan>
                </text>
                <text id="거즈" font-family="NotoSansCJKkr-Bold, Noto Sans CJK KR" font-size="16" font-weight="bold" fill="#8D7047">
                    <tspan x="82.28" y="164">거즈</tspan>
                </text>
                <text id="면봉" font-family="NotoSansCJKkr-Bold, Noto Sans CJK KR" font-size="16" font-weight="bold" fill="#8D7047">
                    <tspan x="178.28" y="164">면봉</tspan>
                </text>
                <g id="-round/ver1/gift/4" transform="translate(34.000000, 29.000000)">
                    <mask id="mask-2" fill="white">
                        <use xlink:href="#path-1"></use>
                    </mask>
                    <use id="Mask" fill="#58585B" fill-rule="evenodd" xlink:href="#path-1"></use>
                    <g id="swatch/dark-brown1" mask="url(#mask-2)" fill="#6C573A" fill-rule="evenodd">
                        <rect id="Rectangle" x="0" y="0" width="28" height="28"></rect>
                    </g>
                </g>
                <g id="-round/ver1/gift/2" transform="translate(83.000000, 113.000000)">
                    <mask id="mask-4" fill="white">
                        <use xlink:href="#path-3"></use>
                    </mask>
                    <use id="Mask" fill="#58585B" fill-rule="evenodd" xlink:href="#path-3"></use>
                    <g id="swatch/dark-brown1" mask="url(#mask-4)" fill="#6C573A" fill-rule="evenodd">
                        <rect id="Rectangle" x="0" y="0" width="28" height="28"></rect>
                    </g>
                </g>
                <g id="-round/ver1/gift/5" transform="translate(131.000000, 31.000000)">
                    <mask id="mask-6" fill="white">
                        <use xlink:href="#path-5"></use>
                    </mask>
                    <use id="Mask" fill="#58585B" fill-rule="evenodd" xlink:href="#path-5"></use>
                    <g id="swatch/dark-brown1" mask="url(#mask-6)" fill="#6C573A" fill-rule="evenodd">
                        <rect id="Rectangle" x="0" y="0" width="28" height="28"></rect>
                    </g>
                </g>
                <g id="-round/ver1/gift/1" transform="translate(228.000000, 31.000000)">
                    <mask id="mask-8" fill="white">
                        <use xlink:href="#path-7"></use>
                    </mask>
                    <use id="Mask" fill="#5B5B5B" fill-rule="evenodd" xlink:href="#path-7"></use>
                    <g id="swatch/dark-brown1" mask="url(#mask-8)" fill="#6C573A" fill-rule="evenodd">
                        <rect id="Rectangle" x="0" y="0" width="29" height="28"></rect>
                    </g>
                </g>
                <g id="-round/ver1/gift/3" transform="translate(179.000000, 113.000000)">
                    <mask id="mask-10" fill="white">
                        <use xlink:href="#path-9"></use>
                    </mask>
                    <use id="Mask" fill="#58585B" fill-rule="evenodd" xlink:href="#path-9"></use>
                    <g id="swatch/dark-brown1" mask="url(#mask-10)" fill="#6C573A" fill-rule="evenodd">
                        <rect id="Rectangle" x="0" y="0" width="28" height="28"></rect>
                    </g>
                </g>
            </g>
        </g>
    </g>
</svg>