<?xml version="1.0" encoding="UTF-8"?>
<svg width="320px" height="841px" viewBox="0 0 320 841" version="1.1" xmlns="http://www.w3.org/2000/svg" xmlns:xlink="http://www.w3.org/1999/xlink">
    <!-- Generator: Sketch 52.4 (67378) - http://www.bohemiancoding.com/sketch -->
    <title>Group 19</title>
    <desc>Created with Sketch.</desc>
    <defs>
        <path d="M750,147.010775 L751,147 L751,821 L1,821 L1,215 L0,215 L0,0 L13.3386776,0 C14.2405259,6.96795455 18.1423371,12.2159091 22.8313285,12.2159091 C27.52032,12.2159091 31.4221311,6.96795455 32.3208803,0 L45.3558427,0 C46.2545919,6.96795455 50.1595022,12.2159091 54.8453945,12.2159091 C59.5343859,12.2159091 63.4392962,6.96795455 64.3380454,0 L77.3761069,0 C78.271757,6.96795455 82.1766672,12.2159091 86.8625596,12.2159091 C91.551551,12.2159091 95.4564613,6.96795455 96.3521113,0 L109.390173,0 C110.285823,6.96795455 114.190733,12.2159091 118.876625,12.2159091 C123.565617,12.2159091 127.470527,6.96795455 128.366177,0 L141.404239,0 C142.299889,6.96795455 146.204799,12.2159091 150.890691,12.2159091 C155.576584,12.2159091 159.484593,6.96795455 160.380243,0 L173.418305,0 C174.317054,6.96795455 178.221964,12.2159091 182.907857,12.2159091 C187.596848,12.2159091 191.501758,6.96795455 192.400507,0 L205.432371,0 C206.33112,6.96795455 210.239129,12.2159091 214.921922,12.2159091 C219.610914,12.2159091 223.515824,6.96795455 224.414573,0 L237.452635,0 C238.348285,6.96795455 242.256294,12.2159091 246.939088,12.2159091 C251.628079,12.2159091 255.532989,6.96795455 256.428639,0 L269.466701,0 C270.362351,6.96795455 274.27036,12.2159091 278.956253,12.2159091 C283.642145,12.2159091 287.547055,6.96795455 288.442705,0 L301.477668,0 C302.376417,6.96795455 306.278228,12.2159091 310.970319,12.2159091 C315.650013,12.2159091 319.561121,6.96795455 320.456771,0 L333.494833,0 C334.393582,6.96795455 338.298492,12.2159091 342.987484,12.2159091 C347.673376,12.2159091 351.578286,6.96795455 352.477035,0 L365.508899,0 C366.407648,6.96795455 370.315657,12.2159091 375.00155,12.2159091 C379.687442,12.2159091 383.592352,6.96795455 384.491101,0 L397.522965,0 C398.421714,6.96795455 402.329723,12.2159091 407.015616,12.2159091 C411.704607,12.2159091 415.606418,6.96795455 416.505167,0 L429.543229,0 C430.438879,6.96795455 434.346888,12.2159091 439.032781,12.2159091 C443.721772,12.2159091 447.623583,6.96795455 448.519233,0 L461.557295,0 C462.452945,6.96795455 466.357855,12.2159091 471.046847,12.2159091 C475.732739,12.2159091 479.637649,6.96795455 480.533299,0 L493.571361,0 C494.47011,6.96795455 498.37502,12.2159091 503.060912,12.2159091 C507.749904,12.2159091 511.651715,6.96795455 512.550464,0 L525.588526,0 C526.487275,6.96795455 530.392185,12.2159091 535.078078,12.2159091 C539.767069,12.2159091 543.671979,6.96795455 544.570728,0 L557.602592,0 C558.501341,6.96795455 562.406251,12.2159091 567.092143,12.2159091 C571.781135,12.2159091 575.686045,6.96795455 576.584794,0 L589.619757,0 C590.515407,6.96795455 594.423416,12.2159091 599.106209,12.2159091 C603.795201,12.2159091 607.700111,6.96795455 608.59886,0 L621.636922,0 C622.532572,6.96795455 626.440581,12.2159091 631.123375,12.2159091 C635.812366,12.2159091 639.717276,6.96795455 640.612926,0 L653.650988,0 C654.546638,6.96795455 658.454647,12.2159091 663.13744,12.2159091 C667.826432,12.2159091 671.731342,6.96795455 672.626992,0 L685.665054,0 C686.563803,6.96795455 690.471812,12.2159091 695.154606,12.2159091 C699.843597,12.2159091 703.748507,6.96795455 704.647256,0 L717.67912,0 C718.577869,6.96795455 722.485878,12.2159091 727.168671,12.2159091 C731.857663,12.2159091 735.762573,6.96795455 736.661322,0 L750,0 L750,147.010775 Z" id="path-1"></path>
        <filter x="-2.0%" y="-1.8%" width="104.0%" height="103.7%" filterUnits="objectBoundingBox" id="filter-2">
            <feOffset dx="0" dy="0" in="SourceAlpha" result="shadowOffsetOuter1"></feOffset>
            <feGaussianBlur stdDeviation="5" in="shadowOffsetOuter1" result="shadowBlurOuter1"></feGaussianBlur>
            <feColorMatrix values="0 0 0 0 0   0 0 0 0 0   0 0 0 0 0  0 0 0 0.2 0" type="matrix" in="shadowBlurOuter1"></feColorMatrix>
        </filter>
    </defs>
    <g id="Page-1" stroke="none" stroke-width="1" fill="none" fill-rule="evenodd">
        <g id="iPhone-8-Copy-9" transform="translate(0.000000, -1802.000000)">
            <g id="Group-19" transform="translate(-216.000000, 1812.000000)">
                <g id="Rectangle-9">
                    <use fill="black" fill-opacity="1" filter="url(#filter-2)" xlink:href="#path-1"></use>
                    <use fill="#FFFFFF" fill-rule="evenodd" xlink:href="#path-1"></use>
                </g>
                <rect id="Rectangle-4" stroke="#E9E9E9" fill="#FFFFFF" x="231.5" y="203.5" width="289" height="75"></rect>
                <rect id="Rectangle-4-Copy-4" stroke="#E9E9E9" fill="#FFFFFF" x="231.5" y="715.5" width="289" height="75"></rect>
                <rect id="Rectangle-4-Copy-2" stroke="#E9E9E9" fill="#FFFFFF" x="231.5" y="473.5" width="289" height="75"></rect>
                <rect id="Rectangle-4-Copy" stroke="#E9E9E9" fill="#F8F8F8" x="231.5" y="338.5" width="289" height="75"></rect>
                <rect id="Rectangle-4-Copy-3" stroke="#E9E9E9" fill="#F8F8F8" x="231.5" y="608.5" width="289" height="47"></rect>
                <text id="눈-밑-주름이-심해-그늘져-보이는-경" font-family="NotoSansCJKkr-Bold, Noto Sans CJK KR" font-size="18" font-weight="bold" fill="#555555">
                    <tspan x="311.911" y="234">눈 밑 주름이 심해</tspan>
                    <tspan x="305.674" y="261">그늘져 보이는 경우</tspan>
                </text>
                <text id="눈가-리프팅-효과로-생기-있는-눈매를" font-family="NotoSansCJKkr-Bold, Noto Sans CJK KR" font-size="18" font-weight="bold" fill="#555555">
                    <tspan x="268.468" y="746">눈가 리프팅 효과로 생기 있는</tspan>
                    <tspan x="313.954" y="773">눈매를 원하는 분</tspan>
                </text>
                <text id="피부-처짐이-심해-나이가-들어보이는" font-family="NotoSansCJKkr-Bold, Noto Sans CJK KR" font-size="18" font-weight="bold" fill="#555555">
                    <tspan x="287.071" y="504">피부 처짐이 심해 나이가</tspan>
                    <tspan x="315.997" y="531">들어보이는 경우</tspan>
                </text>
                <text id="눈-밑-지방이-볼록해서-피곤해-보이는" font-family="NotoSansCJKkr-Bold, Noto Sans CJK KR" font-size="18" font-weight="bold" fill="#555555">
                    <tspan x="295.351" y="369">눈 밑 지방이 볼록해서</tspan>
                    <tspan x="305.674" y="396">피곤해 보이는 경우</tspan>
                </text>
                <text id="눈-밑이-푹-꺼져-없어-보이는-경우" font-family="NotoSansCJKkr-Bold, Noto Sans CJK KR" font-size="18" font-weight="bold" fill="#555555">
                    <tspan x="256.102" y="639">눈 밑이 푹 꺼져 없어 보이는 경우</tspan>
                </text>
                <g id="Group-2" transform="translate(231.000000, 50.000000)" fill="#8D7047" opacity="0.200000003">
                    <rect id="Rectangle-16" x="0" y="82" width="290" height="1"></rect>
                    <rect id="Rectangle-16-Copy-10" x="0" y="67" width="290" height="5"></rect>
                    <rect id="Rectangle-16-Copy-8" x="0" y="0" width="290" height="1"></rect>
                    <rect id="Rectangle-16-Copy-9" x="0" y="11" width="290" height="5"></rect>
                </g>
                <text id="하안검이-필요한-경우" font-family="NotoSansCJKkr-Bold, Noto Sans CJK KR" font-size="25" font-weight="bold" fill="#8D7047">
                    <tspan x="267" y="100">하안검</tspan>
                    <tspan x="336" y="100" font-family="NotoSansCJKkr-Thin, Noto Sans CJK KR" font-style="condensed" font-weight="300">이 필요한 경우</tspan>
                </text>
                <g id="Group-3" transform="translate(231.000000, 164.000000)">
                    <rect id="Rectangle-4" fill="#AE8B59" x="0" y="0" width="290" height="39"></rect>
                    <rect id="Rectangle-4" stroke="#FFFFFF" opacity="0.5" x="4.5" y="3.5" width="281" height="32"></rect>
                </g>
                <g id="Group-3-Copy-4" transform="translate(231.000000, 676.000000)">
                    <rect id="Rectangle-4" fill="#AE8B59" x="0" y="0" width="290" height="39"></rect>
                    <rect id="Rectangle-4" stroke="#FFFFFF" opacity="0.5" x="4.5" y="3.5" width="281" height="32"></rect>
                </g>
                <g id="Group-3-Copy-2" transform="translate(231.000000, 434.000000)">
                    <rect id="Rectangle-4" fill="#AE8B59" x="0" y="0" width="290" height="39"></rect>
                    <rect id="Rectangle-4" stroke="#FFFFFF" opacity="0.5" x="4.5" y="3.5" width="281" height="32"></rect>
                </g>
                <g id="Group-3-Copy" transform="translate(231.000000, 299.000000)">
                    <rect id="Rectangle-4" fill="#8D7047" x="0" y="0" width="290" height="39"></rect>
                    <rect id="Rectangle-4" stroke="#FFFFFF" opacity="0.5" x="4.5" y="3.5" width="281" height="32"></rect>
                </g>
                <g id="Group-3-Copy-3" transform="translate(231.000000, 569.000000)">
                    <rect id="Rectangle-4" fill="#8D7047" x="0" y="0" width="290" height="39"></rect>
                    <rect id="Rectangle-4" stroke="#FFFFFF" opacity="0.5" x="4.5" y="3.5" width="281" height="32"></rect>
                </g>
                <text id="01." font-family="Montserrat-Bold, Montserrat" font-size="20" font-weight="bold" fill="#FFFFFF">
                    <tspan x="362.48" y="191">01.</tspan>
                </text>
                <text id="05." font-family="Montserrat-Bold, Montserrat" font-size="20" font-weight="bold" fill="#FFFFFF">
                    <tspan x="360.27" y="703">05.</tspan>
                </text>
                <text id="03." font-family="Montserrat-Bold, Montserrat" font-size="20" font-weight="bold" fill="#FFFFFF">
                    <tspan x="360.49" y="461">03.</tspan>
                </text>
                <text id="02." font-family="Montserrat-Bold, Montserrat" font-size="20" font-weight="bold" fill="#FFFFFF">
                    <tspan x="361.47" y="326">02.</tspan>
                </text>
                <text id="04." font-family="Montserrat-Bold, Montserrat" font-size="20" font-weight="bold" fill="#FFFFFF">
                    <tspan x="360.45" y="596">04.</tspan>
                </text>
            </g>
        </g>
    </g>
</svg>