<?xml version="1.0" encoding="utf-8"?>
<!-- Generator: Adobe Illustrator 20.0.0, SVG Export Plug-In . SVG Version: 6.00 Build 0)  -->
<svg version="1.1" id="레이어_1" xmlns="http://www.w3.org/2000/svg" xmlns:xlink="http://www.w3.org/1999/xlink" x="0px"
	 y="0px" viewBox="0 0 21.7 13.6" style="enable-background:new 0 0 21.7 13.6;" xml:space="preserve">
<style type="text/css">
	.st0{fill:#8A6E46;}
</style>
<g id="Page-1">
	<g id="확장형-하안검-성형" transform="translate(-407.000000, -3723.000000)">
		<g id="_x2D_round_x2F_ver1_x2F_control_x2F_check" transform="translate(400.000000, 3713.000000)">
			<g id="Mask">
				<path id="path-1_1_" class="st0" d="M14.6,23.6c-1.2,0-2.3-0.5-3.2-1.3l-4.1-4.1c-0.4-0.4-0.4-1,0-1.4c0.4-0.4,1-0.4,1.4,0
					l4.1,4.1c0.5,0.5,1.1,0.7,1.8,0.7c0.7,0,1.3-0.3,1.8-0.7L27,10.3c0.4-0.4,1-0.4,1.4,0c0.4,0.4,0.4,1,0,1.4L17.8,22.3
					C16.9,23.1,15.8,23.6,14.6,23.6"/>
			</g>
		</g>
	</g>
</g>
</svg>
