<?xml version="1.0" encoding="UTF-8"?>
<svg width="291px" height="358px" viewBox="0 0 291 358" version="1.1" xmlns="http://www.w3.org/2000/svg" xmlns:xlink="http://www.w3.org/1999/xlink">
    <!-- Generator: Sketch 52.5 (67469) - http://www.bohemiancoding.com/sketch -->
    <title>Group 27</title>
    <desc>Created with Sketch.</desc>
    <defs>
        <linearGradient x1="50%" y1="50%" x2="21.8294098%" y2="20.5891495%" id="linearGradient-1">
            <stop stop-color="#8D7047" offset="0%"></stop>
            <stop stop-color="#BB9A6D" offset="100%"></stop>
        </linearGradient>
    </defs>
    <g id="Page-1" stroke="none" stroke-width="1" fill="none" fill-rule="evenodd">
        <g id="iPhone-8-Copy-9" transform="translate(-15.000000, -930.000000)">
            <g id="Group-27" transform="translate(4.000000, 930.000000)">
                <polygon id="Polygon-Copy-8" stroke="#97794F" fill="#FFFFFF" opacity="0.200000003" points="155.5 53 264 115.5 264 240.5 155.5 303 47 240.5 47 115.5"></polygon>
                <g id="Group-26">
                    <g id="Group-25">
                        <g id="1-copy" fill="url(#linearGradient-1)">
                            <polygon id="Polygon-2-Copy-3" points="84 0 156.746134 44.75 156.746134 134.25 84 179 11.2538661 134.25 11.2538661 44.75"></polygon>
                        </g>
                        <path d="M69.87,136.074 L69.87,134.184 L81.39,134.184 L81.39,139.566 L79.014,139.566 L79.014,136.074 L69.87,136.074 Z M72.48,126.642 L72.48,127.938 L78.942,127.938 L78.942,126.642 L72.48,126.642 Z M76.872,131.16 L83.208,131.16 L83.208,133.05 L68.214,133.05 L68.214,131.16 L74.496,131.16 L74.496,129.792 L70.122,129.792 L70.122,123.402 L72.48,123.402 L72.48,124.86 L78.942,124.86 L78.942,123.402 L81.3,123.402 L81.3,129.792 L76.872,129.792 L76.872,131.16 Z M85.962,128.676 L95.916,128.352 C95.97,127.596 95.97,126.894 95.97,126.246 L86.466,126.246 L86.466,124.356 L98.3100356,124.356 L98.31,125.814 C98.31,127.812 98.328,130.134 97.554,133.77 L95.214,133.482 C95.502,132.258 95.682,131.16 95.772,130.17 L86.268,130.674 L85.962,128.676 Z M92.46,135.714 L99.768,135.714 L99.768,137.64 L84.774,137.64 L84.774,135.714 L90.084,135.714 L90.084,131.754 L92.46,131.754 L92.46,135.714 Z" id="복코" fill="#FFFFFF"></path>
                        <path d="M55.92,43.784 L65.536,43.784 L65.536,46.2 L62.176,46.2 L62.176,55 L59.248,55 L59.248,46.2 L55.92,46.2 L55.92,43.784 Z M76.656,43.784 L72.608,51.416 L72.608,55 L69.68,55 L69.68,51.496 L65.552,43.784 L68.48,43.784 L71.136,48.6 L73.728,43.784 L76.656,43.784 Z M82.592,43.784 C84.0213405,43.784 85.1306627,44.1279966 85.92,44.816 C86.7093373,45.5040034 87.104,46.4719938 87.104,47.72 C87.104,49.0426733 86.7093373,50.0693297 85.92,50.8 C85.1306627,51.5306703 84.0213405,51.896 82.592,51.896 L80.592,51.896 L80.592,55 L77.664,55 L77.664,43.784 L82.592,43.784 Z M82.448,49.56 C83.0453363,49.56 83.506665,49.4106682 83.832,49.112 C84.157335,48.8133318 84.32,48.3813362 84.32,47.816 C84.32,47.2719973 84.157335,46.8533348 83.832,46.56 C83.506665,46.2666652 83.0453363,46.12 82.448,46.12 L80.592,46.12 L80.592,49.56 L82.448,49.56 Z M88.544,43.784 L97.392,43.784 L97.392,46.12 L91.472,46.12 L91.472,48.216 L96.816,48.216 L96.816,50.536 L91.472,50.552 L91.472,52.664 L97.552,52.664 L97.552,55 L88.544,55 L88.544,43.784 Z M101.568,43.784 L106.656,43.784 L106.656,55 L103.728,55 L103.728,46.184 L101.568,46.184 L101.568,43.784 Z M110.224,52.36 C110.629335,52.36 110.959999,52.4879987 111.216,52.744 C111.472001,53.0000013 111.6,53.3306646 111.6,53.736 C111.6,54.1413354 111.472001,54.4746654 111.216,54.736 C110.959999,54.9973346 110.629335,55.128 110.224,55.128 C109.829331,55.128 109.504001,54.9973346 109.248,54.736 C108.991999,54.4746654 108.864,54.1413354 108.864,53.736 C108.864,53.3306646 108.989332,53.0000013 109.24,52.744 C109.490668,52.4879987 109.818665,52.36 110.224,52.36 Z" id="TYPE-1." fill="#FFFFFF" opacity="0.5"></path>
                        <path d="M83.4839713,108.502466 C83.4681596,108.503694 83.4522544,108.504591 83.4362621,108.505148 C83.3217005,108.508257 83.2101536,108.508257 83.1046363,108.508257 C81.4103298,108.508257 80.7320042,108.054414 79.2185845,107.044149 C78.5824658,106.615175 77.7473717,106.055643 76.5535187,105.334469 C73.4000585,103.428954 72.3117228,103.929424 72.3026784,103.932532 C71.8263432,104.352181 71.169121,104.252708 70.7651405,103.764673 C70.3581451,103.273528 70.469692,102.496401 70.9430125,102.079861 C71.3922148,101.68508 73.201083,100.606428 77.6991352,103.326373 C78.9291656,104.069306 79.7913927,104.647489 80.4516296,105.088897 C81.9710789,106.10538 82.1248327,106.217286 83.369937,106.173767 C83.405306,106.173276 83.4401161,106.174188 83.4743311,106.176449 C83.5145894,106.173775 83.5559091,106.172763 83.5982717,106.173486 C84.8373121,106.21701 84.9974808,106.105091 86.523616,105.085377 C87.1854449,104.643916 88.0497512,104.068773 89.2857696,103.322641 C93.788624,100.605478 95.6048759,101.687369 96.0551614,102.079088 C96.5296232,102.495678 96.5840201,103.232483 96.1790654,103.720578 C95.7982871,104.180692 95.1455244,104.261523 94.6771066,103.925764 C94.5350703,103.876022 93.4018016,103.54648 90.4311265,105.334088 C89.2343947,106.055349 88.3972869,106.614947 87.7596344,107.040864 C86.2425653,108.05436 85.5626041,108.508257 83.8642121,108.508257 C83.7554183,108.508257 83.6466245,108.508257 83.5317866,108.505148 C83.5157587,108.50459 83.4998182,108.503694 83.4839713,108.502466 Z M68.9385177,109 C66.2398596,109 62.7609038,107.917092 60.5711355,103.950592 C60.4015055,103.535529 58.3505254,97.6747206 63.2296992,93.4648 C64.7224427,92.1790422 65.9314415,91.3426755 66.9029584,90.6685889 C68.7658036,89.3828311 69.5337645,88.8491791 70.1290114,86.8237985 C71.1652961,83.281723 73.0651514,72.0812745 73.0867407,71.9689267 C73.1916028,71.3322893 73.7930181,70.9172267 74.4221909,71.0139707 C75.0513638,71.1231977 75.4738966,71.7286273 75.3659502,72.3652647 C75.2888457,72.8302596 73.4198322,83.8153749 72.3465373,87.485402 C71.5199769,90.3128209 70.2030318,91.2240862 68.210651,92.6034671 C67.2823126,93.2432253 66.1288291,94.0421427 64.7316952,95.2498813 C61.0985304,98.3831357 62.6005264,102.795906 62.6652941,102.980032 C65.4472251,107.985749 70.6749114,106.453451 70.9000566,106.387914 C71.504556,106.197547 72.1553181,106.547074 72.3434532,107.164986 C72.528504,107.779778 72.1892441,108.43202 71.5816605,108.622387 C70.8938882,108.840841 69.9717182,109 68.9385177,109 Z M98.1080921,108.996879 C97.0943695,108.996879 96.1997287,108.83772 95.5249315,108.622387 C94.9234153,108.43202 94.5875434,107.779778 94.7707463,107.164986 C94.9600559,106.547074 95.601266,106.197547 96.1997287,106.387914 C96.4195722,106.456571 101.598107,107.98887 104.428592,102.80839 C104.416378,102.795906 105.903375,98.3831357 102.306491,95.2498813 C100.920256,94.0421427 99.7782917,93.246346 98.8622773,92.6034671 C96.8897929,91.2240862 95.5829457,90.3128209 94.7676929,87.485402 C93.7051162,83.8153749 91.8547671,72.8302596 91.7784325,72.3652647 C91.6715642,71.7286273 92.0898774,71.1231977 92.7127672,71.0139707 C93.3448172,70.9172267 93.928013,71.3322893 94.0348814,71.9689267 C94.0532016,72.0812745 95.9371379,83.281723 96.9630741,86.8237985 C97.5493233,88.8491791 98.3126686,89.3828311 100.153858,90.6717096 C101.115673,91.3426755 102.312598,92.1790422 103.790435,93.4648 C108.620884,97.6747206 106.590386,103.535529 106.501837,103.78207 C104.269816,107.889005 100.788961,108.996879 98.1080921,108.996879 Z" id="Fill-3" fill="#FFFFFF"></path>
                    </g>
                    <g id="Group-20" transform="translate(0.000000, 179.000000)">
                        <g id="1-copy-3" fill="url(#linearGradient-1)">
                            <polygon id="Polygon-2-Copy-3" points="84 0 156.746134 44.75 156.746134 134.25 84 179 11.2538661 134.25 11.2538661 44.75"></polygon>
                        </g>
                        <path d="M53.836,126.534 L53.836,133.554 L55.96,133.554 L55.96,126.534 L53.836,126.534 Z M51.622,135.408 L51.622,124.662 L58.156,124.662 L58.156,135.408 L51.622,135.408 Z M63.124,122.952 L65.374,122.952 L65.374,139.53 L63.124,139.53 L63.124,131.196 L61.738,131.196 L61.738,138.792 L59.524,138.792 L59.524,123.222 L61.738,123.222 L61.738,129.288 L63.124,129.288 L63.124,122.952 Z M78.604,129.054 L78.604,127.344 L71.782,127.344 L71.782,129.054 L78.604,129.054 Z M80.944,123.6 L80.944,130.944 L69.424,130.944 L69.424,123.6 L71.782,123.6 L71.782,125.49 L78.604,125.49 L78.604,123.6 L80.944,123.6 Z M82.726,132.51 L82.726,134.4 L76.354,134.4 L76.354,139.566 L73.978,139.566 L73.978,134.4 L67.714,134.4 L67.714,132.51 L82.726,132.51 Z M87.586,130.782 L87.586,133.77 C90.106,133.752 92.194,133.626 94.534,133.23 L94.786,135.156 C92.086,135.624 89.656,135.732 86.65,135.732 L85.156,135.732 L85.156,128.91 L90.538,128.91 L90.538,126.264 L85.138,126.264 L85.138,124.374 L92.968,124.374 L92.968,130.782 L87.586,130.782 Z M95.686,122.952 L98.062,122.952 L98.062,139.584 L95.686,139.584 L95.686,122.952 Z M102.022,128.676 L111.976,128.352 C112.03,127.596 112.03,126.894 112.03,126.246 L102.526,126.246 L102.526,124.356 L114.370036,124.356 L114.37,125.814 C114.37,127.812 114.388,130.134 113.614,133.77 L111.274,133.482 C111.562,132.258 111.742,131.16 111.832,130.17 L102.328,130.674 L102.022,128.676 Z M108.52,135.714 L115.828,135.714 L115.828,137.64 L100.834,137.64 L100.834,135.714 L106.144,135.714 L106.144,131.754 L108.52,131.754 L108.52,135.714 Z" id="매부리코" fill="#FFFFFF"></path>
                        <path d="M54.828,43.784 L64.444,43.784 L64.444,46.2 L61.084,46.2 L61.084,55 L58.156,55 L58.156,46.2 L54.828,46.2 L54.828,43.784 Z M75.564,43.784 L71.516,51.416 L71.516,55 L68.588,55 L68.588,51.496 L64.46,43.784 L67.388,43.784 L70.044,48.6 L72.636,43.784 L75.564,43.784 Z M81.5,43.784 C82.9293405,43.784 84.0386627,44.1279966 84.828,44.816 C85.6173373,45.5040034 86.012,46.4719938 86.012,47.72 C86.012,49.0426733 85.6173373,50.0693297 84.828,50.8 C84.0386627,51.5306703 82.9293405,51.896 81.5,51.896 L79.5,51.896 L79.5,55 L76.572,55 L76.572,43.784 L81.5,43.784 Z M81.356,49.56 C81.9533363,49.56 82.414665,49.4106682 82.74,49.112 C83.065335,48.8133318 83.228,48.3813362 83.228,47.816 C83.228,47.2719973 83.065335,46.8533348 82.74,46.56 C82.414665,46.2666652 81.9533363,46.12 81.356,46.12 L79.5,46.12 L79.5,49.56 L81.356,49.56 Z M87.452,43.784 L96.3,43.784 L96.3,46.12 L90.38,46.12 L90.38,48.216 L95.724,48.216 L95.724,50.536 L90.38,50.552 L90.38,52.664 L96.46,52.664 L96.46,55 L87.452,55 L87.452,43.784 Z M106.828,48.392 C107.734671,48.5200006 108.462664,48.8533306 109.012,49.392 C109.561336,49.9306694 109.836,50.6213291 109.836,51.464 C109.836,52.1786702 109.649335,52.8133306 109.276,53.368 C108.902665,53.9226694 108.37467,54.3546651 107.692,54.664 C107.00933,54.9733349 106.209338,55.128 105.292,55.128 C104.470663,55.128 103.662671,55.0026679 102.868,54.752 C102.073329,54.5013321 101.404003,54.1680021 100.86,53.752 L101.948,51.688 C102.417336,52.0826686 102.918664,52.3813323 103.452,52.584 C103.985336,52.7866677 104.518664,52.888 105.052,52.888 C105.67067,52.888 106.145332,52.7680012 106.476,52.528 C106.806668,52.2879988 106.972,51.9440022 106.972,51.496 C106.972,51.0479978 106.806668,50.7066678 106.476,50.472 C106.145332,50.2373322 105.665336,50.12 105.036,50.12 L103.148,50.12 L103.148,48.52 L105.74,46.024 L101.452,46.024 L101.452,43.784 L109.292,43.784 L109.292,45.48 L106.236,48.28 L106.828,48.392 Z M112.316,52.36 C112.721335,52.36 113.051999,52.4879987 113.308,52.744 C113.564001,53.0000013 113.692,53.3306646 113.692,53.736 C113.692,54.1413354 113.564001,54.4746654 113.308,54.736 C113.051999,54.9973346 112.721335,55.128 112.316,55.128 C111.921331,55.128 111.596001,54.9973346 111.34,54.736 C111.083999,54.4746654 110.956,54.1413354 110.956,53.736 C110.956,53.3306646 111.081332,53.0000013 111.332,52.744 C111.582668,52.4879987 111.910665,52.36 112.316,52.36 Z" id="TYPE-3." fill="#FFFFFF" opacity="0.5"></path>
                        <path d="M81.3973993,101.096023 C81.4189252,101.063555 81.5388556,100.960247 81.8217684,100.848084 C81.9539993,100.794954 82.0985308,100.774292 82.2553629,100.774292 C82.8150381,100.774292 83.5315454,101.075362 84.3126305,101.521063 C82.4644723,101.715872 81.5111794,101.14325 81.3973993,101.096023 M95.8905269,95.4052218 C96.3640982,94.9978926 97.092906,95.0303609 97.5172752,95.4819649 C97.8616907,95.8420675 100.829199,99.0947975 99.7744268,102.028748 C99.1317229,103.808599 97.8524652,105.210638 96.2595435,105.868859 C95.6967932,106.10204 94.9433842,106.302753 94.026993,106.302753 C93.1598039,106.302753 92.1480834,106.125653 91.0041319,105.629774 C89.5741925,105.012877 88.2272818,104.112621 86.9234231,103.221219 C86.8526949,103.253687 86.7788916,103.280252 86.698938,103.297962 L85.4965588,103.575418 C82.0216524,104.2543 79.6753217,103.047071 79.2109758,101.565337 C78.9403636,100.709356 79.2325018,99.4696584 80.948429,98.7996314 C83.1717542,97.9288916 85.5119345,99.5345949 87.987421,101.2318 C89.2851294,102.12025 90.6258898,103.038216 91.9481994,103.610838 C93.2305321,104.162799 94.3714085,104.242494 95.3462274,103.835164 C96.3425723,103.421932 97.1605591,102.501014 97.5941536,101.305591 C98.113852,99.8651809 96.4379015,97.6366772 95.8105733,96.9696019 C95.3831291,96.5150461 95.4200307,95.8155026 95.8905269,95.4052218 Z M77.3624296,106.085014 C82.0300425,105.566597 84.8508909,105.248953 85.4838918,109.986632 C85.8065378,111.206262 86.2244413,113.627542 85.1551001,114.67037 C84.9307842,114.889125 84.6357936,115 84.3408029,115 C84.0458122,115 83.7508215,114.889125 83.5265057,114.67037 C83.0748012,114.232862 83.0748012,113.519663 83.5265057,113.082154 C83.6186903,112.830437 83.5080688,111.514915 83.2222965,110.403164 C82.8719951,107.829055 82.6661162,107.757136 77.6236192,108.317507 C76.7447928,108.416395 75.7614906,108.527271 74.6522027,108.629156 C72.2892044,108.841917 70.6974839,108.398416 69.7787108,107.271681 C68.2822476,105.437741 69.2532586,102.581949 70.1105753,100.058784 C70.3533281,99.3485815 70.5868623,98.6653489 70.7374305,98.0630255 C71.5332908,94.91656 86.0861644,68.5821418 87.7424142,65.5885046 C88.0466233,65.0431173 88.7441534,64.8423428 89.3064793,65.1330163 C89.8657325,65.429683 90.0746842,66.1129155 89.7735479,66.6583029 C83.3206268,78.3062186 73.5244779,96.4298601 72.977516,98.599423 C72.8115837,99.2556858 72.5626853,99.9958544 72.2984229,100.765989 C71.6930774,102.548986 70.8603433,104.991243 71.5824559,105.87525 C71.9634855,106.336732 72.9744432,106.528516 74.4401781,106.390671 C75.5279563,106.291782 76.4989673,106.180907 77.3624296,106.085014 Z" id="Fill-4" fill="#FFFFFF"></path>
                    </g>
                    <g id="Group-22" transform="translate(145.000000, 0.000000)">
                        <g id="1-copy-2">
                            <polygon id="Polygon-2-Copy-3" fill="url(#linearGradient-1)" points="84 0 156.746134 44.75 156.746134 134.25 84 179 11.2538661 134.25 11.2538661 44.75"></polygon>
                            <path d="M80.5811064,100.704572 C80.6070484,100.666192 80.7515824,100.544073 81.0925342,100.411486 C81.2518921,100.348682 81.426074,100.324259 81.6150799,100.324259 C82.2895715,100.324259 83.1530691,100.680149 84.0943926,101.207005 C81.8633818,101.440776 80.7182284,100.760398 80.5811064,100.704572 M100.007948,94.0682715 C100.42302,94.4939438 103.999308,98.3389509 102.728151,101.807133 C101.953597,103.911071 100.411902,105.568402 98.492195,106.346475 C97.8139974,106.622115 96.9060279,106.859375 95.8016405,106.859375 C94.756549,106.859375 93.5372756,106.650028 92.1586444,106.063856 C90.4353553,105.334631 88.8121281,104.27045 87.240785,103.216737 C87.155547,103.255117 87.066603,103.286519 86.9702471,103.307454 L85.5212019,103.635431 C81.340836,104.441417 78.5057475,103.010879 77.9461418,101.259342 C77.620014,100.247498 77.9720838,98.7820688 80.0400307,97.9900392 C82.7231733,96.9607496 85.5397318,98.8588294 88.5230603,100.865072 C90.0869915,101.915296 91.7028066,103.000411 93.2963858,103.6773 C94.838081,104.329765 96.2167122,104.420482 97.3915136,103.942473 C98.592257,103.453997 99.5780525,102.365392 100.100598,100.9523 C100.726912,99.2496105 98.7071429,96.615327 97.9511193,95.8267865 C97.4359856,95.2894625 97.4804576,94.4625417 98.0474753,93.9775545 C98.618199,93.4960563 99.4965205,93.5344366 100.007948,94.0682715 Z M77.2845979,104.494063 C79.5689516,104.818683 83.7931929,106.524742 83.6372767,110.697913 C83.6118949,111.426505 83.0099859,112 82.2811683,112 C82.2666645,112 82.2485347,112 82.2304049,112 C81.4798315,111.971145 80.8960523,111.343546 80.921434,110.59692 C81.0265868,107.816008 77.0960481,107.19923 76.925628,107.177589 C68.7563442,106.203729 67.3712282,102.600446 67.2370678,102.192868 C63.7235143,96.3136383 68.0601603,90.1747127 75.631161,80.7931935 C83.3725817,71.2060817 85.5554085,65.9003474 85.5771643,65.849851 C85.8563631,65.1537214 86.646822,64.8218875 87.3430059,65.0960111 C88.0391899,65.3701347 88.38003,66.1564366 88.1044571,66.8489593 C88.0138082,67.0761934 85.7947218,72.5262031 77.7523465,82.4884315 C69.6374521,92.5408321 67.2008082,96.8618855 69.7063453,101.096374 C69.81875,101.338035 70.8956596,103.736617 77.2845979,104.494063 Z" id="Fill-1" fill="#FFFFFF"></path>
                        </g>
                        <path d="M71.04,129.756 L69.942,131.448 C68.736,130.926 67.98,130.026 67.53,128.964 C67.152,130.062 66.468,131.052 65.298,131.628 C64.146,131.052 63.462,130.08 63.084,128.982 C62.616,130.044 61.842,130.926 60.672,131.448 L59.592,129.756 C61.32,128.964 61.986,127.344 61.986,125.904 L61.986,125.616 L60.222,125.616 L60.222,123.744 L65.046,123.744 L65.046,125.616 L64.182,125.616 L64.182,125.904 C64.182,126.966 64.47,128.208 65.298,129.144 C66.108,128.226 66.396,126.984 66.396,125.904 L66.396,125.616 L65.586,125.616 L65.586,123.744 L70.266,123.744 L70.266,125.616 L68.628,125.616 L68.628,125.904 C68.628,127.38 69.294,128.964 71.04,129.756 Z M64.002,136.704 L64.002,137.712 C65.352,137.694 66.234,137.64 67.314,137.46 L67.494,139.152 C66.054,139.404 64.902,139.422 62.67,139.422 L61.716,139.422 L61.716,135.102 L64.74,135.102 L64.74,134.202 L61.698,134.202 L61.698,132.492 L67.026,132.492 L67.026,136.704 L64.002,136.704 Z M71.382,137.64 L71.382,135.822 L70.014,135.822 L70.014,137.64 L71.382,137.64 Z M71.382,134.112 L71.382,132.348 L73.488,132.348 L73.488,139.422 L67.908,139.422 L67.908,132.348 L70.014,132.348 L70.014,134.112 L71.382,134.112 Z M75.144,126.174 L75.144,128.1 L73.488,128.1 L73.488,131.646 L71.112,131.646 L71.112,122.97 L73.488,122.97 L73.488,126.174 L75.144,126.174 Z M83.982,125.328 C81.768,125.328 80.436,125.868 80.436,126.876 C80.436,127.902 81.768,128.406 83.982,128.406 C86.214,128.406 87.546,127.902 87.546,126.876 C87.546,125.868 86.214,125.328 83.982,125.328 Z M83.982,130.296 C80.382,130.296 77.988,128.982 77.988,126.876 C77.988,124.77 80.382,123.456 83.982,123.456 C87.6,123.456 89.994,124.77 89.994,126.876 C89.994,128.982 87.6,130.296 83.982,130.296 Z M80.688,134.436 L80.688,137.37 L89.796,137.37 L89.796,139.26 L78.312,139.26 L78.312,134.436 L80.688,134.436 Z M76.494,131.43 L91.47,131.43 L91.47,133.32 L76.494,133.32 L76.494,131.43 Z M94.242,128.676 L104.196,128.352 C104.25,127.596 104.25,126.894 104.25,126.246 L94.746,126.246 L94.746,124.356 L106.590036,124.356 L106.59,125.814 C106.59,127.812 106.608,130.134 105.834,133.77 L103.494,133.482 C103.782,132.258 103.962,131.16 104.052,130.17 L94.548,130.674 L94.242,128.676 Z M100.74,135.714 L108.048,135.714 L108.048,137.64 L93.054,137.64 L93.054,135.714 L98.364,135.714 L98.364,131.754 L100.74,131.754 L100.74,135.714 Z" id="짧은코" fill="#FFFFFF"></path>
                        <path d="M54.812,43.784 L64.428,43.784 L64.428,46.2 L61.068,46.2 L61.068,55 L58.14,55 L58.14,46.2 L54.812,46.2 L54.812,43.784 Z M75.548,43.784 L71.5,51.416 L71.5,55 L68.572,55 L68.572,51.496 L64.444,43.784 L67.372,43.784 L70.028,48.6 L72.62,43.784 L75.548,43.784 Z M81.484,43.784 C82.9133405,43.784 84.0226627,44.1279966 84.812,44.816 C85.6013373,45.5040034 85.996,46.4719938 85.996,47.72 C85.996,49.0426733 85.6013373,50.0693297 84.812,50.8 C84.0226627,51.5306703 82.9133405,51.896 81.484,51.896 L79.484,51.896 L79.484,55 L76.556,55 L76.556,43.784 L81.484,43.784 Z M81.34,49.56 C81.9373363,49.56 82.398665,49.4106682 82.724,49.112 C83.049335,48.8133318 83.212,48.3813362 83.212,47.816 C83.212,47.2719973 83.049335,46.8533348 82.724,46.56 C82.398665,46.2666652 81.9373363,46.12 81.34,46.12 L79.484,46.12 L79.484,49.56 L81.34,49.56 Z M87.436,43.784 L96.284,43.784 L96.284,46.12 L90.364,46.12 L90.364,48.216 L95.708,48.216 L95.708,50.536 L90.364,50.552 L90.364,52.664 L96.444,52.664 L96.444,55 L87.436,55 L87.436,43.784 Z M109.852,52.648 L109.852,55 L101.308,55 L101.292,53.064 L105.372,48.872 C105.692002,48.5413317 105.953332,48.2106683 106.156,47.88 C106.358668,47.5493317 106.46,47.2666678 106.46,47.032 C106.46,46.7226651 106.348001,46.4853342 106.124,46.32 C105.899999,46.1546658 105.585335,46.072 105.18,46.072 C104.731998,46.072 104.233336,46.1973321 103.684,46.448 C103.134664,46.6986679 102.604003,47.0479978 102.092,47.496 L100.972,45.336 C102.518674,44.2159944 104.070659,43.656 105.628,43.656 C106.37467,43.656 107.043997,43.7786654 107.636,44.024 C108.228003,44.2693346 108.691998,44.6159978 109.028,45.064 C109.364002,45.5120022 109.532,46.0239971 109.532,46.6 C109.532,47.1760029 109.342669,47.7706636 108.964,48.384 C108.585331,48.9973364 108.049337,49.6506632 107.356,50.344 L105.068,52.648 L109.852,52.648 Z M112.332,52.36 C112.737335,52.36 113.067999,52.4879987 113.324,52.744 C113.580001,53.0000013 113.708,53.3306646 113.708,53.736 C113.708,54.1413354 113.580001,54.4746654 113.324,54.736 C113.067999,54.9973346 112.737335,55.128 112.332,55.128 C111.937331,55.128 111.612001,54.9973346 111.356,54.736 C111.099999,54.4746654 110.972,54.1413354 110.972,53.736 C110.972,53.3306646 111.097332,53.0000013 111.348,52.744 C111.598668,52.4879987 111.926665,52.36 112.332,52.36 Z" id="TYPE-2." fill="#FFFFFF" opacity="0.5"></path>
                    </g>
                    <g id="Group-21" transform="translate(145.000000, 178.000000)">
                        <g id="1-copy-4" fill="url(#linearGradient-1)">
                            <polygon id="Polygon-2-Copy-3" points="84 0 156.746134 44.75 156.746134 134.25 84 179 11.2538661 134.25 11.2538661 44.75"></polygon>
                        </g>
                        <path d="M82.02,122.97 L82.02,135.858 L79.644,135.858 L79.644,122.97 L82.02,122.97 Z M78.402,124.248 L78.402,125.958 L68.844,125.958 L68.844,124.248 L72.444,124.248 L72.444,122.88 L74.82,122.88 L74.82,124.248 L78.402,124.248 Z M75.432,128.892 C75.432,128.334 74.766,128.046 73.632,128.046 C72.498,128.046 71.832,128.334 71.832,128.892 C71.832,129.486 72.498,129.756 73.632,129.756 C74.766,129.756 75.432,129.486 75.432,128.892 Z M69.582,128.892 C69.582,127.362 71.184,126.426 73.632,126.426 C76.098,126.426 77.682,127.362 77.682,128.892 C77.682,130.422 76.098,131.376 73.632,131.376 C71.184,131.376 69.582,130.422 69.582,128.892 Z M72.66,137.406 L82.452,137.406 L82.452,139.26 L70.284,139.26 L70.284,135.156 L72.66,135.156 L72.66,133.806 C71.184,133.878 69.762,133.896 68.502,133.896 L68.232,132.06 C71.256,132.06 75.306,132.042 78.78,131.574 L78.942,133.194 C77.646,133.428 76.332,133.59 75.018,133.662 L75.018,135.732 L72.66,135.732 L72.66,137.406 Z M85.962,128.676 L95.916,128.352 C95.97,127.596 95.97,126.894 95.97,126.246 L86.466,126.246 L86.466,124.356 L98.3100356,124.356 L98.31,125.814 C98.31,127.812 98.328,130.134 97.554,133.77 L95.214,133.482 C95.502,132.258 95.682,131.16 95.772,130.17 L86.268,130.674 L85.962,128.676 Z M92.46,135.714 L99.768,135.714 L99.768,137.64 L84.774,137.64 L84.774,135.714 L90.084,135.714 L90.084,131.754 L92.46,131.754 L92.46,135.714 Z" id="휜코" fill="#FFFFFF"></path>
                        <path d="M54.796,43.784 L64.412,43.784 L64.412,46.2 L61.052,46.2 L61.052,55 L58.124,55 L58.124,46.2 L54.796,46.2 L54.796,43.784 Z M75.532,43.784 L71.484,51.416 L71.484,55 L68.556,55 L68.556,51.496 L64.428,43.784 L67.356,43.784 L70.012,48.6 L72.604,43.784 L75.532,43.784 Z M81.468,43.784 C82.8973405,43.784 84.0066627,44.1279966 84.796,44.816 C85.5853373,45.5040034 85.98,46.4719938 85.98,47.72 C85.98,49.0426733 85.5853373,50.0693297 84.796,50.8 C84.0066627,51.5306703 82.8973405,51.896 81.468,51.896 L79.468,51.896 L79.468,55 L76.54,55 L76.54,43.784 L81.468,43.784 Z M81.324,49.56 C81.9213363,49.56 82.382665,49.4106682 82.708,49.112 C83.033335,48.8133318 83.196,48.3813362 83.196,47.816 C83.196,47.2719973 83.033335,46.8533348 82.708,46.56 C82.382665,46.2666652 81.9213363,46.12 81.324,46.12 L79.468,46.12 L79.468,49.56 L81.324,49.56 Z M87.42,43.784 L96.268,43.784 L96.268,46.12 L90.348,46.12 L90.348,48.216 L95.692,48.216 L95.692,50.536 L90.348,50.552 L90.348,52.664 L96.428,52.664 L96.428,55 L87.42,55 L87.42,43.784 Z M109.868,50.36 L109.868,52.584 L108.428,52.584 L108.428,55 L105.74,55 L105.74,52.584 L100.668,52.584 L100.668,50.6 L103.852,43.784 L106.636,43.784 L103.644,50.36 L105.74,50.36 L105.74,47.976 L108.428,47.976 L108.428,50.36 L109.868,50.36 Z M112.348,52.36 C112.753335,52.36 113.083999,52.4879987 113.34,52.744 C113.596001,53.0000013 113.724,53.3306646 113.724,53.736 C113.724,54.1413354 113.596001,54.4746654 113.34,54.736 C113.083999,54.9973346 112.753335,55.128 112.348,55.128 C111.953331,55.128 111.628001,54.9973346 111.372,54.736 C111.115999,54.4746654 110.988,54.1413354 110.988,53.736 C110.988,53.3306646 111.113332,53.0000013 111.364,52.744 C111.614668,52.4879987 111.942665,52.36 112.348,52.36 Z" id="TYPE-4." fill="#FFFFFF" opacity="0.5"></path>
                        <path d="M80.852038,104.373833 C80.8753522,104.338189 81.0052455,104.224776 81.3116604,104.101643 C81.4548761,104.043317 81.6114142,104.020634 81.7812747,104.020634 C82.3874434,104.020634 83.1634726,104.35115 84.0094443,104.840443 C82.0077553,105.054307 80.9752701,104.425678 80.852038,104.373833 M98.3110294,98.2106823 C98.6840563,98.6060053 101.898083,102.176874 100.755688,105.397784 C100.059593,107.351717 98.6740646,108.890884 96.9488151,109.613483 C96.3393158,109.86947 95.5233194,110.089814 94.5308014,110.089814 C93.591573,110.089814 92.4958064,109.895393 91.2568242,109.351014 C89.7080964,108.67378 88.2492948,107.685473 86.8371215,106.706886 C86.7605178,106.74253 86.6805834,106.771694 86.5939879,106.791136 L85.2917243,107.095729 C81.5348105,107.84425 78.9869035,106.515706 78.4839833,104.889049 C78.1908907,103.949347 78.5072975,102.588398 80.3657708,101.852838 C82.7737927,100.896934 85.3083773,102.659686 87.9895082,104.522889 C89.3950203,105.498235 90.8471607,106.505985 92.2793176,107.134613 C93.6648461,107.740559 94.9038283,107.824808 95.9596277,107.38088 C97.0387412,106.92723 97.9246801,105.91624 98.3942944,104.603898 C98.9571653,103.022606 97.1419898,100.57614 96.4625479,99.8438199 C95.9995949,99.3448056 96.039562,98.5768421 96.5491434,98.1264331 C97.0620554,97.6792645 97.851407,97.7149083 98.3110294,98.2106823 Z M78.3246352,108.134255 C80.4146625,108.431188 84.2795543,109.991735 84.1369017,113.80897 C84.1136791,114.475419 83.5629735,115 82.8961553,115 C82.8828853,115 82.8662977,115 82.8497102,115 C82.162987,114.973606 81.6288689,114.399536 81.6520914,113.716591 C81.748299,111.172867 78.152125,110.608695 77.9962023,110.588899 C70.5218664,109.698101 69.25458,106.402148 69.1318324,106.029332 C65.9171713,100.651551 69.8849057,95.0362227 76.8118535,86.4548667 C83.8350088,77.7580369 85.818876,65.1746876 85.8387811,65.049316 C85.9383062,64.3762685 86.5719494,63.9143731 87.2520376,64.0133507 C87.9321259,64.1156275 88.3998939,64.7457848 88.2970513,65.4188323 C88.2141137,65.9599097 86.2037065,78.777506 78.7525931,88.0055154 C71.3280198,97.2005324 69.0986573,101.153037 71.3910524,105.026359 C71.493895,105.247409 72.4791936,107.441412 78.3246352,108.134255 Z" id="Fill-1" fill="#FFFFFF"></path>
                    </g>
                </g>
            </g>
        </g>
    </g>
</svg>