<?xml version="1.0" encoding="UTF-8"?>
<svg width="140px" height="144px" viewBox="0 0 140 144" version="1.1" xmlns="http://www.w3.org/2000/svg" xmlns:xlink="http://www.w3.org/1999/xlink">
    <!-- Generator: Sketch 52.4 (67378) - http://www.bohemiancoding.com/sketch -->
    <title>Group 31</title>
    <desc>Created with Sketch.</desc>
    <defs>
        <path d="M12.7111119,24.5095619 L10.5672313,22.654935 C10.1248433,22.2692634 10.0766343,21.5971738 10.4594701,21.15195 C10.8451418,20.7095619 11.5143955,20.6641888 11.9596194,21.0441888 L14.1035,22.9016515 C14.5458881,23.2844873 14.5969328,23.9565768 14.2112612,24.4018007 C14.0014104,24.6428455 13.7064851,24.7676216 13.4087239,24.7676216 C13.1620075,24.7676216 12.9124552,24.682547 12.7111119,24.5095619 Z M16.9994403,28.221935 L14.8555597,26.3673082 C14.4131716,25.9816365 14.3649627,25.309547 14.7477985,24.8643231 C15.1334701,24.421935 15.8027239,24.3765619 16.2479478,24.7565619 L18.3918284,26.6140246 C18.8342164,26.9968604 18.8852612,27.66895 18.4995896,28.1141738 C18.2897388,28.3552186 17.9948134,28.4799947 17.6970522,28.4799947 C17.4503358,28.4799947 17.2007836,28.3949201 16.9994403,28.221935 Z M21.9842463,32.1932186 C21.7375299,32.1932186 21.4908134,32.108144 21.2894701,31.9351589 L19.1455896,30.0776962 C18.7003657,29.6948604 18.6521567,29.0227709 19.0349925,28.5803828 C19.4206642,28.1351589 20.0899179,28.08695 20.5351418,28.4697858 L22.6790224,30.3244126 C23.1242463,30.7100843 23.1724552,31.3821738 22.7896194,31.8245619 C22.5769328,32.0684425 22.2820075,32.1932186 21.9842463,32.1932186 Z M26.2711567,35.9053082 C26.0244403,35.9053082 25.7777239,35.8202335 25.5735448,35.6472485 L23.4325,33.7897858 C22.9872761,33.40695 22.9390672,32.7348604 23.321903,32.2896365 C23.7075746,31.8472485 24.3796642,31.7990395 24.8248881,32.1818753 L26.9687687,34.0365022 C27.4111567,34.4221738 27.4593657,35.0942634 27.0765299,35.5394873 C26.8638433,35.780532 26.5689179,35.9053082 26.2711567,35.9053082 Z M53.6240672,42.4092634 C54.2110821,42.4092634 54.6875,42.8856813 54.6875,43.4726962 C54.6875,44.0597112 54.2110821,44.5361291 53.6240672,44.5361291 L8.25093284,44.5361291 C7.66391791,44.5361291 7.1875,44.0597112 7.1875,43.4726962 C7.1875,42.8856813 7.66391791,42.4092634 8.25093284,42.4092634 L53.6240672,42.4092634 Z M8.25093284,38.8712932 C7.66391791,38.8712932 7.1875,38.3948753 7.1875,37.8078604 C7.1875,37.2208455 7.66391791,36.7444276 8.25093284,36.7444276 L27.358694,36.7444276 C27.3473507,36.483532 27.4267537,36.2141291 27.6110821,36.0014425 C27.9967537,35.5590544 28.6688433,35.5136813 29.1112313,35.8936813 L30.0952612,36.7444276 L38.2425746,36.7444276 L16.4124254,17.6621888 C15.9700373,17.2765171 15.9275,16.6044276 16.3131716,16.1620395 C16.6988433,15.7168156 17.3709328,15.6742783 17.8133209,16.0627858 L39.2691418,34.8160694 L45.7830224,25.8577112 L40.9167537,26.1015918 C40.3410821,26.1469649 39.8277985,25.6790544 39.7994403,25.0920395 C39.7710821,24.5078604 40.2219776,24.0059201 40.8089925,23.9775619 L47.8985448,23.6230843 C47.9155597,23.6230843 47.9354104,23.6344276 47.9524254,23.6344276 C48.3125746,23.6344276 48.638694,23.8187559 48.8372015,24.1278604 C48.8485448,24.150547 48.8740672,24.1590544 48.8882463,24.1789052 C48.8995896,24.2015918 48.8910821,24.2271141 48.9024254,24.2498007 C48.9222761,24.2895022 48.9534701,24.323532 48.9676493,24.3660694 L51.1398881,31.2798007 C51.315709,31.8384574 51.0037687,32.4339798 50.4422761,32.6126365 C50.3373507,32.6466664 50.2295896,32.6608455 50.1246642,32.6608455 C49.6709328,32.6608455 49.2512313,32.3715918 49.1094403,31.9150246 L47.5695896,27.0175619 L40.4970522,36.7444276 L53.6240672,36.7444276 C54.2110821,36.7444276 54.6875,37.2208455 54.6875,37.8078604 C54.6875,38.3948753 54.2110821,38.8712932 53.6240672,38.8712932 L8.25093284,38.8712932 Z" id="path-1"></path>
    </defs>
    <g id="Page-1" stroke="none" stroke-width="1" fill="none" fill-rule="evenodd">
        <g id="iPhone-8-Copy-14" transform="translate(-15.000000, -8492.000000)">
            <g id="Group-31" transform="translate(15.000000, 8492.000000)">
                <rect id="Rectangle-5" fill="#FFFFFF" x="0" y="0" width="140" height="144"></rect>
                <text id="붓기-저하와-세포제생" font-family="AppleSDGothicNeo-Regular, Apple SD Gothic Neo" font-size="16" font-weight="normal" line-spacing="19" fill="#555555">
                    <tspan x="33.296" y="82">붓기 저하와</tspan>
                    <tspan x="42.32" y="101">세포제생</tspan>
                </text>
                <text id="고주파-레이저" font-family="NotoSansCJKkr-Bold, Noto Sans CJK KR" font-size="18" font-weight="bold" fill="#8D7047">
                    <tspan x="18.277" y="124">고주파 레이저</tspan>
                </text>
                <g id="-round/ver1/raser" transform="translate(40.000000, 10.000000)">
                    <mask id="mask-2" fill="white">
                        <use xlink:href="#path-1"></use>
                    </mask>
                    <use id="Fill-7" fill="#613627" fill-rule="evenodd" xlink:href="#path-1"></use>
                    <g id="swatch/dark-brown1" mask="url(#mask-2)" fill="#6C573A" fill-rule="evenodd">
                        <rect id="Rectangle" x="0" y="0" width="63" height="60"></rect>
                    </g>
                </g>
            </g>
        </g>
    </g>
</svg>