<?xml version="1.0" encoding="UTF-8"?>
<svg width="140px" height="144px" viewBox="0 0 140 144" version="1.1" xmlns="http://www.w3.org/2000/svg" xmlns:xlink="http://www.w3.org/1999/xlink">
    <!-- Generator: Sketch 52.4 (67378) - http://www.bohemiancoding.com/sketch -->
    <title>Group 32</title>
    <desc>Created with Sketch.</desc>
    <defs>
        <path d="M8.6129875,24.786775 C8.0019875,24.786775 7.5047375,25.2824 7.5047375,25.895025 C7.5047375,26.506025 8.0019875,27.003275 8.6129875,27.003275 C9.2239875,27.003275 9.7212375,26.506025 9.7212375,25.895025 C9.7212375,25.2824 9.2239875,24.786775 8.6129875,24.786775 M11.7225875,29.363425 C12.3335875,29.363425 12.8308375,29.85905 12.8308375,30.471675 C12.8308375,31.082675 12.3335875,31.579925 11.7225875,31.579925 C11.1115875,31.579925 10.6143375,31.082675 10.6143375,30.471675 C10.6143375,29.85905 11.1115875,29.363425 11.7225875,29.363425 Z M15.79695,32.3596 C16.40795,32.3596 16.9052,32.855225 16.9052,33.46785 C16.9052,34.07885 16.40795,34.5761 15.79695,34.5761 C15.18595,34.5761 14.6887,34.07885 14.6887,33.46785 C14.6887,32.855225 15.18595,32.3596 15.79695,32.3596 Z M21.70415,4.875 C30.214275,4.875 37.1384,11.79425 37.1384,20.307625 C37.1384,28.816125 30.214275,35.737 21.70415,35.737 C21.094775,35.737 20.60565,35.243 20.60565,34.633625 L20.60565,30.316 C20.60565,29.706625 21.094775,29.211 21.70415,29.211 C22.313525,29.211 22.804275,29.706625 22.804275,30.316 L22.804275,33.479875 C29.229525,32.94525 34.35965,27.805375 34.8764,21.37525 L31.748275,21.37525 C31.1389,21.37525 30.643275,20.88125 30.643275,20.2735 C30.643275,19.667375 31.1389,19.166875 31.748275,19.166875 L34.87315,19.166875 C34.3239,12.767625 29.20515,7.6635 22.804275,7.132125 L22.804275,10.232625 C22.804275,10.842 22.313525,11.336 21.70415,11.336 C21.094775,11.336 20.60565,10.842 20.60565,10.232625 L20.60565,7.132125 C14.65815,7.6245 9.823775,12.0705 8.73015,17.831125 L9.885525,16.67575 C10.3129,16.248375 11.0149,16.251625 11.4439,16.680625 C11.8729,17.109625 11.874525,17.81 11.44715,18.237375 L8.754525,20.928375 L8.738275,20.8975 C8.45715,21.2095 8.059025,21.41425 7.60565,21.41425 C7.5244,21.41425 7.454525,21.380125 7.37815,21.367125 L7.373275,21.37525 C7.074275,21.37525 6.80615,21.255 6.6079,21.06325 L6.606275,21.071375 L3.570775,18.035875 C3.1434,17.6085 3.1434,16.908125 3.5724,16.479125 C4.0014,16.050125 4.705025,16.046875 5.1324,16.47425 L6.489275,17.831125 C7.6804,10.49425 14.04065,4.875 21.70415,4.875 Z M21.70415,14.0569 C22.313525,14.0569 22.804275,14.5509 22.804275,15.1619 L22.804275,19.970275 L26.174525,19.970275 C26.7839,19.970275 27.2779,20.46265 27.2779,21.068775 C27.2779,21.6814 26.7839,22.17215 26.174525,22.17215 L21.842275,22.17215 C21.79515,22.17865 21.7529,22.199775 21.70415,22.199775 C21.094775,22.199775 20.60565,21.709025 20.60565,21.09965 L20.60565,15.1619 C20.60565,14.5509 21.094775,14.0569 21.70415,14.0569 Z" id="path-1"></path>
        <path d="M33.620776,14.0733385 C33.658856,14.133094 33.705896,14.1773574 33.739496,14.2481787 C34.131496,15.0515582 34.111336,16.2931447 33.687976,17.4882547 C33.231016,18.7741045 32.460456,19.6062552 31.745896,19.9714277 C32.585896,18.0039225 33.192936,15.9744487 33.620776,14.0733385 M9.117416,17.4882547 C8.788136,16.5609379 8.698536,15.5827182 8.875496,14.8081099 C8.922536,14.597859 9.012136,14.4473637 9.092776,14.2835894 C9.507176,16.0873202 10.082856,17.9950699 10.866856,19.8541299 C10.208296,19.4380545 9.531816,18.6545935 9.117416,17.4882547 M34.433896,34.888171 C32.581416,34.6402964 31.201576,33.8988855 30.218216,32.6152489 C28.054376,29.7956745 28.650216,25.3560622 28.656936,25.3117989 C28.665896,25.2586829 28.647976,25.20778 28.647976,25.1524509 C29.499176,24.14546 30.224936,23.0211714 30.854376,21.8371272 C30.921576,21.8415535 30.984296,21.8703247 31.053736,21.8703247 C32.711336,21.8703247 34.449576,20.3520924 35.273896,18.0393332 C35.849576,16.4192952 35.840616,14.7328622 35.253736,13.5266864 C34.962536,12.924705 34.512296,12.5196955 33.994856,12.2408365 C34.599656,8.89895487 34.691496,6.3139762 34.698216,6.01962503 C34.711656,5.40657787 34.223336,4.8997627 33.605096,4.8864837 C32.886056,4.83558087 32.473896,5.35567503 32.458216,5.96429587 C32.453736,6.15684137 31.862376,24.9599054 21.332136,27.2239749 C10.815336,24.9621185 10.210536,6.15684137 10.206056,5.96429587 C10.192616,5.35567503 9.760296,4.89754953 9.059176,4.8864837 C8.440936,4.8997627 7.952616,5.40657787 7.966056,6.01962503 C7.975016,6.3139762 8.066856,8.91887337 8.676136,12.2784604 C7.972776,12.7056015 7.459816,13.4447992 7.233576,14.4451505 C6.989416,15.5318154 7.094696,16.8065994 7.531496,18.0393332 C8.355816,20.3520924 10.096296,21.8703247 11.753896,21.8703247 C11.778536,21.8703247 11.798696,21.8592589 11.823336,21.8592589 C12.468456,23.0742874 13.221096,24.2207077 14.103656,25.247617 C14.105896,25.2697487 14.096936,25.2896672 14.099176,25.314012 C14.105896,25.3582754 14.715176,29.7713297 12.544616,32.6086094 C11.561256,33.8944592 10.181416,34.6402964 8.324456,34.888171 C7.710696,34.9700582 7.280616,35.5277762 7.363496,36.1341839 C7.439656,36.6896887 7.921256,37.092485 8.472296,37.092485 C8.521576,37.092485 8.573096,37.0880587 8.624616,37.0814192 C11.068456,36.7560837 12.988136,35.69819 14.332136,33.9431489 C15.929256,31.8539195 16.336936,29.2401697 16.401896,27.3700439 C17.707816,28.3239187 19.199656,29.0520505 20.940136,29.4105835 C20.951336,29.4150099 20.964776,29.417223 20.975976,29.4216494 C21.025256,29.430502 21.067816,29.4526337 21.119336,29.4636995 C21.188776,29.4747654 21.258216,29.4814049 21.327656,29.4814049 C21.329896,29.4814049 21.329896,29.4814049 21.329896,29.4814049 L21.332136,29.4814049 C21.334376,29.4814049 21.334376,29.4814049 21.334376,29.4814049 C21.403816,29.4814049 21.473256,29.4747654 21.542696,29.4636995 C21.594216,29.4526337 21.636776,29.430502 21.686056,29.4216494 C21.699496,29.417223 21.710696,29.4150099 21.721896,29.4105835 C23.504936,29.0431979 25.023656,28.288508 26.349736,27.3014357 C26.407976,29.1715615 26.808936,31.8273615 28.426216,33.9431489 C29.767976,35.69819 31.689896,36.7560837 34.133736,37.0814192 C34.183016,37.0880587 34.234536,37.092485 34.283816,37.092485 C34.837096,37.092485 35.316456,36.6896887 35.394856,36.1341839 C35.477736,35.5277762 35.047656,34.9700582 34.433896,34.888171" id="path-3"></path>
    </defs>
    <g id="Page-1" stroke="none" stroke-width="1" fill="none" fill-rule="evenodd">
        <g id="iPhone-8-Copy-14" transform="translate(-165.000000, -8492.000000)">
            <g id="Group-32" transform="translate(165.000000, 8492.000000)">
                <rect id="Rectangle-5-Copy" fill="#FFFFFF" x="0" y="0" width="140" height="144"></rect>
                <text id="피부-재생" font-family="AppleSDGothicNeo-Regular, Apple SD Gothic Neo" font-size="16" font-weight="normal" line-spacing="27" fill="#555555">
                    <tspan x="40.216" y="96">피부 재생</tspan>
                </text>
                <text id="탄박피술" font-family="NotoSansCJKkr-Bold, Noto Sans CJK KR" font-size="18" font-weight="bold" fill="#8D7047">
                    <tspan x="36.88" y="124">탄박피술</tspan>
                </text>
                <g id="Group-7" transform="translate(43.000000, 17.000000)">
                    <g id="-round/ver1/anti-aging" transform="translate(20.381818, 21.428571)">
                        <mask id="mask-2" fill="white">
                            <use xlink:href="#path-1"></use>
                        </mask>
                        <use id="Mask" fill="#231916" fill-rule="evenodd" xlink:href="#path-1"></use>
                        <g id="swatch/dark-brown1" mask="url(#mask-2)" fill="#6C573A" fill-rule="evenodd">
                            <rect id="Rectangle" x="0" y="0" width="41" height="39"></rect>
                        </g>
                    </g>
                    <g id="-round/ver1/face3" opacity="0.5">
                        <mask id="mask-4" fill="white">
                            <use xlink:href="#path-3"></use>
                        </mask>
                        <use id="Fill-1" fill="#613627" fill-rule="evenodd" xlink:href="#path-3"></use>
                        <g id="swatch/dark-brown1" mask="url(#mask-4)" fill="#6C573A" fill-rule="evenodd">
                            <rect id="Rectangle" x="0" y="0" width="44" height="42"></rect>
                        </g>
                    </g>
                </g>
            </g>
        </g>
    </g>
</svg>