<?xml version="1.0" encoding="UTF-8"?>
<svg width="140px" height="144px" viewBox="0 0 140 144" version="1.1" xmlns="http://www.w3.org/2000/svg" xmlns:xlink="http://www.w3.org/1999/xlink">
    <!-- Generator: Sketch 52.4 (67378) - http://www.bohemiancoding.com/sketch -->
    <title>Group 33</title>
    <desc>Created with Sketch.</desc>
    <defs>
        <path d="M24.2794271,8.59893778 L27.5198437,5.26593778 L28.5202604,6.29643778 L25.2813021,9.62943778 C25.2754687,9.63543778 25.2740104,9.64443778 25.2667187,9.65043778 L24.2590104,8.61393778 C24.2648437,8.60643778 24.2735937,8.60493778 24.2794271,8.59893778 Z M23.2221354,15.5034378 L22.0233854,14.2704378 C21.6544271,13.8894378 21.0535937,13.8894378 20.6831771,14.2704378 C20.3142187,14.6499378 20.3127604,15.2679378 20.6831771,15.6489378 L21.8819271,16.8819378 L20.6233854,18.1764378 L19.4246354,16.9434378 C19.0542187,16.5624378 18.4548437,16.5624378 18.0844271,16.9434378 C17.7140104,17.3244378 17.7140104,17.9424378 18.0844271,18.3219378 L19.2831771,19.5549378 L18.0231771,20.8509378 L13.5635937,16.2624378 L21.2898437,8.31693778 L25.7494271,12.9039378 L23.2221354,15.5034378 Z M11.6633854,26.6499378 L7.92567708,22.8054378 C7.72588542,22.5999378 7.72588542,22.2669378 7.92567708,22.0629378 L12.2233854,17.6424378 L16.6829687,22.2294378 L15.4244271,23.5239378 L14.2256771,22.2909378 C13.8552604,21.9114378 13.2544271,21.9114378 12.8854687,22.2909378 C12.5150521,22.6719378 12.5150521,23.2884378 12.8854687,23.6694378 L14.0842187,24.9024378 L12.3852604,26.6499378 C12.1869271,26.8539378 11.8617187,26.8539378 11.6633854,26.6499378 Z M8.05109375,26.9544378 C7.81921875,27.1929378 7.39776042,26.7579378 7.62963542,26.5209378 L8.24359375,25.8894378 L8.66505208,26.3229378 L8.05109375,26.9544378 Z M19.1694271,6.13593778 L19.9481771,6.93843778 L6.58546875,20.6844378 C5.64776042,21.6489378 5.64776042,23.2194378 6.58546875,24.1839378 L6.90338542,24.5094378 L6.28942708,25.1409378 C5.67546875,25.7739378 5.50921875,26.6889378 5.77755208,27.4794378 L1.73505208,31.6374378 C1.36609375,32.0184378 1.36609375,32.6364378 1.73505208,33.0174378 C2.10546875,33.3969378 2.70630208,33.3969378 3.07526042,33.0159378 L7.11776042,28.8579378 C7.88776042,29.1339378 8.77734375,28.9644378 9.39276042,28.3329378 L10.0052604,27.7014378 L10.3231771,28.0284378 C11.2608854,28.9929378 12.7877604,28.9929378 13.7269271,28.0284378 L27.0896354,14.2824378 L27.8698437,15.0849378 C28.2402604,15.4659378 28.8396354,15.4659378 29.2100521,15.0849378 C29.5804687,14.7039378 29.5804687,14.0874378 29.2100521,13.7064378 L26.6010937,11.0229378 C26.6069271,11.0154378 26.6156771,11.0139378 26.6215104,11.0079378 L29.8619271,7.67493778 L30.7588021,8.59893778 C31.1292187,8.97993778 31.7300521,8.97993778 32.0990104,8.59893778 C32.4694271,8.21943778 32.4694271,7.60143778 32.0990104,7.22043778 L26.8154687,1.78443778 C26.4450521,1.40493778 25.8442187,1.40493778 25.4738021,1.78593778 C25.1048437,2.16543778 25.1048437,2.78343778 25.4738021,3.16293778 L26.1796354,3.88743778 L22.9392187,7.22043778 C22.9333854,7.22643778 22.9319271,7.23543778 22.9246354,7.24293778 L20.5096354,4.75743778 C20.1392187,4.37643778 19.5398437,4.37643778 19.1694271,4.75593778 C18.7990104,5.13693778 18.7990104,5.75493778 19.1694271,6.13593778 Z" id="path-1"></path>
        <path d="M34.942724,17.7700917 C35.049811,17.9079877 35.1600476,18.0426768 35.2482369,18.2318829 C35.79942,19.3959816 35.7710734,21.1950432 35.1757957,22.9267602 C34.4828798,24.940683 33.2639778,26.2394707 32.1931078,26.6756069 C33.4403564,23.7092397 34.3253989,20.6370454 34.942724,17.7700917 M30.1112105,44.8458082 C27.0686799,40.7602388 27.9096278,34.3272307 27.9190767,34.263093 C27.9285255,34.1829209 27.9064782,34.1123695 27.9033286,34.0321974 C29.1064825,32.5634448 30.1332579,30.9279343 31.02145,29.1994241 C31.1726317,29.2186654 31.3206637,29.2763893 31.4718453,29.2763893 C33.8025624,29.2763893 36.2466657,27.0764673 37.4057249,23.7220673 C38.2120271,21.3778355 38.2025782,18.9309835 37.3773784,17.1864389 C36.9332823,16.2468221 36.2498153,15.6118592 35.4403635,15.2174125 C36.2718626,10.4263287 36.4009969,6.73199904 36.4104458,6.30869043 C36.4324931,5.42038373 35.7427268,4.68921431 34.876582,4.66676613 C33.8592555,4.65714548 33.2828755,5.34662541 33.2608282,6.22851834 C33.2545289,6.51072408 32.4293291,34.1636796 17.3174637,37.1268399 C16.4639174,37.2935978 15.9064351,38.1370082 16.0702152,39.0060736 C16.2150976,39.7725187 16.8765173,40.3048613 17.6166774,40.3048613 C17.7143156,40.3048613 17.8151033,40.2952407 17.9158911,40.2792063 C20.5332233,39.762898 22.7442549,38.6276613 24.6749705,37.1460812 C24.7568606,39.8591045 25.3174925,43.7073646 27.5915164,46.7699383 C29.481287,49.3162037 32.1805093,50.8458871 35.6167421,51.3172989 C35.6891833,51.3269196 35.7616245,51.3333333 35.8309161,51.3333333 C36.6057221,51.3333333 37.2828899,50.7496806 37.3899769,49.9447528 C37.5065127,49.0692737 36.9017861,48.2579322 36.0387909,48.1392775 C33.4340571,47.7801065 31.4970423,46.7025937 30.1112105,44.8458082 Z" id="path-3"></path>
    </defs>
    <g id="Page-1" stroke="none" stroke-width="1" fill="none" fill-rule="evenodd">
        <g id="iPhone-8-Copy-14" transform="translate(-15.000000, -8646.000000)">
            <g id="Group-33" transform="translate(15.000000, 8646.000000)">
                <rect id="Rectangle-5-Copy-2" fill="#FFFFFF" x="0" y="0" width="140" height="144"></rect>
                <text id="볼륨-업-copy" font-family="AppleSDGothicNeo-Regular, Apple SD Gothic Neo" font-size="16" font-weight="normal" line-spacing="27" fill="#555555">
                    <tspan x="47.136" y="96">볼륨 업</tspan>
                </text>
                <text id="필러-copy" font-family="NotoSansCJKkr-Bold, Noto Sans CJK KR" font-size="18" font-weight="bold" fill="#8D7047">
                    <tspan x="53.44" y="124">필러</tspan>
                </text>
                <g id="Group-4-Copy-2" transform="translate(42.000000, 13.000000)">
                    <g id="-round/ver1/syringe" transform="translate(39.414894, 45.088235) rotate(90.000000) translate(-39.414894, -45.088235) translate(21.829787, 27.176471)">
                        <mask id="mask-2" fill="white">
                            <use xlink:href="#path-1"></use>
                        </mask>
                        <use id="Mask" fill="#00A0E8" fill-rule="evenodd" xlink:href="#path-1"></use>
                        <g id="swatch/dark-brown1" mask="url(#mask-2)" fill="#6C573A" fill-rule="evenodd">
                            <rect id="Rectangle" x="0" y="0" width="36" height="36"></rect>
                        </g>
                    </g>
                    <g id="-round/ver1/neck" opacity="0.5">
                        <mask id="mask-4" fill="white">
                            <use xlink:href="#path-3"></use>
                        </mask>
                        <use id="Fill-4" fill="#613627" fill-rule="evenodd" xlink:href="#path-3"></use>
                        <g id="swatch/dark-brown1" mask="url(#mask-4)" fill="#6C573A" fill-rule="evenodd">
                            <rect id="Rectangle" x="0" y="0" width="57" height="56"></rect>
                        </g>
                    </g>
                </g>
            </g>
        </g>
    </g>
</svg>