<?xml version="1.0" encoding="UTF-8"?>
<svg width="140px" height="144px" viewBox="0 0 140 144" version="1.1" xmlns="http://www.w3.org/2000/svg" xmlns:xlink="http://www.w3.org/1999/xlink">
    <!-- Generator: Sketch 52.4 (67378) - http://www.bohemiancoding.com/sketch -->
    <title>Group 34</title>
    <desc>Created with Sketch.</desc>
    <defs>
        <path d="M27.6802339,18.7869711 C28.0305859,18.8838648 28.2386897,19.2525991 28.1438576,19.613259 C27.9699987,20.2619084 27.7803344,20.8755685 27.5748648,21.4596221 C27.4800327,21.7341542 27.2271471,21.9037182 26.9558218,21.9037182 C26.8820635,21.9037182 26.805671,21.8929522 26.7345469,21.8660373 C26.3920975,21.7395372 26.2129702,21.3546539 26.3367788,21.00476 C26.5290773,20.4530043 26.7108388,19.8743336 26.8715266,19.2606736 C26.9689929,18.9027052 27.3272476,18.6927689 27.6802339,18.7869711 Z M21.3957617,28.3754093 C21.6776239,28.1412495 22.0938315,28.1870049 22.3230092,28.4749945 C22.5495526,28.7656756 22.507405,29.1882397 22.2229086,29.419708 C21.7171373,29.8395806 21.1876579,30.2217724 20.6476417,30.5582088 C20.5396384,30.6254961 20.4210982,30.6551025 20.3025581,30.6551025 C20.0812831,30.6551025 19.8652766,30.5420599 19.741468,30.3348151 C19.5518038,30.0172191 19.6492701,29.6027294 19.9601088,29.408942 C20.452709,29.1048035 20.9347722,28.7549096 21.3957617,28.3754093 Z M25.6558315,22.6864039 C25.8112508,22.3499675 26.2037504,22.2046269 26.5330286,22.3607334 C26.8623068,22.5195314 27.004555,22.9178721 26.8491357,23.2570001 C26.5672735,23.8706601 26.269606,24.4439478 25.9587674,24.9795546 C25.8349588,25.1921824 25.6163181,25.3079165 25.3924089,25.3079165 C25.276503,25.3079165 25.160597,25.2783101 25.055228,25.2137143 C24.7417552,25.0226184 24.6390204,24.6108202 24.8260504,24.2932243 C25.1158152,23.7926069 25.3950431,23.2596916 25.6558315,22.6864039 Z M31.4669332,19.730608 C31.6618659,20.0455125 31.569668,20.4600022 31.2614636,20.6591725 C31.1534604,20.7291513 31.0296518,20.7641407 30.9111116,20.7641407 C30.6924709,20.7641407 30.4790986,20.6537896 30.3526558,20.4492362 L28.5903588,17.6043298 C28.5824562,17.6447021 28.5771877,17.693149 28.569285,17.7308299 C28.5086978,18.0511174 28.2321041,18.2745111 27.9238997,18.2745111 C27.8817521,18.2745111 27.8396045,18.2718196 27.7974569,18.2637452 C27.4392022,18.1910749 27.2073904,17.8384895 27.2758802,17.4751382 C27.2837829,17.4374573 27.2890514,17.3943934 27.2943198,17.3567126 L24.6627284,19.4964482 C24.541554,19.5933419 24.3966716,19.6390973 24.2544234,19.6390973 C24.0594907,19.6390973 23.8671922,19.5529696 23.7381152,19.3887886 C23.5115718,19.095416 23.5589878,18.6728519 23.8434842,18.4413836 L27.8079938,15.2196684 C27.8079938,15.2196684 27.810628,15.2196684 27.8132623,15.2169769 C27.8237992,15.2089024 27.8369703,15.2142854 27.844873,15.2062109 C27.8554099,15.1981364 27.8554099,15.184679 27.8659468,15.1766045 C27.9318024,15.1335406 28.0108292,15.1523811 28.0845875,15.1362321 C28.1583458,15.1227747 28.2242015,15.0689449 28.2979598,15.0797108 C28.300594,15.0797108 28.300594,15.0770193 28.3032282,15.0770193 C28.3137651,15.0797108 28.3190336,15.0931683 28.3322047,15.0931683 C28.4112315,15.1093172 28.463916,15.1712215 28.5350401,15.2142854 C28.6008957,15.2546578 28.6825567,15.2600407 28.732607,15.327328 C28.7352412,15.3300195 28.732607,15.332711 28.7352412,15.332711 C28.7431439,15.343477 28.7405097,15.3569344 28.7484124,15.3650089 C28.756315,15.3757749 28.7694862,15.3757749 28.7747546,15.3865408 L31.4669332,19.730608 Z M18.4064425,30.2352299 C18.7409891,30.0871978 19.1282203,30.2433043 19.2704685,30.5878153 C19.4153509,30.9296347 19.2599316,31.3225924 18.9253849,31.4706244 C18.0429193,31.8581992 17.3053362,32.0546781 17.1393799,32.0546781 C16.7758568,32.0546781 16.4808235,31.7505395 16.4808235,31.3818052 C16.4808235,31.0130709 16.7653199,30.7170068 17.1235746,30.7089324 C17.1077692,30.6981664 17.6346144,30.5743578 18.4064425,30.2352299 Z M23.8382158,25.7891552 C24.0594907,25.4903996 24.4730641,25.4365698 24.7601947,25.6599636 C25.0499596,25.8860489 25.1079125,26.3059215 24.8866376,26.6019856 C24.4967722,27.1295179 24.0779303,27.6301353 23.6406488,28.0930719 C23.5089376,28.2330294 23.3377129,28.3003167 23.1664882,28.3003167 C23.000532,28.3003167 22.83721,28.2384124 22.708133,28.1119123 C22.4473446,27.8562206 22.4394419,27.4282735 22.6896934,27.1618158 C23.0795588,26.7500176 23.4641557,26.2951556 23.8382158,25.7891552 Z" id="path-1"></path>
        <path d="M27.6802339,18.7869711 C28.0305859,18.8838648 28.2386897,19.2525991 28.1438576,19.613259 C27.9699987,20.2619084 27.7803344,20.8755685 27.5748648,21.4596221 C27.4800327,21.7341542 27.2271471,21.9037182 26.9558218,21.9037182 C26.8820635,21.9037182 26.805671,21.8929522 26.7345469,21.8660373 C26.3920975,21.7395372 26.2129702,21.3546539 26.3367788,21.00476 C26.5290773,20.4530043 26.7108388,19.8743336 26.8715266,19.2606736 C26.9689929,18.9027052 27.3272476,18.6927689 27.6802339,18.7869711 Z M21.3957617,28.3754093 C21.6776239,28.1412495 22.0938315,28.1870049 22.3230092,28.4749945 C22.5495526,28.7656756 22.507405,29.1882397 22.2229086,29.419708 C21.7171373,29.8395806 21.1876579,30.2217724 20.6476417,30.5582088 C20.5396384,30.6254961 20.4210982,30.6551025 20.3025581,30.6551025 C20.0812831,30.6551025 19.8652766,30.5420599 19.741468,30.3348151 C19.5518038,30.0172191 19.6492701,29.6027294 19.9601088,29.408942 C20.452709,29.1048035 20.9347722,28.7549096 21.3957617,28.3754093 Z M25.6558315,22.6864039 C25.8112508,22.3499675 26.2037504,22.2046269 26.5330286,22.3607334 C26.8623068,22.5195314 27.004555,22.9178721 26.8491357,23.2570001 C26.5672735,23.8706601 26.269606,24.4439478 25.9587674,24.9795546 C25.8349588,25.1921824 25.6163181,25.3079165 25.3924089,25.3079165 C25.276503,25.3079165 25.160597,25.2783101 25.055228,25.2137143 C24.7417552,25.0226184 24.6390204,24.6108202 24.8260504,24.2932243 C25.1158152,23.7926069 25.3950431,23.2596916 25.6558315,22.6864039 Z M31.4669332,19.730608 C31.6618659,20.0455125 31.569668,20.4600022 31.2614636,20.6591725 C31.1534604,20.7291513 31.0296518,20.7641407 30.9111116,20.7641407 C30.6924709,20.7641407 30.4790986,20.6537896 30.3526558,20.4492362 L28.5903588,17.6043298 C28.5824562,17.6447021 28.5771877,17.693149 28.569285,17.7308299 C28.5086978,18.0511174 28.2321041,18.2745111 27.9238997,18.2745111 C27.8817521,18.2745111 27.8396045,18.2718196 27.7974569,18.2637452 C27.4392022,18.1910749 27.2073904,17.8384895 27.2758802,17.4751382 C27.2837829,17.4374573 27.2890514,17.3943934 27.2943198,17.3567126 L24.6627284,19.4964482 C24.541554,19.5933419 24.3966716,19.6390973 24.2544234,19.6390973 C24.0594907,19.6390973 23.8671922,19.5529696 23.7381152,19.3887886 C23.5115718,19.095416 23.5589878,18.6728519 23.8434842,18.4413836 L27.8079938,15.2196684 C27.8079938,15.2196684 27.810628,15.2196684 27.8132623,15.2169769 C27.8237992,15.2089024 27.8369703,15.2142854 27.844873,15.2062109 C27.8554099,15.1981364 27.8554099,15.184679 27.8659468,15.1766045 C27.9318024,15.1335406 28.0108292,15.1523811 28.0845875,15.1362321 C28.1583458,15.1227747 28.2242015,15.0689449 28.2979598,15.0797108 C28.300594,15.0797108 28.300594,15.0770193 28.3032282,15.0770193 C28.3137651,15.0797108 28.3190336,15.0931683 28.3322047,15.0931683 C28.4112315,15.1093172 28.463916,15.1712215 28.5350401,15.2142854 C28.6008957,15.2546578 28.6825567,15.2600407 28.732607,15.327328 C28.7352412,15.3300195 28.732607,15.332711 28.7352412,15.332711 C28.7431439,15.343477 28.7405097,15.3569344 28.7484124,15.3650089 C28.756315,15.3757749 28.7694862,15.3757749 28.7747546,15.3865408 L31.4669332,19.730608 Z M18.4064425,30.2352299 C18.7409891,30.0871978 19.1282203,30.2433043 19.2704685,30.5878153 C19.4153509,30.9296347 19.2599316,31.3225924 18.9253849,31.4706244 C18.0429193,31.8581992 17.3053362,32.0546781 17.1393799,32.0546781 C16.7758568,32.0546781 16.4808235,31.7505395 16.4808235,31.3818052 C16.4808235,31.0130709 16.7653199,30.7170068 17.1235746,30.7089324 C17.1077692,30.6981664 17.6346144,30.5743578 18.4064425,30.2352299 Z M23.8382158,25.7891552 C24.0594907,25.4903996 24.4730641,25.4365698 24.7601947,25.6599636 C25.0499596,25.8860489 25.1079125,26.3059215 24.8866376,26.6019856 C24.4967722,27.1295179 24.0779303,27.6301353 23.6406488,28.0930719 C23.5089376,28.2330294 23.3377129,28.3003167 23.1664882,28.3003167 C23.000532,28.3003167 22.83721,28.2384124 22.708133,28.1119123 C22.4473446,27.8562206 22.4394419,27.4282735 22.6896934,27.1618158 C23.0795588,26.7500176 23.4641557,26.2951556 23.8382158,25.7891552 Z" id="path-3"></path>
        <path d="M36.8227547,15.748736 C36.8644613,15.8156052 36.9159813,15.865138 36.9527813,15.9443904 C37.3821147,16.8434104 37.3600347,18.2328048 36.8963547,19.5701898 C36.3958747,21.009117 35.551928,21.9403332 34.7693147,22.3489786 C35.6893147,20.1472466 36.354168,17.8761688 36.8227547,15.748736 M9.98574133,19.5701898 C9.62510133,18.5324781 9.526968,17.4378037 9.72078133,16.5709801 C9.77230133,16.3356994 9.87043467,16.1672879 9.95875467,15.9840167 C10.4126213,18.0024774 11.043128,20.1373401 11.9017947,22.2177168 C11.1805147,21.7521086 10.439608,20.8753785 9.98574133,19.5701898 M37.7133147,39.0415247 C35.684408,38.7641412 34.1731547,37.9344671 33.0961413,36.4980166 C30.7262213,33.3427786 31.378808,28.374641 31.386168,28.3251083 C31.3959813,28.2656689 31.3763547,28.2087062 31.3763547,28.1467903 C32.3086213,27.0199196 33.1035013,25.761787 33.792888,24.4367852 C33.866488,24.4417385 33.9351813,24.4739348 34.0112347,24.4739348 C35.8267013,24.4739348 37.730488,22.7749605 38.6333147,20.1868729 C39.2638213,18.3739732 39.254008,16.4867744 38.6112347,15.1370062 C38.2923013,14.4633604 37.7991813,14.0101355 37.2324613,13.698079 C37.8948613,9.95835426 37.995448,7.06564003 38.002808,6.73624706 C38.017528,6.05021809 37.4827013,5.48306778 36.8055813,5.46820795 C36.0180613,5.41124526 35.566648,5.99325539 35.5494747,6.67433109 C35.544568,6.88979867 34.896888,27.9313227 23.363768,30.4649243 C11.845368,27.9337993 11.182968,6.88979867 11.1780613,6.67433109 C11.1633413,5.99325539 10.689848,5.48059114 9.92195467,5.46820795 C9.24483467,5.48306778 8.710008,6.05021809 8.724728,6.73624706 C8.73454133,7.06564003 8.835128,9.98064401 9.50243467,13.7401818 C8.732088,14.2181731 8.17027467,15.0453705 7.922488,16.1648113 C7.65507467,17.380841 7.77038133,18.807385 8.24878133,20.1868729 C9.151608,22.7749605 11.057848,24.4739348 12.8733147,24.4739348 C12.9003013,24.4739348 12.9223813,24.4615516 12.949368,24.4615516 C13.655928,25.8212263 14.480248,27.1041253 15.4468613,28.2532857 C15.4493147,28.2780521 15.4395013,28.3003419 15.4419547,28.3275849 C15.4493147,28.3771177 16.1166213,33.3155356 13.7393413,36.4905867 C12.662328,37.9295139 11.1510747,38.7641412 9.11726133,39.0415247 C8.445048,39.1331604 7.974008,39.7572734 8.06478133,40.4358724 C8.14819467,41.0575088 8.67566133,41.5082571 9.27918133,41.5082571 C9.33315467,41.5082571 9.38958133,41.5033038 9.446008,41.4958739 C12.1225947,41.1318079 14.2251013,39.9479746 15.6971013,37.9839999 C17.446328,35.6460528 17.8928347,32.7211423 17.9639813,30.6283824 C19.3942747,31.6958138 21.0281947,32.510628 22.9344347,32.9118435 C22.9467013,32.9167968 22.9614213,32.9192734 22.973688,32.9242267 C23.0276613,32.9341332 23.0742747,32.9588996 23.1307013,32.9712828 C23.2067547,32.983666 23.282808,32.9910959 23.3588613,32.9910959 C23.3613147,32.9910959 23.3613147,32.9910959 23.3613147,32.9910959 L23.363768,32.9910959 C23.3662213,32.9910959 23.3662213,32.9910959 23.3662213,32.9910959 C23.4422747,32.9910959 23.518328,32.983666 23.5943813,32.9712828 C23.650808,32.9588996 23.6974213,32.9341332 23.7513947,32.9242267 C23.7661147,32.9192734 23.7783813,32.9167968 23.790648,32.9118435 C25.7435013,32.5007214 27.4068613,31.6561876 28.8592347,30.5516066 C28.9230213,32.6443665 29.362168,35.6163331 31.1334747,37.9839999 C32.6030213,39.9479746 34.7079813,41.1318079 37.384568,41.4958739 C37.4385413,41.5033038 37.494968,41.5082571 37.5489413,41.5082571 C38.1549147,41.5082571 38.679928,41.0575088 38.7657947,40.4358724 C38.856568,39.7572734 38.385528,39.1331604 37.7133147,39.0415247" id="path-5"></path>
    </defs>
    <g id="Page-1" stroke="none" stroke-width="1" fill="none" fill-rule="evenodd">
        <g id="iPhone-8-Copy-14" transform="translate(-165.000000, -8646.000000)">
            <g id="Group-34" transform="translate(165.000000, 8646.000000)">
                <rect id="Rectangle-5-Copy-3" fill="#FFFFFF" x="0" y="0" width="140" height="144"></rect>
                <g id="Group-9-Copy" transform="translate(26.000000, 18.000000)">
                    <g id="-round/ver1/face3-arrow" opacity="0.5" transform="translate(61.500000, 27.000000) rotate(-9.000000) translate(-61.500000, -27.000000) translate(38.500000, 3.566038)">
                        <mask id="mask-2" fill="white">
                            <use xlink:href="#path-1"></use>
                        </mask>
                        <use id="Fill-4" fill="#613627" fill-rule="evenodd" xlink:href="#path-1"></use>
                        <g id="swatch/dark-brown1" mask="url(#mask-2)" fill="#6C573A" fill-rule="evenodd">
                            <rect id="Rectangle" x="0" y="0" width="48" height="47"></rect>
                        </g>
                    </g>
                    <g id="-round/ver1/face3-arrow" opacity="0.5" transform="translate(26.500000, 27.000000) scale(-1, 1) rotate(-9.000000) translate(-26.500000, -27.000000) translate(3.500000, 3.566038)">
                        <mask id="mask-4" fill="white">
                            <use xlink:href="#path-3"></use>
                        </mask>
                        <use id="Fill-4" fill="#613627" fill-rule="evenodd" xlink:href="#path-3"></use>
                        <g id="swatch/dark-brown1" mask="url(#mask-4)" fill="#6C573A" fill-rule="evenodd">
                            <rect id="Rectangle" x="0" y="0" width="48" height="47"></rect>
                        </g>
                    </g>
                    <g id="-round/ver1/face3" transform="translate(20.500000, 3.566038)">
                        <mask id="mask-6" fill="white">
                            <use xlink:href="#path-5"></use>
                        </mask>
                        <use id="Fill-1" fill="#613627" fill-rule="evenodd" xlink:href="#path-5"></use>
                        <g id="swatch/dark-brown1" mask="url(#mask-6)" fill="#6C573A" fill-rule="evenodd">
                            <rect id="Rectangle" x="0" y="0" width="48" height="47"></rect>
                        </g>
                    </g>
                </g>
                <text id="주름을-팽팽하게-copy" font-family="AppleSDGothicNeo-Regular, Apple SD Gothic Neo" font-size="16" font-weight="normal" line-spacing="27" fill="#555555">
                    <tspan x="19.456" y="96">주름을 팽팽하게</tspan>
                </text>
                <text id="안면-리프팅-copy" font-family="NotoSansCJKkr-Bold, Noto Sans CJK KR" font-size="18" font-weight="bold" fill="#8D7047">
                    <tspan x="26.557" y="124">안면 리프팅</tspan>
                </text>
            </g>
        </g>
    </g>
</svg>