<?xml version="1.0" encoding="UTF-8"?>
<svg width="140px" height="144px" viewBox="0 0 140 144" version="1.1" xmlns="http://www.w3.org/2000/svg" xmlns:xlink="http://www.w3.org/1999/xlink">
    <!-- Generator: Sketch 52.4 (67378) - http://www.bohemiancoding.com/sketch -->
    <title>Group 35</title>
    <desc>Created with Sketch.</desc>
    <defs>
        <path d="M30.6565699,26.9444696 C30.4835353,26.8874253 30.3850387,26.694561 30.4409422,26.5152787 C30.5767078,26.094237 30.7257837,25.656897 30.890832,25.2168405 C30.9547217,25.042991 31.1463908,24.9506335 31.3194253,25.0212598 C31.4897978,25.0864534 31.5776461,25.2847504 31.5110943,25.4585999 C31.3513701,25.8877908 31.2076184,26.3142653 31.0771769,26.7244414 C31.0292597,26.8684105 30.8988182,26.960768 30.7603906,26.960768 C30.7257837,26.960768 30.6911768,26.9553352 30.6565699,26.9444696 Z M31.7094186,24.4203926 C31.6641634,24.4203926 31.6189082,24.4122434 31.573653,24.3905122 C31.4059426,24.3144531 31.3314046,24.1134396 31.4059426,23.9423066 C31.5869633,23.5266977 31.7812945,23.1110888 31.991598,22.6981963 C32.0794463,22.5352124 32.2817636,22.4700188 32.4414878,22.5542272 C32.6038741,22.6438683 32.6677638,22.8475982 32.5825775,23.0132984 C32.3775981,23.412609 32.1885912,23.8173523 32.0128945,24.2193792 C31.9569911,24.3443335 31.8371979,24.4203926 31.7094186,24.4203926 Z M39.8021115,17.0869329 C39.8473667,17.1602757 39.9032701,17.2118873 39.9432012,17.3015284 C40.4090634,18.2875809 40.3851048,19.8114801 39.8819736,21.278335 C39.3389113,22.8565623 38.4231592,23.8779279 37.5739588,24.3261336 C38.5722351,21.9112558 39.2936561,19.4230352 39.8021115,17.0869329 M10.6817274,21.278335 C10.2904031,20.1401643 10.1839203,18.9395164 10.3942238,17.9887771 C10.4501273,17.7307193 10.5566101,17.5460042 10.6524446,17.3449908 C11.1449276,19.5615715 11.8290796,21.9003902 12.7608041,24.1821645 C11.9781555,23.6714817 11.1742103,22.7098768 10.6817274,21.278335 M40.7684429,42.6346561 C38.566911,42.3304195 36.9270758,41.4204262 35.7584271,39.8449153 C33.1868674,36.3842243 33.8949781,30.9351299 33.9029643,30.880802 C33.9136126,30.812892 33.892316,30.7531312 33.892316,30.6852213 C34.9039026,29.4492602 35.7664133,28.06933 36.514455,26.6160571 C36.5943171,26.6214899 36.668855,26.6568031 36.7513792,26.6568031 C38.721311,26.6568031 40.7870774,24.7933541 41.7667191,21.9547181 C42.4508711,19.9663148 42.4402229,17.8964195 41.7427605,16.4159826 C41.3966914,15.6798388 40.8616153,15.1800216 40.2466772,14.835039 C40.9654361,10.7359944 41.0745809,7.56324158 41.0825672,7.20196065 C41.0985396,6.44951841 40.5182083,5.82746327 39.783477,5.81116488 C38.9289525,5.81388128 38.4391316,6.38704125 38.4204971,7.1340507 C38.417835,7.23727382 38.2820695,11.6106746 37.1267311,16.7636816 C36.8285792,16.951113 36.5304274,17.1385445 36.248248,17.3558563 C36.099172,17.4699451 36.0698893,17.6818241 36.1816962,17.831226 C36.248248,17.9208671 36.3467446,17.9670459 36.4479032,17.9670459 C36.517117,17.9670459 36.5863309,17.9453147 36.6475585,17.8991359 C36.7274206,17.8393752 36.8099447,17.7931964 36.8898068,17.7361521 C35.7318064,22.451819 33.6793504,27.5830948 30.1121765,30.6797885 C30.1148386,30.6662065 30.1175007,30.6553409 30.1201628,30.6390425 C30.1521076,30.4516111 30.0323144,30.2750452 29.8512937,30.2451648 C29.6516384,30.212568 29.4972384,30.334806 29.4652935,30.519521 C29.406728,30.8590708 29.3667969,31.1252778 29.3348521,31.3480224 C28.1236102,32.2362846 26.7499821,32.8827873 25.1979953,33.2277698 C23.3718152,32.8230265 21.8145043,31.9673612 20.4568485,30.8291904 C20.4435382,30.7259673 20.4275658,30.6336097 20.4089313,30.519521 C20.3769864,30.334806 20.2172622,30.2098516 20.0229311,30.2451648 C19.9643656,30.2560304 19.9244345,30.2994928 19.8845035,30.334806 C16.6021711,27.2462614 14.6774945,22.397491 13.5541009,17.9018523 C13.6020182,17.8801212 13.6579217,17.8801212 13.6925286,17.831226 C13.8016735,17.6818241 13.7723907,17.4699451 13.6259768,17.3558563 C13.5434527,17.2933792 13.4529423,17.244484 13.367756,17.1820069 C12.1219073,11.8470012 11.9781555,7.23999022 11.9754934,7.1340507 C11.959521,6.38704125 11.4324311,5.79215009 10.6125136,5.81116488 C9.87778222,5.82746327 9.29745096,6.44951841 9.31342338,7.20196065 C9.32407166,7.56324158 9.43321653,10.7577256 10.1572996,14.8839342 C9.32140959,15.4054826 8.71179555,16.3127595 8.44292648,17.5432878 C8.15276084,18.8770392 8.27787813,20.4416845 8.79698179,21.9547181 C9.77662356,24.7933541 11.845052,26.6568031 13.8149838,26.6568031 C13.8442666,26.6568031 13.8682252,26.6432211 13.897508,26.6432211 C14.6641841,28.1345236 15.5586397,29.5416177 16.6074953,30.8020264 C16.6101573,30.8291904 16.5995091,30.8563544 16.6021711,30.8835184 C16.6101573,30.9378463 17.3342404,36.3543439 14.7546945,39.8367661 C13.5860458,41.4149934 11.9462106,42.3304195 9.73935458,42.6346561 C9.00994739,42.7351628 8.49882995,43.4196951 8.59732654,44.1639881 C8.68783692,44.845804 9.26018198,45.3401885 9.9150512,45.3401885 C9.97361674,45.3401885 10.0348444,45.3347557 10.096072,45.3266065 C13.0003904,44.927296 15.2817844,43.6288577 16.8790264,41.4747541 C18.7770823,38.9104744 19.2615791,35.7024084 19.3387791,33.4070521 C20.8907659,34.5778196 22.6637046,35.4687982 24.732133,35.911571 C24.7454434,35.9170038 24.7614158,35.9197202 24.7747261,35.925153 C24.8332917,35.9360186 24.883871,35.9631826 24.9450986,35.9767646 C25.0276228,35.9903466 25.110147,35.9984958 25.1926711,35.9984958 L25.1953332,35.9984958 L25.1979953,35.9984958 L25.2006573,35.9984958 C25.2831815,35.9984958 25.3657057,35.9903466 25.4482298,35.9767646 C25.5094575,35.9631826 25.5600368,35.9360186 25.6186023,35.925153 C25.6345747,35.9197202 25.6478851,35.9170038 25.6611954,35.911571 C27.7802032,35.4579326 29.5850867,34.5343573 31.1610321,33.3228437 C31.230246,35.6209165 31.7067565,38.8778776 33.6287711,41.4747541 C35.223351,43.6288577 37.5074071,44.927296 40.4117255,45.3266065 C40.470291,45.3347557 40.5315187,45.3401885 40.5900842,45.3401885 C41.2476155,45.3401885 41.8172985,44.845804 41.9104709,44.1639881 C42.0089675,43.4196951 41.4978501,42.7351628 40.7684429,42.6346561 M32.9427556,22.0131207 C32.8841901,22.0131207 32.8229625,21.9968223 32.7697211,21.9642255 C32.6126589,21.8664352 32.5620796,21.6572726 32.6579141,21.4970051 C32.9001625,21.0949782 33.1530591,20.7065333 33.4112799,20.3425359 C33.5204248,20.1904177 33.7307283,20.1605373 33.8771422,20.2691932 C34.0262181,20.3778491 34.058163,20.5924446 33.9490181,20.7445628 C33.6934594,21.1031274 33.451211,21.4725575 33.2275971,21.8501368 C33.1637074,21.9560763 33.0545626,22.0131207 32.9427556,22.0131207 Z M34.5077866,19.8193577 C34.4305866,19.8193577 34.3507245,19.7921937 34.2894968,19.7351493 C34.1510692,19.6129114 34.1350968,19.398316 34.257552,19.2570633 C34.5636901,18.8984988 34.8804764,18.5616654 35.2025869,18.2547124 C35.3330283,18.1270417 35.5433318,18.1324745 35.6711112,18.2710108 C35.7988905,18.4068307 35.7909043,18.6214262 35.6578008,18.7490969 C35.3516628,19.0397515 35.0508489,19.3630028 34.7580212,19.7025526 C34.6914694,19.7786117 34.600959,19.8193577 34.5077866,19.8193577 Z M29.9817351,29.576116 C29.8033764,29.5326536 29.6915695,29.350655 29.7315005,29.1686563 C29.8220109,28.7557638 29.9311558,28.3075581 30.0589351,27.8349049 C30.1068524,27.6556226 30.282549,27.5496831 30.4688939,27.5958619 C30.6445906,27.6474734 30.7484113,27.8321885 30.700494,28.0141872 C30.5753767,28.4786912 30.471556,28.9160313 30.3810456,29.3207746 C30.3464387,29.4783257 30.2080111,29.5842652 30.0562731,29.5842652 C30.0323144,29.5842652 30.0056937,29.5815488 29.9817351,29.576116 Z M15.1143402,19.7025526 C14.8241746,19.3630028 14.5206986,19.0397515 14.2172226,18.7490969 C14.081457,18.6214262 14.0734708,18.4068307 14.2012502,18.2710108 C14.3263675,18.1324745 14.5393331,18.1270417 14.6697745,18.2547124 C14.991885,18.5616654 15.3113334,18.8984988 15.6148094,19.2570633 C15.7372646,19.398316 15.7239542,19.6129114 15.5828645,19.7351493 C15.5216369,19.7921937 15.4444369,19.8193577 15.3645748,19.8193577 C15.2740644,19.8193577 15.1808919,19.7786117 15.1143402,19.7025526 Z M17.8594668,24.2188359 C17.6837702,23.816809 17.4947632,23.4147821 17.2897838,23.0154716 C17.2045976,22.8470549 17.2684873,22.643325 17.4308735,22.5564003 C17.5932598,22.4694756 17.7955771,22.5319527 17.8807634,22.697653 C18.0910669,23.1105455 18.2880601,23.5288708 18.4690808,23.9417633 C18.5409567,24.1128964 18.4664188,24.3139098 18.2987084,24.3899689 C18.2534532,24.4117001 18.208198,24.4198493 18.1629428,24.4198493 C18.0351634,24.4198493 17.9153703,24.3437902 17.8594668,24.2188359 Z M18.361267,25.4591432 C18.2947153,25.2852937 18.3825636,25.0869967 18.552936,25.0218031 C18.7233085,24.9511768 18.9149776,25.0408179 18.9815293,25.2173838 C19.1465777,25.6574403 19.2956536,26.0920639 19.4314192,26.515822 C19.4873226,26.6951043 19.3914881,26.8852521 19.2157915,26.9450129 C19.1838466,26.9558785 19.1465777,26.9613113 19.1146328,26.9613113 C18.9735431,26.9613113 18.8431017,26.8689538 18.7978465,26.7249847 C18.6674051,26.3120922 18.5209912,25.8883341 18.361267,25.4591432 Z M19.1723997,28.0150021 C19.1244825,27.8330034 19.2283032,27.6482883 19.4039998,27.5966768 C19.5876827,27.5477816 19.7660414,27.6564375 19.8139586,27.8357198 C19.941738,28.3083731 20.0508829,28.7565787 20.1413932,29.1694712 C20.1813243,29.3514699 20.0695173,29.5334685 19.8911587,29.5769309 C19.8672,29.5823637 19.8405793,29.5850801 19.8166207,29.5850801 C19.6648827,29.5850801 19.5264551,29.4791406 19.4918481,29.3188731 C19.4013378,28.9168462 19.297517,28.4767897 19.1723997,28.0150021 Z M16.6455629,21.8498652 C16.421949,21.4722859 16.1797006,21.1028557 15.9241419,20.7442912 C15.814997,20.5921729 15.8469419,20.3775775 15.9960178,20.2689216 C16.1450937,20.1575492 16.3527352,20.190146 16.46188,20.3422643 C16.7201008,20.7062616 16.9729975,21.0947065 17.2152459,21.4967334 C17.3110804,21.6570009 17.260501,21.8661636 17.1034389,21.9639539 C17.0501975,21.9965507 16.9889699,22.0128491 16.9304044,22.0128491 C16.8185974,22.0128491 16.7094525,21.9558047 16.6455629,21.8498652 Z" id="path-1"></path>
    </defs>
    <g id="Page-1" stroke="none" stroke-width="1" fill="none" fill-rule="evenodd">
        <g id="iPhone-8-Copy-14" transform="translate(-15.000000, -8800.000000)">
            <g id="Group-35" transform="translate(15.000000, 8800.000000)">
                <rect id="Rectangle-5-Copy-4" fill="#FFFFFF" x="0" y="0" width="140" height="144"></rect>
                <g id="-round/ver1/face2" transform="translate(45.000000, 16.000000)">
                    <mask id="mask-2" fill="white">
                        <use xlink:href="#path-1"></use>
                    </mask>
                    <use id="Fill-4" fill="#613627" fill-rule="evenodd" xlink:href="#path-1"></use>
                    <g id="swatch/dark-brown1" mask="url(#mask-2)" fill="#6C573A" fill-rule="evenodd">
                        <rect id="Rectangle" x="0" y="0" width="51" height="50"></rect>
                    </g>
                </g>
                <text id="탱탱하게-채워주는-copy" font-family="AppleSDGothicNeo-Regular, Apple SD Gothic Neo" font-size="16" font-weight="normal" line-spacing="27" fill="#555555">
                    <tspan x="12.536" y="96">탱탱하게 채워주는</tspan>
                </text>
                <text id="지방이식-copy" font-family="NotoSansCJKkr-Bold, Noto Sans CJK KR" font-size="18" font-weight="bold" fill="#8D7047">
                    <tspan x="36.88" y="124">지방이식</tspan>
                </text>
            </g>
        </g>
    </g>
</svg>