<?xml version="1.0" encoding="UTF-8"?>
<svg width="320px" height="569px" viewBox="0 0 320 569" version="1.1" xmlns="http://www.w3.org/2000/svg" xmlns:xlink="http://www.w3.org/1999/xlink">
    <!-- Generator: Sketch 52.4 (67378) - http://www.bohemiancoding.com/sketch -->
    <title>Group 29</title>
    <desc>Created with Sketch.</desc>
    <defs>
        <path d="M750,94.0072742 L751,94 L751,549 L1,549 L1,144 L0,144 L0,0 L13.3386776,0 C14.2405259,4.66690909 18.1423371,8.18181818 22.8313285,8.18181818 C27.52032,8.18181818 31.4221311,4.66690909 32.3208803,0 L45.3558427,0 C46.2545919,4.66690909 50.1595022,8.18181818 54.8453945,8.18181818 C59.5343859,8.18181818 63.4392962,4.66690909 64.3380454,0 L77.3761069,0 C78.271757,4.66690909 82.1766672,8.18181818 86.8625596,8.18181818 C91.551551,8.18181818 95.4564613,4.66690909 96.3521113,0 L109.390173,0 C110.285823,4.66690909 114.190733,8.18181818 118.876625,8.18181818 C123.565617,8.18181818 127.470527,4.66690909 128.366177,0 L141.404239,0 C142.299889,4.66690909 146.204799,8.18181818 150.890691,8.18181818 C155.576584,8.18181818 159.484593,4.66690909 160.380243,0 L173.418305,0 C174.317054,4.66690909 178.221964,8.18181818 182.907857,8.18181818 C187.596848,8.18181818 191.501758,4.66690909 192.400507,0 L205.432371,0 C206.33112,4.66690909 210.239129,8.18181818 214.921922,8.18181818 C219.610914,8.18181818 223.515824,4.66690909 224.414573,0 L237.452635,0 C238.348285,4.66690909 242.256294,8.18181818 246.939088,8.18181818 C251.628079,8.18181818 255.532989,4.66690909 256.428639,0 L269.466701,0 C270.362351,4.66690909 274.27036,8.18181818 278.956253,8.18181818 C283.642145,8.18181818 287.547055,4.66690909 288.442705,0 L301.477668,0 C302.376417,4.66690909 306.278228,8.18181818 310.970319,8.18181818 C315.650013,8.18181818 319.561121,4.66690909 320.456771,0 L333.494833,0 C334.393582,4.66690909 338.298492,8.18181818 342.987484,8.18181818 C347.673376,8.18181818 351.578286,4.66690909 352.477035,0 L365.508899,0 C366.407648,4.66690909 370.315657,8.18181818 375.00155,8.18181818 C379.687442,8.18181818 383.592352,4.66690909 384.491101,0 L397.522965,0 C398.421714,4.66690909 402.329723,8.18181818 407.015616,8.18181818 C411.704607,8.18181818 415.606418,4.66690909 416.505167,0 L429.543229,0 C430.438879,4.66690909 434.346888,8.18181818 439.032781,8.18181818 C443.721772,8.18181818 447.623583,4.66690909 448.519233,0 L461.557295,0 C462.452945,4.66690909 466.357855,8.18181818 471.046847,8.18181818 C475.732739,8.18181818 479.637649,4.66690909 480.533299,0 L493.571361,0 C494.47011,4.66690909 498.37502,8.18181818 503.060912,8.18181818 C507.749904,8.18181818 511.651715,4.66690909 512.550464,0 L525.588526,0 C526.487275,4.66690909 530.392185,8.18181818 535.078078,8.18181818 C539.767069,8.18181818 543.671979,4.66690909 544.570728,0 L557.602592,0 C558.501341,4.66690909 562.406251,8.18181818 567.092143,8.18181818 C571.781135,8.18181818 575.686045,4.66690909 576.584794,0 L589.619757,0 C590.515407,4.66690909 594.423416,8.18181818 599.106209,8.18181818 C603.795201,8.18181818 607.700111,4.66690909 608.59886,0 L621.636922,0 C622.532572,4.66690909 626.440581,8.18181818 631.123375,8.18181818 C635.812366,8.18181818 639.717276,4.66690909 640.612926,0 L653.650988,0 C654.546638,4.66690909 658.454647,8.18181818 663.13744,8.18181818 C667.826432,8.18181818 671.731342,4.66690909 672.626992,0 L685.665054,0 C686.563803,4.66690909 690.471812,8.18181818 695.154606,8.18181818 C699.843597,8.18181818 703.748507,4.66690909 704.647256,0 L717.67912,0 C718.577869,4.66690909 722.485878,8.18181818 727.168671,8.18181818 C731.857663,8.18181818 735.762573,4.66690909 736.661322,0 L750,0 L750,94.0072742 Z" id="path-1"></path>
        <filter x="-2.0%" y="-2.7%" width="104.0%" height="105.5%" filterUnits="objectBoundingBox" id="filter-2">
            <feOffset dx="0" dy="0" in="SourceAlpha" result="shadowOffsetOuter1"></feOffset>
            <feGaussianBlur stdDeviation="5" in="shadowOffsetOuter1" result="shadowBlurOuter1"></feGaussianBlur>
            <feColorMatrix values="0 0 0 0 0   0 0 0 0 0   0 0 0 0 0  0 0 0 0.2 0" type="matrix" in="shadowBlurOuter1"></feColorMatrix>
        </filter>
    </defs>
    <g id="Page-1" stroke="none" stroke-width="1" fill="none" fill-rule="evenodd">
        <g id="iPhone-8-Copy-14" transform="translate(0.000000, -1779.000000)">
            <g id="Group-29" transform="translate(-216.000000, 1789.000000)">
                <g id="Rectangle-9">
                    <use fill="black" fill-opacity="1" filter="url(#filter-2)" xlink:href="#path-1"></use>
                    <use fill="#FFFFFF" fill-rule="evenodd" xlink:href="#path-1"></use>
                </g>
                <rect id="Rectangle-4" stroke="#E9E9E9" fill="#FFFFFF" x="231.5" y="201.5" width="289" height="75"></rect>
                <rect id="Rectangle-4-Copy-2" stroke="#E9E9E9" fill="#FFFFFF" x="231.5" y="443.5" width="289" height="75"></rect>
                <rect id="Rectangle-4-Copy" stroke="#E9E9E9" fill="#F8F8F8" x="231.5" y="336.5" width="289" height="47"></rect>
                <text id="줄어든-피부-탄력으로-얼굴-윤곽이-울" font-family="NotoSansCJKkr-Bold, Noto Sans CJK KR" font-size="18" font-weight="bold" fill="#555555">
                    <tspan x="251.908" y="232">줄어든 피부 탄력으로 얼굴 윤곽이 </tspan>
                    <tspan x="315.997" y="259">울퉁불퉁한 경우</tspan>
                </text>
                <text id="얼굴-전체-탱탱한-피부-탄력을-원하시" font-family="NotoSansCJKkr-Bold, Noto Sans CJK KR" font-size="18" font-weight="bold" fill="#555555">
                    <tspan x="268.468" y="474">얼굴 전체 탱탱한 피부 탄력을</tspan>
                    <tspan x="332.557" y="501">원하시는 분</tspan>
                </text>
                <text id="처진-볼살로-심술보가-고민이신-분" font-family="NotoSansCJKkr-Bold, Noto Sans CJK KR" font-size="18" font-weight="bold" fill="#555555">
                    <tspan x="251.908" y="367">처진 볼살로 심술보가 고민이신 분</tspan>
                </text>
                <g id="Group-2" transform="translate(231.000000, 50.000000)" fill="#8D7047" opacity="0.200000003">
                    <rect id="Rectangle-16" x="0" y="81" width="290" height="1"></rect>
                    <rect id="Rectangle-16-Copy-10" x="0" y="66" width="290" height="5"></rect>
                    <rect id="Rectangle-16-Copy-8" x="0" y="0" width="290" height="1"></rect>
                    <rect id="Rectangle-16-Copy-9" x="0" y="11" width="290" height="5"></rect>
                </g>
                <text id="이마-거상술이-필요한-경우" font-family="NotoSansCJKkr-Bold, Noto Sans CJK KR" font-size="25" font-weight="bold" fill="#8D7047">
                    <tspan x="241.1625" y="100">이마 거상술</tspan>
                    <tspan x="361.8375" y="100" font-family="NotoSansCJKkr-Thin, Noto Sans CJK KR" font-style="condensed" font-weight="300">이 필요한 경우</tspan>
                </text>
                <g id="Group-3" transform="translate(231.000000, 162.000000)">
                    <rect id="Rectangle-4" fill="#AE8B59" x="0" y="0" width="290" height="39"></rect>
                    <rect id="Rectangle-4" stroke="#FFFFFF" opacity="0.5" x="4.5" y="3.5" width="281" height="32"></rect>
                </g>
                <g id="Group-3-Copy-2" transform="translate(231.000000, 404.000000)">
                    <rect id="Rectangle-4" fill="#AE8B59" x="0" y="0" width="290" height="39"></rect>
                    <rect id="Rectangle-4" stroke="#FFFFFF" opacity="0.5" x="4.5" y="3.5" width="281" height="32"></rect>
                </g>
                <g id="Group-3-Copy" transform="translate(231.000000, 297.000000)">
                    <rect id="Rectangle-4" fill="#8D7047" x="0" y="0" width="290" height="39"></rect>
                    <rect id="Rectangle-4" stroke="#FFFFFF" opacity="0.5" x="4.5" y="3.5" width="281" height="32"></rect>
                </g>
                <text id="01." font-family="Montserrat-Bold, Montserrat" font-size="20" font-weight="bold" fill="#FFFFFF">
                    <tspan x="362.48" y="189">01.</tspan>
                </text>
                <text id="03." font-family="Montserrat-Bold, Montserrat" font-size="20" font-weight="bold" fill="#FFFFFF">
                    <tspan x="360.49" y="431">03.</tspan>
                </text>
                <text id="02." font-family="Montserrat-Bold, Montserrat" font-size="20" font-weight="bold" fill="#FFFFFF">
                    <tspan x="361.47" y="324">02.</tspan>
                </text>
            </g>
        </g>
    </g>
</svg>