<?xml version="1.0" encoding="utf-8"?>
<!-- Generator: Adobe Illustrator 20.0.0, SVG Export Plug-In . SVG Version: 6.00 Build 0)  -->
<svg version="1.1" id="레이어_1" xmlns="http://www.w3.org/2000/svg" xmlns:xlink="http://www.w3.org/1999/xlink" x="0px"
	 y="0px" viewBox="0 0 777 525" style="enable-background:new 0 0 777 525;" xml:space="preserve">
<style type="text/css">
	.st0{fill:url(#Polygon-2-Copy-3_5_);}
	.st1{fill:#FFFFFF;}
	.st2{font-family:'NotoSansCJKkr-Bold-KSCpc-EUC-H';}
	.st3{font-size:18px;}
	.st4{opacity:0.5;}
	.st5{font-family:'Montserrat-Bold';}
	.st6{font-size:50px;}
	.st7{fill:url(#Polygon-2-Copy-3_6_);}
	.st8{fill:url(#Polygon-2-Copy-3_7_);}
	.st9{fill:url(#Polygon-2-Copy-3_8_);}
	.st10{fill:url(#Polygon-2-Copy-3_9_);}
</style>
<title>Group 17</title>
<desc>Created with Sketch.</desc>
<g id="Page-1">
	<g id="보톡스" transform="translate(-773.000000, -2721.000000)">
		<g id="Group-17" transform="translate(753.000000, 2721.000000)">
			<g id="_x31_-copy-2" transform="translate(129.000000, 0.000000)">
				
					<linearGradient id="Polygon-2-Copy-3_5_" gradientUnits="userSpaceOnUse" x1="250.1144" y1="290.97" x2="249.8327" y2="291.2641" gradientTransform="matrix(259.8076 0 0 -300 -64831.6172 87441)">
					<stop  offset="0" style="stop-color:#8D7047"/>
					<stop  offset="1" style="stop-color:#BB9A6D"/>
				</linearGradient>
				<polygon id="Polygon-2-Copy-3" class="st0" points="150,0 279.9,75 279.9,225 150,300 20.1,225 20.1,75 				"/>
				<text transform="matrix(1 0 0 1 98.777 151)" class="st1 st2 st3">밝은 인상으로 </text>
				<text transform="matrix(1 0 0 1 88.454 178)" class="st1 st2 st3">빠른 동안 얼굴을</text>
				<text transform="matrix(1 0 0 1 212.5454 178)" class="st1 st2 st3"> </text>
				<text transform="matrix(1 0 0 1 96.734 205)" class="st1 st2 st3">갖고 싶은 경우</text>
				<g id="Group-6" transform="translate(42.000000, 48.000000)" class="st4">
					<text transform="matrix(1 0 0 1 4.3397 67.7372)" class="st1 st5 st6">01</text>
				</g>
			</g>
			<g id="_x31_-copy-4" transform="translate(388.000000, 0.000000)">
				
					<linearGradient id="Polygon-2-Copy-3_6_" gradientUnits="userSpaceOnUse" x1="-8.8856" y1="290.97" x2="-9.1673" y2="291.2641" gradientTransform="matrix(259.8076 0 0 -300 2458.5571 87441)">
					<stop  offset="0" style="stop-color:#8D7047"/>
					<stop  offset="1" style="stop-color:#BB9A6D"/>
				</linearGradient>
				<polygon id="Polygon-2-Copy-3_1_" class="st7" points="150,0 279.9,75 279.9,225 150,300 20.1,225 20.1,75 				"/>
				<text transform="matrix(1 0 0 1 109.1 151)" class="st1 st2 st3">이목구비와 </text>
				<text transform="matrix(1 0 0 1 90.497 178)" class="st1 st2 st3">얼굴형의 윤곽을</text>
				<text transform="matrix(1 0 0 1 210.5026 178)" class="st1 st2 st3"> </text>
				<text transform="matrix(1 0 0 1 80.174 205)" class="st1 st2 st3">개선하고 싶은 경우</text>
				<g id="Group-6_1_" transform="translate(42.000000, 48.000000)" class="st4">
					<text transform="matrix(1 0 0 1 0 67.7371)" class="st1 st5 st6">02</text>
				</g>
			</g>
			<g id="_x31_-copy-5" transform="translate(258.000000, 224.000000)">
				
					<linearGradient id="Polygon-2-Copy-3_7_" gradientUnits="userSpaceOnUse" x1="121.1144" y1="66.97" x2="120.8327" y2="67.2641" gradientTransform="matrix(259.8076 0 0 -300 -31316.4336 20241)">
					<stop  offset="0" style="stop-color:#8D7047"/>
					<stop  offset="1" style="stop-color:#BB9A6D"/>
				</linearGradient>
				<polygon id="Polygon-2-Copy-3_2_" class="st8" points="150,0 279.9,75 279.9,225 150,300 20.1,225 20.1,75 				"/>
				<text transform="matrix(1 0 0 1 109.1 151)" class="st1 st2 st3">특정부위의</text>
				<text transform="matrix(1 0 0 1 191.8998 151)" class="st1 st2 st3"> </text>
				<text transform="matrix(1 0 0 1 125.66 178)" class="st1 st2 st3">고민을 </text>
				<text transform="matrix(1 0 0 1 88.454 205)" class="st1 st2 st3">해결하고 싶은 분</text>
				<g id="Group-6_2_" transform="translate(42.000000, 48.000000)" class="st4">
					<text transform="matrix(1 0 0 1 0 66.288)" class="st1 st5 st6">04</text>
				</g>
			</g>
			<g id="_x31_-copy-6" transform="translate(0.000000, 224.000000)">
				
					<linearGradient id="Polygon-2-Copy-3_8_" gradientUnits="userSpaceOnUse" x1="379.1143" y1="66.97" x2="378.8326" y2="67.2641" gradientTransform="matrix(259.8076 0 0 -300 -98346.7969 20241)">
					<stop  offset="0" style="stop-color:#8D7047"/>
					<stop  offset="1" style="stop-color:#BB9A6D"/>
				</linearGradient>
				<polygon id="Polygon-2-Copy-3_3_" class="st9" points="150,0 279.9,75 279.9,225 150,300 20.1,225 20.1,75 				"/>
				<text transform="matrix(1 0 0 1 125.66 151)" class="st1 st2 st3">복합적</text>
				<text transform="matrix(1 0 0 1 175.3399 151)" class="st1 st2 st3"> </text>
				<text transform="matrix(1 0 0 1 109.1 178)" class="st1 st2 st3">주름개선을</text>
				<text transform="matrix(1 0 0 1 191.8998 178)" class="st1 st2 st3"> </text>
				<text transform="matrix(1 0 0 1 107.057 205)" class="st1 st2 st3">원하는 경우</text>
				<g id="Group-6_3_" transform="translate(42.000000, 48.000000)" class="st4">
					<text transform="matrix(1 0 0 1 0 66.2876)" class="st1 st5 st6">03</text>
				</g>
			</g>
			<g id="_x31_-copy-7" transform="translate(517.000000, 225.000000)">
				
					<linearGradient id="Polygon-2-Copy-3_9_" gradientUnits="userSpaceOnUse" x1="-137.8856" y1="65.97" x2="-138.1673" y2="66.2641" gradientTransform="matrix(259.8076 0 0 -300 35973.7383 19941)">
					<stop  offset="0" style="stop-color:#8D7047"/>
					<stop  offset="1" style="stop-color:#BB9A6D"/>
				</linearGradient>
				<polygon id="Polygon-2-Copy-3_4_" class="st10" points="150,0 279.9,75 279.9,225 150,300 20.1,225 20.1,75 				"/>
				<text transform="matrix(1 0 0 1 114.455 151)" class="st1 st2 st3">이마주름,</text>
				<text transform="matrix(1 0 0 1 186.5448 151)" class="st1 st2 st3"> </text>
				<text transform="matrix(1 0 0 1 83.486 178)" class="st1 st2 st3">눈 처짐, 볼 처짐이</text>
				<text transform="matrix(1 0 0 1 217.5132 178)" class="st1 st2 st3"> </text>
				<text transform="matrix(1 0 0 1 115.337 205)" class="st1 st2 st3">심한 경우</text>
				<g id="Group-6_4_" transform="translate(42.000000, 48.000000)" class="st4">
					<text transform="matrix(1 0 0 1 0 65.288)" class="st1 st5 st6">05</text>
				</g>
			</g>
		</g>
	</g>
</g>
</svg>
