<?xml version="1.0" encoding="UTF-8"?>
<svg width="288px" height="332px" viewBox="0 0 288 332" version="1.1" xmlns="http://www.w3.org/2000/svg" xmlns:xlink="http://www.w3.org/1999/xlink">
    <!-- Generator: Sketch 52.4 (67378) - http://www.bohemiancoding.com/sketch -->
    <title>Group 15</title>
    <desc>Created with Sketch.</desc>
    <defs>
        <linearGradient x1="50%" y1="50%" x2="21.8294098%" y2="20.5891495%" id="linearGradient-1">
            <stop stop-color="#8D7047" offset="0%"></stop>
            <stop stop-color="#BB9A6D" offset="100%"></stop>
        </linearGradient>
        <polygon id="path-2" points="143 0 266.841633 71.5 266.841633 214.5 143 286 19.1583673 214.5 19.1583673 71.5"></polygon>
        <path d="M51.7535864,14.3514909 L49.1055174,14.3514909 C48.2015692,14.3514909 47.4695376,15.0763275 47.4695376,15.9713909 L47.4695376,18.5934325 L45.5812287,18.5934325 L45.5812287,15.9713909 C45.5812287,15.0763275 44.8491971,14.3514909 43.9452489,14.3514909 L41.2971799,14.3514909 L41.2971799,12.4817418 L43.9452489,12.4817418 C44.8491971,12.4817418 45.5812287,11.7569052 45.5812287,10.8618417 L45.5812287,8.23980012 L47.4695376,8.23980012 L47.4695376,10.8618417 C47.4695376,11.7569052 48.2015692,12.4817418 49.1055174,12.4817418 L51.7535864,12.4817418 L51.7535864,14.3514909 Z M53.3895662,9.24194168 L50.7414972,9.24194168 L50.7414972,6.62264565 C50.7414972,5.72758223 50.0094655,5 49.1055174,5 L43.9452489,5 C43.0413007,5 42.3092691,5.72758223 42.3092691,6.62264565 L42.3092691,9.24194168 L39.6639729,9.24194168 C38.7572519,9.24194168 38.0252203,9.96677832 38.0252203,10.8618417 L38.0252203,15.9713909 C38.0252203,16.8664543 38.7572519,17.591291 39.6639729,17.591291 L42.3092691,17.591291 L42.3092691,20.2133326 C42.3092691,21.108396 43.0413007,21.8332327 43.9452489,21.8332327 L44.8408785,21.8332327 L44.8408785,48.8992916 C44.4388157,50.9996705 42.4451386,51.2495195 42.1401254,51.2742299 C38.7683433,51.2742299 38.3274606,49.0310801 38.2858679,48.748284 L38.2858679,38.8202185 C38.2858679,38.6801933 38.266458,38.5429136 38.230411,38.4083796 C37.1295907,34.2268409 33.1034166,33.1752787 31.0515098,33.2494097 C26.8367822,33.4525836 25.0177944,37.0273461 24.6462329,38.891604 C24.6240502,38.9931909 24.6129588,39.1002691 24.6129588,39.2046016 L24.6295958,49.3907528 C24.3107184,51.6531217 22.3253599,51.7876558 21.651558,51.7574543 C18.5459693,51.7574543 18.1355879,49.7394432 18.0884495,49.2315084 L18.0884495,32.0852781 C23.8864728,31.464774 26.3764895,26.2893306 26.9088762,23.3240898 L27.8876912,10.4774587 C27.8876912,6.82856515 26.7785524,5.62599528 26.1186147,5.23337543 C25.8635128,5.0823678 25.5751367,5 25.2756692,5 L21.1884926,5 C20.2817716,5 19.5525128,5.72758223 19.5525128,6.62264565 C19.5525128,7.51496348 20.2817716,8.23980012 21.1884926,8.23980012 L24.3661754,8.23980012 C24.4854078,8.62143759 24.6157316,9.28037999 24.6185045,10.353907 L23.6674179,22.9149964 C23.6202795,23.1593542 22.5139135,28.9086267 16.918308,28.9086267 L15.9866314,28.9086267 C10.44371,28.9086267 9.28743273,23.153863 9.25970426,23.079732 L8.29198061,10.4774587 C8.29198061,9.32430948 8.42507727,8.63241997 8.5443097,8.23980012 L11.7192197,8.23980012 C12.6231678,8.23980012 13.3551995,7.51496348 13.3551995,6.62264565 C13.3551995,5.72758223 12.6231678,5 11.7192197,5 L7.62927015,5 C7.33257551,5 7.04142656,5.0823678 6.78909747,5.23337543 C6.12915986,5.62599528 5.02002101,6.82856515 5.0255667,10.5982648 L6.02101882,23.4888254 C6.53122269,26.3030586 9.01846656,31.4675196 14.8192627,32.0852781 L14.8220356,49.3193674 C14.9301766,51.2824666 16.4968352,54.9945088 21.5655998,54.9945088 L21.5711455,54.9945088 C21.651558,54.9972544 21.7347435,55 21.8207017,55 C23.792196,55 27.2859834,53.9374554 27.8876912,49.6158915 L27.8876912,39.3885564 C28.0346521,38.8147274 28.7666838,36.6017791 31.1679694,36.4864642 C31.2982932,36.4864642 34.1986913,36.4562627 35.0139083,39.0453572 L35.019454,48.8938005 C35.1941434,50.8376805 36.9077629,54.5112844 42.220538,54.5112844 L42.2233108,54.5112844 C43.9812959,54.4206798 47.4667647,53.2153643 48.0934282,49.2919115 C48.1072924,49.2067981 48.1128381,49.1244303 48.1128381,49.0365713 L48.1128381,21.8332327 L49.1055174,21.8332327 C50.0094655,21.8332327 50.7414972,21.108396 50.7414972,20.2133326 L50.7414972,17.591291 L53.3895662,17.591291 C54.2935143,17.591291 55.025546,16.8664543 55.025546,15.9713909 L55.025546,10.8618417 C55.025546,9.96677832 54.2935143,9.24194168 53.3895662,9.24194168 Z" id="path-3"></path>
    </defs>
    <g id="Page-1" stroke="none" stroke-width="1" fill="none" fill-rule="evenodd">
        <g id="보톡스" transform="translate(-815.000000, -1145.000000)">
            <g id="Group-15" transform="translate(794.000000, 1146.000000)">
                <g id="Group-5">
                    <g id="Group-3-Copy">
                        <polygon id="Polygon-2-Copy-2" stroke="#8D7047" stroke-width="0.738405462" opacity="0.3" points="165 0 307.894192 82.5 307.894192 247.5 165 330 22.1058084 247.5 22.1058084 82.5"></polygon>
                        <g id="Group-7" transform="translate(22.000000, 22.000000)">
                            <g id="Polygon-2-Copy-2">
                                <use fill="url(#linearGradient-1)" xlink:href="#path-2"></use>
                                <use stroke="#8D7047" stroke-width="0.738405462" fill="#FFFFFF" xlink:href="#path-2"></use>
                            </g>
                        </g>
                    </g>
                </g>
                <text id="Scientific" font-family="Montserrat-Bold, Montserrat" font-size="35" font-weight="bold" fill="#8D7047">
                    <tspan x="81.6675" y="196">Scientific</tspan>
                </text>
                <text id="과학적인" font-family="NotoSansCJKkr-Bold, Noto Sans CJK KR" font-size="22" font-weight="bold" fill="#8D7047">
                    <tspan x="126.02" y="231">과학적인</tspan>
                </text>
                <g id="-round/ver1/doctor" transform="translate(136.000000, 82.000000)">
                    <mask id="mask-4" fill="white">
                        <use xlink:href="#path-3"></use>
                    </mask>
                    <use id="Mask" fill="#613627" fill-rule="evenodd" xlink:href="#path-3"></use>
                    <g id="swatch/brown" mask="url(#mask-4)" fill="#8D7047" fill-rule="evenodd">
                        <rect id="Rectangle" x="0" y="0" width="63" height="60"></rect>
                    </g>
                </g>
            </g>
        </g>
    </g>
</svg>