<?xml version="1.0" encoding="UTF-8"?>
<svg width="286px" height="330px" viewBox="0 0 286 330" version="1.1" xmlns="http://www.w3.org/2000/svg" xmlns:xlink="http://www.w3.org/1999/xlink">
    <!-- Generator: Sketch 52.4 (67378) - http://www.bohemiancoding.com/sketch -->
    <title>Group 16</title>
    <desc>Created with Sketch.</desc>
    <defs>
        <linearGradient x1="50%" y1="50%" x2="21.8294098%" y2="20.5891495%" id="linearGradient-1">
            <stop stop-color="#8D7047" offset="0%"></stop>
            <stop stop-color="#BB9A6D" offset="100%"></stop>
        </linearGradient>
        <path d="M21.4130598,13.3668716 C20.9004066,13.3668716 20.3691791,13.4154567 19.8119474,13.5238387 C17.4975785,13.983528 15.6772883,15.2691632 14.5479655,17.2424638 C13.1103077,19.7539372 12.9468531,23.1324669 14.1021801,26.5147339 C16.1527927,32.5019071 25.4919957,42.4057828 30.0018574,46.1729929 C34.5080043,42.4057828 43.8472073,32.5019071 45.8978199,26.5147339 C47.0531469,23.1324669 46.8896923,19.7539372 45.4520345,17.2424638 C44.3227117,15.2691632 42.5024215,13.983528 40.1880526,13.5238387 C34.8051945,12.4736541 31.3875069,17.137819 31.3577879,17.1789295 C31.0457381,17.6161949 30.5405147,17.8740694 30.0055723,17.8778067 L29.9981426,17.8778067 C29.4632001,17.8778067 28.9616916,17.6161949 28.645927,17.1826668 C28.6199229,17.149031 25.8151901,13.3668716 21.4130598,13.3668716 M30.0018574,50 C29.648944,50 29.3034604,49.8878807 29.0062702,49.6673793 C24.9124747,46.6214703 13.5152294,35.1217625 10.9445339,27.6097662 C9.47344228,23.3081205 9.72976885,18.9167794 11.6503607,15.5606735 C13.255188,12.7614271 15.9224703,10.8666102 19.1655587,10.2275299 C24.3403836,9.19976918 28.1146995,11.8831589 30.0018574,13.695755 C31.8853005,11.8831589 35.6707611,9.19976918 40.8344413,10.2275299 C44.0775297,10.8666102 46.744812,12.7614271 48.3496393,15.5606735 C50.2702311,18.9167794 50.5265577,23.3081205 49.0554661,27.6097662 C46.4884855,35.1217625 35.0875253,46.6214703 30.9937298,49.6673793 C30.7002545,49.8878807 30.351056,50 30.0018574,50" id="path-2"></path>
    </defs>
    <g id="Page-1" stroke="none" stroke-width="1" fill="none" fill-rule="evenodd">
        <g id="보톡스" transform="translate(-1217.000000, -1144.000000)">
            <g id="Group-16" transform="translate(1195.000000, 1144.000000)">
                <g id="Group-4-Copy" fill="url(#linearGradient-1)">
                    <g id="Group-3">
                        <polygon id="Polygon-2-Copy-2" opacity="0.1" points="165 0 307.894192 82.5 307.894192 247.5 165 330 22.1058084 247.5 22.1058084 82.5"></polygon>
                        <g id="Group-7" transform="translate(22.000000, 22.000000)">
                            <polygon id="Polygon-2-Copy-2" points="143 0 266.841633 71.5 266.841633 214.5 143 286 19.1583673 214.5 19.1583673 71.5"></polygon>
                        </g>
                    </g>
                </g>
                <text id="Satisfaction" font-family="Montserrat-Bold, Montserrat" font-size="35" font-weight="bold" fill="#FFFFFF">
                    <tspan x="59.075" y="196">Satisfaction</tspan>
                </text>
                <text id="만족" font-family="NotoSansCJKkr-Bold, Noto Sans CJK KR" font-size="22" font-weight="bold" fill="#FFFFFF">
                    <tspan x="146.26" y="231">만족</tspan>
                </text>
                <g id="-round/ver1/heart" transform="translate(136.000000, 82.000000)">
                    <mask id="mask-3" fill="white">
                        <use xlink:href="#path-2"></use>
                    </mask>
                    <use id="Mask" fill="#BE1E2D" fill-rule="evenodd" xlink:href="#path-2"></use>
                    <g id="swatch/brown" mask="url(#mask-3)" fill="#8D7047" fill-rule="evenodd">
                        <rect id="Rectangle" x="0" y="0" width="63" height="60"></rect>
                    </g>
                    <g id="white" mask="url(#mask-3)" fill="#FFFFFF" fill-rule="nonzero">
                        <rect id="Rectangle" x="0" y="0" width="60" height="60"></rect>
                    </g>
                </g>
            </g>
        </g>
    </g>
</svg>