<?xml version="1.0" encoding="UTF-8"?>
<svg width="240px" height="300px" viewBox="0 0 240 300" version="1.1" xmlns="http://www.w3.org/2000/svg" xmlns:xlink="http://www.w3.org/1999/xlink">
    <!-- Generator: Sketch 52.5 (67469) - http://www.bohemiancoding.com/sketch -->
    <title>Group 22</title>
    <desc>Created with Sketch.</desc>
    <defs>
        <rect id="path-1" x="0" y="0" width="220" height="280"></rect>
        <filter x="-6.8%" y="-5.4%" width="113.6%" height="110.7%" filterUnits="objectBoundingBox" id="filter-2">
            <feOffset dx="0" dy="0" in="SourceAlpha" result="shadowOffsetOuter1"></feOffset>
            <feGaussianBlur stdDeviation="5" in="shadowOffsetOuter1" result="shadowBlurOuter1"></feGaussianBlur>
            <feColorMatrix values="0 0 0 0 0   0 0 0 0 0   0 0 0 0 0  0 0 0 0.1 0" type="matrix" in="shadowBlurOuter1"></feColorMatrix>
        </filter>
        <path d="M22.2444459,42.8917333 L18.4926549,39.6461363 C17.7184757,38.9712109 17.6341101,37.7950542 18.3040728,37.0159124 C18.9789981,36.2417333 20.1501922,36.1623303 20.929334,36.8273303 L24.681125,40.07789 C25.4553041,40.7478527 25.5446325,41.9240094 24.8697071,42.7031512 C24.5024683,43.1249796 23.9863489,43.3433378 23.4652668,43.3433378 C23.0335131,43.3433378 22.5967966,43.1944572 22.2444459,42.8917333 Z M29.7490205,49.3883863 L25.9972295,46.1427893 C25.2230504,45.4678639 25.1386847,44.2917072 25.8086474,43.5125654 C26.4835728,42.7383863 27.6547668,42.6589833 28.4339086,43.3239833 L32.1856996,46.574543 C32.9598787,47.2445057 33.0492071,48.4206624 32.3742817,49.1998042 C32.0070429,49.6216326 31.4909235,49.8399908 30.9698414,49.8399908 C30.5380877,49.8399908 30.1013713,49.6911102 29.7490205,49.3883863 Z M38.472431,56.3381326 C38.0406772,56.3381326 37.6089235,56.189252 37.2565728,55.8865281 L33.5047817,52.6359684 C32.7256399,51.9660057 32.6412743,50.789849 33.3112369,50.0156699 C33.9861623,49.2365281 35.1573563,49.1521624 35.9364981,49.8221251 L39.6882892,53.0677221 C40.467431,53.7426475 40.5517966,54.9188042 39.881834,55.6929833 C39.5096325,56.1197744 38.9935131,56.3381326 38.472431,56.3381326 Z M45.9745243,62.8342893 C45.5427705,62.8342893 45.1110168,62.6854087 44.7537034,62.3826848 L41.006875,59.1321251 C40.2277332,58.4621624 40.1433675,57.2860057 40.8133302,56.5068639 C41.4882556,55.7326848 42.6644123,55.6483191 43.4435541,56.3182818 L47.1953451,59.5638788 C47.9695243,60.2388042 48.0538899,61.4149609 47.3839272,62.1941027 C47.0117257,62.6159311 46.4956063,62.8342893 45.9745243,62.8342893 Z M93.8421175,74.2162109 C94.8693937,74.2162109 95.703125,75.0499423 95.703125,76.0772184 C95.703125,77.1044945 94.8693937,77.9382259 93.8421175,77.9382259 L14.4391325,77.9382259 C13.4118563,77.9382259 12.578125,77.1044945 12.578125,76.0772184 C12.578125,75.0499423 13.4118563,74.2162109 14.4391325,74.2162109 L93.8421175,74.2162109 Z M14.4391325,68.0247632 C13.4118563,68.0247632 12.578125,67.1910318 12.578125,66.1637557 C12.578125,65.1364796 13.4118563,64.3027483 14.4391325,64.3027483 L47.8777146,64.3027483 C47.8578638,63.8461811 47.996819,63.3747259 48.3193937,63.0025244 C48.994319,62.2283453 50.1704757,62.1489423 50.9446549,62.8139423 L52.6667071,64.3027483 L66.9245056,64.3027483 L28.7217444,30.9088303 C27.9475653,30.233905 27.873125,29.0577483 28.5480504,28.2835691 C29.2229757,27.5044274 30.3991325,27.4299871 31.1733116,28.1098751 L68.7209981,60.9281214 L80.1202892,45.2509945 L71.604319,45.6777856 C70.5968937,45.7571885 69.6986474,44.9383453 69.6490205,43.9110691 C69.5993937,42.8887557 70.3884608,42.0103602 71.4157369,41.9607333 L83.8224534,41.3403975 C83.8522295,41.3403975 83.8869683,41.3602483 83.9167444,41.3602483 C84.5470056,41.3602483 85.1177146,41.6828229 85.4651026,42.2237557 C85.4849534,42.2634572 85.5296175,42.2783453 85.554431,42.3130841 C85.5742817,42.3527856 85.5593937,42.3974497 85.5792444,42.4371512 C85.6139832,42.5066288 85.6685728,42.5661811 85.6933862,42.6406214 L89.4948041,54.7396512 C89.8024907,55.7173005 89.2565951,56.7594647 88.2739832,57.0721139 C88.0903638,57.1316662 87.9017817,57.1564796 87.7181623,57.1564796 C86.9241325,57.1564796 86.1896549,56.6502856 85.9415205,55.851293 L83.2467817,47.2807333 L70.8698414,64.3027483 L93.8421175,64.3027483 C94.8693937,64.3027483 95.703125,65.1364796 95.703125,66.1637557 C95.703125,67.1910318 94.8693937,68.0247632 93.8421175,68.0247632 L14.4391325,68.0247632 Z" id="path-3"></path>
    </defs>
    <g id="Page-1" stroke="none" stroke-width="1" fill="none" fill-rule="evenodd">
        <g id="목주름-제거" transform="translate(-360.000000, -5009.000000)">
            <g id="Group-22" transform="translate(370.000000, 5019.000000)">
                <g id="Group-20">
                    <g id="Rectangle-5-Copy-5">
                        <use fill="black" fill-opacity="1" filter="url(#filter-2)" xlink:href="#path-1"></use>
                        <use fill="#FFFFFF" fill-rule="evenodd" xlink:href="#path-1"></use>
                    </g>
                    <path d="M48.233,186.504 L37.775,186.504 L37.775,180.816 L39.143,180.816 L39.143,182.58 L46.865,182.58 L46.865,180.816 L48.233,180.816 L48.233,186.504 Z M43.643,190.734 L42.275,190.734 L42.275,189.06 L35.885,189.06 L35.885,187.926 L50.087,187.926 L50.087,189.06 L43.643,189.06 L43.643,190.734 Z M49.205,195.18 L48.557,196.314 C46.289,196.08 43.697,194.658 42.959,193.416 C42.239,194.676 39.737,196.044 37.433,196.26 L36.749,195.144 C39.611,195.036 42.275,193.488 42.275,191.688 L42.275,191.364 L43.679,191.364 L43.679,191.688 C43.679,193.488 46.595,195.036 49.205,195.18 Z M46.865,185.352 L46.865,183.714 L39.143,183.714 L39.143,185.352 L46.865,185.352 Z M64.307,196.26 L62.939,196.26 L62.939,180.528 L64.307,180.528 L64.307,196.26 Z M59.681,182.202 C59.609,187.314 56.477,191.22 52.409,193.146 L51.617,192.066 C55.595,190.32 57.935,186.9 58.223,183.354 L52.193,183.354 L52.193,182.202 L59.681,182.202 Z M81.353,191.76 L80.507,192.84 C79.013,191.868 77.087,189.87 76.475,187.998 C75.953,189.906 74.315,191.85 72.443,193.146 L71.525,192.12 C73.847,190.752 75.755,188.016 75.755,185.172 L75.755,183.336 L72.065,183.336 L72.065,182.184 L80.795,182.184 L80.795,183.336 L77.177,183.336 L77.177,185.136 C77.177,188.07 79.175,190.572 81.353,191.76 Z M83.243,187.368 L79.949,187.368 L79.949,186.198 L83.243,186.198 L83.243,180.528 L84.611,180.528 L84.611,196.26 L83.243,196.26 L83.243,187.368 Z M101.981,188.322 L99.425,188.322 L99.425,196.26 L98.057,196.26 L98.057,180.528 L99.425,180.528 L99.425,187.17 L101.981,187.17 L101.981,188.322 Z M94.223,182.778 L89.597,182.778 L89.597,181.608 L94.223,181.608 L94.223,182.778 Z M96.545,185.442 L87.257,185.442 L87.257,184.308 L96.545,184.308 L96.545,185.442 Z M95.609,189.708 C95.609,191.526 94.133,192.948 91.937,192.948 C89.741,192.948 88.265,191.544 88.265,189.708 C88.265,187.872 89.741,186.45 91.937,186.45 C94.133,186.45 95.609,187.854 95.609,189.708 Z M94.241,189.708 C94.241,188.466 93.269,187.602 91.937,187.602 C90.623,187.602 89.633,188.466 89.633,189.708 C89.633,190.932 90.623,191.814 91.937,191.814 C93.287,191.814 94.241,190.932 94.241,189.708 Z M107.597,181.554 C110.027,181.554 111.881,183.048 111.881,185.334 C111.881,187.404 110.369,188.79 108.299,189.06 L108.299,191.616 C110.063,191.508 111.665,191.4 112.673,191.256 L112.781,192.354 C111.539,192.534 109.379,192.696 107.471,192.822 C105.743,192.912 104.195,192.966 102.881,192.966 L102.629,191.76 C103.799,191.76 105.329,191.76 106.931,191.688 L106.931,189.06 C104.843,188.826 103.331,187.44 103.331,185.352 C103.331,183.066 105.167,181.554 107.597,181.554 Z M107.597,182.724 C105.887,182.724 104.663,183.75 104.663,185.352 C104.663,186.936 105.905,187.944 107.597,187.944 C109.361,187.944 110.531,186.936 110.531,185.37 C110.531,183.75 109.379,182.724 107.597,182.724 Z M117.551,188.268 L115.031,188.268 L115.031,196.26 L113.645,196.26 L113.645,180.528 L115.031,180.528 L115.031,187.116 L117.551,187.116 L117.551,188.268 Z M136.523,196.26 L135.173,196.26 L135.173,180.528 L136.523,180.528 L136.523,196.26 Z M133.409,195.468 L132.077,195.468 L132.077,187.35 L129.287,187.35 L129.287,186.198 L132.077,186.198 L132.077,180.906 L133.409,180.906 L133.409,195.468 Z M131.123,191.292 L130.277,192.3 C129.071,191.436 127.415,189.564 126.911,187.782 C126.569,189.582 125.273,191.634 123.707,192.768 L122.861,191.742 C124.643,190.608 126.227,187.926 126.227,184.848 L126.227,181.986 L127.577,181.986 L127.577,184.812 C127.577,187.872 129.413,190.158 131.123,191.292 Z M151.625,189.708 L146.531,189.708 L146.531,193.11 L152.975,193.11 L152.975,194.262 L138.773,194.262 L138.773,193.11 L145.163,193.11 L145.163,189.708 L140.033,189.708 L140.033,188.556 L142.607,188.556 L142.175,184.344 L143.579,184.146 L143.903,188.556 L147.773,188.556 L148.331,184.164 L149.681,184.398 L149.051,188.556 L151.625,188.556 L151.625,189.708 Z M151.643,183.3 L140.015,183.3 L140.015,182.148 L151.643,182.148 L151.643,183.3 Z M167.609,196.26 L166.259,196.26 L166.259,187.98 L164.315,187.98 L164.315,195.468 L163.001,195.468 L163.001,180.906 L164.315,180.906 L164.315,186.846 L166.259,186.846 L166.259,180.528 L167.609,180.528 L167.609,196.26 Z M162.263,191.454 L161.399,192.462 C160.283,191.688 158.735,189.798 158.285,188.142 C157.961,189.888 156.539,191.742 155.009,192.84 L154.091,191.868 C155.945,190.68 157.601,188.196 157.601,185.154 L157.601,183.552 L154.469,183.552 L154.469,182.418 L161.975,182.418 L161.975,183.552 L158.951,183.552 L158.951,185.1 C158.951,188.214 160.607,190.428 162.263,191.454 Z M183.323,193.326 C183.323,195.108 181.325,196.224 177.959,196.224 C174.593,196.224 172.613,195.108 172.613,193.326 C172.613,191.544 174.593,190.428 177.959,190.428 C181.325,190.428 183.323,191.544 183.323,193.326 Z M183.179,190.464 L181.811,190.464 L181.811,185.838 L179.849,185.838 L179.849,189.69 L178.517,189.69 L178.517,180.816 L179.849,180.816 L179.849,184.686 L181.811,184.686 L181.811,180.528 L183.179,180.528 L183.179,190.464 Z M177.959,191.58 C175.565,191.58 174.053,192.264 174.053,193.326 C174.053,194.406 175.565,195.09 177.959,195.09 C180.371,195.09 181.865,194.406 181.865,193.326 C181.865,192.264 180.371,191.58 177.959,191.58 Z M177.869,188.034 L177.131,189.078 C175.727,188.412 174.377,187.026 173.837,185.802 C173.441,187.08 172.073,188.772 170.615,189.618 L169.769,188.574 C171.443,187.674 173.135,185.766 173.135,183.408 L173.135,181.446 L174.467,181.446 L174.467,183.372 C174.467,185.784 176.375,187.386 177.869,188.034 Z" id="붓기-저하와-세포재생" fill="#555555"></path>
                    <path d="M71.957,224.914 L69.581,224.644 C70.211,221.512 70.247,219.208 70.247,217.282 L60.581,217.282 L60.581,215.392 L72.623,215.392 L72.623,216.976 C72.623,219.046 72.623,221.386 71.957,224.914 Z M66.737,226.642 L74.063,226.642 L74.063,228.55 L59.069,228.55 L59.069,226.642 L64.361,226.642 L64.361,220.936 L66.737,220.936 L66.737,226.642 Z M77.195,222.178 L76.331,220.324 C79.715,219.91 81.479,218.29 81.713,216.706 L76.943,216.706 L76.943,214.816 L89.237,214.816 L89.237,216.706 L84.539,216.706 C84.773,218.29 86.519,219.91 89.885,220.324 L89.039,222.178 C86.141,221.782 84.107,220.54 83.117,218.848 C82.127,220.54 80.093,221.782 77.195,222.178 Z M90.605,223.132 L90.605,225.022 L84.251,225.022 L84.251,230.584 L81.875,230.584 L81.875,225.022 L75.629,225.022 L75.629,223.132 L90.605,223.132 Z M96.113,217.408 L96.113,224.77 C96.671,224.752 97.247,224.734 97.823,224.716 L97.823,217.408 L96.113,217.408 Z M100.109,217.408 L100.109,224.554 C100.757,224.5 101.405,224.464 102.017,224.374 L102.161,226.102 C98.795,226.696 95.033,226.768 92.207,226.768 L91.955,224.824 L93.809,224.824 L93.809,217.408 L92.387,217.408 L92.387,215.5 L101.531,215.5 L101.531,217.408 L100.109,217.408 Z M107.561,220.234 L107.561,222.196 L105.149,222.196 L105.149,230.566 L102.773,230.566 L102.773,213.988 L105.149,213.988 L105.149,220.234 L107.561,220.234 Z M115.571,221.944 L115.571,224.734 C117.137,224.698 118.613,224.608 120.287,224.338 L120.485,226.246 C118.343,226.624 116.507,226.678 114.437,226.678 L113.267,226.678 L113.267,220.072 L116.813,220.072 L116.813,217.48 L113.249,217.48 L113.249,215.59 L119.117,215.59 L119.117,221.944 L115.571,221.944 Z M121.421,219.604 L121.421,214.258 L123.617,214.258 L123.617,229.774 L121.421,229.774 L121.421,221.548 L119.783,221.548 L119.783,219.604 L121.421,219.604 Z M124.787,213.952 L127.037,213.952 L127.037,230.53 L124.787,230.53 L124.787,213.952 Z M140.735,213.952 L143.111,213.952 L143.111,230.584 L140.735,230.584 L140.735,213.952 Z M134.201,215.122 C136.703,215.122 138.557,217.39 138.557,221.026 C138.557,224.68 136.703,226.966 134.201,226.966 C131.699,226.966 129.845,224.68 129.845,221.026 C129.845,217.39 131.699,215.122 134.201,215.122 Z M134.201,217.264 C132.977,217.264 132.131,218.578 132.131,221.026 C132.131,223.492 132.977,224.806 134.201,224.806 C135.425,224.806 136.271,223.492 136.271,221.026 C136.271,218.578 135.425,217.264 134.201,217.264 Z M152.165,217.48 L152.165,218.056 C152.165,220.972 153.479,224.032 156.233,225.292 L154.865,227.164 C152.993,226.246 151.715,224.536 150.995,222.466 C150.293,224.698 148.997,226.534 147.089,227.488 L145.685,225.616 C148.457,224.32 149.771,221.134 149.771,218.056 L149.771,217.48 L146.369,217.48 L146.369,215.554 L155.567,215.554 L155.567,217.48 L152.165,217.48 Z M157.475,213.952 L159.851,213.952 L159.851,230.584 L157.475,230.584 L157.475,221.674 L154.559,221.674 L154.559,219.748 L157.475,219.748 L157.475,213.952 Z" id="고주파-레이저" fill="#8D7047"></path>
                    <g id="-round/ver1/raser" transform="translate(58.000000, 51.000000)">
                        <mask id="mask-4" fill="white">
                            <use xlink:href="#path-3"></use>
                        </mask>
                        <use id="Fill-7" fill="#613627" fill-rule="evenodd" xlink:href="#path-3"></use>
                        <g id="swatch/dark-brown1" mask="url(#mask-4)" fill="#6C573A" fill-rule="evenodd">
                            <rect id="Rectangle" x="0" y="0" width="109" height="105"></rect>
                        </g>
                    </g>
                </g>
            </g>
        </g>
    </g>
</svg>