<?xml version="1.0" encoding="UTF-8"?>
<svg width="240px" height="300px" viewBox="0 0 240 300" version="1.1" xmlns="http://www.w3.org/2000/svg" xmlns:xlink="http://www.w3.org/1999/xlink">
    <!-- Generator: Sketch 52.3 (67297) - http://www.bohemiancoding.com/sketch -->
    <title>Group 30</title>
    <desc>Created with Sketch.</desc>
    <defs>
        <rect id="path-1" x="0" y="0" width="220" height="280"></rect>
        <filter x="-6.8%" y="-5.4%" width="113.6%" height="110.7%" filterUnits="objectBoundingBox" id="filter-2">
            <feOffset dx="0" dy="0" in="SourceAlpha" result="shadowOffsetOuter1"></feOffset>
            <feGaussianBlur stdDeviation="5" in="shadowOffsetOuter1" result="shadowBlurOuter1"></feGaussianBlur>
            <feColorMatrix values="0 0 0 0 0   0 0 0 0 0   0 0 0 0 0  0 0 0 0.1 0" type="matrix" in="shadowBlurOuter1"></feColorMatrix>
        </filter>
        <path d="M15.0175167,43.2179667 C13.9521833,43.2179667 13.0851833,44.0821333 13.0851833,45.1503 C13.0851833,46.2156333 13.9521833,47.0826333 15.0175167,47.0826333 C16.08285,47.0826333 16.94985,46.2156333 16.94985,45.1503 C16.94985,44.0821333 16.08285,43.2179667 15.0175167,43.2179667 M20.4393833,51.1977667 C21.5047167,51.1977667 22.3717167,52.0619333 22.3717167,53.1301 C22.3717167,54.1954333 21.5047167,55.0624333 20.4393833,55.0624333 C19.37405,55.0624333 18.50705,54.1954333 18.50705,53.1301 C18.50705,52.0619333 19.37405,51.1977667 20.4393833,51.1977667 Z M27.5434,56.4218667 C28.6087333,56.4218667 29.4757333,57.2860333 29.4757333,58.3542 C29.4757333,59.4195333 28.6087333,60.2865333 27.5434,60.2865333 C26.4780667,60.2865333 25.6110667,59.4195333 25.6110667,58.3542 C25.6110667,57.2860333 26.4780667,56.4218667 27.5434,56.4218667 Z M37.8431333,8.5 C52.6813,8.5 64.7541333,20.5643333 64.7541333,35.4081667 C64.7541333,50.2435 52.6813,62.3106667 37.8431333,62.3106667 C36.7806333,62.3106667 35.9278,61.4493333 35.9278,60.3868333 L35.9278,52.8586667 C35.9278,51.7961667 36.7806333,50.932 37.8431333,50.932 C38.9056333,50.932 39.7613,51.7961667 39.7613,52.8586667 L39.7613,58.3751667 C50.9643,57.443 59.9091333,48.4811667 60.8101333,37.2696667 L55.3559667,37.2696667 C54.2934667,37.2696667 53.4293,36.4083333 53.4293,35.3486667 C53.4293,34.2918333 54.2934667,33.4191667 55.3559667,33.4191667 L60.8044667,33.4191667 C59.8468,22.2615 50.9218,13.362 39.7613,12.4355 L39.7613,17.8415 C39.7613,18.904 38.9056333,19.7653333 37.8431333,19.7653333 C36.7806333,19.7653333 35.9278,18.904 35.9278,17.8415 L35.9278,12.4355 C25.5578,13.294 17.1286333,21.046 15.2218,31.0901667 L17.2363,29.0756667 C17.9814667,28.3305 19.2054667,28.3361667 19.9534667,29.0841667 C20.7014667,29.8321667 20.7043,31.0533333 19.9591333,31.7985 L15.2643,36.4905 L15.2359667,36.4366667 C14.7458,36.9806667 14.0516333,37.3376667 13.2611333,37.3376667 C13.1194667,37.3376667 12.9976333,37.2781667 12.8644667,37.2555 L12.8559667,37.2696667 C12.3346333,37.2696667 11.8671333,37.06 11.5214667,36.7256667 L11.5186333,36.7398333 L6.22596667,31.4471667 C5.4808,30.702 5.4808,29.4808333 6.2288,28.7328333 C6.9768,27.9848333 8.20363333,27.9791667 8.9488,28.7243333 L11.3146333,31.0901667 C13.3914667,18.2976667 24.4811333,8.5 37.8431333,8.5 Z M37.8431333,24.5094667 C38.9056333,24.5094667 39.7613,25.3708 39.7613,26.4361333 L39.7613,34.8199667 L45.6376333,34.8199667 C46.7001333,34.8199667 47.5614667,35.6784667 47.5614667,36.7353 C47.5614667,37.8034667 46.7001333,38.6591333 45.6376333,38.6591333 L38.0839667,38.6591333 C38.0018,38.6704667 37.9281333,38.7073 37.8431333,38.7073 C36.7806333,38.7073 35.9278,37.8516333 35.9278,36.7891333 L35.9278,26.4361333 C35.9278,25.3708 36.7806333,24.5094667 37.8431333,24.5094667 Z" id="path-3"></path>
        <path d="M59.2366053,24.7958822 C59.3036987,24.9011657 59.3865787,24.9791535 59.4457787,25.1039339 C60.1364453,26.5194121 60.1009253,28.7069692 59.3550053,30.8126392 C58.5498853,33.0781842 57.192232,34.5443544 55.9332453,35.1877536 C57.4132453,31.7211968 58.482792,28.1454572 59.2366053,24.7958822 M16.0640187,30.8126392 C15.4838587,29.1787953 15.325992,27.4552654 15.6377787,26.0904793 C15.7206587,25.7200373 15.8785253,25.4548789 16.0206053,25.1663241 C16.7507387,28.3443261 17.765032,31.7055993 19.1463653,34.981086 C17.9860453,34.2480008 16.794152,32.8676172 16.0640187,30.8126392 M60.6692453,61.4696347 C57.405352,61.0329031 54.9742053,59.7266078 53.2416187,57.4649623 C49.4291387,52.4971408 50.478952,44.6749667 50.490792,44.596979 C50.5065787,44.5033936 50.4750053,44.4137077 50.4750053,44.316223 C51.9747387,42.542001 53.2534587,40.5611115 54.362472,38.4749384 C54.480872,38.4827372 54.5913787,38.5334292 54.7137253,38.5334292 C57.6342587,38.5334292 60.696872,35.8584485 62.1492453,31.7835871 C63.1635387,28.9292344 63.147752,25.9579001 62.1137253,23.8327331 C61.6006587,22.7720993 60.8073787,22.0585112 59.8956987,21.5671882 C60.9612987,15.679111 61.123112,11.1246247 61.134952,10.606006 C61.158632,9.52587529 60.2982587,8.63291523 59.2089787,8.6095189 C57.9420987,8.51983296 57.215912,9.43618934 57.1882853,10.5085213 C57.180392,10.8477681 56.138472,43.9769761 37.585192,47.966051 C19.055592,43.9808755 17.989992,10.8477681 17.9820987,10.5085213 C17.9584187,9.43618934 17.196712,8.62901584 15.9614053,8.6095189 C14.8721253,8.63291523 14.011752,9.52587529 14.035432,10.606006 C14.0512187,11.1246247 14.213032,15.7142055 15.2865253,21.6334778 C14.047272,22.3860598 13.1434853,23.6884557 12.744872,25.4509795 C12.3146853,27.3655795 12.5001787,29.6116275 13.2697787,31.7835871 C14.722152,35.8584485 17.788712,38.5334292 20.7092453,38.5334292 C20.7526587,38.5334292 20.7881787,38.5139323 20.831592,38.5139323 C21.968232,40.6546968 23.294312,42.6745802 24.8492987,44.4838967 C24.8532453,44.5228906 24.8374587,44.5579851 24.8414053,44.6008783 C24.8532453,44.6788661 25.9267387,52.4542476 22.1024187,57.4532641 C20.369832,59.7188091 17.9386853,61.0329031 14.6668987,61.4696347 C13.585512,61.6139121 12.827752,62.5965581 12.9737787,63.6649906 C13.1079653,64.6437372 13.9564987,65.353426 14.9273787,65.353426 C15.0142053,65.353426 15.1049787,65.3456272 15.195752,65.3339291 C19.5015653,64.7607189 22.8838587,62.896811 25.2518587,59.8045956 C28.065832,56.1235725 28.7841253,51.5183942 28.8985787,48.2234106 C31.1994853,49.9040472 33.8279653,51.1869462 36.8945253,51.8186472 C36.9142587,51.826446 36.9379387,51.8303453 36.957672,51.8381441 C37.0444987,51.8537417 37.1194853,51.8927356 37.2102587,51.9122325 C37.3326053,51.9317295 37.454952,51.9434276 37.5772987,51.9434276 C37.5812453,51.9434276 37.5812453,51.9434276 37.5812453,51.9434276 L37.585192,51.9434276 C37.5891387,51.9434276 37.5891387,51.9434276 37.5891387,51.9434276 C37.7114853,51.9434276 37.833832,51.9317295 37.9561787,51.9122325 C38.046952,51.8927356 38.1219387,51.8537417 38.2087653,51.8381441 C38.2324453,51.8303453 38.2521787,51.826446 38.271912,51.8186472 C41.4134587,51.1713486 44.0892987,49.841657 46.4257253,48.1025296 C46.5283387,51.3975132 47.234792,56.0767798 50.0842853,59.8045956 C52.4483387,62.896811 55.8345787,64.7607189 60.140392,65.3339291 C60.2272187,65.3456272 60.317992,65.353426 60.4048187,65.353426 C61.3796453,65.353426 62.224232,64.6437372 62.3623653,63.6649906 C62.508392,62.5965581 61.750632,61.6139121 60.6692453,61.4696347" id="path-5"></path>
    </defs>
    <g id="Page-1" stroke="none" stroke-width="1" fill="none" fill-rule="evenodd">
        <g id="8_Forehead-Lift" transform="translate(-599.000000, -6366.000000)">
            <g id="Group-30" transform="translate(609.000000, 6376.000000)">
                <g id="Rectangle-5">
                    <use fill="black" fill-opacity="1" filter="url(#filter-2)" xlink:href="#path-1"></use>
                    <use fill="#FFFFFF" fill-rule="evenodd" xlink:href="#path-1"></use>
                </g>
                <path d="M87.401,191.832 C86.231,191.994 84.431,192.138 82.523,192.246 C80.687,192.318 78.797,192.39 77.375,192.408 C77.303,192.012 77.231,191.616 77.177,191.202 C77.915,191.202 78.689,191.202 79.499,191.184 L78.923,184.65 L80.309,184.488 L80.759,191.166 C81.389,191.148 82.001,191.112 82.613,191.076 C82.811,191.076 82.991,191.058 83.189,191.058 C83.333,188.88 83.477,186.666 83.639,184.47 L85.007,184.632 C84.809,186.738 84.611,188.88 84.431,190.986 C85.583,190.914 86.573,190.824 87.293,190.716 L87.401,191.832 Z M89.993,196.26 L88.625,196.26 L88.625,180.528 L89.993,180.528 L89.993,196.26 Z M86.429,183.336 L77.609,183.336 L77.609,182.184 L86.429,182.184 L86.429,183.336 Z M105.221,188.07 L94.457,188.07 L94.457,181.14 L95.843,181.14 L95.843,183.462 L103.853,183.462 L103.853,181.14 L105.221,181.14 L105.221,188.07 Z M100.505,196.278 L99.137,196.278 L99.137,191.094 L92.747,191.094 L92.747,189.942 L106.949,189.942 L106.949,191.094 L100.505,191.094 L100.505,196.278 Z M103.853,186.936 L103.853,184.578 L95.843,184.578 L95.843,186.936 L103.853,186.936 Z M126.317,196.26 L124.967,196.26 L124.967,187.98 L123.023,187.98 L123.023,195.468 L121.709,195.468 L121.709,180.906 L123.023,180.906 L123.023,186.846 L124.967,186.846 L124.967,180.528 L126.317,180.528 L126.317,196.26 Z M120.971,191.454 L120.107,192.462 C118.991,191.688 117.443,189.798 116.993,188.142 C116.669,189.888 115.247,191.742 113.717,192.84 L112.799,191.868 C114.653,190.68 116.309,188.196 116.309,185.154 L116.309,183.552 L113.177,183.552 L113.177,182.418 L120.683,182.418 L120.683,183.552 L117.659,183.552 L117.659,185.1 C117.659,188.214 119.315,190.428 120.971,191.454 Z M142.031,193.326 C142.031,195.108 140.033,196.224 136.667,196.224 C133.301,196.224 131.321,195.108 131.321,193.326 C131.321,191.544 133.301,190.428 136.667,190.428 C140.033,190.428 142.031,191.544 142.031,193.326 Z M141.887,190.464 L140.519,190.464 L140.519,185.838 L138.557,185.838 L138.557,189.69 L137.225,189.69 L137.225,180.816 L138.557,180.816 L138.557,184.686 L140.519,184.686 L140.519,180.528 L141.887,180.528 L141.887,190.464 Z M136.667,191.58 C134.273,191.58 132.761,192.264 132.761,193.326 C132.761,194.406 134.273,195.09 136.667,195.09 C139.079,195.09 140.573,194.406 140.573,193.326 C140.573,192.264 139.079,191.58 136.667,191.58 Z M136.577,188.034 L135.839,189.078 C134.435,188.412 133.085,187.026 132.545,185.802 C132.149,187.08 130.781,188.772 129.323,189.618 L128.477,188.574 C130.151,187.674 131.843,185.766 131.843,183.408 L131.843,181.446 L133.175,181.446 L133.175,183.372 C133.175,185.784 135.083,187.386 136.577,188.034 Z" id="피부-재생" fill="#555555"></path>
                <path d="M81.796,220.112 L82.104,222.356 C79.42,222.862 76.956,222.928 72.908,222.928 L71.214,222.928 L71.214,212.17 L80.718,212.17 L80.718,214.48 L74.096,214.48 L74.096,216.394 L80.3,216.394 L80.3,218.638 L74.096,218.638 L74.096,220.64 C77.352,220.618 79.464,220.53 81.796,220.112 Z M76.252,224.27 L76.252,228.23 L87.142,228.23 L87.142,230.54 L73.348,230.54 L73.348,224.27 L76.252,224.27 Z M86.416,216.636 L89.1,216.636 L89.1,219.012 L86.416,219.012 L86.416,225.656 L83.512,225.656 L83.512,210.63 L86.416,210.63 L86.416,216.636 Z M98.142,219.474 L98.142,216.812 L94.16,216.812 L94.16,219.474 L98.142,219.474 Z M101.002,211.928 L101.002,221.762 L91.3,221.762 L91.3,211.928 L94.16,211.928 L94.16,214.59 L98.142,214.59 L98.142,211.928 L101.002,211.928 Z M93.126,225.986 L93.126,223.676 L106.656,223.676 L106.656,230.914 L103.752,230.914 L103.752,225.986 L93.126,225.986 Z M109.34,215.558 L109.34,217.934 L106.656,217.934 L106.656,222.774 L103.752,222.774 L103.752,210.63 L106.656,210.63 L106.656,215.558 L109.34,215.558 Z M116.006,214.832 L116.006,223.83 C116.754,223.83 117.502,223.786 118.272,223.764 L118.272,214.832 L116.006,214.832 Z M121.066,214.832 L121.066,223.588 C121.924,223.544 122.76,223.456 123.596,223.346 L123.772,225.436 C119.504,226.162 114.84,226.25 111.21,226.272 L110.902,223.896 L113.19,223.896 L113.19,214.832 L111.43,214.832 L111.43,212.5 L122.804,212.5 L122.804,214.832 L121.066,214.832 Z M124.894,210.652 L127.82,210.652 L127.82,230.914 L124.894,230.914 L124.894,210.652 Z M148.588,215.558 L147.62,217.736 C144.122,217.362 141.614,216.042 140.338,214.194 C139.062,216.042 136.532,217.362 133.034,217.736 L132.088,215.558 C136.642,215.118 138.842,213.072 138.842,211.114 L138.842,210.74 L141.834,210.74 L141.834,211.114 C141.834,213.072 144.034,215.118 148.588,215.558 Z M149.49,220.86 L141.768,220.86 L141.768,222.158 L147.268,222.158 L147.268,227.416 L136.18,227.416 L136.18,228.56 L147.796,228.56 L147.796,230.738 L133.298,230.738 L133.298,225.414 L144.408,225.414 L144.408,224.314 L133.276,224.314 L133.276,222.158 L138.864,222.158 L138.864,220.86 L131.186,220.86 L131.186,218.572 L149.49,218.572 L149.49,220.86 Z" id="탄박피술" fill="#8D7047"></path>
                <g id="Group-7" transform="translate(58.000000, 50.000000)">
                    <g id="-round/ver1/anti-aging" transform="translate(35.904762, 38.209302)">
                        <mask id="mask-4" fill="white">
                            <use xlink:href="#path-3"></use>
                        </mask>
                        <use id="Mask" fill="#231916" fill-rule="evenodd" xlink:href="#path-3"></use>
                        <g id="swatch/dark-brown1" mask="url(#mask-4)" fill="#6C573A" fill-rule="evenodd">
                            <rect id="Rectangle" x="0" y="0" width="71" height="68"></rect>
                        </g>
                    </g>
                    <g id="-round/ver1/face3" opacity="0.5">
                        <mask id="mask-6" fill="white">
                            <use xlink:href="#path-5"></use>
                        </mask>
                        <use id="Fill-1" fill="#613627" fill-rule="evenodd" xlink:href="#path-5"></use>
                        <g id="swatch/dark-brown1" mask="url(#mask-6)" fill="#6C573A" fill-rule="evenodd">
                            <rect id="Rectangle" x="0" y="0" width="77" height="74"></rect>
                        </g>
                    </g>
                </g>
            </g>
        </g>
    </g>
</svg>