<?xml version="1.0" encoding="UTF-8"?>
<svg width="240px" height="300px" viewBox="0 0 240 300" version="1.1" xmlns="http://www.w3.org/2000/svg" xmlns:xlink="http://www.w3.org/1999/xlink">
    <!-- Generator: Sketch 52.5 (67469) - http://www.bohemiancoding.com/sketch -->
    <title>Group 5</title>
    <desc>Created with Sketch.</desc>
    <defs>
        <rect id="path-1" x="0" y="0" width="220" height="280"></rect>
        <filter x="-6.8%" y="-5.4%" width="113.6%" height="110.7%" filterUnits="objectBoundingBox" id="filter-2">
            <feOffset dx="0" dy="0" in="SourceAlpha" result="shadowOffsetOuter1"></feOffset>
            <feGaussianBlur stdDeviation="5" in="shadowOffsetOuter1" result="shadowBlurOuter1"></feGaussianBlur>
            <feColorMatrix values="0 0 0 0 0   0 0 0 0 0   0 0 0 0 0  0 0 0 0.1 0" type="matrix" in="shadowBlurOuter1"></feColorMatrix>
        </filter>
        <path d="M40.2344792,13.8538442 L45.6043125,8.48401086 L47.2621458,10.1442609 L41.8947292,15.5140942 C41.8850625,15.5237609 41.8826458,15.5382609 41.8705625,15.5479275 L40.2006458,13.8780109 C40.2103125,13.8659275 40.2248125,13.8635109 40.2344792,13.8538442 Z M38.4823958,24.9777609 L36.4958958,22.9912609 C35.8844792,22.3774275 34.8888125,22.3774275 34.2749792,22.9912609 C33.6635625,23.6026775 33.6611458,24.5983442 34.2749792,25.2121775 L36.2614792,27.1986775 L34.1758958,29.2842609 L32.1893958,27.2977609 C31.5755625,26.6839275 30.5823125,26.6839275 29.9684792,27.2977609 C29.3546458,27.9115942 29.3546458,28.9072609 29.9684792,29.5186775 L31.9549792,31.5051775 L29.8669792,33.5931775 L22.4768125,26.2005942 L35.2803125,13.3995109 L42.6704792,20.7896775 L38.4823958,24.9777609 Z M19.3278958,42.9360109 L13.1339792,36.7420942 C12.8028958,36.4110109 12.8028958,35.8745109 13.1339792,35.5458442 L20.2558958,28.4239275 L27.6460625,35.8140942 L25.5604792,37.8996775 L23.5739792,35.9131775 C22.9601458,35.3017609 21.9644792,35.3017609 21.3530625,35.9131775 C20.7392292,36.5270109 20.7392292,37.5202609 21.3530625,38.1340942 L23.3395625,40.1205942 L20.5241458,42.9360109 C20.1954792,43.2646775 19.6565625,43.2646775 19.3278958,42.9360109 Z M13.3418125,43.4265942 C12.9575625,43.8108442 12.2591458,43.1100109 12.6433958,42.7281775 L13.6608125,41.7107609 L14.3592292,42.4091775 L13.3418125,43.4265942 Z M31.7664792,9.88567753 L33.0569792,11.1785942 L10.9130625,33.3249275 C9.35914583,34.8788442 9.35914583,37.4090942 10.9130625,38.9630109 L11.4398958,39.4874275 L10.4224792,40.5048442 C9.4050625,41.5246775 9.1295625,42.9988442 9.57422917,44.2724275 L2.87522917,50.9714275 C2.2638125,51.5852609 2.2638125,52.5809275 2.87522917,53.1947609 C3.4890625,53.8061775 4.48472917,53.8061775 5.09614583,53.1923442 L11.7951458,46.4933442 C13.0711458,46.9380109 14.5453125,46.6649275 15.5651458,45.6475109 L16.5801458,44.6300942 L17.1069792,45.1569275 C18.6608958,46.7108442 21.1911458,46.7108442 22.7474792,45.1569275 L44.8913958,23.0105942 L46.1843125,24.3035109 C46.7981458,24.9173442 47.7913958,24.9173442 48.4052292,24.3035109 C49.0190625,23.6896775 49.0190625,22.6964275 48.4052292,22.0825942 L44.0818125,17.7591775 C44.0914792,17.7470942 44.1059792,17.7446775 44.1156458,17.7350109 L49.4854792,12.3651775 L50.9717292,13.8538442 C51.5855625,14.4676775 52.5812292,14.4676775 53.1926458,13.8538442 C53.8064792,13.2424275 53.8064792,12.2467609 53.1926458,11.6329275 L44.4370625,2.87492753 C43.8232292,2.26351086 42.8275625,2.26351086 42.2137292,2.8773442 C41.6023125,3.48876086 41.6023125,4.48442753 42.2137292,5.0958442 L43.3833958,6.2630942 L38.0135625,11.6329275 C38.0038958,11.6425942 38.0014792,11.6570942 37.9893958,11.6691775 L33.9873958,7.66476086 C33.3735625,7.05092753 32.3803125,7.05092753 31.7664792,7.6623442 C31.1526458,8.27617753 31.1526458,9.2718442 31.7664792,9.88567753 Z" id="path-3"></path>
        <path d="M57.1790028,28.5590759 C57.3542361,28.7806945 57.5346233,28.9971591 57.6789331,29.3012404 C58.580869,31.1721132 58.5344837,34.0634622 57.5603929,36.8465789 C56.4265306,40.0832405 54.4319636,42.170578 52.6796309,42.8715111 C54.7205831,38.1041353 56.1688346,33.1666802 57.1790028,28.5590759 M49.27289,72.0736204 C44.2942035,65.5075266 45.6703001,55.1687636 45.6857618,55.0656852 C45.7012236,54.9368372 45.6651461,54.823451 45.6599922,54.694603 C47.6287896,52.3341077 49.3089674,49.7056087 50.7623728,46.9276459 C51.0097609,46.9585694 51.2519951,47.05134 51.4993833,47.05134 C55.3132839,47.05134 59.3127256,43.515751 61.2093681,38.124751 C62.5287715,34.3572356 62.5133098,30.4247949 61.1629828,27.6210625 C60.4362801,26.1109641 59.3178795,25.0904879 57.9933222,24.4565558 C59.353957,16.7565997 59.5652677,10.8192842 59.5807295,10.1389668 C59.6168069,8.71133099 58.4880985,7.53623729 57.0707705,7.50015985 C55.4060545,7.48469809 54.4628871,8.59279083 54.4268097,10.0101188 C54.4165019,10.4636637 53.0661749,54.9059137 28.3376679,59.6681355 C26.9409557,59.9361393 26.0287119,61.2916202 26.2967157,62.6883325 C26.533796,63.9201193 27.6161192,64.77567 28.8272903,64.77567 C28.9870618,64.77567 29.1519873,64.7602082 29.3169127,64.7344386 C33.59982,63.9046576 37.2178717,62.08017 40.3772245,59.699059 C40.5112264,64.0592751 41.4286241,70.2439788 45.1497542,75.1659722 C48.242106,79.2581845 52.6590152,81.7166042 58.2819417,82.4742304 C58.4004818,82.4896922 58.519022,82.5 58.6324082,82.5 C59.9002725,82.5 61.0083652,81.5619866 61.1835985,80.2683527 C61.3742935,78.8613327 60.3847409,77.557391 58.9725669,77.3666959 C54.7102753,76.7894569 51.5406146,75.0577399 49.27289,72.0736204 Z" id="path-5"></path>
    </defs>
    <g id="Page-1" stroke="none" stroke-width="1" fill="none" fill-rule="evenodd">
        <g id="목주름-제거" transform="translate(-839.000000, -5009.000000)">
            <g id="Group-5" transform="translate(849.000000, 5019.000000)">
                <g id="Rectangle-5-Copy">
                    <use fill="black" fill-opacity="1" filter="url(#filter-2)" xlink:href="#path-1"></use>
                    <use fill="#FFFFFF" fill-rule="evenodd" xlink:href="#path-1"></use>
                </g>
                <path d="M97.292,186.378 L92.72,186.378 L92.72,187.674 L99.164,187.674 L99.164,188.79 L84.962,188.79 L84.962,187.674 L91.352,187.674 L91.352,186.378 L86.834,186.378 L86.834,180.96 L88.202,180.96 L88.202,182.562 L95.924,182.562 L95.924,180.96 L97.292,180.96 L97.292,186.378 Z M97.922,196.026 L86.798,196.026 L86.798,192.48 L95.96,192.48 L95.96,191.166 L86.708,191.166 L86.708,190.05 L97.328,190.05 L97.328,193.488 L88.166,193.488 L88.166,194.892 L97.922,194.892 L97.922,196.026 Z M95.924,185.262 L95.924,183.678 L88.202,183.678 L88.202,185.262 L95.924,185.262 Z M112.934,196.044 L102.35,196.044 L102.35,191.274 L104.276,191.274 L104.276,189.726 L100.532,189.726 L100.532,188.592 L114.734,188.592 L114.734,189.726 L110.954,189.726 L110.954,191.274 L112.934,191.274 L112.934,196.044 Z M113.132,187.206 L102.422,187.206 L102.422,183.516 L111.458,183.516 L111.458,182.058 L102.386,182.058 L102.386,180.978 L112.826,180.978 L112.826,184.542 L103.79,184.542 L103.79,186.09 L113.132,186.09 L113.132,187.206 Z M111.548,194.91 L111.548,192.408 L103.718,192.408 L103.718,194.91 L111.548,194.91 Z M105.644,189.726 L105.644,191.274 L109.568,191.274 L109.568,189.726 L105.644,189.726 Z M132.32,185.46 L129.692,185.46 L129.692,184.326 L132.32,184.326 L132.32,180.528 L133.688,180.528 L133.688,188.934 L132.32,188.934 L132.32,185.46 Z M133.706,196.044 L123.626,196.044 L123.626,189.816 L124.994,189.816 L124.994,191.814 L132.338,191.814 L132.338,189.762 L133.706,189.762 L133.706,196.044 Z M132.338,194.928 L132.338,192.93 L124.994,192.93 L124.994,194.928 L132.338,194.928 Z M125.012,181.302 C127.226,181.302 129.044,182.742 129.044,184.974 C129.044,187.224 127.226,188.628 125.012,188.628 C122.816,188.628 120.962,187.224 120.962,184.992 C120.962,182.778 122.798,181.302 125.012,181.302 Z M125.012,182.49 C123.464,182.49 122.33,183.498 122.33,184.974 C122.33,186.486 123.464,187.494 125.012,187.494 C126.614,187.494 127.676,186.486 127.676,184.992 C127.676,183.516 126.632,182.49 125.012,182.49 Z" id="볼륨-업" fill="#555555"></path>
                <path d="M108.02,213.988 L108.02,222.466 L105.644,222.466 L105.644,213.988 L108.02,213.988 Z M98.516,216.814 L98.516,220.234 C99.092,220.216 99.686,220.198 100.262,220.162 L100.262,216.814 L98.516,216.814 Z M104.474,219.856 L104.582,221.53 C101.324,222.07 97.598,222.16 94.736,222.178 L94.502,220.288 L96.23,220.27 L96.23,216.814 L94.916,216.814 L94.916,214.978 L103.844,214.978 L103.844,216.814 L102.548,216.814 L102.548,220.036 C103.214,220 103.844,219.928 104.474,219.856 Z M99.182,228.586 L108.488,228.586 L108.488,230.422 L96.824,230.422 L96.824,225.904 L105.662,225.904 L105.662,224.95 L96.806,224.95 L96.806,223.132 L108.02,223.132 L108.02,227.596 L99.182,227.596 L99.182,228.586 Z M113.69,221.584 L113.69,224.806 C115.94,224.788 117.83,224.68 119.918,224.338 L120.134,226.264 C117.668,226.66 115.472,226.75 112.718,226.75 L111.35,226.75 L111.35,219.73 L116.426,219.73 L116.426,217.264 L111.314,217.264 L111.314,215.374 L118.784,215.374 L118.784,221.584 L113.69,221.584 Z M122.258,213.952 L124.652,213.952 L124.652,230.584 L122.258,230.584 L122.258,221.854 L119.666,221.854 L119.666,219.928 L122.258,219.928 L122.258,213.952 Z" id="필러" fill="#8D7047"></path>
                <g id="Group-4" transform="translate(63.000000, 52.000000)">
                    <g id="-round/ver1/syringe" transform="translate(65.000000, 73.000000) rotate(90.000000) translate(-65.000000, -73.000000) translate(36.000000, 44.000000)">
                        <mask id="mask-4" fill="white">
                            <use xlink:href="#path-3"></use>
                        </mask>
                        <use id="Mask" fill="#00A0E8" fill-rule="evenodd" xlink:href="#path-3"></use>
                        <g id="swatch/dark-brown1" mask="url(#mask-4)" fill="#6C573A" fill-rule="evenodd">
                            <rect id="Rectangle" x="0" y="0" width="60" height="58"></rect>
                        </g>
                    </g>
                    <g id="-round/ver1/neck" opacity="0.5">
                        <mask id="mask-6" fill="white">
                            <use xlink:href="#path-5"></use>
                        </mask>
                        <use id="Fill-4" fill="#613627" fill-rule="evenodd" xlink:href="#path-5"></use>
                        <g id="swatch/dark-brown1" mask="url(#mask-6)" fill="#6C573A" fill-rule="evenodd">
                            <rect id="Rectangle" x="0" y="0" width="94" height="90"></rect>
                        </g>
                    </g>
                </g>
            </g>
        </g>
    </g>
</svg>