<?xml version="1.0" encoding="UTF-8"?>
<svg width="240px" height="300px" viewBox="0 0 240 300" version="1.1" xmlns="http://www.w3.org/2000/svg" xmlns:xlink="http://www.w3.org/1999/xlink">
    <!-- Generator: Sketch 52.5 (67469) - http://www.bohemiancoding.com/sketch -->
    <title>Group 18</title>
    <desc>Created with Sketch.</desc>
    <defs>
        <rect id="path-1" x="0" y="0" width="220" height="280"></rect>
        <filter x="-6.8%" y="-5.4%" width="113.6%" height="110.7%" filterUnits="objectBoundingBox" id="filter-2">
            <feOffset dx="0" dy="0" in="SourceAlpha" result="shadowOffsetOuter1"></feOffset>
            <feGaussianBlur stdDeviation="5" in="shadowOffsetOuter1" result="shadowBlurOuter1"></feGaussianBlur>
            <feColorMatrix values="0 0 0 0 0   0 0 0 0 0   0 0 0 0 0  0 0 0 0.1 0" type="matrix" in="shadowBlurOuter1"></feColorMatrix>
        </filter>
        <path d="M55.3604677,36.7744966 C56.0611718,36.9641609 56.4773794,37.6859387 56.2877152,38.3919112 C55.9399974,39.6616079 55.5606689,40.8628148 55.1497297,42.0060688 C54.9600654,42.5434508 54.4542941,42.8753632 53.9116436,42.8753632 C53.764127,42.8753632 53.6113419,42.8542894 53.4690937,42.8016049 C52.784195,42.5539877 52.4259404,41.8005992 52.6735576,41.1157005 C53.0581545,40.035668 53.4216777,38.902951 53.7430532,37.7017441 C53.9379859,37.00104 54.6544953,36.5901008 55.3604677,36.7744966 Z M42.7915235,55.5433544 C43.3552478,55.0849991 44.1876631,55.1745628 44.6460183,55.7382871 C45.0991051,56.3072798 45.0148099,57.1344267 44.4458172,57.5875135 C43.4342745,58.4093919 42.3753158,59.157512 41.2952833,59.8160684 C41.0792768,59.9477797 40.8421965,60.0057326 40.6051162,60.0057326 C40.1625663,60.0057326 39.7305533,59.7844577 39.4829361,59.3787869 C39.1036076,58.7571097 39.2985403,57.9457682 39.9202175,57.5664397 C40.9054179,56.9711047 41.8695445,56.286206 42.7915235,55.5433544 Z M51.3116629,44.4074289 C51.6225015,43.7488725 52.4075008,43.4643761 53.0660572,43.7699463 C53.7246136,44.0807849 54.00911,44.8605157 53.6982713,45.5243405 C53.1345471,46.7255474 52.5392121,47.8477276 51.9175348,48.8961494 C51.6699176,49.312357 51.2326361,49.5389004 50.7848178,49.5389004 C50.5530059,49.5389004 50.3211941,49.4809475 50.110456,49.3545046 C49.4835103,48.9804446 49.2780407,48.1743716 49.6521008,47.5526943 C50.2316304,46.5727624 50.7900862,45.529609 51.3116629,44.4074289 Z M62.9338665,38.6216157 C63.3237319,39.2380245 63.1393361,40.049366 62.5229273,40.4392314 C62.3069208,40.5762111 62.0593036,40.644701 61.8222232,40.644701 C61.3849418,40.644701 60.9581972,40.4286945 60.7053116,40.0282922 L57.1807177,34.4595391 C57.1649123,34.5385659 57.1543754,34.633398 57.13857,34.7071563 C57.0173957,35.3341021 56.4642083,35.7713835 55.8477995,35.7713835 C55.7635043,35.7713835 55.679209,35.7661151 55.5949138,35.7503097 C54.8784044,35.6080615 54.4147807,34.9178944 54.5517605,34.2066535 C54.5675658,34.1328952 54.5781027,34.0485999 54.5886396,33.9748416 L49.3254568,38.1632604 C49.083108,38.3529246 48.7933432,38.4424883 48.5088468,38.4424883 C48.1189814,38.4424883 47.7343845,38.2738979 47.4762304,37.9525223 C47.0231436,37.3782612 47.1179757,36.5511143 47.6869684,36.0980275 L55.6159876,29.7916913 C55.6159876,29.7916913 55.6212561,29.7916913 55.6265245,29.7864228 C55.6475983,29.7706175 55.6739406,29.7811544 55.6897459,29.765349 C55.7108197,29.7495437 55.7108197,29.7232014 55.7318935,29.7073961 C55.8636048,29.6231008 56.0216584,29.65998 56.169175,29.6283693 C56.3166916,29.602027 56.4484029,29.496658 56.5959196,29.5177318 C56.601188,29.5177318 56.601188,29.5124634 56.6064565,29.5124634 C56.6275303,29.5177318 56.6380672,29.5440741 56.6644094,29.5440741 C56.822463,29.5756848 56.927832,29.6968592 57.0700802,29.7811544 C57.2017915,29.8601812 57.3651135,29.8707181 57.465214,30.0024293 C57.4704825,30.0076978 57.465214,30.0129662 57.4704825,30.0129662 C57.4862878,30.03404 57.4810194,30.0603823 57.4968247,30.0761877 C57.5126301,30.0972615 57.5389723,30.0972615 57.5495092,30.1183353 L62.9338665,38.6216157 Z M36.8128849,59.1838542 C37.4819783,58.8940894 38.2564406,59.1996596 38.540937,59.8740213 C38.8307018,60.5431147 38.5198632,61.3123085 37.8507698,61.6020734 C36.0858387,62.3607304 34.6106723,62.7453273 34.2787599,62.7453273 C33.5517136,62.7453273 32.961647,62.1499923 32.961647,61.4282145 C32.961647,60.7064366 33.5306398,60.126907 34.2471492,60.1111017 C34.2155385,60.0900278 35.2692287,59.8476791 36.8128849,59.1838542 Z M47.6764315,50.4808995 C48.1189814,49.8961014 48.9461283,49.7907324 49.5203895,50.2280139 C50.0999191,50.6705638 50.215825,51.4924422 49.7732751,52.0719718 C48.9935443,53.1045883 48.1558606,54.0845202 47.2812977,54.9906938 C47.0178751,55.2646533 46.6754258,55.3963646 46.3329764,55.3963646 C46.001064,55.3963646 45.67442,55.2751902 45.4162659,55.027573 C44.8946892,54.5270701 44.8788839,53.6893864 45.3793868,53.1678097 C46.1591175,52.3617366 46.9283114,51.4713684 47.6764315,50.4808995 Z" id="path-3"></path>
        <path d="M55.3604677,36.7744966 C56.0611718,36.9641609 56.4773794,37.6859387 56.2877152,38.3919112 C55.9399974,39.6616079 55.5606689,40.8628148 55.1497297,42.0060688 C54.9600654,42.5434508 54.4542941,42.8753632 53.9116436,42.8753632 C53.764127,42.8753632 53.6113419,42.8542894 53.4690937,42.8016049 C52.784195,42.5539877 52.4259404,41.8005992 52.6735576,41.1157005 C53.0581545,40.035668 53.4216777,38.902951 53.7430532,37.7017441 C53.9379859,37.00104 54.6544953,36.5901008 55.3604677,36.7744966 Z M42.7915235,55.5433544 C43.3552478,55.0849991 44.1876631,55.1745628 44.6460183,55.7382871 C45.0991051,56.3072798 45.0148099,57.1344267 44.4458172,57.5875135 C43.4342745,58.4093919 42.3753158,59.157512 41.2952833,59.8160684 C41.0792768,59.9477797 40.8421965,60.0057326 40.6051162,60.0057326 C40.1625663,60.0057326 39.7305533,59.7844577 39.4829361,59.3787869 C39.1036076,58.7571097 39.2985403,57.9457682 39.9202175,57.5664397 C40.9054179,56.9711047 41.8695445,56.286206 42.7915235,55.5433544 Z M51.3116629,44.4074289 C51.6225015,43.7488725 52.4075008,43.4643761 53.0660572,43.7699463 C53.7246136,44.0807849 54.00911,44.8605157 53.6982713,45.5243405 C53.1345471,46.7255474 52.5392121,47.8477276 51.9175348,48.8961494 C51.6699176,49.312357 51.2326361,49.5389004 50.7848178,49.5389004 C50.5530059,49.5389004 50.3211941,49.4809475 50.110456,49.3545046 C49.4835103,48.9804446 49.2780407,48.1743716 49.6521008,47.5526943 C50.2316304,46.5727624 50.7900862,45.529609 51.3116629,44.4074289 Z M62.9338665,38.6216157 C63.3237319,39.2380245 63.1393361,40.049366 62.5229273,40.4392314 C62.3069208,40.5762111 62.0593036,40.644701 61.8222232,40.644701 C61.3849418,40.644701 60.9581972,40.4286945 60.7053116,40.0282922 L57.1807177,34.4595391 C57.1649123,34.5385659 57.1543754,34.633398 57.13857,34.7071563 C57.0173957,35.3341021 56.4642083,35.7713835 55.8477995,35.7713835 C55.7635043,35.7713835 55.679209,35.7661151 55.5949138,35.7503097 C54.8784044,35.6080615 54.4147807,34.9178944 54.5517605,34.2066535 C54.5675658,34.1328952 54.5781027,34.0485999 54.5886396,33.9748416 L49.3254568,38.1632604 C49.083108,38.3529246 48.7933432,38.4424883 48.5088468,38.4424883 C48.1189814,38.4424883 47.7343845,38.2738979 47.4762304,37.9525223 C47.0231436,37.3782612 47.1179757,36.5511143 47.6869684,36.0980275 L55.6159876,29.7916913 C55.6159876,29.7916913 55.6212561,29.7916913 55.6265245,29.7864228 C55.6475983,29.7706175 55.6739406,29.7811544 55.6897459,29.765349 C55.7108197,29.7495437 55.7108197,29.7232014 55.7318935,29.7073961 C55.8636048,29.6231008 56.0216584,29.65998 56.169175,29.6283693 C56.3166916,29.602027 56.4484029,29.496658 56.5959196,29.5177318 C56.601188,29.5177318 56.601188,29.5124634 56.6064565,29.5124634 C56.6275303,29.5177318 56.6380672,29.5440741 56.6644094,29.5440741 C56.822463,29.5756848 56.927832,29.6968592 57.0700802,29.7811544 C57.2017915,29.8601812 57.3651135,29.8707181 57.465214,30.0024293 C57.4704825,30.0076978 57.465214,30.0129662 57.4704825,30.0129662 C57.4862878,30.03404 57.4810194,30.0603823 57.4968247,30.0761877 C57.5126301,30.0972615 57.5389723,30.0972615 57.5495092,30.1183353 L62.9338665,38.6216157 Z M36.8128849,59.1838542 C37.4819783,58.8940894 38.2564406,59.1996596 38.540937,59.8740213 C38.8307018,60.5431147 38.5198632,61.3123085 37.8507698,61.6020734 C36.0858387,62.3607304 34.6106723,62.7453273 34.2787599,62.7453273 C33.5517136,62.7453273 32.961647,62.1499923 32.961647,61.4282145 C32.961647,60.7064366 33.5306398,60.126907 34.2471492,60.1111017 C34.2155385,60.0900278 35.2692287,59.8476791 36.8128849,59.1838542 Z M47.6764315,50.4808995 C48.1189814,49.8961014 48.9461283,49.7907324 49.5203895,50.2280139 C50.0999191,50.6705638 50.215825,51.4924422 49.7732751,52.0719718 C48.9935443,53.1045883 48.1558606,54.0845202 47.2812977,54.9906938 C47.0178751,55.2646533 46.6754258,55.3963646 46.3329764,55.3963646 C46.001064,55.3963646 45.67442,55.2751902 45.4162659,55.027573 C44.8946892,54.5270701 44.8788839,53.6893864 45.3793868,53.1678097 C46.1591175,52.3617366 46.9283114,51.4713684 47.6764315,50.4808995 Z" id="path-5"></path>
        <path d="M73.6455093,30.827313 C73.7289227,30.958206 73.8319627,31.0551638 73.9055627,31.2102962 C74.7642293,32.9700799 74.7200693,35.6897455 73.7927093,38.3076055 C72.7917493,41.124229 71.103856,42.9470352 69.5386293,43.7469369 C71.3786293,39.4371636 72.708336,34.9916495 73.6455093,30.827313 M19.9714827,38.3076055 C19.2502027,36.2763401 19.053936,34.1335732 19.4415627,32.4368121 C19.5446027,31.9762626 19.7408693,31.6466062 19.9175093,31.2878624 C20.8252427,35.2388919 22.086256,39.4177721 23.8035893,43.4899988 C22.3610293,42.5785956 20.879216,40.862443 19.9714827,38.3076055 M75.4266293,76.421708 C71.368816,75.8787444 68.3463093,74.2547016 66.1922827,71.4429261 C61.4524427,65.2667156 62.757616,55.5418505 62.772336,55.4448928 C62.7919627,55.3285434 62.7527093,55.217042 62.7527093,55.0958448 C64.6172427,52.8900553 66.2070027,50.4273278 67.585776,47.8337072 C67.732976,47.843403 67.8703627,47.9064255 68.0224693,47.9064255 C71.6534027,47.9064255 75.460976,44.5807738 77.2666293,39.5147299 C78.5276427,35.9660752 78.508016,32.2719839 77.2224693,29.6298844 C76.5846027,28.3112586 75.5983627,27.424095 74.4649227,26.813261 C75.7897227,19.4929488 75.990896,13.8306145 76.005616,13.1858453 C76.035056,11.8429801 74.9654027,10.7328135 73.6111627,10.7037262 C72.0361227,10.5922248 71.133296,11.7314786 71.0989493,13.0646481 C71.089136,13.4864144 69.793776,54.6740784 46.727536,59.6334688 C23.690736,54.6789263 22.365936,13.4864144 22.3561227,13.0646481 C22.3266827,11.7314786 21.379696,10.7279656 19.8439093,10.7037262 C18.4896693,10.7328135 17.420016,11.8429801 17.449456,13.1858453 C17.4690827,13.8306145 17.670256,19.5365798 19.0048693,26.8956751 C17.464176,27.8313176 16.3405493,29.4505125 15.844976,31.6417583 C15.3101493,34.0220718 15.5407627,36.8144558 16.4975627,39.5147299 C18.303216,44.5807738 22.115696,47.9064255 25.7466293,47.9064255 C25.8006027,47.9064255 25.8447627,47.8821861 25.898736,47.8821861 C27.311856,50.5436771 28.960496,53.0548835 30.8937227,55.304304 C30.8986293,55.3527829 30.8790027,55.3964139 30.8839093,55.4497406 C30.8986293,55.5466984 32.2332427,65.2133889 27.4786827,71.4283824 C25.324656,74.2450059 22.3021493,75.8787444 18.2345227,76.421708 C16.890096,76.6010799 15.948016,77.8227479 16.1295627,79.1510694 C16.2963893,80.3678895 17.3513227,81.2502053 18.5583627,81.2502053 C18.6663093,81.2502053 18.7791627,81.2405095 18.892016,81.2259659 C24.2451893,80.5133262 28.4502027,78.1960353 31.3942027,74.3516594 C34.892656,69.7752523 35.7856693,64.0498955 35.9279627,59.9534294 C38.7885493,62.0428695 42.0563893,63.637825 45.8688693,64.423183 C45.8934027,64.4328788 45.9228427,64.4377266 45.947376,64.4474224 C46.0553227,64.466814 46.1485493,64.5152929 46.2614027,64.5395323 C46.4135093,64.5637718 46.565616,64.5783154 46.7177227,64.5783154 C46.7226293,64.5783154 46.7226293,64.5783154 46.7226293,64.5783154 L46.727536,64.5783154 C46.7324427,64.5783154 46.7324427,64.5783154 46.7324427,64.5783154 C46.8845493,64.5783154 47.036656,64.5637718 47.1887627,64.5395323 C47.301616,64.5152929 47.3948427,64.466814 47.5027893,64.4474224 C47.5322293,64.4377266 47.5567627,64.4328788 47.581296,64.423183 C51.4870027,63.6184334 54.8137227,61.9653033 57.7184693,59.8031449 C57.8460427,63.899611 58.724336,69.7170776 62.2669493,74.3516594 C65.2060427,78.1960353 69.4159627,80.5133262 74.769136,81.2259659 C74.8770827,81.2405095 74.989936,81.2502053 75.0978827,81.2502053 C76.3098293,81.2502053 77.359856,80.3678895 77.5315893,79.1510694 C77.713136,77.8227479 76.771056,76.6010799 75.4266293,76.421708" id="path-7"></path>
    </defs>
    <g id="Page-1" stroke="none" stroke-width="1" fill="none" fill-rule="evenodd">
        <g id="목주름-제거" transform="translate(-1080.000000, -5009.000000)">
            <g id="Group-18" transform="translate(1090.000000, 5019.000000)">
                <g id="Rectangle-5-Copy-2">
                    <use fill="black" fill-opacity="1" filter="url(#filter-2)" xlink:href="#path-1"></use>
                    <use fill="#FFFFFF" fill-rule="evenodd" xlink:href="#path-1"></use>
                </g>
                <path d="M67.358,186.864 L66.71,188.016 C64.136,187.566 61.634,185.982 60.914,184.506 C60.284,185.982 57.836,187.602 55.154,188.052 L54.524,186.9 C57.098,186.63 60.14,184.974 60.212,182.778 L55.118,182.778 L55.118,181.644 L66.71,181.644 L66.71,182.778 L61.652,182.778 C61.724,184.992 64.946,186.594 67.358,186.864 Z M61.58,196.26 L60.212,196.26 L60.212,190.626 L53.822,190.626 L53.822,189.474 L68.024,189.474 L68.024,190.626 L61.58,190.626 L61.58,196.26 Z M81.992,187.422 L71.282,187.422 L71.282,183.696 L80.318,183.696 L80.318,182.166 L71.21,182.166 L71.21,181.086 L81.686,181.086 L81.686,184.722 L72.65,184.722 L72.65,186.342 L81.992,186.342 L81.992,187.422 Z M83.594,189.924 L69.392,189.924 L69.392,188.808 L83.594,188.808 L83.594,189.924 Z M81.776,196.044 L71.21,196.044 L71.21,191.346 L81.776,191.346 L81.776,196.044 Z M80.408,194.964 L80.408,192.426 L72.578,192.426 L72.578,194.964 L80.408,194.964 Z M99.164,188.484 L84.962,188.484 L84.962,187.332 L99.164,187.332 L99.164,188.484 Z M97.58,183.48 C97.58,185.208 95.492,186.198 92.072,186.198 C88.688,186.198 86.6,185.208 86.6,183.48 C86.6,181.752 88.688,180.744 92.072,180.744 C95.492,180.744 97.58,181.752 97.58,183.48 Z M92.072,181.86 C89.606,181.86 88.004,182.49 88.004,183.48 C88.004,184.452 89.606,185.064 92.072,185.064 C94.574,185.064 96.194,184.452 96.194,183.48 C96.194,182.49 94.574,181.86 92.072,181.86 Z M97.904,196.116 L86.618,196.116 L86.618,192.372 L96.014,192.372 L96.014,190.986 L86.582,190.986 L86.582,189.888 L97.382,189.888 L97.382,193.416 L87.986,193.416 L87.986,195 L97.904,195 L97.904,196.116 Z M118.712,193.236 C118.712,195.072 116.714,196.242 113.276,196.242 C109.856,196.242 107.84,195.072 107.84,193.236 C107.84,191.4 109.856,190.248 113.276,190.248 C116.714,190.248 118.712,191.4 118.712,193.236 Z M118.532,190.104 L117.164,190.104 L117.164,185.838 L115.274,185.838 L115.274,189.6 L113.942,189.6 L113.942,180.816 L115.274,180.816 L115.274,184.686 L117.164,184.686 L117.164,180.528 L118.532,180.528 L118.532,190.104 Z M117.308,193.236 C117.308,192.066 115.742,191.418 113.276,191.418 C110.792,191.418 109.262,192.066 109.262,193.236 C109.262,194.406 110.792,195.072 113.276,195.072 C115.742,195.072 117.308,194.406 117.308,193.236 Z M113.366,188.646 C112.484,188.79 111.116,188.916 109.586,189.006 C108.074,189.114 106.67,189.168 105.392,189.186 C105.338,188.772 105.284,188.358 105.212,187.962 C105.806,187.962 106.418,187.962 107.03,187.944 C106.904,186.63 106.742,185.316 106.598,184.002 L107.948,183.84 C108.074,185.19 108.164,186.54 108.29,187.89 L109.478,187.836 C109.658,187.836 109.838,187.836 110.018,187.818 C110.144,186.486 110.288,185.136 110.396,183.786 L111.728,183.948 L111.224,187.764 C112.034,187.71 112.682,187.638 113.24,187.566 L113.366,188.646 Z M112.826,183.102 L105.572,183.102 L105.572,181.968 L112.826,181.968 L112.826,183.102 Z M134.282,193.236 C134.282,195.072 132.284,196.242 128.846,196.242 C125.426,196.242 123.41,195.072 123.41,193.236 C123.41,191.4 125.426,190.248 128.846,190.248 C132.284,190.248 134.282,191.4 134.282,193.236 Z M134.102,190.104 L132.734,190.104 L132.734,185.838 L130.844,185.838 L130.844,189.6 L129.512,189.6 L129.512,180.816 L130.844,180.816 L130.844,184.686 L132.734,184.686 L132.734,180.528 L134.102,180.528 L134.102,190.104 Z M132.878,193.236 C132.878,192.066 131.312,191.418 128.846,191.418 C126.362,191.418 124.832,192.066 124.832,193.236 C124.832,194.406 126.362,195.072 128.846,195.072 C131.312,195.072 132.878,194.406 132.878,193.236 Z M128.936,188.646 C128.054,188.79 126.686,188.916 125.156,189.006 C123.644,189.114 122.24,189.168 120.962,189.186 C120.908,188.772 120.854,188.358 120.782,187.962 C121.376,187.962 121.988,187.962 122.6,187.944 C122.474,186.63 122.312,185.316 122.168,184.002 L123.518,183.84 C123.644,185.19 123.734,186.54 123.86,187.89 L125.048,187.836 C125.228,187.836 125.408,187.836 125.588,187.818 C125.714,186.486 125.858,185.136 125.966,183.786 L127.298,183.948 L126.794,187.764 C127.604,187.71 128.252,187.638 128.81,187.566 L128.936,188.646 Z M128.396,183.102 L121.142,183.102 L121.142,181.968 L128.396,181.968 L128.396,183.102 Z M151.058,188.322 L148.502,188.322 L148.502,196.26 L147.134,196.26 L147.134,180.528 L148.502,180.528 L148.502,187.17 L151.058,187.17 L151.058,188.322 Z M143.3,182.778 L138.674,182.778 L138.674,181.608 L143.3,181.608 L143.3,182.778 Z M145.622,185.442 L136.334,185.442 L136.334,184.308 L145.622,184.308 L145.622,185.442 Z M144.686,189.708 C144.686,191.526 143.21,192.948 141.014,192.948 C138.818,192.948 137.342,191.544 137.342,189.708 C137.342,187.872 138.818,186.45 141.014,186.45 C143.21,186.45 144.686,187.854 144.686,189.708 Z M143.318,189.708 C143.318,188.466 142.346,187.602 141.014,187.602 C139.7,187.602 138.71,188.466 138.71,189.708 C138.71,190.932 139.7,191.814 141.014,191.814 C142.364,191.814 143.318,190.932 143.318,189.708 Z M165.242,196.26 L163.892,196.26 L163.892,180.528 L165.242,180.528 L165.242,196.26 Z M162.182,195.468 L160.868,195.468 L160.868,187.8 L158.222,187.8 L158.222,186.648 L160.868,186.648 L160.868,180.906 L162.182,180.906 L162.182,195.468 Z M158.618,182.364 C158.51,187.044 156.458,190.5 152.75,192.894 L151.814,191.886 C155.108,190.032 157.052,186.72 157.214,183.516 L152.426,183.516 L152.426,182.364 L158.618,182.364 Z" id="주름을-팽팽하게" fill="#555555"></path>
                <path d="M70.279,219.244 C70.279,220.594 71.215,221.404 72.457,221.404 C73.681,221.404 74.635,220.594 74.635,219.244 C74.635,217.894 73.681,217.084 72.457,217.084 C71.215,217.084 70.279,217.894 70.279,219.244 Z M76.939,219.244 C76.939,221.674 74.977,223.456 72.457,223.456 C69.919,223.456 67.957,221.674 67.957,219.244 C67.957,216.796 69.919,215.032 72.457,215.032 C74.977,215.032 76.939,216.796 76.939,219.244 Z M72.565,224.788 L72.565,228.37 L81.475,228.37 L81.475,230.26 L70.189,230.26 L70.189,224.788 L72.565,224.788 Z M80.881,218.722 L83.077,218.722 L83.077,220.666 L80.881,220.666 L80.881,226.03 L78.505,226.03 L78.505,213.97 L80.881,213.97 L80.881,218.722 Z M90.565,221.53 L90.565,217.156 L87.415,217.156 L87.415,221.53 L90.565,221.53 Z M95.875,218.47 L92.887,218.47 L92.887,220.144 L95.875,220.144 L95.875,218.47 Z M92.887,222.034 L92.887,223.402 L85.075,223.402 L85.075,215.302 L92.887,215.302 L92.887,216.58 L95.875,216.58 L95.875,213.97 L98.251,213.97 L98.251,226.048 L95.875,226.048 L95.875,222.034 L92.887,222.034 Z M89.683,228.37 L98.611,228.37 L98.611,230.26 L87.307,230.26 L87.307,224.914 L89.683,224.914 L89.683,228.37 Z M108.349,221.782 L108.349,224.77 C110.869,224.752 112.957,224.626 115.297,224.23 L115.549,226.156 C112.849,226.624 110.419,226.732 107.413,226.732 L105.919,226.732 L105.919,219.91 L111.301,219.91 L111.301,217.264 L105.901,217.264 L105.901,215.374 L113.731,215.374 L113.731,221.782 L108.349,221.782 Z M116.449,213.952 L118.825,213.952 L118.825,230.584 L116.449,230.584 L116.449,213.952 Z M130.759,222.268 L130.759,217.3 L127.375,217.3 L127.375,222.268 L130.759,222.268 Z M125.017,222.268 L125.017,217.3 L122.767,217.3 L122.767,215.41 L135.367,215.41 L135.367,217.3 L133.117,217.3 L133.117,222.268 L135.313,222.268 L135.313,224.158 L122.857,224.158 L122.857,222.268 L125.017,222.268 Z M121.597,226.696 L136.609,226.696 L136.609,228.622 L121.597,228.622 L121.597,226.696 Z M151.927,213.97 L151.927,224.014 L149.533,224.014 L149.533,213.97 L151.927,213.97 Z M148.165,221.008 L148.381,222.844 C146.041,223.222 143.971,223.276 140.479,223.276 L139.057,223.276 L139.057,215.122 L147.031,215.122 L147.031,216.994 L141.415,216.994 L141.415,218.272 L146.545,218.272 L146.545,220.108 L141.415,220.108 L141.415,221.404 C144.277,221.386 146.095,221.314 148.165,221.008 Z M146.329,228.73 C148.489,228.73 149.623,228.316 149.623,227.398 C149.623,226.498 148.489,226.066 146.329,226.066 C144.187,226.066 143.035,226.498 143.035,227.398 C143.035,228.316 144.187,228.73 146.329,228.73 Z M146.329,224.248 C149.839,224.248 151.999,225.418 151.999,227.398 C151.999,229.414 149.839,230.566 146.329,230.566 C142.819,230.566 140.677,229.414 140.677,227.398 C140.677,225.418 142.819,224.248 146.329,224.248 Z" id="안면-리프팅" fill="#8D7047"></path>
                <g id="Group-9" transform="translate(22.000000, 50.000000)">
                    <g id="-round/ver1/face3-arrow" opacity="0.5" transform="translate(123.000000, 53.000000) rotate(-9.000000) translate(-123.000000, -53.000000) translate(77.000000, 7.000000)">
                        <mask id="mask-4" fill="white">
                            <use xlink:href="#path-3"></use>
                        </mask>
                        <use id="Fill-4" fill="#613627" fill-rule="evenodd" xlink:href="#path-3"></use>
                        <g id="swatch/dark-brown1" mask="url(#mask-4)" fill="#6C573A" fill-rule="evenodd">
                            <rect id="Rectangle" x="0" y="0" width="96" height="92"></rect>
                        </g>
                    </g>
                    <g id="-round/ver1/face3-arrow" opacity="0.5" transform="translate(53.000000, 53.000000) scale(-1, 1) rotate(-9.000000) translate(-53.000000, -53.000000) translate(7.000000, 7.000000)">
                        <mask id="mask-6" fill="white">
                            <use xlink:href="#path-5"></use>
                        </mask>
                        <use id="Fill-4" fill="#613627" fill-rule="evenodd" xlink:href="#path-5"></use>
                        <g id="swatch/dark-brown1" mask="url(#mask-6)" fill="#6C573A" fill-rule="evenodd">
                            <rect id="Rectangle" x="0" y="0" width="96" height="92"></rect>
                        </g>
                    </g>
                    <g id="-round/ver1/face3" transform="translate(41.000000, 7.000000)">
                        <mask id="mask-8" fill="white">
                            <use xlink:href="#path-7"></use>
                        </mask>
                        <use id="Fill-1" fill="#613627" fill-rule="evenodd" xlink:href="#path-7"></use>
                        <g id="swatch/dark-brown1" mask="url(#mask-8)" fill="#6C573A" fill-rule="evenodd">
                            <rect id="Rectangle" x="0" y="0" width="96" height="92"></rect>
                        </g>
                    </g>
                </g>
            </g>
        </g>
    </g>
</svg>