<?xml version="1.0" encoding="UTF-8"?>
<svg width="300px" height="300px" viewBox="0 0 300 300" version="1.1" xmlns="http://www.w3.org/2000/svg" xmlns:xlink="http://www.w3.org/1999/xlink">
    <!-- Generator: Sketch 52.5 (67469) - http://www.bohemiancoding.com/sketch -->
    <title>Group 8</title>
    <desc>Created with Sketch.</desc>
    <defs>
        <rect id="path-1" x="0" y="0" width="280" height="280"></rect>
        <filter x="-5.4%" y="-5.4%" width="110.7%" height="110.7%" filterUnits="objectBoundingBox" id="filter-2">
            <feOffset dx="0" dy="0" in="SourceAlpha" result="shadowOffsetOuter1"></feOffset>
            <feGaussianBlur stdDeviation="5" in="shadowOffsetOuter1" result="shadowBlurOuter1"></feGaussianBlur>
            <feColorMatrix values="0 0 0 0 0   0 0 0 0 0   0 0 0 0 0  0 0 0 0.1 0" type="matrix" in="shadowBlurOuter1"></feColorMatrix>
        </filter>
        <path d="M22.2444459,42.8917333 L18.4926549,39.6461363 C17.7184757,38.9712109 17.6341101,37.7950542 18.3040728,37.0159124 C18.9789981,36.2417333 20.1501922,36.1623303 20.929334,36.8273303 L24.681125,40.07789 C25.4553041,40.7478527 25.5446325,41.9240094 24.8697071,42.7031512 C24.5024683,43.1249796 23.9863489,43.3433378 23.4652668,43.3433378 C23.0335131,43.3433378 22.5967966,43.1944572 22.2444459,42.8917333 Z M29.7490205,49.3883863 L25.9972295,46.1427893 C25.2230504,45.4678639 25.1386847,44.2917072 25.8086474,43.5125654 C26.4835728,42.7383863 27.6547668,42.6589833 28.4339086,43.3239833 L32.1856996,46.574543 C32.9598787,47.2445057 33.0492071,48.4206624 32.3742817,49.1998042 C32.0070429,49.6216326 31.4909235,49.8399908 30.9698414,49.8399908 C30.5380877,49.8399908 30.1013713,49.6911102 29.7490205,49.3883863 Z M38.472431,56.3381326 C38.0406772,56.3381326 37.6089235,56.189252 37.2565728,55.8865281 L33.5047817,52.6359684 C32.7256399,51.9660057 32.6412743,50.789849 33.3112369,50.0156699 C33.9861623,49.2365281 35.1573563,49.1521624 35.9364981,49.8221251 L39.6882892,53.0677221 C40.467431,53.7426475 40.5517966,54.9188042 39.881834,55.6929833 C39.5096325,56.1197744 38.9935131,56.3381326 38.472431,56.3381326 Z M45.9745243,62.8342893 C45.5427705,62.8342893 45.1110168,62.6854087 44.7537034,62.3826848 L41.006875,59.1321251 C40.2277332,58.4621624 40.1433675,57.2860057 40.8133302,56.5068639 C41.4882556,55.7326848 42.6644123,55.6483191 43.4435541,56.3182818 L47.1953451,59.5638788 C47.9695243,60.2388042 48.0538899,61.4149609 47.3839272,62.1941027 C47.0117257,62.6159311 46.4956063,62.8342893 45.9745243,62.8342893 Z M93.8421175,74.2162109 C94.8693937,74.2162109 95.703125,75.0499423 95.703125,76.0772184 C95.703125,77.1044945 94.8693937,77.9382259 93.8421175,77.9382259 L14.4391325,77.9382259 C13.4118563,77.9382259 12.578125,77.1044945 12.578125,76.0772184 C12.578125,75.0499423 13.4118563,74.2162109 14.4391325,74.2162109 L93.8421175,74.2162109 Z M14.4391325,68.0247632 C13.4118563,68.0247632 12.578125,67.1910318 12.578125,66.1637557 C12.578125,65.1364796 13.4118563,64.3027483 14.4391325,64.3027483 L47.8777146,64.3027483 C47.8578638,63.8461811 47.996819,63.3747259 48.3193937,63.0025244 C48.994319,62.2283453 50.1704757,62.1489423 50.9446549,62.8139423 L52.6667071,64.3027483 L66.9245056,64.3027483 L28.7217444,30.9088303 C27.9475653,30.233905 27.873125,29.0577483 28.5480504,28.2835691 C29.2229757,27.5044274 30.3991325,27.4299871 31.1733116,28.1098751 L68.7209981,60.9281214 L80.1202892,45.2509945 L71.604319,45.6777856 C70.5968937,45.7571885 69.6986474,44.9383453 69.6490205,43.9110691 C69.5993937,42.8887557 70.3884608,42.0103602 71.4157369,41.9607333 L83.8224534,41.3403975 C83.8522295,41.3403975 83.8869683,41.3602483 83.9167444,41.3602483 C84.5470056,41.3602483 85.1177146,41.6828229 85.4651026,42.2237557 C85.4849534,42.2634572 85.5296175,42.2783453 85.554431,42.3130841 C85.5742817,42.3527856 85.5593937,42.3974497 85.5792444,42.4371512 C85.6139832,42.5066288 85.6685728,42.5661811 85.6933862,42.6406214 L89.4948041,54.7396512 C89.8024907,55.7173005 89.2565951,56.7594647 88.2739832,57.0721139 C88.0903638,57.1316662 87.9017817,57.1564796 87.7181623,57.1564796 C86.9241325,57.1564796 86.1896549,56.6502856 85.9415205,55.851293 L83.2467817,47.2807333 L70.8698414,64.3027483 L93.8421175,64.3027483 C94.8693937,64.3027483 95.703125,65.1364796 95.703125,66.1637557 C95.703125,67.1910318 94.8693937,68.0247632 93.8421175,68.0247632 L14.4391325,68.0247632 Z" id="path-3"></path>
    </defs>
    <g id="Page-1" stroke="none" stroke-width="1" fill="none" fill-rule="evenodd">
        <g id="귀앞안면거상술" transform="translate(-360.000000, -5495.000000)">
            <g id="Group-8" transform="translate(370.000000, 5505.000000)">
                <g id="Rectangle-5-Copy-5">
                    <use fill="black" fill-opacity="1" filter="url(#filter-2)" xlink:href="#path-1"></use>
                    <use fill="#FFFFFF" fill-rule="evenodd" xlink:href="#path-1"></use>
                </g>
                <text id="붓기-저하와-세포재생" font-family="AppleSDGothicNeo-Regular, Apple SD Gothic Neo" font-size="18" font-weight="normal" line-spacing="27" fill="#555555">
                    <tspan x="65.201" y="192">붓기 저하와 세포재생</tspan>
                </text>
                <text id="고주파-레이저" font-family="NotoSansCJKkr-Bold, Noto Sans CJK KR" font-size="18" font-weight="bold" fill="#8D7047">
                    <tspan x="88.277" y="229">고주파 레이저</tspan>
                </text>
                <g id="-round/ver1/raser" transform="translate(88.000000, 51.000000)">
                    <mask id="mask-4" fill="white">
                        <use xlink:href="#path-3"></use>
                    </mask>
                    <use id="Fill-7" fill="#613627" fill-rule="evenodd" xlink:href="#path-3"></use>
                    <g id="swatch/dark-brown1" mask="url(#mask-4)" fill="#6C573A" fill-rule="evenodd">
                        <rect id="Rectangle" x="0" y="0" width="109" height="105"></rect>
                    </g>
                </g>
            </g>
        </g>
    </g>
</svg>