<?xml version="1.0" encoding="UTF-8"?>
<svg width="300px" height="300px" viewBox="0 0 300 300" version="1.1" xmlns="http://www.w3.org/2000/svg" xmlns:xlink="http://www.w3.org/1999/xlink">
    <!-- Generator: Sketch 52.5 (67469) - http://www.bohemiancoding.com/sketch -->
    <title>Group 19</title>
    <desc>Created with Sketch.</desc>
    <defs>
        <rect id="path-1" x="0" y="0" width="280" height="280"></rect>
        <filter x="-5.4%" y="-5.4%" width="110.7%" height="110.7%" filterUnits="objectBoundingBox" id="filter-2">
            <feOffset dx="0" dy="0" in="SourceAlpha" result="shadowOffsetOuter1"></feOffset>
            <feGaussianBlur stdDeviation="5" in="shadowOffsetOuter1" result="shadowBlurOuter1"></feGaussianBlur>
            <feColorMatrix values="0 0 0 0 0   0 0 0 0 0   0 0 0 0 0  0 0 0 0.1 0" type="matrix" in="shadowBlurOuter1"></feColorMatrix>
        </filter>
        <path d="M15.0175167,43.2179667 C13.9521833,43.2179667 13.0851833,44.0821333 13.0851833,45.1503 C13.0851833,46.2156333 13.9521833,47.0826333 15.0175167,47.0826333 C16.08285,47.0826333 16.94985,46.2156333 16.94985,45.1503 C16.94985,44.0821333 16.08285,43.2179667 15.0175167,43.2179667 M20.4393833,51.1977667 C21.5047167,51.1977667 22.3717167,52.0619333 22.3717167,53.1301 C22.3717167,54.1954333 21.5047167,55.0624333 20.4393833,55.0624333 C19.37405,55.0624333 18.50705,54.1954333 18.50705,53.1301 C18.50705,52.0619333 19.37405,51.1977667 20.4393833,51.1977667 Z M27.5434,56.4218667 C28.6087333,56.4218667 29.4757333,57.2860333 29.4757333,58.3542 C29.4757333,59.4195333 28.6087333,60.2865333 27.5434,60.2865333 C26.4780667,60.2865333 25.6110667,59.4195333 25.6110667,58.3542 C25.6110667,57.2860333 26.4780667,56.4218667 27.5434,56.4218667 Z M37.8431333,8.5 C52.6813,8.5 64.7541333,20.5643333 64.7541333,35.4081667 C64.7541333,50.2435 52.6813,62.3106667 37.8431333,62.3106667 C36.7806333,62.3106667 35.9278,61.4493333 35.9278,60.3868333 L35.9278,52.8586667 C35.9278,51.7961667 36.7806333,50.932 37.8431333,50.932 C38.9056333,50.932 39.7613,51.7961667 39.7613,52.8586667 L39.7613,58.3751667 C50.9643,57.443 59.9091333,48.4811667 60.8101333,37.2696667 L55.3559667,37.2696667 C54.2934667,37.2696667 53.4293,36.4083333 53.4293,35.3486667 C53.4293,34.2918333 54.2934667,33.4191667 55.3559667,33.4191667 L60.8044667,33.4191667 C59.8468,22.2615 50.9218,13.362 39.7613,12.4355 L39.7613,17.8415 C39.7613,18.904 38.9056333,19.7653333 37.8431333,19.7653333 C36.7806333,19.7653333 35.9278,18.904 35.9278,17.8415 L35.9278,12.4355 C25.5578,13.294 17.1286333,21.046 15.2218,31.0901667 L17.2363,29.0756667 C17.9814667,28.3305 19.2054667,28.3361667 19.9534667,29.0841667 C20.7014667,29.8321667 20.7043,31.0533333 19.9591333,31.7985 L15.2643,36.4905 L15.2359667,36.4366667 C14.7458,36.9806667 14.0516333,37.3376667 13.2611333,37.3376667 C13.1194667,37.3376667 12.9976333,37.2781667 12.8644667,37.2555 L12.8559667,37.2696667 C12.3346333,37.2696667 11.8671333,37.06 11.5214667,36.7256667 L11.5186333,36.7398333 L6.22596667,31.4471667 C5.4808,30.702 5.4808,29.4808333 6.2288,28.7328333 C6.9768,27.9848333 8.20363333,27.9791667 8.9488,28.7243333 L11.3146333,31.0901667 C13.3914667,18.2976667 24.4811333,8.5 37.8431333,8.5 Z M37.8431333,24.5094667 C38.9056333,24.5094667 39.7613,25.3708 39.7613,26.4361333 L39.7613,34.8199667 L45.6376333,34.8199667 C46.7001333,34.8199667 47.5614667,35.6784667 47.5614667,36.7353 C47.5614667,37.8034667 46.7001333,38.6591333 45.6376333,38.6591333 L38.0839667,38.6591333 C38.0018,38.6704667 37.9281333,38.7073 37.8431333,38.7073 C36.7806333,38.7073 35.9278,37.8516333 35.9278,36.7891333 L35.9278,26.4361333 C35.9278,25.3708 36.7806333,24.5094667 37.8431333,24.5094667 Z" id="path-3"></path>
        <path d="M59.2366053,24.7958822 C59.3036987,24.9011657 59.3865787,24.9791535 59.4457787,25.1039339 C60.1364453,26.5194121 60.1009253,28.7069692 59.3550053,30.8126392 C58.5498853,33.0781842 57.192232,34.5443544 55.9332453,35.1877536 C57.4132453,31.7211968 58.482792,28.1454572 59.2366053,24.7958822 M16.0640187,30.8126392 C15.4838587,29.1787953 15.325992,27.4552654 15.6377787,26.0904793 C15.7206587,25.7200373 15.8785253,25.4548789 16.0206053,25.1663241 C16.7507387,28.3443261 17.765032,31.7055993 19.1463653,34.981086 C17.9860453,34.2480008 16.794152,32.8676172 16.0640187,30.8126392 M60.6692453,61.4696347 C57.405352,61.0329031 54.9742053,59.7266078 53.2416187,57.4649623 C49.4291387,52.4971408 50.478952,44.6749667 50.490792,44.596979 C50.5065787,44.5033936 50.4750053,44.4137077 50.4750053,44.316223 C51.9747387,42.542001 53.2534587,40.5611115 54.362472,38.4749384 C54.480872,38.4827372 54.5913787,38.5334292 54.7137253,38.5334292 C57.6342587,38.5334292 60.696872,35.8584485 62.1492453,31.7835871 C63.1635387,28.9292344 63.147752,25.9579001 62.1137253,23.8327331 C61.6006587,22.7720993 60.8073787,22.0585112 59.8956987,21.5671882 C60.9612987,15.679111 61.123112,11.1246247 61.134952,10.606006 C61.158632,9.52587529 60.2982587,8.63291523 59.2089787,8.6095189 C57.9420987,8.51983296 57.215912,9.43618934 57.1882853,10.5085213 C57.180392,10.8477681 56.138472,43.9769761 37.585192,47.966051 C19.055592,43.9808755 17.989992,10.8477681 17.9820987,10.5085213 C17.9584187,9.43618934 17.196712,8.62901584 15.9614053,8.6095189 C14.8721253,8.63291523 14.011752,9.52587529 14.035432,10.606006 C14.0512187,11.1246247 14.213032,15.7142055 15.2865253,21.6334778 C14.047272,22.3860598 13.1434853,23.6884557 12.744872,25.4509795 C12.3146853,27.3655795 12.5001787,29.6116275 13.2697787,31.7835871 C14.722152,35.8584485 17.788712,38.5334292 20.7092453,38.5334292 C20.7526587,38.5334292 20.7881787,38.5139323 20.831592,38.5139323 C21.968232,40.6546968 23.294312,42.6745802 24.8492987,44.4838967 C24.8532453,44.5228906 24.8374587,44.5579851 24.8414053,44.6008783 C24.8532453,44.6788661 25.9267387,52.4542476 22.1024187,57.4532641 C20.369832,59.7188091 17.9386853,61.0329031 14.6668987,61.4696347 C13.585512,61.6139121 12.827752,62.5965581 12.9737787,63.6649906 C13.1079653,64.6437372 13.9564987,65.353426 14.9273787,65.353426 C15.0142053,65.353426 15.1049787,65.3456272 15.195752,65.3339291 C19.5015653,64.7607189 22.8838587,62.896811 25.2518587,59.8045956 C28.065832,56.1235725 28.7841253,51.5183942 28.8985787,48.2234106 C31.1994853,49.9040472 33.8279653,51.1869462 36.8945253,51.8186472 C36.9142587,51.826446 36.9379387,51.8303453 36.957672,51.8381441 C37.0444987,51.8537417 37.1194853,51.8927356 37.2102587,51.9122325 C37.3326053,51.9317295 37.454952,51.9434276 37.5772987,51.9434276 C37.5812453,51.9434276 37.5812453,51.9434276 37.5812453,51.9434276 L37.585192,51.9434276 C37.5891387,51.9434276 37.5891387,51.9434276 37.5891387,51.9434276 C37.7114853,51.9434276 37.833832,51.9317295 37.9561787,51.9122325 C38.046952,51.8927356 38.1219387,51.8537417 38.2087653,51.8381441 C38.2324453,51.8303453 38.2521787,51.826446 38.271912,51.8186472 C41.4134587,51.1713486 44.0892987,49.841657 46.4257253,48.1025296 C46.5283387,51.3975132 47.234792,56.0767798 50.0842853,59.8045956 C52.4483387,62.896811 55.8345787,64.7607189 60.140392,65.3339291 C60.2272187,65.3456272 60.317992,65.353426 60.4048187,65.353426 C61.3796453,65.353426 62.224232,64.6437372 62.3623653,63.6649906 C62.508392,62.5965581 61.750632,61.6139121 60.6692453,61.4696347" id="path-5"></path>
    </defs>
    <g id="Page-1" stroke="none" stroke-width="1" fill="none" fill-rule="evenodd">
        <g id="귀앞안면거상술" transform="translate(-660.000000, -5495.000000)">
            <g id="Group-19" transform="translate(670.000000, 5505.000000)">
                <g id="Rectangle-5">
                    <use fill="black" fill-opacity="1" filter="url(#filter-2)" xlink:href="#path-1"></use>
                    <use fill="#FFFFFF" fill-rule="evenodd" xlink:href="#path-1"></use>
                </g>
                <text id="피부-재생" font-family="AppleSDGothicNeo-Regular, Apple SD Gothic Neo" font-size="18" font-weight="normal" line-spacing="27" fill="#555555">
                    <tspan x="106.493" y="192">피부 재생</tspan>
                </text>
                <text id="탄박피술" font-family="NotoSansCJKkr-Bold, Noto Sans CJK KR" font-size="18" font-weight="bold" fill="#8D7047">
                    <tspan x="106.88" y="229">탄박피술</tspan>
                </text>
                <g id="Group-7" transform="translate(88.000000, 50.000000)">
                    <g id="-round/ver1/anti-aging" transform="translate(35.904762, 38.209302)">
                        <mask id="mask-4" fill="white">
                            <use xlink:href="#path-3"></use>
                        </mask>
                        <use id="Mask" fill="#231916" fill-rule="evenodd" xlink:href="#path-3"></use>
                        <g id="swatch/dark-brown1" mask="url(#mask-4)" fill="#6C573A" fill-rule="evenodd">
                            <rect id="Rectangle" x="0" y="0" width="71" height="68"></rect>
                        </g>
                    </g>
                    <g id="-round/ver1/face3" opacity="0.5">
                        <mask id="mask-6" fill="white">
                            <use xlink:href="#path-5"></use>
                        </mask>
                        <use id="Fill-1" fill="#613627" fill-rule="evenodd" xlink:href="#path-5"></use>
                        <g id="swatch/dark-brown1" mask="url(#mask-6)" fill="#6C573A" fill-rule="evenodd">
                            <rect id="Rectangle" x="0" y="0" width="77" height="74"></rect>
                        </g>
                    </g>
                </g>
            </g>
        </g>
    </g>
</svg>