<?xml version="1.0" encoding="UTF-8"?>
<svg width="1210px" height="905px" viewBox="0 0 1210 905" version="1.1" xmlns="http://www.w3.org/2000/svg" xmlns:xlink="http://www.w3.org/1999/xlink">
    <!-- Generator: Sketch 52.4 (67378) - http://www.bohemiancoding.com/sketch -->
    <title>Group 30</title>
    <desc>Created with Sketch.</desc>
    <defs>
        <path d="M1180,166.004237 L1181,166 L1181,881.443977 L1,881.443977 L1,215 L0,215 L0,0 L20.9861861,0 C22.4050942,6.96795455 28.5439437,12.2159091 35.9212902,12.2159091 C43.2986368,12.2159091 49.4374863,6.96795455 50.8515184,0 L71.3598592,0 C72.7738912,6.96795455 78.9176167,12.2159091 86.2900873,12.2159091 C93.6674339,12.2159091 99.8111594,6.96795455 101.225191,0 L121.738408,0 C123.147564,6.96795455 129.29129,12.2159091 136.66376,12.2159091 C144.041107,12.2159091 150.184832,6.96795455 151.593989,0 L172.107205,0 C173.516361,6.96795455 179.660087,12.2159091 187.032557,12.2159091 C194.409904,12.2159091 200.55363,6.96795455 201.962786,0 L222.476002,0 C223.885158,6.96795455 230.028884,12.2159091 237.401355,12.2159091 C244.773825,12.2159091 250.922427,6.96795455 252.331583,0 L272.844799,0 C274.258832,6.96795455 280.402557,12.2159091 287.775028,12.2159091 C295.152374,12.2159091 301.2961,6.96795455 302.710132,0 L323.213597,0 C324.627629,6.96795455 330.77623,12.2159091 338.143825,12.2159091 C345.521171,12.2159091 351.664897,6.96795455 353.078929,0 L373.592146,0 C375.001302,6.96795455 381.149903,12.2159091 388.517498,12.2159091 C395.894844,12.2159091 402.03857,6.96795455 403.447726,0 L423.960943,0 C425.370099,6.96795455 431.5187,12.2159091 438.891171,12.2159091 C446.263641,12.2159091 452.407367,6.96795455 453.816523,0 L474.324864,0 C475.738896,6.96795455 481.877745,12.2159091 489.259968,12.2159091 C496.622686,12.2159091 502.776164,6.96795455 504.18532,0 L524.698537,0 C526.112569,6.96795455 532.256294,12.2159091 539.633641,12.2159091 C547.006111,12.2159091 553.149837,6.96795455 554.563869,0 L575.067334,0 C576.481366,6.96795455 582.629967,12.2159091 590.002438,12.2159091 C597.374909,12.2159091 603.518634,6.96795455 604.932666,0 L625.436131,0 C626.850163,6.96795455 632.998764,12.2159091 640.371235,12.2159091 C647.748582,12.2159091 653.887431,6.96795455 655.301463,0 L675.81468,0 C677.223836,6.96795455 683.372438,12.2159091 690.744908,12.2159091 C698.122255,12.2159091 704.261104,6.96795455 705.67026,0 L726.183477,0 C727.592633,6.96795455 733.736359,12.2159091 741.113705,12.2159091 C748.486176,12.2159091 754.629901,6.96795455 756.039057,0 L776.552274,0 C777.966306,6.96795455 784.110032,12.2159091 791.482502,12.2159091 C798.859849,12.2159091 804.998698,6.96795455 806.41273,0 L826.925947,0 C828.339979,6.96795455 834.483705,12.2159091 841.856175,12.2159091 C849.233522,12.2159091 855.377247,6.96795455 856.791279,0 L877.294744,0 C878.708776,6.96795455 884.852502,12.2159091 892.224972,12.2159091 C899.602319,12.2159091 905.746044,6.96795455 907.160077,0 L927.668417,0 C929.077573,6.96795455 935.226175,12.2159091 942.593769,12.2159091 C949.971116,12.2159091 956.114842,6.96795455 957.528874,0 L978.04209,0 C979.451246,6.96795455 985.599848,12.2159091 992.967443,12.2159091 C1000.34479,12.2159091 1006.48851,6.96795455 1007.89767,0 L1028.41089,0 C1029.82004,6.96795455 1035.96865,12.2159091 1043.33624,12.2159091 C1050.71359,12.2159091 1056.85731,6.96795455 1058.26647,0 L1078.77968,0 C1080.19372,6.96795455 1086.34232,12.2159091 1093.70991,12.2159091 C1101.08726,12.2159091 1107.23098,6.96795455 1108.64502,0 L1129.14848,0 C1130.56251,6.96795455 1136.71112,12.2159091 1144.07871,12.2159091 C1151.45606,12.2159091 1157.59978,6.96795455 1159.01381,0 L1180,0 L1180,166.004237 Z" id="path-1"></path>
        <filter x="-1.3%" y="-1.7%" width="102.5%" height="103.4%" filterUnits="objectBoundingBox" id="filter-2">
            <feOffset dx="0" dy="0" in="SourceAlpha" result="shadowOffsetOuter1"></feOffset>
            <feGaussianBlur stdDeviation="5" in="shadowOffsetOuter1" result="shadowBlurOuter1"></feGaussianBlur>
            <feColorMatrix values="0 0 0 0 0   0 0 0 0 0   0 0 0 0 0  0 0 0 0.2 0" type="matrix" in="shadowBlurOuter1"></feColorMatrix>
        </filter>
        <rect id="path-3" x="0" y="0" width="1180" height="377"></rect>
        <filter x="-1.9%" y="-6.0%" width="103.8%" height="111.9%" filterUnits="objectBoundingBox" id="filter-5">
            <feOffset dx="0" dy="0" in="SourceAlpha" result="shadowOffsetOuter1"></feOffset>
            <feGaussianBlur stdDeviation="7.5" in="shadowOffsetOuter1" result="shadowBlurOuter1"></feGaussianBlur>
            <feColorMatrix values="0 0 0 0 0   0 0 0 0 0   0 0 0 0 0  0 0 0 0.1 0" type="matrix" in="shadowBlurOuter1"></feColorMatrix>
        </filter>
        <path d="M218.192946,218.268283 C199.824946,236.672158 175.382113,246.788908 149.372738,246.788908 C123.351404,246.788908 98.9085708,236.672158 80.5525292,218.268283 C42.5967792,180.324492 42.5967792,118.583617 80.5525292,80.5919917 C98.9085708,62.2239917 123.351404,52.083325 149.372738,52.083325 C175.382113,52.083325 199.824946,62.2239917 218.192946,80.5919917 C256.172613,118.583617 256.172613,180.324492 218.192946,218.268283 M149.372738,35.8797833 C119.034446,35.8797833 90.5257792,47.6707 69.0964458,69.1359083 C24.8027792,113.429575 24.8027792,185.478533 69.0964458,229.724367 C90.5257792,251.201533 119.034446,263.028325 149.372738,263.028325 C179.699071,263.028325 208.219696,251.201533 229.684904,229.724367 C273.966612,185.478533 273.966612,113.429575 229.684904,69.1359083 C208.219696,47.6707 179.699071,35.8797833 149.372738,35.8797833 M159.7155,204.282218 C159.7155,207.7242 156.068208,210.5145 151.595792,210.5145 C147.147292,210.5145 143.5,207.7242 143.5,204.282218 L143.5,137.746413 C143.5,134.331967 147.147292,131.541667 151.595792,131.541667 C156.068208,131.541667 159.7155,134.331967 159.7155,137.746413 L159.7155,204.282218 Z M151.872029,124.366667 C147.248946,124.366667 143.501196,120.618917 143.501196,115.995833 C143.501196,111.37275 147.248946,107.625 151.872029,107.625 C156.495113,107.625 160.242863,111.37275 160.242863,115.995833 C160.242863,120.618917 156.495113,124.366667 151.872029,124.366667 Z" id="path-6"></path>
        <path d="M53.4147396,18.6310319 L60.5436562,11.4095319 L62.7445729,13.6422819 L55.6188646,20.8637819 C55.6060312,20.8767819 55.6028229,20.8962819 55.5867812,20.9092819 L53.3698229,18.6635319 C53.3826562,18.6472819 53.4019062,18.6440319 53.4147396,18.6310319 Z M51.0886979,33.5907819 L48.4514479,30.9192819 C47.6397396,30.0937819 46.3179062,30.0937819 45.5029896,30.9192819 C44.6912812,31.7415319 44.6880729,33.0805319 45.5029896,33.9060319 L48.1402396,36.5775319 L45.3714479,39.3822819 L42.7341979,36.7107819 C41.9192812,35.8852819 40.6006562,35.8852819 39.7857396,36.7107819 C38.9708229,37.5362819 38.9708229,38.8752819 39.7857396,39.6975319 L42.4229896,42.3690319 L39.6509896,45.1770319 L29.8399062,35.2352819 L46.8376562,18.0200319 L56.6487396,27.9585319 L51.0886979,33.5907819 Z M25.6594479,57.7415319 L17.4364896,49.4117819 C16.9969479,48.9665319 16.9969479,48.2450319 17.4364896,47.8030319 L26.8914479,38.2252819 L36.7025312,48.1637819 L33.9337396,50.9685319 L31.2964896,48.2970319 C30.4815729,47.4747819 29.1597396,47.4747819 28.3480312,48.2970319 C27.5331146,49.1225319 27.5331146,50.4582819 28.3480312,51.2837819 L30.9852812,53.9552819 L27.2475729,57.7415319 C26.8112396,58.1835319 26.0957812,58.1835319 25.6594479,57.7415319 Z M17.7124062,58.4012819 C17.2022812,58.9180319 16.2750729,57.9755319 16.7851979,57.4620319 L18.1359062,56.0937819 L19.0631146,57.0330319 L17.7124062,58.4012819 Z M42.1727396,13.2945319 L43.8859896,15.0332819 L14.4880312,44.8162819 C12.4250729,46.9060319 12.4250729,50.3087819 14.4880312,52.3985319 L15.1874479,53.1037819 L13.8367396,54.4720319 C12.4860312,55.8435319 12.1202812,57.8260319 12.7106146,59.5387819 L3.81711458,68.5477819 C3.00540625,69.3732819 3.00540625,70.7122819 3.81711458,71.5377819 C4.63203125,72.3600319 5.95386458,72.3600319 6.76557292,71.5345319 L15.6590729,62.5255319 C17.3530729,63.1235319 19.3101562,62.7562819 20.6640729,61.3880319 L22.0115729,60.0197819 L22.7109896,60.7282819 C24.7739479,62.8180319 28.1330729,62.8180319 30.1992396,60.7282819 L59.5971979,30.9452819 L61.3136562,32.6840319 C62.1285729,33.5095319 63.4471979,33.5095319 64.2621146,32.6840319 C65.0770312,31.8585319 65.0770312,30.5227819 64.2621146,29.6972819 L58.5224062,23.8830319 C58.5352396,23.8667819 58.5544896,23.8635319 58.5673229,23.8505319 L65.6962396,16.6290319 L67.6693646,18.6310319 C68.4842812,19.4565319 69.8061146,19.4565319 70.6178229,18.6310319 C71.4327396,17.8087819 71.4327396,16.4697819 70.6178229,15.6442819 L58.9940312,3.86628185 C58.1791146,3.04403185 56.8572812,3.04403185 56.0423646,3.86953185 C55.2306562,4.69178185 55.2306562,6.03078185 56.0423646,6.85303185 L57.5951979,8.42278185 L50.4662812,15.6442819 C50.4534479,15.6572819 50.4502396,15.6767819 50.4341979,15.6930319 L45.1211979,10.3077819 C44.3062812,9.48228185 42.9876562,9.48228185 42.1727396,10.3045319 C41.3578229,11.1300319 41.3578229,12.4690319 42.1727396,13.2945319 Z" id="path-8"></path>
        <path d="M21.3419312,9.98813524 L42.1997354,9.98813524 L42.1997354,8.65046199 L21.3419312,8.65046199 L21.3419312,9.98813524 Z M22.5525714,14.279391 L40.985545,14.279391 L40.985545,13.5552639 L22.5525714,13.5552639 L22.5525714,14.279391 Z M41.6600952,28.6049797 L21.8815714,28.6049797 C22.0058307,27.310112 22.3750582,26.3897928 23.244873,25.0806566 C24.6365767,22.9831849 25.7726614,20.5432689 25.8188148,20.4398222 C25.928873,20.2043917 25.9856772,19.9475585 25.9856772,19.6871581 L25.9856772,17.8607882 L31.7832593,17.9000266 L37.5559894,17.8607882 L37.5559894,19.6871581 C37.5559894,19.9475585 37.6127937,20.2043917 37.7228519,20.4398222 C37.7690053,20.5432689 38.9050899,22.9831849 40.2967937,25.0806566 C41.1666085,26.3897928 41.535836,27.310112 41.6600952,28.6049797 Z M39.3098201,51.1777699 L24.2531481,51.1777699 C22.5703228,51.1385315 21.8141164,50.6569691 21.8283175,50.0648257 L21.8281213,49.4370111 L41.7240125,49.4370111 L41.724,50.2253465 C41.7275503,50.653402 40.9748942,51.1313972 39.3098201,51.1777699 Z M41.7133492,32.1721084 L41.7168995,37.9544239 L41.7168995,45.8698824 L21.8283175,45.8698824 L21.8283175,32.1721084 L41.7133492,32.1721084 Z M42.7642275,17.8465197 C43.7441005,17.8465197 44.5393598,17.05105 44.5393598,16.0629553 L44.5393598,13.4411158 C45.2387619,13.2021182 45.75,12.5564679 45.75,11.7716996 L45.75,6.86689766 C45.75,5.88237015 44.9547407,5.08333333 43.9748677,5.08333333 L19.5667989,5.08333333 C18.5869259,5.08333333 17.7916667,5.88237015 17.7916667,6.86689766 L17.7916667,11.7716996 C17.7916667,12.5564679 18.3029048,13.2021182 19.0023069,13.4411158 L19.0023069,16.0629553 C19.0023069,17.05105 19.7975661,17.8465197 20.7774392,17.8465197 L22.4354127,17.8465197 L22.4354127,19.2805054 C22.0874868,19.990364 21.2425238,21.6704816 20.2910529,23.1009002 C18.7857407,25.369594 18.2780529,27.0532788 18.2780529,29.7749979 L18.2780529,30.3707084 C18.2780529,30.3742755 18.2745026,30.3814098 18.2745026,30.388544 L18.2745026,47.6534468 C18.2745026,47.6855509 18.292254,47.714088 18.292254,47.7497592 L18.2958042,49.8151267 C18.2567513,50.0862285 18.1218413,51.5202142 19.2366243,52.843619 C20.252,54.0493085 21.9135238,54.6878245 24.210545,54.7448985 L39.3311217,54.7448985 L39.3772751,54.7448985 C41.6281429,54.6878245 43.2896667,54.0493085 44.3050423,52.843619 C45.4198254,51.5202142 45.2849153,50.0862285 45.2636138,50.0648257 L45.2636138,47.6712824 C45.2636138,47.6641481 45.267164,47.6570139 45.267164,47.6534468 L45.267164,30.388544 C45.267164,30.3814098 45.2636138,30.3742755 45.2636138,30.3707084 L45.2636138,29.7749979 C45.2636138,27.0532788 44.7559259,25.369594 43.2506138,23.1009002 C42.2991429,21.6704816 41.4541799,19.990364 41.106254,19.2805054 L41.106254,17.8465197 L42.7642275,17.8465197 Z" id="path-10"></path>
        <path d="M40.2344792,13.8538442 L45.6043125,8.48401086 L47.2621458,10.1442609 L41.8947292,15.5140942 C41.8850625,15.5237609 41.8826458,15.5382609 41.8705625,15.5479275 L40.2006458,13.8780109 C40.2103125,13.8659275 40.2248125,13.8635109 40.2344792,13.8538442 Z M38.4823958,24.9777609 L36.4958958,22.9912609 C35.8844792,22.3774275 34.8888125,22.3774275 34.2749792,22.9912609 C33.6635625,23.6026775 33.6611458,24.5983442 34.2749792,25.2121775 L36.2614792,27.1986775 L34.1758958,29.2842609 L32.1893958,27.2977609 C31.5755625,26.6839275 30.5823125,26.6839275 29.9684792,27.2977609 C29.3546458,27.9115942 29.3546458,28.9072609 29.9684792,29.5186775 L31.9549792,31.5051775 L29.8669792,33.5931775 L22.4768125,26.2005942 L35.2803125,13.3995109 L42.6704792,20.7896775 L38.4823958,24.9777609 Z M19.3278958,42.9360109 L13.1339792,36.7420942 C12.8028958,36.4110109 12.8028958,35.8745109 13.1339792,35.5458442 L20.2558958,28.4239275 L27.6460625,35.8140942 L25.5604792,37.8996775 L23.5739792,35.9131775 C22.9601458,35.3017609 21.9644792,35.3017609 21.3530625,35.9131775 C20.7392292,36.5270109 20.7392292,37.5202609 21.3530625,38.1340942 L23.3395625,40.1205942 L20.5241458,42.9360109 C20.1954792,43.2646775 19.6565625,43.2646775 19.3278958,42.9360109 Z M13.3418125,43.4265942 C12.9575625,43.8108442 12.2591458,43.1100109 12.6433958,42.7281775 L13.6608125,41.7107609 L14.3592292,42.4091775 L13.3418125,43.4265942 Z M31.7664792,9.88567753 L33.0569792,11.1785942 L10.9130625,33.3249275 C9.35914583,34.8788442 9.35914583,37.4090942 10.9130625,38.9630109 L11.4398958,39.4874275 L10.4224792,40.5048442 C9.4050625,41.5246775 9.1295625,42.9988442 9.57422917,44.2724275 L2.87522917,50.9714275 C2.2638125,51.5852609 2.2638125,52.5809275 2.87522917,53.1947609 C3.4890625,53.8061775 4.48472917,53.8061775 5.09614583,53.1923442 L11.7951458,46.4933442 C13.0711458,46.9380109 14.5453125,46.6649275 15.5651458,45.6475109 L16.5801458,44.6300942 L17.1069792,45.1569275 C18.6608958,46.7108442 21.1911458,46.7108442 22.7474792,45.1569275 L44.8913958,23.0105942 L46.1843125,24.3035109 C46.7981458,24.9173442 47.7913958,24.9173442 48.4052292,24.3035109 C49.0190625,23.6896775 49.0190625,22.6964275 48.4052292,22.0825942 L44.0818125,17.7591775 C44.0914792,17.7470942 44.1059792,17.7446775 44.1156458,17.7350109 L49.4854792,12.3651775 L50.9717292,13.8538442 C51.5855625,14.4676775 52.5812292,14.4676775 53.1926458,13.8538442 C53.8064792,13.2424275 53.8064792,12.2467609 53.1926458,11.6329275 L44.4370625,2.87492753 C43.8232292,2.26351086 42.8275625,2.26351086 42.2137292,2.8773442 C41.6023125,3.48876086 41.6023125,4.48442753 42.2137292,5.0958442 L43.3833958,6.2630942 L38.0135625,11.6329275 C38.0038958,11.6425942 38.0014792,11.6570942 37.9893958,11.6691775 L33.9873958,7.66476086 C33.3735625,7.05092753 32.3803125,7.05092753 31.7664792,7.6623442 C31.1526458,8.27617753 31.1526458,9.2718442 31.7664792,9.88567753 Z" id="path-12"></path>
        <path d="M57.1790028,28.5590759 C57.3542361,28.7806945 57.5346233,28.9971591 57.6789331,29.3012404 C58.580869,31.1721132 58.5344837,34.0634622 57.5603929,36.8465789 C56.4265306,40.0832405 54.4319636,42.170578 52.6796309,42.8715111 C54.7205831,38.1041353 56.1688346,33.1666802 57.1790028,28.5590759 M49.27289,72.0736204 C44.2942035,65.5075266 45.6703001,55.1687636 45.6857618,55.0656852 C45.7012236,54.9368372 45.6651461,54.823451 45.6599922,54.694603 C47.6287896,52.3341077 49.3089674,49.7056087 50.7623728,46.9276459 C51.0097609,46.9585694 51.2519951,47.05134 51.4993833,47.05134 C55.3132839,47.05134 59.3127256,43.515751 61.2093681,38.124751 C62.5287715,34.3572356 62.5133098,30.4247949 61.1629828,27.6210625 C60.4362801,26.1109641 59.3178795,25.0904879 57.9933222,24.4565558 C59.353957,16.7565997 59.5652677,10.8192842 59.5807295,10.1389668 C59.6168069,8.71133099 58.4880985,7.53623729 57.0707705,7.50015985 C55.4060545,7.48469809 54.4628871,8.59279083 54.4268097,10.0101188 C54.4165019,10.4636637 53.0661749,54.9059137 28.3376679,59.6681355 C26.9409557,59.9361393 26.0287119,61.2916202 26.2967157,62.6883325 C26.533796,63.9201193 27.6161192,64.77567 28.8272903,64.77567 C28.9870618,64.77567 29.1519873,64.7602082 29.3169127,64.7344386 C33.59982,63.9046576 37.2178717,62.08017 40.3772245,59.699059 C40.5112264,64.0592751 41.4286241,70.2439788 45.1497542,75.1659722 C48.242106,79.2581845 52.6590152,81.7166042 58.2819417,82.4742304 C58.4004818,82.4896922 58.519022,82.5 58.6324082,82.5 C59.9002725,82.5 61.0083652,81.5619866 61.1835985,80.2683527 C61.3742935,78.8613327 60.3847409,77.557391 58.9725669,77.3666959 C54.7102753,76.7894569 51.5406146,75.0577399 49.27289,72.0736204 Z" id="path-14"></path>
    </defs>
    <g id="Page-1" stroke="none" stroke-width="1" fill="none" fill-rule="evenodd">
        <g id="이마거상술" transform="translate(-355.000000, -1517.000000)">
            <g id="Group-30" transform="translate(370.000000, 1527.000000)">
                <g id="Group-3">
                    <g id="Rectangle-9">
                        <use fill="black" fill-opacity="1" filter="url(#filter-2)" xlink:href="#path-1"></use>
                        <use fill="#FFFFFF" fill-rule="evenodd" xlink:href="#path-1"></use>
                    </g>
                </g>
                <g id="Group-8" transform="translate(0.000000, 503.000000)">
                    <g id="Group-10">
                        <mask id="mask-4" fill="white">
                            <use xlink:href="#path-3"></use>
                        </mask>
                        <g id="Mask">
                            <use fill="black" fill-opacity="1" filter="url(#filter-5)" xlink:href="#path-3"></use>
                            <use fill="#F7F7F7" fill-rule="evenodd" xlink:href="#path-3"></use>
                        </g>
                        <g id="-round/ver1/control/circle/!" opacity="0.05" mask="url(#mask-4)">
                            <g transform="translate(955.000000, -88.000000)">
                                <mask id="mask-7" fill="white">
                                    <use xlink:href="#path-6"></use>
                                </mask>
                                <use id="Mask" stroke="none" fill="#231916" fill-rule="evenodd" xlink:href="#path-6"></use>
                                <g id="swatch/dark-brown1" stroke="none" fill="none" mask="url(#mask-7)" fill-rule="evenodd">
                                    <rect id="Rectangle" fill="#6C573A" x="0" y="0" width="299" height="287"></rect>
                                </g>
                            </g>
                        </g>
                    </g>
                    <text id="수술은-가장-나중에-사용하는-방법입니" font-family="NotoSansCJKkr-Bold, Noto Sans CJK KR" font-size="35" font-weight="bold" fill="#8D7047">
                        <tspan x="300.91" y="91">수술은 가장 나중에 사용하는 방법입니다</tspan>
                        <tspan x="880.09" y="91" font-family="NotoSansCJKkr-DemiLight, Noto Sans CJK KR" font-weight="300"></tspan>
                    </text>
                    <text id="주름의-원인이-되는-미간-근육에-보톡" font-family="AppleSDGothicNeo-Regular, Apple SD Gothic Neo" font-size="18" font-weight="normal" line-spacing="27" fill="#555555">
                        <tspan x="168.327" y="262">주름의 원인이 되는 미간 근육에</tspan>
                        <tspan x="137.187" y="289">보톡스를 주사하여 근육의 사용을 제한해</tspan>
                        <tspan x="125.001" y="316">일정시간 약화시켜 주름을 덜 생기게 합니다.</tspan>
                    </text>
                    <text id="미간-주름의-자국이-생긴-경우-볼륨을" font-family="AppleSDGothicNeo-Regular, Apple SD Gothic Neo" font-size="18" font-weight="normal" line-spacing="27" fill="#555555">
                        <tspan x="716.161" y="262">미간 주름의 자국이 생긴 경우 볼륨을 채워주는 필러를</tspan>
                        <tspan x="783.508" y="289">이용해 주름을 개선할 수 있습니다. </tspan>
                        <tspan x="734.431" y="316">보톡스와 함께 동시 사용하면 효과가 상승합니다.</tspan>
                    </text>
                    <g id="Group-17" transform="translate(249.000000, 155.000000)" font-size="18">
                        <text id="이마주름이-약한-경우" font-family="AppleSDGothicNeo-Regular, Apple SD Gothic Neo" font-weight="normal" line-spacing="27" fill="#555555">
                            <tspan x="0.201" y="16">이마주름이 약한 경우</tspan>
                        </text>
                        <text id="보톡스-추천" font-family="NotoSansCJKkr-Bold, Noto Sans CJK KR" font-weight="bold" fill="#8D7047">
                            <tspan x="31.557" y="53">보톡스 추천</tspan>
                        </text>
                    </g>
                    <g id="Group-16" transform="translate(853.000000, 155.000000)" font-size="18">
                        <text id="이마주름의-자국이-생긴-경우" font-family="AppleSDGothicNeo-Regular, Apple SD Gothic Neo" font-weight="normal" line-spacing="27" fill="#555555">
                            <tspan x="0.479" y="16">이마주름의 자국이 생긴 경우</tspan>
                        </text>
                        <text id="필러-추천" font-family="NotoSansCJKkr-Bold, Noto Sans CJK KR" font-weight="bold" fill="#8D7047">
                            <tspan x="65.837" y="53">필러 추천</tspan>
                        </text>
                    </g>
                    <g id="Group-7" transform="translate(140.000000, 130.000000)">
                        <g id="-round/ver1/syringe" transform="translate(68.500000, 55.000000) rotate(136.000000) translate(-68.500000, -55.000000) translate(30.000000, 16.000000)">
                            <mask id="mask-9" fill="white">
                                <use xlink:href="#path-8"></use>
                            </mask>
                            <use id="Mask" fill="#00A0E8" fill-rule="evenodd" xlink:href="#path-8"></use>
                            <g id="swatch/dark-brown1" mask="url(#mask-9)" fill="#6C573A" fill-rule="evenodd">
                                <rect id="Rectangle" x="0" y="0" width="80" height="78"></rect>
                            </g>
                        </g>
                        <g id="-round/ver1/Botox" opacity="0.5" transform="translate(0.000000, 41.000000)">
                            <mask id="mask-11" fill="white">
                                <use xlink:href="#path-10"></use>
                            </mask>
                            <use id="Fill-1" fill="#613627" fill-rule="evenodd" xlink:href="#path-10"></use>
                            <g id="swatch/dark-brown1" mask="url(#mask-11)" fill="#6C573A" fill-rule="evenodd">
                                <rect id="Rectangle" x="0" y="0" width="64" height="61"></rect>
                            </g>
                        </g>
                    </g>
                    <g id="Group-4" transform="translate(739.000000, 134.000000)">
                        <g>
                            <g id="-round/ver1/syringe" transform="translate(65.000000, 73.000000) rotate(90.000000) translate(-65.000000, -73.000000) translate(36.000000, 44.000000)">
                                <mask id="mask-13" fill="white">
                                    <use xlink:href="#path-12"></use>
                                </mask>
                                <use id="Mask" fill="#00A0E8" fill-rule="evenodd" xlink:href="#path-12"></use>
                                <g id="swatch/dark-brown1" mask="url(#mask-13)" fill="#6C573A" fill-rule="evenodd">
                                    <rect id="Rectangle" x="0" y="0" width="60" height="58"></rect>
                                </g>
                            </g>
                            <g id="-round/ver1/neck" opacity="0.5">
                                <mask id="mask-15" fill="white">
                                    <use xlink:href="#path-14"></use>
                                </mask>
                                <use id="Fill-4" fill="#613627" fill-rule="evenodd" xlink:href="#path-14"></use>
                                <g id="swatch/dark-brown1" mask="url(#mask-15)" fill="#6C573A" fill-rule="evenodd">
                                    <rect id="Rectangle" x="0" y="0" width="94" height="90"></rect>
                                </g>
                            </g>
                        </g>
                    </g>
                    <polygon id="Rectangle-2" fill="#CCCCCC" opacity="0.3" points="572 158 574 158 574 325 572 325"></polygon>
                </g>
                <rect id="Rectangle-16" fill="#8D7047" opacity="0.200000003" x="0" y="182" width="1180" height="1"></rect>
                <rect id="Rectangle-16-Copy-10" fill="#8D7047" opacity="0.200000003" x="0" y="167" width="1180" height="5"></rect>
                <rect id="Rectangle-16-Copy-8" fill="#8D7047" opacity="0.200000003" x="0" y="50" width="1180" height="1"></rect>
                <rect id="Rectangle-16-Copy-9" fill="#8D7047" opacity="0.200000003" x="0" y="61" width="1180" height="5"></rect>
                <text id="이마-거상술이-필요한-경우" font-family="NotoSansCJKkr-Bold, Noto Sans CJK KR" font-size="35" font-weight="bold" fill="#8D7047">
                    <tspan x="401.2275" y="127">이마 거상술</tspan>
                    <tspan x="570.1725" y="127" font-family="NotoSansCJKkr-Thin, Noto Sans CJK KR" font-style="condensed" font-weight="300">이 필요한 경우</tspan>
                </text>
                <rect id="Rectangle-4" stroke="#E9E9E9" fill="#FFFFFF" x="100.5" y="233.5" width="979" height="59"></rect>
                <rect id="Rectangle-4-Copy-4" stroke="#E9E9E9" fill="#FFFFFF" x="100.5" y="393.5" width="979" height="59"></rect>
                <rect id="Rectangle-4-Copy" stroke="#E9E9E9" fill="#F8F8F8" x="100.5" y="313.5" width="979" height="59"></rect>
                <text id="줄어든-피부-탄력으로-얼굴-윤곽이-울" font-family="NotoSansCJKkr-Bold, Noto Sans CJK KR" font-size="22" font-weight="bold" fill="#555555">
                    <tspan x="225" y="273">줄어든 피부 탄력으로 얼굴 윤곽이 울퉁불퉁한 경우</tspan>
                </text>
                <text id="얼굴-전체-탱탱한-피부-탄력을-원하시" font-family="NotoSansCJKkr-Bold, Noto Sans CJK KR" font-size="22" font-weight="bold" fill="#555555">
                    <tspan x="225" y="433">얼굴 전체 탱탱한 피부 탄력을 원하시는 분</tspan>
                </text>
                <text id="처진-볼살로-심술보가-고민이신-분" font-family="NotoSansCJKkr-Bold, Noto Sans CJK KR" font-size="22" font-weight="bold" fill="#555555">
                    <tspan x="225" y="353">처진 볼살로 심술보가 고민이신 분</tspan>
                </text>
                <rect id="Rectangle-4" fill="#AE8B59" x="100" y="233" width="95" height="60"></rect>
                <rect id="Rectangle-4-Copy-6" fill="#AE8B59" x="100" y="393" width="95" height="60"></rect>
                <rect id="Rectangle-4-Copy-2" fill="#8D7047" x="100" y="313" width="95" height="60"></rect>
                <rect id="Rectangle-4" stroke="#FFFFFF" opacity="0.5" x="105.5" y="238.5" width="84" height="49"></rect>
                <rect id="Rectangle-4-Copy-8" stroke="#FFFFFF" opacity="0.5" x="105.5" y="398.5" width="84" height="49"></rect>
                <rect id="Rectangle-4-Copy-3" stroke="#FFFFFF" opacity="0.5" x="105.5" y="318.5" width="84" height="49"></rect>
                <text id="01." font-family="Montserrat-Bold, Montserrat" font-size="22" font-weight="bold" fill="#FFFFFF">
                    <tspan x="133.128" y="268">01.</tspan>
                </text>
                <text id="03." font-family="Montserrat-Bold, Montserrat" font-size="22" font-weight="bold" fill="#FFFFFF">
                    <tspan x="130.939" y="428">03.</tspan>
                </text>
                <text id="02." font-family="Montserrat-Bold, Montserrat" font-size="22" font-weight="bold" fill="#FFFFFF">
                    <tspan x="130.917" y="348">02.</tspan>
                </text>
            </g>
        </g>
    </g>
</svg>