<?xml version="1.0" encoding="UTF-8"?>
<svg width="1201px" height="523px" viewBox="0 0 1201 523" version="1.1" xmlns="http://www.w3.org/2000/svg" xmlns:xlink="http://www.w3.org/1999/xlink">
    <!-- Generator: Sketch 52.5 (67469) - http://www.bohemiancoding.com/sketch -->
    <title>Group 23</title>
    <desc>Created with Sketch.</desc>
    <defs>
        <path d="M1180,166.004237 L1181,166 L1181,503 L1,503 L1,215 L0,215 L0,0 L20.9861861,0 C22.4050942,6.96795455 28.5439437,12.2159091 35.9212902,12.2159091 C43.2986368,12.2159091 49.4374863,6.96795455 50.8515184,0 L71.3598592,0 C72.7738912,6.96795455 78.9176167,12.2159091 86.2900873,12.2159091 C93.6674339,12.2159091 99.8111594,6.96795455 101.225191,0 L121.738408,0 C123.147564,6.96795455 129.29129,12.2159091 136.66376,12.2159091 C144.041107,12.2159091 150.184832,6.96795455 151.593989,0 L172.107205,0 C173.516361,6.96795455 179.660087,12.2159091 187.032557,12.2159091 C194.409904,12.2159091 200.55363,6.96795455 201.962786,0 L222.476002,0 C223.885158,6.96795455 230.028884,12.2159091 237.401355,12.2159091 C244.773825,12.2159091 250.922427,6.96795455 252.331583,0 L272.844799,0 C274.258832,6.96795455 280.402557,12.2159091 287.775028,12.2159091 C295.152374,12.2159091 301.2961,6.96795455 302.710132,0 L323.213597,0 C324.627629,6.96795455 330.77623,12.2159091 338.143825,12.2159091 C345.521171,12.2159091 351.664897,6.96795455 353.078929,0 L373.592146,0 C375.001302,6.96795455 381.149903,12.2159091 388.517498,12.2159091 C395.894844,12.2159091 402.03857,6.96795455 403.447726,0 L423.960943,0 C425.370099,6.96795455 431.5187,12.2159091 438.891171,12.2159091 C446.263641,12.2159091 452.407367,6.96795455 453.816523,0 L474.324864,0 C475.738896,6.96795455 481.877745,12.2159091 489.259968,12.2159091 C496.622686,12.2159091 502.776164,6.96795455 504.18532,0 L524.698537,0 C526.112569,6.96795455 532.256294,12.2159091 539.633641,12.2159091 C547.006111,12.2159091 553.149837,6.96795455 554.563869,0 L575.067334,0 C576.481366,6.96795455 582.629967,12.2159091 590.002438,12.2159091 C597.374909,12.2159091 603.518634,6.96795455 604.932666,0 L625.436131,0 C626.850163,6.96795455 632.998764,12.2159091 640.371235,12.2159091 C647.748582,12.2159091 653.887431,6.96795455 655.301463,0 L675.81468,0 C677.223836,6.96795455 683.372438,12.2159091 690.744908,12.2159091 C698.122255,12.2159091 704.261104,6.96795455 705.67026,0 L726.183477,0 C727.592633,6.96795455 733.736359,12.2159091 741.113705,12.2159091 C748.486176,12.2159091 754.629901,6.96795455 756.039057,0 L776.552274,0 C777.966306,6.96795455 784.110032,12.2159091 791.482502,12.2159091 C798.859849,12.2159091 804.998698,6.96795455 806.41273,0 L826.925947,0 C828.339979,6.96795455 834.483705,12.2159091 841.856175,12.2159091 C849.233522,12.2159091 855.377247,6.96795455 856.791279,0 L877.294744,0 C878.708776,6.96795455 884.852502,12.2159091 892.224972,12.2159091 C899.602319,12.2159091 905.746044,6.96795455 907.160077,0 L927.668417,0 C929.077573,6.96795455 935.226175,12.2159091 942.593769,12.2159091 C949.971116,12.2159091 956.114842,6.96795455 957.528874,0 L978.04209,0 C979.451246,6.96795455 985.599848,12.2159091 992.967443,12.2159091 C1000.34479,12.2159091 1006.48851,6.96795455 1007.89767,0 L1028.41089,0 C1029.82004,6.96795455 1035.96865,12.2159091 1043.33624,12.2159091 C1050.71359,12.2159091 1056.85731,6.96795455 1058.26647,0 L1078.77968,0 C1080.19372,6.96795455 1086.34232,12.2159091 1093.70991,12.2159091 C1101.08726,12.2159091 1107.23098,6.96795455 1108.64502,0 L1129.14848,0 C1130.56251,6.96795455 1136.71112,12.2159091 1144.07871,12.2159091 C1151.45606,12.2159091 1157.59978,6.96795455 1159.01381,0 L1180,0 L1180,166.004237 Z" id="path-1"></path>
        <filter x="-1.3%" y="-3.0%" width="102.5%" height="106.0%" filterUnits="objectBoundingBox" id="filter-2">
            <feOffset dx="0" dy="0" in="SourceAlpha" result="shadowOffsetOuter1"></feOffset>
            <feGaussianBlur stdDeviation="5" in="shadowOffsetOuter1" result="shadowBlurOuter1"></feGaussianBlur>
            <feColorMatrix values="0 0 0 0 0   0 0 0 0 0   0 0 0 0 0  0 0 0 0.2 0" type="matrix" in="shadowBlurOuter1"></feColorMatrix>
        </filter>
    </defs>
    <g id="Page-1" stroke="none" stroke-width="1" fill="none" fill-rule="evenodd">
        <g id="귀앞안면거상술" transform="translate(-360.000000, -1492.000000)">
            <g id="Group-23" transform="translate(370.000000, 1502.000000)">
                <g id="Group-3">
                    <g id="Rectangle-9">
                        <use fill="black" fill-opacity="1" filter="url(#filter-2)" xlink:href="#path-1"></use>
                        <use fill="#FFFFFF" fill-rule="evenodd" xlink:href="#path-1"></use>
                    </g>
                </g>
                <rect id="Rectangle-16" fill="#8D7047" opacity="0.200000003" x="0" y="182" width="1180" height="1"></rect>
                <rect id="Rectangle-16-Copy-10" fill="#8D7047" opacity="0.200000003" x="0" y="167" width="1180" height="5"></rect>
                <rect id="Rectangle-16-Copy-8" fill="#8D7047" opacity="0.200000003" x="0" y="50" width="1180" height="1"></rect>
                <rect id="Rectangle-16-Copy-9" fill="#8D7047" opacity="0.200000003" x="0" y="61" width="1180" height="5"></rect>
                <path d="M359.3325,111.67 L359.6475,115.065 C356.7425,115.52 353.7325,115.765 350.8275,115.94 L350.8275,128.295 L346.2075,128.295 L346.2075,116.185 C343.5825,116.255 341.0625,116.29 338.7525,116.29 L338.1575,112.545 C342.0425,112.545 346.4525,112.51 350.8275,112.3 C351.5275,108.66 351.7025,105.825 351.7375,103.655 L340.7825,103.655 L340.7825,99.98 L356.3225,99.98 L356.3225,101.8 C356.3225,104.11 356.3225,107.47 355.5175,112.02 C356.8125,111.95 358.1075,111.81 359.3325,111.67 Z M361.1525,97.74 L365.7725,97.74 L365.7725,129.975 L361.1525,129.975 L361.1525,97.74 Z M375.2925,107.155 C375.2925,109.64 377.0775,111.04 379.5275,111.04 C381.9425,111.04 383.7625,109.64 383.7625,107.155 C383.7625,104.705 381.9425,103.27 379.5275,103.27 C377.0775,103.27 375.2925,104.705 375.2925,107.155 Z M388.2425,107.155 C388.2425,111.67 384.4975,114.89 379.5275,114.89 C374.5225,114.89 370.7775,111.67 370.7775,107.155 C370.7775,102.64 374.5225,99.42 379.5275,99.42 C384.4975,99.42 388.2425,102.64 388.2425,107.155 Z M383.2725,120.7 L383.2725,125.915 L388.1025,125.915 L388.1025,120.7 L383.2725,120.7 Z M392.6525,120.7 L392.6525,125.915 L396.9225,125.915 L396.9225,129.555 L374.5925,129.555 L374.5925,125.915 L378.7225,125.915 L378.7225,120.7 L374.8375,120.7 L374.8375,117.06 L396.5375,117.06 L396.5375,120.7 L392.6525,120.7 Z M395.9075,104.81 L400.1775,104.81 L400.1775,108.625 L395.9075,108.625 L395.9075,115.625 L391.2875,115.625 L391.2875,97.775 L395.9075,97.775 L395.9075,104.81 Z M420.1625,104.355 L425.0625,104.355 L425.0625,97.775 L429.6825,97.775 L429.6825,114.155 L425.0625,114.155 L425.0625,108.03 L420.1625,108.03 L420.1625,104.355 Z M421.9475,110.585 L419.8125,114.19 C416.2425,113.175 413.8275,111.075 412.3925,108.415 C410.9575,111.32 408.3675,113.77 404.6225,114.855 L402.4525,111.25 C407.4575,109.71 409.8375,105.965 410.0125,102.64 L403.6775,102.64 L403.6775,98.965 L421.0025,98.965 L421.0025,102.64 L414.7025,102.64 C414.8425,105.895 417.0825,109.185 421.9475,110.585 Z M413.0225,126.09 L430.5925,126.09 L430.5925,129.66 L408.4725,129.66 L408.4725,120.805 L425.0975,120.805 L425.0975,119.02 L408.4025,119.02 L408.4025,115.45 L429.6825,115.45 L429.6825,124.13 L413.0225,124.13 L413.0225,126.09 Z M436.1575,101.765 L448.8625,101.765 C448.8625,110.795 446.2025,118.18 437.2075,123.43 L434.5125,120.21 C440.9875,116.43 443.7175,111.775 444.3125,105.44 L436.1575,105.44 L436.1575,101.765 Z M458.1375,97.775 L462.5475,97.775 L462.5475,130.01 L458.1375,130.01 L458.1375,113.63 L455.2675,113.63 L455.2675,128.645 L450.9625,128.645 L450.9625,98.615 L455.2675,98.615 L455.2675,109.92 L458.1375,109.92 L458.1375,97.775 Z M479.8375,108.03 C479.8375,110.655 481.6575,112.23 484.0725,112.23 C486.4525,112.23 488.3075,110.655 488.3075,108.03 C488.3075,105.405 486.4525,103.83 484.0725,103.83 C481.6575,103.83 479.8375,105.405 479.8375,108.03 Z M492.7875,108.03 C492.7875,112.755 488.9725,116.22 484.0725,116.22 C479.1375,116.22 475.3225,112.755 475.3225,108.03 C475.3225,103.27 479.1375,99.84 484.0725,99.84 C488.9725,99.84 492.7875,103.27 492.7875,108.03 Z M484.2825,118.81 L484.2825,125.775 L501.6075,125.775 L501.6075,129.45 L479.6625,129.45 L479.6625,118.81 L484.2825,118.81 Z M500.4525,107.015 L504.7225,107.015 L504.7225,110.795 L500.4525,110.795 L500.4525,121.225 L495.8325,121.225 L495.8325,97.775 L500.4525,97.775 L500.4525,107.015 Z M519.2825,112.475 L519.2825,103.97 L513.1575,103.97 L513.1575,112.475 L519.2825,112.475 Z M529.6075,106.525 L523.7975,106.525 L523.7975,109.78 L529.6075,109.78 L529.6075,106.525 Z M523.7975,113.455 L523.7975,116.115 L508.6075,116.115 L508.6075,100.365 L523.7975,100.365 L523.7975,102.85 L529.6075,102.85 L529.6075,97.775 L534.2275,97.775 L534.2275,121.26 L529.6075,121.26 L529.6075,113.455 L523.7975,113.455 Z M517.5675,125.775 L534.9275,125.775 L534.9275,129.45 L512.9475,129.45 L512.9475,119.055 L517.5675,119.055 L517.5675,125.775 Z M540.6325,101.1 L555.7875,101.1 C555.7875,110.83 552.6725,118.88 541.5425,124.445 L539.0925,120.875 C547.1425,116.815 550.4675,111.81 551.0975,104.775 L540.6325,104.775 L540.6325,101.1 Z M561.8075,97.775 L566.4275,97.775 L566.4275,130.01 L561.8075,130.01 L561.8075,113.875 L555.5775,113.875 L555.5775,110.13 L561.8075,110.13 L561.8075,97.775 Z M590.6825,112.055 L588.2675,115.625 C584.8725,114.505 582.5275,112.335 581.1625,109.605 C579.7625,112.79 577.2775,115.275 573.6025,116.535 L571.1875,112.895 C576.5775,111.11 578.7475,106.805 578.7475,102.43 L578.7475,99.525 L583.4375,99.525 L583.4375,102.815 C583.4375,106.7 585.6075,110.48 590.6825,112.055 Z M586.5175,126.44 C590.6125,126.44 592.8175,125.6 592.8175,123.78 C592.8175,121.995 590.6125,121.155 586.5175,121.155 C582.3875,121.155 580.1825,121.995 580.1825,123.78 C580.1825,125.6 582.3875,126.44 586.5175,126.44 Z M586.5175,117.585 C593.2025,117.585 597.4025,119.895 597.4025,123.78 C597.4025,127.7 593.2025,130.01 586.5175,130.01 C579.7975,130.01 575.5975,127.7 575.5975,123.78 C575.5975,119.895 579.7975,117.585 586.5175,117.585 Z M597.0525,105.265 L601.3225,105.265 L601.3225,109.08 L597.0525,109.08 L597.0525,116.85 L592.4325,116.85 L592.4325,97.81 L597.0525,97.81 L597.0525,105.265 Z M631.5625,105.615 L630.0225,109.08 C624.4575,108.485 620.4675,106.385 618.4375,103.445 C616.4075,106.385 612.3825,108.485 606.8175,109.08 L605.3125,105.615 C612.5575,104.915 616.0575,101.66 616.0575,98.545 L616.0575,97.95 L620.8175,97.95 L620.8175,98.545 C620.8175,101.66 624.3175,104.915 631.5625,105.615 Z M632.9975,114.05 L620.7125,114.05 L620.7125,116.115 L629.4625,116.115 L629.4625,124.48 L611.8225,124.48 L611.8225,126.3 L630.3025,126.3 L630.3025,129.765 L607.2375,129.765 L607.2375,121.295 L624.9125,121.295 L624.9125,119.545 L607.2025,119.545 L607.2025,116.115 L616.0925,116.115 L616.0925,114.05 L603.8775,114.05 L603.8775,110.41 L632.9975,110.41 L632.9975,114.05 Z M660.3675,98.44 L661.5225,98.44 L661.5225,129.345 L660.3675,129.345 L660.3675,98.44 Z M645.5975,101.065 C650.0425,101.065 653.1575,105.195 653.1575,111.565 C653.1575,117.97 650.0425,122.1 645.5975,122.1 C641.1875,122.1 638.0375,117.97 638.0375,111.565 C638.0375,105.195 641.1875,101.065 645.5975,101.065 Z M645.5975,102.045 C641.8525,102.045 639.1575,106.105 639.1575,111.565 C639.1575,117.06 641.8525,121.12 645.5975,121.12 C649.3425,121.12 652.0375,117.06 652.0375,111.565 C652.0375,106.105 649.3425,102.045 645.5975,102.045 Z M701.4925,98.475 L701.4925,114.645 L700.3375,114.645 L700.3375,98.475 L701.4925,98.475 Z M682.8025,101.835 L682.8025,111.845 C685.0075,111.775 687.3875,111.705 689.6625,111.565 L689.6625,101.835 L682.8025,101.835 Z M696.3125,110.97 L696.3825,111.915 C690.2225,112.755 682.7675,113.07 677.2375,113.07 L677.0275,111.95 C678.4975,111.95 680.0375,111.915 681.6475,111.88 L681.6475,101.835 L677.9375,101.835 L677.9375,100.785 L694.4925,100.785 L694.4925,101.835 L690.8175,101.835 L690.8175,111.495 C692.7425,111.355 694.5625,111.18 696.3125,110.97 Z M683.4325,127.805 L702.9275,127.805 L702.9275,128.855 L682.2775,128.855 L682.2775,121.925 L700.3375,121.925 L700.3375,117.48 L682.1725,117.48 L682.1725,116.43 L701.4925,116.43 L701.4925,122.94 L683.4325,122.94 L683.4325,127.805 Z M717.4525,115.24 L717.4525,123.955 L727.9525,123.955 L727.9525,115.205 C726.4475,115.73 724.6275,116.01 722.6675,116.01 C720.7075,116.01 718.9575,115.73 717.4525,115.24 Z M712.7975,108.45 C712.7975,112.265 716.9975,115.03 722.6675,115.03 C728.3375,115.03 732.5375,112.265 732.5375,108.45 C732.5375,104.6 728.3375,101.835 722.6675,101.835 C716.9975,101.835 712.7975,104.6 712.7975,108.45 Z M729.1075,123.955 L736.7375,123.955 L736.7375,125.005 L708.7375,125.005 L708.7375,123.955 L716.2975,123.955 L716.2975,114.785 C713.4975,113.525 711.7825,111.285 711.7825,108.45 C711.7825,103.83 716.2275,100.855 722.6675,100.855 C729.1075,100.855 733.5525,103.83 733.5525,108.45 C733.5525,111.25 731.8725,113.49 729.1075,114.75 L729.1075,123.955 Z M759.4175,102.78 L759.4175,103.83 L741.1125,103.83 L741.1125,102.78 L749.6875,102.78 L749.6875,98.51 L750.8425,98.51 L750.8425,102.78 L759.4175,102.78 Z M744.1225,111.67 C744.1225,114.295 746.5725,116.22 750.2475,116.22 C753.8875,116.22 756.3375,114.295 756.3375,111.67 C756.3375,109.01 753.8875,107.155 750.2475,107.155 C746.5725,107.155 744.1225,109.01 744.1225,111.67 Z M757.4225,111.67 C757.4225,115.065 754.5525,117.235 750.2475,117.235 C745.8725,117.235 743.0375,115.065 743.0375,111.67 C743.0375,108.275 745.8725,106.14 750.2475,106.14 C754.5525,106.14 757.4225,108.275 757.4225,111.67 Z M747.1675,119.755 L747.1675,127.455 L766.2425,127.455 L766.2425,128.505 L746.0125,128.505 L746.0125,119.755 L747.1675,119.755 Z M764.5625,109.36 L769.6025,109.36 L769.6025,110.41 L764.5625,110.41 L764.5625,121.715 L763.4075,121.715 L763.4075,98.475 L764.5625,98.475 L764.5625,109.36 Z M804.6375,106.035 L795.6075,106.035 C793.5425,111.04 788.3625,114.89 781.9925,116.99 L781.3975,116.01 C789.0625,113.56 794.9425,108.59 795.3625,102.045 L782.9025,102.045 L782.9025,100.995 L796.6225,100.995 C796.6225,102.395 796.4125,103.725 795.9925,104.985 L804.6375,104.985 L804.6375,98.475 L805.7925,98.475 L805.7925,117.69 L804.6375,117.69 L804.6375,112.475 L795.1875,112.475 L795.1875,111.425 L804.6375,111.425 L804.6375,106.035 Z M795.9575,128.19 C801.2425,128.19 804.8125,126.37 804.8125,123.605 C804.8125,120.84 801.2425,119.02 795.9575,119.02 C790.6375,119.02 787.0675,120.84 787.0675,123.605 C787.0675,126.37 790.6375,128.19 795.9575,128.19 Z M795.9575,118.005 C802.1525,118.005 805.9325,120.07 805.9325,123.605 C805.9325,127.14 802.1525,129.205 795.9575,129.205 C789.7275,129.205 785.9475,127.14 785.9475,123.605 C785.9475,120.07 789.7275,118.005 795.9575,118.005 Z M826.9675,100.89 C821.5775,100.89 817.6925,103.2 817.6925,106.455 C817.6925,109.745 821.5775,112.055 826.9675,112.055 C832.3925,112.055 836.2425,109.745 836.2425,106.455 C836.2425,103.2 832.3925,100.89 826.9675,100.89 Z M826.9675,113.07 C820.7025,113.07 816.5375,110.515 816.5375,106.455 C816.5375,102.395 820.7025,99.875 826.9675,99.875 C833.2675,99.875 837.3975,102.395 837.3975,106.455 C837.3975,110.515 833.2675,113.07 826.9675,113.07 Z M841.0375,116.57 L841.0375,117.62 L827.5625,117.62 L827.5625,129.31 L826.4075,129.31 L826.4075,117.62 L812.9675,117.62 L812.9675,116.57 L841.0375,116.57 Z" id="귀앞절개-안면거상술이-필요한-경우" fill="#8D7047"></path>
                <rect id="Rectangle-4" stroke="#E9E9E9" fill="#FFFFFF" x="100.5" y="233.5" width="979" height="59"></rect>
                <rect id="Rectangle-4-Copy-4" stroke="#E9E9E9" fill="#FFFFFF" x="100.5" y="393.5" width="979" height="59"></rect>
                <rect id="Rectangle-4-Copy" stroke="#E9E9E9" fill="#F8F8F8" x="100.5" y="313.5" width="979" height="59"></rect>
                <text id="안면-전체적인-피부-탄력이-떨어져-윤" font-family="NotoSansCJKkr-Bold, Noto Sans CJK KR" font-size="22" font-weight="bold" fill="#555555">
                    <tspan x="225" y="273">안면 전체적인 피부 탄력이 떨어져 윤곽이 울퉁불퉁한 경우</tspan>
                </text>
                <text id="얼굴-전체-탱탱한-피부-탄력을-원하시" font-family="NotoSansCJKkr-Bold, Noto Sans CJK KR" font-size="22" font-weight="bold" fill="#555555">
                    <tspan x="225" y="433">얼굴 전체 탱탱한 피부 탄력을 원하시는 분</tspan>
                </text>
                <text id="처진-볼살로-심술보가-고민이신-분" font-family="NotoSansCJKkr-Bold, Noto Sans CJK KR" font-size="22" font-weight="bold" fill="#555555">
                    <tspan x="225" y="353">처진 볼살로 심술보가 고민이신 분</tspan>
                </text>
                <rect id="Rectangle-4" fill="#AE8B59" x="100" y="233" width="95" height="60"></rect>
                <rect id="Rectangle-4-Copy-6" fill="#AE8B59" x="100" y="393" width="95" height="60"></rect>
                <rect id="Rectangle-4-Copy-2" fill="#8D7047" x="100" y="313" width="95" height="60"></rect>
                <rect id="Rectangle-4" stroke="#FFFFFF" opacity="0.5" x="105.5" y="238.5" width="84" height="49"></rect>
                <rect id="Rectangle-4-Copy-8" stroke="#FFFFFF" opacity="0.5" x="105.5" y="398.5" width="84" height="49"></rect>
                <rect id="Rectangle-4-Copy-3" stroke="#FFFFFF" opacity="0.5" x="105.5" y="318.5" width="84" height="49"></rect>
                <path d="M140.894,252.446 C143.079344,252.446 144.762327,253.12066 145.943,254.47 C147.123673,255.81934 147.714,257.755321 147.714,260.278 C147.714,262.800679 147.123673,264.740327 145.943,266.097 C144.762327,267.453673 143.079344,268.132 140.894,268.132 C138.679322,268.132 136.981673,267.453673 135.801,266.097 C134.620327,264.740327 134.03,262.800679 134.03,260.278 C134.03,257.755321 134.620327,255.81934 135.801,254.47 C136.981673,253.12066 138.679322,252.446 140.894,252.446 Z M140.894,255.438 C139.925995,255.438 139.229335,255.815663 138.804,256.571 C138.378665,257.326337 138.166,258.561991 138.166,260.278 C138.166,262.008675 138.378665,263.251663 138.804,264.007 C139.229335,264.762337 139.925995,265.14 140.894,265.14 C141.832671,265.14 142.518331,264.75867 142.951,263.996 C143.383669,263.23333 143.6,261.994009 143.6,260.278 C143.6,258.561991 143.383669,257.326337 142.951,256.571 C142.518331,255.815663 141.832671,255.438 140.894,255.438 Z M148.264,252.578 L155.26,252.578 L155.26,268 L151.234,268 L151.234,255.878 L148.264,255.878 L148.264,252.578 Z M160.166,264.37 C160.723336,264.37 161.177998,264.545998 161.53,264.898 C161.882002,265.250002 162.058,265.704664 162.058,266.262 C162.058,266.819336 161.882002,267.277665 161.53,267.637 C161.177998,267.996335 160.723336,268.176 160.166,268.176 C159.623331,268.176 159.176002,267.996335 158.824,267.637 C158.471998,267.277665 158.296,266.819336 158.296,266.262 C158.296,265.704664 158.468332,265.250002 158.813,264.898 C159.157668,264.545998 159.608664,264.37 160.166,264.37 Z" id="01." fill="#FFFFFF"></path>
                <path d="M138.705,412.446 C140.890344,412.446 142.573327,413.12066 143.754,414.47 C144.934673,415.81934 145.525,417.755321 145.525,420.278 C145.525,422.800679 144.934673,424.740327 143.754,426.097 C142.573327,427.453673 140.890344,428.132 138.705,428.132 C136.490322,428.132 134.792673,427.453673 133.612,426.097 C132.431327,424.740327 131.841,422.800679 131.841,420.278 C131.841,417.755321 132.431327,415.81934 133.612,414.47 C134.792673,413.12066 136.490322,412.446 138.705,412.446 Z M138.705,415.438 C137.736995,415.438 137.040335,415.815663 136.615,416.571 C136.189665,417.326337 135.977,418.561991 135.977,420.278 C135.977,422.008675 136.189665,423.251663 136.615,424.007 C137.040335,424.762337 137.736995,425.14 138.705,425.14 C139.643671,425.14 140.329331,424.75867 140.762,423.996 C141.194669,423.23333 141.411,421.994009 141.411,420.278 C141.411,418.561991 141.194669,417.326337 140.762,416.571 C140.329331,415.815663 139.643671,415.438 138.705,415.438 Z M154.809,418.914 C156.055673,419.090001 157.056663,419.54833 157.812,420.289 C158.567337,421.02967 158.945,421.979328 158.945,423.138 C158.945,424.120672 158.688336,424.99333 158.175,425.756 C157.661664,426.51867 156.935671,427.112665 155.997,427.538 C155.058329,427.963335 153.95834,428.176 152.697,428.176 C151.567661,428.176 150.456672,428.003668 149.364,427.659 C148.271328,427.314332 147.351004,426.856003 146.603,426.284 L148.099,423.446 C148.744337,423.988669 149.433663,424.399332 150.167,424.678 C150.900337,424.956668 151.633663,425.096 152.367,425.096 C153.217671,425.096 153.870331,424.931002 154.325,424.601 C154.779669,424.270998 155.007,423.798003 155.007,423.182 C155.007,422.565997 154.779669,422.096668 154.325,421.774 C153.870331,421.451332 153.210338,421.29 152.345,421.29 L149.749,421.29 L149.749,419.09 L153.313,415.658 L147.417,415.658 L147.417,412.578 L158.197,412.578 L158.197,414.91 L153.995,418.76 L154.809,418.914 Z M162.355,424.37 C162.912336,424.37 163.366998,424.545998 163.719,424.898 C164.071002,425.250002 164.247,425.704664 164.247,426.262 C164.247,426.819336 164.071002,427.277665 163.719,427.637 C163.366998,427.996335 162.912336,428.176 162.355,428.176 C161.812331,428.176 161.365002,427.996335 161.013,427.637 C160.660998,427.277665 160.485,426.819336 160.485,426.262 C160.485,425.704664 160.657332,425.250002 161.002,424.898 C161.346668,424.545998 161.797664,424.37 162.355,424.37 Z" id="03." fill="#FFFFFF"></path>
                <path d="M138.683,332.446 C140.868344,332.446 142.551327,333.12066 143.732,334.47 C144.912673,335.81934 145.503,337.755321 145.503,340.278 C145.503,342.800679 144.912673,344.740327 143.732,346.097 C142.551327,347.453673 140.868344,348.132 138.683,348.132 C136.468322,348.132 134.770673,347.453673 133.59,346.097 C132.409327,344.740327 131.819,342.800679 131.819,340.278 C131.819,337.755321 132.409327,335.81934 133.59,334.47 C134.770673,333.12066 136.468322,332.446 138.683,332.446 Z M138.683,335.438 C137.714995,335.438 137.018335,335.815663 136.593,336.571 C136.167665,337.326337 135.955,338.561991 135.955,340.278 C135.955,342.008675 136.167665,343.251663 136.593,344.007 C137.018335,344.762337 137.714995,345.14 138.683,345.14 C139.621671,345.14 140.307331,344.75867 140.74,343.996 C141.172669,343.23333 141.389,341.994009 141.389,340.278 C141.389,338.561991 141.172669,337.326337 140.74,336.571 C140.307331,335.815663 139.621671,335.438 138.683,335.438 Z M158.967,344.766 L158.967,348 L147.219,348 L147.197,345.338 L152.807,339.574 C153.247002,339.119331 153.606332,338.664669 153.885,338.21 C154.163668,337.755331 154.303,337.366668 154.303,337.044 C154.303,336.618665 154.149002,336.292334 153.841,336.065 C153.532998,335.837666 153.100336,335.724 152.543,335.724 C151.926997,335.724 151.241337,335.896332 150.486,336.241 C149.730663,336.585668 149.001004,337.065997 148.297,337.682 L146.757,334.712 C148.883677,333.171992 151.017656,332.402 153.159,332.402 C154.185672,332.402 155.105996,332.570665 155.92,332.908 C156.734004,333.245335 157.371998,333.721997 157.834,334.338 C158.296002,334.954003 158.527,335.657996 158.527,336.45 C158.527,337.242004 158.266669,338.059662 157.746,338.903 C157.225331,339.746338 156.488338,340.644662 155.535,341.598 L152.389,344.766 L158.967,344.766 Z M162.377,344.37 C162.934336,344.37 163.388998,344.545998 163.741,344.898 C164.093002,345.250002 164.269,345.704664 164.269,346.262 C164.269,346.819336 164.093002,347.277665 163.741,347.637 C163.388998,347.996335 162.934336,348.176 162.377,348.176 C161.834331,348.176 161.387002,347.996335 161.035,347.637 C160.682998,347.277665 160.507,346.819336 160.507,346.262 C160.507,345.704664 160.679332,345.250002 161.024,344.898 C161.368668,344.545998 161.819664,344.37 162.377,344.37 Z" id="02." fill="#FFFFFF"></path>
            </g>
        </g>
    </g>
</svg>