<?xml version="1.0" encoding="UTF-8"?>
<svg width="57px" height="67px" viewBox="0 0 57 67" version="1.1" xmlns="http://www.w3.org/2000/svg" xmlns:xlink="http://www.w3.org/1999/xlink">
    <!-- Generator: Sketch 52.4 (67378) - http://www.bohemiancoding.com/sketch -->
    <title> round/ver1/needle</title>
    <desc>Created with Sketch.</desc>
    <defs>
        <path d="M23.9583333,21.9886667 C23.835,19.5586667 24.7183333,17.4053333 26.655,15.4086667 C29.2316667,12.752 32.905,11.4053333 37.5783333,11.4053333 C43.1283333,11.4053333 48.6083333,13.292 51.2316667,14.3453333 L33.0083333,36.1953333 C30.1016667,33.622 24.2483333,27.7453333 23.9583333,21.9886667 Z M62.295,13.7753333 C61.4783333,12.9553333 60.0516667,12.9553333 59.235,13.7753333 L57.1016667,15.9053333 C56.6916667,16.3153333 56.4683333,16.8586667 56.4683333,17.4386667 C56.4683333,18.0186667 56.695,18.562 57.1016667,18.9686667 C57.715,19.5853333 58.665,19.802 59.4916667,19.4053333 C59.7383333,19.762 59.9783333,20.1153333 60.2083333,20.462 L32.4816667,43.5853333 L58.7816667,12.042 C59.4816667,11.342 60.415,10.9553333 61.405,10.9553333 C62.395,10.9553333 63.3283333,11.342 64.0283333,12.042 C64.7283333,12.7453333 65.115,13.6753333 65.115,14.6686667 C65.115,15.6286667 64.7483333,16.572 64.1716667,17.1586667 L63.545,17.682 C63.2583333,17.2386667 62.965,16.7953333 62.645,16.342 C63.115,15.5086667 62.9916667,14.4653333 62.295,13.7753333 Z M67.0916667,20.3553333 C68.6116667,18.8386667 69.4483333,16.8186667 69.4483333,14.6686667 C69.4483333,12.5186667 68.6116667,10.4953333 67.0916667,8.97866667 C65.625,7.50866667 63.5583333,6.66533333 61.4283333,6.66533333 C59.235,6.66533333 57.1683333,7.52866667 55.585,9.122 L54.1316667,10.862 C52.445,10.1053333 45.1816667,7.04533333 37.5983333,7.04533333 C31.715,7.04533333 26.985,8.842 23.5416667,12.392 C20.765,15.2586667 19.445,18.562 19.6283333,22.2086667 C19.995,29.4153333 26.2616667,36.032 30.2316667,39.522 L13.8383333,59.1786667 C13.1183333,60.0453333 13.1716667,61.2986667 13.9716667,62.0986667 C14.735,62.8653333 16.055,62.9253333 16.8916667,62.2286667 L36.4983333,45.8753333 C39.7183333,48.462 48.5683333,56.2753333 48.5683333,63.9153333 C48.5683333,66.042 47.8716667,67.352 46.3716667,68.0453333 C45.505,68.4486667 44.4183333,68.652 43.1416667,68.652 C39.1283333,68.652 34.2716667,66.6353333 32.075,64.7653333 C31.2016667,64.0186667 29.7616667,64.1386667 29.0216667,65.012 C28.6483333,65.452 28.4683333,66.0153333 28.5116667,66.5886667 C28.5583333,67.1686667 28.8283333,67.692 29.2683333,68.0653333 C32.055,70.4353333 37.885,72.9553333 43.2016667,72.9553333 C45.115,72.9553333 46.7916667,72.6253333 48.1916667,71.9786667 C50.3416667,70.9853333 52.9016667,68.7786667 52.9016667,63.9153333 C52.9016667,54.9086667 44.1583333,46.572 39.8916667,43.0453333 L62.3583333,24.3053333 C64.0016667,27.7953333 64.3816667,30.632 63.4916667,32.752 C61.9283333,36.4553333 56.7783333,37.2986667 56.7283333,37.3086667 C55.5483333,37.4853333 54.7316667,38.5886667 54.9083333,39.7686667 C55.065,40.822 55.9816667,41.6186667 57.045,41.6186667 C57.1516667,41.6186667 57.2583333,41.612 57.3583333,41.5953333 C57.665,41.552 64.9283333,40.4553333 67.4716667,34.462 C68.9816667,30.9053333 68.415,26.5286667 65.7883333,21.4453333 L67.0916667,20.3553333 Z" id="path-1"></path>
    </defs>
    <g id="Page-1" stroke="none" stroke-width="1" fill="none" fill-rule="evenodd">
        <g id="++트임성형_눈매교정" transform="translate(-734.000000, -2624.000000)">
            <g id="-round/ver1/needle" transform="translate(721.000000, 2618.000000)">
                <mask id="mask-2" fill="white">
                    <use xlink:href="#path-1"></use>
                </mask>
                <use id="Fill-1" fill="#E50113" fill-rule="evenodd" xlink:href="#path-1"></use>
                <g id="swatch/dark-brown1" mask="url(#mask-2)" fill="#6C573A" fill-rule="evenodd">
                    <rect id="Rectangle" x="0" y="0" width="83" height="80"></rect>
                </g>
            </g>
        </g>
    </g>
</svg>