<?xml version="1.0" encoding="UTF-8"?>
<svg width="56px" height="66px" viewBox="0 0 56 66" version="1.1" xmlns="http://www.w3.org/2000/svg" xmlns:xlink="http://www.w3.org/1999/xlink">
    <!-- Generator: Sketch 52.4 (67378) - http://www.bohemiancoding.com/sketch -->
    <title> round/ver1/scissors</title>
    <desc>Created with Sketch.</desc>
    <defs>
        <path d="M63.6573333,62.832 C63.3106667,64.2786667 62.424,65.502 61.074,66.3286667 C58.5173333,67.8886667 54.9973333,67.022 53.454,64.5053333 L49.3306667,57.762 C48.5506667,56.502 48.314,54.9953333 48.664,53.572 C49.0106667,52.142 49.894,50.902 51.2473333,50.0953333 C52.1206667,49.5486667 53.1173333,49.2686667 54.1306667,49.2686667 C56.0773333,49.2686667 57.8406667,50.262 58.8673333,51.9186667 L62.9906667,58.642 C63.7606667,59.9186667 64.004,61.4053333 63.6573333,62.832 M32.344,57.762 L28.2106667,64.5053333 C27.1973333,66.1586667 25.4306667,67.1353333 23.484,67.1353333 C22.4606667,67.1353333 21.4673333,66.852 20.5073333,66.272 C19.2506667,65.502 18.3573333,64.2786667 18.0106667,62.832 C17.6706667,61.4053333 17.8973333,59.9186667 18.664,58.642 L22.8006667,51.9186667 C23.814,50.262 25.5806667,49.2686667 27.5373333,49.2686667 C28.5506667,49.2686667 29.5473333,49.5486667 30.514,50.132 C31.7806667,50.902 32.664,52.142 33.004,53.572 C33.3506667,54.9953333 33.114,56.502 32.344,57.762 M66.8406667,56.292 L62.7173333,49.5486667 C60.094,45.2653333 54.4906667,43.5786667 49.7773333,45.802 C49.7706667,45.802 49.7673333,45.7953333 49.764,45.792 L45.7106667,44.402 L43.5773333,39.8186667 L57.4473333,10.0153333 C57.974,8.872 57.484,7.53866667 56.3573333,7.012 C55.2106667,6.46533333 53.8773333,6.97533333 53.3506667,8.09866667 L41.0773333,34.4553333 L28.7373333,7.96866667 C28.2106667,6.842 26.8573333,6.352 25.7406667,6.87866667 C24.604,7.402 24.1173333,8.73866667 24.6406667,9.88533333 L38.5773333,39.8253333 L36.3973333,44.5086667 L32.3273333,45.922 C32.3073333,45.932 32.294,45.952 32.2706667,45.9586667 C30.8106667,45.182 29.184,44.7386667 27.5373333,44.7386667 C24.004,44.7386667 20.7906667,46.542 18.9473333,49.5486667 L14.814,56.292 C13.414,58.5886667 12.9906667,61.292 13.614,63.902 C14.2406667,66.5153333 15.8473333,68.7153333 18.234,70.1786667 C19.814,71.1553333 21.6373333,71.662 23.484,71.662 C27.0073333,71.662 30.2206667,69.8586667 32.0706667,66.852 L36.1973333,60.1253333 C37.6073333,57.8353333 38.0306667,55.1286667 37.4006667,52.5186667 C37.3973333,52.5053333 37.3906667,52.4953333 37.3906667,52.4853333 C37.5306667,52.3353333 37.6973333,52.2053333 37.794,52.012 L40.124,47.332 C40.1706667,47.232 40.1873333,47.1286667 40.2206667,47.0286667 L41.074,45.192 L41.8706667,46.9086667 C41.904,47.0053333 41.9206667,47.1053333 41.9673333,47.202 L44.294,51.8986667 C44.324,51.9553333 44.3873333,51.992 44.4206667,52.0486667 C44.374,52.2053333 44.2973333,52.352 44.2573333,52.5186667 C43.6373333,55.1286667 44.0706667,57.8353333 45.4673333,60.1253333 L49.594,66.852 C51.434,69.8586667 54.6473333,71.662 58.1806667,71.662 C60.0406667,71.662 61.8506667,71.1553333 63.524,70.1253333 C65.8173333,68.7153333 67.424,66.5153333 68.054,63.902 C68.684,61.292 68.2506667,58.5886667 66.8406667,56.292" id="path-1"></path>
    </defs>
    <g id="Page-1" stroke="none" stroke-width="1" fill="none" fill-rule="evenodd">
        <g id="++트임성형_눈매교정" transform="translate(-1433.000000, -2626.000000)">
            <g id="-round/ver1/scissors" transform="translate(1420.000000, 2620.000000)">
                <mask id="mask-2" fill="white">
                    <use xlink:href="#path-1"></use>
                </mask>
                <use id="Fill-1" fill="#231916" fill-rule="evenodd" xlink:href="#path-1"></use>
                <g id="swatch/dark-brown1" mask="url(#mask-2)" fill="#6C573A" fill-rule="evenodd">
                    <rect id="Rectangle" x="0" y="0" width="83" height="80"></rect>
                </g>
            </g>
        </g>
    </g>
</svg>