<?xml version="1.0" encoding="UTF-8"?>
<svg width="45px" height="37px" viewBox="0 0 45 37" version="1.1" xmlns="http://www.w3.org/2000/svg" xmlns:xlink="http://www.w3.org/1999/xlink">
    <!-- Generator: Sketch 52.5 (67469) - http://www.bohemiancoding.com/sketch -->
    <title> round/ver1/collagen</title>
    <desc>Created with Sketch.</desc>
    <defs>
        <path d="M19.7912166,22.6249522 L18.3806411,22.6249522 L18.3806411,21.2143767 C18.3806411,20.3230907 17.6581511,19.6006008 16.7668652,19.6006008 C15.8766544,19.6006008 15.1552396,20.3230907 15.1552396,21.2143767 L15.1552396,22.6249522 L13.743589,22.6249522 C12.8533782,22.6249522 12.1308882,23.3474421 12.1308882,24.2376529 C12.1308882,25.1278637 12.8533782,25.8503536 13.743589,25.8503536 L15.1552396,25.8503536 L15.1552396,27.2609292 C15.1552396,28.1522151 15.8766544,28.8736299 16.7668652,28.8736299 C17.6581511,28.8736299 18.3806411,28.1522151 18.3806411,27.2609292 L18.3806411,25.8503536 L19.7912166,25.8503536 C20.6814274,25.8503536 21.4039173,25.1278637 21.4039173,24.2376529 C21.4039173,23.3474421 20.6814274,22.6249522 19.7912166,22.6249522 M10.3806779,14.8103422 C9.49046713,14.8103422 8.76797721,14.0878522 8.76797721,13.1976414 C8.76797721,12.3074307 9.49046713,11.5849407 10.3806779,11.5849407 L50.5691796,11.5849407 C51.4593904,11.5849407 52.1818803,12.3074307 52.1818803,13.1976414 C52.1818803,14.0878522 51.4593904,14.8103422 50.5691796,14.8103422 L10.3806779,14.8103422 Z M50.5690721,44.7061578 C51.4592829,44.7061578 52.1817728,45.4286478 52.1817728,46.3188586 C52.1817728,47.2090693 51.4592829,47.9315593 50.5690721,47.9315593 L10.3805704,47.9315593 C9.49035962,47.9315593 8.7678697,47.2090693 8.7678697,46.3188586 C8.7678697,45.4286478 9.49035962,44.7061578 10.3805704,44.7061578 L50.5690721,44.7061578 Z M47.2071287,22.6249522 C48.0973395,22.6249522 48.8198294,23.3474421 48.8198294,24.2376529 C48.8198294,25.1278637 48.0973395,25.8503536 47.2071287,25.8503536 L45.7965531,25.8503536 L45.7965531,27.2609292 C45.7965531,28.1522151 45.0740632,28.8736299 44.1827773,28.8736299 C43.2925665,28.8736299 42.5711517,28.1522151 42.5711517,27.2609292 L42.5711517,25.8503536 L41.159501,25.8503536 C40.2692902,25.8503536 39.5468003,25.1278637 39.5468003,24.2376529 C39.5468003,23.3474421 40.2692902,22.6249522 41.159501,22.6249522 L42.5711517,22.6249522 L42.5711517,21.2143767 C42.5711517,20.3230907 43.2925665,19.6006008 44.1827773,19.6006008 C45.0740632,19.6006008 45.7965531,20.3230907 45.7965531,21.2143767 L45.7965531,22.6249522 L47.2071287,22.6249522 Z M33.4991726,22.6249522 C34.3893834,22.6249522 35.1118733,23.3474421 35.1118733,24.2376529 C35.1118733,25.1278637 34.3893834,25.8503536 33.4991726,25.8503536 L32.0885971,25.8503536 L32.0885971,27.2609292 C32.0885971,28.1522151 31.3661072,28.8736299 30.4748212,28.8736299 C29.5846105,28.8736299 28.8631957,28.1522151 28.8631957,27.2609292 L28.8631957,25.8503536 L27.451545,25.8503536 C26.5613342,25.8503536 25.8388443,25.1278637 25.8388443,24.2376529 C25.8388443,23.3474421 26.5613342,22.6249522 27.451545,22.6249522 L28.8631957,22.6249522 L28.8631957,21.2143767 C28.8631957,20.3230907 29.5846105,19.6006008 30.4748212,19.6006008 C31.3661072,19.6006008 32.0885971,20.3230907 32.0885971,21.2143767 L32.0885971,22.6249522 L33.4991726,22.6249522 Z M30.4753588,39.9152541 C29.585148,39.9152541 28.8626581,39.1927642 28.8626581,38.3025534 L28.8626581,36.8909027 L27.4510074,36.8909027 C26.5607966,36.8909027 25.8393818,36.1694879 25.8393818,35.2792771 C25.8393818,34.3879912 26.5607966,33.6665764 27.4510074,33.6665764 L28.8626581,33.6665764 L28.8626581,32.2549257 C28.8626581,31.3647149 29.585148,30.642225 30.4753588,30.642225 C31.3655696,30.642225 32.0880595,31.3647149 32.0880595,32.2549257 L32.0880595,33.6665764 L33.4997102,33.6665764 C34.389921,33.6665764 35.1113358,34.3879912 35.1113358,35.2792771 C35.1113358,36.1694879 34.389921,36.8909027 33.4997102,36.8909027 L32.0880595,36.8909027 L32.0880595,38.3025534 C32.0880595,39.1927642 31.3655696,39.9152541 30.4753588,39.9152541 Z M16.7674028,39.9152541 C15.877192,39.9152541 15.1547021,39.1927642 15.1547021,38.3025534 L15.1547021,36.8909027 L13.7430514,36.8909027 C12.8528406,36.8909027 12.1314258,36.1694879 12.1314258,35.2792771 C12.1314258,34.3879912 12.8528406,33.6665764 13.7430514,33.6665764 L15.1547021,33.6665764 L15.1547021,32.2549257 C15.1547021,31.3647149 15.877192,30.642225 16.7674028,30.642225 C17.6576136,30.642225 18.3801035,31.3647149 18.3801035,32.2549257 L18.3801035,33.6665764 L19.7917542,33.6665764 C20.681965,33.6665764 21.4033798,34.3879912 21.4033798,35.2792771 C21.4033798,36.1694879 20.681965,36.8909027 19.7917542,36.8909027 L18.3801035,36.8909027 L18.3801035,38.3025534 C18.3801035,39.1927642 17.6576136,39.9152541 16.7674028,39.9152541 Z M44.1833148,39.9152541 C43.293104,39.9152541 42.5706141,39.1927642 42.5706141,38.3025534 L42.5706141,36.8909027 L41.1589634,36.8909027 C40.2687526,36.8909027 39.5473379,36.1694879 39.5473379,35.2792771 C39.5473379,34.3879912 40.2687526,33.6665764 41.1589634,33.6665764 L42.5706141,33.6665764 L42.5706141,32.2549257 C42.5706141,31.3647149 43.293104,30.642225 44.1833148,30.642225 C45.0735256,30.642225 45.7960155,31.3647149 45.7960155,32.2549257 L45.7960155,33.6665764 L47.2076662,33.6665764 C48.097877,33.6665764 48.8192918,34.3879912 48.8192918,35.2792771 C48.8192918,36.1694879 48.097877,36.8909027 47.2076662,36.8909027 L45.7960155,36.8909027 L45.7960155,38.3025534 C45.7960155,39.1927642 45.0735256,39.9152541 44.1833148,39.9152541 Z" id="path-1"></path>
    </defs>
    <g id="Page-1" stroke="none" stroke-width="1" fill="none" fill-rule="evenodd">
        <g id="iPhone-8-Copy-3" transform="translate(-138.000000, -3510.000000)">
            <g id="Group" transform="translate(61.000000, 3499.000000)">
                <g id="-round/ver1/collagen" transform="translate(69.000000, 0.000000)">
                    <mask id="mask-2" fill="white">
                        <use xlink:href="#path-1"></use>
                    </mask>
                    <use id="Mask" fill="#58585B" fill-rule="evenodd" xlink:href="#path-1"></use>
                    <g id="swatch/brown" mask="url(#mask-2)" fill="#8D7047" fill-rule="evenodd">
                        <rect id="Rectangle" x="0" y="0" width="60" height="60"></rect>
                    </g>
                </g>
            </g>
        </g>
    </g>
</svg>