<?xml version="1.0" encoding="UTF-8"?>
<svg width="39px" height="48px" viewBox="0 0 39 48" version="1.1" xmlns="http://www.w3.org/2000/svg" xmlns:xlink="http://www.w3.org/1999/xlink">
    <!-- Generator: Sketch 52.5 (67469) - http://www.bohemiancoding.com/sketch -->
    <title> round/ver1/gift/2</title>
    <desc>Created with Sketch.</desc>
    <defs>
        <path d="M36.2819222,46.6358325 L46.7747236,46.6358325 L46.7747236,12.6496584 L36.2819222,12.6496584 L36.2819222,46.6358325 Z M24.3613466,50.3078176 C18.2777016,50.3078176 15.1992187,49.0118228 14.9743021,48.3321192 L14.647331,15.3149687 C17.0679083,16.4791841 20.5843344,17.0320626 23.9570914,17.0320626 C27.3516464,17.0320626 30.887889,16.4722484 33.3094571,15.2921798 L33.3094571,47.7673508 C33.3094571,48.4203023 30.2329559,50.3078176 24.3613466,50.3078176 Z M23.9570914,8.97668244 C29.7236735,8.97668244 32.9250183,10.6224372 33.3253103,11.3724892 C33.3193654,11.4210395 33.3094571,11.4685989 33.3094571,11.5191308 L33.3094571,11.6855889 C32.865569,12.4445583 29.6741324,14.0595976 23.9570914,14.0595976 C18.2618484,14.0595976 15.0723935,12.4564481 14.6096798,11.6935155 L14.6076981,11.3487095 C15.0595128,10.5877585 18.2499586,8.97668244 23.9570914,8.97668244 Z M48.2609561,9.67719336 C49.0813565,9.67719336 49.7471886,10.3430255 49.7471886,11.1634259 L49.7471886,48.122065 C49.7471886,48.9424653 49.0813565,49.6082975 48.2609561,49.6082975 L35.6973374,49.6082975 C34.0515826,52.0259023 29.1816941,53.2802826 24.3613466,53.2802826 C21.4622024,53.2802826 12.002828,52.9265592 12.002828,48.3687796 L11.9879656,47.8040112 L11.6421689,12.168119 C11.5985727,11.9580648 11.5728114,11.7430565 11.5728114,11.5191308 C11.5728114,7.72923795 17.992345,6.00421743 23.9570914,6.00421743 C28.8507596,6.00421743 34.043656,7.16843289 35.7538142,9.67719336 L48.2609561,9.67719336 Z M26.4457382,11.5187345 C26.4457382,10.9291956 25.3320546,10.4526104 23.9567942,10.4526104 C22.5835153,10.4526104 21.4708226,10.9291956 21.4708226,11.5187345 C21.4708226,12.1082734 22.5835153,12.5848586 23.9567942,12.5848586 C25.3320546,12.5848586 26.4457382,12.1082734 26.4457382,11.5187345 Z" id="path-1"></path>
    </defs>
    <g id="Page-1" stroke="none" stroke-width="1" fill="none" fill-rule="evenodd">
        <g id="iPhone-8-Copy-3" transform="translate(-141.000000, -3311.000000)">
            <g id="Group-2" transform="translate(112.000000, 3305.000000)">
                <g id="-round/ver1/gift/2" transform="translate(18.000000, 0.000000)">
                    <mask id="mask-2" fill="white">
                        <use xlink:href="#path-1"></use>
                    </mask>
                    <use id="Mask" fill="#58585B" fill-rule="evenodd" xlink:href="#path-1"></use>
                    <g id="swatch/brown" mask="url(#mask-2)" fill="#8D7047" fill-rule="evenodd">
                        <rect id="Rectangle" x="0" y="0" width="60" height="60"></rect>
                    </g>
                </g>
            </g>
        </g>
    </g>
</svg>