<?xml version="1.0" encoding="UTF-8"?>
<svg width="22px" height="22px" viewBox="0 0 22 22" version="1.1" xmlns="http://www.w3.org/2000/svg" xmlns:xlink="http://www.w3.org/1999/xlink">
    <!-- Generator: Sketch 52.5 (67469) - http://www.bohemiancoding.com/sketch -->
    <title>icon/call copy</title>
    <desc>Created with Sketch.</desc>
    <defs>
        <path d="M22.140225,20.5432875 L19.1061,22.9879125 C18.996975,23.0295375 18.731475,23.1082875 18.3546,23.1082875 C17.633475,23.1082875 16.84935,22.8191625 16.087725,22.2712875 L5.735475,12.0495375 C5.68035,11.9831625 4.376475,10.4509125 5.1471,8.4259125 L7.2306,5.1184125 C7.30035,5.0509125 7.4961,4.8990375 7.778475,4.8990375 C8.06535,4.8990375 8.406225,5.0576625 8.71335,5.3152875 L10.3041,6.9026625 L10.433475,7.0084125 C10.433475,7.0084125 10.5516,7.1062875 10.56735,7.2266625 C10.5876,7.3931625 10.4436,7.6586625 10.13985,7.9882875 C9.88335,8.3077875 8.631225,9.9817875 9.202725,11.2721625 L9.261225,11.4026625 L15.8211,17.9591625 C15.8796,18.0255375 16.422975,18.5992875 17.3466,18.5992875 C17.92935,18.5992875 18.515475,18.3709125 19.086975,17.9209125 L19.18035,17.8320375 C19.309725,17.6902875 19.746225,17.3190375 20.182725,17.3190375 C20.373975,17.3190375 20.5596,17.3921625 20.679975,17.4799125 L22.69485,19.4902875 C22.69485,19.4936625 22.788225,19.6084125 22.7826,19.7411625 C22.77135,19.9537875 22.545225,20.2384125 22.140225,20.5432875 M24.307875,19.7121182 L24.307875,19.7428453 C24.3076758,19.7667731 24.3070096,19.7909637 24.30585,19.8154125 C24.273225,20.5117875 23.86035,21.1620375 23.07735,21.7481625 L19.85535,24.3289125 C19.7947255,24.3575714 19.2578266,24.6259874 18.4076102,24.636825 L18.3023438,24.636825 C17.5614331,24.6272789 16.4250099,24.4111379 15.140475,23.4705375 L15.054975,23.4007875 L4.62735,13.0957875 C4.53711369,12.998676 3.38663774,11.6791706 3.375,9.7470954 L3.375,9.68805977 C3.37850123,9.1068435 3.48574942,8.47144892 3.755475,7.7981625 L3.81735,7.6744125 L5.9796,4.2397875 C6.10204824,4.08093573 6.69503571,3.40178656 7.71719598,3.37545 L7.84009535,3.37545 C8.48097157,3.39183104 9.12033241,3.66375082 9.74385,4.1891625 L11.34135,5.7810375 C11.540475,5.9340375 11.99385,6.3480375 12.0816,7.0365375 C12.1626,7.6834125 11.89935,8.3392875 11.295225,8.9839125 C10.928475,9.4496625 10.54935,10.2090375 10.577475,10.5589125 L16.92585,16.9106625 C16.947225,16.9297875 17.097975,17.0749125 17.3466,17.0749125 C17.563725,17.0749125 17.8236,16.9635375 18.096975,16.7576625 C18.32085,16.5270375 19.113975,15.7935375 20.182725,15.7935375 C20.720475,15.7935375 21.2301,15.9769125 21.69135,16.3425375 L23.74785,18.3866625 C23.7834549,18.4211885 24.3012578,18.918252 24.307875,19.7121238 Z" id="path-1"></path>
    </defs>
    <g id="Page-1" stroke="none" stroke-width="1" fill="none" fill-rule="evenodd">
        <g id="q_menu" transform="translate(-954.000000, -1315.000000)">
            <g id="icon/call" transform="translate(951.000000, 1312.000000)">
                <mask id="mask-2" fill="white">
                    <use xlink:href="#path-1"></use>
                </mask>
                <use id="Mask" fill="#231916" fill-rule="evenodd" xlink:href="#path-1"></use>
                <g id="swatch/blue2" mask="url(#mask-2)" fill="#528EB5" fill-rule="evenodd">
                    <rect id="Rectangle" x="0" y="0" width="28" height="27"></rect>
                </g>
                <g id="white" mask="url(#mask-2)" fill="#FFFFFF" fill-rule="nonzero">
                    <rect id="Rectangle" x="0" y="0" width="27" height="27"></rect>
                </g>
            </g>
        </g>
    </g>
</svg>