<?xml version="1.0" encoding="UTF-8"?>
<svg width="19px" height="20px" viewBox="0 0 19 20" version="1.1" xmlns="http://www.w3.org/2000/svg" xmlns:xlink="http://www.w3.org/1999/xlink">
    <!-- Generator: Sketch 52.5 (67469) - http://www.bohemiancoding.com/sketch -->
    <title>icon/counseling</title>
    <desc>Created with Sketch.</desc>
    <defs>
        <path d="M19.252125,16.60275 L20.948625,16.60275 L20.948625,12.367125 L19.252125,12.367125 L19.252125,16.60275 Z M13.23225,21.434625 C12.76425,21.434625 12.385125,21.054375 12.385125,20.58525 C12.385125,20.12175 12.76425,19.7415 13.23225,19.7415 C13.699125,19.7415 14.0805,20.12175 14.0805,20.58525 C14.0805,21.054375 13.699125,21.434625 13.23225,21.434625 Z M6.024375,16.60275 L7.720875,16.60275 L7.720875,12.367125 L6.024375,12.367125 L6.024375,16.60275 Z M21.711375,10.83825 L20.9295,10.83825 C20.7225,6.68925 17.506125,3.375 13.573125,3.375 C9.63675,3.375 6.420375,6.68925 6.2145,10.83825 L5.261625,10.83825 C4.840875,10.83825 4.5,11.18025 4.5,11.59875 L4.5,17.36325 C4.5,17.787375 4.840875,18.1305 5.261625,18.1305 L8.483625,18.1305 C8.9055,18.1305 9.2475,17.787375 9.2475,17.36325 L9.2475,11.59875 C9.2475,11.18025 8.9055,10.83825 8.483625,10.83825 L7.74,10.83825 C7.941375,7.533 10.476,4.90275 13.573125,4.90275 C16.668,4.90275 19.202625,7.533 19.402875,10.83825 L18.4905,10.83825 C18.068625,10.83825 17.72775,11.18025 17.72775,11.59875 L17.72775,17.36325 C17.72775,17.758125 18.027,18.06975 18.40725,18.113625 C17.776125,18.763875 16.767,19.50525 15.424875,19.68075 C15.06825,18.82125 14.22,18.212625 13.23225,18.212625 C11.923875,18.212625 10.8585,19.279125 10.8585,20.58525 C10.8585,21.897 11.923875,22.962375 13.23225,22.962375 C14.317875,22.962375 15.226875,22.224375 15.508125,21.225375 C18.259875,20.9295 19.908,18.81225 20.370375,18.1305 L21.711375,18.1305 C22.13325,18.1305 22.474125,17.787375 22.474125,17.36325 L22.474125,11.59875 C22.474125,11.18025 22.13325,10.83825 21.711375,10.83825 Z" id="path-1"></path>
    </defs>
    <g id="Page-1" stroke="none" stroke-width="1" fill="none" fill-rule="evenodd">
        <g id="q_menu" transform="translate(-955.000000, -1079.000000)">
            <g id="icon/counseling" transform="translate(951.000000, 1076.000000)">
                <mask id="mask-2" fill="white">
                    <use xlink:href="#path-1"></use>
                </mask>
                <use id="Mask" fill="#231916" fill-rule="evenodd" xlink:href="#path-1"></use>
                <g id="swatch/white" mask="url(#mask-2)" fill="#FFFFFF" fill-rule="evenodd">
                    <rect id="Rectangle" x="0" y="0" width="28" height="27"></rect>
                </g>
            </g>
        </g>
    </g>
</svg>