<?xml version="1.0" encoding="UTF-8"?>
<svg width="23px" height="23px" viewBox="0 0 23 23" version="1.1" xmlns="http://www.w3.org/2000/svg" xmlns:xlink="http://www.w3.org/1999/xlink">
    <!-- Generator: Sketch 52.5 (67469) - http://www.bohemiancoding.com/sketch -->
    <title>icon/doctor</title>
    <desc>Created with Sketch.</desc>
    <defs>
        <path d="M23.2891139,6.45817089 L22.0974828,6.45817089 C21.6907061,6.45817089 21.3612919,6.78434737 21.3612919,7.18712591 L21.3612919,8.36704464 L20.5115529,8.36704464 L20.5115529,7.18712591 C20.5115529,6.78434737 20.1821387,6.45817089 19.775362,6.45817089 L18.583731,6.45817089 L18.583731,5.61678381 L19.775362,5.61678381 C20.1821387,5.61678381 20.5115529,5.29060733 20.5115529,4.88782878 L20.5115529,3.70791005 L21.3612919,3.70791005 L21.3612919,4.88782878 C21.3612919,5.29060733 21.6907061,5.61678381 22.0974828,5.61678381 L23.2891139,5.61678381 L23.2891139,6.45817089 Z M24.0253048,4.15887376 L22.8336737,4.15887376 L22.8336737,2.98019054 C22.8336737,2.577412 22.5042595,2.25 22.0974828,2.25 L19.775362,2.25 C19.3685853,2.25 19.0391711,2.577412 19.0391711,2.98019054 L19.0391711,4.15887376 L17.8487878,4.15887376 C17.4407634,4.15887376 17.1113491,4.48505024 17.1113491,4.88782878 L17.1113491,7.18712591 C17.1113491,7.58990445 17.4407634,7.91608094 17.8487878,7.91608094 L19.0391711,7.91608094 L19.0391711,9.09599967 C19.0391711,9.49877821 19.3685853,9.8249547 19.775362,9.8249547 L20.1783953,9.8249547 L20.1783953,22.0046812 C19.9974671,22.9498517 19.1003124,23.0622838 18.9630564,23.0734034 C17.4457545,23.0734034 17.2473573,22.0639861 17.2286406,21.9367278 L17.2286406,17.4690983 C17.2286406,17.406087 17.2199061,17.3443111 17.2036849,17.2837708 C16.7083158,15.4020784 14.8965375,14.9288754 13.9731794,14.9622344 C12.076552,15.0536626 11.2580075,16.6623057 11.0908048,17.5012218 C11.0808226,17.5469359 11.0758314,17.5951211 11.0758314,17.6420707 L11.0833181,22.2258388 C10.9398233,23.2439048 10.0464119,23.3044451 9.74320112,23.2908544 C8.34568617,23.2908544 8.16101455,22.3827494 8.13980227,22.1541788 L8.13980227,14.4383752 C10.7489128,14.1591483 11.8694203,11.8301988 12.1089943,10.4958404 L12.549461,4.71485641 C12.549461,3.07285432 12.0503486,2.53169787 11.7533766,2.35501894 C11.6385808,2.28706551 11.5088115,2.25 11.3740512,2.25 L9.53482166,2.25 C9.1267972,2.25 8.79863075,2.577412 8.79863075,2.98019054 C8.79863075,3.38173357 9.1267972,3.70791005 9.53482166,3.70791005 L10.9647789,3.70791005 C11.0184335,3.87964692 11.0770792,4.176171 11.078327,4.65925814 L10.6503381,10.3117484 C10.6291258,10.4217094 10.1312611,13.008882 7.6132386,13.008882 L7.19398412,13.008882 C4.69966949,13.008882 4.17934473,10.4192384 4.16686691,10.3858794 L3.73139127,4.71485641 C3.73139127,4.19593927 3.79128477,3.88458898 3.84493936,3.70791005 L5.27364884,3.70791005 C5.68042552,3.70791005 6.00983975,3.38173357 6.00983975,2.98019054 C6.00983975,2.577412 5.68042552,2.25 5.27364884,2.25 L3.43317157,2.25 C3.29965898,2.25 3.16864195,2.28706551 3.05509386,2.35501894 C2.75812194,2.53169787 2.25900945,3.07285432 2.26150502,4.76921915 L2.70945847,10.5699714 C2.93905021,11.8363764 4.05830995,14.1603838 6.66866823,14.4383752 L6.66991601,22.1937153 C6.71857948,23.07711 7.42357586,24.747529 9.7045199,24.747529 L9.70701546,24.747529 C9.74320112,24.7487645 9.78063455,24.75 9.81931577,24.75 C10.7064882,24.75 12.2786925,24.2718549 12.549461,22.3271512 L12.549461,17.7248504 C12.6155934,17.4666273 12.9450077,16.4708006 14.0255862,16.4189089 C14.0842319,16.4189089 15.3894111,16.4053182 15.7562587,17.5704107 L15.7587543,22.0022102 C15.8373645,22.8769562 16.6084933,24.530078 18.9992421,24.530078 L19.0004899,24.530078 C19.7915832,24.4893059 21.3600441,23.946914 21.6420427,22.1813602 C21.6482816,22.1430591 21.6507772,22.1059936 21.6507772,22.0664571 L21.6507772,9.8249547 L22.0974828,9.8249547 C22.5042595,9.8249547 22.8336737,9.49877821 22.8336737,9.09599967 L22.8336737,7.91608094 L24.0253048,7.91608094 C24.4320815,7.91608094 24.7614957,7.58990445 24.7614957,7.18712591 L24.7614957,4.88782878 C24.7614957,4.48505024 24.4320815,4.15887376 24.0253048,4.15887376 Z" id="path-1"></path>
    </defs>
    <g id="Page-1" stroke="none" stroke-width="1" fill="none" fill-rule="evenodd">
        <g id="q_menu" transform="translate(-953.000000, -1196.000000)">
            <g id="icon/doctor" transform="translate(951.000000, 1194.000000)">
                <mask id="mask-2" fill="white">
                    <use xlink:href="#path-1"></use>
                </mask>
                <use id="Mask" fill="#613627" fill-rule="evenodd" xlink:href="#path-1"></use>
                <g id="swatch/white" mask="url(#mask-2)" fill="#FFFFFF" fill-rule="evenodd">
                    <rect id="Rectangle" x="0" y="0" width="28" height="27"></rect>
                </g>
            </g>
        </g>
    </g>
</svg>