<?xml version="1.0" encoding="UTF-8"?>
<svg width="23px" height="21px" viewBox="0 0 23 21" version="1.1" xmlns="http://www.w3.org/2000/svg" xmlns:xlink="http://www.w3.org/1999/xlink">
    <!-- Generator: Sketch 52.5 (67469) - http://www.bohemiancoding.com/sketch -->
    <title>social/kakaotalk</title>
    <desc>Created with Sketch.</desc>
    <defs>
        <path d="M10.519425,13.5653625 L11.8638,13.5653625 L11.2203,11.5437375 L10.519425,13.5653625 Z M20.509875,15.5890125 L18.982125,13.5055125 L18.63225,13.7845125 L18.63225,15.3572625 C18.633375,15.8241375 17.443125,15.8241375 17.442,15.3583875 C17.442,15.0613875 17.467875,11.0653875 17.456625,10.6232625 C17.449875,10.3802625 17.762625,10.2542625 18.068625,10.2542625 C18.35325,10.2542625 18.633375,10.3633875 18.639,10.5917625 C18.655875,11.1913875 18.640125,12.2747625 18.640125,12.2747625 C18.640125,12.2747625 20.36475,10.5490125 20.61,10.3048875 C20.863125,10.0540125 21.64725,10.8426375 21.394125,11.0946375 C20.959875,11.5255125 19.8585,12.7168875 19.8585,12.7168875 L21.48075,14.8532625 C21.790125,15.2605125 20.818125,15.9962625 20.509875,15.5890125 M16.767,15.6790125 C16.221375,15.6790125 14.994,15.6846375 14.439375,15.6846375 C13.887,15.6846375 13.97925,15.0388875 13.97925,15.0388875 C13.97925,15.0388875 13.975875,11.7921375 13.9725,10.7841375 C13.9725,10.4297625 14.286375,10.2508875 14.6025,10.2508875 C14.914125,10.2508875 15.228,10.4275125 15.228,10.7807625 C15.23025,11.5108875 15.22575,14.5146375 15.22575,14.5146375 C15.22575,14.5146375 16.219125,14.5213875 16.7625,14.5213875 C17.308125,14.5213875 17.310375,15.6790125 16.767,15.6790125 M12.46725,15.4067625 C12.186,14.6642625 12.258,14.6305125 12.258,14.6305125 L10.1385,14.6305125 L9.90675,15.4427625 C9.658125,16.0108875 8.59275,15.5462625 8.839125,14.9792625 C9.18225,14.1917625 10.211625,11.2262625 10.497375,10.5973875 C10.609875,10.3498875 10.875375,10.2497625 11.147625,10.2497625 C11.476125,10.2497625 11.815875,10.3948875 11.910375,10.5973875 C12.11625,11.0372625 13.242375,14.1310125 13.568625,14.9905125 C13.795875,15.5912625 12.695625,16.0086375 12.46725,15.4067625 M8.0415,11.3871375 L8.037,15.2841375 C8.03925,15.8252625 6.834375,15.8320125 6.83325,15.2908875 C6.838875,14.5495125 6.832125,11.3938875 6.832125,11.3938875 L5.673375,11.3938875 C4.993875,11.3938875 4.99275,10.2553875 5.67225,10.2542625 C5.67225,10.2542625 8.384625,10.2497625 9.19575,10.2497625 C9.916875,10.2497625 9.91575,11.3871375 9.194625,11.3871375 C8.43075,11.3860125 8.0415,11.3871375 8.0415,11.3871375 M13.368375,3.3748875 C7.228125,3.3748875 2.25,7.3101375 2.25,12.1645125 C2.25,15.3246375 4.359375,18.0932625 7.525125,19.6423875 C7.29225,20.5108875 6.6825,22.7878875 6.561,23.2750125 C6.409125,23.8791375 6.782625,23.8712625 7.02675,23.7092625 C7.216875,23.5810125 10.07325,21.6403875 11.304,20.8022625 C11.973375,20.9012625 12.663,20.9541375 13.368375,20.9541375 C19.508625,20.9541375 24.48675,17.0188875 24.48675,12.1645125 C24.48675,7.3101375 19.508625,3.3748875 13.368375,3.3748875" id="path-1"></path>
    </defs>
    <g id="Page-1" stroke="none" stroke-width="1" fill="none" fill-rule="evenodd">
        <g id="q_menu" transform="translate(-953.000000, -1138.000000)">
            <g id="social/kakaotalk" transform="translate(951.000000, 1135.000000)">
                <mask id="mask-2" fill="white">
                    <use xlink:href="#path-1"></use>
                </mask>
                <use id="Mask" fill="#381E1F" fill-rule="evenodd" xlink:href="#path-1"></use>
                <g id="swatch/white" mask="url(#mask-2)" fill="#FFFFFF" fill-rule="evenodd">
                    <rect id="Rectangle" x="0" y="0" width="28" height="27"></rect>
                </g>
            </g>
        </g>
    </g>
</svg>