<?xml version="1.0" encoding="UTF-8"?>
<svg width="17px" height="23px" viewBox="0 0 17 23" version="1.1" xmlns="http://www.w3.org/2000/svg" xmlns:xlink="http://www.w3.org/1999/xlink">
    <!-- Generator: Sketch 52.5 (67469) - http://www.bohemiancoding.com/sketch -->
    <title>icon/location</title>
    <desc>Created with Sketch.</desc>
    <defs>
        <path d="M13.7928375,12.5980875 C12.5305875,12.5980875 11.5034625,11.5709625 11.5034625,10.3053375 C11.5034625,9.0442125 12.5305875,8.0170875 13.7928375,8.0170875 C15.0539625,8.0170875 16.0822125,9.0442125 16.0822125,10.3053375 C16.0822125,11.5709625 15.0539625,12.5980875 13.7928375,12.5980875 M13.7928375,6.4915875 C11.6868375,6.4915875 9.9745875,8.2038375 9.9745875,10.3053375 C9.9745875,12.4113375 11.6868375,14.1235875 13.7928375,14.1235875 C15.8977125,14.1235875 17.6099625,12.4113375 17.6099625,10.3053375 C17.6099625,8.2038375 15.8977125,6.4915875 13.7928375,6.4915875 M20.0005875,12.9754125 L14.6095875,22.2465375 C14.2012125,22.8225375 13.8682125,23.0295375 13.6972125,23.0295375 C13.4182125,23.0295375 13.0379625,22.5030375 12.8849625,22.1419125 C12.8737125,22.1047875 12.8534625,22.0654125 12.8287125,22.0305375 L7.8573375,14.0182875 C6.9753375,12.0112875 7.1688375,10.5150375 7.1722125,10.5060375 C7.1789625,10.4677875 7.1789625,10.4261625 7.1789625,10.3912875 C7.1789625,6.7451625 10.1467125,3.7785375 13.7928375,3.7785375 C17.4389625,3.7785375 20.4067125,6.7451625 20.4134625,10.4835375 C20.4134625,10.4959125 20.5810875,11.9696625 20.0005875,12.9754125 M21.9344625,10.3912875 C21.9344625,5.9014125 18.2815875,2.2496625 13.7928375,2.2496625 C9.3220875,2.2496625 5.6793375,5.8766625 5.6534625,10.3440375 C5.6118375,10.7017875 5.4858375,12.4500375 6.4803375,14.6876625 C6.4938375,14.7191625 6.5129625,14.7484125 6.5320875,14.7799125 L11.5034625,22.7887875 C11.6609625,23.1442875 12.3775875,24.5539125 13.6972125,24.5539125 C14.4577125,24.5539125 15.1844625,24.0757875 15.8943375,23.0711625 L21.3224625,13.7392875 C22.1572125,12.2902875 21.9378375,10.3912875 21.9344625,10.3912875" id="path-1"></path>
    </defs>
    <g id="Page-1" stroke="none" stroke-width="1" fill="none" fill-rule="evenodd">
        <g id="main" transform="translate(-1842.000000, -3959.000000)">
            <g id="quick-menu" transform="translate(1713.000000, 3763.000000)">
                <g id="icon/location" transform="translate(124.000000, 194.000000)">
                    <mask id="mask-2" fill="white">
                        <use xlink:href="#path-1"></use>
                    </mask>
                    <use id="Mask" fill="#231916" fill-rule="evenodd" xlink:href="#path-1"></use>
                    <g id="swatch/white" mask="url(#mask-2)" fill="#FFFFFF" fill-rule="evenodd">
                        <rect id="Rectangle" x="0" y="0" width="28" height="27"></rect>
                    </g>
                    <g id="gray/lighten-2" mask="url(#mask-2)" fill="#636C77" fill-rule="nonzero">
                        <rect id="Rectangle-Copy" x="0" y="0" width="27" height="27"></rect>
                    </g>
                </g>
            </g>
        </g>
    </g>
</svg>