<?xml version="1.0" encoding="UTF-8"?>
<svg width="55px" height="47px" viewBox="0 0 55 47" version="1.1" xmlns="http://www.w3.org/2000/svg" xmlns:xlink="http://www.w3.org/1999/xlink">
    <!-- Generator: Sketch 52.5 (67469) - http://www.bohemiancoding.com/sketch -->
    <title>icon/eye copy</title>
    <desc>Created with Sketch.</desc>
    <defs>
        <path d="M31.8995625,18.416125 C32.8718542,18.416125 33.6599792,17.628 33.6599792,16.6557083 L33.6599792,9.884875 C33.6599792,8.91258333 32.8718542,8.12445833 31.8995625,8.12445833 C30.9272708,8.12445833 30.1391458,8.91258333 30.1391458,9.884875 L30.1391458,16.6557083 C30.1391458,17.628 30.9272708,18.416125 31.8995625,18.416125 M21.2130208,19.8244583 L17.3292708,14.2777917 C16.7740625,13.4815417 16.9663542,12.3846667 17.7653125,11.82675 C18.5588542,11.2715417 19.6584375,11.4638333 20.2163542,12.2600833 L24.0973958,17.80675 C24.6553125,18.603 24.4630208,19.699875 23.6640625,20.2577917 C23.3580208,20.47175 23.0059375,20.5746667 22.6565625,20.5746667 C22.1013542,20.5746667 21.5542708,20.3146667 21.2130208,19.8244583 Z M41.143375,20.57575 C40.794,20.57575 40.4419167,20.4728333 40.135875,20.258875 C39.3369167,19.7009583 39.144625,18.601375 39.7025417,17.8078333 L43.5835833,12.2611667 C44.1415,11.4649167 45.2410833,11.2699167 46.0373333,11.8278333 C46.8335833,12.38575 47.025875,13.482625 46.4706667,14.278875 L42.5869167,19.8255417 C42.2456667,20.3130417 41.6985833,20.57575 41.143375,20.57575 Z M32.0160208,42.89025 C29.3158125,42.89025 27.1166458,40.6910833 27.1166458,37.990875 C27.1166458,35.3042083 29.3158125,33.0887917 32.0160208,33.0887917 C34.7189375,33.0887917 36.9181042,35.3042083 36.9181042,37.990875 C36.9181042,40.6910833 34.7189375,42.89025 32.0160208,42.89025 M32.0160208,29.4244167 C27.2926875,29.4244167 23.4468542,33.2729583 23.4468542,37.990875 C23.4468542,42.7223333 27.2926875,46.5681667 32.0160208,46.5681667 C36.7420625,46.5681667 40.5906042,42.7223333 40.5906042,37.990875 C40.5906042,33.2729583 36.7420625,29.4244167 32.0160208,29.4244167 M32.4628958,50.7482083 C19.4006042,50.7482083 11.4787292,41.17425 9.30122917,38.143625 C11.4787292,35.113 19.4006042,25.5363333 32.4628958,25.5363333 C47.0201875,25.5363333 53.9697708,35.2294583 55.7274792,38.1355 C53.9670625,40.9955 46.9064375,50.7482083 32.4628958,50.7482083 M59.5102083,38.089373 L59.5102083,38.1958546 C59.5025352,38.4471937 59.4405144,38.6975694 59.3241458,38.9290417 C59.0137798,39.5524726 51.5093475,54.1660092 32.6623033,54.2685 L32.2786532,54.2685 C14.9258281,54.1664085 6.03908,39.6662331 5.66664583,39.0482083 C5.33352083,38.4902917 5.33352083,37.79425 5.66664583,37.2390417 C6.04039583,36.616125 14.9887292,22.0182083 32.4628958,22.0182083 C51.4564375,22.0182083 59.0126875,36.729875 59.3241458,37.3582083 C59.4405144,37.5884157 59.5025352,37.8381173 59.5102083,38.0893803 Z" id="path-1"></path>
    </defs>
    <g id="Page-1" stroke="none" stroke-width="1" fill="none" fill-rule="evenodd">
        <g id="Desktop" transform="translate(-364.000000, -229.000000)">
            <g id="bestchoice_4btn" transform="translate(244.000000, 88.000000)">
                <g id="hover">
                    <g id="icon/eye" transform="translate(115.000000, 133.000000)">
                        <mask id="mask-2" fill="white">
                            <use xlink:href="#path-1"></use>
                        </mask>
                        <use id="Mask" fill="#231916" fill-rule="evenodd" xlink:href="#path-1"></use>
                        <g id="swatch/dark-brown1" mask="url(#mask-2)" fill="#6C573A" fill-rule="evenodd">
                            <rect id="Rectangle" x="0" y="0" width="68" height="65"></rect>
                        </g>
                    </g>
                </g>
            </g>
        </g>
    </g>
</svg>