<?xml version="1.0" encoding="UTF-8"?>
<svg width="57px" height="52px" viewBox="0 0 57 52" version="1.1" xmlns="http://www.w3.org/2000/svg" xmlns:xlink="http://www.w3.org/1999/xlink">
    <!-- Generator: Sketch 52.5 (67469) - http://www.bohemiancoding.com/sketch -->
    <title>icon/eye copy</title>
    <desc>Created with Sketch.</desc>
    <defs>
        <path d="M14.3549792,41.3112917 C13.3366458,41.3112917 12.5078958,42.1373333 12.5078958,43.158375 C12.5078958,44.1767083 13.3366458,45.0054583 14.3549792,45.0054583 C15.3733125,45.0054583 16.2020625,44.1767083 16.2020625,43.158375 C16.2020625,42.1373333 15.3733125,41.3112917 14.3549792,41.3112917 M19.5376458,48.9390417 C20.5559792,48.9390417 21.3847292,49.7650833 21.3847292,50.786125 C21.3847292,51.8044583 20.5559792,52.6332083 19.5376458,52.6332083 C18.5193125,52.6332083 17.6905625,51.8044583 17.6905625,50.786125 C17.6905625,49.7650833 18.5193125,48.9390417 19.5376458,48.9390417 Z M26.32825,53.9326667 C27.3465833,53.9326667 28.1753333,54.7587083 28.1753333,55.77975 C28.1753333,56.7980833 27.3465833,57.6268333 26.32825,57.6268333 C25.3099167,57.6268333 24.4811667,56.7980833 24.4811667,55.77975 C24.4811667,54.7587083 25.3099167,53.9326667 26.32825,53.9326667 Z M36.3419113,8.12554167 C50.3690364,8.21583952 61.7685587,19.584387 61.89625,33.6080073 L61.89625,34.0839406 C61.7680483,48.1556551 50.2777268,59.5616667 36.1735833,59.5616667 C35.1579583,59.5616667 34.34275,58.7383333 34.34275,57.7227083 L34.34275,50.5266667 C34.34275,49.5110417 35.1579583,48.685 36.1735833,48.685 C37.1892083,48.685 38.007125,49.5110417 38.007125,50.5266667 L38.007125,55.7997917 C48.715875,54.90875 57.2660833,46.3422917 58.1273333,35.6254167 L52.9137917,35.6254167 C51.8981667,35.6254167 51.072125,34.8020833 51.072125,33.7891667 C51.072125,32.7789583 51.8981667,31.9447917 52.9137917,31.9447917 L58.1219167,31.9447917 C57.2065,21.279375 48.67525,12.7725 38.007125,11.886875 L38.007125,17.054375 C38.007125,18.07 37.1892083,18.8933333 36.1735833,18.8933333 C35.1579583,18.8933333 34.34275,18.07 34.34275,17.054375 L34.34275,11.886875 C24.43025,12.7075 16.3729583,20.1175 14.55025,29.7185417 L16.475875,27.7929167 C17.1881667,27.080625 18.3581667,27.0860417 19.0731667,27.8010417 C19.7881667,28.5160417 19.790875,29.6833333 19.0785833,30.395625 L14.590875,34.880625 L14.5637917,34.8291667 C14.09525,35.3491667 13.4317083,35.6904167 12.6760833,35.6904167 C12.5406667,35.6904167 12.4242083,35.6335417 12.2969167,35.611875 L12.2887917,35.6254167 C11.7904583,35.6254167 11.3435833,35.425 11.0131667,35.1054167 L11.0104583,35.1189583 L5.95129167,30.0597917 C5.239,29.3475 5.239,28.1802083 5.954,27.4652083 C6.669,26.7502083 7.84170833,26.7447917 8.554,27.4570833 L10.8154583,29.7185417 C12.7919456,17.544135 23.308114,8.20734009 36.0053802,8.12554167 L36.3419113,8.12554167 Z M36.1735833,23.4281667 C37.1892083,23.4281667 38.007125,24.2515 38.007125,25.2698333 L38.007125,33.2837917 L43.6242083,33.2837917 C44.6398333,33.2837917 45.4631667,34.1044167 45.4631667,35.114625 C45.4631667,36.1356667 44.6398333,36.9535833 43.6242083,36.9535833 L36.4037917,36.9535833 C36.32525,36.9644167 36.2548333,36.999625 36.1735833,36.999625 C35.1579583,36.999625 34.34275,36.1817083 34.34275,35.1660833 L34.34275,25.2698333 C34.34275,24.2515 35.1579583,23.4281667 36.1735833,23.4281667 Z" id="path-1"></path>
    </defs>
    <g id="Page-1" stroke="none" stroke-width="1" fill="none" fill-rule="evenodd">
        <g id="Desktop" transform="translate(-659.000000, -583.000000)">
            <g id="bestchoice_4btn-copy" transform="translate(212.000000, 534.000000)">
                <g id="normal" transform="translate(327.000000, 0.000000)">
                    <g id="안티에이징">
                        <g id="Group-2" transform="translate(41.000000, 41.000000)">
                            <g id="icon/anti-aging" transform="translate(74.000000, 0.000000)">
                                <mask id="mask-2" fill="white">
                                    <use xlink:href="#path-1"></use>
                                </mask>
                                <use id="Mask" fill="#231916" fill-rule="evenodd" xlink:href="#path-1"></use>
                                <g id="swatch/brown" mask="url(#mask-2)" fill="#8D7047" fill-rule="evenodd">
                                    <rect id="Rectangle" x="0" y="0" width="68" height="65"></rect>
                                </g>
                            </g>
                        </g>
                    </g>
                </g>
            </g>
        </g>
    </g>
</svg>