<?xml version="1.0" encoding="UTF-8"?>
<svg width="59px" height="59px" viewBox="0 0 59 59" version="1.1" xmlns="http://www.w3.org/2000/svg" xmlns:xlink="http://www.w3.org/1999/xlink">
    <!-- Generator: Sketch 52.5 (67469) - http://www.bohemiancoding.com/sketch -->
    <title>icon/eye copy</title>
    <desc>Created with Sketch.</desc>
    <defs>
        <path d="M45.0903646,15.5258599 L51.1082812,9.50794321 L52.9661979,11.3685682 L46.9509896,17.3864849 C46.9401562,17.3973182 46.9374479,17.4135682 46.9239062,17.4244015 L45.0524479,15.5529432 C45.0632812,15.5394015 45.0795312,15.5366932 45.0903646,15.5258599 Z M43.1268229,27.9923182 L40.9005729,25.7660682 C40.2153646,25.0781515 39.0995312,25.0781515 38.4116146,25.7660682 C37.7264062,26.4512765 37.7236979,27.5671099 38.4116146,28.2550265 L40.6378646,30.4812765 L38.3005729,32.8185682 L36.0743229,30.5923182 C35.3864062,29.9044015 34.2732812,29.9044015 33.5853646,30.5923182 C32.8974479,31.2802349 32.8974479,32.3960682 33.5853646,33.0812765 L35.8116146,35.3075265 L33.4716146,37.6475265 L25.1895312,29.3627349 L39.5382812,15.0166932 L47.8203646,23.2987765 L43.1268229,27.9923182 Z M21.6605729,48.1179432 L14.7191146,41.1764849 C14.3480729,40.8054432 14.3480729,40.2041932 14.7191146,39.8358599 L22.7005729,31.8544015 L30.9826562,40.1364849 L28.6453646,42.4737765 L26.4191146,40.2475265 C25.7311979,39.5623182 24.6153646,39.5623182 23.9301562,40.2475265 C23.2422396,40.9354432 23.2422396,42.0485682 23.9301562,42.7364849 L26.1564062,44.9627349 L23.0011979,48.1179432 C22.6328646,48.4862765 22.0289062,48.4862765 21.6605729,48.1179432 Z M14.9520312,48.6677349 C14.5214062,49.0983599 13.7386979,48.3129432 14.1693229,47.8850265 L15.3095312,46.7448182 L16.0922396,47.5275265 L14.9520312,48.6677349 Z M35.6003646,11.0787765 L37.0466146,12.5277349 L12.2301562,37.3469015 C10.4886979,39.0883599 10.4886979,41.9239849 12.2301562,43.6654432 L12.8205729,44.2531515 L11.6803646,45.3933599 C10.5401562,46.5362765 10.2314062,48.1883599 10.7297396,49.6156515 L3.22223958,57.1231515 C2.53703125,57.8110682 2.53703125,58.9269015 3.22223958,59.6148182 C3.91015625,60.3000265 5.02598958,60.3000265 5.71119792,59.6121099 L13.2186979,52.1046099 C14.6486979,52.6029432 16.3007812,52.2969015 17.4436979,51.1566932 L18.5811979,50.0164849 L19.1716146,50.6069015 C20.9130729,52.3483599 23.7486979,52.3483599 25.4928646,50.6069015 L50.3093229,25.7877349 L51.7582812,27.2366932 C52.4461979,27.9246099 53.5593229,27.9246099 54.2472396,27.2366932 C54.9351562,26.5487765 54.9351562,25.4356515 54.2472396,24.7477349 L49.4020312,19.9025265 C49.4128646,19.8889849 49.4291146,19.8862765 49.4399479,19.8754432 L55.4578646,13.8575265 L57.1234896,15.5258599 C57.8114062,16.2137765 58.9272396,16.2137765 59.6124479,15.5258599 C60.3003646,14.8406515 60.3003646,13.7248182 59.6124479,13.0369015 L49.8001562,3.22190154 C49.1122396,2.53669321 47.9964062,2.53669321 47.3084896,3.22460988 C46.6232812,3.90981821 46.6232812,5.02565154 47.3084896,5.71085988 L48.6193229,7.01898488 L42.6014062,13.0369015 C42.5905729,13.0477349 42.5878646,13.0639849 42.5743229,13.0775265 L38.0893229,8.58981821 C37.4014062,7.90190154 36.2882812,7.90190154 35.6003646,8.58710988 C34.9124479,9.27502654 34.9124479,10.3908599 35.6003646,11.0787765 Z" id="path-1"></path>
    </defs>
    <g id="Page-1" stroke="none" stroke-width="1" fill="none" fill-rule="evenodd">
        <g id="Desktop" transform="translate(-951.000000, -577.000000)">
            <g id="bestchoice_4btn-copy" transform="translate(212.000000, 534.000000)">
                <g id="normal" transform="translate(327.000000, 0.000000)">
                    <g id="쁘띠성형" transform="translate(295.000000, 0.000000)">
                        <g id="Group-3" transform="translate(41.000000, 41.000000)">
                            <g id="icon/syringe" transform="translate(74.000000, 0.000000)">
                                <mask id="mask-2" fill="white">
                                    <use xlink:href="#path-1"></use>
                                </mask>
                                <use id="Mask" fill="#00A0E8" fill-rule="evenodd" xlink:href="#path-1"></use>
                                <g id="swatch/brown" mask="url(#mask-2)" fill="#8D7047" fill-rule="evenodd">
                                    <rect id="Rectangle" x="0" y="0" width="68" height="65"></rect>
                                </g>
                            </g>
                        </g>
                    </g>
                </g>
            </g>
        </g>
    </g>
</svg>