<?xml version="1.0" encoding="UTF-8"?>
<svg width="46px" height="57px" viewBox="0 0 46 57" version="1.1" xmlns="http://www.w3.org/2000/svg" xmlns:xlink="http://www.w3.org/1999/xlink">
    <!-- Generator: Sketch 52.4 (67378) - http://www.bohemiancoding.com/sketch -->
    <title>icon/eye copy</title>
    <desc>Created with Sketch.</desc>
    <defs>
        <path d="M43.9998542,16.3160833 C42.5048542,16.3160833 41.2915208,15.10275 41.2915208,13.60775 C41.2915208,12.11275 42.5048542,10.8994167 43.9998542,10.8994167 C45.4948542,10.8994167 46.7081875,12.11275 46.7081875,13.60775 C46.7081875,15.10275 45.4948542,16.3160833 43.9998542,16.3160833 Z M54.6506458,47.435375 C54.9946042,47.7685 55.1896042,48.2262083 55.1896042,48.702875 L55.1896042,59.9885 C55.1896042,60.9607917 54.4014792,61.7489167 53.4291875,61.7489167 C52.4568958,61.7489167 51.6687708,60.9607917 51.6687708,59.9885 L51.6687708,50.4632917 C46.6935625,50.2845417 42.6825208,48.5701667 39.7412708,45.3635 C37.6612708,43.0993333 36.4181458,40.3801667 35.6462708,37.7585 C35.6246042,37.6935 35.6029375,37.6312083 35.5866875,37.5635 C34.6929375,34.42725 34.4789792,31.4562083 34.4681458,29.6280833 C31.2018958,29.3735 28.6262708,28.5257917 28.4989792,28.4824583 C28.0466875,28.3335 27.6756458,28.0057917 27.4671042,27.5751667 C27.2612708,27.14725 27.2368958,26.651625 27.4021042,26.20475 L34.6252292,6.56933333 C34.9583542,5.656625 35.9739792,5.18808333 36.8839792,5.526625 C37.7966875,5.85975 38.2652292,6.87266667 37.9293958,7.785375 L31.3752292,25.6062083 C32.6210625,25.8824583 34.4004375,26.180375 36.2773125,26.180375 C36.7675208,26.180375 37.2387708,26.3889167 37.5718958,26.749125 C37.9050208,27.1120417 38.0702292,27.5968333 38.0323125,28.0870417 C38.0268958,28.1439167 37.7614792,31.7405833 38.7391875,35.7651667 C39.5218958,35.8274583 40.9302292,35.5512083 42.5877292,33.3276667 C43.1700208,32.5449583 44.2723125,32.387875 45.0523125,32.96475 C45.8323125,33.5470417 45.9921042,34.6493333 45.4125208,35.4293333 C43.5681458,37.90475 41.5937708,38.9149583 39.9091875,39.196625 C40.5131458,40.5507917 41.3012708,41.8589167 42.3466875,42.9937083 C44.7598125,45.6180833 48.1858542,46.9532917 52.5300208,46.9587083 C52.8008542,46.9614167 53.0798125,46.9532917 53.3614792,46.9451667 C53.8733542,46.931625 54.3039792,47.10225 54.6506458,47.435375 Z M21.1231042,22.065875 C21.1231042,21.0935833 20.3349792,20.3054583 19.3626875,20.3054583 L12.5918542,20.3054583 C11.6195625,20.3054583 10.8341458,21.0935833 10.8341458,22.065875 C10.8314375,23.0354583 11.6195625,23.8235833 12.5918542,23.8262917 L19.3626875,23.8235833 C20.3349792,23.8262917 21.1231042,23.0354583 21.1231042,22.065875 M20.5121042,29.8683125 L14.9654375,33.7493542 C14.1691875,34.3045625 13.9768958,35.4068542 14.5321042,36.2003958 C15.0900208,36.9993542 16.1868958,37.1916458 16.9831458,36.6337292 L22.5325208,32.7526875 C23.0200208,32.4087292 23.2800208,31.8616458 23.2800208,31.3091458 C23.2800208,30.9597708 23.1798125,30.6076875 22.9658542,30.3016458 C22.4079375,29.5026875 21.3083542,29.3103958 20.5121042,29.8683125 M16.9839583,7.49558333 C16.1877083,6.93766667 15.0908333,7.13266667 14.5329167,7.92891667 C13.9777083,8.72516667 14.17,9.82204167 14.96625,10.3799583 L20.5129167,14.2637083 C21.3091667,14.8189167 22.4060417,14.626625 22.9639583,13.830375 C23.1779167,13.5243333 23.2835417,13.17225 23.2808333,12.822875 C23.2835417,12.2676667 23.0208333,11.7205833 22.530625,11.3793333 L16.9839583,7.49558333 Z" id="path-1"></path>
    </defs>
    <g id="Page-1" stroke="none" stroke-width="1" fill="none" fill-rule="evenodd">
        <g id="main" transform="translate(-1380.000000, -1005.000000)">
            <g id="bestchoice_4btn" transform="translate(370.000000, 864.000000)">
                <g id="normal" transform="translate(295.000000, 0.000000)">
                    <g id="코성형" transform="translate(590.000000, 0.000000)">
                        <g id="Group-4" transform="translate(41.000000, 136.000000)">
                            <g id="icon/nose" transform="translate(74.000000, 0.000000)">
                                <mask id="mask-2" fill="white">
                                    <use xlink:href="#path-1"></use>
                                </mask>
                                <use id="Mask" fill="#00A0E8" fill-rule="evenodd" xlink:href="#path-1"></use>
                                <g id="swatch/dark-brown1" mask="url(#mask-2)" fill="#6C573A" fill-rule="evenodd">
                                    <rect id="Rectangle" x="0" y="0" width="68" height="65"></rect>
                                </g>
                            </g>
                        </g>
                    </g>
                </g>
            </g>
        </g>
    </g>
</svg>