<?xml version="1.0" encoding="UTF-8"?>
<svg width="517px" height="215px" viewBox="0 0 517 215" version="1.1" xmlns="http://www.w3.org/2000/svg" xmlns:xlink="http://www.w3.org/1999/xlink">
    <!-- Generator: Sketch 52.5 (67469) - http://www.bohemiancoding.com/sketch -->
    <title>Group 10</title>
    <desc>Created with Sketch.</desc>
    <defs>
        <path d="M22.4971875,11.953125 C21.8184375,11.953125 21.2671875,11.401875 21.2671875,10.723125 C21.2671875,10.0425 21.8184375,9.493125 22.4971875,9.493125 C23.1759375,9.493125 23.7271875,10.0425 23.7271875,10.723125 C23.7271875,11.401875 23.1759375,11.953125 22.4971875,11.953125 Z M35.5599375,34.863375 C36.0774375,34.863375 36.4974375,35.283375 36.4974375,35.800875 C36.4974375,36.318375 36.0774375,36.738375 35.5599375,36.738375 L34.3580625,36.738375 L34.3580625,37.94025 C34.3580625,38.45775 33.9399375,38.87775 33.4205625,38.87775 C32.9030625,38.87775 32.4830625,38.45775 32.4830625,37.94025 L32.4830625,36.738375 L31.2830625,36.738375 C30.7636875,36.738375 30.3455625,36.318375 30.3455625,35.800875 C30.3455625,35.283375 30.7636875,34.863375 31.2830625,34.863375 L32.4830625,34.863375 L32.4830625,33.6615 C32.4830625,33.144 32.9030625,32.724 33.4205625,32.724 C33.9399375,32.724 34.3580625,33.144 34.3580625,33.6615 L34.3580625,34.863375 L35.5599375,34.863375 Z M39.427125,41.25 L27.123375,41.25 L27.123375,32.578125 C27.123375,32.50875 27.115875,32.44125 27.100875,32.375625 L26.69025,30.525 L28.0515,31.51875 C28.2165,31.640625 28.4115,31.69875 28.60275,31.69875 C28.88025,31.69875 29.154,31.576875 29.33775,31.344375 L31.349625,28.813125 C32.73525,29.326875 34.39275,29.960625 36.024,30.631875 C39.33525,31.995 39.42525,34.505625 39.427125,34.603125 L39.427125,41.25 Z M5.624625,34.603125 C5.624625,34.576875 5.664,32.0175 9.029625,30.631875 C10.644,29.96625 12.2865,29.338125 13.664625,28.828125 L15.667125,31.344375 C15.850875,31.576875 16.124625,31.69875 16.40025,31.69875 C16.5915,31.69875 16.7865,31.640625 16.953375,31.51875 L18.37275,30.48375 L17.950875,32.375625 C17.93775,32.44125 17.93025,32.50875 17.93025,32.578125 L17.93025,41.25 L5.624625,41.25 L5.624625,34.603125 Z M21.160875,25.3875 C21.3165,25.490625 21.498375,25.546875 21.685875,25.546875 L23.2665,25.546875 C23.454,25.546875 23.63775,25.490625 23.793375,25.385625 L26.478375,23.565 L26.478375,26.454375 C26.478375,26.5125 26.499,26.56125 26.51025,26.61375 L24.804,27.534375 C24.444,27.7275 24.264,28.130625 24.33525,28.528125 L24.307125,28.52625 C24.21525,28.674375 23.564625,29.034375 22.49775,29.034375 C21.430875,29.034375 20.778375,28.67625 20.709,28.62375 L20.707125,28.62375 L20.72025,28.561875 C20.81025,28.153125 20.619,27.733125 20.24775,27.534375 L18.100875,26.3775 L18.100875,23.323125 L21.160875,25.3875 Z M22.522125,5.625 C25.1115,5.625 27.33525,6.991875 28.454625,8.964375 L26.3865,8.964375 C25.713375,7.483125 24.228375,6.44625 22.49775,6.44625 C20.767125,6.44625 19.28025,7.483125 18.607125,8.964375 L16.5915,8.964375 C17.709,6.991875 19.934625,5.625 22.522125,5.625 Z M27.108375,11.484375 L28.88025,11.484375 L28.88025,10.839375 L27.108375,10.839375 L27.108375,11.484375 Z M22.49775,8.32125 C23.8215,8.32125 24.899625,9.3975 24.899625,10.723125 C24.899625,12.046875 23.8215,13.125 22.49775,13.125 C21.172125,13.125 20.094,12.046875 20.094,10.723125 C20.094,9.3975 21.172125,8.32125 22.49775,8.32125 Z M17.36775,20.570625 L16.01775,13.359375 L19.154625,13.359375 C19.938375,14.35125 21.138375,15 22.49775,15 C23.883375,15 25.104,14.326875 25.885875,13.303125 C25.97775,13.33125 26.069625,13.359375 26.170875,13.359375 L29.017125,13.359375 L27.333375,20.720625 L22.979625,23.671875 L21.970875,23.671875 L17.36775,20.570625 Z M16.105875,11.484375 L18.219,11.484375 L18.219,10.839375 L16.105875,10.839375 L16.105875,11.484375 Z M19.80525,32.68125 L20.294625,30.48 C20.8965,30.75 21.6465,30.909375 22.49775,30.909375 C23.373375,30.909375 24.142125,30.73875 24.7515,30.45375 L25.248375,32.68125 L25.248375,41.25 L19.80525,41.25 L19.80525,32.68125 Z M16.675875,27.73875 L17.984625,28.44375 L16.574625,29.475 L15.519,28.149375 C16.01025,27.973125 16.409625,27.8325 16.675875,27.73875 Z M29.49525,28.13625 L28.43025,29.475 L27.039,28.45875 L28.375875,27.73875 C28.634625,27.830625 29.024625,27.9675 29.49525,28.13625 Z M36.7365,28.899375 C32.77275,27.26625 28.64025,25.846875 28.599,25.831875 C28.518375,25.80375 28.435875,25.805625 28.353375,25.801875 L28.353375,22.35375 C28.353375,22.335 28.344,22.32 28.342125,22.303125 L28.690875,22.066875 C28.885875,21.931875 29.0265,21.729375 29.077125,21.49875 L29.433375,19.944375 C30.33525,19.734375 31.194,18.9375 31.61775,17.735625 C32.15025,16.21125 31.764,14.7225 30.75525,14.154375 L30.9165,13.449375 C31.042125,12.88875 31.10775,12.328125 31.10775,11.77875 C31.10775,7.351875 27.2565,3.75 22.522125,3.75 C18.6465,3.75 15.399,6.181875 14.33775,9.489375 C14.309625,9.54375 14.2965,9.601875 14.279625,9.661875 C14.079,10.340625 13.938375,11.041875 13.938375,11.77875 C13.938375,12.046875 13.968375,12.305625 14.017125,12.635625 C14.005875,12.729375 14.00775,12.825 14.0265,12.920625 L14.230875,14.008125 C14.219625,14.011875 14.208375,14.01 14.197125,14.01375 C12.978375,14.44125 12.475875,16.07625 13.059,17.7375 C13.495875,18.984375 14.40525,19.801875 15.3465,19.965 L15.59775,21.301875 C15.64275,21.5475 15.787125,21.765 15.99525,21.905625 L16.2315,22.065 C16.229625,22.0725 16.225875,22.08 16.225875,22.089375 L16.225875,25.910625 C15.318375,26.2275 11.75775,27.481875 8.31525,28.899375 C3.802125,30.7575 3.749625,34.4475 3.749625,34.603125 L3.749625,42.1875 C3.749625,42.705 4.169625,43.125 4.687125,43.125 L18.86775,43.125 L26.185875,43.125 C26.215875,43.125 26.24025,43.11 26.268375,43.108125 C26.30025,43.11 26.33025,43.125 26.36025,43.125 L40.364625,43.125 C40.882125,43.125 41.302125,42.705 41.302125,42.1875 L41.302125,34.603125 C41.302125,34.4475 41.249625,30.7575 36.7365,28.899375 Z" id="path-1"></path>
        <path d="M15.0363047,10.0856683 L29.8790391,10.0856683 C30.4450547,10.0856683 30.9044297,9.62124519 30.9044297,9.04900962 C30.9044297,8.47843269 30.4450547,8.01400962 29.8790391,8.01400962 L15.0363047,8.01400962 C14.4702891,8.01400962 14.0109141,8.47843269 14.0109141,9.04900962 C14.0109141,9.62124519 14.4702891,10.0856683 15.0363047,10.0856683 M22.4575078,27.2391346 C23.4746953,27.2391346 24.3032109,28.0750962 24.3032109,29.1034615 C24.3032109,30.1318269 23.4746953,30.9694471 22.4575078,30.9694471 C21.4403203,30.9694471 20.6134453,30.1318269 20.6134453,29.1034615 C20.6134453,28.0750962 21.4403203,27.2391346 22.4575078,27.2391346 M26.3523516,29.1034615 C26.3523516,26.9322837 24.6050859,25.167476 22.4575078,25.167476 C20.3099297,25.167476 18.5643047,26.9322837 18.5643047,29.1034615 C18.5643047,31.2746394 20.3099297,33.0411058 22.4575078,33.0411058 C24.6050859,33.0411058 26.3523516,31.2746394 26.3523516,29.1034615 M24.3929531,37.3011923 L25.3576406,36.224726 L27.2985,39.9633317 L26.9113125,39.7891731 C26.6373281,39.664774 26.3092031,39.6714087 26.0368594,39.8090769 C25.7612344,39.9484038 25.5643594,40.2021779 25.4970938,40.5023942 L25.3904531,40.9618413 L23.6563125,37.642875 C23.9385,37.6345817 24.2059219,37.5118413 24.3929531,37.3011923 Z M21.2675625,34.3404952 L19.6433437,34.6854952 L18.964125,33.1545577 C18.8607656,32.9223462 18.6786562,32.7382356 18.4489687,32.635399 L16.9363125,31.9470577 L17.2759219,30.3083077 C17.3284219,30.0595096 17.2874062,29.8007596 17.1627187,29.5785 L16.3358437,28.1222019 L17.5663125,26.9976346 C17.7533437,26.8267933 17.8698281,26.5929231 17.8977187,26.339149 L18.0749062,24.6722019 L19.7237344,24.494726 C19.9763906,24.4665288 20.2077187,24.3471058 20.3750625,24.1596779 L21.4874062,22.9156875 L22.927875,23.7483317 C23.1477187,23.8743894 23.4118594,23.9158558 23.6464687,23.8644375 L25.2723281,23.5210962 L25.9515469,25.0520337 C26.0549062,25.2842452 26.2386562,25.4700144 26.4667031,25.572851 L27.981,26.257875 L27.63975,27.901601 C27.58725,28.150399 27.6282656,28.409149 27.7529531,28.6280913 L28.5798281,30.0827308 L27.3493594,31.2072981 C27.1623281,31.3781394 27.0442031,31.6120096 27.0179531,31.8657837 L26.8407656,33.5343894 L25.1902969,33.713524 C24.9392812,33.7417212 24.7079531,33.8611442 24.5406094,34.0485721 L23.4282656,35.2925625 L21.9877969,34.456601 C21.8319375,34.3670337 21.6563906,34.3189327 21.4775625,34.3189327 C21.4086562,34.3189327 21.3381094,34.327226 21.2675625,34.3404952 Z M18.8640469,36.8832115 C18.9969375,36.9130673 19.1298281,36.9130673 19.2577969,36.8865288 L21.3069375,36.4503029 L21.4086563,36.5083558 L19.0658438,40.8175385 L18.9575625,40.4443413 C18.8771719,40.1673462 18.6835781,39.933476 18.4276406,39.8074183 C18.2865469,39.7377548 18.1290469,39.6996058 17.9715469,39.6996058 C17.8468594,39.6996058 17.7254531,39.7228269 17.6073281,39.7676106 L17.2496719,39.9069375 L18.8640469,36.8832115 Z M27.3296719,35.5645817 L30.4829531,41.6418894 C30.68475,42.0333317 30.6207656,42.511024 30.3238125,42.8311442 C30.0334219,43.1462885 29.5494375,43.244149 29.1589688,43.0699904 L27.2131875,42.1925625 L26.7685781,44.1381635 C26.6734219,44.5561442 26.3256094,44.8746058 25.9023281,44.9326587 C25.8596719,44.9376346 25.815375,44.9392933 25.7710781,44.9392933 C25.3888125,44.9392933 25.0426406,44.7286442 24.8654531,44.3869615 L22.2158438,39.3214327 L19.6745156,43.9971779 C19.476,44.3604231 19.0724063,44.5743894 18.6671719,44.5279471 C18.2537344,44.4831635 17.9108438,44.192899 17.7943594,43.7898462 L17.3038125,42.1046538 L15.4039688,42.8410962 C15.0069375,42.9936923 14.5442813,42.8759279 14.2670156,42.5574663 C13.9848281,42.2340288 13.9323281,41.7613125 14.134125,41.3814808 L17.5400625,35.0039567 L17.2545938,34.3637163 L15.3432656,33.4962404 C14.9085,33.2972019 14.6624063,32.8112163 14.7608438,32.3368413 L15.1906875,30.2668413 L14.14725,28.4307115 C13.9093594,28.0110721 13.9946719,27.470351 14.3474063,27.1469135 L15.9027188,25.7254471 L16.1258438,23.6206154 C16.1767031,23.1396058 16.5589688,22.7531394 17.03475,22.7017212 L19.1183438,22.4761442 L20.5227188,20.905399 C20.8360781,20.5554231 21.3856875,20.4658558 21.7909219,20.7030433 L23.6087344,21.7546298 L25.6595156,21.3217212 C26.1156094,21.2222019 26.6110781,21.4743173 26.8046719,21.9122019 L27.6610781,23.8445337 L29.5724063,24.7086923 C30.0088125,24.9060721 30.2532656,25.3937163 30.1564688,25.8680913 L29.7249844,27.93975 L30.7684219,29.7758798 C31.0063125,30.1955192 30.921,30.7362404 30.566625,31.0596779 L29.0129531,32.4794856 L28.7898281,34.585976 C28.7373281,35.0653269 28.3567031,35.4534519 27.8809219,35.5048702 L27.3296719,35.5645817 Z M15.0363047,14.1611466 C14.4702891,14.1611466 14.0109141,13.6967236 14.0109141,13.1261466 C14.0109141,12.5539111 14.4702891,12.089488 15.0363047,12.089488 L29.8790391,12.089488 C30.4450547,12.089488 30.9044297,12.5539111 30.9044297,13.1261466 C30.9044297,13.6967236 30.4450547,14.1611466 29.8790391,14.1611466 L15.0363047,14.1611466 Z M15.0363047,18.1069183 C14.4702891,18.1069183 14.0109141,17.6424952 14.0109141,17.0702596 C14.0109141,16.4996827 14.4702891,16.0352596 15.0363047,16.0352596 L22.7898984,16.0352596 C23.3542734,16.0352596 23.8136484,16.4996827 23.8136484,17.0702596 C23.8136484,17.6424952 23.3542734,18.1069183 22.7898984,18.1069183 L15.0363047,18.1069183 Z M34.5154453,3.53365385 C35.0814609,3.53365385 35.5408359,3.99807692 35.5408359,4.5703125 L35.5408359,35.0464183 C35.5408359,35.6169952 35.0814609,36.0814183 34.5154453,36.0814183 L30.4155234,36.0814183 C29.8511484,36.0814183 29.3917734,35.6169952 29.3917734,35.0464183 C29.3917734,34.4741827 29.8511484,34.0097596 30.4155234,34.0097596 L33.4900547,34.0097596 L33.4900547,5.6053125 L11.4236484,5.6053125 L11.4236484,34.0097596 L14.4998203,34.0097596 C15.0641953,34.0097596 15.5235703,34.4741827 15.5235703,35.0464183 C15.5235703,35.6169952 15.0641953,36.0814183 14.4998203,36.0814183 L10.3998984,36.0814183 C9.83552344,36.0814183 9.37450781,35.6169952 9.37450781,35.0464183 L9.37450781,4.5703125 C9.37450781,3.99807692 9.83552344,3.53365385 10.3998984,3.53365385 L34.5154453,3.53365385 Z" id="path-3"></path>
        <path d="M38.8151898,10.7636181 L36.829138,10.7636181 C36.1511769,10.7636181 35.6021532,11.3072456 35.6021532,11.9785432 L35.6021532,13.9450744 L34.1859215,13.9450744 L34.1859215,11.9785432 C34.1859215,11.3072456 33.6368978,10.7636181 32.9589367,10.7636181 L30.9728849,10.7636181 L30.9728849,9.36130635 L32.9589367,9.36130635 C33.6368978,9.36130635 34.1859215,8.81767888 34.1859215,8.14638131 L34.1859215,6.17985009 L35.6021532,6.17985009 L35.6021532,8.14638131 C35.6021532,8.81767888 36.1511769,9.36130635 36.829138,9.36130635 L38.8151898,9.36130635 L38.8151898,10.7636181 Z M40.0421746,6.93145626 L38.0561229,6.93145626 L38.0561229,4.96698424 C38.0561229,4.29568667 37.5070992,3.75 36.829138,3.75 L32.9589367,3.75 C32.2809755,3.75 31.7319518,4.29568667 31.7319518,4.96698424 L31.7319518,6.93145626 L29.7479797,6.93145626 C29.0679389,6.93145626 28.5189152,7.47508374 28.5189152,8.14638131 L28.5189152,11.9785432 C28.5189152,12.6498408 29.0679389,13.1934682 29.7479797,13.1934682 L31.7319518,13.1934682 L31.7319518,15.1599995 C31.7319518,15.831297 32.2809755,16.3749245 32.9589367,16.3749245 L33.6306589,16.3749245 L33.6306589,36.6744687 C33.3291118,38.2497529 31.8338539,38.4371396 31.6050941,38.4556724 C29.0762575,38.4556724 28.7455955,36.7733101 28.7144009,36.561213 L28.7144009,29.1151639 C28.7144009,29.010145 28.6998435,28.9071852 28.6728082,28.8062847 C27.847193,25.6701307 24.8275625,24.881459 23.2886323,24.9370573 C20.1275866,25.0894377 18.7633458,27.7705096 18.4846747,29.168703 C18.4680376,29.2448932 18.4597191,29.3252018 18.4597191,29.4034512 L18.4721969,37.0430646 C18.2330388,38.7398413 16.7440199,38.8407419 16.2386685,38.8180907 C13.9094769,38.8180907 13.6016909,37.3045824 13.5663371,36.9236313 L13.5663371,24.0639586 C17.9148546,23.5985805 19.7823671,19.716998 20.1816571,17.4930674 L20.9157684,7.85809401 C20.9157684,5.12142386 20.0839143,4.21949646 19.5889611,3.92503157 C19.3976346,3.81177585 19.1813525,3.75 18.9567519,3.75 L15.8913694,3.75 C15.2113287,3.75 14.6643846,4.29568667 14.6643846,4.96698424 C14.6643846,5.63622261 15.2113287,6.17985009 15.8913694,6.17985009 L18.2746315,6.17985009 C18.3640558,6.46607819 18.4617987,6.96028499 18.4638783,7.76543023 L17.7505634,17.1862473 C17.7152096,17.3695157 16.8854351,21.68147 12.688731,21.68147 L11.9899735,21.68147 C7.83278248,21.68147 6.96557454,17.3653973 6.94477819,17.309799 L6.21898546,7.85809401 C6.21898546,6.99323211 6.31880795,6.47431497 6.40823227,6.17985009 L8.78941474,6.17985009 C9.46737586,6.17985009 10.0163996,5.63622261 10.0163996,4.96698424 C10.0163996,4.29568667 9.46737586,3.75 8.78941474,3.75 L5.72195261,3.75 C5.49943163,3.75 5.28106992,3.81177585 5.0918231,3.92503157 C4.59686989,4.21949646 3.76501576,5.12142386 3.76917503,7.94869859 L4.51576411,17.6166191 C4.89841702,19.7272939 6.76384992,23.6006397 11.114447,24.0639586 L11.1165267,36.9895256 C11.1976325,38.46185 12.3726264,41.2458816 16.1741998,41.2458816 L16.1783591,41.2458816 C16.2386685,41.2479408 16.3010576,41.25 16.3655263,41.25 C17.844147,41.25 20.4644875,40.4530915 20.9157684,37.2119186 L20.9157684,29.5414173 C21.0259891,29.1110455 21.5750128,27.4513344 23.375977,27.3648482 C23.4737199,27.3648482 25.6490184,27.342197 26.2604312,29.2840179 L26.2645905,36.6703503 C26.3956075,38.1282604 27.6808222,40.8834633 31.6654035,40.8834633 L31.6674831,40.8834633 C32.9859719,40.8155099 35.6000735,39.9115233 36.0700711,36.9689336 C36.0804693,36.9050986 36.0846286,36.8433227 36.0846286,36.7774285 L36.0846286,16.3749245 L36.829138,16.3749245 C37.5070992,16.3749245 38.0561229,15.831297 38.0561229,15.1599995 L38.0561229,13.1934682 L40.0421746,13.1934682 C40.7201358,13.1934682 41.2691595,12.6498408 41.2691595,11.9785432 L41.2691595,8.14638131 C41.2691595,7.47508374 40.7201358,6.93145626 40.0421746,6.93145626 Z" id="path-5"></path>
        <polygon id="path-7" points="271.5 0 363.731706 53.25 363.731706 159.75 271.5 213 179.268294 159.75 179.268294 53.25"></polygon>
    </defs>
    <g id="Page-1" stroke="none" stroke-width="1" fill="none" fill-rule="evenodd">
        <g id="main" transform="translate(-370.000000, -581.000000)">
            <g id="main-banner" transform="translate(-106.000000, 0.000000)">
                <g id="title">
                    <g id="Group-10" transform="translate(463.000000, 582.000000)">
                        <g id="Group-9">
                            <g id="Group-8">
                                <g id="Group-7" opacity="0.200000003">
                                    <polygon id="Polygon-Copy-2" fill="#D8D8D8" points="106.5 0 198.731706 53.25 198.731706 159.75 106.5 213 14.2682945 159.75 14.2682945 53.25"></polygon>
                                    <polygon id="Polygon-Copy-2" fill="#D8D8D8" points="436.5 0 528.731706 53.25 528.731706 159.75 436.5 213 344.268294 159.75 344.268294 53.25"></polygon>
                                    <polygon id="Polygon-Copy" fill="#FFFFFF" points="271.5 0 363.731706 53.25 363.731706 159.75 271.5 213 179.268294 159.75 179.268294 53.25"></polygon>
                                </g>
                                <g id="-round/ver1/doctor2" transform="translate(249.000000, 38.000000)">
                                    <mask id="mask-2" fill="white">
                                        <use xlink:href="#path-1"></use>
                                    </mask>
                                    <use id="Mask" fill="#613627" fill-rule="evenodd" xlink:href="#path-1"></use>
                                    <g id="swatch/white" mask="url(#mask-2)" fill="#FFFFFF" fill-rule="evenodd">
                                        <rect id="Rectangle" x="0" y="0" width="47" height="45"></rect>
                                    </g>
                                </g>
                                <g id="-round/ver1/scholarship" transform="translate(84.000000, 38.000000)">
                                    <mask id="mask-4" fill="white">
                                        <use xlink:href="#path-3"></use>
                                    </mask>
                                    <use id="Mask" fill="#231916" fill-rule="evenodd" xlink:href="#path-3"></use>
                                    <g id="swatch/white" mask="url(#mask-4)" fill="#FFFFFF" fill-rule="evenodd">
                                        <rect id="Rectangle" x="0" y="0" width="47" height="45"></rect>
                                    </g>
                                </g>
                                <g id="-round/ver1/doctor" transform="translate(414.000000, 38.000000)">
                                    <mask id="mask-6" fill="white">
                                        <use xlink:href="#path-5"></use>
                                    </mask>
                                    <use id="Mask" fill="#613627" fill-rule="evenodd" xlink:href="#path-5"></use>
                                    <g id="swatch/white" mask="url(#mask-6)" fill="#FFFFFF" fill-rule="evenodd">
                                        <rect id="Rectangle" x="0" y="0" width="47" height="45"></rect>
                                    </g>
                                </g>
                            </g>
                            <path d="M61.545,123 L61.545,121.47 C65.163,118.23 67.305,115.728 67.305,113.676 C67.305,112.326 66.567,111.516 65.307,111.516 C64.335,111.516 63.525,112.146 62.859,112.884 L61.419,111.444 C62.643,110.148 63.831,109.428 65.649,109.428 C68.169,109.428 69.843,111.048 69.843,113.532 C69.843,115.944 67.845,118.536 65.415,120.912 C66.081,120.84 66.963,120.768 67.575,120.768 L70.473,120.768 L70.473,123 L61.545,123 Z M76.341,123.252 C74.235,123.252 72.831,122.424 71.841,121.434 L73.065,119.742 C73.821,120.48 74.757,121.092 75.999,121.092 C77.385,121.092 78.357,120.21 78.357,118.644 C78.357,117.096 77.457,116.232 76.107,116.232 C75.315,116.232 74.883,116.43 74.109,116.934 L72.903,116.142 L73.263,109.68 L80.391,109.68 L80.391,111.894 L75.549,111.894 L75.297,114.72 C75.819,114.468 76.287,114.342 76.899,114.342 C79.131,114.342 81.003,115.674 81.003,118.572 C81.003,121.542 78.807,123.252 76.341,123.252 Z M94.233,120.156 L94.233,114.774 L90.219,114.774 L90.219,112.902 L94.233,112.902 L94.233,111.678 L90.219,111.678 L90.219,109.806 L94.233,109.806 L94.233,107.97 L96.609,107.97 L96.609,120.156 L94.233,120.156 Z M91.875,115.566 L92.109,117.492 C89.661,117.942 87.465,118.032 84.981,118.032 L83.649,118.032 L83.649,109.014 L86.007,109.014 L86.007,116.088 C88.005,116.052 89.841,115.926 91.875,115.566 Z M88.059,122.37 L96.987,122.37 L96.987,124.26 L85.683,124.26 L85.683,119.076 L88.059,119.076 L88.059,122.37 Z M115.347,108.204 L116.661,108.204 L116.661,124.332 L115.347,124.332 L115.347,108.204 Z M108.201,109.482 C110.577,109.482 112.269,111.66 112.269,115.062 C112.269,118.464 110.577,120.66 108.201,120.66 C105.825,120.66 104.133,118.464 104.133,115.062 C104.133,111.66 105.825,109.482 108.201,109.482 Z M108.201,110.652 C106.563,110.652 105.393,112.416 105.393,115.062 C105.393,117.726 106.563,119.49 108.201,119.49 C109.839,119.49 111.009,117.726 111.009,115.062 C111.009,112.416 109.839,110.652 108.201,110.652 Z M129.351,115.872 L128.649,116.916 C126.885,116.232 125.463,114.882 124.761,113.154 C124.095,115.116 122.619,116.61 120.729,117.366 L120.045,116.304 C122.421,115.422 124.077,113.244 124.077,110.724 L124.077,109.032 L125.391,109.032 L125.391,110.814 C125.391,113.01 127.083,115.08 129.351,115.872 Z M127.443,123.234 C129.891,123.234 131.403,122.55 131.403,121.38 C131.403,120.228 129.891,119.544 127.443,119.544 C124.995,119.544 123.465,120.228 123.465,121.38 C123.465,122.55 124.995,123.234 127.443,123.234 Z M127.443,118.482 C130.719,118.482 132.699,119.544 132.699,121.38 C132.699,123.216 130.719,124.278 127.443,124.278 C124.167,124.278 122.169,123.216 122.169,121.38 C122.169,119.544 124.167,118.482 127.443,118.482 Z M132.537,112.452 L134.949,112.452 L134.949,113.55 L132.537,113.55 L132.537,118.014 L131.223,118.014 L131.223,108.222 L132.537,108.222 L132.537,112.452 Z M141.879,109.41 C144.381,109.41 146.163,110.922 146.163,113.154 C146.163,115.386 144.381,116.898 141.879,116.898 C139.377,116.898 137.595,115.386 137.595,113.154 C137.595,110.922 139.377,109.41 141.879,109.41 Z M141.879,110.544 C140.133,110.544 138.855,111.624 138.855,113.154 C138.855,114.684 140.133,115.782 141.879,115.782 C143.625,115.782 144.885,114.684 144.885,113.154 C144.885,111.624 143.625,110.544 141.879,110.544 Z M148.395,108.204 L149.691,108.204 L149.691,124.332 L148.395,124.332 L148.395,108.204 Z M136.947,120.75 L136.749,119.634 C139.701,119.634 143.787,119.634 147.297,119.076 L147.405,120.048 C143.787,120.732 139.845,120.75 136.947,120.75 Z M67.035,136.488 L63.597,136.488 C62.571,139.098 60.249,140.88 56.595,141.906 L55.677,140.034 C59.457,139.026 61.275,137.244 61.581,134.994 L56.577,134.994 L56.577,133.086 L64.173,133.086 C64.173,133.608 64.137,134.112 64.065,134.598 L67.035,134.598 L67.035,131.97 L69.411,131.97 L69.411,141.51 L67.035,141.51 L67.035,139.926 L63.381,139.926 L63.381,138.018 L67.035,138.018 L67.035,136.488 Z M63.939,146.622 C65.973,146.622 67.179,146.1 67.179,145.092 C67.179,144.084 65.973,143.562 63.939,143.562 C61.887,143.562 60.681,144.084 60.681,145.092 C60.681,146.1 61.887,146.622 63.939,146.622 Z M63.939,141.726 C67.305,141.726 69.519,143.022 69.519,145.092 C69.519,147.162 67.305,148.458 63.939,148.458 C60.555,148.458 58.341,147.162 58.341,145.092 C58.341,143.022 60.555,141.726 63.939,141.726 Z M81.849,133.428 L81.849,135.282 L72.147,135.282 L72.147,133.428 L75.801,133.428 L75.801,131.844 L78.177,131.844 L78.177,133.428 L81.849,133.428 Z M75.297,138.81 C75.297,139.62 75.999,140.052 77.007,140.052 C78.015,140.052 78.717,139.62 78.717,138.81 C78.717,138.018 78.015,137.586 77.007,137.586 C75.999,137.586 75.297,138.018 75.297,138.81 Z M80.985,138.81 C80.985,140.574 79.329,141.798 77.007,141.798 C74.685,141.798 73.029,140.574 73.029,138.81 C73.029,137.046 74.685,135.84 77.007,135.84 C79.329,135.84 80.985,137.046 80.985,138.81 Z M77.277,144.552 L77.277,146.496 L83.649,146.496 L83.649,144.552 L77.277,144.552 Z M74.937,148.35 L74.937,142.68 L85.971,142.68 L85.971,148.35 L74.937,148.35 Z M83.595,131.97 L85.971,131.97 L85.971,141.978 L83.595,141.978 L83.595,138.738 L81.525,138.738 L81.525,136.812 L83.595,136.812 L83.595,131.97 Z M97.455,141.312 L95.133,141.114 C95.511,138.756 95.565,136.974 95.565,135.498 L89.373,135.498 L89.373,133.608 L97.905,133.608 L97.905,134.958 C97.905,136.56 97.905,138.576 97.455,141.312 Z M93.837,138.36 L93.837,143.184 C95.439,143.13 97.059,143.022 98.571,142.842 L98.697,144.552 C95.331,145.128 91.623,145.2 88.743,145.218 L88.527,143.274 C89.445,143.274 90.453,143.274 91.497,143.256 L91.497,138.36 L93.837,138.36 Z M103.935,138.63 L103.935,140.61 L101.703,140.61 L101.703,148.53 L99.327,148.53 L99.327,131.952 L101.703,131.952 L101.703,138.63 L103.935,138.63 Z M118.011,144.768 L124.329,144.768 L124.329,146.694 L109.317,146.694 L109.317,144.768 L115.635,144.768 L115.635,140.988 L111.009,140.988 L111.009,133.23 L113.385,133.23 L113.385,139.098 L122.745,139.098 L122.745,140.988 L118.011,140.988 L118.011,144.768 Z M130.665,143.22 C131.781,143.22 132.591,142.464 132.591,141.186 C132.591,139.944 131.781,139.17 130.665,139.17 C129.549,139.17 128.721,139.944 128.721,141.204 C128.721,142.464 129.549,143.22 130.665,143.22 Z M130.665,137.244 C133.059,137.244 134.841,138.882 134.841,141.186 C134.841,143.526 133.059,145.164 130.665,145.164 C128.253,145.164 126.453,143.526 126.453,141.186 C126.453,138.882 128.253,137.244 130.665,137.244 Z M131.835,132.258 L131.835,134.418 L135.435,134.418 L135.435,136.308 L125.787,136.308 L125.787,134.418 L129.459,134.418 L129.459,132.258 L131.835,132.258 Z M141.267,138.45 L141.267,140.412 L138.891,140.412 L138.891,148.548 L136.515,148.548 L136.515,131.97 L138.891,131.97 L138.891,138.45 L141.267,138.45 Z M149.907,134.418 C147.729,134.418 146.343,135.066 146.343,136.254 C146.343,137.46 147.729,138.108 149.907,138.108 C152.067,138.108 153.453,137.46 153.453,136.254 C153.453,135.066 152.067,134.418 149.907,134.418 Z M149.907,139.998 C146.361,139.998 143.913,138.54 143.913,136.254 C143.913,134.004 146.361,132.528 149.907,132.528 C153.435,132.528 155.901,134.004 155.901,136.254 C155.901,138.54 153.435,139.998 149.907,139.998 Z M157.449,141.24 L157.449,143.148 L151.077,143.148 L151.077,148.566 L148.701,148.566 L148.701,143.148 L142.437,143.148 L142.437,141.24 L157.449,141.24 Z" id="25년-이상의-경험과-노하우" fill="#FFFFFF"></path>
                            <path d="M244.176,97.95 C241.656,97.95 239.928,98.904 239.928,100.362 C239.928,101.82 241.656,102.774 244.176,102.774 C246.696,102.774 248.442,101.82 248.442,100.362 C248.442,98.904 246.696,97.95 244.176,97.95 Z M244.176,103.854 C240.846,103.854 238.596,102.504 238.596,100.362 C238.596,98.22 240.846,96.87 244.176,96.87 C247.524,96.87 249.774,98.22 249.774,100.362 C249.774,102.504 247.524,103.854 244.176,103.854 Z M251.502,105.402 L251.502,106.5 L247.614,106.5 L247.614,112.314 L246.282,112.314 L246.282,106.5 L242.088,106.5 L242.088,112.314 L240.756,112.314 L240.756,106.5 L236.922,106.5 L236.922,105.402 L251.502,105.402 Z M265.38,106.212 L265.38,103.17 L262.122,103.17 L262.122,102.072 L265.38,102.072 L265.38,99.894 L262.122,99.894 L262.122,98.796 L265.38,98.796 L265.38,96.222 L266.676,96.222 L266.676,106.212 L265.38,106.212 Z M262.014,103.764 L262.14,104.844 C260.16,105.204 258.558,105.258 255.3,105.258 L254.166,105.258 L254.166,100.542 L259.728,100.542 L259.728,98.202 L254.13,98.202 L254.13,97.122 L261.024,97.122 L261.024,101.586 L255.48,101.586 L255.48,104.16 C258.558,104.16 260.124,104.106 262.014,103.764 Z M261.42,111.378 C263.904,111.378 265.452,110.676 265.452,109.452 C265.452,108.246 263.904,107.526 261.42,107.526 C258.936,107.526 257.406,108.246 257.406,109.452 C257.406,110.676 258.936,111.378 261.42,111.378 Z M261.42,106.5 C264.75,106.5 266.748,107.58 266.748,109.452 C266.748,111.324 264.75,112.422 261.42,112.422 C258.108,112.422 256.092,111.324 256.092,109.452 C256.092,107.58 258.108,106.5 261.42,106.5 Z M279.402,102.756 L279.564,103.854 C277.296,104.304 275.37,104.412 272.04,104.412 L270.816,104.412 L270.816,97.356 L277.908,97.356 L277.908,98.454 L272.112,98.454 L272.112,103.314 C275.352,103.314 277.224,103.206 279.402,102.756 Z M272.094,107.688 L272.094,106.608 L282.498,106.608 L282.498,112.332 L281.184,112.332 L281.184,107.688 L272.094,107.688 Z M284.91,100.326 L284.91,101.424 L282.498,101.424 L282.498,105.69 L281.184,105.69 L281.184,96.222 L282.498,96.222 L282.498,100.326 L284.91,100.326 Z M288.654,103.314 L288.654,107.328 C291.696,107.328 293.586,107.238 295.8,106.806 L295.944,107.904 C293.622,108.318 291.696,108.426 288.564,108.426 L287.358,108.426 L287.358,97.698 L294.792,97.698 L294.792,98.796 L288.654,98.796 L288.654,102.234 L294.054,102.234 L294.054,103.314 L288.654,103.314 Z M298.5,96.186 L299.814,96.186 L299.814,112.332 L298.5,112.332 L298.5,103.44 L295.062,103.44 L295.062,102.342 L298.5,102.342 L298.5,96.186 Z M303.522,114.33 L303.144,113.466 C304.206,112.962 304.872,112.116 304.89,111.018 C304.818,111.036 304.746,111.036 304.674,111.036 C304.08,111.036 303.558,110.658 303.558,109.956 C303.558,109.29 304.098,108.894 304.692,108.894 C305.502,108.894 306.006,109.578 306.006,110.712 C306.006,112.368 305.016,113.664 303.522,114.33 Z M225.546,123.39 L225.546,131.148 C226.266,131.112 226.986,131.094 227.724,131.04 L227.724,123.39 L225.546,123.39 Z M228.93,123.39 L228.93,130.968 C229.542,130.932 230.136,130.86 230.694,130.788 L230.766,131.742 C228.264,132.21 224.88,132.282 222.792,132.282 L222.63,131.184 C223.134,131.184 223.71,131.184 224.34,131.166 L224.34,123.39 L222.954,123.39 L222.954,122.292 L230.316,122.292 L230.316,123.39 L228.93,123.39 Z M232.134,126.396 L232.134,120.618 L233.376,120.618 L233.376,135.45 L232.134,135.45 L232.134,127.548 L229.83,127.548 L229.83,126.396 L232.134,126.396 Z M235.23,120.222 L236.49,120.222 L236.49,136.314 L235.23,136.314 L235.23,120.222 Z M251.178,120.204 L252.492,120.204 L252.492,136.332 L251.178,136.332 L251.178,120.204 Z M244.032,121.482 C246.408,121.482 248.1,123.66 248.1,127.062 C248.1,130.464 246.408,132.66 244.032,132.66 C241.656,132.66 239.964,130.464 239.964,127.062 C239.964,123.66 241.656,121.482 244.032,121.482 Z M244.032,122.652 C242.394,122.652 241.224,124.416 241.224,127.062 C241.224,129.726 242.394,131.49 244.032,131.49 C245.67,131.49 246.84,129.726 246.84,127.062 C246.84,124.416 245.67,122.652 244.032,122.652 Z M265.272,126.756 L265.434,127.854 C263.166,128.304 261.24,128.412 257.91,128.412 L256.686,128.412 L256.686,121.356 L263.778,121.356 L263.778,122.454 L257.982,122.454 L257.982,127.314 C261.222,127.314 263.094,127.206 265.272,126.756 Z M257.964,131.688 L257.964,130.608 L268.368,130.608 L268.368,136.332 L267.054,136.332 L267.054,131.688 L257.964,131.688 Z M270.78,124.326 L270.78,125.424 L268.368,125.424 L268.368,129.69 L267.054,129.69 L267.054,120.222 L268.368,120.222 L268.368,124.326 L270.78,124.326 Z M274.524,127.314 L274.524,131.328 C277.566,131.328 279.456,131.238 281.67,130.806 L281.814,131.904 C279.492,132.318 277.566,132.426 274.434,132.426 L273.228,132.426 L273.228,121.698 L280.662,121.698 L280.662,122.796 L274.524,122.796 L274.524,126.234 L279.924,126.234 L279.924,127.314 L274.524,127.314 Z M284.37,120.186 L285.684,120.186 L285.684,136.332 L284.37,136.332 L284.37,127.44 L280.932,127.44 L280.932,126.342 L284.37,126.342 L284.37,120.186 Z M295.188,135.036 L295.188,132.75 L292.128,132.75 L292.128,135.036 L295.188,135.036 Z M295.188,131.742 L295.188,129.654 L296.412,129.654 L296.412,136.08 L290.904,136.08 L290.904,129.654 L292.128,129.654 L292.128,131.742 L295.188,131.742 Z M293.424,127.224 C295.08,127.224 296.286,126.162 296.286,124.632 C296.286,123.12 295.08,122.04 293.424,122.04 C291.768,122.04 290.544,123.12 290.544,124.632 C290.544,126.162 291.768,127.224 293.424,127.224 Z M300.93,125.154 L297.492,125.154 C297.258,127.062 295.638,128.322 293.424,128.322 C291.03,128.322 289.302,126.828 289.302,124.632 C289.302,122.436 291.03,120.942 293.424,120.942 C295.62,120.942 297.222,122.184 297.51,124.056 L300.93,124.056 L300.93,120.222 L302.244,120.222 L302.244,128.736 L300.93,128.736 L300.93,125.154 Z M300.93,129.564 L300.93,130.932 C300.93,132.66 301.956,134.46 303.9,135.216 L303.216,136.224 C301.74,135.594 300.75,134.442 300.282,133.092 C299.778,134.424 298.788,135.594 297.348,136.224 L296.664,135.216 C298.608,134.406 299.634,132.588 299.634,130.932 L299.634,129.564 L300.93,129.564 Z M318.48,125.136 L318.48,126.216 L307.572,126.216 L307.572,120.798 L308.886,120.798 L308.886,125.136 L318.48,125.136 Z M308.796,131.22 L308.796,134.82 L318.588,134.82 L318.588,135.918 L307.482,135.918 L307.482,131.22 L308.796,131.22 Z M305.574,128.448 L320.172,128.448 L320.172,129.546 L305.574,129.546 L305.574,128.448 Z M242.835,159 L242.835,156.858 L245.697,156.858 L245.697,148.434 L243.285,148.434 L243.285,146.796 C244.617,146.544 245.535,146.202 246.381,145.68 L248.343,145.68 L248.343,156.858 L250.845,156.858 L250.845,159 L242.835,159 Z M266.505,143.988 L266.505,155.886 L264.111,155.886 L264.111,143.988 L266.505,143.988 Z M255.291,149.244 C255.291,150.576 256.263,151.386 257.487,151.386 C258.729,151.386 259.665,150.576 259.665,149.244 C259.665,147.876 258.729,147.084 257.487,147.084 C256.263,147.084 255.291,147.876 255.291,149.244 Z M261.987,149.244 C261.987,151.656 260.025,153.438 257.487,153.438 C254.949,153.438 252.969,151.656 252.969,149.244 C252.969,146.796 254.949,145.032 257.487,145.032 C260.025,145.032 261.987,146.796 261.987,149.244 Z M257.847,158.37 L266.919,158.37 L266.919,160.26 L255.471,160.26 L255.471,154.716 L257.847,154.716 L257.847,158.37 Z M274.443,148.65 L274.443,148.992 C274.443,151.494 275.289,154.032 277.629,155.274 L276.351,157.038 C274.893,156.264 273.939,154.95 273.345,153.366 C272.787,155.094 271.815,156.57 270.321,157.434 L268.989,155.652 C271.347,154.266 272.193,151.548 272.193,148.992 L272.193,148.65 L269.601,148.65 L269.601,146.742 L272.193,146.742 L272.193,144.51 L274.443,144.51 L274.443,146.742 L276.981,146.742 L276.981,148.65 L274.443,148.65 Z M277.917,150.234 L277.917,144.24 L280.131,144.24 L280.131,159.792 L277.917,159.792 L277.917,152.16 L276.027,152.16 L276.027,150.234 L277.917,150.234 Z M281.265,143.952 L283.515,143.952 L283.515,160.53 L281.265,160.53 L281.265,143.952 Z M291.111,147.552 L291.111,148.362 C291.111,151.134 291.921,153.924 294.315,155.328 L292.929,157.056 C291.453,156.192 290.517,154.752 289.977,153.006 C289.401,154.896 288.429,156.516 286.935,157.452 L285.531,155.706 C287.943,154.176 288.807,151.206 288.807,148.362 L288.807,147.552 L286.143,147.552 L286.143,145.626 L293.523,145.626 L293.523,147.552 L291.111,147.552 Z M294.477,149.622 L294.477,144.24 L296.691,144.24 L296.691,159.792 L294.477,159.792 L294.477,151.548 L292.371,151.548 L292.371,149.622 L294.477,149.622 Z M297.825,143.952 L300.075,143.952 L300.075,160.53 L297.825,160.53 L297.825,143.952 Z" id="유령닥터,-페이닥터없는-1인체제" fill="#FFFFFF"></path>
                            <path d="M412.614,105.6 L415.728,105.6 L415.728,95.97 L418.104,95.97 L418.104,108.534 L415.728,108.534 L415.728,107.22 L412.614,107.22 L412.614,105.6 Z M409.428,98.256 C408.312,98.256 407.538,98.688 407.538,99.498 C407.538,100.308 408.312,100.722 409.428,100.722 C410.526,100.722 411.3,100.308 411.3,99.498 C411.3,98.688 410.526,98.256 409.428,98.256 Z M409.428,102.45 C406.998,102.45 405.288,101.262 405.288,99.498 C405.288,97.734 406.998,96.528 409.428,96.528 C411.84,96.528 413.55,97.734 413.55,99.498 C413.55,101.262 411.84,102.45 409.428,102.45 Z M408.546,110.37 L418.464,110.37 L418.464,112.26 L406.17,112.26 L406.17,107.328 L408.474,107.328 L408.474,105.114 C407.016,105.186 405.63,105.204 404.388,105.204 L404.082,103.314 C407.106,103.296 411.138,103.26 414.63,102.81 L414.792,104.502 C413.496,104.736 412.164,104.88 410.832,104.97 L410.832,108.102 L408.546,108.102 L408.546,110.37 Z M430.596,103.494 L429.462,105.33 C427.644,104.79 426.384,103.692 425.664,102.324 C424.926,103.962 423.612,105.276 421.668,105.906 L420.48,104.052 C423.162,103.152 424.35,101.046 424.386,98.976 L421.092,98.976 L421.092,97.068 L430.056,97.068 L430.056,98.976 L426.816,98.976 C426.852,100.866 427.986,102.72 430.596,103.494 Z M428.346,110.73 C430.452,110.73 431.586,110.28 431.586,109.344 C431.586,108.39 430.452,107.94 428.346,107.94 C426.222,107.94 425.088,108.39 425.088,109.344 C425.088,110.28 426.222,110.73 428.346,110.73 Z M428.346,106.104 C431.784,106.104 433.944,107.31 433.944,109.344 C433.944,111.36 431.784,112.548 428.346,112.548 C424.89,112.548 422.73,111.36 422.73,109.344 C422.73,107.31 424.89,106.104 428.346,106.104 Z M433.764,99.786 L435.96,99.786 L435.96,101.73 L433.764,101.73 L433.764,105.816 L431.388,105.816 L431.388,95.97 L433.764,95.97 L433.764,99.786 Z M447.3,101.82 L447.588,103.746 C445.05,104.286 442.62,104.466 439.65,104.466 L438.21,104.466 L438.21,96.924 L440.568,96.924 L440.568,102.504 C443.034,102.468 445.122,102.306 447.3,101.82 Z M442.35,107.814 L442.35,110.496 L448.704,110.496 L448.704,107.814 L442.35,107.814 Z M440.01,112.35 L440.01,105.96 L451.026,105.96 L451.026,112.35 L440.01,112.35 Z M448.65,95.952 L451.026,95.952 L451.026,105.24 L448.65,105.24 L448.65,95.952 Z M465.192,95.952 L467.568,95.952 L467.568,112.584 L465.192,112.584 L465.192,95.952 Z M458.658,97.122 C461.16,97.122 463.014,99.39 463.014,103.026 C463.014,106.68 461.16,108.966 458.658,108.966 C456.156,108.966 454.302,106.68 454.302,103.026 C454.302,99.39 456.156,97.122 458.658,97.122 Z M458.658,99.264 C457.434,99.264 456.588,100.578 456.588,103.026 C456.588,105.492 457.434,106.806 458.658,106.806 C459.882,106.806 460.728,105.492 460.728,103.026 C460.728,100.578 459.882,99.264 458.658,99.264 Z M394.848,135 L394.848,132.858 L397.71,132.858 L397.71,124.434 L395.298,124.434 L395.298,122.796 C396.63,122.544 397.548,122.202 398.394,121.68 L400.356,121.68 L400.356,132.858 L402.858,132.858 L402.858,135 L394.848,135 Z M409.284,135.252 C406.566,135.252 404.766,132.876 404.766,128.286 C404.766,123.678 406.566,121.428 409.284,121.428 C411.984,121.428 413.784,123.696 413.784,128.286 C413.784,132.876 411.984,135.252 409.284,135.252 Z M409.284,133.182 C410.418,133.182 411.282,132.03 411.282,128.286 C411.282,124.56 410.418,123.48 409.284,123.48 C408.132,123.48 407.268,124.56 407.268,128.286 C407.268,132.03 408.132,133.182 409.284,133.182 Z M419.886,135.252 C417.168,135.252 415.368,132.876 415.368,128.286 C415.368,123.678 417.168,121.428 419.886,121.428 C422.586,121.428 424.386,123.696 424.386,128.286 C424.386,132.876 422.586,135.252 419.886,135.252 Z M419.886,133.182 C421.02,133.182 421.884,132.03 421.884,128.286 C421.884,124.56 421.02,123.48 419.886,123.48 C418.734,123.48 417.87,124.56 417.87,128.286 C417.87,132.03 418.734,133.182 419.886,133.182 Z M428.994,129.87 C427.086,129.87 425.754,128.304 425.754,125.622 C425.754,122.958 427.086,121.428 428.994,121.428 C430.902,121.428 432.252,122.958 432.252,125.622 C432.252,128.304 430.902,129.87 428.994,129.87 Z M428.994,128.376 C429.768,128.376 430.38,127.584 430.38,125.622 C430.38,123.66 429.768,122.922 428.994,122.922 C428.22,122.922 427.626,123.66 427.626,125.622 C427.626,127.584 428.22,128.376 428.994,128.376 Z M429.444,135.252 L436.68,121.428 L438.246,121.428 L430.992,135.252 L429.444,135.252 Z M438.678,135.252 C436.788,135.252 435.438,133.668 435.438,131.004 C435.438,128.322 436.788,126.792 438.678,126.792 C440.568,126.792 441.936,128.322 441.936,131.004 C441.936,133.668 440.568,135.252 438.678,135.252 Z M438.678,133.74 C439.452,133.74 440.064,132.966 440.064,131.004 C440.064,129.042 439.452,128.286 438.678,128.286 C437.904,128.286 437.292,129.042 437.292,131.004 C437.292,132.966 437.904,133.74 438.678,133.74 Z M457.308,128.178 L456.642,129.204 C454.77,128.556 453.258,127.206 452.538,125.478 C451.854,127.332 450.324,128.808 448.416,129.51 L447.732,128.484 C450.108,127.656 451.854,125.568 451.854,123.21 L451.854,122.454 L448.092,122.454 L448.092,121.374 L456.93,121.374 L456.93,122.454 L453.186,122.454 L453.186,123.21 C453.186,125.442 454.968,127.386 457.308,128.178 Z M449.946,131.922 L449.946,130.842 L460.656,130.842 L460.656,136.314 L459.342,136.314 L459.342,131.922 L449.946,131.922 Z M459.342,120.222 L460.656,120.222 L460.656,129.96 L459.342,129.96 L459.342,120.222 Z M473.49,127.782 L472.824,128.826 C471.024,128.16 469.602,126.792 468.9,125.118 C468.216,127.008 466.704,128.52 464.814,129.222 L464.112,128.16 C466.47,127.314 468.216,125.172 468.216,122.85 L468.216,122.292 L464.544,122.292 L464.544,121.212 L473.148,121.212 L473.148,122.292 L469.53,122.292 L469.53,122.85 C469.53,124.956 471.204,126.972 473.49,127.782 Z M475.938,135 L475.938,132.876 L468.306,132.876 L468.306,135 L475.938,135 Z M475.938,131.814 L475.938,129.744 L477.234,129.744 L477.234,136.098 L467.01,136.098 L467.01,129.744 L468.306,129.744 L468.306,131.814 L475.938,131.814 Z M475.92,120.204 L477.234,120.204 L477.234,128.952 L475.92,128.952 L475.92,125.262 L472.608,125.262 L472.608,124.164 L475.92,124.164 L475.92,120.204 Z M382.761,151.872 L382.059,152.916 C380.295,152.232 378.873,150.882 378.171,149.154 C377.505,151.116 376.029,152.61 374.139,153.366 L373.455,152.304 C375.831,151.422 377.487,149.244 377.487,146.724 L377.487,145.032 L378.801,145.032 L378.801,146.814 C378.801,149.01 380.493,151.08 382.761,151.872 Z M380.853,159.234 C383.301,159.234 384.813,158.55 384.813,157.38 C384.813,156.228 383.301,155.544 380.853,155.544 C378.405,155.544 376.875,156.228 376.875,157.38 C376.875,158.55 378.405,159.234 380.853,159.234 Z M380.853,154.482 C384.129,154.482 386.109,155.544 386.109,157.38 C386.109,159.216 384.129,160.278 380.853,160.278 C377.577,160.278 375.579,159.216 375.579,157.38 C375.579,155.544 377.577,154.482 380.853,154.482 Z M385.947,148.452 L388.359,148.452 L388.359,149.55 L385.947,149.55 L385.947,154.014 L384.633,154.014 L384.633,144.222 L385.947,144.222 L385.947,148.452 Z M399.411,150.738 L399.573,151.818 C397.305,152.25 395.379,152.376 392.049,152.376 L390.825,152.376 L390.825,145.302 L397.899,145.302 L397.899,146.382 L392.121,146.382 L392.121,151.278 C395.361,151.278 397.233,151.17 399.411,150.738 Z M393.741,155.292 L393.741,159 L401.211,159 L401.211,155.292 L393.741,155.292 Z M392.463,160.08 L392.463,154.212 L402.507,154.212 L402.507,160.08 L392.463,160.08 Z M404.919,148.2 L404.919,149.298 L402.507,149.298 L402.507,153.312 L401.193,153.312 L401.193,144.204 L402.507,144.204 L402.507,148.2 L404.919,148.2 Z M423.783,144.204 L423.783,153.474 L422.469,153.474 L422.469,144.204 L423.783,144.204 Z M417.645,150.738 L417.645,146.328 L412.767,146.328 L412.767,150.738 L417.645,150.738 Z M418.923,145.266 L418.923,151.8 L411.471,151.8 L411.471,145.266 L418.923,145.266 Z M419.427,155.652 L419.427,155.688 C419.427,157.308 422.091,158.91 424.755,159.252 L424.287,160.26 C421.929,159.918 419.697,158.766 418.761,157.236 C417.807,158.784 415.503,159.918 413.127,160.26 L412.677,159.252 C415.341,158.928 418.077,157.362 418.077,155.688 L418.077,155.652 L413.325,155.652 L413.325,154.608 L418.095,154.608 L418.095,152.988 L419.427,152.988 L419.427,154.608 L424.197,154.608 L424.197,155.652 L419.427,155.652 Z M445.005,150.414 L444.483,151.476 C442.053,151.044 439.533,149.64 438.489,147.642 C437.499,149.658 434.979,151.026 432.513,151.476 L431.991,150.414 C434.781,149.982 437.805,148.074 437.805,145.716 L437.805,144.78 L439.191,144.78 L439.191,145.716 C439.191,148.038 442.251,149.982 445.005,150.414 Z M445.761,153.33 L445.761,154.428 L439.119,154.428 L439.119,160.314 L437.805,160.314 L437.805,154.428 L431.217,154.428 L431.217,153.33 L445.761,153.33 Z M461.511,148.866 L461.061,149.874 C458.577,149.532 456.039,148.398 455.031,146.616 C454.041,148.398 451.521,149.532 449.019,149.874 L448.569,148.866 C451.359,148.542 454.365,146.994 454.365,144.942 L454.365,144.276 L455.715,144.276 L455.715,144.942 C455.715,146.994 458.721,148.542 461.511,148.866 Z M462.321,152.088 L455.679,152.088 L455.679,153.762 L460.431,153.762 L460.431,157.344 L450.873,157.344 L450.873,159.054 L460.917,159.054 L460.917,160.116 L449.595,160.116 L449.595,156.372 L459.135,156.372 L459.135,154.806 L449.541,154.806 L449.541,153.762 L454.383,153.762 L454.383,152.088 L447.777,152.088 L447.777,151.008 L462.321,151.008 L462.321,152.088 Z M481.509,144.222 L481.509,156.03 L480.195,156.03 L480.195,144.222 L481.509,144.222 Z M478.161,152.628 L477.495,153.672 C475.623,153.024 474.111,151.656 473.391,149.928 C472.707,151.8 471.177,153.276 469.269,153.978 L468.585,152.952 C470.961,152.106 472.707,150 472.707,147.678 L472.707,146.652 L468.927,146.652 L468.927,145.572 L477.783,145.572 L477.783,146.652 L474.039,146.652 L474.039,147.678 C474.039,149.892 475.821,151.854 478.161,152.628 Z M472.527,158.856 L482.013,158.856 L482.013,159.954 L471.231,159.954 L471.231,154.914 L472.527,154.914 L472.527,158.856 Z M494.955,149.748 L494.955,153.834 L493.713,153.834 L493.713,144.528 L494.955,144.528 L494.955,148.65 L497.187,148.65 L497.187,144.222 L498.447,144.222 L498.447,154.41 L497.187,154.41 L497.187,149.748 L494.955,149.748 Z M493.047,146.184 L493.047,147.246 L484.803,147.246 L484.803,146.184 L488.295,146.184 L488.295,144.33 L489.591,144.33 L489.591,146.184 L493.047,146.184 Z M486.693,150.882 C486.693,151.926 487.593,152.628 488.925,152.628 C490.275,152.628 491.175,151.926 491.175,150.882 C491.175,149.82 490.275,149.118 488.925,149.118 C487.593,149.118 486.693,149.82 486.693,150.882 Z M492.345,150.882 C492.345,152.538 490.977,153.618 488.925,153.618 C486.909,153.618 485.523,152.538 485.523,150.882 C485.523,149.208 486.909,148.128 488.925,148.128 C490.959,148.128 492.345,149.208 492.345,150.882 Z M493.191,159.252 C495.693,159.252 497.223,158.604 497.223,157.506 C497.223,156.39 495.693,155.742 493.191,155.742 C490.653,155.742 489.141,156.39 489.141,157.506 C489.141,158.604 490.653,159.252 493.191,159.252 Z M493.191,154.698 C496.521,154.698 498.519,155.724 498.519,157.506 C498.519,159.27 496.521,160.278 493.191,160.278 C489.825,160.278 487.827,159.27 487.827,157.506 C487.827,155.724 489.825,154.698 493.191,154.698 Z" id="원장님이-100%-직접-상담-및-수술" fill="#FFFFFF"></path>
                        </g>
                        <polygon id="Polygon-Copy-2" stroke="#FFFFFF" opacity="0.7" points="106.5 0 198.731706 53.25 198.731706 159.75 106.5 213 14.2682945 159.75 14.2682945 53.25"></polygon>
                        <polygon id="Polygon-Copy-2" stroke="#FFFFFF" opacity="0.7" points="436.5 0 528.731706 53.25 528.731706 159.75 436.5 213 344.268294 159.75 344.268294 53.25"></polygon>
                        <g id="Polygon-Copy" opacity="0.400000006">
                            <use stroke="#8D7047" xlink:href="#path-7"></use>
                            <use stroke="#FFFFFF" xlink:href="#path-7"></use>
                        </g>
                    </g>
                </g>
            </g>
        </g>
    </g>
</svg>