<?xml version="1.0" encoding="UTF-8"?>
<svg width="19px" height="19px" viewBox="0 0 19 19" version="1.1" xmlns="http://www.w3.org/2000/svg" xmlns:xlink="http://www.w3.org/1999/xlink">
    <!-- Generator: Sketch 52.5 (67469) - http://www.bohemiancoding.com/sketch -->
    <title>icon/control/plus copy</title>
    <desc>Created with Sketch.</desc>
    <defs>
        <path d="M14.7255,16.428 L7.095875,16.428 C6.630875,16.428 6.249625,16.048 6.249625,15.57925 C6.249625,15.1105 6.630875,14.73425 7.095875,14.73425 L14.7255,14.73425 L14.7255,7.099125 C14.7255,6.630375 15.10675,6.250375 15.578,6.250375 C16.04425,6.250375 16.42425,6.630375 16.42425,7.099125 L16.42425,14.73425 L24.054625,14.73425 C24.523375,14.73425 24.903375,15.1105 24.903375,15.57925 C24.903375,16.048 24.523375,16.428 24.054625,16.428 L16.42425,16.428 L16.42425,24.059125 C16.42425,24.527875 16.04425,24.907875 15.578,24.907875 C15.10675,24.907875 14.7255,24.527875 14.7255,24.059125 L14.7255,16.428 Z" id="path-1"></path>
    </defs>
    <g id="Page-1" stroke="none" stroke-width="1" fill="none" fill-rule="evenodd">
        <g id="main" transform="translate(-1862.000000, -1522.000000)">
            <g id="소개" transform="translate(0.000000, 999.000000)">
                <g id="+btn" transform="translate(1840.958833, 501.000000)">
                    <g id="icon/control/plus" transform="translate(15.007817, 16.000000)">
                        <mask id="mask-2" fill="white">
                            <use xlink:href="#path-1"></use>
                        </mask>
                        <use id="Mask" fill="#231916" fill-rule="evenodd" xlink:href="#path-1"></use>
                        <g id="swatch/white" mask="url(#mask-2)" fill="#FFFFFF" fill-rule="evenodd">
                            <rect id="Rectangle" x="0" y="0" width="31" height="30"></rect>
                        </g>
                        <g id="white" mask="url(#mask-2)" fill="#FFFFFF" fill-rule="nonzero">
                            <rect id="Rectangle" x="0" y="0" width="30" height="30"></rect>
                        </g>
                    </g>
                </g>
            </g>
        </g>
    </g>
</svg>