<?xml version="1.0" encoding="UTF-8"?>
<svg width="60px" height="78px" viewBox="0 0 60 78" version="1.1" xmlns="http://www.w3.org/2000/svg" xmlns:xlink="http://www.w3.org/1999/xlink">
    <!-- Generator: Sketch 52.4 (67378) - http://www.bohemiancoding.com/sketch -->
    <title>Group 7</title>
    <desc>Created with Sketch.</desc>
    <defs>
        <path d="M46.4777604,16.242438 L52.6808437,9.94677136 L54.5959271,11.8932714 L48.3956354,18.188938 C48.3844687,18.2002714 48.3816771,18.2172714 48.3677187,18.2286047 L46.4386771,16.2707714 C46.4498437,16.2566047 46.4665937,16.2537714 46.4777604,16.242438 Z M44.4538021,29.2842714 L42.1590521,26.9552714 C41.4527604,26.2356047 40.3025937,26.2356047 39.5935104,26.9552714 C38.8872187,27.6721047 38.8844271,28.839438 39.5935104,29.5591047 L41.8882604,31.8881047 L39.4790521,34.3332714 L37.1843021,32.0042714 C36.4752187,31.2846047 35.3278437,31.2846047 34.6187604,32.0042714 C33.9096771,32.723938 33.9096771,33.8912714 34.6187604,34.6081047 L36.9135104,36.9371047 L34.5015104,39.3851047 L25.9645937,30.717938 L40.7548437,15.7097714 L49.2917604,24.3741047 L44.4538021,29.2842714 Z M22.3270521,50.3387714 L15.1720104,43.076938 C14.7895521,42.6887714 14.7895521,42.0597714 15.1720104,41.674438 L23.3990521,33.3246047 L31.9359687,41.988938 L29.5267604,44.4341047 L27.2320104,42.1051047 C26.5229271,41.3882714 25.3727604,41.3882714 24.6664687,42.1051047 C23.9573854,42.8247714 23.9573854,43.9892714 24.6664687,44.708938 L26.9612187,47.037938 L23.7089271,50.3387714 C23.3292604,50.7241047 22.7067187,50.7241047 22.3270521,50.3387714 Z M15.4120937,50.913938 C14.9682187,51.364438 14.1614271,50.5427714 14.6053021,50.0951047 L15.7805937,48.9022714 L16.5873854,49.7211047 L15.4120937,50.913938 Z M36.6957604,11.5901047 L38.1865104,13.105938 L12.6064687,39.0706047 C10.8114271,40.892438 10.8114271,43.858938 12.6064687,45.6807714 L13.2150521,46.2956047 L12.0397604,47.488438 C10.8644687,48.6841047 10.5462187,50.412438 11.0598854,51.9056047 L3.32138542,59.7596047 C2.61509375,60.4792714 2.61509375,61.6466047 3.32138542,62.3662714 C4.03046875,63.0831047 5.18063542,63.0831047 5.88692708,62.363438 L13.6254271,54.509438 C15.0994271,55.0307714 16.8023437,54.7106047 17.9804271,53.5177714 L19.1529271,52.324938 L19.7615104,52.9426047 C21.5565521,54.764438 24.4794271,54.764438 26.2772604,52.9426047 L51.8573021,26.977938 L53.3508437,28.4937714 C54.0599271,29.213438 55.2073021,29.213438 55.9163854,28.4937714 C56.6254687,27.7741047 56.6254687,26.6096047 55.9163854,25.889938 L50.9220937,20.8211047 C50.9332604,20.806938 50.9500104,20.8041047 50.9611771,20.7927714 L57.1642604,14.4971047 L58.8811354,16.242438 C59.5902187,16.9621047 60.7403854,16.9621047 61.4466771,16.242438 C62.1557604,15.5256047 62.1557604,14.3582714 61.4466771,13.6386047 L51.3324687,3.37060469 C50.6233854,2.65377136 49.4732187,2.65377136 48.7641354,3.37343802 C48.0578437,4.09027136 48.0578437,5.25760469 48.7641354,5.97443802 L50.1153021,7.34293802 L43.9122187,13.6386047 C43.9010521,13.649938 43.8982604,13.666938 43.8843021,13.6811047 L39.2613021,8.98627136 C38.5522187,8.26660469 37.4048437,8.26660469 36.6957604,8.98343802 C35.9866771,9.70310469 35.9866771,10.870438 36.6957604,11.5901047 Z" id="path-1"></path>
        <path d="M18.5429894,8.67821587 L36.6653439,8.67821587 L36.6653439,7.51597517 L18.5429894,7.51597517 L18.5429894,8.67821587 Z M19.5948571,12.406684 L35.6103915,12.406684 L35.6103915,11.7775244 L19.5948571,11.7775244 L19.5948571,12.406684 Z M36.1964762,24.853507 L19.0118571,24.853507 C19.1198201,23.728458 19.4406243,22.9288364 20.1963651,21.7913902 C21.4055503,19.9689968 22.3926402,17.8490697 22.4327407,17.7591898 C22.5283651,17.5546354 22.5777196,17.3314852 22.5777196,17.1052357 L22.5777196,15.5183897 L27.614963,15.5524821 L32.6306138,15.5183897 L32.6306138,17.1052357 C32.6306138,17.3314852 32.6799683,17.5546354 32.7755926,17.7591898 C32.8156931,17.8490697 33.8027831,19.9689968 35.0119683,21.7913902 C35.767709,22.9288364 36.0885132,23.728458 36.1964762,24.853507 Z M34.1544339,44.4659312 L21.0724074,44.4659312 C19.6102804,44.4318388 18.9532487,44.0134322 18.9655873,43.498947 L18.9654168,42.9534687 L36.2520109,42.9534687 L36.252,43.6384158 C36.2550847,44.0103329 35.6011376,44.4256402 34.1544339,44.4659312 Z M36.242746,27.9528155 L36.2458307,32.9767946 L36.2458307,39.8541601 L18.9655873,39.8541601 L18.9655873,27.9528155 L36.242746,27.9528155 Z M37.1558042,15.5059925 C38.0071693,15.5059925 38.6981323,14.8148467 38.6981323,13.9563383 L38.6981323,11.6783465 C39.3058095,11.4706928 39.75,10.909718 39.75,10.2278701 L39.75,5.96632092 C39.75,5.11091177 39.059037,4.41666667 38.207672,4.41666667 L17.0006614,4.41666667 C16.1492963,4.41666667 15.4583333,5.11091177 15.4583333,5.96632092 L15.4583333,10.2278701 C15.4583333,10.909718 15.9025238,11.4706928 16.5102011,11.6783465 L16.5102011,13.9563383 C16.5102011,14.8148467 17.201164,15.5059925 18.0525291,15.5059925 L19.4930635,15.5059925 L19.4930635,16.7519145 C19.1907672,17.3686769 18.456619,18.8284512 17.6299312,20.0712739 C16.322037,22.0424342 15.8809312,23.5053078 15.8809312,25.8700802 L15.8809312,26.3876647 C15.8809312,26.390764 15.8778466,26.3969626 15.8778466,26.4031612 L15.8778466,41.4038144 C15.8778466,41.4317082 15.8932698,41.4565026 15.8932698,41.4874957 L15.8963545,43.2819954 C15.8624233,43.5175428 15.7452063,44.7634648 16.7137884,45.9133083 C17.596,46.9608746 19.039619,47.5156508 21.0353915,47.5652397 L34.1729418,47.5652397 L34.2130423,47.5652397 C36.1687143,47.5156508 37.6123333,46.9608746 38.494545,45.9133083 C39.463127,44.7634648 39.3459101,43.5175428 39.3274021,43.498947 L39.3274021,41.4193109 C39.3274021,41.4131123 39.3304868,41.4069137 39.3304868,41.4038144 L39.3304868,26.4031612 C39.3304868,26.3969626 39.3274021,26.390764 39.3274021,26.3876647 L39.3274021,25.8700802 C39.3274021,23.5053078 38.8862963,22.0424342 37.5784021,20.0712739 C36.7517143,18.8284512 36.0175661,17.3686769 35.7152698,16.7519145 L35.7152698,15.5059925 L37.1558042,15.5059925 Z" id="path-3"></path>
    </defs>
    <g id="Page-1" stroke="none" stroke-width="1" fill="none" fill-rule="evenodd">
        <g id="미간주름제거" transform="translate(-638.000000, -2415.000000)">
            <g id="Group-7" transform="translate(623.000000, 2409.000000)">
                <g id="-round/ver1/syringe" transform="translate(59.500000, 48.000000) rotate(136.000000) translate(-59.500000, -48.000000) translate(26.000000, 14.000000)">
                    <mask id="mask-2" fill="white">
                        <use xlink:href="#path-1"></use>
                    </mask>
                    <use id="Mask" fill="#00A0E8" fill-rule="evenodd" xlink:href="#path-1"></use>
                    <g id="swatch/dark-brown1" mask="url(#mask-2)" fill="#6C573A" fill-rule="evenodd">
                        <rect id="Rectangle" x="0" y="0" width="70" height="68"></rect>
                    </g>
                </g>
                <g id="-round/ver1/Botox" opacity="0.5" transform="translate(0.000000, 36.000000)">
                    <mask id="mask-4" fill="white">
                        <use xlink:href="#path-3"></use>
                    </mask>
                    <use id="Fill-1" fill="#613627" fill-rule="evenodd" xlink:href="#path-3"></use>
                    <g id="swatch/dark-brown1" mask="url(#mask-4)" fill="#6C573A" fill-rule="evenodd">
                        <rect id="Rectangle" x="0" y="0" width="55" height="53"></rect>
                    </g>
                </g>
            </g>
        </g>
    </g>
</svg>